# Original Basketbroom procedural mesh; units cm, Z up
o SM_BB_PyramidCopper
s 1
v -15502.22532 -4848.93079 4760.83777
v -15501.73360 -4844.77703 4749.20631
v -15503.70125 -4834.91609 4742.01767
v -15507.37672 -4823.11450 4742.01767
v -15511.35608 -4813.88008 4749.20631
v -15514.11937 -4810.74006 4760.83777
v -15514.61110 -4814.89382 4772.46924
v -15512.64344 -4824.75476 4779.65788
v -15508.96798 -4836.55634 4779.65788
v -15504.98861 -4845.79076 4772.46924
v -15316.12726 -4790.97276 4789.40280
v -15315.63553 -4786.81900 4777.77134
v -15317.60319 -4776.95806 4770.58270
v -15321.27865 -4765.15648 4770.58270
v -15325.25801 -4755.92206 4777.77134
v -15328.02130 -4752.78203 4789.40280
v -15328.51303 -4756.93579 4801.03426
v -15326.54537 -4766.79674 4808.22290
v -15322.86991 -4778.59832 4808.22290
v -15318.89054 -4787.83274 4801.03426
v -11811.28030 -3699.42996 5327.37747
v -11810.78858 -3695.27620 5315.74601
v -11812.75623 -3685.41526 5308.55737
v -11816.43170 -3673.61367 5308.55737
v -11820.41106 -3664.37925 5315.74601
v -11823.17435 -3661.23923 5327.37747
v -11823.66608 -3665.39299 5339.00893
v -11821.69842 -3675.25393 5346.19757
v -11818.02296 -3687.05551 5346.19757
v -11814.04359 -3696.28993 5339.00893
v -11439.08417 -3583.51391 5384.50752
v -11438.59244 -3579.36015 5372.87606
v -11440.56010 -3569.49921 5365.68742
v -11444.23556 -3557.69762 5365.68742
v -11448.21493 -3548.46320 5372.87606
v -11450.97822 -3545.32318 5384.50752
v -11451.46994 -3549.47694 5396.13898
v -11449.50229 -3559.33788 5403.32762
v -11445.82682 -3571.13946 5403.32762
v -11441.84746 -3580.37388 5396.13898
v -7934.23722 -2491.97110 5922.48219
v -7933.74549 -2487.81734 5910.85073
v -7935.71315 -2477.95640 5903.66209
v -7939.38861 -2466.15482 5903.66209
v -7943.36798 -2456.92040 5910.85073
v -7946.13126 -2453.78037 5922.48219
v -7946.62299 -2457.93413 5934.11365
v -7944.65533 -2467.79507 5941.30229
v -7940.97987 -2479.59666 5941.30229
v -7937.00051 -2488.83108 5934.11365
v -7562.04108 -2376.05505 5979.61224
v -7561.54935 -2371.90129 5967.98078
v -7563.51701 -2362.04035 5960.79214
v -7567.19247 -2350.23877 5960.79214
v -7571.17184 -2341.00435 5967.98078
v -7573.93513 -2337.86432 5979.61224
v -7574.42686 -2342.01808 5991.24371
v -7572.45920 -2351.87902 5998.43235
v -7568.78374 -2363.68061 5998.43235
v -7564.80437 -2372.91503 5991.24371
v -4057.19413 -1284.51224 6517.58691
v -4056.70240 -1280.35849 6505.95545
v -4058.67006 -1270.49754 6498.76681
v -4062.34552 -1258.69596 6498.76681
v -4066.32489 -1249.46154 6505.95545
v -4069.08818 -1246.32152 6517.58691
v -4069.57991 -1250.47527 6529.21838
v -4067.61225 -1260.33622 6536.40701
v -4063.93679 -1272.13780 6536.40701
v -4059.95742 -1281.37222 6529.21838
v -3684.99800 -1168.59619 6574.71697
v -3684.50627 -1164.44244 6563.08550
v -3686.47393 -1154.58149 6555.89687
v -3690.14939 -1142.77991 6555.89687
v -3694.12875 -1133.54549 6563.08550
v -3696.89204 -1130.40547 6574.71697
v -3697.38377 -1134.55922 6586.34843
v -3695.41611 -1144.42017 6593.53707
v -3691.74065 -1156.22175 6593.53707
v -3687.76128 -1165.45617 6586.34843
v 15514.11937 -4810.74006 4760.83777
v 15511.35608 -4813.88008 4749.20631
v 15507.37672 -4823.11450 4742.01767
v 15503.70125 -4834.91609 4742.01767
v 15501.73360 -4844.77703 4749.20631
v 15502.22532 -4848.93079 4760.83777
v 15504.98861 -4845.79076 4772.46924
v 15508.96798 -4836.55634 4779.65788
v 15512.64344 -4824.75476 4779.65788
v 15514.61110 -4814.89382 4772.46924
v 15328.02130 -4752.78203 4789.40280
v 15325.25801 -4755.92206 4777.77134
v 15321.27865 -4765.15648 4770.58270
v 15317.60319 -4776.95806 4770.58270
v 15315.63553 -4786.81900 4777.77134
v 15316.12726 -4790.97276 4789.40280
v 15318.89054 -4787.83274 4801.03426
v 15322.86991 -4778.59832 4808.22290
v 15326.54537 -4766.79674 4808.22290
v 15328.51303 -4756.93579 4801.03426
v 11823.17435 -3661.23923 5327.37747
v 11820.41106 -3664.37925 5315.74601
v 11816.43170 -3673.61367 5308.55737
v 11812.75623 -3685.41526 5308.55737
v 11810.78858 -3695.27620 5315.74601
v 11811.28030 -3699.42996 5327.37747
v 11814.04359 -3696.28993 5339.00893
v 11818.02296 -3687.05551 5346.19757
v 11821.69842 -3675.25393 5346.19757
v 11823.66608 -3665.39299 5339.00893
v 11450.97822 -3545.32318 5384.50752
v 11448.21493 -3548.46320 5372.87606
v 11444.23556 -3557.69762 5365.68742
v 11440.56010 -3569.49921 5365.68742
v 11438.59244 -3579.36015 5372.87606
v 11439.08417 -3583.51391 5384.50752
v 11441.84746 -3580.37388 5396.13898
v 11445.82682 -3571.13946 5403.32762
v 11449.50229 -3559.33788 5403.32762
v 11451.46994 -3549.47694 5396.13898
v 7946.13126 -2453.78037 5922.48219
v 7943.36798 -2456.92040 5910.85073
v 7939.38861 -2466.15482 5903.66209
v 7935.71315 -2477.95640 5903.66209
v 7933.74549 -2487.81734 5910.85073
v 7934.23722 -2491.97110 5922.48219
v 7937.00051 -2488.83108 5934.11365
v 7940.97987 -2479.59666 5941.30229
v 7944.65533 -2467.79507 5941.30229
v 7946.62299 -2457.93413 5934.11365
v 7573.93513 -2337.86432 5979.61224
v 7571.17184 -2341.00435 5967.98078
v 7567.19247 -2350.23877 5960.79214
v 7563.51701 -2362.04035 5960.79214
v 7561.54935 -2371.90129 5967.98078
v 7562.04108 -2376.05505 5979.61224
v 7564.80437 -2372.91503 5991.24371
v 7568.78374 -2363.68061 5998.43235
v 7572.45920 -2351.87902 5998.43235
v 7574.42686 -2342.01808 5991.24371
v 4069.08818 -1246.32152 6517.58691
v 4066.32489 -1249.46154 6505.95545
v 4062.34552 -1258.69596 6498.76681
v 4058.67006 -1270.49754 6498.76681
v 4056.70240 -1280.35849 6505.95545
v 4057.19413 -1284.51224 6517.58691
v 4059.95742 -1281.37222 6529.21838
v 4063.93679 -1272.13780 6536.40701
v 4067.61225 -1260.33622 6536.40701
v 4069.57991 -1250.47527 6529.21838
v 3696.89204 -1130.40547 6574.71697
v 3694.12875 -1133.54549 6563.08550
v 3690.14939 -1142.77991 6555.89687
v 3686.47393 -1154.58149 6555.89687
v 3684.50627 -1164.44244 6563.08550
v 3684.99800 -1168.59619 6574.71697
v 3687.76128 -1165.45617 6586.34843
v 3691.74065 -1156.22175 6593.53707
v 3695.41611 -1144.42017 6593.53707
v 3697.38377 -1134.55922 6586.34843
v 15502.22532 4848.93079 4760.83777
v 15501.73360 4844.77703 4749.20631
v 15503.70125 4834.91609 4742.01767
v 15507.37672 4823.11450 4742.01767
v 15511.35608 4813.88008 4749.20631
v 15514.11937 4810.74006 4760.83777
v 15514.61110 4814.89382 4772.46924
v 15512.64344 4824.75476 4779.65788
v 15508.96798 4836.55634 4779.65788
v 15504.98861 4845.79076 4772.46924
v 15316.12726 4790.97276 4789.40280
v 15315.63553 4786.81900 4777.77134
v 15317.60319 4776.95806 4770.58270
v 15321.27865 4765.15648 4770.58270
v 15325.25801 4755.92206 4777.77134
v 15328.02130 4752.78203 4789.40280
v 15328.51303 4756.93579 4801.03426
v 15326.54537 4766.79674 4808.22290
v 15322.86991 4778.59832 4808.22290
v 15318.89054 4787.83274 4801.03426
v 11811.28030 3699.42996 5327.37747
v 11810.78858 3695.27620 5315.74601
v 11812.75623 3685.41526 5308.55737
v 11816.43170 3673.61367 5308.55737
v 11820.41106 3664.37925 5315.74601
v 11823.17435 3661.23923 5327.37747
v 11823.66608 3665.39299 5339.00893
v 11821.69842 3675.25393 5346.19757
v 11818.02296 3687.05551 5346.19757
v 11814.04359 3696.28993 5339.00893
v 11439.08417 3583.51391 5384.50752
v 11438.59244 3579.36015 5372.87606
v 11440.56010 3569.49921 5365.68742
v 11444.23556 3557.69762 5365.68742
v 11448.21493 3548.46320 5372.87606
v 11450.97822 3545.32318 5384.50752
v 11451.46994 3549.47694 5396.13898
v 11449.50229 3559.33788 5403.32762
v 11445.82682 3571.13946 5403.32762
v 11441.84746 3580.37388 5396.13898
v 7934.23722 2491.97110 5922.48219
v 7933.74549 2487.81734 5910.85073
v 7935.71315 2477.95640 5903.66209
v 7939.38861 2466.15482 5903.66209
v 7943.36798 2456.92040 5910.85073
v 7946.13126 2453.78037 5922.48219
v 7946.62299 2457.93413 5934.11365
v 7944.65533 2467.79507 5941.30229
v 7940.97987 2479.59666 5941.30229
v 7937.00051 2488.83108 5934.11365
v 7562.04108 2376.05505 5979.61224
v 7561.54935 2371.90129 5967.98078
v 7563.51701 2362.04035 5960.79214
v 7567.19247 2350.23877 5960.79214
v 7571.17184 2341.00435 5967.98078
v 7573.93513 2337.86432 5979.61224
v 7574.42686 2342.01808 5991.24371
v 7572.45920 2351.87902 5998.43235
v 7568.78374 2363.68061 5998.43235
v 7564.80437 2372.91503 5991.24371
v 4057.19413 1284.51224 6517.58691
v 4056.70240 1280.35849 6505.95545
v 4058.67006 1270.49754 6498.76681
v 4062.34552 1258.69596 6498.76681
v 4066.32489 1249.46154 6505.95545
v 4069.08818 1246.32152 6517.58691
v 4069.57991 1250.47527 6529.21838
v 4067.61225 1260.33622 6536.40701
v 4063.93679 1272.13780 6536.40701
v 4059.95742 1281.37222 6529.21838
v 3684.99800 1168.59619 6574.71697
v 3684.50627 1164.44244 6563.08550
v 3686.47393 1154.58149 6555.89687
v 3690.14939 1142.77991 6555.89687
v 3694.12875 1133.54549 6563.08550
v 3696.89204 1130.40547 6574.71697
v 3697.38377 1134.55922 6586.34843
v 3695.41611 1144.42017 6593.53707
v 3691.74065 1156.22175 6593.53707
v 3687.76128 1165.45617 6586.34843
v -15514.11937 4810.74006 4760.83777
v -15511.35608 4813.88008 4749.20631
v -15507.37672 4823.11450 4742.01767
v -15503.70125 4834.91609 4742.01767
v -15501.73360 4844.77703 4749.20631
v -15502.22532 4848.93079 4760.83777
v -15504.98861 4845.79076 4772.46924
v -15508.96798 4836.55634 4779.65788
v -15512.64344 4824.75476 4779.65788
v -15514.61110 4814.89382 4772.46924
v -15328.02130 4752.78203 4789.40280
v -15325.25801 4755.92206 4777.77134
v -15321.27865 4765.15648 4770.58270
v -15317.60319 4776.95806 4770.58270
v -15315.63553 4786.81900 4777.77134
v -15316.12726 4790.97276 4789.40280
v -15318.89054 4787.83274 4801.03426
v -15322.86991 4778.59832 4808.22290
v -15326.54537 4766.79674 4808.22290
v -15328.51303 4756.93579 4801.03426
v -11823.17435 3661.23923 5327.37747
v -11820.41106 3664.37925 5315.74601
v -11816.43170 3673.61367 5308.55737
v -11812.75623 3685.41526 5308.55737
v -11810.78858 3695.27620 5315.74601
v -11811.28030 3699.42996 5327.37747
v -11814.04359 3696.28993 5339.00893
v -11818.02296 3687.05551 5346.19757
v -11821.69842 3675.25393 5346.19757
v -11823.66608 3665.39299 5339.00893
v -11450.97822 3545.32318 5384.50752
v -11448.21493 3548.46320 5372.87606
v -11444.23556 3557.69762 5365.68742
v -11440.56010 3569.49921 5365.68742
v -11438.59244 3579.36015 5372.87606
v -11439.08417 3583.51391 5384.50752
v -11441.84746 3580.37388 5396.13898
v -11445.82682 3571.13946 5403.32762
v -11449.50229 3559.33788 5403.32762
v -11451.46994 3549.47694 5396.13898
v -7946.13126 2453.78037 5922.48219
v -7943.36798 2456.92040 5910.85073
v -7939.38861 2466.15482 5903.66209
v -7935.71315 2477.95640 5903.66209
v -7933.74549 2487.81734 5910.85073
v -7934.23722 2491.97110 5922.48219
v -7937.00051 2488.83108 5934.11365
v -7940.97987 2479.59666 5941.30229
v -7944.65533 2467.79507 5941.30229
v -7946.62299 2457.93413 5934.11365
v -7573.93513 2337.86432 5979.61224
v -7571.17184 2341.00435 5967.98078
v -7567.19247 2350.23877 5960.79214
v -7563.51701 2362.04035 5960.79214
v -7561.54935 2371.90129 5967.98078
v -7562.04108 2376.05505 5979.61224
v -7564.80437 2372.91503 5991.24371
v -7568.78374 2363.68061 5998.43235
v -7572.45920 2351.87902 5998.43235
v -7574.42686 2342.01808 5991.24371
v -4069.08818 1246.32152 6517.58691
v -4066.32489 1249.46154 6505.95545
v -4062.34552 1258.69596 6498.76681
v -4058.67006 1270.49754 6498.76681
v -4056.70240 1280.35849 6505.95545
v -4057.19413 1284.51224 6517.58691
v -4059.95742 1281.37222 6529.21838
v -4063.93679 1272.13780 6536.40701
v -4067.61225 1260.33622 6536.40701
v -4069.57991 1250.47527 6529.21838
v -3696.89204 1130.40547 6574.71697
v -3694.12875 1133.54549 6563.08550
v -3690.14939 1142.77991 6555.89687
v -3686.47393 1154.58149 6555.89687
v -3684.50627 1164.44244 6563.08550
v -3684.99800 1168.59619 6574.71697
v -3687.76128 1165.45617 6586.34843
v -3691.74065 1156.22175 6593.53707
v -3695.41611 1144.42017 6593.53707
v -3697.38377 1134.55922 6586.34843
v 31.00000 0.00000 7141.25666
v -31.00000 0.00000 7141.25666
v 0.00000 31.00000 7141.25666
v 0.00000 -31.00000 7141.25666
v 0.00000 0.00000 7172.25666
v 0.00000 0.00000 7110.25666
f 1 2 12 11
f 2 3 13 12
f 3 4 14 13
f 4 5 15 14
f 5 6 16 15
f 6 7 17 16
f 7 8 18 17
f 8 9 19 18
f 9 10 20 19
f 10 1 11 20
f 10 9 8 7 6 5 4 3 2 1
f 11 12 13 14 15 16 17 18 19 20
f 21 22 32 31
f 22 23 33 32
f 23 24 34 33
f 24 25 35 34
f 25 26 36 35
f 26 27 37 36
f 27 28 38 37
f 28 29 39 38
f 29 30 40 39
f 30 21 31 40
f 30 29 28 27 26 25 24 23 22 21
f 31 32 33 34 35 36 37 38 39 40
f 41 42 52 51
f 42 43 53 52
f 43 44 54 53
f 44 45 55 54
f 45 46 56 55
f 46 47 57 56
f 47 48 58 57
f 48 49 59 58
f 49 50 60 59
f 50 41 51 60
f 50 49 48 47 46 45 44 43 42 41
f 51 52 53 54 55 56 57 58 59 60
f 61 62 72 71
f 62 63 73 72
f 63 64 74 73
f 64 65 75 74
f 65 66 76 75
f 66 67 77 76
f 67 68 78 77
f 68 69 79 78
f 69 70 80 79
f 70 61 71 80
f 70 69 68 67 66 65 64 63 62 61
f 71 72 73 74 75 76 77 78 79 80
f 81 82 92 91
f 82 83 93 92
f 83 84 94 93
f 84 85 95 94
f 85 86 96 95
f 86 87 97 96
f 87 88 98 97
f 88 89 99 98
f 89 90 100 99
f 90 81 91 100
f 90 89 88 87 86 85 84 83 82 81
f 91 92 93 94 95 96 97 98 99 100
f 101 102 112 111
f 102 103 113 112
f 103 104 114 113
f 104 105 115 114
f 105 106 116 115
f 106 107 117 116
f 107 108 118 117
f 108 109 119 118
f 109 110 120 119
f 110 101 111 120
f 110 109 108 107 106 105 104 103 102 101
f 111 112 113 114 115 116 117 118 119 120
f 121 122 132 131
f 122 123 133 132
f 123 124 134 133
f 124 125 135 134
f 125 126 136 135
f 126 127 137 136
f 127 128 138 137
f 128 129 139 138
f 129 130 140 139
f 130 121 131 140
f 130 129 128 127 126 125 124 123 122 121
f 131 132 133 134 135 136 137 138 139 140
f 141 142 152 151
f 142 143 153 152
f 143 144 154 153
f 144 145 155 154
f 145 146 156 155
f 146 147 157 156
f 147 148 158 157
f 148 149 159 158
f 149 150 160 159
f 150 141 151 160
f 150 149 148 147 146 145 144 143 142 141
f 151 152 153 154 155 156 157 158 159 160
f 161 162 172 171
f 162 163 173 172
f 163 164 174 173
f 164 165 175 174
f 165 166 176 175
f 166 167 177 176
f 167 168 178 177
f 168 169 179 178
f 169 170 180 179
f 170 161 171 180
f 170 169 168 167 166 165 164 163 162 161
f 171 172 173 174 175 176 177 178 179 180
f 181 182 192 191
f 182 183 193 192
f 183 184 194 193
f 184 185 195 194
f 185 186 196 195
f 186 187 197 196
f 187 188 198 197
f 188 189 199 198
f 189 190 200 199
f 190 181 191 200
f 190 189 188 187 186 185 184 183 182 181
f 191 192 193 194 195 196 197 198 199 200
f 201 202 212 211
f 202 203 213 212
f 203 204 214 213
f 204 205 215 214
f 205 206 216 215
f 206 207 217 216
f 207 208 218 217
f 208 209 219 218
f 209 210 220 219
f 210 201 211 220
f 210 209 208 207 206 205 204 203 202 201
f 211 212 213 214 215 216 217 218 219 220
f 221 222 232 231
f 222 223 233 232
f 223 224 234 233
f 224 225 235 234
f 225 226 236 235
f 226 227 237 236
f 227 228 238 237
f 228 229 239 238
f 229 230 240 239
f 230 221 231 240
f 230 229 228 227 226 225 224 223 222 221
f 231 232 233 234 235 236 237 238 239 240
f 241 242 252 251
f 242 243 253 252
f 243 244 254 253
f 244 245 255 254
f 245 246 256 255
f 246 247 257 256
f 247 248 258 257
f 248 249 259 258
f 249 250 260 259
f 250 241 251 260
f 250 249 248 247 246 245 244 243 242 241
f 251 252 253 254 255 256 257 258 259 260
f 261 262 272 271
f 262 263 273 272
f 263 264 274 273
f 264 265 275 274
f 265 266 276 275
f 266 267 277 276
f 267 268 278 277
f 268 269 279 278
f 269 270 280 279
f 270 261 271 280
f 270 269 268 267 266 265 264 263 262 261
f 271 272 273 274 275 276 277 278 279 280
f 281 282 292 291
f 282 283 293 292
f 283 284 294 293
f 284 285 295 294
f 285 286 296 295
f 286 287 297 296
f 287 288 298 297
f 288 289 299 298
f 289 290 300 299
f 290 281 291 300
f 290 289 288 287 286 285 284 283 282 281
f 291 292 293 294 295 296 297 298 299 300
f 301 302 312 311
f 302 303 313 312
f 303 304 314 313
f 304 305 315 314
f 305 306 316 315
f 306 307 317 316
f 307 308 318 317
f 308 309 319 318
f 309 310 320 319
f 310 301 311 320
f 310 309 308 307 306 305 304 303 302 301
f 311 312 313 314 315 316 317 318 319 320
f 321 323 325
f 323 321 326
f 323 322 325
f 322 323 326
f 322 324 325
f 324 322 326
f 324 321 325
f 321 324 326
