# Original Basketbroom procedural mesh; units cm, Z up
o SM_BB_PyramidRibs
s 1
v -7754.08617 -3636.37657 4760.83777
v -7754.08617 -3633.70281 4752.60878
v -7754.08617 -3626.70281 4747.52298
v -7754.08617 -3618.05033 4747.52298
v -7754.08617 -3611.05033 4752.60878
v -7754.08617 -3608.37657 4760.83777
v -7754.08617 -3611.05033 4769.06677
v -7754.08617 -3618.05033 4774.15257
v -7754.08617 -3626.70281 4774.15257
v -7754.08617 -3633.70281 4769.06677
v 7754.08617 -3636.37657 4760.83777
v 7754.08617 -3633.70281 4752.60878
v 7754.08617 -3626.70281 4747.52298
v 7754.08617 -3618.05033 4747.52298
v 7754.08617 -3611.05033 4752.60878
v 7754.08617 -3608.37657 4760.83777
v 7754.08617 -3611.05033 4769.06677
v 7754.08617 -3618.05033 4774.15257
v 7754.08617 -3626.70281 4774.15257
v 7754.08617 -3633.70281 4769.06677
v -7747.31417 -3636.87277 4760.83777
v -7746.32428 -3633.03762 4751.77715
v -7748.29916 -3625.13030 4746.17737
v -7752.48449 -3616.17115 4746.17737
v -7757.28161 -3609.58226 4751.77715
v -7760.85818 -3607.88036 4760.83777
v -7761.84807 -3611.71552 4769.89840
v -7759.87318 -3619.62283 4775.49818
v -7755.68785 -3628.58198 4775.49818
v -7750.89074 -3635.17087 4769.89840
v 6.77201 -14.49620 7141.25666
v 7.76190 -10.66105 7132.19603
v 5.78701 -2.75373 7126.59626
v 1.60168 6.20541 7126.59626
v -3.19544 12.79430 7132.19603
v -6.77201 14.49620 7141.25666
v -7.76190 10.66105 7150.31729
v -5.78701 2.75373 7155.91707
v -1.60168 -6.20541 7155.91707
v 3.19544 -12.79430 7150.31729
v 8.00000 -3622.37657 4760.83777
v 5.65685 -3619.26995 4756.11031
v 0.00000 -3617.98314 4754.15213
v -5.65685 -3619.26995 4756.11031
v -8.00000 -3622.37657 4760.83777
v -5.65685 -3625.48319 4765.56524
v -0.00000 -3626.76999 4767.52342
v 5.65685 -3625.48319 4765.56524
v 8.00000 0.00000 7141.25666
v 5.65685 3.10662 7136.52920
v 0.00000 4.39342 7134.57102
v -5.65685 3.10662 7136.52920
v -8.00000 0.00000 7141.25666
v -5.65685 -3.10662 7145.98413
v -0.00000 -4.39342 7147.94231
v 5.65685 -3.10662 7145.98413
v 7768.08617 -3622.37657 4760.83777
v 7765.41241 -3622.37657 4752.60878
v 7758.41241 -3622.37657 4747.52298
v 7749.75994 -3622.37657 4747.52298
v 7742.75994 -3622.37657 4752.60878
v 7740.08617 -3622.37657 4760.83777
v 7742.75994 -3622.37657 4769.06677
v 7749.75994 -3622.37657 4774.15257
v 7758.41241 -3622.37657 4774.15257
v 7765.41241 -3622.37657 4769.06677
v 7768.08617 3622.37657 4760.83777
v 7765.41241 3622.37657 4752.60878
v 7758.41241 3622.37657 4747.52298
v 7749.75994 3622.37657 4747.52298
v 7742.75994 3622.37657 4752.60878
v 7740.08617 3622.37657 4760.83777
v 7742.75994 3622.37657 4769.06677
v 7749.75994 3622.37657 4774.15257
v 7758.41241 3622.37657 4774.15257
v 7765.41241 3622.37657 4769.06677
v 7760.85818 -3607.88036 4760.83777
v 7757.28161 -3609.58226 4751.77715
v 7752.48449 -3616.17115 4746.17737
v 7748.29916 -3625.13030 4746.17737
v 7746.32428 -3633.03762 4751.77715
v 7747.31417 -3636.87277 4760.83777
v 7750.89074 -3635.17087 4769.89840
v 7755.68785 -3628.58198 4775.49818
v 7759.87318 -3619.62283 4775.49818
v 7761.84807 -3611.71552 4769.89840
v 6.77201 14.49620 7141.25666
v 3.19544 12.79430 7132.19603
v -1.60168 6.20541 7126.59626
v -5.78701 -2.75373 7126.59626
v -7.76190 -10.66105 7132.19603
v -6.77201 -14.49620 7141.25666
v -3.19544 -12.79430 7150.31729
v 1.60168 -6.20541 7155.91707
v 5.78701 2.75373 7155.91707
v 7.76190 10.66105 7150.31729
v 7754.08617 8.00000 4760.83777
v 7752.42605 5.65685 4755.43000
v 7751.73840 0.00000 4753.19003
v 7752.42605 -5.65685 4755.43000
v 7754.08617 -8.00000 4760.83777
v 7755.74630 -5.65685 4766.24555
v 7756.43395 -0.00000 4768.48552
v 7755.74630 5.65685 4766.24555
v 0.00000 8.00000 7141.25666
v -1.66013 5.65685 7135.84889
v -2.34777 0.00000 7133.60892
v -1.66013 -5.65685 7135.84889
v -0.00000 -8.00000 7141.25666
v 1.66013 -5.65685 7146.66443
v 2.34777 -0.00000 7148.90440
v 1.66013 5.65685 7146.66443
v 7754.08617 3636.37657 4760.83777
v 7754.08617 3633.70281 4752.60878
v 7754.08617 3626.70281 4747.52298
v 7754.08617 3618.05033 4747.52298
v 7754.08617 3611.05033 4752.60878
v 7754.08617 3608.37657 4760.83777
v 7754.08617 3611.05033 4769.06677
v 7754.08617 3618.05033 4774.15257
v 7754.08617 3626.70281 4774.15257
v 7754.08617 3633.70281 4769.06677
v -7754.08617 3636.37657 4760.83777
v -7754.08617 3633.70281 4752.60878
v -7754.08617 3626.70281 4747.52298
v -7754.08617 3618.05033 4747.52298
v -7754.08617 3611.05033 4752.60878
v -7754.08617 3608.37657 4760.83777
v -7754.08617 3611.05033 4769.06677
v -7754.08617 3618.05033 4774.15257
v -7754.08617 3626.70281 4774.15257
v -7754.08617 3633.70281 4769.06677
v 7747.31417 3636.87277 4760.83777
v 7746.32428 3633.03762 4751.77715
v 7748.29916 3625.13030 4746.17737
v 7752.48449 3616.17115 4746.17737
v 7757.28161 3609.58226 4751.77715
v 7760.85818 3607.88036 4760.83777
v 7761.84807 3611.71552 4769.89840
v 7759.87318 3619.62283 4775.49818
v 7755.68785 3628.58198 4775.49818
v 7750.89074 3635.17087 4769.89840
v -6.77201 14.49620 7141.25666
v -7.76190 10.66105 7132.19603
v -5.78701 2.75373 7126.59626
v -1.60168 -6.20541 7126.59626
v 3.19544 -12.79430 7132.19603
v 6.77201 -14.49620 7141.25666
v 7.76190 -10.66105 7150.31729
v 5.78701 -2.75373 7155.91707
v 1.60168 6.20541 7155.91707
v -3.19544 12.79430 7150.31729
v -8.00000 3622.37657 4760.83777
v -5.65685 3619.26995 4756.11031
v -0.00000 3617.98314 4754.15213
v 5.65685 3619.26995 4756.11031
v 8.00000 3622.37657 4760.83777
v 5.65685 3625.48319 4765.56524
v 0.00000 3626.76999 4767.52342
v -5.65685 3625.48319 4765.56524
v -8.00000 0.00000 7141.25666
v -5.65685 -3.10662 7136.52920
v -0.00000 -4.39342 7134.57102
v 5.65685 -3.10662 7136.52920
v 8.00000 -0.00000 7141.25666
v 5.65685 3.10662 7145.98413
v 0.00000 4.39342 7147.94231
v -5.65685 3.10662 7145.98413
v -7768.08617 3622.37657 4760.83777
v -7765.41241 3622.37657 4752.60878
v -7758.41241 3622.37657 4747.52298
v -7749.75994 3622.37657 4747.52298
v -7742.75994 3622.37657 4752.60878
v -7740.08617 3622.37657 4760.83777
v -7742.75994 3622.37657 4769.06677
v -7749.75994 3622.37657 4774.15257
v -7758.41241 3622.37657 4774.15257
v -7765.41241 3622.37657 4769.06677
v -7768.08617 -3622.37657 4760.83777
v -7765.41241 -3622.37657 4752.60878
v -7758.41241 -3622.37657 4747.52298
v -7749.75994 -3622.37657 4747.52298
v -7742.75994 -3622.37657 4752.60878
v -7740.08617 -3622.37657 4760.83777
v -7742.75994 -3622.37657 4769.06677
v -7749.75994 -3622.37657 4774.15257
v -7758.41241 -3622.37657 4774.15257
v -7765.41241 -3622.37657 4769.06677
v -7760.85818 3607.88036 4760.83777
v -7757.28161 3609.58226 4751.77715
v -7752.48449 3616.17115 4746.17737
v -7748.29916 3625.13030 4746.17737
v -7746.32428 3633.03762 4751.77715
v -7747.31417 3636.87277 4760.83777
v -7750.89074 3635.17087 4769.89840
v -7755.68785 3628.58198 4775.49818
v -7759.87318 3619.62283 4775.49818
v -7761.84807 3611.71552 4769.89840
v -6.77201 -14.49620 7141.25666
v -3.19544 -12.79430 7132.19603
v 1.60168 -6.20541 7126.59626
v 5.78701 2.75373 7126.59626
v 7.76190 10.66105 7132.19603
v 6.77201 14.49620 7141.25666
v 3.19544 12.79430 7150.31729
v -1.60168 6.20541 7155.91707
v -5.78701 -2.75373 7155.91707
v -7.76190 -10.66105 7150.31729
v -7754.08617 -8.00000 4760.83777
v -7752.42605 -5.65685 4755.43000
v -7751.73840 -0.00000 4753.19003
v -7752.42605 5.65685 4755.43000
v -7754.08617 8.00000 4760.83777
v -7755.74630 5.65685 4766.24555
v -7756.43395 0.00000 4768.48552
v -7755.74630 -5.65685 4766.24555
v 0.00000 -8.00000 7141.25666
v 1.66013 -5.65685 7135.84889
v 2.34777 -0.00000 7133.60892
v 1.66013 5.65685 7135.84889
v 0.00000 8.00000 7141.25666
v -1.66013 5.65685 7146.66443
v -2.34777 0.00000 7148.90440
v -1.66013 -5.65685 7146.66443
f 1 2 12 11
f 2 3 13 12
f 3 4 14 13
f 4 5 15 14
f 5 6 16 15
f 6 7 17 16
f 7 8 18 17
f 8 9 19 18
f 9 10 20 19
f 10 1 11 20
f 10 9 8 7 6 5 4 3 2 1
f 11 12 13 14 15 16 17 18 19 20
f 21 22 32 31
f 22 23 33 32
f 23 24 34 33
f 24 25 35 34
f 25 26 36 35
f 26 27 37 36
f 27 28 38 37
f 28 29 39 38
f 29 30 40 39
f 30 21 31 40
f 30 29 28 27 26 25 24 23 22 21
f 31 32 33 34 35 36 37 38 39 40
f 41 42 50 49
f 42 43 51 50
f 43 44 52 51
f 44 45 53 52
f 45 46 54 53
f 46 47 55 54
f 47 48 56 55
f 48 41 49 56
f 48 47 46 45 44 43 42 41
f 49 50 51 52 53 54 55 56
f 57 58 68 67
f 58 59 69 68
f 59 60 70 69
f 60 61 71 70
f 61 62 72 71
f 62 63 73 72
f 63 64 74 73
f 64 65 75 74
f 65 66 76 75
f 66 57 67 76
f 66 65 64 63 62 61 60 59 58 57
f 67 68 69 70 71 72 73 74 75 76
f 77 78 88 87
f 78 79 89 88
f 79 80 90 89
f 80 81 91 90
f 81 82 92 91
f 82 83 93 92
f 83 84 94 93
f 84 85 95 94
f 85 86 96 95
f 86 77 87 96
f 86 85 84 83 82 81 80 79 78 77
f 87 88 89 90 91 92 93 94 95 96
f 97 98 106 105
f 98 99 107 106
f 99 100 108 107
f 100 101 109 108
f 101 102 110 109
f 102 103 111 110
f 103 104 112 111
f 104 97 105 112
f 104 103 102 101 100 99 98 97
f 105 106 107 108 109 110 111 112
f 113 114 124 123
f 114 115 125 124
f 115 116 126 125
f 116 117 127 126
f 117 118 128 127
f 118 119 129 128
f 119 120 130 129
f 120 121 131 130
f 121 122 132 131
f 122 113 123 132
f 122 121 120 119 118 117 116 115 114 113
f 123 124 125 126 127 128 129 130 131 132
f 133 134 144 143
f 134 135 145 144
f 135 136 146 145
f 136 137 147 146
f 137 138 148 147
f 138 139 149 148
f 139 140 150 149
f 140 141 151 150
f 141 142 152 151
f 142 133 143 152
f 142 141 140 139 138 137 136 135 134 133
f 143 144 145 146 147 148 149 150 151 152
f 153 154 162 161
f 154 155 163 162
f 155 156 164 163
f 156 157 165 164
f 157 158 166 165
f 158 159 167 166
f 159 160 168 167
f 160 153 161 168
f 160 159 158 157 156 155 154 153
f 161 162 163 164 165 166 167 168
f 169 170 180 179
f 170 171 181 180
f 171 172 182 181
f 172 173 183 182
f 173 174 184 183
f 174 175 185 184
f 175 176 186 185
f 176 177 187 186
f 177 178 188 187
f 178 169 179 188
f 178 177 176 175 174 173 172 171 170 169
f 179 180 181 182 183 184 185 186 187 188
f 189 190 200 199
f 190 191 201 200
f 191 192 202 201
f 192 193 203 202
f 193 194 204 203
f 194 195 205 204
f 195 196 206 205
f 196 197 207 206
f 197 198 208 207
f 198 189 199 208
f 198 197 196 195 194 193 192 191 190 189
f 199 200 201 202 203 204 205 206 207 208
f 209 210 218 217
f 210 211 219 218
f 211 212 220 219
f 212 213 221 220
f 213 214 222 221
f 214 215 223 222
f 215 216 224 223
f 216 209 217 224
f 216 215 214 213 212 211 210 209
f 217 218 219 220 221 222 223 224
