# Original Basketbroom procedural mesh; units cm, Z up
o SM_BB_CopperDetail
s 1
v -18656.38002 -8891.41876 1728.50000
v -18479.38002 -8891.41876 1728.50000
v -18479.38002 -8689.41876 1728.50000
v -18656.38002 -8689.41876 1728.50000
v -18656.38002 -8891.41876 1771.50000
v -18479.38002 -8891.41876 1771.50000
v -18479.38002 -8689.41876 1771.50000
v -18656.38002 -8689.41876 1771.50000
v -18656.38002 -8891.41876 1148.50000
v -18479.38002 -8891.41876 1148.50000
v -18479.38002 -8689.41876 1148.50000
v -18656.38002 -8689.41876 1148.50000
v -18656.38002 -8891.41876 1191.50000
v -18479.38002 -8891.41876 1191.50000
v -18479.38002 -8689.41876 1191.50000
v -18656.38002 -8689.41876 1191.50000
v -14014.41001 -8891.41876 1728.50000
v -13837.41001 -8891.41876 1728.50000
v -13837.41001 -8689.41876 1728.50000
v -14014.41001 -8689.41876 1728.50000
v -14014.41001 -8891.41876 1771.50000
v -13837.41001 -8891.41876 1771.50000
v -13837.41001 -8689.41876 1771.50000
v -14014.41001 -8689.41876 1771.50000
v -14014.41001 -8891.41876 1148.50000
v -13837.41001 -8891.41876 1148.50000
v -13837.41001 -8689.41876 1148.50000
v -14014.41001 -8689.41876 1148.50000
v -14014.41001 -8891.41876 1191.50000
v -13837.41001 -8891.41876 1191.50000
v -13837.41001 -8689.41876 1191.50000
v -14014.41001 -8689.41876 1191.50000
v -9372.44001 -8891.41876 1728.50000
v -9195.44001 -8891.41876 1728.50000
v -9195.44001 -8689.41876 1728.50000
v -9372.44001 -8689.41876 1728.50000
v -9372.44001 -8891.41876 1771.50000
v -9195.44001 -8891.41876 1771.50000
v -9195.44001 -8689.41876 1771.50000
v -9372.44001 -8689.41876 1771.50000
v -9372.44001 -8891.41876 1148.50000
v -9195.44001 -8891.41876 1148.50000
v -9195.44001 -8689.41876 1148.50000
v -9372.44001 -8689.41876 1148.50000
v -9372.44001 -8891.41876 1191.50000
v -9195.44001 -8891.41876 1191.50000
v -9195.44001 -8689.41876 1191.50000
v -9372.44001 -8689.41876 1191.50000
v -4730.47000 -8891.41876 1728.50000
v -4553.47000 -8891.41876 1728.50000
v -4553.47000 -8689.41876 1728.50000
v -4730.47000 -8689.41876 1728.50000
v -4730.47000 -8891.41876 1771.50000
v -4553.47000 -8891.41876 1771.50000
v -4553.47000 -8689.41876 1771.50000
v -4730.47000 -8689.41876 1771.50000
v -4730.47000 -8891.41876 1148.50000
v -4553.47000 -8891.41876 1148.50000
v -4553.47000 -8689.41876 1148.50000
v -4730.47000 -8689.41876 1148.50000
v -4730.47000 -8891.41876 1191.50000
v -4553.47000 -8891.41876 1191.50000
v -4553.47000 -8689.41876 1191.50000
v -4730.47000 -8689.41876 1191.50000
v -88.50000 -8891.41876 1728.50000
v 88.50000 -8891.41876 1728.50000
v 88.50000 -8689.41876 1728.50000
v -88.50000 -8689.41876 1728.50000
v -88.50000 -8891.41876 1771.50000
v 88.50000 -8891.41876 1771.50000
v 88.50000 -8689.41876 1771.50000
v -88.50000 -8689.41876 1771.50000
v -88.50000 -8891.41876 1148.50000
v 88.50000 -8891.41876 1148.50000
v 88.50000 -8689.41876 1148.50000
v -88.50000 -8689.41876 1148.50000
v -88.50000 -8891.41876 1191.50000
v 88.50000 -8891.41876 1191.50000
v 88.50000 -8689.41876 1191.50000
v -88.50000 -8689.41876 1191.50000
v 4553.47000 -8891.41876 1728.50000
v 4730.47000 -8891.41876 1728.50000
v 4730.47000 -8689.41876 1728.50000
v 4553.47000 -8689.41876 1728.50000
v 4553.47000 -8891.41876 1771.50000
v 4730.47000 -8891.41876 1771.50000
v 4730.47000 -8689.41876 1771.50000
v 4553.47000 -8689.41876 1771.50000
v 4553.47000 -8891.41876 1148.50000
v 4730.47000 -8891.41876 1148.50000
v 4730.47000 -8689.41876 1148.50000
v 4553.47000 -8689.41876 1148.50000
v 4553.47000 -8891.41876 1191.50000
v 4730.47000 -8891.41876 1191.50000
v 4730.47000 -8689.41876 1191.50000
v 4553.47000 -8689.41876 1191.50000
v 9195.44001 -8891.41876 1728.50000
v 9372.44001 -8891.41876 1728.50000
v 9372.44001 -8689.41876 1728.50000
v 9195.44001 -8689.41876 1728.50000
v 9195.44001 -8891.41876 1771.50000
v 9372.44001 -8891.41876 1771.50000
v 9372.44001 -8689.41876 1771.50000
v 9195.44001 -8689.41876 1771.50000
v 9195.44001 -8891.41876 1148.50000
v 9372.44001 -8891.41876 1148.50000
v 9372.44001 -8689.41876 1148.50000
v 9195.44001 -8689.41876 1148.50000
v 9195.44001 -8891.41876 1191.50000
v 9372.44001 -8891.41876 1191.50000
v 9372.44001 -8689.41876 1191.50000
v 9195.44001 -8689.41876 1191.50000
v 13837.41001 -8891.41876 1728.50000
v 14014.41001 -8891.41876 1728.50000
v 14014.41001 -8689.41876 1728.50000
v 13837.41001 -8689.41876 1728.50000
v 13837.41001 -8891.41876 1771.50000
v 14014.41001 -8891.41876 1771.50000
v 14014.41001 -8689.41876 1771.50000
v 13837.41001 -8689.41876 1771.50000
v 13837.41001 -8891.41876 1148.50000
v 14014.41001 -8891.41876 1148.50000
v 14014.41001 -8689.41876 1148.50000
v 13837.41001 -8689.41876 1148.50000
v 13837.41001 -8891.41876 1191.50000
v 14014.41001 -8891.41876 1191.50000
v 14014.41001 -8689.41876 1191.50000
v 13837.41001 -8689.41876 1191.50000
v 18479.38002 -8891.41876 1728.50000
v 18656.38002 -8891.41876 1728.50000
v 18656.38002 -8689.41876 1728.50000
v 18479.38002 -8689.41876 1728.50000
v 18479.38002 -8891.41876 1771.50000
v 18656.38002 -8891.41876 1771.50000
v 18656.38002 -8689.41876 1771.50000
v 18479.38002 -8689.41876 1771.50000
v 18479.38002 -8891.41876 1148.50000
v 18656.38002 -8891.41876 1148.50000
v 18656.38002 -8689.41876 1148.50000
v 18479.38002 -8689.41876 1148.50000
v 18479.38002 -8891.41876 1191.50000
v 18656.38002 -8891.41876 1191.50000
v 18656.38002 -8689.41876 1191.50000
v 18479.38002 -8689.41876 1191.50000
v -21579.53462 -1066.80000 628.00000
v -21576.71816 -1080.95929 628.00000
v -21568.69757 -1092.96295 628.00000
v -21556.69391 -1100.98354 628.00000
v -21542.53462 -1103.80000 628.00000
v -21528.37534 -1100.98354 628.00000
v -21516.37167 -1092.96295 628.00000
v -21508.35108 -1080.95929 628.00000
v -21505.53462 -1066.80000 628.00000
v -21508.35108 -1052.64071 628.00000
v -21516.37167 -1040.63705 628.00000
v -21528.37534 -1032.61646 628.00000
v -21542.53462 -1029.80000 628.00000
v -21556.69391 -1032.61646 628.00000
v -21568.69757 -1040.63705 628.00000
v -21576.71816 -1052.64071 628.00000
v -21579.53462 -1066.80000 652.00000
v -21576.71816 -1080.95929 652.00000
v -21568.69757 -1092.96295 652.00000
v -21556.69391 -1100.98354 652.00000
v -21542.53462 -1103.80000 652.00000
v -21528.37534 -1100.98354 652.00000
v -21516.37167 -1092.96295 652.00000
v -21508.35108 -1080.95929 652.00000
v -21505.53462 -1066.80000 652.00000
v -21508.35108 -1052.64071 652.00000
v -21516.37167 -1040.63705 652.00000
v -21528.37534 -1032.61646 652.00000
v -21542.53462 -1029.80000 652.00000
v -21556.69391 -1032.61646 652.00000
v -21568.69757 -1040.63705 652.00000
v -21576.71816 -1052.64071 652.00000
v -21579.53462 -1066.80000 978.00000
v -21576.71816 -1080.95929 978.00000
v -21568.69757 -1092.96295 978.00000
v -21556.69391 -1100.98354 978.00000
v -21542.53462 -1103.80000 978.00000
v -21528.37534 -1100.98354 978.00000
v -21516.37167 -1092.96295 978.00000
v -21508.35108 -1080.95929 978.00000
v -21505.53462 -1066.80000 978.00000
v -21508.35108 -1052.64071 978.00000
v -21516.37167 -1040.63705 978.00000
v -21528.37534 -1032.61646 978.00000
v -21542.53462 -1029.80000 978.00000
v -21556.69391 -1032.61646 978.00000
v -21568.69757 -1040.63705 978.00000
v -21576.71816 -1052.64071 978.00000
v -21579.53462 -1066.80000 1002.00000
v -21576.71816 -1080.95929 1002.00000
v -21568.69757 -1092.96295 1002.00000
v -21556.69391 -1100.98354 1002.00000
v -21542.53462 -1103.80000 1002.00000
v -21528.37534 -1100.98354 1002.00000
v -21516.37167 -1092.96295 1002.00000
v -21508.35108 -1080.95929 1002.00000
v -21505.53462 -1066.80000 1002.00000
v -21508.35108 -1052.64071 1002.00000
v -21516.37167 -1040.63705 1002.00000
v -21528.37534 -1032.61646 1002.00000
v -21542.53462 -1029.80000 1002.00000
v -21556.69391 -1032.61646 1002.00000
v -21568.69757 -1040.63705 1002.00000
v -21576.71816 -1052.64071 1002.00000
v -21579.53462 -1066.80000 1428.00000
v -21576.71816 -1080.95929 1428.00000
v -21568.69757 -1092.96295 1428.00000
v -21556.69391 -1100.98354 1428.00000
v -21542.53462 -1103.80000 1428.00000
v -21528.37534 -1100.98354 1428.00000
v -21516.37167 -1092.96295 1428.00000
v -21508.35108 -1080.95929 1428.00000
v -21505.53462 -1066.80000 1428.00000
v -21508.35108 -1052.64071 1428.00000
v -21516.37167 -1040.63705 1428.00000
v -21528.37534 -1032.61646 1428.00000
v -21542.53462 -1029.80000 1428.00000
v -21556.69391 -1032.61646 1428.00000
v -21568.69757 -1040.63705 1428.00000
v -21576.71816 -1052.64071 1428.00000
v -21579.53462 -1066.80000 1452.00000
v -21576.71816 -1080.95929 1452.00000
v -21568.69757 -1092.96295 1452.00000
v -21556.69391 -1100.98354 1452.00000
v -21542.53462 -1103.80000 1452.00000
v -21528.37534 -1100.98354 1452.00000
v -21516.37167 -1092.96295 1452.00000
v -21508.35108 -1080.95929 1452.00000
v -21505.53462 -1066.80000 1452.00000
v -21508.35108 -1052.64071 1452.00000
v -21516.37167 -1040.63705 1452.00000
v -21528.37534 -1032.61646 1452.00000
v -21542.53462 -1029.80000 1452.00000
v -21556.69391 -1032.61646 1452.00000
v -21568.69757 -1040.63705 1452.00000
v -21576.71816 -1052.64071 1452.00000
v -21579.53462 -1066.80000 1678.00000
v -21576.71816 -1080.95929 1678.00000
v -21568.69757 -1092.96295 1678.00000
v -21556.69391 -1100.98354 1678.00000
v -21542.53462 -1103.80000 1678.00000
v -21528.37534 -1100.98354 1678.00000
v -21516.37167 -1092.96295 1678.00000
v -21508.35108 -1080.95929 1678.00000
v -21505.53462 -1066.80000 1678.00000
v -21508.35108 -1052.64071 1678.00000
v -21516.37167 -1040.63705 1678.00000
v -21528.37534 -1032.61646 1678.00000
v -21542.53462 -1029.80000 1678.00000
v -21556.69391 -1032.61646 1678.00000
v -21568.69757 -1040.63705 1678.00000
v -21576.71816 -1052.64071 1678.00000
v -21579.53462 -1066.80000 1702.00000
v -21576.71816 -1080.95929 1702.00000
v -21568.69757 -1092.96295 1702.00000
v -21556.69391 -1100.98354 1702.00000
v -21542.53462 -1103.80000 1702.00000
v -21528.37534 -1100.98354 1702.00000
v -21516.37167 -1092.96295 1702.00000
v -21508.35108 -1080.95929 1702.00000
v -21505.53462 -1066.80000 1702.00000
v -21508.35108 -1052.64071 1702.00000
v -21516.37167 -1040.63705 1702.00000
v -21528.37534 -1032.61646 1702.00000
v -21542.53462 -1029.80000 1702.00000
v -21556.69391 -1032.61646 1702.00000
v -21568.69757 -1040.63705 1702.00000
v -21576.71816 -1052.64071 1702.00000
v -21555.53462 -1168.80000 94.00000
v -21549.03462 -1180.05833 94.00000
v -21536.03462 -1180.05833 94.00000
v -21529.53462 -1168.80000 94.00000
v -21536.03462 -1157.54167 94.00000
v -21549.03462 -1157.54167 94.00000
v -21555.53462 -1168.80000 109.00000
v -21549.03462 -1180.05833 109.00000
v -21536.03462 -1180.05833 109.00000
v -21529.53462 -1168.80000 109.00000
v -21536.03462 -1157.54167 109.00000
v -21549.03462 -1157.54167 109.00000
v -21555.53462 -964.80000 94.00000
v -21549.03462 -976.05833 94.00000
v -21536.03462 -976.05833 94.00000
v -21529.53462 -964.80000 94.00000
v -21536.03462 -953.54167 94.00000
v -21549.03462 -953.54167 94.00000
v -21555.53462 -964.80000 109.00000
v -21549.03462 -976.05833 109.00000
v -21536.03462 -976.05833 109.00000
v -21529.53462 -964.80000 109.00000
v -21536.03462 -953.54167 109.00000
v -21549.03462 -953.54167 109.00000
v -21579.53462 0.00000 628.00000
v -21576.71816 -14.15929 628.00000
v -21568.69757 -26.16295 628.00000
v -21556.69391 -34.18354 628.00000
v -21542.53462 -37.00000 628.00000
v -21528.37534 -34.18354 628.00000
v -21516.37167 -26.16295 628.00000
v -21508.35108 -14.15929 628.00000
v -21505.53462 -0.00000 628.00000
v -21508.35108 14.15929 628.00000
v -21516.37167 26.16295 628.00000
v -21528.37534 34.18354 628.00000
v -21542.53462 37.00000 628.00000
v -21556.69391 34.18354 628.00000
v -21568.69757 26.16295 628.00000
v -21576.71816 14.15929 628.00000
v -21579.53462 0.00000 652.00000
v -21576.71816 -14.15929 652.00000
v -21568.69757 -26.16295 652.00000
v -21556.69391 -34.18354 652.00000
v -21542.53462 -37.00000 652.00000
v -21528.37534 -34.18354 652.00000
v -21516.37167 -26.16295 652.00000
v -21508.35108 -14.15929 652.00000
v -21505.53462 -0.00000 652.00000
v -21508.35108 14.15929 652.00000
v -21516.37167 26.16295 652.00000
v -21528.37534 34.18354 652.00000
v -21542.53462 37.00000 652.00000
v -21556.69391 34.18354 652.00000
v -21568.69757 26.16295 652.00000
v -21576.71816 14.15929 652.00000
v -21579.53462 0.00000 978.00000
v -21576.71816 -14.15929 978.00000
v -21568.69757 -26.16295 978.00000
v -21556.69391 -34.18354 978.00000
v -21542.53462 -37.00000 978.00000
v -21528.37534 -34.18354 978.00000
v -21516.37167 -26.16295 978.00000
v -21508.35108 -14.15929 978.00000
v -21505.53462 -0.00000 978.00000
v -21508.35108 14.15929 978.00000
v -21516.37167 26.16295 978.00000
v -21528.37534 34.18354 978.00000
v -21542.53462 37.00000 978.00000
v -21556.69391 34.18354 978.00000
v -21568.69757 26.16295 978.00000
v -21576.71816 14.15929 978.00000
v -21579.53462 0.00000 1002.00000
v -21576.71816 -14.15929 1002.00000
v -21568.69757 -26.16295 1002.00000
v -21556.69391 -34.18354 1002.00000
v -21542.53462 -37.00000 1002.00000
v -21528.37534 -34.18354 1002.00000
v -21516.37167 -26.16295 1002.00000
v -21508.35108 -14.15929 1002.00000
v -21505.53462 -0.00000 1002.00000
v -21508.35108 14.15929 1002.00000
v -21516.37167 26.16295 1002.00000
v -21528.37534 34.18354 1002.00000
v -21542.53462 37.00000 1002.00000
v -21556.69391 34.18354 1002.00000
v -21568.69757 26.16295 1002.00000
v -21576.71816 14.15929 1002.00000
v -21579.53462 0.00000 1428.00000
v -21576.71816 -14.15929 1428.00000
v -21568.69757 -26.16295 1428.00000
v -21556.69391 -34.18354 1428.00000
v -21542.53462 -37.00000 1428.00000
v -21528.37534 -34.18354 1428.00000
v -21516.37167 -26.16295 1428.00000
v -21508.35108 -14.15929 1428.00000
v -21505.53462 -0.00000 1428.00000
v -21508.35108 14.15929 1428.00000
v -21516.37167 26.16295 1428.00000
v -21528.37534 34.18354 1428.00000
v -21542.53462 37.00000 1428.00000
v -21556.69391 34.18354 1428.00000
v -21568.69757 26.16295 1428.00000
v -21576.71816 14.15929 1428.00000
v -21579.53462 0.00000 1452.00000
v -21576.71816 -14.15929 1452.00000
v -21568.69757 -26.16295 1452.00000
v -21556.69391 -34.18354 1452.00000
v -21542.53462 -37.00000 1452.00000
v -21528.37534 -34.18354 1452.00000
v -21516.37167 -26.16295 1452.00000
v -21508.35108 -14.15929 1452.00000
v -21505.53462 -0.00000 1452.00000
v -21508.35108 14.15929 1452.00000
v -21516.37167 26.16295 1452.00000
v -21528.37534 34.18354 1452.00000
v -21542.53462 37.00000 1452.00000
v -21556.69391 34.18354 1452.00000
v -21568.69757 26.16295 1452.00000
v -21576.71816 14.15929 1452.00000
v -21579.53462 0.00000 1678.00000
v -21576.71816 -14.15929 1678.00000
v -21568.69757 -26.16295 1678.00000
v -21556.69391 -34.18354 1678.00000
v -21542.53462 -37.00000 1678.00000
v -21528.37534 -34.18354 1678.00000
v -21516.37167 -26.16295 1678.00000
v -21508.35108 -14.15929 1678.00000
v -21505.53462 -0.00000 1678.00000
v -21508.35108 14.15929 1678.00000
v -21516.37167 26.16295 1678.00000
v -21528.37534 34.18354 1678.00000
v -21542.53462 37.00000 1678.00000
v -21556.69391 34.18354 1678.00000
v -21568.69757 26.16295 1678.00000
v -21576.71816 14.15929 1678.00000
v -21579.53462 0.00000 1702.00000
v -21576.71816 -14.15929 1702.00000
v -21568.69757 -26.16295 1702.00000
v -21556.69391 -34.18354 1702.00000
v -21542.53462 -37.00000 1702.00000
v -21528.37534 -34.18354 1702.00000
v -21516.37167 -26.16295 1702.00000
v -21508.35108 -14.15929 1702.00000
v -21505.53462 -0.00000 1702.00000
v -21508.35108 14.15929 1702.00000
v -21516.37167 26.16295 1702.00000
v -21528.37534 34.18354 1702.00000
v -21542.53462 37.00000 1702.00000
v -21556.69391 34.18354 1702.00000
v -21568.69757 26.16295 1702.00000
v -21576.71816 14.15929 1702.00000
v -21555.53462 -102.00000 94.00000
v -21549.03462 -113.25833 94.00000
v -21536.03462 -113.25833 94.00000
v -21529.53462 -102.00000 94.00000
v -21536.03462 -90.74167 94.00000
v -21549.03462 -90.74167 94.00000
v -21555.53462 -102.00000 109.00000
v -21549.03462 -113.25833 109.00000
v -21536.03462 -113.25833 109.00000
v -21529.53462 -102.00000 109.00000
v -21536.03462 -90.74167 109.00000
v -21549.03462 -90.74167 109.00000
v -21555.53462 102.00000 94.00000
v -21549.03462 90.74167 94.00000
v -21536.03462 90.74167 94.00000
v -21529.53462 102.00000 94.00000
v -21536.03462 113.25833 94.00000
v -21549.03462 113.25833 94.00000
v -21555.53462 102.00000 109.00000
v -21549.03462 90.74167 109.00000
v -21536.03462 90.74167 109.00000
v -21529.53462 102.00000 109.00000
v -21536.03462 113.25833 109.00000
v -21549.03462 113.25833 109.00000
v -21579.53462 1066.80000 628.00000
v -21576.71816 1052.64071 628.00000
v -21568.69757 1040.63705 628.00000
v -21556.69391 1032.61646 628.00000
v -21542.53462 1029.80000 628.00000
v -21528.37534 1032.61646 628.00000
v -21516.37167 1040.63705 628.00000
v -21508.35108 1052.64071 628.00000
v -21505.53462 1066.80000 628.00000
v -21508.35108 1080.95929 628.00000
v -21516.37167 1092.96295 628.00000
v -21528.37534 1100.98354 628.00000
v -21542.53462 1103.80000 628.00000
v -21556.69391 1100.98354 628.00000
v -21568.69757 1092.96295 628.00000
v -21576.71816 1080.95929 628.00000
v -21579.53462 1066.80000 652.00000
v -21576.71816 1052.64071 652.00000
v -21568.69757 1040.63705 652.00000
v -21556.69391 1032.61646 652.00000
v -21542.53462 1029.80000 652.00000
v -21528.37534 1032.61646 652.00000
v -21516.37167 1040.63705 652.00000
v -21508.35108 1052.64071 652.00000
v -21505.53462 1066.80000 652.00000
v -21508.35108 1080.95929 652.00000
v -21516.37167 1092.96295 652.00000
v -21528.37534 1100.98354 652.00000
v -21542.53462 1103.80000 652.00000
v -21556.69391 1100.98354 652.00000
v -21568.69757 1092.96295 652.00000
v -21576.71816 1080.95929 652.00000
v -21579.53462 1066.80000 978.00000
v -21576.71816 1052.64071 978.00000
v -21568.69757 1040.63705 978.00000
v -21556.69391 1032.61646 978.00000
v -21542.53462 1029.80000 978.00000
v -21528.37534 1032.61646 978.00000
v -21516.37167 1040.63705 978.00000
v -21508.35108 1052.64071 978.00000
v -21505.53462 1066.80000 978.00000
v -21508.35108 1080.95929 978.00000
v -21516.37167 1092.96295 978.00000
v -21528.37534 1100.98354 978.00000
v -21542.53462 1103.80000 978.00000
v -21556.69391 1100.98354 978.00000
v -21568.69757 1092.96295 978.00000
v -21576.71816 1080.95929 978.00000
v -21579.53462 1066.80000 1002.00000
v -21576.71816 1052.64071 1002.00000
v -21568.69757 1040.63705 1002.00000
v -21556.69391 1032.61646 1002.00000
v -21542.53462 1029.80000 1002.00000
v -21528.37534 1032.61646 1002.00000
v -21516.37167 1040.63705 1002.00000
v -21508.35108 1052.64071 1002.00000
v -21505.53462 1066.80000 1002.00000
v -21508.35108 1080.95929 1002.00000
v -21516.37167 1092.96295 1002.00000
v -21528.37534 1100.98354 1002.00000
v -21542.53462 1103.80000 1002.00000
v -21556.69391 1100.98354 1002.00000
v -21568.69757 1092.96295 1002.00000
v -21576.71816 1080.95929 1002.00000
v -21579.53462 1066.80000 1428.00000
v -21576.71816 1052.64071 1428.00000
v -21568.69757 1040.63705 1428.00000
v -21556.69391 1032.61646 1428.00000
v -21542.53462 1029.80000 1428.00000
v -21528.37534 1032.61646 1428.00000
v -21516.37167 1040.63705 1428.00000
v -21508.35108 1052.64071 1428.00000
v -21505.53462 1066.80000 1428.00000
v -21508.35108 1080.95929 1428.00000
v -21516.37167 1092.96295 1428.00000
v -21528.37534 1100.98354 1428.00000
v -21542.53462 1103.80000 1428.00000
v -21556.69391 1100.98354 1428.00000
v -21568.69757 1092.96295 1428.00000
v -21576.71816 1080.95929 1428.00000
v -21579.53462 1066.80000 1452.00000
v -21576.71816 1052.64071 1452.00000
v -21568.69757 1040.63705 1452.00000
v -21556.69391 1032.61646 1452.00000
v -21542.53462 1029.80000 1452.00000
v -21528.37534 1032.61646 1452.00000
v -21516.37167 1040.63705 1452.00000
v -21508.35108 1052.64071 1452.00000
v -21505.53462 1066.80000 1452.00000
v -21508.35108 1080.95929 1452.00000
v -21516.37167 1092.96295 1452.00000
v -21528.37534 1100.98354 1452.00000
v -21542.53462 1103.80000 1452.00000
v -21556.69391 1100.98354 1452.00000
v -21568.69757 1092.96295 1452.00000
v -21576.71816 1080.95929 1452.00000
v -21579.53462 1066.80000 1678.00000
v -21576.71816 1052.64071 1678.00000
v -21568.69757 1040.63705 1678.00000
v -21556.69391 1032.61646 1678.00000
v -21542.53462 1029.80000 1678.00000
v -21528.37534 1032.61646 1678.00000
v -21516.37167 1040.63705 1678.00000
v -21508.35108 1052.64071 1678.00000
v -21505.53462 1066.80000 1678.00000
v -21508.35108 1080.95929 1678.00000
v -21516.37167 1092.96295 1678.00000
v -21528.37534 1100.98354 1678.00000
v -21542.53462 1103.80000 1678.00000
v -21556.69391 1100.98354 1678.00000
v -21568.69757 1092.96295 1678.00000
v -21576.71816 1080.95929 1678.00000
v -21579.53462 1066.80000 1702.00000
v -21576.71816 1052.64071 1702.00000
v -21568.69757 1040.63705 1702.00000
v -21556.69391 1032.61646 1702.00000
v -21542.53462 1029.80000 1702.00000
v -21528.37534 1032.61646 1702.00000
v -21516.37167 1040.63705 1702.00000
v -21508.35108 1052.64071 1702.00000
v -21505.53462 1066.80000 1702.00000
v -21508.35108 1080.95929 1702.00000
v -21516.37167 1092.96295 1702.00000
v -21528.37534 1100.98354 1702.00000
v -21542.53462 1103.80000 1702.00000
v -21556.69391 1100.98354 1702.00000
v -21568.69757 1092.96295 1702.00000
v -21576.71816 1080.95929 1702.00000
v -21555.53462 964.80000 94.00000
v -21549.03462 953.54167 94.00000
v -21536.03462 953.54167 94.00000
v -21529.53462 964.80000 94.00000
v -21536.03462 976.05833 94.00000
v -21549.03462 976.05833 94.00000
v -21555.53462 964.80000 109.00000
v -21549.03462 953.54167 109.00000
v -21536.03462 953.54167 109.00000
v -21529.53462 964.80000 109.00000
v -21536.03462 976.05833 109.00000
v -21549.03462 976.05833 109.00000
v -21555.53462 1168.80000 94.00000
v -21549.03462 1157.54167 94.00000
v -21536.03462 1157.54167 94.00000
v -21529.53462 1168.80000 94.00000
v -21536.03462 1180.05833 94.00000
v -21549.03462 1180.05833 94.00000
v -21555.53462 1168.80000 109.00000
v -21549.03462 1157.54167 109.00000
v -21536.03462 1157.54167 109.00000
v -21529.53462 1168.80000 109.00000
v -21536.03462 1180.05833 109.00000
v -21549.03462 1180.05833 109.00000
v -22796.86766 -2545.00000 -6.50000
v -22306.86766 -2545.00000 -6.50000
v -22306.86766 -2055.00000 -6.50000
v -22796.86766 -2055.00000 -6.50000
v -22796.86766 -2545.00000 6.50000
v -22306.86766 -2545.00000 6.50000
v -22306.86766 -2055.00000 6.50000
v -22796.86766 -2055.00000 6.50000
v -22796.86766 -2545.00000 268.50000
v -22306.86766 -2545.00000 268.50000
v -22306.86766 -2055.00000 268.50000
v -22796.86766 -2055.00000 268.50000
v -22796.86766 -2545.00000 281.50000
v -22306.86766 -2545.00000 281.50000
v -22306.86766 -2055.00000 281.50000
v -22796.86766 -2055.00000 281.50000
v -22796.86766 -2545.00000 543.50000
v -22306.86766 -2545.00000 543.50000
v -22306.86766 -2055.00000 543.50000
v -22796.86766 -2055.00000 543.50000
v -22796.86766 -2545.00000 556.50000
v -22306.86766 -2545.00000 556.50000
v -22306.86766 -2055.00000 556.50000
v -22796.86766 -2055.00000 556.50000
v -22796.86766 -2545.00000 818.50000
v -22306.86766 -2545.00000 818.50000
v -22306.86766 -2055.00000 818.50000
v -22796.86766 -2055.00000 818.50000
v -22796.86766 -2545.00000 831.50000
v -22306.86766 -2545.00000 831.50000
v -22306.86766 -2055.00000 831.50000
v -22796.86766 -2055.00000 831.50000
v -22796.86766 -2545.00000 1093.50000
v -22306.86766 -2545.00000 1093.50000
v -22306.86766 -2055.00000 1093.50000
v -22796.86766 -2055.00000 1093.50000
v -22796.86766 -2545.00000 1106.50000
v -22306.86766 -2545.00000 1106.50000
v -22306.86766 -2055.00000 1106.50000
v -22796.86766 -2055.00000 1106.50000
v -22796.86766 2055.00000 -6.50000
v -22306.86766 2055.00000 -6.50000
v -22306.86766 2545.00000 -6.50000
v -22796.86766 2545.00000 -6.50000
v -22796.86766 2055.00000 6.50000
v -22306.86766 2055.00000 6.50000
v -22306.86766 2545.00000 6.50000
v -22796.86766 2545.00000 6.50000
v -22796.86766 2055.00000 268.50000
v -22306.86766 2055.00000 268.50000
v -22306.86766 2545.00000 268.50000
v -22796.86766 2545.00000 268.50000
v -22796.86766 2055.00000 281.50000
v -22306.86766 2055.00000 281.50000
v -22306.86766 2545.00000 281.50000
v -22796.86766 2545.00000 281.50000
v -22796.86766 2055.00000 543.50000
v -22306.86766 2055.00000 543.50000
v -22306.86766 2545.00000 543.50000
v -22796.86766 2545.00000 543.50000
v -22796.86766 2055.00000 556.50000
v -22306.86766 2055.00000 556.50000
v -22306.86766 2545.00000 556.50000
v -22796.86766 2545.00000 556.50000
v -22796.86766 2055.00000 818.50000
v -22306.86766 2055.00000 818.50000
v -22306.86766 2545.00000 818.50000
v -22796.86766 2545.00000 818.50000
v -22796.86766 2055.00000 831.50000
v -22306.86766 2055.00000 831.50000
v -22306.86766 2545.00000 831.50000
v -22796.86766 2545.00000 831.50000
v -22796.86766 2055.00000 1093.50000
v -22306.86766 2055.00000 1093.50000
v -22306.86766 2545.00000 1093.50000
v -22796.86766 2545.00000 1093.50000
v -22796.86766 2055.00000 1106.50000
v -22306.86766 2055.00000 1106.50000
v -22306.86766 2545.00000 1106.50000
v -22796.86766 2545.00000 1106.50000
v -18656.38002 8689.41876 1728.50000
v -18479.38002 8689.41876 1728.50000
v -18479.38002 8891.41876 1728.50000
v -18656.38002 8891.41876 1728.50000
v -18656.38002 8689.41876 1771.50000
v -18479.38002 8689.41876 1771.50000
v -18479.38002 8891.41876 1771.50000
v -18656.38002 8891.41876 1771.50000
v -18656.38002 8689.41876 1148.50000
v -18479.38002 8689.41876 1148.50000
v -18479.38002 8891.41876 1148.50000
v -18656.38002 8891.41876 1148.50000
v -18656.38002 8689.41876 1191.50000
v -18479.38002 8689.41876 1191.50000
v -18479.38002 8891.41876 1191.50000
v -18656.38002 8891.41876 1191.50000
v -14014.41001 8689.41876 1728.50000
v -13837.41001 8689.41876 1728.50000
v -13837.41001 8891.41876 1728.50000
v -14014.41001 8891.41876 1728.50000
v -14014.41001 8689.41876 1771.50000
v -13837.41001 8689.41876 1771.50000
v -13837.41001 8891.41876 1771.50000
v -14014.41001 8891.41876 1771.50000
v -14014.41001 8689.41876 1148.50000
v -13837.41001 8689.41876 1148.50000
v -13837.41001 8891.41876 1148.50000
v -14014.41001 8891.41876 1148.50000
v -14014.41001 8689.41876 1191.50000
v -13837.41001 8689.41876 1191.50000
v -13837.41001 8891.41876 1191.50000
v -14014.41001 8891.41876 1191.50000
v -9372.44001 8689.41876 1728.50000
v -9195.44001 8689.41876 1728.50000
v -9195.44001 8891.41876 1728.50000
v -9372.44001 8891.41876 1728.50000
v -9372.44001 8689.41876 1771.50000
v -9195.44001 8689.41876 1771.50000
v -9195.44001 8891.41876 1771.50000
v -9372.44001 8891.41876 1771.50000
v -9372.44001 8689.41876 1148.50000
v -9195.44001 8689.41876 1148.50000
v -9195.44001 8891.41876 1148.50000
v -9372.44001 8891.41876 1148.50000
v -9372.44001 8689.41876 1191.50000
v -9195.44001 8689.41876 1191.50000
v -9195.44001 8891.41876 1191.50000
v -9372.44001 8891.41876 1191.50000
v -4730.47000 8689.41876 1728.50000
v -4553.47000 8689.41876 1728.50000
v -4553.47000 8891.41876 1728.50000
v -4730.47000 8891.41876 1728.50000
v -4730.47000 8689.41876 1771.50000
v -4553.47000 8689.41876 1771.50000
v -4553.47000 8891.41876 1771.50000
v -4730.47000 8891.41876 1771.50000
v -4730.47000 8689.41876 1148.50000
v -4553.47000 8689.41876 1148.50000
v -4553.47000 8891.41876 1148.50000
v -4730.47000 8891.41876 1148.50000
v -4730.47000 8689.41876 1191.50000
v -4553.47000 8689.41876 1191.50000
v -4553.47000 8891.41876 1191.50000
v -4730.47000 8891.41876 1191.50000
v -88.50000 8689.41876 1728.50000
v 88.50000 8689.41876 1728.50000
v 88.50000 8891.41876 1728.50000
v -88.50000 8891.41876 1728.50000
v -88.50000 8689.41876 1771.50000
v 88.50000 8689.41876 1771.50000
v 88.50000 8891.41876 1771.50000
v -88.50000 8891.41876 1771.50000
v -88.50000 8689.41876 1148.50000
v 88.50000 8689.41876 1148.50000
v 88.50000 8891.41876 1148.50000
v -88.50000 8891.41876 1148.50000
v -88.50000 8689.41876 1191.50000
v 88.50000 8689.41876 1191.50000
v 88.50000 8891.41876 1191.50000
v -88.50000 8891.41876 1191.50000
v 4553.47000 8689.41876 1728.50000
v 4730.47000 8689.41876 1728.50000
v 4730.47000 8891.41876 1728.50000
v 4553.47000 8891.41876 1728.50000
v 4553.47000 8689.41876 1771.50000
v 4730.47000 8689.41876 1771.50000
v 4730.47000 8891.41876 1771.50000
v 4553.47000 8891.41876 1771.50000
v 4553.47000 8689.41876 1148.50000
v 4730.47000 8689.41876 1148.50000
v 4730.47000 8891.41876 1148.50000
v 4553.47000 8891.41876 1148.50000
v 4553.47000 8689.41876 1191.50000
v 4730.47000 8689.41876 1191.50000
v 4730.47000 8891.41876 1191.50000
v 4553.47000 8891.41876 1191.50000
v 9195.44001 8689.41876 1728.50000
v 9372.44001 8689.41876 1728.50000
v 9372.44001 8891.41876 1728.50000
v 9195.44001 8891.41876 1728.50000
v 9195.44001 8689.41876 1771.50000
v 9372.44001 8689.41876 1771.50000
v 9372.44001 8891.41876 1771.50000
v 9195.44001 8891.41876 1771.50000
v 9195.44001 8689.41876 1148.50000
v 9372.44001 8689.41876 1148.50000
v 9372.44001 8891.41876 1148.50000
v 9195.44001 8891.41876 1148.50000
v 9195.44001 8689.41876 1191.50000
v 9372.44001 8689.41876 1191.50000
v 9372.44001 8891.41876 1191.50000
v 9195.44001 8891.41876 1191.50000
v 13837.41001 8689.41876 1728.50000
v 14014.41001 8689.41876 1728.50000
v 14014.41001 8891.41876 1728.50000
v 13837.41001 8891.41876 1728.50000
v 13837.41001 8689.41876 1771.50000
v 14014.41001 8689.41876 1771.50000
v 14014.41001 8891.41876 1771.50000
v 13837.41001 8891.41876 1771.50000
v 13837.41001 8689.41876 1148.50000
v 14014.41001 8689.41876 1148.50000
v 14014.41001 8891.41876 1148.50000
v 13837.41001 8891.41876 1148.50000
v 13837.41001 8689.41876 1191.50000
v 14014.41001 8689.41876 1191.50000
v 14014.41001 8891.41876 1191.50000
v 13837.41001 8891.41876 1191.50000
v 18479.38002 8689.41876 1728.50000
v 18656.38002 8689.41876 1728.50000
v 18656.38002 8891.41876 1728.50000
v 18479.38002 8891.41876 1728.50000
v 18479.38002 8689.41876 1771.50000
v 18656.38002 8689.41876 1771.50000
v 18656.38002 8891.41876 1771.50000
v 18479.38002 8891.41876 1771.50000
v 18479.38002 8689.41876 1148.50000
v 18656.38002 8689.41876 1148.50000
v 18656.38002 8891.41876 1148.50000
v 18479.38002 8891.41876 1148.50000
v 18479.38002 8689.41876 1191.50000
v 18656.38002 8689.41876 1191.50000
v 18656.38002 8891.41876 1191.50000
v 18479.38002 8891.41876 1191.50000
v 21505.53462 -1066.80000 628.00000
v 21508.35108 -1080.95929 628.00000
v 21516.37167 -1092.96295 628.00000
v 21528.37534 -1100.98354 628.00000
v 21542.53462 -1103.80000 628.00000
v 21556.69391 -1100.98354 628.00000
v 21568.69757 -1092.96295 628.00000
v 21576.71816 -1080.95929 628.00000
v 21579.53462 -1066.80000 628.00000
v 21576.71816 -1052.64071 628.00000
v 21568.69757 -1040.63705 628.00000
v 21556.69391 -1032.61646 628.00000
v 21542.53462 -1029.80000 628.00000
v 21528.37534 -1032.61646 628.00000
v 21516.37167 -1040.63705 628.00000
v 21508.35108 -1052.64071 628.00000
v 21505.53462 -1066.80000 652.00000
v 21508.35108 -1080.95929 652.00000
v 21516.37167 -1092.96295 652.00000
v 21528.37534 -1100.98354 652.00000
v 21542.53462 -1103.80000 652.00000
v 21556.69391 -1100.98354 652.00000
v 21568.69757 -1092.96295 652.00000
v 21576.71816 -1080.95929 652.00000
v 21579.53462 -1066.80000 652.00000
v 21576.71816 -1052.64071 652.00000
v 21568.69757 -1040.63705 652.00000
v 21556.69391 -1032.61646 652.00000
v 21542.53462 -1029.80000 652.00000
v 21528.37534 -1032.61646 652.00000
v 21516.37167 -1040.63705 652.00000
v 21508.35108 -1052.64071 652.00000
v 21505.53462 -1066.80000 978.00000
v 21508.35108 -1080.95929 978.00000
v 21516.37167 -1092.96295 978.00000
v 21528.37534 -1100.98354 978.00000
v 21542.53462 -1103.80000 978.00000
v 21556.69391 -1100.98354 978.00000
v 21568.69757 -1092.96295 978.00000
v 21576.71816 -1080.95929 978.00000
v 21579.53462 -1066.80000 978.00000
v 21576.71816 -1052.64071 978.00000
v 21568.69757 -1040.63705 978.00000
v 21556.69391 -1032.61646 978.00000
v 21542.53462 -1029.80000 978.00000
v 21528.37534 -1032.61646 978.00000
v 21516.37167 -1040.63705 978.00000
v 21508.35108 -1052.64071 978.00000
v 21505.53462 -1066.80000 1002.00000
v 21508.35108 -1080.95929 1002.00000
v 21516.37167 -1092.96295 1002.00000
v 21528.37534 -1100.98354 1002.00000
v 21542.53462 -1103.80000 1002.00000
v 21556.69391 -1100.98354 1002.00000
v 21568.69757 -1092.96295 1002.00000
v 21576.71816 -1080.95929 1002.00000
v 21579.53462 -1066.80000 1002.00000
v 21576.71816 -1052.64071 1002.00000
v 21568.69757 -1040.63705 1002.00000
v 21556.69391 -1032.61646 1002.00000
v 21542.53462 -1029.80000 1002.00000
v 21528.37534 -1032.61646 1002.00000
v 21516.37167 -1040.63705 1002.00000
v 21508.35108 -1052.64071 1002.00000
v 21505.53462 -1066.80000 1428.00000
v 21508.35108 -1080.95929 1428.00000
v 21516.37167 -1092.96295 1428.00000
v 21528.37534 -1100.98354 1428.00000
v 21542.53462 -1103.80000 1428.00000
v 21556.69391 -1100.98354 1428.00000
v 21568.69757 -1092.96295 1428.00000
v 21576.71816 -1080.95929 1428.00000
v 21579.53462 -1066.80000 1428.00000
v 21576.71816 -1052.64071 1428.00000
v 21568.69757 -1040.63705 1428.00000
v 21556.69391 -1032.61646 1428.00000
v 21542.53462 -1029.80000 1428.00000
v 21528.37534 -1032.61646 1428.00000
v 21516.37167 -1040.63705 1428.00000
v 21508.35108 -1052.64071 1428.00000
v 21505.53462 -1066.80000 1452.00000
v 21508.35108 -1080.95929 1452.00000
v 21516.37167 -1092.96295 1452.00000
v 21528.37534 -1100.98354 1452.00000
v 21542.53462 -1103.80000 1452.00000
v 21556.69391 -1100.98354 1452.00000
v 21568.69757 -1092.96295 1452.00000
v 21576.71816 -1080.95929 1452.00000
v 21579.53462 -1066.80000 1452.00000
v 21576.71816 -1052.64071 1452.00000
v 21568.69757 -1040.63705 1452.00000
v 21556.69391 -1032.61646 1452.00000
v 21542.53462 -1029.80000 1452.00000
v 21528.37534 -1032.61646 1452.00000
v 21516.37167 -1040.63705 1452.00000
v 21508.35108 -1052.64071 1452.00000
v 21505.53462 -1066.80000 1678.00000
v 21508.35108 -1080.95929 1678.00000
v 21516.37167 -1092.96295 1678.00000
v 21528.37534 -1100.98354 1678.00000
v 21542.53462 -1103.80000 1678.00000
v 21556.69391 -1100.98354 1678.00000
v 21568.69757 -1092.96295 1678.00000
v 21576.71816 -1080.95929 1678.00000
v 21579.53462 -1066.80000 1678.00000
v 21576.71816 -1052.64071 1678.00000
v 21568.69757 -1040.63705 1678.00000
v 21556.69391 -1032.61646 1678.00000
v 21542.53462 -1029.80000 1678.00000
v 21528.37534 -1032.61646 1678.00000
v 21516.37167 -1040.63705 1678.00000
v 21508.35108 -1052.64071 1678.00000
v 21505.53462 -1066.80000 1702.00000
v 21508.35108 -1080.95929 1702.00000
v 21516.37167 -1092.96295 1702.00000
v 21528.37534 -1100.98354 1702.00000
v 21542.53462 -1103.80000 1702.00000
v 21556.69391 -1100.98354 1702.00000
v 21568.69757 -1092.96295 1702.00000
v 21576.71816 -1080.95929 1702.00000
v 21579.53462 -1066.80000 1702.00000
v 21576.71816 -1052.64071 1702.00000
v 21568.69757 -1040.63705 1702.00000
v 21556.69391 -1032.61646 1702.00000
v 21542.53462 -1029.80000 1702.00000
v 21528.37534 -1032.61646 1702.00000
v 21516.37167 -1040.63705 1702.00000
v 21508.35108 -1052.64071 1702.00000
v 21529.53462 -1168.80000 94.00000
v 21536.03462 -1180.05833 94.00000
v 21549.03462 -1180.05833 94.00000
v 21555.53462 -1168.80000 94.00000
v 21549.03462 -1157.54167 94.00000
v 21536.03462 -1157.54167 94.00000
v 21529.53462 -1168.80000 109.00000
v 21536.03462 -1180.05833 109.00000
v 21549.03462 -1180.05833 109.00000
v 21555.53462 -1168.80000 109.00000
v 21549.03462 -1157.54167 109.00000
v 21536.03462 -1157.54167 109.00000
v 21529.53462 -964.80000 94.00000
v 21536.03462 -976.05833 94.00000
v 21549.03462 -976.05833 94.00000
v 21555.53462 -964.80000 94.00000
v 21549.03462 -953.54167 94.00000
v 21536.03462 -953.54167 94.00000
v 21529.53462 -964.80000 109.00000
v 21536.03462 -976.05833 109.00000
v 21549.03462 -976.05833 109.00000
v 21555.53462 -964.80000 109.00000
v 21549.03462 -953.54167 109.00000
v 21536.03462 -953.54167 109.00000
v 21505.53462 0.00000 628.00000
v 21508.35108 -14.15929 628.00000
v 21516.37167 -26.16295 628.00000
v 21528.37534 -34.18354 628.00000
v 21542.53462 -37.00000 628.00000
v 21556.69391 -34.18354 628.00000
v 21568.69757 -26.16295 628.00000
v 21576.71816 -14.15929 628.00000
v 21579.53462 -0.00000 628.00000
v 21576.71816 14.15929 628.00000
v 21568.69757 26.16295 628.00000
v 21556.69391 34.18354 628.00000
v 21542.53462 37.00000 628.00000
v 21528.37534 34.18354 628.00000
v 21516.37167 26.16295 628.00000
v 21508.35108 14.15929 628.00000
v 21505.53462 0.00000 652.00000
v 21508.35108 -14.15929 652.00000
v 21516.37167 -26.16295 652.00000
v 21528.37534 -34.18354 652.00000
v 21542.53462 -37.00000 652.00000
v 21556.69391 -34.18354 652.00000
v 21568.69757 -26.16295 652.00000
v 21576.71816 -14.15929 652.00000
v 21579.53462 -0.00000 652.00000
v 21576.71816 14.15929 652.00000
v 21568.69757 26.16295 652.00000
v 21556.69391 34.18354 652.00000
v 21542.53462 37.00000 652.00000
v 21528.37534 34.18354 652.00000
v 21516.37167 26.16295 652.00000
v 21508.35108 14.15929 652.00000
v 21505.53462 0.00000 978.00000
v 21508.35108 -14.15929 978.00000
v 21516.37167 -26.16295 978.00000
v 21528.37534 -34.18354 978.00000
v 21542.53462 -37.00000 978.00000
v 21556.69391 -34.18354 978.00000
v 21568.69757 -26.16295 978.00000
v 21576.71816 -14.15929 978.00000
v 21579.53462 -0.00000 978.00000
v 21576.71816 14.15929 978.00000
v 21568.69757 26.16295 978.00000
v 21556.69391 34.18354 978.00000
v 21542.53462 37.00000 978.00000
v 21528.37534 34.18354 978.00000
v 21516.37167 26.16295 978.00000
v 21508.35108 14.15929 978.00000
v 21505.53462 0.00000 1002.00000
v 21508.35108 -14.15929 1002.00000
v 21516.37167 -26.16295 1002.00000
v 21528.37534 -34.18354 1002.00000
v 21542.53462 -37.00000 1002.00000
v 21556.69391 -34.18354 1002.00000
v 21568.69757 -26.16295 1002.00000
v 21576.71816 -14.15929 1002.00000
v 21579.53462 -0.00000 1002.00000
v 21576.71816 14.15929 1002.00000
v 21568.69757 26.16295 1002.00000
v 21556.69391 34.18354 1002.00000
v 21542.53462 37.00000 1002.00000
v 21528.37534 34.18354 1002.00000
v 21516.37167 26.16295 1002.00000
v 21508.35108 14.15929 1002.00000
v 21505.53462 0.00000 1428.00000
v 21508.35108 -14.15929 1428.00000
v 21516.37167 -26.16295 1428.00000
v 21528.37534 -34.18354 1428.00000
v 21542.53462 -37.00000 1428.00000
v 21556.69391 -34.18354 1428.00000
v 21568.69757 -26.16295 1428.00000
v 21576.71816 -14.15929 1428.00000
v 21579.53462 -0.00000 1428.00000
v 21576.71816 14.15929 1428.00000
v 21568.69757 26.16295 1428.00000
v 21556.69391 34.18354 1428.00000
v 21542.53462 37.00000 1428.00000
v 21528.37534 34.18354 1428.00000
v 21516.37167 26.16295 1428.00000
v 21508.35108 14.15929 1428.00000
v 21505.53462 0.00000 1452.00000
v 21508.35108 -14.15929 1452.00000
v 21516.37167 -26.16295 1452.00000
v 21528.37534 -34.18354 1452.00000
v 21542.53462 -37.00000 1452.00000
v 21556.69391 -34.18354 1452.00000
v 21568.69757 -26.16295 1452.00000
v 21576.71816 -14.15929 1452.00000
v 21579.53462 -0.00000 1452.00000
v 21576.71816 14.15929 1452.00000
v 21568.69757 26.16295 1452.00000
v 21556.69391 34.18354 1452.00000
v 21542.53462 37.00000 1452.00000
v 21528.37534 34.18354 1452.00000
v 21516.37167 26.16295 1452.00000
v 21508.35108 14.15929 1452.00000
v 21505.53462 0.00000 1678.00000
v 21508.35108 -14.15929 1678.00000
v 21516.37167 -26.16295 1678.00000
v 21528.37534 -34.18354 1678.00000
v 21542.53462 -37.00000 1678.00000
v 21556.69391 -34.18354 1678.00000
v 21568.69757 -26.16295 1678.00000
v 21576.71816 -14.15929 1678.00000
v 21579.53462 -0.00000 1678.00000
v 21576.71816 14.15929 1678.00000
v 21568.69757 26.16295 1678.00000
v 21556.69391 34.18354 1678.00000
v 21542.53462 37.00000 1678.00000
v 21528.37534 34.18354 1678.00000
v 21516.37167 26.16295 1678.00000
v 21508.35108 14.15929 1678.00000
v 21505.53462 0.00000 1702.00000
v 21508.35108 -14.15929 1702.00000
v 21516.37167 -26.16295 1702.00000
v 21528.37534 -34.18354 1702.00000
v 21542.53462 -37.00000 1702.00000
v 21556.69391 -34.18354 1702.00000
v 21568.69757 -26.16295 1702.00000
v 21576.71816 -14.15929 1702.00000
v 21579.53462 -0.00000 1702.00000
v 21576.71816 14.15929 1702.00000
v 21568.69757 26.16295 1702.00000
v 21556.69391 34.18354 1702.00000
v 21542.53462 37.00000 1702.00000
v 21528.37534 34.18354 1702.00000
v 21516.37167 26.16295 1702.00000
v 21508.35108 14.15929 1702.00000
v 21529.53462 -102.00000 94.00000
v 21536.03462 -113.25833 94.00000
v 21549.03462 -113.25833 94.00000
v 21555.53462 -102.00000 94.00000
v 21549.03462 -90.74167 94.00000
v 21536.03462 -90.74167 94.00000
v 21529.53462 -102.00000 109.00000
v 21536.03462 -113.25833 109.00000
v 21549.03462 -113.25833 109.00000
v 21555.53462 -102.00000 109.00000
v 21549.03462 -90.74167 109.00000
v 21536.03462 -90.74167 109.00000
v 21529.53462 102.00000 94.00000
v 21536.03462 90.74167 94.00000
v 21549.03462 90.74167 94.00000
v 21555.53462 102.00000 94.00000
v 21549.03462 113.25833 94.00000
v 21536.03462 113.25833 94.00000
v 21529.53462 102.00000 109.00000
v 21536.03462 90.74167 109.00000
v 21549.03462 90.74167 109.00000
v 21555.53462 102.00000 109.00000
v 21549.03462 113.25833 109.00000
v 21536.03462 113.25833 109.00000
v 21505.53462 1066.80000 628.00000
v 21508.35108 1052.64071 628.00000
v 21516.37167 1040.63705 628.00000
v 21528.37534 1032.61646 628.00000
v 21542.53462 1029.80000 628.00000
v 21556.69391 1032.61646 628.00000
v 21568.69757 1040.63705 628.00000
v 21576.71816 1052.64071 628.00000
v 21579.53462 1066.80000 628.00000
v 21576.71816 1080.95929 628.00000
v 21568.69757 1092.96295 628.00000
v 21556.69391 1100.98354 628.00000
v 21542.53462 1103.80000 628.00000
v 21528.37534 1100.98354 628.00000
v 21516.37167 1092.96295 628.00000
v 21508.35108 1080.95929 628.00000
v 21505.53462 1066.80000 652.00000
v 21508.35108 1052.64071 652.00000
v 21516.37167 1040.63705 652.00000
v 21528.37534 1032.61646 652.00000
v 21542.53462 1029.80000 652.00000
v 21556.69391 1032.61646 652.00000
v 21568.69757 1040.63705 652.00000
v 21576.71816 1052.64071 652.00000
v 21579.53462 1066.80000 652.00000
v 21576.71816 1080.95929 652.00000
v 21568.69757 1092.96295 652.00000
v 21556.69391 1100.98354 652.00000
v 21542.53462 1103.80000 652.00000
v 21528.37534 1100.98354 652.00000
v 21516.37167 1092.96295 652.00000
v 21508.35108 1080.95929 652.00000
v 21505.53462 1066.80000 978.00000
v 21508.35108 1052.64071 978.00000
v 21516.37167 1040.63705 978.00000
v 21528.37534 1032.61646 978.00000
v 21542.53462 1029.80000 978.00000
v 21556.69391 1032.61646 978.00000
v 21568.69757 1040.63705 978.00000
v 21576.71816 1052.64071 978.00000
v 21579.53462 1066.80000 978.00000
v 21576.71816 1080.95929 978.00000
v 21568.69757 1092.96295 978.00000
v 21556.69391 1100.98354 978.00000
v 21542.53462 1103.80000 978.00000
v 21528.37534 1100.98354 978.00000
v 21516.37167 1092.96295 978.00000
v 21508.35108 1080.95929 978.00000
v 21505.53462 1066.80000 1002.00000
v 21508.35108 1052.64071 1002.00000
v 21516.37167 1040.63705 1002.00000
v 21528.37534 1032.61646 1002.00000
v 21542.53462 1029.80000 1002.00000
v 21556.69391 1032.61646 1002.00000
v 21568.69757 1040.63705 1002.00000
v 21576.71816 1052.64071 1002.00000
v 21579.53462 1066.80000 1002.00000
v 21576.71816 1080.95929 1002.00000
v 21568.69757 1092.96295 1002.00000
v 21556.69391 1100.98354 1002.00000
v 21542.53462 1103.80000 1002.00000
v 21528.37534 1100.98354 1002.00000
v 21516.37167 1092.96295 1002.00000
v 21508.35108 1080.95929 1002.00000
v 21505.53462 1066.80000 1428.00000
v 21508.35108 1052.64071 1428.00000
v 21516.37167 1040.63705 1428.00000
v 21528.37534 1032.61646 1428.00000
v 21542.53462 1029.80000 1428.00000
v 21556.69391 1032.61646 1428.00000
v 21568.69757 1040.63705 1428.00000
v 21576.71816 1052.64071 1428.00000
v 21579.53462 1066.80000 1428.00000
v 21576.71816 1080.95929 1428.00000
v 21568.69757 1092.96295 1428.00000
v 21556.69391 1100.98354 1428.00000
v 21542.53462 1103.80000 1428.00000
v 21528.37534 1100.98354 1428.00000
v 21516.37167 1092.96295 1428.00000
v 21508.35108 1080.95929 1428.00000
v 21505.53462 1066.80000 1452.00000
v 21508.35108 1052.64071 1452.00000
v 21516.37167 1040.63705 1452.00000
v 21528.37534 1032.61646 1452.00000
v 21542.53462 1029.80000 1452.00000
v 21556.69391 1032.61646 1452.00000
v 21568.69757 1040.63705 1452.00000
v 21576.71816 1052.64071 1452.00000
v 21579.53462 1066.80000 1452.00000
v 21576.71816 1080.95929 1452.00000
v 21568.69757 1092.96295 1452.00000
v 21556.69391 1100.98354 1452.00000
v 21542.53462 1103.80000 1452.00000
v 21528.37534 1100.98354 1452.00000
v 21516.37167 1092.96295 1452.00000
v 21508.35108 1080.95929 1452.00000
v 21505.53462 1066.80000 1678.00000
v 21508.35108 1052.64071 1678.00000
v 21516.37167 1040.63705 1678.00000
v 21528.37534 1032.61646 1678.00000
v 21542.53462 1029.80000 1678.00000
v 21556.69391 1032.61646 1678.00000
v 21568.69757 1040.63705 1678.00000
v 21576.71816 1052.64071 1678.00000
v 21579.53462 1066.80000 1678.00000
v 21576.71816 1080.95929 1678.00000
v 21568.69757 1092.96295 1678.00000
v 21556.69391 1100.98354 1678.00000
v 21542.53462 1103.80000 1678.00000
v 21528.37534 1100.98354 1678.00000
v 21516.37167 1092.96295 1678.00000
v 21508.35108 1080.95929 1678.00000
v 21505.53462 1066.80000 1702.00000
v 21508.35108 1052.64071 1702.00000
v 21516.37167 1040.63705 1702.00000
v 21528.37534 1032.61646 1702.00000
v 21542.53462 1029.80000 1702.00000
v 21556.69391 1032.61646 1702.00000
v 21568.69757 1040.63705 1702.00000
v 21576.71816 1052.64071 1702.00000
v 21579.53462 1066.80000 1702.00000
v 21576.71816 1080.95929 1702.00000
v 21568.69757 1092.96295 1702.00000
v 21556.69391 1100.98354 1702.00000
v 21542.53462 1103.80000 1702.00000
v 21528.37534 1100.98354 1702.00000
v 21516.37167 1092.96295 1702.00000
v 21508.35108 1080.95929 1702.00000
v 21529.53462 964.80000 94.00000
v 21536.03462 953.54167 94.00000
v 21549.03462 953.54167 94.00000
v 21555.53462 964.80000 94.00000
v 21549.03462 976.05833 94.00000
v 21536.03462 976.05833 94.00000
v 21529.53462 964.80000 109.00000
v 21536.03462 953.54167 109.00000
v 21549.03462 953.54167 109.00000
v 21555.53462 964.80000 109.00000
v 21549.03462 976.05833 109.00000
v 21536.03462 976.05833 109.00000
v 21529.53462 1168.80000 94.00000
v 21536.03462 1157.54167 94.00000
v 21549.03462 1157.54167 94.00000
v 21555.53462 1168.80000 94.00000
v 21549.03462 1180.05833 94.00000
v 21536.03462 1180.05833 94.00000
v 21529.53462 1168.80000 109.00000
v 21536.03462 1157.54167 109.00000
v 21549.03462 1157.54167 109.00000
v 21555.53462 1168.80000 109.00000
v 21549.03462 1180.05833 109.00000
v 21536.03462 1180.05833 109.00000
v 22306.86766 -2545.00000 -6.50000
v 22796.86766 -2545.00000 -6.50000
v 22796.86766 -2055.00000 -6.50000
v 22306.86766 -2055.00000 -6.50000
v 22306.86766 -2545.00000 6.50000
v 22796.86766 -2545.00000 6.50000
v 22796.86766 -2055.00000 6.50000
v 22306.86766 -2055.00000 6.50000
v 22306.86766 -2545.00000 268.50000
v 22796.86766 -2545.00000 268.50000
v 22796.86766 -2055.00000 268.50000
v 22306.86766 -2055.00000 268.50000
v 22306.86766 -2545.00000 281.50000
v 22796.86766 -2545.00000 281.50000
v 22796.86766 -2055.00000 281.50000
v 22306.86766 -2055.00000 281.50000
v 22306.86766 -2545.00000 543.50000
v 22796.86766 -2545.00000 543.50000
v 22796.86766 -2055.00000 543.50000
v 22306.86766 -2055.00000 543.50000
v 22306.86766 -2545.00000 556.50000
v 22796.86766 -2545.00000 556.50000
v 22796.86766 -2055.00000 556.50000
v 22306.86766 -2055.00000 556.50000
v 22306.86766 -2545.00000 818.50000
v 22796.86766 -2545.00000 818.50000
v 22796.86766 -2055.00000 818.50000
v 22306.86766 -2055.00000 818.50000
v 22306.86766 -2545.00000 831.50000
v 22796.86766 -2545.00000 831.50000
v 22796.86766 -2055.00000 831.50000
v 22306.86766 -2055.00000 831.50000
v 22306.86766 -2545.00000 1093.50000
v 22796.86766 -2545.00000 1093.50000
v 22796.86766 -2055.00000 1093.50000
v 22306.86766 -2055.00000 1093.50000
v 22306.86766 -2545.00000 1106.50000
v 22796.86766 -2545.00000 1106.50000
v 22796.86766 -2055.00000 1106.50000
v 22306.86766 -2055.00000 1106.50000
v 22306.86766 2055.00000 -6.50000
v 22796.86766 2055.00000 -6.50000
v 22796.86766 2545.00000 -6.50000
v 22306.86766 2545.00000 -6.50000
v 22306.86766 2055.00000 6.50000
v 22796.86766 2055.00000 6.50000
v 22796.86766 2545.00000 6.50000
v 22306.86766 2545.00000 6.50000
v 22306.86766 2055.00000 268.50000
v 22796.86766 2055.00000 268.50000
v 22796.86766 2545.00000 268.50000
v 22306.86766 2545.00000 268.50000
v 22306.86766 2055.00000 281.50000
v 22796.86766 2055.00000 281.50000
v 22796.86766 2545.00000 281.50000
v 22306.86766 2545.00000 281.50000
v 22306.86766 2055.00000 543.50000
v 22796.86766 2055.00000 543.50000
v 22796.86766 2545.00000 543.50000
v 22306.86766 2545.00000 543.50000
v 22306.86766 2055.00000 556.50000
v 22796.86766 2055.00000 556.50000
v 22796.86766 2545.00000 556.50000
v 22306.86766 2545.00000 556.50000
v 22306.86766 2055.00000 818.50000
v 22796.86766 2055.00000 818.50000
v 22796.86766 2545.00000 818.50000
v 22306.86766 2545.00000 818.50000
v 22306.86766 2055.00000 831.50000
v 22796.86766 2055.00000 831.50000
v 22796.86766 2545.00000 831.50000
v 22306.86766 2545.00000 831.50000
v 22306.86766 2055.00000 1093.50000
v 22796.86766 2055.00000 1093.50000
v 22796.86766 2545.00000 1093.50000
v 22306.86766 2545.00000 1093.50000
v 22306.86766 2055.00000 1106.50000
v 22796.86766 2055.00000 1106.50000
v 22796.86766 2545.00000 1106.50000
v 22306.86766 2545.00000 1106.50000
f 4 3 2 1
f 5 6 7 8
f 1 2 6 5
f 2 3 7 6
f 3 4 8 7
f 4 1 5 8
f 12 11 10 9
f 13 14 15 16
f 9 10 14 13
f 10 11 15 14
f 11 12 16 15
f 12 9 13 16
f 20 19 18 17
f 21 22 23 24
f 17 18 22 21
f 18 19 23 22
f 19 20 24 23
f 20 17 21 24
f 28 27 26 25
f 29 30 31 32
f 25 26 30 29
f 26 27 31 30
f 27 28 32 31
f 28 25 29 32
f 36 35 34 33
f 37 38 39 40
f 33 34 38 37
f 34 35 39 38
f 35 36 40 39
f 36 33 37 40
f 44 43 42 41
f 45 46 47 48
f 41 42 46 45
f 42 43 47 46
f 43 44 48 47
f 44 41 45 48
f 52 51 50 49
f 53 54 55 56
f 49 50 54 53
f 50 51 55 54
f 51 52 56 55
f 52 49 53 56
f 60 59 58 57
f 61 62 63 64
f 57 58 62 61
f 58 59 63 62
f 59 60 64 63
f 60 57 61 64
f 68 67 66 65
f 69 70 71 72
f 65 66 70 69
f 66 67 71 70
f 67 68 72 71
f 68 65 69 72
f 76 75 74 73
f 77 78 79 80
f 73 74 78 77
f 74 75 79 78
f 75 76 80 79
f 76 73 77 80
f 84 83 82 81
f 85 86 87 88
f 81 82 86 85
f 82 83 87 86
f 83 84 88 87
f 84 81 85 88
f 92 91 90 89
f 93 94 95 96
f 89 90 94 93
f 90 91 95 94
f 91 92 96 95
f 92 89 93 96
f 100 99 98 97
f 101 102 103 104
f 97 98 102 101
f 98 99 103 102
f 99 100 104 103
f 100 97 101 104
f 108 107 106 105
f 109 110 111 112
f 105 106 110 109
f 106 107 111 110
f 107 108 112 111
f 108 105 109 112
f 116 115 114 113
f 117 118 119 120
f 113 114 118 117
f 114 115 119 118
f 115 116 120 119
f 116 113 117 120
f 124 123 122 121
f 125 126 127 128
f 121 122 126 125
f 122 123 127 126
f 123 124 128 127
f 124 121 125 128
f 132 131 130 129
f 133 134 135 136
f 129 130 134 133
f 130 131 135 134
f 131 132 136 135
f 132 129 133 136
f 140 139 138 137
f 141 142 143 144
f 137 138 142 141
f 138 139 143 142
f 139 140 144 143
f 140 137 141 144
f 145 146 162 161
f 146 147 163 162
f 147 148 164 163
f 148 149 165 164
f 149 150 166 165
f 150 151 167 166
f 151 152 168 167
f 152 153 169 168
f 153 154 170 169
f 154 155 171 170
f 155 156 172 171
f 156 157 173 172
f 157 158 174 173
f 158 159 175 174
f 159 160 176 175
f 160 145 161 176
f 160 159 158 157 156 155 154 153 152 151 150 149 148 147 146 145
f 161 162 163 164 165 166 167 168 169 170 171 172 173 174 175 176
f 177 178 194 193
f 178 179 195 194
f 179 180 196 195
f 180 181 197 196
f 181 182 198 197
f 182 183 199 198
f 183 184 200 199
f 184 185 201 200
f 185 186 202 201
f 186 187 203 202
f 187 188 204 203
f 188 189 205 204
f 189 190 206 205
f 190 191 207 206
f 191 192 208 207
f 192 177 193 208
f 192 191 190 189 188 187 186 185 184 183 182 181 180 179 178 177
f 193 194 195 196 197 198 199 200 201 202 203 204 205 206 207 208
f 209 210 226 225
f 210 211 227 226
f 211 212 228 227
f 212 213 229 228
f 213 214 230 229
f 214 215 231 230
f 215 216 232 231
f 216 217 233 232
f 217 218 234 233
f 218 219 235 234
f 219 220 236 235
f 220 221 237 236
f 221 222 238 237
f 222 223 239 238
f 223 224 240 239
f 224 209 225 240
f 224 223 222 221 220 219 218 217 216 215 214 213 212 211 210 209
f 225 226 227 228 229 230 231 232 233 234 235 236 237 238 239 240
f 241 242 258 257
f 242 243 259 258
f 243 244 260 259
f 244 245 261 260
f 245 246 262 261
f 246 247 263 262
f 247 248 264 263
f 248 249 265 264
f 249 250 266 265
f 250 251 267 266
f 251 252 268 267
f 252 253 269 268
f 253 254 270 269
f 254 255 271 270
f 255 256 272 271
f 256 241 257 272
f 256 255 254 253 252 251 250 249 248 247 246 245 244 243 242 241
f 257 258 259 260 261 262 263 264 265 266 267 268 269 270 271 272
f 273 274 280 279
f 274 275 281 280
f 275 276 282 281
f 276 277 283 282
f 277 278 284 283
f 278 273 279 284
f 278 277 276 275 274 273
f 279 280 281 282 283 284
f 285 286 292 291
f 286 287 293 292
f 287 288 294 293
f 288 289 295 294
f 289 290 296 295
f 290 285 291 296
f 290 289 288 287 286 285
f 291 292 293 294 295 296
f 297 298 314 313
f 298 299 315 314
f 299 300 316 315
f 300 301 317 316
f 301 302 318 317
f 302 303 319 318
f 303 304 320 319
f 304 305 321 320
f 305 306 322 321
f 306 307 323 322
f 307 308 324 323
f 308 309 325 324
f 309 310 326 325
f 310 311 327 326
f 311 312 328 327
f 312 297 313 328
f 312 311 310 309 308 307 306 305 304 303 302 301 300 299 298 297
f 313 314 315 316 317 318 319 320 321 322 323 324 325 326 327 328
f 329 330 346 345
f 330 331 347 346
f 331 332 348 347
f 332 333 349 348
f 333 334 350 349
f 334 335 351 350
f 335 336 352 351
f 336 337 353 352
f 337 338 354 353
f 338 339 355 354
f 339 340 356 355
f 340 341 357 356
f 341 342 358 357
f 342 343 359 358
f 343 344 360 359
f 344 329 345 360
f 344 343 342 341 340 339 338 337 336 335 334 333 332 331 330 329
f 345 346 347 348 349 350 351 352 353 354 355 356 357 358 359 360
f 361 362 378 377
f 362 363 379 378
f 363 364 380 379
f 364 365 381 380
f 365 366 382 381
f 366 367 383 382
f 367 368 384 383
f 368 369 385 384
f 369 370 386 385
f 370 371 387 386
f 371 372 388 387
f 372 373 389 388
f 373 374 390 389
f 374 375 391 390
f 375 376 392 391
f 376 361 377 392
f 376 375 374 373 372 371 370 369 368 367 366 365 364 363 362 361
f 377 378 379 380 381 382 383 384 385 386 387 388 389 390 391 392
f 393 394 410 409
f 394 395 411 410
f 395 396 412 411
f 396 397 413 412
f 397 398 414 413
f 398 399 415 414
f 399 400 416 415
f 400 401 417 416
f 401 402 418 417
f 402 403 419 418
f 403 404 420 419
f 404 405 421 420
f 405 406 422 421
f 406 407 423 422
f 407 408 424 423
f 408 393 409 424
f 408 407 406 405 404 403 402 401 400 399 398 397 396 395 394 393
f 409 410 411 412 413 414 415 416 417 418 419 420 421 422 423 424
f 425 426 432 431
f 426 427 433 432
f 427 428 434 433
f 428 429 435 434
f 429 430 436 435
f 430 425 431 436
f 430 429 428 427 426 425
f 431 432 433 434 435 436
f 437 438 444 443
f 438 439 445 444
f 439 440 446 445
f 440 441 447 446
f 441 442 448 447
f 442 437 443 448
f 442 441 440 439 438 437
f 443 444 445 446 447 448
f 449 450 466 465
f 450 451 467 466
f 451 452 468 467
f 452 453 469 468
f 453 454 470 469
f 454 455 471 470
f 455 456 472 471
f 456 457 473 472
f 457 458 474 473
f 458 459 475 474
f 459 460 476 475
f 460 461 477 476
f 461 462 478 477
f 462 463 479 478
f 463 464 480 479
f 464 449 465 480
f 464 463 462 461 460 459 458 457 456 455 454 453 452 451 450 449
f 465 466 467 468 469 470 471 472 473 474 475 476 477 478 479 480
f 481 482 498 497
f 482 483 499 498
f 483 484 500 499
f 484 485 501 500
f 485 486 502 501
f 486 487 503 502
f 487 488 504 503
f 488 489 505 504
f 489 490 506 505
f 490 491 507 506
f 491 492 508 507
f 492 493 509 508
f 493 494 510 509
f 494 495 511 510
f 495 496 512 511
f 496 481 497 512
f 496 495 494 493 492 491 490 489 488 487 486 485 484 483 482 481
f 497 498 499 500 501 502 503 504 505 506 507 508 509 510 511 512
f 513 514 530 529
f 514 515 531 530
f 515 516 532 531
f 516 517 533 532
f 517 518 534 533
f 518 519 535 534
f 519 520 536 535
f 520 521 537 536
f 521 522 538 537
f 522 523 539 538
f 523 524 540 539
f 524 525 541 540
f 525 526 542 541
f 526 527 543 542
f 527 528 544 543
f 528 513 529 544
f 528 527 526 525 524 523 522 521 520 519 518 517 516 515 514 513
f 529 530 531 532 533 534 535 536 537 538 539 540 541 542 543 544
f 545 546 562 561
f 546 547 563 562
f 547 548 564 563
f 548 549 565 564
f 549 550 566 565
f 550 551 567 566
f 551 552 568 567
f 552 553 569 568
f 553 554 570 569
f 554 555 571 570
f 555 556 572 571
f 556 557 573 572
f 557 558 574 573
f 558 559 575 574
f 559 560 576 575
f 560 545 561 576
f 560 559 558 557 556 555 554 553 552 551 550 549 548 547 546 545
f 561 562 563 564 565 566 567 568 569 570 571 572 573 574 575 576
f 577 578 584 583
f 578 579 585 584
f 579 580 586 585
f 580 581 587 586
f 581 582 588 587
f 582 577 583 588
f 582 581 580 579 578 577
f 583 584 585 586 587 588
f 589 590 596 595
f 590 591 597 596
f 591 592 598 597
f 592 593 599 598
f 593 594 600 599
f 594 589 595 600
f 594 593 592 591 590 589
f 595 596 597 598 599 600
f 604 603 602 601
f 605 606 607 608
f 601 602 606 605
f 602 603 607 606
f 603 604 608 607
f 604 601 605 608
f 612 611 610 609
f 613 614 615 616
f 609 610 614 613
f 610 611 615 614
f 611 612 616 615
f 612 609 613 616
f 620 619 618 617
f 621 622 623 624
f 617 618 622 621
f 618 619 623 622
f 619 620 624 623
f 620 617 621 624
f 628 627 626 625
f 629 630 631 632
f 625 626 630 629
f 626 627 631 630
f 627 628 632 631
f 628 625 629 632
f 636 635 634 633
f 637 638 639 640
f 633 634 638 637
f 634 635 639 638
f 635 636 640 639
f 636 633 637 640
f 644 643 642 641
f 645 646 647 648
f 641 642 646 645
f 642 643 647 646
f 643 644 648 647
f 644 641 645 648
f 652 651 650 649
f 653 654 655 656
f 649 650 654 653
f 650 651 655 654
f 651 652 656 655
f 652 649 653 656
f 660 659 658 657
f 661 662 663 664
f 657 658 662 661
f 658 659 663 662
f 659 660 664 663
f 660 657 661 664
f 668 667 666 665
f 669 670 671 672
f 665 666 670 669
f 666 667 671 670
f 667 668 672 671
f 668 665 669 672
f 676 675 674 673
f 677 678 679 680
f 673 674 678 677
f 674 675 679 678
f 675 676 680 679
f 676 673 677 680
f 684 683 682 681
f 685 686 687 688
f 681 682 686 685
f 682 683 687 686
f 683 684 688 687
f 684 681 685 688
f 692 691 690 689
f 693 694 695 696
f 689 690 694 693
f 690 691 695 694
f 691 692 696 695
f 692 689 693 696
f 700 699 698 697
f 701 702 703 704
f 697 698 702 701
f 698 699 703 702
f 699 700 704 703
f 700 697 701 704
f 708 707 706 705
f 709 710 711 712
f 705 706 710 709
f 706 707 711 710
f 707 708 712 711
f 708 705 709 712
f 716 715 714 713
f 717 718 719 720
f 713 714 718 717
f 714 715 719 718
f 715 716 720 719
f 716 713 717 720
f 724 723 722 721
f 725 726 727 728
f 721 722 726 725
f 722 723 727 726
f 723 724 728 727
f 724 721 725 728
f 732 731 730 729
f 733 734 735 736
f 729 730 734 733
f 730 731 735 734
f 731 732 736 735
f 732 729 733 736
f 740 739 738 737
f 741 742 743 744
f 737 738 742 741
f 738 739 743 742
f 739 740 744 743
f 740 737 741 744
f 748 747 746 745
f 749 750 751 752
f 745 746 750 749
f 746 747 751 750
f 747 748 752 751
f 748 745 749 752
f 756 755 754 753
f 757 758 759 760
f 753 754 758 757
f 754 755 759 758
f 755 756 760 759
f 756 753 757 760
f 764 763 762 761
f 765 766 767 768
f 761 762 766 765
f 762 763 767 766
f 763 764 768 767
f 764 761 765 768
f 772 771 770 769
f 773 774 775 776
f 769 770 774 773
f 770 771 775 774
f 771 772 776 775
f 772 769 773 776
f 780 779 778 777
f 781 782 783 784
f 777 778 782 781
f 778 779 783 782
f 779 780 784 783
f 780 777 781 784
f 788 787 786 785
f 789 790 791 792
f 785 786 790 789
f 786 787 791 790
f 787 788 792 791
f 788 785 789 792
f 796 795 794 793
f 797 798 799 800
f 793 794 798 797
f 794 795 799 798
f 795 796 800 799
f 796 793 797 800
f 804 803 802 801
f 805 806 807 808
f 801 802 806 805
f 802 803 807 806
f 803 804 808 807
f 804 801 805 808
f 812 811 810 809
f 813 814 815 816
f 809 810 814 813
f 810 811 815 814
f 811 812 816 815
f 812 809 813 816
f 820 819 818 817
f 821 822 823 824
f 817 818 822 821
f 818 819 823 822
f 819 820 824 823
f 820 817 821 824
f 825 826 842 841
f 826 827 843 842
f 827 828 844 843
f 828 829 845 844
f 829 830 846 845
f 830 831 847 846
f 831 832 848 847
f 832 833 849 848
f 833 834 850 849
f 834 835 851 850
f 835 836 852 851
f 836 837 853 852
f 837 838 854 853
f 838 839 855 854
f 839 840 856 855
f 840 825 841 856
f 840 839 838 837 836 835 834 833 832 831 830 829 828 827 826 825
f 841 842 843 844 845 846 847 848 849 850 851 852 853 854 855 856
f 857 858 874 873
f 858 859 875 874
f 859 860 876 875
f 860 861 877 876
f 861 862 878 877
f 862 863 879 878
f 863 864 880 879
f 864 865 881 880
f 865 866 882 881
f 866 867 883 882
f 867 868 884 883
f 868 869 885 884
f 869 870 886 885
f 870 871 887 886
f 871 872 888 887
f 872 857 873 888
f 872 871 870 869 868 867 866 865 864 863 862 861 860 859 858 857
f 873 874 875 876 877 878 879 880 881 882 883 884 885 886 887 888
f 889 890 906 905
f 890 891 907 906
f 891 892 908 907
f 892 893 909 908
f 893 894 910 909
f 894 895 911 910
f 895 896 912 911
f 896 897 913 912
f 897 898 914 913
f 898 899 915 914
f 899 900 916 915
f 900 901 917 916
f 901 902 918 917
f 902 903 919 918
f 903 904 920 919
f 904 889 905 920
f 904 903 902 901 900 899 898 897 896 895 894 893 892 891 890 889
f 905 906 907 908 909 910 911 912 913 914 915 916 917 918 919 920
f 921 922 938 937
f 922 923 939 938
f 923 924 940 939
f 924 925 941 940
f 925 926 942 941
f 926 927 943 942
f 927 928 944 943
f 928 929 945 944
f 929 930 946 945
f 930 931 947 946
f 931 932 948 947
f 932 933 949 948
f 933 934 950 949
f 934 935 951 950
f 935 936 952 951
f 936 921 937 952
f 936 935 934 933 932 931 930 929 928 927 926 925 924 923 922 921
f 937 938 939 940 941 942 943 944 945 946 947 948 949 950 951 952
f 953 954 960 959
f 954 955 961 960
f 955 956 962 961
f 956 957 963 962
f 957 958 964 963
f 958 953 959 964
f 958 957 956 955 954 953
f 959 960 961 962 963 964
f 965 966 972 971
f 966 967 973 972
f 967 968 974 973
f 968 969 975 974
f 969 970 976 975
f 970 965 971 976
f 970 969 968 967 966 965
f 971 972 973 974 975 976
f 977 978 994 993
f 978 979 995 994
f 979 980 996 995
f 980 981 997 996
f 981 982 998 997
f 982 983 999 998
f 983 984 1000 999
f 984 985 1001 1000
f 985 986 1002 1001
f 986 987 1003 1002
f 987 988 1004 1003
f 988 989 1005 1004
f 989 990 1006 1005
f 990 991 1007 1006
f 991 992 1008 1007
f 992 977 993 1008
f 992 991 990 989 988 987 986 985 984 983 982 981 980 979 978 977
f 993 994 995 996 997 998 999 1000 1001 1002 1003 1004 1005 1006 1007 1008
f 1009 1010 1026 1025
f 1010 1011 1027 1026
f 1011 1012 1028 1027
f 1012 1013 1029 1028
f 1013 1014 1030 1029
f 1014 1015 1031 1030
f 1015 1016 1032 1031
f 1016 1017 1033 1032
f 1017 1018 1034 1033
f 1018 1019 1035 1034
f 1019 1020 1036 1035
f 1020 1021 1037 1036
f 1021 1022 1038 1037
f 1022 1023 1039 1038
f 1023 1024 1040 1039
f 1024 1009 1025 1040
f 1024 1023 1022 1021 1020 1019 1018 1017 1016 1015 1014 1013 1012 1011 1010 1009
f 1025 1026 1027 1028 1029 1030 1031 1032 1033 1034 1035 1036 1037 1038 1039 1040
f 1041 1042 1058 1057
f 1042 1043 1059 1058
f 1043 1044 1060 1059
f 1044 1045 1061 1060
f 1045 1046 1062 1061
f 1046 1047 1063 1062
f 1047 1048 1064 1063
f 1048 1049 1065 1064
f 1049 1050 1066 1065
f 1050 1051 1067 1066
f 1051 1052 1068 1067
f 1052 1053 1069 1068
f 1053 1054 1070 1069
f 1054 1055 1071 1070
f 1055 1056 1072 1071
f 1056 1041 1057 1072
f 1056 1055 1054 1053 1052 1051 1050 1049 1048 1047 1046 1045 1044 1043 1042 1041
f 1057 1058 1059 1060 1061 1062 1063 1064 1065 1066 1067 1068 1069 1070 1071 1072
f 1073 1074 1090 1089
f 1074 1075 1091 1090
f 1075 1076 1092 1091
f 1076 1077 1093 1092
f 1077 1078 1094 1093
f 1078 1079 1095 1094
f 1079 1080 1096 1095
f 1080 1081 1097 1096
f 1081 1082 1098 1097
f 1082 1083 1099 1098
f 1083 1084 1100 1099
f 1084 1085 1101 1100
f 1085 1086 1102 1101
f 1086 1087 1103 1102
f 1087 1088 1104 1103
f 1088 1073 1089 1104
f 1088 1087 1086 1085 1084 1083 1082 1081 1080 1079 1078 1077 1076 1075 1074 1073
f 1089 1090 1091 1092 1093 1094 1095 1096 1097 1098 1099 1100 1101 1102 1103 1104
f 1105 1106 1112 1111
f 1106 1107 1113 1112
f 1107 1108 1114 1113
f 1108 1109 1115 1114
f 1109 1110 1116 1115
f 1110 1105 1111 1116
f 1110 1109 1108 1107 1106 1105
f 1111 1112 1113 1114 1115 1116
f 1117 1118 1124 1123
f 1118 1119 1125 1124
f 1119 1120 1126 1125
f 1120 1121 1127 1126
f 1121 1122 1128 1127
f 1122 1117 1123 1128
f 1122 1121 1120 1119 1118 1117
f 1123 1124 1125 1126 1127 1128
f 1129 1130 1146 1145
f 1130 1131 1147 1146
f 1131 1132 1148 1147
f 1132 1133 1149 1148
f 1133 1134 1150 1149
f 1134 1135 1151 1150
f 1135 1136 1152 1151
f 1136 1137 1153 1152
f 1137 1138 1154 1153
f 1138 1139 1155 1154
f 1139 1140 1156 1155
f 1140 1141 1157 1156
f 1141 1142 1158 1157
f 1142 1143 1159 1158
f 1143 1144 1160 1159
f 1144 1129 1145 1160
f 1144 1143 1142 1141 1140 1139 1138 1137 1136 1135 1134 1133 1132 1131 1130 1129
f 1145 1146 1147 1148 1149 1150 1151 1152 1153 1154 1155 1156 1157 1158 1159 1160
f 1161 1162 1178 1177
f 1162 1163 1179 1178
f 1163 1164 1180 1179
f 1164 1165 1181 1180
f 1165 1166 1182 1181
f 1166 1167 1183 1182
f 1167 1168 1184 1183
f 1168 1169 1185 1184
f 1169 1170 1186 1185
f 1170 1171 1187 1186
f 1171 1172 1188 1187
f 1172 1173 1189 1188
f 1173 1174 1190 1189
f 1174 1175 1191 1190
f 1175 1176 1192 1191
f 1176 1161 1177 1192
f 1176 1175 1174 1173 1172 1171 1170 1169 1168 1167 1166 1165 1164 1163 1162 1161
f 1177 1178 1179 1180 1181 1182 1183 1184 1185 1186 1187 1188 1189 1190 1191 1192
f 1193 1194 1210 1209
f 1194 1195 1211 1210
f 1195 1196 1212 1211
f 1196 1197 1213 1212
f 1197 1198 1214 1213
f 1198 1199 1215 1214
f 1199 1200 1216 1215
f 1200 1201 1217 1216
f 1201 1202 1218 1217
f 1202 1203 1219 1218
f 1203 1204 1220 1219
f 1204 1205 1221 1220
f 1205 1206 1222 1221
f 1206 1207 1223 1222
f 1207 1208 1224 1223
f 1208 1193 1209 1224
f 1208 1207 1206 1205 1204 1203 1202 1201 1200 1199 1198 1197 1196 1195 1194 1193
f 1209 1210 1211 1212 1213 1214 1215 1216 1217 1218 1219 1220 1221 1222 1223 1224
f 1225 1226 1242 1241
f 1226 1227 1243 1242
f 1227 1228 1244 1243
f 1228 1229 1245 1244
f 1229 1230 1246 1245
f 1230 1231 1247 1246
f 1231 1232 1248 1247
f 1232 1233 1249 1248
f 1233 1234 1250 1249
f 1234 1235 1251 1250
f 1235 1236 1252 1251
f 1236 1237 1253 1252
f 1237 1238 1254 1253
f 1238 1239 1255 1254
f 1239 1240 1256 1255
f 1240 1225 1241 1256
f 1240 1239 1238 1237 1236 1235 1234 1233 1232 1231 1230 1229 1228 1227 1226 1225
f 1241 1242 1243 1244 1245 1246 1247 1248 1249 1250 1251 1252 1253 1254 1255 1256
f 1257 1258 1264 1263
f 1258 1259 1265 1264
f 1259 1260 1266 1265
f 1260 1261 1267 1266
f 1261 1262 1268 1267
f 1262 1257 1263 1268
f 1262 1261 1260 1259 1258 1257
f 1263 1264 1265 1266 1267 1268
f 1269 1270 1276 1275
f 1270 1271 1277 1276
f 1271 1272 1278 1277
f 1272 1273 1279 1278
f 1273 1274 1280 1279
f 1274 1269 1275 1280
f 1274 1273 1272 1271 1270 1269
f 1275 1276 1277 1278 1279 1280
f 1284 1283 1282 1281
f 1285 1286 1287 1288
f 1281 1282 1286 1285
f 1282 1283 1287 1286
f 1283 1284 1288 1287
f 1284 1281 1285 1288
f 1292 1291 1290 1289
f 1293 1294 1295 1296
f 1289 1290 1294 1293
f 1290 1291 1295 1294
f 1291 1292 1296 1295
f 1292 1289 1293 1296
f 1300 1299 1298 1297
f 1301 1302 1303 1304
f 1297 1298 1302 1301
f 1298 1299 1303 1302
f 1299 1300 1304 1303
f 1300 1297 1301 1304
f 1308 1307 1306 1305
f 1309 1310 1311 1312
f 1305 1306 1310 1309
f 1306 1307 1311 1310
f 1307 1308 1312 1311
f 1308 1305 1309 1312
f 1316 1315 1314 1313
f 1317 1318 1319 1320
f 1313 1314 1318 1317
f 1314 1315 1319 1318
f 1315 1316 1320 1319
f 1316 1313 1317 1320
f 1324 1323 1322 1321
f 1325 1326 1327 1328
f 1321 1322 1326 1325
f 1322 1323 1327 1326
f 1323 1324 1328 1327
f 1324 1321 1325 1328
f 1332 1331 1330 1329
f 1333 1334 1335 1336
f 1329 1330 1334 1333
f 1330 1331 1335 1334
f 1331 1332 1336 1335
f 1332 1329 1333 1336
f 1340 1339 1338 1337
f 1341 1342 1343 1344
f 1337 1338 1342 1341
f 1338 1339 1343 1342
f 1339 1340 1344 1343
f 1340 1337 1341 1344
f 1348 1347 1346 1345
f 1349 1350 1351 1352
f 1345 1346 1350 1349
f 1346 1347 1351 1350
f 1347 1348 1352 1351
f 1348 1345 1349 1352
f 1356 1355 1354 1353
f 1357 1358 1359 1360
f 1353 1354 1358 1357
f 1354 1355 1359 1358
f 1355 1356 1360 1359
f 1356 1353 1357 1360
