# Original Basketbroom procedural mesh; units cm, Z up
o SM_BB_StoneDetail
s 1
v -6512.81134 -3872.87657 31.50000
v -5484.81134 -3872.87657 31.50000
v -5484.81134 -3829.87657 31.50000
v -6512.81134 -3829.87657 31.50000
v -6512.81134 -3872.87657 60.50000
v -5484.81134 -3872.87657 60.50000
v -5484.81134 -3829.87657 60.50000
v -6512.81134 -3829.87657 60.50000
v -5313.04907 -3872.87657 31.50000
v -4285.04907 -3872.87657 31.50000
v -4285.04907 -3829.87657 31.50000
v -5313.04907 -3829.87657 31.50000
v -5313.04907 -3872.87657 60.50000
v -4285.04907 -3872.87657 60.50000
v -4285.04907 -3829.87657 60.50000
v -5313.04907 -3829.87657 60.50000
v -4113.28680 -3872.87657 31.50000
v -3085.28680 -3872.87657 31.50000
v -3085.28680 -3829.87657 31.50000
v -4113.28680 -3829.87657 31.50000
v -4113.28680 -3872.87657 60.50000
v -3085.28680 -3872.87657 60.50000
v -3085.28680 -3829.87657 60.50000
v -4113.28680 -3829.87657 60.50000
v -2913.52454 -3872.87657 31.50000
v -1885.52454 -3872.87657 31.50000
v -1885.52454 -3829.87657 31.50000
v -2913.52454 -3829.87657 31.50000
v -2913.52454 -3872.87657 60.50000
v -1885.52454 -3872.87657 60.50000
v -1885.52454 -3829.87657 60.50000
v -2913.52454 -3829.87657 60.50000
v -1713.76227 -3872.87657 31.50000
v -685.76227 -3872.87657 31.50000
v -685.76227 -3829.87657 31.50000
v -1713.76227 -3829.87657 31.50000
v -1713.76227 -3872.87657 60.50000
v -685.76227 -3872.87657 60.50000
v -685.76227 -3829.87657 60.50000
v -1713.76227 -3829.87657 60.50000
v -514.00000 -3872.87657 31.50000
v 514.00000 -3872.87657 31.50000
v 514.00000 -3829.87657 31.50000
v -514.00000 -3829.87657 31.50000
v -514.00000 -3872.87657 60.50000
v 514.00000 -3872.87657 60.50000
v 514.00000 -3829.87657 60.50000
v -514.00000 -3829.87657 60.50000
v 685.76227 -3872.87657 31.50000
v 1713.76227 -3872.87657 31.50000
v 1713.76227 -3829.87657 31.50000
v 685.76227 -3829.87657 31.50000
v 685.76227 -3872.87657 60.50000
v 1713.76227 -3872.87657 60.50000
v 1713.76227 -3829.87657 60.50000
v 685.76227 -3829.87657 60.50000
v 1885.52454 -3872.87657 31.50000
v 2913.52454 -3872.87657 31.50000
v 2913.52454 -3829.87657 31.50000
v 1885.52454 -3829.87657 31.50000
v 1885.52454 -3872.87657 60.50000
v 2913.52454 -3872.87657 60.50000
v 2913.52454 -3829.87657 60.50000
v 1885.52454 -3829.87657 60.50000
v 3085.28680 -3872.87657 31.50000
v 4113.28680 -3872.87657 31.50000
v 4113.28680 -3829.87657 31.50000
v 3085.28680 -3829.87657 31.50000
v 3085.28680 -3872.87657 60.50000
v 4113.28680 -3872.87657 60.50000
v 4113.28680 -3829.87657 60.50000
v 3085.28680 -3829.87657 60.50000
v 4285.04907 -3872.87657 31.50000
v 5313.04907 -3872.87657 31.50000
v 5313.04907 -3829.87657 31.50000
v 4285.04907 -3829.87657 31.50000
v 4285.04907 -3872.87657 60.50000
v 5313.04907 -3872.87657 60.50000
v 5313.04907 -3829.87657 60.50000
v 4285.04907 -3829.87657 60.50000
v 5484.81134 -3872.87657 31.50000
v 6512.81134 -3872.87657 31.50000
v 6512.81134 -3829.87657 31.50000
v 5484.81134 -3829.87657 31.50000
v 5484.81134 -3872.87657 60.50000
v 6512.81134 -3872.87657 60.50000
v 6512.81134 -3829.87657 60.50000
v 5484.81134 -3829.87657 60.50000
v -6512.81134 -4152.87657 181.50000
v -5484.81134 -4152.87657 181.50000
v -5484.81134 -4109.87657 181.50000
v -6512.81134 -4109.87657 181.50000
v -6512.81134 -4152.87657 210.50000
v -5484.81134 -4152.87657 210.50000
v -5484.81134 -4109.87657 210.50000
v -6512.81134 -4109.87657 210.50000
v -5313.04907 -4152.87657 181.50000
v -4285.04907 -4152.87657 181.50000
v -4285.04907 -4109.87657 181.50000
v -5313.04907 -4109.87657 181.50000
v -5313.04907 -4152.87657 210.50000
v -4285.04907 -4152.87657 210.50000
v -4285.04907 -4109.87657 210.50000
v -5313.04907 -4109.87657 210.50000
v -4113.28680 -4152.87657 181.50000
v -3085.28680 -4152.87657 181.50000
v -3085.28680 -4109.87657 181.50000
v -4113.28680 -4109.87657 181.50000
v -4113.28680 -4152.87657 210.50000
v -3085.28680 -4152.87657 210.50000
v -3085.28680 -4109.87657 210.50000
v -4113.28680 -4109.87657 210.50000
v -2913.52454 -4152.87657 181.50000
v -1885.52454 -4152.87657 181.50000
v -1885.52454 -4109.87657 181.50000
v -2913.52454 -4109.87657 181.50000
v -2913.52454 -4152.87657 210.50000
v -1885.52454 -4152.87657 210.50000
v -1885.52454 -4109.87657 210.50000
v -2913.52454 -4109.87657 210.50000
v -1713.76227 -4152.87657 181.50000
v -685.76227 -4152.87657 181.50000
v -685.76227 -4109.87657 181.50000
v -1713.76227 -4109.87657 181.50000
v -1713.76227 -4152.87657 210.50000
v -685.76227 -4152.87657 210.50000
v -685.76227 -4109.87657 210.50000
v -1713.76227 -4109.87657 210.50000
v -514.00000 -4152.87657 181.50000
v 514.00000 -4152.87657 181.50000
v 514.00000 -4109.87657 181.50000
v -514.00000 -4109.87657 181.50000
v -514.00000 -4152.87657 210.50000
v 514.00000 -4152.87657 210.50000
v 514.00000 -4109.87657 210.50000
v -514.00000 -4109.87657 210.50000
v 685.76227 -4152.87657 181.50000
v 1713.76227 -4152.87657 181.50000
v 1713.76227 -4109.87657 181.50000
v 685.76227 -4109.87657 181.50000
v 685.76227 -4152.87657 210.50000
v 1713.76227 -4152.87657 210.50000
v 1713.76227 -4109.87657 210.50000
v 685.76227 -4109.87657 210.50000
v 1885.52454 -4152.87657 181.50000
v 2913.52454 -4152.87657 181.50000
v 2913.52454 -4109.87657 181.50000
v 1885.52454 -4109.87657 181.50000
v 1885.52454 -4152.87657 210.50000
v 2913.52454 -4152.87657 210.50000
v 2913.52454 -4109.87657 210.50000
v 1885.52454 -4109.87657 210.50000
v 3085.28680 -4152.87657 181.50000
v 4113.28680 -4152.87657 181.50000
v 4113.28680 -4109.87657 181.50000
v 3085.28680 -4109.87657 181.50000
v 3085.28680 -4152.87657 210.50000
v 4113.28680 -4152.87657 210.50000
v 4113.28680 -4109.87657 210.50000
v 3085.28680 -4109.87657 210.50000
v 4285.04907 -4152.87657 181.50000
v 5313.04907 -4152.87657 181.50000
v 5313.04907 -4109.87657 181.50000
v 4285.04907 -4109.87657 181.50000
v 4285.04907 -4152.87657 210.50000
v 5313.04907 -4152.87657 210.50000
v 5313.04907 -4109.87657 210.50000
v 4285.04907 -4109.87657 210.50000
v 5484.81134 -4152.87657 181.50000
v 6512.81134 -4152.87657 181.50000
v 6512.81134 -4109.87657 181.50000
v 5484.81134 -4109.87657 181.50000
v 5484.81134 -4152.87657 210.50000
v 6512.81134 -4152.87657 210.50000
v 6512.81134 -4109.87657 210.50000
v 5484.81134 -4109.87657 210.50000
v -6512.81134 -4432.87657 331.50000
v -5484.81134 -4432.87657 331.50000
v -5484.81134 -4389.87657 331.50000
v -6512.81134 -4389.87657 331.50000
v -6512.81134 -4432.87657 360.50000
v -5484.81134 -4432.87657 360.50000
v -5484.81134 -4389.87657 360.50000
v -6512.81134 -4389.87657 360.50000
v -5313.04907 -4432.87657 331.50000
v -4285.04907 -4432.87657 331.50000
v -4285.04907 -4389.87657 331.50000
v -5313.04907 -4389.87657 331.50000
v -5313.04907 -4432.87657 360.50000
v -4285.04907 -4432.87657 360.50000
v -4285.04907 -4389.87657 360.50000
v -5313.04907 -4389.87657 360.50000
v -4113.28680 -4432.87657 331.50000
v -3085.28680 -4432.87657 331.50000
v -3085.28680 -4389.87657 331.50000
v -4113.28680 -4389.87657 331.50000
v -4113.28680 -4432.87657 360.50000
v -3085.28680 -4432.87657 360.50000
v -3085.28680 -4389.87657 360.50000
v -4113.28680 -4389.87657 360.50000
v -2913.52454 -4432.87657 331.50000
v -1885.52454 -4432.87657 331.50000
v -1885.52454 -4389.87657 331.50000
v -2913.52454 -4389.87657 331.50000
v -2913.52454 -4432.87657 360.50000
v -1885.52454 -4432.87657 360.50000
v -1885.52454 -4389.87657 360.50000
v -2913.52454 -4389.87657 360.50000
v -1713.76227 -4432.87657 331.50000
v -685.76227 -4432.87657 331.50000
v -685.76227 -4389.87657 331.50000
v -1713.76227 -4389.87657 331.50000
v -1713.76227 -4432.87657 360.50000
v -685.76227 -4432.87657 360.50000
v -685.76227 -4389.87657 360.50000
v -1713.76227 -4389.87657 360.50000
v -514.00000 -4432.87657 331.50000
v 514.00000 -4432.87657 331.50000
v 514.00000 -4389.87657 331.50000
v -514.00000 -4389.87657 331.50000
v -514.00000 -4432.87657 360.50000
v 514.00000 -4432.87657 360.50000
v 514.00000 -4389.87657 360.50000
v -514.00000 -4389.87657 360.50000
v 685.76227 -4432.87657 331.50000
v 1713.76227 -4432.87657 331.50000
v 1713.76227 -4389.87657 331.50000
v 685.76227 -4389.87657 331.50000
v 685.76227 -4432.87657 360.50000
v 1713.76227 -4432.87657 360.50000
v 1713.76227 -4389.87657 360.50000
v 685.76227 -4389.87657 360.50000
v 1885.52454 -4432.87657 331.50000
v 2913.52454 -4432.87657 331.50000
v 2913.52454 -4389.87657 331.50000
v 1885.52454 -4389.87657 331.50000
v 1885.52454 -4432.87657 360.50000
v 2913.52454 -4432.87657 360.50000
v 2913.52454 -4389.87657 360.50000
v 1885.52454 -4389.87657 360.50000
v 3085.28680 -4432.87657 331.50000
v 4113.28680 -4432.87657 331.50000
v 4113.28680 -4389.87657 331.50000
v 3085.28680 -4389.87657 331.50000
v 3085.28680 -4432.87657 360.50000
v 4113.28680 -4432.87657 360.50000
v 4113.28680 -4389.87657 360.50000
v 3085.28680 -4389.87657 360.50000
v 4285.04907 -4432.87657 331.50000
v 5313.04907 -4432.87657 331.50000
v 5313.04907 -4389.87657 331.50000
v 4285.04907 -4389.87657 331.50000
v 4285.04907 -4432.87657 360.50000
v 5313.04907 -4432.87657 360.50000
v 5313.04907 -4389.87657 360.50000
v 4285.04907 -4389.87657 360.50000
v 5484.81134 -4432.87657 331.50000
v 6512.81134 -4432.87657 331.50000
v 6512.81134 -4389.87657 331.50000
v 5484.81134 -4389.87657 331.50000
v 5484.81134 -4432.87657 360.50000
v 6512.81134 -4432.87657 360.50000
v 6512.81134 -4389.87657 360.50000
v 5484.81134 -4389.87657 360.50000
v -6512.81134 -4712.87657 481.50000
v -5484.81134 -4712.87657 481.50000
v -5484.81134 -4669.87657 481.50000
v -6512.81134 -4669.87657 481.50000
v -6512.81134 -4712.87657 510.50000
v -5484.81134 -4712.87657 510.50000
v -5484.81134 -4669.87657 510.50000
v -6512.81134 -4669.87657 510.50000
v -5313.04907 -4712.87657 481.50000
v -4285.04907 -4712.87657 481.50000
v -4285.04907 -4669.87657 481.50000
v -5313.04907 -4669.87657 481.50000
v -5313.04907 -4712.87657 510.50000
v -4285.04907 -4712.87657 510.50000
v -4285.04907 -4669.87657 510.50000
v -5313.04907 -4669.87657 510.50000
v -4113.28680 -4712.87657 481.50000
v -3085.28680 -4712.87657 481.50000
v -3085.28680 -4669.87657 481.50000
v -4113.28680 -4669.87657 481.50000
v -4113.28680 -4712.87657 510.50000
v -3085.28680 -4712.87657 510.50000
v -3085.28680 -4669.87657 510.50000
v -4113.28680 -4669.87657 510.50000
v -2913.52454 -4712.87657 481.50000
v -1885.52454 -4712.87657 481.50000
v -1885.52454 -4669.87657 481.50000
v -2913.52454 -4669.87657 481.50000
v -2913.52454 -4712.87657 510.50000
v -1885.52454 -4712.87657 510.50000
v -1885.52454 -4669.87657 510.50000
v -2913.52454 -4669.87657 510.50000
v -1713.76227 -4712.87657 481.50000
v -685.76227 -4712.87657 481.50000
v -685.76227 -4669.87657 481.50000
v -1713.76227 -4669.87657 481.50000
v -1713.76227 -4712.87657 510.50000
v -685.76227 -4712.87657 510.50000
v -685.76227 -4669.87657 510.50000
v -1713.76227 -4669.87657 510.50000
v -514.00000 -4712.87657 481.50000
v 514.00000 -4712.87657 481.50000
v 514.00000 -4669.87657 481.50000
v -514.00000 -4669.87657 481.50000
v -514.00000 -4712.87657 510.50000
v 514.00000 -4712.87657 510.50000
v 514.00000 -4669.87657 510.50000
v -514.00000 -4669.87657 510.50000
v 685.76227 -4712.87657 481.50000
v 1713.76227 -4712.87657 481.50000
v 1713.76227 -4669.87657 481.50000
v 685.76227 -4669.87657 481.50000
v 685.76227 -4712.87657 510.50000
v 1713.76227 -4712.87657 510.50000
v 1713.76227 -4669.87657 510.50000
v 685.76227 -4669.87657 510.50000
v 1885.52454 -4712.87657 481.50000
v 2913.52454 -4712.87657 481.50000
v 2913.52454 -4669.87657 481.50000
v 1885.52454 -4669.87657 481.50000
v 1885.52454 -4712.87657 510.50000
v 2913.52454 -4712.87657 510.50000
v 2913.52454 -4669.87657 510.50000
v 1885.52454 -4669.87657 510.50000
v 3085.28680 -4712.87657 481.50000
v 4113.28680 -4712.87657 481.50000
v 4113.28680 -4669.87657 481.50000
v 3085.28680 -4669.87657 481.50000
v 3085.28680 -4712.87657 510.50000
v 4113.28680 -4712.87657 510.50000
v 4113.28680 -4669.87657 510.50000
v 3085.28680 -4669.87657 510.50000
v 4285.04907 -4712.87657 481.50000
v 5313.04907 -4712.87657 481.50000
v 5313.04907 -4669.87657 481.50000
v 4285.04907 -4669.87657 481.50000
v 4285.04907 -4712.87657 510.50000
v 5313.04907 -4712.87657 510.50000
v 5313.04907 -4669.87657 510.50000
v 4285.04907 -4669.87657 510.50000
v 5484.81134 -4712.87657 481.50000
v 6512.81134 -4712.87657 481.50000
v 6512.81134 -4669.87657 481.50000
v 5484.81134 -4669.87657 481.50000
v 5484.81134 -4712.87657 510.50000
v 6512.81134 -4712.87657 510.50000
v 6512.81134 -4669.87657 510.50000
v 5484.81134 -4669.87657 510.50000
v -6512.81134 -4992.87657 631.50000
v -5484.81134 -4992.87657 631.50000
v -5484.81134 -4949.87657 631.50000
v -6512.81134 -4949.87657 631.50000
v -6512.81134 -4992.87657 660.50000
v -5484.81134 -4992.87657 660.50000
v -5484.81134 -4949.87657 660.50000
v -6512.81134 -4949.87657 660.50000
v -5313.04907 -4992.87657 631.50000
v -4285.04907 -4992.87657 631.50000
v -4285.04907 -4949.87657 631.50000
v -5313.04907 -4949.87657 631.50000
v -5313.04907 -4992.87657 660.50000
v -4285.04907 -4992.87657 660.50000
v -4285.04907 -4949.87657 660.50000
v -5313.04907 -4949.87657 660.50000
v -4113.28680 -4992.87657 631.50000
v -3085.28680 -4992.87657 631.50000
v -3085.28680 -4949.87657 631.50000
v -4113.28680 -4949.87657 631.50000
v -4113.28680 -4992.87657 660.50000
v -3085.28680 -4992.87657 660.50000
v -3085.28680 -4949.87657 660.50000
v -4113.28680 -4949.87657 660.50000
v -2913.52454 -4992.87657 631.50000
v -1885.52454 -4992.87657 631.50000
v -1885.52454 -4949.87657 631.50000
v -2913.52454 -4949.87657 631.50000
v -2913.52454 -4992.87657 660.50000
v -1885.52454 -4992.87657 660.50000
v -1885.52454 -4949.87657 660.50000
v -2913.52454 -4949.87657 660.50000
v -1713.76227 -4992.87657 631.50000
v -685.76227 -4992.87657 631.50000
v -685.76227 -4949.87657 631.50000
v -1713.76227 -4949.87657 631.50000
v -1713.76227 -4992.87657 660.50000
v -685.76227 -4992.87657 660.50000
v -685.76227 -4949.87657 660.50000
v -1713.76227 -4949.87657 660.50000
v -514.00000 -4992.87657 631.50000
v 514.00000 -4992.87657 631.50000
v 514.00000 -4949.87657 631.50000
v -514.00000 -4949.87657 631.50000
v -514.00000 -4992.87657 660.50000
v 514.00000 -4992.87657 660.50000
v 514.00000 -4949.87657 660.50000
v -514.00000 -4949.87657 660.50000
v 685.76227 -4992.87657 631.50000
v 1713.76227 -4992.87657 631.50000
v 1713.76227 -4949.87657 631.50000
v 685.76227 -4949.87657 631.50000
v 685.76227 -4992.87657 660.50000
v 1713.76227 -4992.87657 660.50000
v 1713.76227 -4949.87657 660.50000
v 685.76227 -4949.87657 660.50000
v 1885.52454 -4992.87657 631.50000
v 2913.52454 -4992.87657 631.50000
v 2913.52454 -4949.87657 631.50000
v 1885.52454 -4949.87657 631.50000
v 1885.52454 -4992.87657 660.50000
v 2913.52454 -4992.87657 660.50000
v 2913.52454 -4949.87657 660.50000
v 1885.52454 -4949.87657 660.50000
v 3085.28680 -4992.87657 631.50000
v 4113.28680 -4992.87657 631.50000
v 4113.28680 -4949.87657 631.50000
v 3085.28680 -4949.87657 631.50000
v 3085.28680 -4992.87657 660.50000
v 4113.28680 -4992.87657 660.50000
v 4113.28680 -4949.87657 660.50000
v 3085.28680 -4949.87657 660.50000
v 4285.04907 -4992.87657 631.50000
v 5313.04907 -4992.87657 631.50000
v 5313.04907 -4949.87657 631.50000
v 4285.04907 -4949.87657 631.50000
v 4285.04907 -4992.87657 660.50000
v 5313.04907 -4992.87657 660.50000
v 5313.04907 -4949.87657 660.50000
v 4285.04907 -4949.87657 660.50000
v 5484.81134 -4992.87657 631.50000
v 6512.81134 -4992.87657 631.50000
v 6512.81134 -4949.87657 631.50000
v 5484.81134 -4949.87657 631.50000
v 5484.81134 -4992.87657 660.50000
v 6512.81134 -4992.87657 660.50000
v 6512.81134 -4949.87657 660.50000
v 5484.81134 -4949.87657 660.50000
v -6877.55908 -5624.87657 -143.00000
v -6523.55908 -5624.87657 -143.00000
v -6523.55908 -5379.87657 -143.00000
v -6877.55908 -5379.87657 -143.00000
v -6877.55908 -5624.87657 287.00000
v -6523.55908 -5624.87657 287.00000
v -6523.55908 -5379.87657 287.00000
v -6877.55908 -5379.87657 287.00000
v -6877.55908 -5624.87657 305.00000
v -6523.55908 -5624.87657 305.00000
v -6523.55908 -5379.87657 305.00000
v -6877.55908 -5379.87657 305.00000
v -6877.55908 -5624.87657 735.00000
v -6523.55908 -5624.87657 735.00000
v -6523.55908 -5379.87657 735.00000
v -6877.55908 -5379.87657 735.00000
v -6458.77414 -5624.87657 -143.00000
v -6104.77414 -5624.87657 -143.00000
v -6104.77414 -5379.87657 -143.00000
v -6458.77414 -5379.87657 -143.00000
v -6458.77414 -5624.87657 287.00000
v -6104.77414 -5624.87657 287.00000
v -6104.77414 -5379.87657 287.00000
v -6458.77414 -5379.87657 287.00000
v -6458.77414 -5624.87657 305.00000
v -6104.77414 -5624.87657 305.00000
v -6104.77414 -5379.87657 305.00000
v -6458.77414 -5379.87657 305.00000
v -6458.77414 -5624.87657 735.00000
v -6104.77414 -5624.87657 735.00000
v -6104.77414 -5379.87657 735.00000
v -6458.77414 -5379.87657 735.00000
v -6039.98920 -5624.87657 -143.00000
v -5685.98920 -5624.87657 -143.00000
v -5685.98920 -5379.87657 -143.00000
v -6039.98920 -5379.87657 -143.00000
v -6039.98920 -5624.87657 287.00000
v -5685.98920 -5624.87657 287.00000
v -5685.98920 -5379.87657 287.00000
v -6039.98920 -5379.87657 287.00000
v -6039.98920 -5624.87657 305.00000
v -5685.98920 -5624.87657 305.00000
v -5685.98920 -5379.87657 305.00000
v -6039.98920 -5379.87657 305.00000
v -6039.98920 -5624.87657 735.00000
v -5685.98920 -5624.87657 735.00000
v -5685.98920 -5379.87657 735.00000
v -6039.98920 -5379.87657 735.00000
v -5621.20425 -5624.87657 -143.00000
v -5267.20425 -5624.87657 -143.00000
v -5267.20425 -5379.87657 -143.00000
v -5621.20425 -5379.87657 -143.00000
v -5621.20425 -5624.87657 287.00000
v -5267.20425 -5624.87657 287.00000
v -5267.20425 -5379.87657 287.00000
v -5621.20425 -5379.87657 287.00000
v -5621.20425 -5624.87657 305.00000
v -5267.20425 -5624.87657 305.00000
v -5267.20425 -5379.87657 305.00000
v -5621.20425 -5379.87657 305.00000
v -5621.20425 -5624.87657 735.00000
v -5267.20425 -5624.87657 735.00000
v -5267.20425 -5379.87657 735.00000
v -5621.20425 -5379.87657 735.00000
v -5202.41931 -5624.87657 -143.00000
v -4848.41931 -5624.87657 -143.00000
v -4848.41931 -5379.87657 -143.00000
v -5202.41931 -5379.87657 -143.00000
v -5202.41931 -5624.87657 287.00000
v -4848.41931 -5624.87657 287.00000
v -4848.41931 -5379.87657 287.00000
v -5202.41931 -5379.87657 287.00000
v -5202.41931 -5624.87657 305.00000
v -4848.41931 -5624.87657 305.00000
v -4848.41931 -5379.87657 305.00000
v -5202.41931 -5379.87657 305.00000
v -5202.41931 -5624.87657 735.00000
v -4848.41931 -5624.87657 735.00000
v -4848.41931 -5379.87657 735.00000
v -5202.41931 -5379.87657 735.00000
v -4783.63437 -5624.87657 -143.00000
v -4429.63437 -5624.87657 -143.00000
v -4429.63437 -5379.87657 -143.00000
v -4783.63437 -5379.87657 -143.00000
v -4783.63437 -5624.87657 287.00000
v -4429.63437 -5624.87657 287.00000
v -4429.63437 -5379.87657 287.00000
v -4783.63437 -5379.87657 287.00000
v -4783.63437 -5624.87657 305.00000
v -4429.63437 -5624.87657 305.00000
v -4429.63437 -5379.87657 305.00000
v -4783.63437 -5379.87657 305.00000
v -4783.63437 -5624.87657 735.00000
v -4429.63437 -5624.87657 735.00000
v -4429.63437 -5379.87657 735.00000
v -4783.63437 -5379.87657 735.00000
v -4364.84943 -5624.87657 -143.00000
v -4010.84943 -5624.87657 -143.00000
v -4010.84943 -5379.87657 -143.00000
v -4364.84943 -5379.87657 -143.00000
v -4364.84943 -5624.87657 287.00000
v -4010.84943 -5624.87657 287.00000
v -4010.84943 -5379.87657 287.00000
v -4364.84943 -5379.87657 287.00000
v -4364.84943 -5624.87657 305.00000
v -4010.84943 -5624.87657 305.00000
v -4010.84943 -5379.87657 305.00000
v -4364.84943 -5379.87657 305.00000
v -4364.84943 -5624.87657 735.00000
v -4010.84943 -5624.87657 735.00000
v -4010.84943 -5379.87657 735.00000
v -4364.84943 -5379.87657 735.00000
v -3946.06448 -5624.87657 -143.00000
v -3592.06448 -5624.87657 -143.00000
v -3592.06448 -5379.87657 -143.00000
v -3946.06448 -5379.87657 -143.00000
v -3946.06448 -5624.87657 287.00000
v -3592.06448 -5624.87657 287.00000
v -3592.06448 -5379.87657 287.00000
v -3946.06448 -5379.87657 287.00000
v -3946.06448 -5624.87657 305.00000
v -3592.06448 -5624.87657 305.00000
v -3592.06448 -5379.87657 305.00000
v -3946.06448 -5379.87657 305.00000
v -3946.06448 -5624.87657 735.00000
v -3592.06448 -5624.87657 735.00000
v -3592.06448 -5379.87657 735.00000
v -3946.06448 -5379.87657 735.00000
v -3527.27954 -5624.87657 -143.00000
v -3173.27954 -5624.87657 -143.00000
v -3173.27954 -5379.87657 -143.00000
v -3527.27954 -5379.87657 -143.00000
v -3527.27954 -5624.87657 287.00000
v -3173.27954 -5624.87657 287.00000
v -3173.27954 -5379.87657 287.00000
v -3527.27954 -5379.87657 287.00000
v -3527.27954 -5624.87657 305.00000
v -3173.27954 -5624.87657 305.00000
v -3173.27954 -5379.87657 305.00000
v -3527.27954 -5379.87657 305.00000
v -3527.27954 -5624.87657 735.00000
v -3173.27954 -5624.87657 735.00000
v -3173.27954 -5379.87657 735.00000
v -3527.27954 -5379.87657 735.00000
v -3108.49460 -5624.87657 -143.00000
v -2754.49460 -5624.87657 -143.00000
v -2754.49460 -5379.87657 -143.00000
v -3108.49460 -5379.87657 -143.00000
v -3108.49460 -5624.87657 287.00000
v -2754.49460 -5624.87657 287.00000
v -2754.49460 -5379.87657 287.00000
v -3108.49460 -5379.87657 287.00000
v -3108.49460 -5624.87657 305.00000
v -2754.49460 -5624.87657 305.00000
v -2754.49460 -5379.87657 305.00000
v -3108.49460 -5379.87657 305.00000
v -3108.49460 -5624.87657 735.00000
v -2754.49460 -5624.87657 735.00000
v -2754.49460 -5379.87657 735.00000
v -3108.49460 -5379.87657 735.00000
v -2689.70966 -5624.87657 -143.00000
v -2335.70966 -5624.87657 -143.00000
v -2335.70966 -5379.87657 -143.00000
v -2689.70966 -5379.87657 -143.00000
v -2689.70966 -5624.87657 287.00000
v -2335.70966 -5624.87657 287.00000
v -2335.70966 -5379.87657 287.00000
v -2689.70966 -5379.87657 287.00000
v -2689.70966 -5624.87657 305.00000
v -2335.70966 -5624.87657 305.00000
v -2335.70966 -5379.87657 305.00000
v -2689.70966 -5379.87657 305.00000
v -2689.70966 -5624.87657 735.00000
v -2335.70966 -5624.87657 735.00000
v -2335.70966 -5379.87657 735.00000
v -2689.70966 -5379.87657 735.00000
v -2270.92471 -5624.87657 -143.00000
v -1916.92471 -5624.87657 -143.00000
v -1916.92471 -5379.87657 -143.00000
v -2270.92471 -5379.87657 -143.00000
v -2270.92471 -5624.87657 287.00000
v -1916.92471 -5624.87657 287.00000
v -1916.92471 -5379.87657 287.00000
v -2270.92471 -5379.87657 287.00000
v -2270.92471 -5624.87657 305.00000
v -1916.92471 -5624.87657 305.00000
v -1916.92471 -5379.87657 305.00000
v -2270.92471 -5379.87657 305.00000
v -2270.92471 -5624.87657 735.00000
v -1916.92471 -5624.87657 735.00000
v -1916.92471 -5379.87657 735.00000
v -2270.92471 -5379.87657 735.00000
v -1852.13977 -5624.87657 -143.00000
v -1498.13977 -5624.87657 -143.00000
v -1498.13977 -5379.87657 -143.00000
v -1852.13977 -5379.87657 -143.00000
v -1852.13977 -5624.87657 287.00000
v -1498.13977 -5624.87657 287.00000
v -1498.13977 -5379.87657 287.00000
v -1852.13977 -5379.87657 287.00000
v -1852.13977 -5624.87657 305.00000
v -1498.13977 -5624.87657 305.00000
v -1498.13977 -5379.87657 305.00000
v -1852.13977 -5379.87657 305.00000
v -1852.13977 -5624.87657 735.00000
v -1498.13977 -5624.87657 735.00000
v -1498.13977 -5379.87657 735.00000
v -1852.13977 -5379.87657 735.00000
v -1433.35483 -5624.87657 -143.00000
v -1079.35483 -5624.87657 -143.00000
v -1079.35483 -5379.87657 -143.00000
v -1433.35483 -5379.87657 -143.00000
v -1433.35483 -5624.87657 287.00000
v -1079.35483 -5624.87657 287.00000
v -1079.35483 -5379.87657 287.00000
v -1433.35483 -5379.87657 287.00000
v -1433.35483 -5624.87657 305.00000
v -1079.35483 -5624.87657 305.00000
v -1079.35483 -5379.87657 305.00000
v -1433.35483 -5379.87657 305.00000
v -1433.35483 -5624.87657 735.00000
v -1079.35483 -5624.87657 735.00000
v -1079.35483 -5379.87657 735.00000
v -1433.35483 -5379.87657 735.00000
v -1014.56989 -5624.87657 -143.00000
v -660.56989 -5624.87657 -143.00000
v -660.56989 -5379.87657 -143.00000
v -1014.56989 -5379.87657 -143.00000
v -1014.56989 -5624.87657 287.00000
v -660.56989 -5624.87657 287.00000
v -660.56989 -5379.87657 287.00000
v -1014.56989 -5379.87657 287.00000
v -1014.56989 -5624.87657 305.00000
v -660.56989 -5624.87657 305.00000
v -660.56989 -5379.87657 305.00000
v -1014.56989 -5379.87657 305.00000
v -1014.56989 -5624.87657 735.00000
v -660.56989 -5624.87657 735.00000
v -660.56989 -5379.87657 735.00000
v -1014.56989 -5379.87657 735.00000
v -595.78494 -5624.87657 -143.00000
v -241.78494 -5624.87657 -143.00000
v -241.78494 -5379.87657 -143.00000
v -595.78494 -5379.87657 -143.00000
v -595.78494 -5624.87657 287.00000
v -241.78494 -5624.87657 287.00000
v -241.78494 -5379.87657 287.00000
v -595.78494 -5379.87657 287.00000
v -595.78494 -5624.87657 305.00000
v -241.78494 -5624.87657 305.00000
v -241.78494 -5379.87657 305.00000
v -595.78494 -5379.87657 305.00000
v -595.78494 -5624.87657 735.00000
v -241.78494 -5624.87657 735.00000
v -241.78494 -5379.87657 735.00000
v -595.78494 -5379.87657 735.00000
v -177.00000 -5624.87657 -143.00000
v 177.00000 -5624.87657 -143.00000
v 177.00000 -5379.87657 -143.00000
v -177.00000 -5379.87657 -143.00000
v -177.00000 -5624.87657 287.00000
v 177.00000 -5624.87657 287.00000
v 177.00000 -5379.87657 287.00000
v -177.00000 -5379.87657 287.00000
v -177.00000 -5624.87657 305.00000
v 177.00000 -5624.87657 305.00000
v 177.00000 -5379.87657 305.00000
v -177.00000 -5379.87657 305.00000
v -177.00000 -5624.87657 735.00000
v 177.00000 -5624.87657 735.00000
v 177.00000 -5379.87657 735.00000
v -177.00000 -5379.87657 735.00000
v 241.78494 -5624.87657 -143.00000
v 595.78494 -5624.87657 -143.00000
v 595.78494 -5379.87657 -143.00000
v 241.78494 -5379.87657 -143.00000
v 241.78494 -5624.87657 287.00000
v 595.78494 -5624.87657 287.00000
v 595.78494 -5379.87657 287.00000
v 241.78494 -5379.87657 287.00000
v 241.78494 -5624.87657 305.00000
v 595.78494 -5624.87657 305.00000
v 595.78494 -5379.87657 305.00000
v 241.78494 -5379.87657 305.00000
v 241.78494 -5624.87657 735.00000
v 595.78494 -5624.87657 735.00000
v 595.78494 -5379.87657 735.00000
v 241.78494 -5379.87657 735.00000
v 660.56989 -5624.87657 -143.00000
v 1014.56989 -5624.87657 -143.00000
v 1014.56989 -5379.87657 -143.00000
v 660.56989 -5379.87657 -143.00000
v 660.56989 -5624.87657 287.00000
v 1014.56989 -5624.87657 287.00000
v 1014.56989 -5379.87657 287.00000
v 660.56989 -5379.87657 287.00000
v 660.56989 -5624.87657 305.00000
v 1014.56989 -5624.87657 305.00000
v 1014.56989 -5379.87657 305.00000
v 660.56989 -5379.87657 305.00000
v 660.56989 -5624.87657 735.00000
v 1014.56989 -5624.87657 735.00000
v 1014.56989 -5379.87657 735.00000
v 660.56989 -5379.87657 735.00000
v 1079.35483 -5624.87657 -143.00000
v 1433.35483 -5624.87657 -143.00000
v 1433.35483 -5379.87657 -143.00000
v 1079.35483 -5379.87657 -143.00000
v 1079.35483 -5624.87657 287.00000
v 1433.35483 -5624.87657 287.00000
v 1433.35483 -5379.87657 287.00000
v 1079.35483 -5379.87657 287.00000
v 1079.35483 -5624.87657 305.00000
v 1433.35483 -5624.87657 305.00000
v 1433.35483 -5379.87657 305.00000
v 1079.35483 -5379.87657 305.00000
v 1079.35483 -5624.87657 735.00000
v 1433.35483 -5624.87657 735.00000
v 1433.35483 -5379.87657 735.00000
v 1079.35483 -5379.87657 735.00000
v 1498.13977 -5624.87657 -143.00000
v 1852.13977 -5624.87657 -143.00000
v 1852.13977 -5379.87657 -143.00000
v 1498.13977 -5379.87657 -143.00000
v 1498.13977 -5624.87657 287.00000
v 1852.13977 -5624.87657 287.00000
v 1852.13977 -5379.87657 287.00000
v 1498.13977 -5379.87657 287.00000
v 1498.13977 -5624.87657 305.00000
v 1852.13977 -5624.87657 305.00000
v 1852.13977 -5379.87657 305.00000
v 1498.13977 -5379.87657 305.00000
v 1498.13977 -5624.87657 735.00000
v 1852.13977 -5624.87657 735.00000
v 1852.13977 -5379.87657 735.00000
v 1498.13977 -5379.87657 735.00000
v 1916.92471 -5624.87657 -143.00000
v 2270.92471 -5624.87657 -143.00000
v 2270.92471 -5379.87657 -143.00000
v 1916.92471 -5379.87657 -143.00000
v 1916.92471 -5624.87657 287.00000
v 2270.92471 -5624.87657 287.00000
v 2270.92471 -5379.87657 287.00000
v 1916.92471 -5379.87657 287.00000
v 1916.92471 -5624.87657 305.00000
v 2270.92471 -5624.87657 305.00000
v 2270.92471 -5379.87657 305.00000
v 1916.92471 -5379.87657 305.00000
v 1916.92471 -5624.87657 735.00000
v 2270.92471 -5624.87657 735.00000
v 2270.92471 -5379.87657 735.00000
v 1916.92471 -5379.87657 735.00000
v 2335.70966 -5624.87657 -143.00000
v 2689.70966 -5624.87657 -143.00000
v 2689.70966 -5379.87657 -143.00000
v 2335.70966 -5379.87657 -143.00000
v 2335.70966 -5624.87657 287.00000
v 2689.70966 -5624.87657 287.00000
v 2689.70966 -5379.87657 287.00000
v 2335.70966 -5379.87657 287.00000
v 2335.70966 -5624.87657 305.00000
v 2689.70966 -5624.87657 305.00000
v 2689.70966 -5379.87657 305.00000
v 2335.70966 -5379.87657 305.00000
v 2335.70966 -5624.87657 735.00000
v 2689.70966 -5624.87657 735.00000
v 2689.70966 -5379.87657 735.00000
v 2335.70966 -5379.87657 735.00000
v 2754.49460 -5624.87657 -143.00000
v 3108.49460 -5624.87657 -143.00000
v 3108.49460 -5379.87657 -143.00000
v 2754.49460 -5379.87657 -143.00000
v 2754.49460 -5624.87657 287.00000
v 3108.49460 -5624.87657 287.00000
v 3108.49460 -5379.87657 287.00000
v 2754.49460 -5379.87657 287.00000
v 2754.49460 -5624.87657 305.00000
v 3108.49460 -5624.87657 305.00000
v 3108.49460 -5379.87657 305.00000
v 2754.49460 -5379.87657 305.00000
v 2754.49460 -5624.87657 735.00000
v 3108.49460 -5624.87657 735.00000
v 3108.49460 -5379.87657 735.00000
v 2754.49460 -5379.87657 735.00000
v 3173.27954 -5624.87657 -143.00000
v 3527.27954 -5624.87657 -143.00000
v 3527.27954 -5379.87657 -143.00000
v 3173.27954 -5379.87657 -143.00000
v 3173.27954 -5624.87657 287.00000
v 3527.27954 -5624.87657 287.00000
v 3527.27954 -5379.87657 287.00000
v 3173.27954 -5379.87657 287.00000
v 3173.27954 -5624.87657 305.00000
v 3527.27954 -5624.87657 305.00000
v 3527.27954 -5379.87657 305.00000
v 3173.27954 -5379.87657 305.00000
v 3173.27954 -5624.87657 735.00000
v 3527.27954 -5624.87657 735.00000
v 3527.27954 -5379.87657 735.00000
v 3173.27954 -5379.87657 735.00000
v 3592.06448 -5624.87657 -143.00000
v 3946.06448 -5624.87657 -143.00000
v 3946.06448 -5379.87657 -143.00000
v 3592.06448 -5379.87657 -143.00000
v 3592.06448 -5624.87657 287.00000
v 3946.06448 -5624.87657 287.00000
v 3946.06448 -5379.87657 287.00000
v 3592.06448 -5379.87657 287.00000
v 3592.06448 -5624.87657 305.00000
v 3946.06448 -5624.87657 305.00000
v 3946.06448 -5379.87657 305.00000
v 3592.06448 -5379.87657 305.00000
v 3592.06448 -5624.87657 735.00000
v 3946.06448 -5624.87657 735.00000
v 3946.06448 -5379.87657 735.00000
v 3592.06448 -5379.87657 735.00000
v 4010.84943 -5624.87657 -143.00000
v 4364.84943 -5624.87657 -143.00000
v 4364.84943 -5379.87657 -143.00000
v 4010.84943 -5379.87657 -143.00000
v 4010.84943 -5624.87657 287.00000
v 4364.84943 -5624.87657 287.00000
v 4364.84943 -5379.87657 287.00000
v 4010.84943 -5379.87657 287.00000
v 4010.84943 -5624.87657 305.00000
v 4364.84943 -5624.87657 305.00000
v 4364.84943 -5379.87657 305.00000
v 4010.84943 -5379.87657 305.00000
v 4010.84943 -5624.87657 735.00000
v 4364.84943 -5624.87657 735.00000
v 4364.84943 -5379.87657 735.00000
v 4010.84943 -5379.87657 735.00000
v 4429.63437 -5624.87657 -143.00000
v 4783.63437 -5624.87657 -143.00000
v 4783.63437 -5379.87657 -143.00000
v 4429.63437 -5379.87657 -143.00000
v 4429.63437 -5624.87657 287.00000
v 4783.63437 -5624.87657 287.00000
v 4783.63437 -5379.87657 287.00000
v 4429.63437 -5379.87657 287.00000
v 4429.63437 -5624.87657 305.00000
v 4783.63437 -5624.87657 305.00000
v 4783.63437 -5379.87657 305.00000
v 4429.63437 -5379.87657 305.00000
v 4429.63437 -5624.87657 735.00000
v 4783.63437 -5624.87657 735.00000
v 4783.63437 -5379.87657 735.00000
v 4429.63437 -5379.87657 735.00000
v 4848.41931 -5624.87657 -143.00000
v 5202.41931 -5624.87657 -143.00000
v 5202.41931 -5379.87657 -143.00000
v 4848.41931 -5379.87657 -143.00000
v 4848.41931 -5624.87657 287.00000
v 5202.41931 -5624.87657 287.00000
v 5202.41931 -5379.87657 287.00000
v 4848.41931 -5379.87657 287.00000
v 4848.41931 -5624.87657 305.00000
v 5202.41931 -5624.87657 305.00000
v 5202.41931 -5379.87657 305.00000
v 4848.41931 -5379.87657 305.00000
v 4848.41931 -5624.87657 735.00000
v 5202.41931 -5624.87657 735.00000
v 5202.41931 -5379.87657 735.00000
v 4848.41931 -5379.87657 735.00000
v 5267.20425 -5624.87657 -143.00000
v 5621.20425 -5624.87657 -143.00000
v 5621.20425 -5379.87657 -143.00000
v 5267.20425 -5379.87657 -143.00000
v 5267.20425 -5624.87657 287.00000
v 5621.20425 -5624.87657 287.00000
v 5621.20425 -5379.87657 287.00000
v 5267.20425 -5379.87657 287.00000
v 5267.20425 -5624.87657 305.00000
v 5621.20425 -5624.87657 305.00000
v 5621.20425 -5379.87657 305.00000
v 5267.20425 -5379.87657 305.00000
v 5267.20425 -5624.87657 735.00000
v 5621.20425 -5624.87657 735.00000
v 5621.20425 -5379.87657 735.00000
v 5267.20425 -5379.87657 735.00000
v 5685.98920 -5624.87657 -143.00000
v 6039.98920 -5624.87657 -143.00000
v 6039.98920 -5379.87657 -143.00000
v 5685.98920 -5379.87657 -143.00000
v 5685.98920 -5624.87657 287.00000
v 6039.98920 -5624.87657 287.00000
v 6039.98920 -5379.87657 287.00000
v 5685.98920 -5379.87657 287.00000
v 5685.98920 -5624.87657 305.00000
v 6039.98920 -5624.87657 305.00000
v 6039.98920 -5379.87657 305.00000
v 5685.98920 -5379.87657 305.00000
v 5685.98920 -5624.87657 735.00000
v 6039.98920 -5624.87657 735.00000
v 6039.98920 -5379.87657 735.00000
v 5685.98920 -5379.87657 735.00000
v 6104.77414 -5624.87657 -143.00000
v 6458.77414 -5624.87657 -143.00000
v 6458.77414 -5379.87657 -143.00000
v 6104.77414 -5379.87657 -143.00000
v 6104.77414 -5624.87657 287.00000
v 6458.77414 -5624.87657 287.00000
v 6458.77414 -5379.87657 287.00000
v 6104.77414 -5379.87657 287.00000
v 6104.77414 -5624.87657 305.00000
v 6458.77414 -5624.87657 305.00000
v 6458.77414 -5379.87657 305.00000
v 6104.77414 -5379.87657 305.00000
v 6104.77414 -5624.87657 735.00000
v 6458.77414 -5624.87657 735.00000
v 6458.77414 -5379.87657 735.00000
v 6104.77414 -5379.87657 735.00000
v 6523.55908 -5624.87657 -143.00000
v 6877.55908 -5624.87657 -143.00000
v 6877.55908 -5379.87657 -143.00000
v 6523.55908 -5379.87657 -143.00000
v 6523.55908 -5624.87657 287.00000
v 6877.55908 -5624.87657 287.00000
v 6877.55908 -5379.87657 287.00000
v 6523.55908 -5379.87657 287.00000
v 6523.55908 -5624.87657 305.00000
v 6877.55908 -5624.87657 305.00000
v 6877.55908 -5379.87657 305.00000
v 6523.55908 -5379.87657 305.00000
v 6523.55908 -5624.87657 735.00000
v 6877.55908 -5624.87657 735.00000
v 6877.55908 -5379.87657 735.00000
v 6523.55908 -5379.87657 735.00000
v -8671.58617 -2597.50000 1177.50000
v -8076.58617 -2597.50000 1177.50000
v -8076.58617 -2002.50000 1177.50000
v -8671.58617 -2002.50000 1177.50000
v -8671.58617 -2597.50000 1282.50000
v -8076.58617 -2597.50000 1282.50000
v -8076.58617 -2002.50000 1282.50000
v -8671.58617 -2002.50000 1282.50000
v -8671.58617 2002.50000 1177.50000
v -8076.58617 2002.50000 1177.50000
v -8076.58617 2597.50000 1177.50000
v -8671.58617 2597.50000 1177.50000
v -8671.58617 2002.50000 1282.50000
v -8076.58617 2002.50000 1282.50000
v -8076.58617 2597.50000 1282.50000
v -8671.58617 2597.50000 1282.50000
v -6512.81134 3829.87657 31.50000
v -5484.81134 3829.87657 31.50000
v -5484.81134 3872.87657 31.50000
v -6512.81134 3872.87657 31.50000
v -6512.81134 3829.87657 60.50000
v -5484.81134 3829.87657 60.50000
v -5484.81134 3872.87657 60.50000
v -6512.81134 3872.87657 60.50000
v -5313.04907 3829.87657 31.50000
v -4285.04907 3829.87657 31.50000
v -4285.04907 3872.87657 31.50000
v -5313.04907 3872.87657 31.50000
v -5313.04907 3829.87657 60.50000
v -4285.04907 3829.87657 60.50000
v -4285.04907 3872.87657 60.50000
v -5313.04907 3872.87657 60.50000
v -4113.28680 3829.87657 31.50000
v -3085.28680 3829.87657 31.50000
v -3085.28680 3872.87657 31.50000
v -4113.28680 3872.87657 31.50000
v -4113.28680 3829.87657 60.50000
v -3085.28680 3829.87657 60.50000
v -3085.28680 3872.87657 60.50000
v -4113.28680 3872.87657 60.50000
v -2913.52454 3829.87657 31.50000
v -1885.52454 3829.87657 31.50000
v -1885.52454 3872.87657 31.50000
v -2913.52454 3872.87657 31.50000
v -2913.52454 3829.87657 60.50000
v -1885.52454 3829.87657 60.50000
v -1885.52454 3872.87657 60.50000
v -2913.52454 3872.87657 60.50000
v -1713.76227 3829.87657 31.50000
v -685.76227 3829.87657 31.50000
v -685.76227 3872.87657 31.50000
v -1713.76227 3872.87657 31.50000
v -1713.76227 3829.87657 60.50000
v -685.76227 3829.87657 60.50000
v -685.76227 3872.87657 60.50000
v -1713.76227 3872.87657 60.50000
v -514.00000 3829.87657 31.50000
v 514.00000 3829.87657 31.50000
v 514.00000 3872.87657 31.50000
v -514.00000 3872.87657 31.50000
v -514.00000 3829.87657 60.50000
v 514.00000 3829.87657 60.50000
v 514.00000 3872.87657 60.50000
v -514.00000 3872.87657 60.50000
v 685.76227 3829.87657 31.50000
v 1713.76227 3829.87657 31.50000
v 1713.76227 3872.87657 31.50000
v 685.76227 3872.87657 31.50000
v 685.76227 3829.87657 60.50000
v 1713.76227 3829.87657 60.50000
v 1713.76227 3872.87657 60.50000
v 685.76227 3872.87657 60.50000
v 1885.52454 3829.87657 31.50000
v 2913.52454 3829.87657 31.50000
v 2913.52454 3872.87657 31.50000
v 1885.52454 3872.87657 31.50000
v 1885.52454 3829.87657 60.50000
v 2913.52454 3829.87657 60.50000
v 2913.52454 3872.87657 60.50000
v 1885.52454 3872.87657 60.50000
v 3085.28680 3829.87657 31.50000
v 4113.28680 3829.87657 31.50000
v 4113.28680 3872.87657 31.50000
v 3085.28680 3872.87657 31.50000
v 3085.28680 3829.87657 60.50000
v 4113.28680 3829.87657 60.50000
v 4113.28680 3872.87657 60.50000
v 3085.28680 3872.87657 60.50000
v 4285.04907 3829.87657 31.50000
v 5313.04907 3829.87657 31.50000
v 5313.04907 3872.87657 31.50000
v 4285.04907 3872.87657 31.50000
v 4285.04907 3829.87657 60.50000
v 5313.04907 3829.87657 60.50000
v 5313.04907 3872.87657 60.50000
v 4285.04907 3872.87657 60.50000
v 5484.81134 3829.87657 31.50000
v 6512.81134 3829.87657 31.50000
v 6512.81134 3872.87657 31.50000
v 5484.81134 3872.87657 31.50000
v 5484.81134 3829.87657 60.50000
v 6512.81134 3829.87657 60.50000
v 6512.81134 3872.87657 60.50000
v 5484.81134 3872.87657 60.50000
v -6512.81134 4109.87657 181.50000
v -5484.81134 4109.87657 181.50000
v -5484.81134 4152.87657 181.50000
v -6512.81134 4152.87657 181.50000
v -6512.81134 4109.87657 210.50000
v -5484.81134 4109.87657 210.50000
v -5484.81134 4152.87657 210.50000
v -6512.81134 4152.87657 210.50000
v -5313.04907 4109.87657 181.50000
v -4285.04907 4109.87657 181.50000
v -4285.04907 4152.87657 181.50000
v -5313.04907 4152.87657 181.50000
v -5313.04907 4109.87657 210.50000
v -4285.04907 4109.87657 210.50000
v -4285.04907 4152.87657 210.50000
v -5313.04907 4152.87657 210.50000
v -4113.28680 4109.87657 181.50000
v -3085.28680 4109.87657 181.50000
v -3085.28680 4152.87657 181.50000
v -4113.28680 4152.87657 181.50000
v -4113.28680 4109.87657 210.50000
v -3085.28680 4109.87657 210.50000
v -3085.28680 4152.87657 210.50000
v -4113.28680 4152.87657 210.50000
v -2913.52454 4109.87657 181.50000
v -1885.52454 4109.87657 181.50000
v -1885.52454 4152.87657 181.50000
v -2913.52454 4152.87657 181.50000
v -2913.52454 4109.87657 210.50000
v -1885.52454 4109.87657 210.50000
v -1885.52454 4152.87657 210.50000
v -2913.52454 4152.87657 210.50000
v -1713.76227 4109.87657 181.50000
v -685.76227 4109.87657 181.50000
v -685.76227 4152.87657 181.50000
v -1713.76227 4152.87657 181.50000
v -1713.76227 4109.87657 210.50000
v -685.76227 4109.87657 210.50000
v -685.76227 4152.87657 210.50000
v -1713.76227 4152.87657 210.50000
v -514.00000 4109.87657 181.50000
v 514.00000 4109.87657 181.50000
v 514.00000 4152.87657 181.50000
v -514.00000 4152.87657 181.50000
v -514.00000 4109.87657 210.50000
v 514.00000 4109.87657 210.50000
v 514.00000 4152.87657 210.50000
v -514.00000 4152.87657 210.50000
v 685.76227 4109.87657 181.50000
v 1713.76227 4109.87657 181.50000
v 1713.76227 4152.87657 181.50000
v 685.76227 4152.87657 181.50000
v 685.76227 4109.87657 210.50000
v 1713.76227 4109.87657 210.50000
v 1713.76227 4152.87657 210.50000
v 685.76227 4152.87657 210.50000
v 1885.52454 4109.87657 181.50000
v 2913.52454 4109.87657 181.50000
v 2913.52454 4152.87657 181.50000
v 1885.52454 4152.87657 181.50000
v 1885.52454 4109.87657 210.50000
v 2913.52454 4109.87657 210.50000
v 2913.52454 4152.87657 210.50000
v 1885.52454 4152.87657 210.50000
v 3085.28680 4109.87657 181.50000
v 4113.28680 4109.87657 181.50000
v 4113.28680 4152.87657 181.50000
v 3085.28680 4152.87657 181.50000
v 3085.28680 4109.87657 210.50000
v 4113.28680 4109.87657 210.50000
v 4113.28680 4152.87657 210.50000
v 3085.28680 4152.87657 210.50000
v 4285.04907 4109.87657 181.50000
v 5313.04907 4109.87657 181.50000
v 5313.04907 4152.87657 181.50000
v 4285.04907 4152.87657 181.50000
v 4285.04907 4109.87657 210.50000
v 5313.04907 4109.87657 210.50000
v 5313.04907 4152.87657 210.50000
v 4285.04907 4152.87657 210.50000
v 5484.81134 4109.87657 181.50000
v 6512.81134 4109.87657 181.50000
v 6512.81134 4152.87657 181.50000
v 5484.81134 4152.87657 181.50000
v 5484.81134 4109.87657 210.50000
v 6512.81134 4109.87657 210.50000
v 6512.81134 4152.87657 210.50000
v 5484.81134 4152.87657 210.50000
v -6512.81134 4389.87657 331.50000
v -5484.81134 4389.87657 331.50000
v -5484.81134 4432.87657 331.50000
v -6512.81134 4432.87657 331.50000
v -6512.81134 4389.87657 360.50000
v -5484.81134 4389.87657 360.50000
v -5484.81134 4432.87657 360.50000
v -6512.81134 4432.87657 360.50000
v -5313.04907 4389.87657 331.50000
v -4285.04907 4389.87657 331.50000
v -4285.04907 4432.87657 331.50000
v -5313.04907 4432.87657 331.50000
v -5313.04907 4389.87657 360.50000
v -4285.04907 4389.87657 360.50000
v -4285.04907 4432.87657 360.50000
v -5313.04907 4432.87657 360.50000
v -4113.28680 4389.87657 331.50000
v -3085.28680 4389.87657 331.50000
v -3085.28680 4432.87657 331.50000
v -4113.28680 4432.87657 331.50000
v -4113.28680 4389.87657 360.50000
v -3085.28680 4389.87657 360.50000
v -3085.28680 4432.87657 360.50000
v -4113.28680 4432.87657 360.50000
v -2913.52454 4389.87657 331.50000
v -1885.52454 4389.87657 331.50000
v -1885.52454 4432.87657 331.50000
v -2913.52454 4432.87657 331.50000
v -2913.52454 4389.87657 360.50000
v -1885.52454 4389.87657 360.50000
v -1885.52454 4432.87657 360.50000
v -2913.52454 4432.87657 360.50000
v -1713.76227 4389.87657 331.50000
v -685.76227 4389.87657 331.50000
v -685.76227 4432.87657 331.50000
v -1713.76227 4432.87657 331.50000
v -1713.76227 4389.87657 360.50000
v -685.76227 4389.87657 360.50000
v -685.76227 4432.87657 360.50000
v -1713.76227 4432.87657 360.50000
v -514.00000 4389.87657 331.50000
v 514.00000 4389.87657 331.50000
v 514.00000 4432.87657 331.50000
v -514.00000 4432.87657 331.50000
v -514.00000 4389.87657 360.50000
v 514.00000 4389.87657 360.50000
v 514.00000 4432.87657 360.50000
v -514.00000 4432.87657 360.50000
v 685.76227 4389.87657 331.50000
v 1713.76227 4389.87657 331.50000
v 1713.76227 4432.87657 331.50000
v 685.76227 4432.87657 331.50000
v 685.76227 4389.87657 360.50000
v 1713.76227 4389.87657 360.50000
v 1713.76227 4432.87657 360.50000
v 685.76227 4432.87657 360.50000
v 1885.52454 4389.87657 331.50000
v 2913.52454 4389.87657 331.50000
v 2913.52454 4432.87657 331.50000
v 1885.52454 4432.87657 331.50000
v 1885.52454 4389.87657 360.50000
v 2913.52454 4389.87657 360.50000
v 2913.52454 4432.87657 360.50000
v 1885.52454 4432.87657 360.50000
v 3085.28680 4389.87657 331.50000
v 4113.28680 4389.87657 331.50000
v 4113.28680 4432.87657 331.50000
v 3085.28680 4432.87657 331.50000
v 3085.28680 4389.87657 360.50000
v 4113.28680 4389.87657 360.50000
v 4113.28680 4432.87657 360.50000
v 3085.28680 4432.87657 360.50000
v 4285.04907 4389.87657 331.50000
v 5313.04907 4389.87657 331.50000
v 5313.04907 4432.87657 331.50000
v 4285.04907 4432.87657 331.50000
v 4285.04907 4389.87657 360.50000
v 5313.04907 4389.87657 360.50000
v 5313.04907 4432.87657 360.50000
v 4285.04907 4432.87657 360.50000
v 5484.81134 4389.87657 331.50000
v 6512.81134 4389.87657 331.50000
v 6512.81134 4432.87657 331.50000
v 5484.81134 4432.87657 331.50000
v 5484.81134 4389.87657 360.50000
v 6512.81134 4389.87657 360.50000
v 6512.81134 4432.87657 360.50000
v 5484.81134 4432.87657 360.50000
v -6512.81134 4669.87657 481.50000
v -5484.81134 4669.87657 481.50000
v -5484.81134 4712.87657 481.50000
v -6512.81134 4712.87657 481.50000
v -6512.81134 4669.87657 510.50000
v -5484.81134 4669.87657 510.50000
v -5484.81134 4712.87657 510.50000
v -6512.81134 4712.87657 510.50000
v -5313.04907 4669.87657 481.50000
v -4285.04907 4669.87657 481.50000
v -4285.04907 4712.87657 481.50000
v -5313.04907 4712.87657 481.50000
v -5313.04907 4669.87657 510.50000
v -4285.04907 4669.87657 510.50000
v -4285.04907 4712.87657 510.50000
v -5313.04907 4712.87657 510.50000
v -4113.28680 4669.87657 481.50000
v -3085.28680 4669.87657 481.50000
v -3085.28680 4712.87657 481.50000
v -4113.28680 4712.87657 481.50000
v -4113.28680 4669.87657 510.50000
v -3085.28680 4669.87657 510.50000
v -3085.28680 4712.87657 510.50000
v -4113.28680 4712.87657 510.50000
v -2913.52454 4669.87657 481.50000
v -1885.52454 4669.87657 481.50000
v -1885.52454 4712.87657 481.50000
v -2913.52454 4712.87657 481.50000
v -2913.52454 4669.87657 510.50000
v -1885.52454 4669.87657 510.50000
v -1885.52454 4712.87657 510.50000
v -2913.52454 4712.87657 510.50000
v -1713.76227 4669.87657 481.50000
v -685.76227 4669.87657 481.50000
v -685.76227 4712.87657 481.50000
v -1713.76227 4712.87657 481.50000
v -1713.76227 4669.87657 510.50000
v -685.76227 4669.87657 510.50000
v -685.76227 4712.87657 510.50000
v -1713.76227 4712.87657 510.50000
v -514.00000 4669.87657 481.50000
v 514.00000 4669.87657 481.50000
v 514.00000 4712.87657 481.50000
v -514.00000 4712.87657 481.50000
v -514.00000 4669.87657 510.50000
v 514.00000 4669.87657 510.50000
v 514.00000 4712.87657 510.50000
v -514.00000 4712.87657 510.50000
v 685.76227 4669.87657 481.50000
v 1713.76227 4669.87657 481.50000
v 1713.76227 4712.87657 481.50000
v 685.76227 4712.87657 481.50000
v 685.76227 4669.87657 510.50000
v 1713.76227 4669.87657 510.50000
v 1713.76227 4712.87657 510.50000
v 685.76227 4712.87657 510.50000
v 1885.52454 4669.87657 481.50000
v 2913.52454 4669.87657 481.50000
v 2913.52454 4712.87657 481.50000
v 1885.52454 4712.87657 481.50000
v 1885.52454 4669.87657 510.50000
v 2913.52454 4669.87657 510.50000
v 2913.52454 4712.87657 510.50000
v 1885.52454 4712.87657 510.50000
v 3085.28680 4669.87657 481.50000
v 4113.28680 4669.87657 481.50000
v 4113.28680 4712.87657 481.50000
v 3085.28680 4712.87657 481.50000
v 3085.28680 4669.87657 510.50000
v 4113.28680 4669.87657 510.50000
v 4113.28680 4712.87657 510.50000
v 3085.28680 4712.87657 510.50000
v 4285.04907 4669.87657 481.50000
v 5313.04907 4669.87657 481.50000
v 5313.04907 4712.87657 481.50000
v 4285.04907 4712.87657 481.50000
v 4285.04907 4669.87657 510.50000
v 5313.04907 4669.87657 510.50000
v 5313.04907 4712.87657 510.50000
v 4285.04907 4712.87657 510.50000
v 5484.81134 4669.87657 481.50000
v 6512.81134 4669.87657 481.50000
v 6512.81134 4712.87657 481.50000
v 5484.81134 4712.87657 481.50000
v 5484.81134 4669.87657 510.50000
v 6512.81134 4669.87657 510.50000
v 6512.81134 4712.87657 510.50000
v 5484.81134 4712.87657 510.50000
v -6512.81134 4949.87657 631.50000
v -5484.81134 4949.87657 631.50000
v -5484.81134 4992.87657 631.50000
v -6512.81134 4992.87657 631.50000
v -6512.81134 4949.87657 660.50000
v -5484.81134 4949.87657 660.50000
v -5484.81134 4992.87657 660.50000
v -6512.81134 4992.87657 660.50000
v -5313.04907 4949.87657 631.50000
v -4285.04907 4949.87657 631.50000
v -4285.04907 4992.87657 631.50000
v -5313.04907 4992.87657 631.50000
v -5313.04907 4949.87657 660.50000
v -4285.04907 4949.87657 660.50000
v -4285.04907 4992.87657 660.50000
v -5313.04907 4992.87657 660.50000
v -4113.28680 4949.87657 631.50000
v -3085.28680 4949.87657 631.50000
v -3085.28680 4992.87657 631.50000
v -4113.28680 4992.87657 631.50000
v -4113.28680 4949.87657 660.50000
v -3085.28680 4949.87657 660.50000
v -3085.28680 4992.87657 660.50000
v -4113.28680 4992.87657 660.50000
v -2913.52454 4949.87657 631.50000
v -1885.52454 4949.87657 631.50000
v -1885.52454 4992.87657 631.50000
v -2913.52454 4992.87657 631.50000
v -2913.52454 4949.87657 660.50000
v -1885.52454 4949.87657 660.50000
v -1885.52454 4992.87657 660.50000
v -2913.52454 4992.87657 660.50000
v -1713.76227 4949.87657 631.50000
v -685.76227 4949.87657 631.50000
v -685.76227 4992.87657 631.50000
v -1713.76227 4992.87657 631.50000
v -1713.76227 4949.87657 660.50000
v -685.76227 4949.87657 660.50000
v -685.76227 4992.87657 660.50000
v -1713.76227 4992.87657 660.50000
v -514.00000 4949.87657 631.50000
v 514.00000 4949.87657 631.50000
v 514.00000 4992.87657 631.50000
v -514.00000 4992.87657 631.50000
v -514.00000 4949.87657 660.50000
v 514.00000 4949.87657 660.50000
v 514.00000 4992.87657 660.50000
v -514.00000 4992.87657 660.50000
v 685.76227 4949.87657 631.50000
v 1713.76227 4949.87657 631.50000
v 1713.76227 4992.87657 631.50000
v 685.76227 4992.87657 631.50000
v 685.76227 4949.87657 660.50000
v 1713.76227 4949.87657 660.50000
v 1713.76227 4992.87657 660.50000
v 685.76227 4992.87657 660.50000
v 1885.52454 4949.87657 631.50000
v 2913.52454 4949.87657 631.50000
v 2913.52454 4992.87657 631.50000
v 1885.52454 4992.87657 631.50000
v 1885.52454 4949.87657 660.50000
v 2913.52454 4949.87657 660.50000
v 2913.52454 4992.87657 660.50000
v 1885.52454 4992.87657 660.50000
v 3085.28680 4949.87657 631.50000
v 4113.28680 4949.87657 631.50000
v 4113.28680 4992.87657 631.50000
v 3085.28680 4992.87657 631.50000
v 3085.28680 4949.87657 660.50000
v 4113.28680 4949.87657 660.50000
v 4113.28680 4992.87657 660.50000
v 3085.28680 4992.87657 660.50000
v 4285.04907 4949.87657 631.50000
v 5313.04907 4949.87657 631.50000
v 5313.04907 4992.87657 631.50000
v 4285.04907 4992.87657 631.50000
v 4285.04907 4949.87657 660.50000
v 5313.04907 4949.87657 660.50000
v 5313.04907 4992.87657 660.50000
v 4285.04907 4992.87657 660.50000
v 5484.81134 4949.87657 631.50000
v 6512.81134 4949.87657 631.50000
v 6512.81134 4992.87657 631.50000
v 5484.81134 4992.87657 631.50000
v 5484.81134 4949.87657 660.50000
v 6512.81134 4949.87657 660.50000
v 6512.81134 4992.87657 660.50000
v 5484.81134 4992.87657 660.50000
v -6877.55908 5379.87657 -143.00000
v -6523.55908 5379.87657 -143.00000
v -6523.55908 5624.87657 -143.00000
v -6877.55908 5624.87657 -143.00000
v -6877.55908 5379.87657 287.00000
v -6523.55908 5379.87657 287.00000
v -6523.55908 5624.87657 287.00000
v -6877.55908 5624.87657 287.00000
v -6877.55908 5379.87657 305.00000
v -6523.55908 5379.87657 305.00000
v -6523.55908 5624.87657 305.00000
v -6877.55908 5624.87657 305.00000
v -6877.55908 5379.87657 735.00000
v -6523.55908 5379.87657 735.00000
v -6523.55908 5624.87657 735.00000
v -6877.55908 5624.87657 735.00000
v -6458.77414 5379.87657 -143.00000
v -6104.77414 5379.87657 -143.00000
v -6104.77414 5624.87657 -143.00000
v -6458.77414 5624.87657 -143.00000
v -6458.77414 5379.87657 287.00000
v -6104.77414 5379.87657 287.00000
v -6104.77414 5624.87657 287.00000
v -6458.77414 5624.87657 287.00000
v -6458.77414 5379.87657 305.00000
v -6104.77414 5379.87657 305.00000
v -6104.77414 5624.87657 305.00000
v -6458.77414 5624.87657 305.00000
v -6458.77414 5379.87657 735.00000
v -6104.77414 5379.87657 735.00000
v -6104.77414 5624.87657 735.00000
v -6458.77414 5624.87657 735.00000
v -6039.98920 5379.87657 -143.00000
v -5685.98920 5379.87657 -143.00000
v -5685.98920 5624.87657 -143.00000
v -6039.98920 5624.87657 -143.00000
v -6039.98920 5379.87657 287.00000
v -5685.98920 5379.87657 287.00000
v -5685.98920 5624.87657 287.00000
v -6039.98920 5624.87657 287.00000
v -6039.98920 5379.87657 305.00000
v -5685.98920 5379.87657 305.00000
v -5685.98920 5624.87657 305.00000
v -6039.98920 5624.87657 305.00000
v -6039.98920 5379.87657 735.00000
v -5685.98920 5379.87657 735.00000
v -5685.98920 5624.87657 735.00000
v -6039.98920 5624.87657 735.00000
v -5621.20425 5379.87657 -143.00000
v -5267.20425 5379.87657 -143.00000
v -5267.20425 5624.87657 -143.00000
v -5621.20425 5624.87657 -143.00000
v -5621.20425 5379.87657 287.00000
v -5267.20425 5379.87657 287.00000
v -5267.20425 5624.87657 287.00000
v -5621.20425 5624.87657 287.00000
v -5621.20425 5379.87657 305.00000
v -5267.20425 5379.87657 305.00000
v -5267.20425 5624.87657 305.00000
v -5621.20425 5624.87657 305.00000
v -5621.20425 5379.87657 735.00000
v -5267.20425 5379.87657 735.00000
v -5267.20425 5624.87657 735.00000
v -5621.20425 5624.87657 735.00000
v -5202.41931 5379.87657 -143.00000
v -4848.41931 5379.87657 -143.00000
v -4848.41931 5624.87657 -143.00000
v -5202.41931 5624.87657 -143.00000
v -5202.41931 5379.87657 287.00000
v -4848.41931 5379.87657 287.00000
v -4848.41931 5624.87657 287.00000
v -5202.41931 5624.87657 287.00000
v -5202.41931 5379.87657 305.00000
v -4848.41931 5379.87657 305.00000
v -4848.41931 5624.87657 305.00000
v -5202.41931 5624.87657 305.00000
v -5202.41931 5379.87657 735.00000
v -4848.41931 5379.87657 735.00000
v -4848.41931 5624.87657 735.00000
v -5202.41931 5624.87657 735.00000
v -4783.63437 5379.87657 -143.00000
v -4429.63437 5379.87657 -143.00000
v -4429.63437 5624.87657 -143.00000
v -4783.63437 5624.87657 -143.00000
v -4783.63437 5379.87657 287.00000
v -4429.63437 5379.87657 287.00000
v -4429.63437 5624.87657 287.00000
v -4783.63437 5624.87657 287.00000
v -4783.63437 5379.87657 305.00000
v -4429.63437 5379.87657 305.00000
v -4429.63437 5624.87657 305.00000
v -4783.63437 5624.87657 305.00000
v -4783.63437 5379.87657 735.00000
v -4429.63437 5379.87657 735.00000
v -4429.63437 5624.87657 735.00000
v -4783.63437 5624.87657 735.00000
v -4364.84943 5379.87657 -143.00000
v -4010.84943 5379.87657 -143.00000
v -4010.84943 5624.87657 -143.00000
v -4364.84943 5624.87657 -143.00000
v -4364.84943 5379.87657 287.00000
v -4010.84943 5379.87657 287.00000
v -4010.84943 5624.87657 287.00000
v -4364.84943 5624.87657 287.00000
v -4364.84943 5379.87657 305.00000
v -4010.84943 5379.87657 305.00000
v -4010.84943 5624.87657 305.00000
v -4364.84943 5624.87657 305.00000
v -4364.84943 5379.87657 735.00000
v -4010.84943 5379.87657 735.00000
v -4010.84943 5624.87657 735.00000
v -4364.84943 5624.87657 735.00000
v -3946.06448 5379.87657 -143.00000
v -3592.06448 5379.87657 -143.00000
v -3592.06448 5624.87657 -143.00000
v -3946.06448 5624.87657 -143.00000
v -3946.06448 5379.87657 287.00000
v -3592.06448 5379.87657 287.00000
v -3592.06448 5624.87657 287.00000
v -3946.06448 5624.87657 287.00000
v -3946.06448 5379.87657 305.00000
v -3592.06448 5379.87657 305.00000
v -3592.06448 5624.87657 305.00000
v -3946.06448 5624.87657 305.00000
v -3946.06448 5379.87657 735.00000
v -3592.06448 5379.87657 735.00000
v -3592.06448 5624.87657 735.00000
v -3946.06448 5624.87657 735.00000
v -3527.27954 5379.87657 -143.00000
v -3173.27954 5379.87657 -143.00000
v -3173.27954 5624.87657 -143.00000
v -3527.27954 5624.87657 -143.00000
v -3527.27954 5379.87657 287.00000
v -3173.27954 5379.87657 287.00000
v -3173.27954 5624.87657 287.00000
v -3527.27954 5624.87657 287.00000
v -3527.27954 5379.87657 305.00000
v -3173.27954 5379.87657 305.00000
v -3173.27954 5624.87657 305.00000
v -3527.27954 5624.87657 305.00000
v -3527.27954 5379.87657 735.00000
v -3173.27954 5379.87657 735.00000
v -3173.27954 5624.87657 735.00000
v -3527.27954 5624.87657 735.00000
v -3108.49460 5379.87657 -143.00000
v -2754.49460 5379.87657 -143.00000
v -2754.49460 5624.87657 -143.00000
v -3108.49460 5624.87657 -143.00000
v -3108.49460 5379.87657 287.00000
v -2754.49460 5379.87657 287.00000
v -2754.49460 5624.87657 287.00000
v -3108.49460 5624.87657 287.00000
v -3108.49460 5379.87657 305.00000
v -2754.49460 5379.87657 305.00000
v -2754.49460 5624.87657 305.00000
v -3108.49460 5624.87657 305.00000
v -3108.49460 5379.87657 735.00000
v -2754.49460 5379.87657 735.00000
v -2754.49460 5624.87657 735.00000
v -3108.49460 5624.87657 735.00000
v -2689.70966 5379.87657 -143.00000
v -2335.70966 5379.87657 -143.00000
v -2335.70966 5624.87657 -143.00000
v -2689.70966 5624.87657 -143.00000
v -2689.70966 5379.87657 287.00000
v -2335.70966 5379.87657 287.00000
v -2335.70966 5624.87657 287.00000
v -2689.70966 5624.87657 287.00000
v -2689.70966 5379.87657 305.00000
v -2335.70966 5379.87657 305.00000
v -2335.70966 5624.87657 305.00000
v -2689.70966 5624.87657 305.00000
v -2689.70966 5379.87657 735.00000
v -2335.70966 5379.87657 735.00000
v -2335.70966 5624.87657 735.00000
v -2689.70966 5624.87657 735.00000
v -2270.92471 5379.87657 -143.00000
v -1916.92471 5379.87657 -143.00000
v -1916.92471 5624.87657 -143.00000
v -2270.92471 5624.87657 -143.00000
v -2270.92471 5379.87657 287.00000
v -1916.92471 5379.87657 287.00000
v -1916.92471 5624.87657 287.00000
v -2270.92471 5624.87657 287.00000
v -2270.92471 5379.87657 305.00000
v -1916.92471 5379.87657 305.00000
v -1916.92471 5624.87657 305.00000
v -2270.92471 5624.87657 305.00000
v -2270.92471 5379.87657 735.00000
v -1916.92471 5379.87657 735.00000
v -1916.92471 5624.87657 735.00000
v -2270.92471 5624.87657 735.00000
v -1852.13977 5379.87657 -143.00000
v -1498.13977 5379.87657 -143.00000
v -1498.13977 5624.87657 -143.00000
v -1852.13977 5624.87657 -143.00000
v -1852.13977 5379.87657 287.00000
v -1498.13977 5379.87657 287.00000
v -1498.13977 5624.87657 287.00000
v -1852.13977 5624.87657 287.00000
v -1852.13977 5379.87657 305.00000
v -1498.13977 5379.87657 305.00000
v -1498.13977 5624.87657 305.00000
v -1852.13977 5624.87657 305.00000
v -1852.13977 5379.87657 735.00000
v -1498.13977 5379.87657 735.00000
v -1498.13977 5624.87657 735.00000
v -1852.13977 5624.87657 735.00000
v -1433.35483 5379.87657 -143.00000
v -1079.35483 5379.87657 -143.00000
v -1079.35483 5624.87657 -143.00000
v -1433.35483 5624.87657 -143.00000
v -1433.35483 5379.87657 287.00000
v -1079.35483 5379.87657 287.00000
v -1079.35483 5624.87657 287.00000
v -1433.35483 5624.87657 287.00000
v -1433.35483 5379.87657 305.00000
v -1079.35483 5379.87657 305.00000
v -1079.35483 5624.87657 305.00000
v -1433.35483 5624.87657 305.00000
v -1433.35483 5379.87657 735.00000
v -1079.35483 5379.87657 735.00000
v -1079.35483 5624.87657 735.00000
v -1433.35483 5624.87657 735.00000
v -1014.56989 5379.87657 -143.00000
v -660.56989 5379.87657 -143.00000
v -660.56989 5624.87657 -143.00000
v -1014.56989 5624.87657 -143.00000
v -1014.56989 5379.87657 287.00000
v -660.56989 5379.87657 287.00000
v -660.56989 5624.87657 287.00000
v -1014.56989 5624.87657 287.00000
v -1014.56989 5379.87657 305.00000
v -660.56989 5379.87657 305.00000
v -660.56989 5624.87657 305.00000
v -1014.56989 5624.87657 305.00000
v -1014.56989 5379.87657 735.00000
v -660.56989 5379.87657 735.00000
v -660.56989 5624.87657 735.00000
v -1014.56989 5624.87657 735.00000
v -595.78494 5379.87657 -143.00000
v -241.78494 5379.87657 -143.00000
v -241.78494 5624.87657 -143.00000
v -595.78494 5624.87657 -143.00000
v -595.78494 5379.87657 287.00000
v -241.78494 5379.87657 287.00000
v -241.78494 5624.87657 287.00000
v -595.78494 5624.87657 287.00000
v -595.78494 5379.87657 305.00000
v -241.78494 5379.87657 305.00000
v -241.78494 5624.87657 305.00000
v -595.78494 5624.87657 305.00000
v -595.78494 5379.87657 735.00000
v -241.78494 5379.87657 735.00000
v -241.78494 5624.87657 735.00000
v -595.78494 5624.87657 735.00000
v -177.00000 5379.87657 -143.00000
v 177.00000 5379.87657 -143.00000
v 177.00000 5624.87657 -143.00000
v -177.00000 5624.87657 -143.00000
v -177.00000 5379.87657 287.00000
v 177.00000 5379.87657 287.00000
v 177.00000 5624.87657 287.00000
v -177.00000 5624.87657 287.00000
v -177.00000 5379.87657 305.00000
v 177.00000 5379.87657 305.00000
v 177.00000 5624.87657 305.00000
v -177.00000 5624.87657 305.00000
v -177.00000 5379.87657 735.00000
v 177.00000 5379.87657 735.00000
v 177.00000 5624.87657 735.00000
v -177.00000 5624.87657 735.00000
v 241.78494 5379.87657 -143.00000
v 595.78494 5379.87657 -143.00000
v 595.78494 5624.87657 -143.00000
v 241.78494 5624.87657 -143.00000
v 241.78494 5379.87657 287.00000
v 595.78494 5379.87657 287.00000
v 595.78494 5624.87657 287.00000
v 241.78494 5624.87657 287.00000
v 241.78494 5379.87657 305.00000
v 595.78494 5379.87657 305.00000
v 595.78494 5624.87657 305.00000
v 241.78494 5624.87657 305.00000
v 241.78494 5379.87657 735.00000
v 595.78494 5379.87657 735.00000
v 595.78494 5624.87657 735.00000
v 241.78494 5624.87657 735.00000
v 660.56989 5379.87657 -143.00000
v 1014.56989 5379.87657 -143.00000
v 1014.56989 5624.87657 -143.00000
v 660.56989 5624.87657 -143.00000
v 660.56989 5379.87657 287.00000
v 1014.56989 5379.87657 287.00000
v 1014.56989 5624.87657 287.00000
v 660.56989 5624.87657 287.00000
v 660.56989 5379.87657 305.00000
v 1014.56989 5379.87657 305.00000
v 1014.56989 5624.87657 305.00000
v 660.56989 5624.87657 305.00000
v 660.56989 5379.87657 735.00000
v 1014.56989 5379.87657 735.00000
v 1014.56989 5624.87657 735.00000
v 660.56989 5624.87657 735.00000
v 1079.35483 5379.87657 -143.00000
v 1433.35483 5379.87657 -143.00000
v 1433.35483 5624.87657 -143.00000
v 1079.35483 5624.87657 -143.00000
v 1079.35483 5379.87657 287.00000
v 1433.35483 5379.87657 287.00000
v 1433.35483 5624.87657 287.00000
v 1079.35483 5624.87657 287.00000
v 1079.35483 5379.87657 305.00000
v 1433.35483 5379.87657 305.00000
v 1433.35483 5624.87657 305.00000
v 1079.35483 5624.87657 305.00000
v 1079.35483 5379.87657 735.00000
v 1433.35483 5379.87657 735.00000
v 1433.35483 5624.87657 735.00000
v 1079.35483 5624.87657 735.00000
v 1498.13977 5379.87657 -143.00000
v 1852.13977 5379.87657 -143.00000
v 1852.13977 5624.87657 -143.00000
v 1498.13977 5624.87657 -143.00000
v 1498.13977 5379.87657 287.00000
v 1852.13977 5379.87657 287.00000
v 1852.13977 5624.87657 287.00000
v 1498.13977 5624.87657 287.00000
v 1498.13977 5379.87657 305.00000
v 1852.13977 5379.87657 305.00000
v 1852.13977 5624.87657 305.00000
v 1498.13977 5624.87657 305.00000
v 1498.13977 5379.87657 735.00000
v 1852.13977 5379.87657 735.00000
v 1852.13977 5624.87657 735.00000
v 1498.13977 5624.87657 735.00000
v 1916.92471 5379.87657 -143.00000
v 2270.92471 5379.87657 -143.00000
v 2270.92471 5624.87657 -143.00000
v 1916.92471 5624.87657 -143.00000
v 1916.92471 5379.87657 287.00000
v 2270.92471 5379.87657 287.00000
v 2270.92471 5624.87657 287.00000
v 1916.92471 5624.87657 287.00000
v 1916.92471 5379.87657 305.00000
v 2270.92471 5379.87657 305.00000
v 2270.92471 5624.87657 305.00000
v 1916.92471 5624.87657 305.00000
v 1916.92471 5379.87657 735.00000
v 2270.92471 5379.87657 735.00000
v 2270.92471 5624.87657 735.00000
v 1916.92471 5624.87657 735.00000
v 2335.70966 5379.87657 -143.00000
v 2689.70966 5379.87657 -143.00000
v 2689.70966 5624.87657 -143.00000
v 2335.70966 5624.87657 -143.00000
v 2335.70966 5379.87657 287.00000
v 2689.70966 5379.87657 287.00000
v 2689.70966 5624.87657 287.00000
v 2335.70966 5624.87657 287.00000
v 2335.70966 5379.87657 305.00000
v 2689.70966 5379.87657 305.00000
v 2689.70966 5624.87657 305.00000
v 2335.70966 5624.87657 305.00000
v 2335.70966 5379.87657 735.00000
v 2689.70966 5379.87657 735.00000
v 2689.70966 5624.87657 735.00000
v 2335.70966 5624.87657 735.00000
v 2754.49460 5379.87657 -143.00000
v 3108.49460 5379.87657 -143.00000
v 3108.49460 5624.87657 -143.00000
v 2754.49460 5624.87657 -143.00000
v 2754.49460 5379.87657 287.00000
v 3108.49460 5379.87657 287.00000
v 3108.49460 5624.87657 287.00000
v 2754.49460 5624.87657 287.00000
v 2754.49460 5379.87657 305.00000
v 3108.49460 5379.87657 305.00000
v 3108.49460 5624.87657 305.00000
v 2754.49460 5624.87657 305.00000
v 2754.49460 5379.87657 735.00000
v 3108.49460 5379.87657 735.00000
v 3108.49460 5624.87657 735.00000
v 2754.49460 5624.87657 735.00000
v 3173.27954 5379.87657 -143.00000
v 3527.27954 5379.87657 -143.00000
v 3527.27954 5624.87657 -143.00000
v 3173.27954 5624.87657 -143.00000
v 3173.27954 5379.87657 287.00000
v 3527.27954 5379.87657 287.00000
v 3527.27954 5624.87657 287.00000
v 3173.27954 5624.87657 287.00000
v 3173.27954 5379.87657 305.00000
v 3527.27954 5379.87657 305.00000
v 3527.27954 5624.87657 305.00000
v 3173.27954 5624.87657 305.00000
v 3173.27954 5379.87657 735.00000
v 3527.27954 5379.87657 735.00000
v 3527.27954 5624.87657 735.00000
v 3173.27954 5624.87657 735.00000
v 3592.06448 5379.87657 -143.00000
v 3946.06448 5379.87657 -143.00000
v 3946.06448 5624.87657 -143.00000
v 3592.06448 5624.87657 -143.00000
v 3592.06448 5379.87657 287.00000
v 3946.06448 5379.87657 287.00000
v 3946.06448 5624.87657 287.00000
v 3592.06448 5624.87657 287.00000
v 3592.06448 5379.87657 305.00000
v 3946.06448 5379.87657 305.00000
v 3946.06448 5624.87657 305.00000
v 3592.06448 5624.87657 305.00000
v 3592.06448 5379.87657 735.00000
v 3946.06448 5379.87657 735.00000
v 3946.06448 5624.87657 735.00000
v 3592.06448 5624.87657 735.00000
v 4010.84943 5379.87657 -143.00000
v 4364.84943 5379.87657 -143.00000
v 4364.84943 5624.87657 -143.00000
v 4010.84943 5624.87657 -143.00000
v 4010.84943 5379.87657 287.00000
v 4364.84943 5379.87657 287.00000
v 4364.84943 5624.87657 287.00000
v 4010.84943 5624.87657 287.00000
v 4010.84943 5379.87657 305.00000
v 4364.84943 5379.87657 305.00000
v 4364.84943 5624.87657 305.00000
v 4010.84943 5624.87657 305.00000
v 4010.84943 5379.87657 735.00000
v 4364.84943 5379.87657 735.00000
v 4364.84943 5624.87657 735.00000
v 4010.84943 5624.87657 735.00000
v 4429.63437 5379.87657 -143.00000
v 4783.63437 5379.87657 -143.00000
v 4783.63437 5624.87657 -143.00000
v 4429.63437 5624.87657 -143.00000
v 4429.63437 5379.87657 287.00000
v 4783.63437 5379.87657 287.00000
v 4783.63437 5624.87657 287.00000
v 4429.63437 5624.87657 287.00000
v 4429.63437 5379.87657 305.00000
v 4783.63437 5379.87657 305.00000
v 4783.63437 5624.87657 305.00000
v 4429.63437 5624.87657 305.00000
v 4429.63437 5379.87657 735.00000
v 4783.63437 5379.87657 735.00000
v 4783.63437 5624.87657 735.00000
v 4429.63437 5624.87657 735.00000
v 4848.41931 5379.87657 -143.00000
v 5202.41931 5379.87657 -143.00000
v 5202.41931 5624.87657 -143.00000
v 4848.41931 5624.87657 -143.00000
v 4848.41931 5379.87657 287.00000
v 5202.41931 5379.87657 287.00000
v 5202.41931 5624.87657 287.00000
v 4848.41931 5624.87657 287.00000
v 4848.41931 5379.87657 305.00000
v 5202.41931 5379.87657 305.00000
v 5202.41931 5624.87657 305.00000
v 4848.41931 5624.87657 305.00000
v 4848.41931 5379.87657 735.00000
v 5202.41931 5379.87657 735.00000
v 5202.41931 5624.87657 735.00000
v 4848.41931 5624.87657 735.00000
v 5267.20425 5379.87657 -143.00000
v 5621.20425 5379.87657 -143.00000
v 5621.20425 5624.87657 -143.00000
v 5267.20425 5624.87657 -143.00000
v 5267.20425 5379.87657 287.00000
v 5621.20425 5379.87657 287.00000
v 5621.20425 5624.87657 287.00000
v 5267.20425 5624.87657 287.00000
v 5267.20425 5379.87657 305.00000
v 5621.20425 5379.87657 305.00000
v 5621.20425 5624.87657 305.00000
v 5267.20425 5624.87657 305.00000
v 5267.20425 5379.87657 735.00000
v 5621.20425 5379.87657 735.00000
v 5621.20425 5624.87657 735.00000
v 5267.20425 5624.87657 735.00000
v 5685.98920 5379.87657 -143.00000
v 6039.98920 5379.87657 -143.00000
v 6039.98920 5624.87657 -143.00000
v 5685.98920 5624.87657 -143.00000
v 5685.98920 5379.87657 287.00000
v 6039.98920 5379.87657 287.00000
v 6039.98920 5624.87657 287.00000
v 5685.98920 5624.87657 287.00000
v 5685.98920 5379.87657 305.00000
v 6039.98920 5379.87657 305.00000
v 6039.98920 5624.87657 305.00000
v 5685.98920 5624.87657 305.00000
v 5685.98920 5379.87657 735.00000
v 6039.98920 5379.87657 735.00000
v 6039.98920 5624.87657 735.00000
v 5685.98920 5624.87657 735.00000
v 6104.77414 5379.87657 -143.00000
v 6458.77414 5379.87657 -143.00000
v 6458.77414 5624.87657 -143.00000
v 6104.77414 5624.87657 -143.00000
v 6104.77414 5379.87657 287.00000
v 6458.77414 5379.87657 287.00000
v 6458.77414 5624.87657 287.00000
v 6104.77414 5624.87657 287.00000
v 6104.77414 5379.87657 305.00000
v 6458.77414 5379.87657 305.00000
v 6458.77414 5624.87657 305.00000
v 6104.77414 5624.87657 305.00000
v 6104.77414 5379.87657 735.00000
v 6458.77414 5379.87657 735.00000
v 6458.77414 5624.87657 735.00000
v 6104.77414 5624.87657 735.00000
v 6523.55908 5379.87657 -143.00000
v 6877.55908 5379.87657 -143.00000
v 6877.55908 5624.87657 -143.00000
v 6523.55908 5624.87657 -143.00000
v 6523.55908 5379.87657 287.00000
v 6877.55908 5379.87657 287.00000
v 6877.55908 5624.87657 287.00000
v 6523.55908 5624.87657 287.00000
v 6523.55908 5379.87657 305.00000
v 6877.55908 5379.87657 305.00000
v 6877.55908 5624.87657 305.00000
v 6523.55908 5624.87657 305.00000
v 6523.55908 5379.87657 735.00000
v 6877.55908 5379.87657 735.00000
v 6877.55908 5624.87657 735.00000
v 6523.55908 5624.87657 735.00000
v 8076.58617 -2597.50000 1177.50000
v 8671.58617 -2597.50000 1177.50000
v 8671.58617 -2002.50000 1177.50000
v 8076.58617 -2002.50000 1177.50000
v 8076.58617 -2597.50000 1282.50000
v 8671.58617 -2597.50000 1282.50000
v 8671.58617 -2002.50000 1282.50000
v 8076.58617 -2002.50000 1282.50000
v 8076.58617 2002.50000 1177.50000
v 8671.58617 2002.50000 1177.50000
v 8671.58617 2597.50000 1177.50000
v 8076.58617 2597.50000 1177.50000
v 8076.58617 2002.50000 1282.50000
v 8671.58617 2002.50000 1282.50000
v 8671.58617 2597.50000 1282.50000
v 8076.58617 2597.50000 1282.50000
f 4 3 2 1
f 5 6 7 8
f 1 2 6 5
f 2 3 7 6
f 3 4 8 7
f 4 1 5 8
f 12 11 10 9
f 13 14 15 16
f 9 10 14 13
f 10 11 15 14
f 11 12 16 15
f 12 9 13 16
f 20 19 18 17
f 21 22 23 24
f 17 18 22 21
f 18 19 23 22
f 19 20 24 23
f 20 17 21 24
f 28 27 26 25
f 29 30 31 32
f 25 26 30 29
f 26 27 31 30
f 27 28 32 31
f 28 25 29 32
f 36 35 34 33
f 37 38 39 40
f 33 34 38 37
f 34 35 39 38
f 35 36 40 39
f 36 33 37 40
f 44 43 42 41
f 45 46 47 48
f 41 42 46 45
f 42 43 47 46
f 43 44 48 47
f 44 41 45 48
f 52 51 50 49
f 53 54 55 56
f 49 50 54 53
f 50 51 55 54
f 51 52 56 55
f 52 49 53 56
f 60 59 58 57
f 61 62 63 64
f 57 58 62 61
f 58 59 63 62
f 59 60 64 63
f 60 57 61 64
f 68 67 66 65
f 69 70 71 72
f 65 66 70 69
f 66 67 71 70
f 67 68 72 71
f 68 65 69 72
f 76 75 74 73
f 77 78 79 80
f 73 74 78 77
f 74 75 79 78
f 75 76 80 79
f 76 73 77 80
f 84 83 82 81
f 85 86 87 88
f 81 82 86 85
f 82 83 87 86
f 83 84 88 87
f 84 81 85 88
f 92 91 90 89
f 93 94 95 96
f 89 90 94 93
f 90 91 95 94
f 91 92 96 95
f 92 89 93 96
f 100 99 98 97
f 101 102 103 104
f 97 98 102 101
f 98 99 103 102
f 99 100 104 103
f 100 97 101 104
f 108 107 106 105
f 109 110 111 112
f 105 106 110 109
f 106 107 111 110
f 107 108 112 111
f 108 105 109 112
f 116 115 114 113
f 117 118 119 120
f 113 114 118 117
f 114 115 119 118
f 115 116 120 119
f 116 113 117 120
f 124 123 122 121
f 125 126 127 128
f 121 122 126 125
f 122 123 127 126
f 123 124 128 127
f 124 121 125 128
f 132 131 130 129
f 133 134 135 136
f 129 130 134 133
f 130 131 135 134
f 131 132 136 135
f 132 129 133 136
f 140 139 138 137
f 141 142 143 144
f 137 138 142 141
f 138 139 143 142
f 139 140 144 143
f 140 137 141 144
f 148 147 146 145
f 149 150 151 152
f 145 146 150 149
f 146 147 151 150
f 147 148 152 151
f 148 145 149 152
f 156 155 154 153
f 157 158 159 160
f 153 154 158 157
f 154 155 159 158
f 155 156 160 159
f 156 153 157 160
f 164 163 162 161
f 165 166 167 168
f 161 162 166 165
f 162 163 167 166
f 163 164 168 167
f 164 161 165 168
f 172 171 170 169
f 173 174 175 176
f 169 170 174 173
f 170 171 175 174
f 171 172 176 175
f 172 169 173 176
f 180 179 178 177
f 181 182 183 184
f 177 178 182 181
f 178 179 183 182
f 179 180 184 183
f 180 177 181 184
f 188 187 186 185
f 189 190 191 192
f 185 186 190 189
f 186 187 191 190
f 187 188 192 191
f 188 185 189 192
f 196 195 194 193
f 197 198 199 200
f 193 194 198 197
f 194 195 199 198
f 195 196 200 199
f 196 193 197 200
f 204 203 202 201
f 205 206 207 208
f 201 202 206 205
f 202 203 207 206
f 203 204 208 207
f 204 201 205 208
f 212 211 210 209
f 213 214 215 216
f 209 210 214 213
f 210 211 215 214
f 211 212 216 215
f 212 209 213 216
f 220 219 218 217
f 221 222 223 224
f 217 218 222 221
f 218 219 223 222
f 219 220 224 223
f 220 217 221 224
f 228 227 226 225
f 229 230 231 232
f 225 226 230 229
f 226 227 231 230
f 227 228 232 231
f 228 225 229 232
f 236 235 234 233
f 237 238 239 240
f 233 234 238 237
f 234 235 239 238
f 235 236 240 239
f 236 233 237 240
f 244 243 242 241
f 245 246 247 248
f 241 242 246 245
f 242 243 247 246
f 243 244 248 247
f 244 241 245 248
f 252 251 250 249
f 253 254 255 256
f 249 250 254 253
f 250 251 255 254
f 251 252 256 255
f 252 249 253 256
f 260 259 258 257
f 261 262 263 264
f 257 258 262 261
f 258 259 263 262
f 259 260 264 263
f 260 257 261 264
f 268 267 266 265
f 269 270 271 272
f 265 266 270 269
f 266 267 271 270
f 267 268 272 271
f 268 265 269 272
f 276 275 274 273
f 277 278 279 280
f 273 274 278 277
f 274 275 279 278
f 275 276 280 279
f 276 273 277 280
f 284 283 282 281
f 285 286 287 288
f 281 282 286 285
f 282 283 287 286
f 283 284 288 287
f 284 281 285 288
f 292 291 290 289
f 293 294 295 296
f 289 290 294 293
f 290 291 295 294
f 291 292 296 295
f 292 289 293 296
f 300 299 298 297
f 301 302 303 304
f 297 298 302 301
f 298 299 303 302
f 299 300 304 303
f 300 297 301 304
f 308 307 306 305
f 309 310 311 312
f 305 306 310 309
f 306 307 311 310
f 307 308 312 311
f 308 305 309 312
f 316 315 314 313
f 317 318 319 320
f 313 314 318 317
f 314 315 319 318
f 315 316 320 319
f 316 313 317 320
f 324 323 322 321
f 325 326 327 328
f 321 322 326 325
f 322 323 327 326
f 323 324 328 327
f 324 321 325 328
f 332 331 330 329
f 333 334 335 336
f 329 330 334 333
f 330 331 335 334
f 331 332 336 335
f 332 329 333 336
f 340 339 338 337
f 341 342 343 344
f 337 338 342 341
f 338 339 343 342
f 339 340 344 343
f 340 337 341 344
f 348 347 346 345
f 349 350 351 352
f 345 346 350 349
f 346 347 351 350
f 347 348 352 351
f 348 345 349 352
f 356 355 354 353
f 357 358 359 360
f 353 354 358 357
f 354 355 359 358
f 355 356 360 359
f 356 353 357 360
f 364 363 362 361
f 365 366 367 368
f 361 362 366 365
f 362 363 367 366
f 363 364 368 367
f 364 361 365 368
f 372 371 370 369
f 373 374 375 376
f 369 370 374 373
f 370 371 375 374
f 371 372 376 375
f 372 369 373 376
f 380 379 378 377
f 381 382 383 384
f 377 378 382 381
f 378 379 383 382
f 379 380 384 383
f 380 377 381 384
f 388 387 386 385
f 389 390 391 392
f 385 386 390 389
f 386 387 391 390
f 387 388 392 391
f 388 385 389 392
f 396 395 394 393
f 397 398 399 400
f 393 394 398 397
f 394 395 399 398
f 395 396 400 399
f 396 393 397 400
f 404 403 402 401
f 405 406 407 408
f 401 402 406 405
f 402 403 407 406
f 403 404 408 407
f 404 401 405 408
f 412 411 410 409
f 413 414 415 416
f 409 410 414 413
f 410 411 415 414
f 411 412 416 415
f 412 409 413 416
f 420 419 418 417
f 421 422 423 424
f 417 418 422 421
f 418 419 423 422
f 419 420 424 423
f 420 417 421 424
f 428 427 426 425
f 429 430 431 432
f 425 426 430 429
f 426 427 431 430
f 427 428 432 431
f 428 425 429 432
f 436 435 434 433
f 437 438 439 440
f 433 434 438 437
f 434 435 439 438
f 435 436 440 439
f 436 433 437 440
f 444 443 442 441
f 445 446 447 448
f 441 442 446 445
f 442 443 447 446
f 443 444 448 447
f 444 441 445 448
f 452 451 450 449
f 453 454 455 456
f 449 450 454 453
f 450 451 455 454
f 451 452 456 455
f 452 449 453 456
f 460 459 458 457
f 461 462 463 464
f 457 458 462 461
f 458 459 463 462
f 459 460 464 463
f 460 457 461 464
f 468 467 466 465
f 469 470 471 472
f 465 466 470 469
f 466 467 471 470
f 467 468 472 471
f 468 465 469 472
f 476 475 474 473
f 477 478 479 480
f 473 474 478 477
f 474 475 479 478
f 475 476 480 479
f 476 473 477 480
f 484 483 482 481
f 485 486 487 488
f 481 482 486 485
f 482 483 487 486
f 483 484 488 487
f 484 481 485 488
f 492 491 490 489
f 493 494 495 496
f 489 490 494 493
f 490 491 495 494
f 491 492 496 495
f 492 489 493 496
f 500 499 498 497
f 501 502 503 504
f 497 498 502 501
f 498 499 503 502
f 499 500 504 503
f 500 497 501 504
f 508 507 506 505
f 509 510 511 512
f 505 506 510 509
f 506 507 511 510
f 507 508 512 511
f 508 505 509 512
f 516 515 514 513
f 517 518 519 520
f 513 514 518 517
f 514 515 519 518
f 515 516 520 519
f 516 513 517 520
f 524 523 522 521
f 525 526 527 528
f 521 522 526 525
f 522 523 527 526
f 523 524 528 527
f 524 521 525 528
f 532 531 530 529
f 533 534 535 536
f 529 530 534 533
f 530 531 535 534
f 531 532 536 535
f 532 529 533 536
f 540 539 538 537
f 541 542 543 544
f 537 538 542 541
f 538 539 543 542
f 539 540 544 543
f 540 537 541 544
f 548 547 546 545
f 549 550 551 552
f 545 546 550 549
f 546 547 551 550
f 547 548 552 551
f 548 545 549 552
f 556 555 554 553
f 557 558 559 560
f 553 554 558 557
f 554 555 559 558
f 555 556 560 559
f 556 553 557 560
f 564 563 562 561
f 565 566 567 568
f 561 562 566 565
f 562 563 567 566
f 563 564 568 567
f 564 561 565 568
f 572 571 570 569
f 573 574 575 576
f 569 570 574 573
f 570 571 575 574
f 571 572 576 575
f 572 569 573 576
f 580 579 578 577
f 581 582 583 584
f 577 578 582 581
f 578 579 583 582
f 579 580 584 583
f 580 577 581 584
f 588 587 586 585
f 589 590 591 592
f 585 586 590 589
f 586 587 591 590
f 587 588 592 591
f 588 585 589 592
f 596 595 594 593
f 597 598 599 600
f 593 594 598 597
f 594 595 599 598
f 595 596 600 599
f 596 593 597 600
f 604 603 602 601
f 605 606 607 608
f 601 602 606 605
f 602 603 607 606
f 603 604 608 607
f 604 601 605 608
f 612 611 610 609
f 613 614 615 616
f 609 610 614 613
f 610 611 615 614
f 611 612 616 615
f 612 609 613 616
f 620 619 618 617
f 621 622 623 624
f 617 618 622 621
f 618 619 623 622
f 619 620 624 623
f 620 617 621 624
f 628 627 626 625
f 629 630 631 632
f 625 626 630 629
f 626 627 631 630
f 627 628 632 631
f 628 625 629 632
f 636 635 634 633
f 637 638 639 640
f 633 634 638 637
f 634 635 639 638
f 635 636 640 639
f 636 633 637 640
f 644 643 642 641
f 645 646 647 648
f 641 642 646 645
f 642 643 647 646
f 643 644 648 647
f 644 641 645 648
f 652 651 650 649
f 653 654 655 656
f 649 650 654 653
f 650 651 655 654
f 651 652 656 655
f 652 649 653 656
f 660 659 658 657
f 661 662 663 664
f 657 658 662 661
f 658 659 663 662
f 659 660 664 663
f 660 657 661 664
f 668 667 666 665
f 669 670 671 672
f 665 666 670 669
f 666 667 671 670
f 667 668 672 671
f 668 665 669 672
f 676 675 674 673
f 677 678 679 680
f 673 674 678 677
f 674 675 679 678
f 675 676 680 679
f 676 673 677 680
f 684 683 682 681
f 685 686 687 688
f 681 682 686 685
f 682 683 687 686
f 683 684 688 687
f 684 681 685 688
f 692 691 690 689
f 693 694 695 696
f 689 690 694 693
f 690 691 695 694
f 691 692 696 695
f 692 689 693 696
f 700 699 698 697
f 701 702 703 704
f 697 698 702 701
f 698 699 703 702
f 699 700 704 703
f 700 697 701 704
f 708 707 706 705
f 709 710 711 712
f 705 706 710 709
f 706 707 711 710
f 707 708 712 711
f 708 705 709 712
f 716 715 714 713
f 717 718 719 720
f 713 714 718 717
f 714 715 719 718
f 715 716 720 719
f 716 713 717 720
f 724 723 722 721
f 725 726 727 728
f 721 722 726 725
f 722 723 727 726
f 723 724 728 727
f 724 721 725 728
f 732 731 730 729
f 733 734 735 736
f 729 730 734 733
f 730 731 735 734
f 731 732 736 735
f 732 729 733 736
f 740 739 738 737
f 741 742 743 744
f 737 738 742 741
f 738 739 743 742
f 739 740 744 743
f 740 737 741 744
f 748 747 746 745
f 749 750 751 752
f 745 746 750 749
f 746 747 751 750
f 747 748 752 751
f 748 745 749 752
f 756 755 754 753
f 757 758 759 760
f 753 754 758 757
f 754 755 759 758
f 755 756 760 759
f 756 753 757 760
f 764 763 762 761
f 765 766 767 768
f 761 762 766 765
f 762 763 767 766
f 763 764 768 767
f 764 761 765 768
f 772 771 770 769
f 773 774 775 776
f 769 770 774 773
f 770 771 775 774
f 771 772 776 775
f 772 769 773 776
f 780 779 778 777
f 781 782 783 784
f 777 778 782 781
f 778 779 783 782
f 779 780 784 783
f 780 777 781 784
f 788 787 786 785
f 789 790 791 792
f 785 786 790 789
f 786 787 791 790
f 787 788 792 791
f 788 785 789 792
f 796 795 794 793
f 797 798 799 800
f 793 794 798 797
f 794 795 799 798
f 795 796 800 799
f 796 793 797 800
f 804 803 802 801
f 805 806 807 808
f 801 802 806 805
f 802 803 807 806
f 803 804 808 807
f 804 801 805 808
f 812 811 810 809
f 813 814 815 816
f 809 810 814 813
f 810 811 815 814
f 811 812 816 815
f 812 809 813 816
f 820 819 818 817
f 821 822 823 824
f 817 818 822 821
f 818 819 823 822
f 819 820 824 823
f 820 817 821 824
f 828 827 826 825
f 829 830 831 832
f 825 826 830 829
f 826 827 831 830
f 827 828 832 831
f 828 825 829 832
f 836 835 834 833
f 837 838 839 840
f 833 834 838 837
f 834 835 839 838
f 835 836 840 839
f 836 833 837 840
f 844 843 842 841
f 845 846 847 848
f 841 842 846 845
f 842 843 847 846
f 843 844 848 847
f 844 841 845 848
f 852 851 850 849
f 853 854 855 856
f 849 850 854 853
f 850 851 855 854
f 851 852 856 855
f 852 849 853 856
f 860 859 858 857
f 861 862 863 864
f 857 858 862 861
f 858 859 863 862
f 859 860 864 863
f 860 857 861 864
f 868 867 866 865
f 869 870 871 872
f 865 866 870 869
f 866 867 871 870
f 867 868 872 871
f 868 865 869 872
f 876 875 874 873
f 877 878 879 880
f 873 874 878 877
f 874 875 879 878
f 875 876 880 879
f 876 873 877 880
f 884 883 882 881
f 885 886 887 888
f 881 882 886 885
f 882 883 887 886
f 883 884 888 887
f 884 881 885 888
f 892 891 890 889
f 893 894 895 896
f 889 890 894 893
f 890 891 895 894
f 891 892 896 895
f 892 889 893 896
f 900 899 898 897
f 901 902 903 904
f 897 898 902 901
f 898 899 903 902
f 899 900 904 903
f 900 897 901 904
f 908 907 906 905
f 909 910 911 912
f 905 906 910 909
f 906 907 911 910
f 907 908 912 911
f 908 905 909 912
f 916 915 914 913
f 917 918 919 920
f 913 914 918 917
f 914 915 919 918
f 915 916 920 919
f 916 913 917 920
f 924 923 922 921
f 925 926 927 928
f 921 922 926 925
f 922 923 927 926
f 923 924 928 927
f 924 921 925 928
f 932 931 930 929
f 933 934 935 936
f 929 930 934 933
f 930 931 935 934
f 931 932 936 935
f 932 929 933 936
f 940 939 938 937
f 941 942 943 944
f 937 938 942 941
f 938 939 943 942
f 939 940 944 943
f 940 937 941 944
f 948 947 946 945
f 949 950 951 952
f 945 946 950 949
f 946 947 951 950
f 947 948 952 951
f 948 945 949 952
f 956 955 954 953
f 957 958 959 960
f 953 954 958 957
f 954 955 959 958
f 955 956 960 959
f 956 953 957 960
f 964 963 962 961
f 965 966 967 968
f 961 962 966 965
f 962 963 967 966
f 963 964 968 967
f 964 961 965 968
f 972 971 970 969
f 973 974 975 976
f 969 970 974 973
f 970 971 975 974
f 971 972 976 975
f 972 969 973 976
f 980 979 978 977
f 981 982 983 984
f 977 978 982 981
f 978 979 983 982
f 979 980 984 983
f 980 977 981 984
f 988 987 986 985
f 989 990 991 992
f 985 986 990 989
f 986 987 991 990
f 987 988 992 991
f 988 985 989 992
f 996 995 994 993
f 997 998 999 1000
f 993 994 998 997
f 994 995 999 998
f 995 996 1000 999
f 996 993 997 1000
f 1004 1003 1002 1001
f 1005 1006 1007 1008
f 1001 1002 1006 1005
f 1002 1003 1007 1006
f 1003 1004 1008 1007
f 1004 1001 1005 1008
f 1012 1011 1010 1009
f 1013 1014 1015 1016
f 1009 1010 1014 1013
f 1010 1011 1015 1014
f 1011 1012 1016 1015
f 1012 1009 1013 1016
f 1020 1019 1018 1017
f 1021 1022 1023 1024
f 1017 1018 1022 1021
f 1018 1019 1023 1022
f 1019 1020 1024 1023
f 1020 1017 1021 1024
f 1028 1027 1026 1025
f 1029 1030 1031 1032
f 1025 1026 1030 1029
f 1026 1027 1031 1030
f 1027 1028 1032 1031
f 1028 1025 1029 1032
f 1036 1035 1034 1033
f 1037 1038 1039 1040
f 1033 1034 1038 1037
f 1034 1035 1039 1038
f 1035 1036 1040 1039
f 1036 1033 1037 1040
f 1044 1043 1042 1041
f 1045 1046 1047 1048
f 1041 1042 1046 1045
f 1042 1043 1047 1046
f 1043 1044 1048 1047
f 1044 1041 1045 1048
f 1052 1051 1050 1049
f 1053 1054 1055 1056
f 1049 1050 1054 1053
f 1050 1051 1055 1054
f 1051 1052 1056 1055
f 1052 1049 1053 1056
f 1060 1059 1058 1057
f 1061 1062 1063 1064
f 1057 1058 1062 1061
f 1058 1059 1063 1062
f 1059 1060 1064 1063
f 1060 1057 1061 1064
f 1068 1067 1066 1065
f 1069 1070 1071 1072
f 1065 1066 1070 1069
f 1066 1067 1071 1070
f 1067 1068 1072 1071
f 1068 1065 1069 1072
f 1076 1075 1074 1073
f 1077 1078 1079 1080
f 1073 1074 1078 1077
f 1074 1075 1079 1078
f 1075 1076 1080 1079
f 1076 1073 1077 1080
f 1084 1083 1082 1081
f 1085 1086 1087 1088
f 1081 1082 1086 1085
f 1082 1083 1087 1086
f 1083 1084 1088 1087
f 1084 1081 1085 1088
f 1092 1091 1090 1089
f 1093 1094 1095 1096
f 1089 1090 1094 1093
f 1090 1091 1095 1094
f 1091 1092 1096 1095
f 1092 1089 1093 1096
f 1100 1099 1098 1097
f 1101 1102 1103 1104
f 1097 1098 1102 1101
f 1098 1099 1103 1102
f 1099 1100 1104 1103
f 1100 1097 1101 1104
f 1108 1107 1106 1105
f 1109 1110 1111 1112
f 1105 1106 1110 1109
f 1106 1107 1111 1110
f 1107 1108 1112 1111
f 1108 1105 1109 1112
f 1116 1115 1114 1113
f 1117 1118 1119 1120
f 1113 1114 1118 1117
f 1114 1115 1119 1118
f 1115 1116 1120 1119
f 1116 1113 1117 1120
f 1124 1123 1122 1121
f 1125 1126 1127 1128
f 1121 1122 1126 1125
f 1122 1123 1127 1126
f 1123 1124 1128 1127
f 1124 1121 1125 1128
f 1132 1131 1130 1129
f 1133 1134 1135 1136
f 1129 1130 1134 1133
f 1130 1131 1135 1134
f 1131 1132 1136 1135
f 1132 1129 1133 1136
f 1140 1139 1138 1137
f 1141 1142 1143 1144
f 1137 1138 1142 1141
f 1138 1139 1143 1142
f 1139 1140 1144 1143
f 1140 1137 1141 1144
f 1148 1147 1146 1145
f 1149 1150 1151 1152
f 1145 1146 1150 1149
f 1146 1147 1151 1150
f 1147 1148 1152 1151
f 1148 1145 1149 1152
f 1156 1155 1154 1153
f 1157 1158 1159 1160
f 1153 1154 1158 1157
f 1154 1155 1159 1158
f 1155 1156 1160 1159
f 1156 1153 1157 1160
f 1164 1163 1162 1161
f 1165 1166 1167 1168
f 1161 1162 1166 1165
f 1162 1163 1167 1166
f 1163 1164 1168 1167
f 1164 1161 1165 1168
f 1172 1171 1170 1169
f 1173 1174 1175 1176
f 1169 1170 1174 1173
f 1170 1171 1175 1174
f 1171 1172 1176 1175
f 1172 1169 1173 1176
f 1180 1179 1178 1177
f 1181 1182 1183 1184
f 1177 1178 1182 1181
f 1178 1179 1183 1182
f 1179 1180 1184 1183
f 1180 1177 1181 1184
f 1188 1187 1186 1185
f 1189 1190 1191 1192
f 1185 1186 1190 1189
f 1186 1187 1191 1190
f 1187 1188 1192 1191
f 1188 1185 1189 1192
f 1196 1195 1194 1193
f 1197 1198 1199 1200
f 1193 1194 1198 1197
f 1194 1195 1199 1198
f 1195 1196 1200 1199
f 1196 1193 1197 1200
f 1204 1203 1202 1201
f 1205 1206 1207 1208
f 1201 1202 1206 1205
f 1202 1203 1207 1206
f 1203 1204 1208 1207
f 1204 1201 1205 1208
f 1212 1211 1210 1209
f 1213 1214 1215 1216
f 1209 1210 1214 1213
f 1210 1211 1215 1214
f 1211 1212 1216 1215
f 1212 1209 1213 1216
f 1220 1219 1218 1217
f 1221 1222 1223 1224
f 1217 1218 1222 1221
f 1218 1219 1223 1222
f 1219 1220 1224 1223
f 1220 1217 1221 1224
f 1228 1227 1226 1225
f 1229 1230 1231 1232
f 1225 1226 1230 1229
f 1226 1227 1231 1230
f 1227 1228 1232 1231
f 1228 1225 1229 1232
f 1236 1235 1234 1233
f 1237 1238 1239 1240
f 1233 1234 1238 1237
f 1234 1235 1239 1238
f 1235 1236 1240 1239
f 1236 1233 1237 1240
f 1244 1243 1242 1241
f 1245 1246 1247 1248
f 1241 1242 1246 1245
f 1242 1243 1247 1246
f 1243 1244 1248 1247
f 1244 1241 1245 1248
f 1252 1251 1250 1249
f 1253 1254 1255 1256
f 1249 1250 1254 1253
f 1250 1251 1255 1254
f 1251 1252 1256 1255
f 1252 1249 1253 1256
f 1260 1259 1258 1257
f 1261 1262 1263 1264
f 1257 1258 1262 1261
f 1258 1259 1263 1262
f 1259 1260 1264 1263
f 1260 1257 1261 1264
f 1268 1267 1266 1265
f 1269 1270 1271 1272
f 1265 1266 1270 1269
f 1266 1267 1271 1270
f 1267 1268 1272 1271
f 1268 1265 1269 1272
f 1276 1275 1274 1273
f 1277 1278 1279 1280
f 1273 1274 1278 1277
f 1274 1275 1279 1278
f 1275 1276 1280 1279
f 1276 1273 1277 1280
f 1284 1283 1282 1281
f 1285 1286 1287 1288
f 1281 1282 1286 1285
f 1282 1283 1287 1286
f 1283 1284 1288 1287
f 1284 1281 1285 1288
f 1292 1291 1290 1289
f 1293 1294 1295 1296
f 1289 1290 1294 1293
f 1290 1291 1295 1294
f 1291 1292 1296 1295
f 1292 1289 1293 1296
f 1300 1299 1298 1297
f 1301 1302 1303 1304
f 1297 1298 1302 1301
f 1298 1299 1303 1302
f 1299 1300 1304 1303
f 1300 1297 1301 1304
f 1308 1307 1306 1305
f 1309 1310 1311 1312
f 1305 1306 1310 1309
f 1306 1307 1311 1310
f 1307 1308 1312 1311
f 1308 1305 1309 1312
f 1316 1315 1314 1313
f 1317 1318 1319 1320
f 1313 1314 1318 1317
f 1314 1315 1319 1318
f 1315 1316 1320 1319
f 1316 1313 1317 1320
f 1324 1323 1322 1321
f 1325 1326 1327 1328
f 1321 1322 1326 1325
f 1322 1323 1327 1326
f 1323 1324 1328 1327
f 1324 1321 1325 1328
f 1332 1331 1330 1329
f 1333 1334 1335 1336
f 1329 1330 1334 1333
f 1330 1331 1335 1334
f 1331 1332 1336 1335
f 1332 1329 1333 1336
f 1340 1339 1338 1337
f 1341 1342 1343 1344
f 1337 1338 1342 1341
f 1338 1339 1343 1342
f 1339 1340 1344 1343
f 1340 1337 1341 1344
f 1348 1347 1346 1345
f 1349 1350 1351 1352
f 1345 1346 1350 1349
f 1346 1347 1351 1350
f 1347 1348 1352 1351
f 1348 1345 1349 1352
f 1356 1355 1354 1353
f 1357 1358 1359 1360
f 1353 1354 1358 1357
f 1354 1355 1359 1358
f 1355 1356 1360 1359
f 1356 1353 1357 1360
f 1364 1363 1362 1361
f 1365 1366 1367 1368
f 1361 1362 1366 1365
f 1362 1363 1367 1366
f 1363 1364 1368 1367
f 1364 1361 1365 1368
f 1372 1371 1370 1369
f 1373 1374 1375 1376
f 1369 1370 1374 1373
f 1370 1371 1375 1374
f 1371 1372 1376 1375
f 1372 1369 1373 1376
f 1380 1379 1378 1377
f 1381 1382 1383 1384
f 1377 1378 1382 1381
f 1378 1379 1383 1382
f 1379 1380 1384 1383
f 1380 1377 1381 1384
f 1388 1387 1386 1385
f 1389 1390 1391 1392
f 1385 1386 1390 1389
f 1386 1387 1391 1390
f 1387 1388 1392 1391
f 1388 1385 1389 1392
f 1396 1395 1394 1393
f 1397 1398 1399 1400
f 1393 1394 1398 1397
f 1394 1395 1399 1398
f 1395 1396 1400 1399
f 1396 1393 1397 1400
f 1404 1403 1402 1401
f 1405 1406 1407 1408
f 1401 1402 1406 1405
f 1402 1403 1407 1406
f 1403 1404 1408 1407
f 1404 1401 1405 1408
f 1412 1411 1410 1409
f 1413 1414 1415 1416
f 1409 1410 1414 1413
f 1410 1411 1415 1414
f 1411 1412 1416 1415
f 1412 1409 1413 1416
f 1420 1419 1418 1417
f 1421 1422 1423 1424
f 1417 1418 1422 1421
f 1418 1419 1423 1422
f 1419 1420 1424 1423
f 1420 1417 1421 1424
f 1428 1427 1426 1425
f 1429 1430 1431 1432
f 1425 1426 1430 1429
f 1426 1427 1431 1430
f 1427 1428 1432 1431
f 1428 1425 1429 1432
f 1436 1435 1434 1433
f 1437 1438 1439 1440
f 1433 1434 1438 1437
f 1434 1435 1439 1438
f 1435 1436 1440 1439
f 1436 1433 1437 1440
f 1444 1443 1442 1441
f 1445 1446 1447 1448
f 1441 1442 1446 1445
f 1442 1443 1447 1446
f 1443 1444 1448 1447
f 1444 1441 1445 1448
f 1452 1451 1450 1449
f 1453 1454 1455 1456
f 1449 1450 1454 1453
f 1450 1451 1455 1454
f 1451 1452 1456 1455
f 1452 1449 1453 1456
f 1460 1459 1458 1457
f 1461 1462 1463 1464
f 1457 1458 1462 1461
f 1458 1459 1463 1462
f 1459 1460 1464 1463
f 1460 1457 1461 1464
f 1468 1467 1466 1465
f 1469 1470 1471 1472
f 1465 1466 1470 1469
f 1466 1467 1471 1470
f 1467 1468 1472 1471
f 1468 1465 1469 1472
f 1476 1475 1474 1473
f 1477 1478 1479 1480
f 1473 1474 1478 1477
f 1474 1475 1479 1478
f 1475 1476 1480 1479
f 1476 1473 1477 1480
f 1484 1483 1482 1481
f 1485 1486 1487 1488
f 1481 1482 1486 1485
f 1482 1483 1487 1486
f 1483 1484 1488 1487
f 1484 1481 1485 1488
f 1492 1491 1490 1489
f 1493 1494 1495 1496
f 1489 1490 1494 1493
f 1490 1491 1495 1494
f 1491 1492 1496 1495
f 1492 1489 1493 1496
f 1500 1499 1498 1497
f 1501 1502 1503 1504
f 1497 1498 1502 1501
f 1498 1499 1503 1502
f 1499 1500 1504 1503
f 1500 1497 1501 1504
f 1508 1507 1506 1505
f 1509 1510 1511 1512
f 1505 1506 1510 1509
f 1506 1507 1511 1510
f 1507 1508 1512 1511
f 1508 1505 1509 1512
f 1516 1515 1514 1513
f 1517 1518 1519 1520
f 1513 1514 1518 1517
f 1514 1515 1519 1518
f 1515 1516 1520 1519
f 1516 1513 1517 1520
f 1524 1523 1522 1521
f 1525 1526 1527 1528
f 1521 1522 1526 1525
f 1522 1523 1527 1526
f 1523 1524 1528 1527
f 1524 1521 1525 1528
f 1532 1531 1530 1529
f 1533 1534 1535 1536
f 1529 1530 1534 1533
f 1530 1531 1535 1534
f 1531 1532 1536 1535
f 1532 1529 1533 1536
f 1540 1539 1538 1537
f 1541 1542 1543 1544
f 1537 1538 1542 1541
f 1538 1539 1543 1542
f 1539 1540 1544 1543
f 1540 1537 1541 1544
f 1548 1547 1546 1545
f 1549 1550 1551 1552
f 1545 1546 1550 1549
f 1546 1547 1551 1550
f 1547 1548 1552 1551
f 1548 1545 1549 1552
f 1556 1555 1554 1553
f 1557 1558 1559 1560
f 1553 1554 1558 1557
f 1554 1555 1559 1558
f 1555 1556 1560 1559
f 1556 1553 1557 1560
f 1564 1563 1562 1561
f 1565 1566 1567 1568
f 1561 1562 1566 1565
f 1562 1563 1567 1566
f 1563 1564 1568 1567
f 1564 1561 1565 1568
f 1572 1571 1570 1569
f 1573 1574 1575 1576
f 1569 1570 1574 1573
f 1570 1571 1575 1574
f 1571 1572 1576 1575
f 1572 1569 1573 1576
f 1580 1579 1578 1577
f 1581 1582 1583 1584
f 1577 1578 1582 1581
f 1578 1579 1583 1582
f 1579 1580 1584 1583
f 1580 1577 1581 1584
f 1588 1587 1586 1585
f 1589 1590 1591 1592
f 1585 1586 1590 1589
f 1586 1587 1591 1590
f 1587 1588 1592 1591
f 1588 1585 1589 1592
f 1596 1595 1594 1593
f 1597 1598 1599 1600
f 1593 1594 1598 1597
f 1594 1595 1599 1598
f 1595 1596 1600 1599
f 1596 1593 1597 1600
f 1604 1603 1602 1601
f 1605 1606 1607 1608
f 1601 1602 1606 1605
f 1602 1603 1607 1606
f 1603 1604 1608 1607
f 1604 1601 1605 1608
f 1612 1611 1610 1609
f 1613 1614 1615 1616
f 1609 1610 1614 1613
f 1610 1611 1615 1614
f 1611 1612 1616 1615
f 1612 1609 1613 1616
f 1620 1619 1618 1617
f 1621 1622 1623 1624
f 1617 1618 1622 1621
f 1618 1619 1623 1622
f 1619 1620 1624 1623
f 1620 1617 1621 1624
f 1628 1627 1626 1625
f 1629 1630 1631 1632
f 1625 1626 1630 1629
f 1626 1627 1631 1630
f 1627 1628 1632 1631
f 1628 1625 1629 1632
f 1636 1635 1634 1633
f 1637 1638 1639 1640
f 1633 1634 1638 1637
f 1634 1635 1639 1638
f 1635 1636 1640 1639
f 1636 1633 1637 1640
f 1644 1643 1642 1641
f 1645 1646 1647 1648
f 1641 1642 1646 1645
f 1642 1643 1647 1646
f 1643 1644 1648 1647
f 1644 1641 1645 1648
f 1652 1651 1650 1649
f 1653 1654 1655 1656
f 1649 1650 1654 1653
f 1650 1651 1655 1654
f 1651 1652 1656 1655
f 1652 1649 1653 1656
f 1660 1659 1658 1657
f 1661 1662 1663 1664
f 1657 1658 1662 1661
f 1658 1659 1663 1662
f 1659 1660 1664 1663
f 1660 1657 1661 1664
f 1668 1667 1666 1665
f 1669 1670 1671 1672
f 1665 1666 1670 1669
f 1666 1667 1671 1670
f 1667 1668 1672 1671
f 1668 1665 1669 1672
f 1676 1675 1674 1673
f 1677 1678 1679 1680
f 1673 1674 1678 1677
f 1674 1675 1679 1678
f 1675 1676 1680 1679
f 1676 1673 1677 1680
f 1684 1683 1682 1681
f 1685 1686 1687 1688
f 1681 1682 1686 1685
f 1682 1683 1687 1686
f 1683 1684 1688 1687
f 1684 1681 1685 1688
f 1692 1691 1690 1689
f 1693 1694 1695 1696
f 1689 1690 1694 1693
f 1690 1691 1695 1694
f 1691 1692 1696 1695
f 1692 1689 1693 1696
f 1700 1699 1698 1697
f 1701 1702 1703 1704
f 1697 1698 1702 1701
f 1698 1699 1703 1702
f 1699 1700 1704 1703
f 1700 1697 1701 1704
f 1708 1707 1706 1705
f 1709 1710 1711 1712
f 1705 1706 1710 1709
f 1706 1707 1711 1710
f 1707 1708 1712 1711
f 1708 1705 1709 1712
f 1716 1715 1714 1713
f 1717 1718 1719 1720
f 1713 1714 1718 1717
f 1714 1715 1719 1718
f 1715 1716 1720 1719
f 1716 1713 1717 1720
f 1724 1723 1722 1721
f 1725 1726 1727 1728
f 1721 1722 1726 1725
f 1722 1723 1727 1726
f 1723 1724 1728 1727
f 1724 1721 1725 1728
f 1732 1731 1730 1729
f 1733 1734 1735 1736
f 1729 1730 1734 1733
f 1730 1731 1735 1734
f 1731 1732 1736 1735
f 1732 1729 1733 1736
f 1740 1739 1738 1737
f 1741 1742 1743 1744
f 1737 1738 1742 1741
f 1738 1739 1743 1742
f 1739 1740 1744 1743
f 1740 1737 1741 1744
f 1748 1747 1746 1745
f 1749 1750 1751 1752
f 1745 1746 1750 1749
f 1746 1747 1751 1750
f 1747 1748 1752 1751
f 1748 1745 1749 1752
f 1756 1755 1754 1753
f 1757 1758 1759 1760
f 1753 1754 1758 1757
f 1754 1755 1759 1758
f 1755 1756 1760 1759
f 1756 1753 1757 1760
f 1764 1763 1762 1761
f 1765 1766 1767 1768
f 1761 1762 1766 1765
f 1762 1763 1767 1766
f 1763 1764 1768 1767
f 1764 1761 1765 1768
f 1772 1771 1770 1769
f 1773 1774 1775 1776
f 1769 1770 1774 1773
f 1770 1771 1775 1774
f 1771 1772 1776 1775
f 1772 1769 1773 1776
f 1780 1779 1778 1777
f 1781 1782 1783 1784
f 1777 1778 1782 1781
f 1778 1779 1783 1782
f 1779 1780 1784 1783
f 1780 1777 1781 1784
f 1788 1787 1786 1785
f 1789 1790 1791 1792
f 1785 1786 1790 1789
f 1786 1787 1791 1790
f 1787 1788 1792 1791
f 1788 1785 1789 1792
f 1796 1795 1794 1793
f 1797 1798 1799 1800
f 1793 1794 1798 1797
f 1794 1795 1799 1798
f 1795 1796 1800 1799
f 1796 1793 1797 1800
f 1804 1803 1802 1801
f 1805 1806 1807 1808
f 1801 1802 1806 1805
f 1802 1803 1807 1806
f 1803 1804 1808 1807
f 1804 1801 1805 1808
f 1812 1811 1810 1809
f 1813 1814 1815 1816
f 1809 1810 1814 1813
f 1810 1811 1815 1814
f 1811 1812 1816 1815
f 1812 1809 1813 1816
f 1820 1819 1818 1817
f 1821 1822 1823 1824
f 1817 1818 1822 1821
f 1818 1819 1823 1822
f 1819 1820 1824 1823
f 1820 1817 1821 1824
f 1828 1827 1826 1825
f 1829 1830 1831 1832
f 1825 1826 1830 1829
f 1826 1827 1831 1830
f 1827 1828 1832 1831
f 1828 1825 1829 1832
f 1836 1835 1834 1833
f 1837 1838 1839 1840
f 1833 1834 1838 1837
f 1834 1835 1839 1838
f 1835 1836 1840 1839
f 1836 1833 1837 1840
f 1844 1843 1842 1841
f 1845 1846 1847 1848
f 1841 1842 1846 1845
f 1842 1843 1847 1846
f 1843 1844 1848 1847
f 1844 1841 1845 1848
f 1852 1851 1850 1849
f 1853 1854 1855 1856
f 1849 1850 1854 1853
f 1850 1851 1855 1854
f 1851 1852 1856 1855
f 1852 1849 1853 1856
f 1860 1859 1858 1857
f 1861 1862 1863 1864
f 1857 1858 1862 1861
f 1858 1859 1863 1862
f 1859 1860 1864 1863
f 1860 1857 1861 1864
f 1868 1867 1866 1865
f 1869 1870 1871 1872
f 1865 1866 1870 1869
f 1866 1867 1871 1870
f 1867 1868 1872 1871
f 1868 1865 1869 1872
f 1876 1875 1874 1873
f 1877 1878 1879 1880
f 1873 1874 1878 1877
f 1874 1875 1879 1878
f 1875 1876 1880 1879
f 1876 1873 1877 1880
f 1884 1883 1882 1881
f 1885 1886 1887 1888
f 1881 1882 1886 1885
f 1882 1883 1887 1886
f 1883 1884 1888 1887
f 1884 1881 1885 1888
f 1892 1891 1890 1889
f 1893 1894 1895 1896
f 1889 1890 1894 1893
f 1890 1891 1895 1894
f 1891 1892 1896 1895
f 1892 1889 1893 1896
f 1900 1899 1898 1897
f 1901 1902 1903 1904
f 1897 1898 1902 1901
f 1898 1899 1903 1902
f 1899 1900 1904 1903
f 1900 1897 1901 1904
f 1908 1907 1906 1905
f 1909 1910 1911 1912
f 1905 1906 1910 1909
f 1906 1907 1911 1910
f 1907 1908 1912 1911
f 1908 1905 1909 1912
f 1916 1915 1914 1913
f 1917 1918 1919 1920
f 1913 1914 1918 1917
f 1914 1915 1919 1918
f 1915 1916 1920 1919
f 1916 1913 1917 1920
f 1924 1923 1922 1921
f 1925 1926 1927 1928
f 1921 1922 1926 1925
f 1922 1923 1927 1926
f 1923 1924 1928 1927
f 1924 1921 1925 1928
f 1932 1931 1930 1929
f 1933 1934 1935 1936
f 1929 1930 1934 1933
f 1930 1931 1935 1934
f 1931 1932 1936 1935
f 1932 1929 1933 1936
f 1940 1939 1938 1937
f 1941 1942 1943 1944
f 1937 1938 1942 1941
f 1938 1939 1943 1942
f 1939 1940 1944 1943
f 1940 1937 1941 1944
f 1948 1947 1946 1945
f 1949 1950 1951 1952
f 1945 1946 1950 1949
f 1946 1947 1951 1950
f 1947 1948 1952 1951
f 1948 1945 1949 1952
f 1956 1955 1954 1953
f 1957 1958 1959 1960
f 1953 1954 1958 1957
f 1954 1955 1959 1958
f 1955 1956 1960 1959
f 1956 1953 1957 1960
f 1964 1963 1962 1961
f 1965 1966 1967 1968
f 1961 1962 1966 1965
f 1962 1963 1967 1966
f 1963 1964 1968 1967
f 1964 1961 1965 1968
