# Original Basketbroom procedural mesh; units cm, Z up
o SM_BB_SmallHoop
s 1
v 0.00000 230.12000 0.00000
v 8.00000 227.97641 0.00000
v 13.85641 222.12000 0.00000
v 16.00000 214.12000 0.00000
v 13.85641 206.12000 0.00000
v 8.00000 200.26359 0.00000
v 0.00000 198.12000 0.00000
v -8.00000 200.26359 0.00000
v -13.85641 206.12000 0.00000
v -16.00000 214.12000 0.00000
v -13.85641 222.12000 0.00000
v -8.00000 227.97641 0.00000
v 0.00000 229.84281 11.29145
v 8.00000 227.70180 11.18627
v 13.85641 221.85245 10.89891
v 16.00000 213.86208 10.50637
v 13.85641 205.87172 10.11383
v 8.00000 200.02237 9.82647
v 0.00000 197.88136 9.72129
v -8.00000 200.02237 9.82647
v -13.85641 205.87172 10.11383
v -16.00000 213.86208 10.50637
v -13.85641 221.85245 10.89891
v -8.00000 227.70180 11.18627
v 0.00000 229.01191 22.55570
v 8.00000 226.87864 22.34560
v 13.85641 221.05043 21.77157
v 16.00000 213.08895 20.98743
v 13.85641 205.12748 20.20329
v 8.00000 199.29927 19.62926
v 0.00000 197.16600 19.41916
v -8.00000 199.29927 19.62926
v -13.85641 205.12748 20.20329
v -16.00000 213.08895 20.98743
v -13.85641 221.05043 21.77157
v -8.00000 226.87864 22.34560
v 0.00000 227.62930 33.76562
v 8.00000 225.50891 33.45109
v 13.85641 219.71589 32.59177
v 16.00000 211.80247 31.41793
v 13.85641 203.88906 30.24409
v 8.00000 198.09604 29.38477
v 0.00000 195.97565 29.07024
v -8.00000 198.09604 29.38477
v -13.85641 203.88906 30.24409
v -16.00000 211.80247 31.41793
v -13.85641 219.71589 32.59177
v -8.00000 225.50891 33.45109
v 0.00000 225.69831 44.89418
v 8.00000 223.59590 44.47599
v 13.85641 217.85203 43.33346
v 16.00000 210.00574 41.77274
v 13.85641 202.15946 40.21202
v 8.00000 196.41558 39.06949
v 0.00000 194.31318 38.65129
v -8.00000 196.41558 39.06949
v -13.85641 202.15946 40.21202
v -16.00000 210.00574 41.77274
v -13.85641 217.85203 43.33346
v -8.00000 223.59590 44.47599
v 0.00000 223.22359 55.91460
v 8.00000 221.14424 55.39375
v 13.85641 215.46334 53.97076
v 16.00000 207.70309 52.02692
v 13.85641 199.94284 50.08307
v 8.00000 194.26194 48.66008
v 0.00000 192.18259 48.13923
v -8.00000 194.26194 48.66008
v -13.85641 199.94284 50.08307
v -16.00000 207.70309 52.02692
v -13.85641 215.46334 53.97076
v -8.00000 221.14424 55.39375
v 0.00000 220.21111 66.80031
v 8.00000 218.15982 66.17806
v 13.85641 212.55559 64.47803
v 16.00000 204.90006 62.15576
v 13.85641 197.24454 59.83348
v 8.00000 191.64031 58.13345
v 0.00000 189.58902 57.51120
v -8.00000 191.64031 58.13345
v -13.85641 197.24454 59.83348
v -16.00000 204.90006 62.15576
v -13.85641 212.55559 64.47803
v -8.00000 218.15982 66.17806
v 0.00000 216.66812 77.52509
v 8.00000 214.64983 76.80294
v 13.85641 209.13577 74.82997
v 16.00000 201.60342 72.13486
v 13.85641 194.07106 69.43974
v 8.00000 188.55700 67.46677
v 0.00000 186.53871 66.74462
v -8.00000 188.55700 67.46677
v -13.85641 194.07106 69.43974
v -16.00000 201.60342 72.13486
v -13.85641 209.13577 74.82997
v -8.00000 214.64983 76.80294
v 0.00000 212.60316 88.06311
v 8.00000 210.62274 87.24279
v 13.85641 205.21212 85.00164
v 16.00000 197.82109 81.94018
v 13.85641 190.43005 78.87871
v 8.00000 185.01944 76.63756
v 0.00000 183.03901 75.81724
v -8.00000 185.01944 76.63756
v -13.85641 190.43005 78.87871
v -16.00000 197.82109 81.94018
v -13.85641 205.21212 85.00164
v -8.00000 210.62274 87.24279
v 0.00000 208.02602 98.38898
v 8.00000 206.08823 97.47247
v 13.85641 200.79410 94.96854
v 16.00000 193.56219 91.54810
v 13.85641 186.33027 88.12766
v 8.00000 181.03614 85.62372
v 0.00000 179.09836 84.70722
v -8.00000 181.03614 85.62372
v -13.85641 186.33027 88.12766
v -16.00000 193.56219 91.54810
v -13.85641 200.79410 94.96854
v -8.00000 206.08823 97.47247
v 0.00000 202.94772 108.47782
v 8.00000 201.05724 107.46733
v 13.85641 195.89235 104.70664
v 16.00000 188.83698 100.93547
v 13.85641 181.78161 97.16430
v 8.00000 176.61672 94.40360
v 0.00000 174.72624 93.39312
v -8.00000 176.61672 94.40360
v -13.85641 181.78161 97.16430
v -16.00000 188.83698 100.93547
v -13.85641 195.89235 104.70664
v -8.00000 201.05724 107.46733
v 0.00000 197.38051 118.30532
v 8.00000 195.54189 117.20330
v 13.85641 190.51868 114.19250
v 16.00000 183.65685 110.07968
v 13.85641 176.79502 105.96686
v 8.00000 171.77181 102.95606
v 0.00000 169.93319 101.85404
v -8.00000 171.77181 102.95606
v -13.85641 176.79502 105.96686
v -16.00000 183.65685 110.07968
v -13.85641 190.51868 114.19250
v -8.00000 195.54189 117.20330
v 0.00000 191.33779 127.84782
v 8.00000 189.55545 126.65691
v 13.85641 184.68603 123.40326
v 16.00000 178.03427 118.95870
v 13.85641 171.38252 114.51414
v 8.00000 166.51309 111.26049
v 0.00000 164.73076 110.06957
v -8.00000 166.51309 111.26049
v -13.85641 171.38252 114.51414
v -16.00000 178.03427 118.95870
v -13.85641 184.68603 123.40326
v -8.00000 189.55545 126.65691
v 0.00000 184.83412 137.08232
v 8.00000 183.11237 135.80539
v 13.85641 178.40846 132.31673
v 16.00000 171.98280 127.55114
v 13.85641 165.55714 122.78554
v 8.00000 160.85323 119.29688
v 0.00000 159.13148 118.01995
v -8.00000 160.85323 119.29688
v -13.85641 165.55714 122.78554
v -16.00000 171.98280 127.55114
v -13.85641 178.40846 132.31673
v -8.00000 183.11237 135.80539
v 0.00000 177.88517 145.98658
v 8.00000 176.22815 144.62670
v 13.85641 171.70108 140.91144
v 16.00000 165.51700 135.83629
v 13.85641 159.33291 130.76114
v 8.00000 154.80585 127.04588
v 0.00000 153.14883 125.68600
v -8.00000 154.80585 127.04588
v -13.85641 159.33291 130.76114
v -16.00000 165.51700 135.83629
v -13.85641 171.70108 140.91144
v -8.00000 176.22815 144.62670
v 0.00000 170.50767 154.53915
v 8.00000 168.91937 153.09960
v 13.85641 164.58006 149.16668
v 16.00000 158.65245 143.79420
v 13.85641 152.72485 138.42173
v 8.00000 148.38554 134.48881
v 0.00000 146.79724 133.04926
v -8.00000 148.38554 134.48881
v -13.85641 152.72485 138.42173
v -16.00000 158.65245 143.79420
v -13.85641 164.58006 149.16668
v -8.00000 168.91937 153.09960
v 0.00000 162.71941 162.71941
v 8.00000 161.20366 161.20366
v 13.85641 157.06256 157.06256
v 16.00000 151.40570 151.40570
v 13.85641 145.74885 145.74885
v 8.00000 141.60775 141.60775
v 0.00000 140.09200 140.09200
v -8.00000 141.60775 141.60775
v -13.85641 145.74885 145.74885
v -16.00000 151.40570 151.40570
v -13.85641 157.06256 157.06256
v -8.00000 161.20366 161.20366
v 0.00000 154.53915 170.50767
v 8.00000 153.09960 168.91937
v 13.85641 149.16668 164.58006
v 16.00000 143.79420 158.65245
v 13.85641 138.42173 152.72485
v 8.00000 134.48881 148.38554
v 0.00000 133.04926 146.79724
v -8.00000 134.48881 148.38554
v -13.85641 138.42173 152.72485
v -16.00000 143.79420 158.65245
v -13.85641 149.16668 164.58006
v -8.00000 153.09960 168.91937
v 0.00000 145.98658 177.88517
v 8.00000 144.62670 176.22815
v 13.85641 140.91144 171.70108
v 16.00000 135.83629 165.51700
v 13.85641 130.76114 159.33291
v 8.00000 127.04588 154.80585
v 0.00000 125.68600 153.14883
v -8.00000 127.04588 154.80585
v -13.85641 130.76114 159.33291
v -16.00000 135.83629 165.51700
v -13.85641 140.91144 171.70108
v -8.00000 144.62670 176.22815
v 0.00000 137.08232 184.83412
v 8.00000 135.80539 183.11237
v 13.85641 132.31673 178.40846
v 16.00000 127.55114 171.98280
v 13.85641 122.78554 165.55714
v 8.00000 119.29688 160.85323
v 0.00000 118.01995 159.13148
v -8.00000 119.29688 160.85323
v -13.85641 122.78554 165.55714
v -16.00000 127.55114 171.98280
v -13.85641 132.31673 178.40846
v -8.00000 135.80539 183.11237
v 0.00000 127.84782 191.33779
v 8.00000 126.65691 189.55545
v 13.85641 123.40326 184.68603
v 16.00000 118.95870 178.03427
v 13.85641 114.51414 171.38252
v 8.00000 111.26049 166.51309
v 0.00000 110.06957 164.73076
v -8.00000 111.26049 166.51309
v -13.85641 114.51414 171.38252
v -16.00000 118.95870 178.03427
v -13.85641 123.40326 184.68603
v -8.00000 126.65691 189.55545
v 0.00000 118.30532 197.38051
v 8.00000 117.20330 195.54189
v 13.85641 114.19250 190.51868
v 16.00000 110.07968 183.65685
v 13.85641 105.96686 176.79502
v 8.00000 102.95606 171.77181
v 0.00000 101.85404 169.93319
v -8.00000 102.95606 171.77181
v -13.85641 105.96686 176.79502
v -16.00000 110.07968 183.65685
v -13.85641 114.19250 190.51868
v -8.00000 117.20330 195.54189
v 0.00000 108.47782 202.94772
v 8.00000 107.46733 201.05724
v 13.85641 104.70664 195.89235
v 16.00000 100.93547 188.83698
v 13.85641 97.16430 181.78161
v 8.00000 94.40360 176.61672
v 0.00000 93.39312 174.72624
v -8.00000 94.40360 176.61672
v -13.85641 97.16430 181.78161
v -16.00000 100.93547 188.83698
v -13.85641 104.70664 195.89235
v -8.00000 107.46733 201.05724
v 0.00000 98.38898 208.02602
v 8.00000 97.47247 206.08823
v 13.85641 94.96854 200.79410
v 16.00000 91.54810 193.56219
v 13.85641 88.12766 186.33027
v 8.00000 85.62372 181.03614
v 0.00000 84.70722 179.09836
v -8.00000 85.62372 181.03614
v -13.85641 88.12766 186.33027
v -16.00000 91.54810 193.56219
v -13.85641 94.96854 200.79410
v -8.00000 97.47247 206.08823
v 0.00000 88.06311 212.60316
v 8.00000 87.24279 210.62274
v 13.85641 85.00164 205.21212
v 16.00000 81.94018 197.82109
v 13.85641 78.87871 190.43005
v 8.00000 76.63756 185.01944
v 0.00000 75.81724 183.03901
v -8.00000 76.63756 185.01944
v -13.85641 78.87871 190.43005
v -16.00000 81.94018 197.82109
v -13.85641 85.00164 205.21212
v -8.00000 87.24279 210.62274
v 0.00000 77.52509 216.66812
v 8.00000 76.80294 214.64983
v 13.85641 74.82997 209.13577
v 16.00000 72.13486 201.60342
v 13.85641 69.43974 194.07106
v 8.00000 67.46677 188.55700
v 0.00000 66.74462 186.53871
v -8.00000 67.46677 188.55700
v -13.85641 69.43974 194.07106
v -16.00000 72.13486 201.60342
v -13.85641 74.82997 209.13577
v -8.00000 76.80294 214.64983
v 0.00000 66.80031 220.21111
v 8.00000 66.17806 218.15982
v 13.85641 64.47803 212.55559
v 16.00000 62.15576 204.90006
v 13.85641 59.83348 197.24454
v 8.00000 58.13345 191.64031
v 0.00000 57.51120 189.58902
v -8.00000 58.13345 191.64031
v -13.85641 59.83348 197.24454
v -16.00000 62.15576 204.90006
v -13.85641 64.47803 212.55559
v -8.00000 66.17806 218.15982
v 0.00000 55.91460 223.22359
v 8.00000 55.39375 221.14424
v 13.85641 53.97076 215.46334
v 16.00000 52.02692 207.70309
v 13.85641 50.08307 199.94284
v 8.00000 48.66008 194.26194
v 0.00000 48.13923 192.18259
v -8.00000 48.66008 194.26194
v -13.85641 50.08307 199.94284
v -16.00000 52.02692 207.70309
v -13.85641 53.97076 215.46334
v -8.00000 55.39375 221.14424
v 0.00000 44.89418 225.69831
v 8.00000 44.47599 223.59590
v 13.85641 43.33346 217.85203
v 16.00000 41.77274 210.00574
v 13.85641 40.21202 202.15946
v 8.00000 39.06949 196.41558
v 0.00000 38.65129 194.31318
v -8.00000 39.06949 196.41558
v -13.85641 40.21202 202.15946
v -16.00000 41.77274 210.00574
v -13.85641 43.33346 217.85203
v -8.00000 44.47599 223.59590
v 0.00000 33.76562 227.62930
v 8.00000 33.45109 225.50891
v 13.85641 32.59177 219.71589
v 16.00000 31.41793 211.80247
v 13.85641 30.24409 203.88906
v 8.00000 29.38477 198.09604
v 0.00000 29.07024 195.97565
v -8.00000 29.38477 198.09604
v -13.85641 30.24409 203.88906
v -16.00000 31.41793 211.80247
v -13.85641 32.59177 219.71589
v -8.00000 33.45109 225.50891
v 0.00000 22.55570 229.01191
v 8.00000 22.34560 226.87864
v 13.85641 21.77157 221.05043
v 16.00000 20.98743 213.08895
v 13.85641 20.20329 205.12748
v 8.00000 19.62926 199.29927
v 0.00000 19.41916 197.16600
v -8.00000 19.62926 199.29927
v -13.85641 20.20329 205.12748
v -16.00000 20.98743 213.08895
v -13.85641 21.77157 221.05043
v -8.00000 22.34560 226.87864
v 0.00000 11.29145 229.84281
v 8.00000 11.18627 227.70180
v 13.85641 10.89891 221.85245
v 16.00000 10.50637 213.86208
v 13.85641 10.11383 205.87172
v 8.00000 9.82647 200.02237
v 0.00000 9.72129 197.88136
v -8.00000 9.82647 200.02237
v -13.85641 10.11383 205.87172
v -16.00000 10.50637 213.86208
v -13.85641 10.89891 221.85245
v -8.00000 11.18627 227.70180
v 0.00000 0.00000 230.12000
v 8.00000 0.00000 227.97641
v 13.85641 0.00000 222.12000
v 16.00000 0.00000 214.12000
v 13.85641 0.00000 206.12000
v 8.00000 0.00000 200.26359
v 0.00000 0.00000 198.12000
v -8.00000 0.00000 200.26359
v -13.85641 0.00000 206.12000
v -16.00000 0.00000 214.12000
v -13.85641 0.00000 222.12000
v -8.00000 0.00000 227.97641
v 0.00000 -11.29145 229.84281
v 8.00000 -11.18627 227.70180
v 13.85641 -10.89891 221.85245
v 16.00000 -10.50637 213.86208
v 13.85641 -10.11383 205.87172
v 8.00000 -9.82647 200.02237
v 0.00000 -9.72129 197.88136
v -8.00000 -9.82647 200.02237
v -13.85641 -10.11383 205.87172
v -16.00000 -10.50637 213.86208
v -13.85641 -10.89891 221.85245
v -8.00000 -11.18627 227.70180
v 0.00000 -22.55570 229.01191
v 8.00000 -22.34560 226.87864
v 13.85641 -21.77157 221.05043
v 16.00000 -20.98743 213.08895
v 13.85641 -20.20329 205.12748
v 8.00000 -19.62926 199.29927
v 0.00000 -19.41916 197.16600
v -8.00000 -19.62926 199.29927
v -13.85641 -20.20329 205.12748
v -16.00000 -20.98743 213.08895
v -13.85641 -21.77157 221.05043
v -8.00000 -22.34560 226.87864
v 0.00000 -33.76562 227.62930
v 8.00000 -33.45109 225.50891
v 13.85641 -32.59177 219.71589
v 16.00000 -31.41793 211.80247
v 13.85641 -30.24409 203.88906
v 8.00000 -29.38477 198.09604
v 0.00000 -29.07024 195.97565
v -8.00000 -29.38477 198.09604
v -13.85641 -30.24409 203.88906
v -16.00000 -31.41793 211.80247
v -13.85641 -32.59177 219.71589
v -8.00000 -33.45109 225.50891
v 0.00000 -44.89418 225.69831
v 8.00000 -44.47599 223.59590
v 13.85641 -43.33346 217.85203
v 16.00000 -41.77274 210.00574
v 13.85641 -40.21202 202.15946
v 8.00000 -39.06949 196.41558
v 0.00000 -38.65129 194.31318
v -8.00000 -39.06949 196.41558
v -13.85641 -40.21202 202.15946
v -16.00000 -41.77274 210.00574
v -13.85641 -43.33346 217.85203
v -8.00000 -44.47599 223.59590
v 0.00000 -55.91460 223.22359
v 8.00000 -55.39375 221.14424
v 13.85641 -53.97076 215.46334
v 16.00000 -52.02692 207.70309
v 13.85641 -50.08307 199.94284
v 8.00000 -48.66008 194.26194
v 0.00000 -48.13923 192.18259
v -8.00000 -48.66008 194.26194
v -13.85641 -50.08307 199.94284
v -16.00000 -52.02692 207.70309
v -13.85641 -53.97076 215.46334
v -8.00000 -55.39375 221.14424
v 0.00000 -66.80031 220.21111
v 8.00000 -66.17806 218.15982
v 13.85641 -64.47803 212.55559
v 16.00000 -62.15576 204.90006
v 13.85641 -59.83348 197.24454
v 8.00000 -58.13345 191.64031
v 0.00000 -57.51120 189.58902
v -8.00000 -58.13345 191.64031
v -13.85641 -59.83348 197.24454
v -16.00000 -62.15576 204.90006
v -13.85641 -64.47803 212.55559
v -8.00000 -66.17806 218.15982
v 0.00000 -77.52509 216.66812
v 8.00000 -76.80294 214.64983
v 13.85641 -74.82997 209.13577
v 16.00000 -72.13486 201.60342
v 13.85641 -69.43974 194.07106
v 8.00000 -67.46677 188.55700
v 0.00000 -66.74462 186.53871
v -8.00000 -67.46677 188.55700
v -13.85641 -69.43974 194.07106
v -16.00000 -72.13486 201.60342
v -13.85641 -74.82997 209.13577
v -8.00000 -76.80294 214.64983
v 0.00000 -88.06311 212.60316
v 8.00000 -87.24279 210.62274
v 13.85641 -85.00164 205.21212
v 16.00000 -81.94018 197.82109
v 13.85641 -78.87871 190.43005
v 8.00000 -76.63756 185.01944
v 0.00000 -75.81724 183.03901
v -8.00000 -76.63756 185.01944
v -13.85641 -78.87871 190.43005
v -16.00000 -81.94018 197.82109
v -13.85641 -85.00164 205.21212
v -8.00000 -87.24279 210.62274
v 0.00000 -98.38898 208.02602
v 8.00000 -97.47247 206.08823
v 13.85641 -94.96854 200.79410
v 16.00000 -91.54810 193.56219
v 13.85641 -88.12766 186.33027
v 8.00000 -85.62372 181.03614
v 0.00000 -84.70722 179.09836
v -8.00000 -85.62372 181.03614
v -13.85641 -88.12766 186.33027
v -16.00000 -91.54810 193.56219
v -13.85641 -94.96854 200.79410
v -8.00000 -97.47247 206.08823
v 0.00000 -108.47782 202.94772
v 8.00000 -107.46733 201.05724
v 13.85641 -104.70664 195.89235
v 16.00000 -100.93547 188.83698
v 13.85641 -97.16430 181.78161
v 8.00000 -94.40360 176.61672
v 0.00000 -93.39312 174.72624
v -8.00000 -94.40360 176.61672
v -13.85641 -97.16430 181.78161
v -16.00000 -100.93547 188.83698
v -13.85641 -104.70664 195.89235
v -8.00000 -107.46733 201.05724
v 0.00000 -118.30532 197.38051
v 8.00000 -117.20330 195.54189
v 13.85641 -114.19250 190.51868
v 16.00000 -110.07968 183.65685
v 13.85641 -105.96686 176.79502
v 8.00000 -102.95606 171.77181
v 0.00000 -101.85404 169.93319
v -8.00000 -102.95606 171.77181
v -13.85641 -105.96686 176.79502
v -16.00000 -110.07968 183.65685
v -13.85641 -114.19250 190.51868
v -8.00000 -117.20330 195.54189
v 0.00000 -127.84782 191.33779
v 8.00000 -126.65691 189.55545
v 13.85641 -123.40326 184.68603
v 16.00000 -118.95870 178.03427
v 13.85641 -114.51414 171.38252
v 8.00000 -111.26049 166.51309
v 0.00000 -110.06957 164.73076
v -8.00000 -111.26049 166.51309
v -13.85641 -114.51414 171.38252
v -16.00000 -118.95870 178.03427
v -13.85641 -123.40326 184.68603
v -8.00000 -126.65691 189.55545
v 0.00000 -137.08232 184.83412
v 8.00000 -135.80539 183.11237
v 13.85641 -132.31673 178.40846
v 16.00000 -127.55114 171.98280
v 13.85641 -122.78554 165.55714
v 8.00000 -119.29688 160.85323
v 0.00000 -118.01995 159.13148
v -8.00000 -119.29688 160.85323
v -13.85641 -122.78554 165.55714
v -16.00000 -127.55114 171.98280
v -13.85641 -132.31673 178.40846
v -8.00000 -135.80539 183.11237
v 0.00000 -145.98658 177.88517
v 8.00000 -144.62670 176.22815
v 13.85641 -140.91144 171.70108
v 16.00000 -135.83629 165.51700
v 13.85641 -130.76114 159.33291
v 8.00000 -127.04588 154.80585
v 0.00000 -125.68600 153.14883
v -8.00000 -127.04588 154.80585
v -13.85641 -130.76114 159.33291
v -16.00000 -135.83629 165.51700
v -13.85641 -140.91144 171.70108
v -8.00000 -144.62670 176.22815
v 0.00000 -154.53915 170.50767
v 8.00000 -153.09960 168.91937
v 13.85641 -149.16668 164.58006
v 16.00000 -143.79420 158.65245
v 13.85641 -138.42173 152.72485
v 8.00000 -134.48881 148.38554
v 0.00000 -133.04926 146.79724
v -8.00000 -134.48881 148.38554
v -13.85641 -138.42173 152.72485
v -16.00000 -143.79420 158.65245
v -13.85641 -149.16668 164.58006
v -8.00000 -153.09960 168.91937
v 0.00000 -162.71941 162.71941
v 8.00000 -161.20366 161.20366
v 13.85641 -157.06256 157.06256
v 16.00000 -151.40570 151.40570
v 13.85641 -145.74885 145.74885
v 8.00000 -141.60775 141.60775
v 0.00000 -140.09200 140.09200
v -8.00000 -141.60775 141.60775
v -13.85641 -145.74885 145.74885
v -16.00000 -151.40570 151.40570
v -13.85641 -157.06256 157.06256
v -8.00000 -161.20366 161.20366
v 0.00000 -170.50767 154.53915
v 8.00000 -168.91937 153.09960
v 13.85641 -164.58006 149.16668
v 16.00000 -158.65245 143.79420
v 13.85641 -152.72485 138.42173
v 8.00000 -148.38554 134.48881
v 0.00000 -146.79724 133.04926
v -8.00000 -148.38554 134.48881
v -13.85641 -152.72485 138.42173
v -16.00000 -158.65245 143.79420
v -13.85641 -164.58006 149.16668
v -8.00000 -168.91937 153.09960
v 0.00000 -177.88517 145.98658
v 8.00000 -176.22815 144.62670
v 13.85641 -171.70108 140.91144
v 16.00000 -165.51700 135.83629
v 13.85641 -159.33291 130.76114
v 8.00000 -154.80585 127.04588
v 0.00000 -153.14883 125.68600
v -8.00000 -154.80585 127.04588
v -13.85641 -159.33291 130.76114
v -16.00000 -165.51700 135.83629
v -13.85641 -171.70108 140.91144
v -8.00000 -176.22815 144.62670
v 0.00000 -184.83412 137.08232
v 8.00000 -183.11237 135.80539
v 13.85641 -178.40846 132.31673
v 16.00000 -171.98280 127.55114
v 13.85641 -165.55714 122.78554
v 8.00000 -160.85323 119.29688
v 0.00000 -159.13148 118.01995
v -8.00000 -160.85323 119.29688
v -13.85641 -165.55714 122.78554
v -16.00000 -171.98280 127.55114
v -13.85641 -178.40846 132.31673
v -8.00000 -183.11237 135.80539
v 0.00000 -191.33779 127.84782
v 8.00000 -189.55545 126.65691
v 13.85641 -184.68603 123.40326
v 16.00000 -178.03427 118.95870
v 13.85641 -171.38252 114.51414
v 8.00000 -166.51309 111.26049
v 0.00000 -164.73076 110.06957
v -8.00000 -166.51309 111.26049
v -13.85641 -171.38252 114.51414
v -16.00000 -178.03427 118.95870
v -13.85641 -184.68603 123.40326
v -8.00000 -189.55545 126.65691
v 0.00000 -197.38051 118.30532
v 8.00000 -195.54189 117.20330
v 13.85641 -190.51868 114.19250
v 16.00000 -183.65685 110.07968
v 13.85641 -176.79502 105.96686
v 8.00000 -171.77181 102.95606
v 0.00000 -169.93319 101.85404
v -8.00000 -171.77181 102.95606
v -13.85641 -176.79502 105.96686
v -16.00000 -183.65685 110.07968
v -13.85641 -190.51868 114.19250
v -8.00000 -195.54189 117.20330
v 0.00000 -202.94772 108.47782
v 8.00000 -201.05724 107.46733
v 13.85641 -195.89235 104.70664
v 16.00000 -188.83698 100.93547
v 13.85641 -181.78161 97.16430
v 8.00000 -176.61672 94.40360
v 0.00000 -174.72624 93.39312
v -8.00000 -176.61672 94.40360
v -13.85641 -181.78161 97.16430
v -16.00000 -188.83698 100.93547
v -13.85641 -195.89235 104.70664
v -8.00000 -201.05724 107.46733
v 0.00000 -208.02602 98.38898
v 8.00000 -206.08823 97.47247
v 13.85641 -200.79410 94.96854
v 16.00000 -193.56219 91.54810
v 13.85641 -186.33027 88.12766
v 8.00000 -181.03614 85.62372
v 0.00000 -179.09836 84.70722
v -8.00000 -181.03614 85.62372
v -13.85641 -186.33027 88.12766
v -16.00000 -193.56219 91.54810
v -13.85641 -200.79410 94.96854
v -8.00000 -206.08823 97.47247
v 0.00000 -212.60316 88.06311
v 8.00000 -210.62274 87.24279
v 13.85641 -205.21212 85.00164
v 16.00000 -197.82109 81.94018
v 13.85641 -190.43005 78.87871
v 8.00000 -185.01944 76.63756
v 0.00000 -183.03901 75.81724
v -8.00000 -185.01944 76.63756
v -13.85641 -190.43005 78.87871
v -16.00000 -197.82109 81.94018
v -13.85641 -205.21212 85.00164
v -8.00000 -210.62274 87.24279
v 0.00000 -216.66812 77.52509
v 8.00000 -214.64983 76.80294
v 13.85641 -209.13577 74.82997
v 16.00000 -201.60342 72.13486
v 13.85641 -194.07106 69.43974
v 8.00000 -188.55700 67.46677
v 0.00000 -186.53871 66.74462
v -8.00000 -188.55700 67.46677
v -13.85641 -194.07106 69.43974
v -16.00000 -201.60342 72.13486
v -13.85641 -209.13577 74.82997
v -8.00000 -214.64983 76.80294
v 0.00000 -220.21111 66.80031
v 8.00000 -218.15982 66.17806
v 13.85641 -212.55559 64.47803
v 16.00000 -204.90006 62.15576
v 13.85641 -197.24454 59.83348
v 8.00000 -191.64031 58.13345
v 0.00000 -189.58902 57.51120
v -8.00000 -191.64031 58.13345
v -13.85641 -197.24454 59.83348
v -16.00000 -204.90006 62.15576
v -13.85641 -212.55559 64.47803
v -8.00000 -218.15982 66.17806
v 0.00000 -223.22359 55.91460
v 8.00000 -221.14424 55.39375
v 13.85641 -215.46334 53.97076
v 16.00000 -207.70309 52.02692
v 13.85641 -199.94284 50.08307
v 8.00000 -194.26194 48.66008
v 0.00000 -192.18259 48.13923
v -8.00000 -194.26194 48.66008
v -13.85641 -199.94284 50.08307
v -16.00000 -207.70309 52.02692
v -13.85641 -215.46334 53.97076
v -8.00000 -221.14424 55.39375
v 0.00000 -225.69831 44.89418
v 8.00000 -223.59590 44.47599
v 13.85641 -217.85203 43.33346
v 16.00000 -210.00574 41.77274
v 13.85641 -202.15946 40.21202
v 8.00000 -196.41558 39.06949
v 0.00000 -194.31318 38.65129
v -8.00000 -196.41558 39.06949
v -13.85641 -202.15946 40.21202
v -16.00000 -210.00574 41.77274
v -13.85641 -217.85203 43.33346
v -8.00000 -223.59590 44.47599
v 0.00000 -227.62930 33.76562
v 8.00000 -225.50891 33.45109
v 13.85641 -219.71589 32.59177
v 16.00000 -211.80247 31.41793
v 13.85641 -203.88906 30.24409
v 8.00000 -198.09604 29.38477
v 0.00000 -195.97565 29.07024
v -8.00000 -198.09604 29.38477
v -13.85641 -203.88906 30.24409
v -16.00000 -211.80247 31.41793
v -13.85641 -219.71589 32.59177
v -8.00000 -225.50891 33.45109
v 0.00000 -229.01191 22.55570
v 8.00000 -226.87864 22.34560
v 13.85641 -221.05043 21.77157
v 16.00000 -213.08895 20.98743
v 13.85641 -205.12748 20.20329
v 8.00000 -199.29927 19.62926
v 0.00000 -197.16600 19.41916
v -8.00000 -199.29927 19.62926
v -13.85641 -205.12748 20.20329
v -16.00000 -213.08895 20.98743
v -13.85641 -221.05043 21.77157
v -8.00000 -226.87864 22.34560
v 0.00000 -229.84281 11.29145
v 8.00000 -227.70180 11.18627
v 13.85641 -221.85245 10.89891
v 16.00000 -213.86208 10.50637
v 13.85641 -205.87172 10.11383
v 8.00000 -200.02237 9.82647
v 0.00000 -197.88136 9.72129
v -8.00000 -200.02237 9.82647
v -13.85641 -205.87172 10.11383
v -16.00000 -213.86208 10.50637
v -13.85641 -221.85245 10.89891
v -8.00000 -227.70180 11.18627
v 0.00000 -230.12000 0.00000
v 8.00000 -227.97641 0.00000
v 13.85641 -222.12000 0.00000
v 16.00000 -214.12000 0.00000
v 13.85641 -206.12000 0.00000
v 8.00000 -200.26359 0.00000
v 0.00000 -198.12000 0.00000
v -8.00000 -200.26359 0.00000
v -13.85641 -206.12000 0.00000
v -16.00000 -214.12000 0.00000
v -13.85641 -222.12000 0.00000
v -8.00000 -227.97641 0.00000
v 0.00000 -229.84281 -11.29145
v 8.00000 -227.70180 -11.18627
v 13.85641 -221.85245 -10.89891
v 16.00000 -213.86208 -10.50637
v 13.85641 -205.87172 -10.11383
v 8.00000 -200.02237 -9.82647
v 0.00000 -197.88136 -9.72129
v -8.00000 -200.02237 -9.82647
v -13.85641 -205.87172 -10.11383
v -16.00000 -213.86208 -10.50637
v -13.85641 -221.85245 -10.89891
v -8.00000 -227.70180 -11.18627
v 0.00000 -229.01191 -22.55570
v 8.00000 -226.87864 -22.34560
v 13.85641 -221.05043 -21.77157
v 16.00000 -213.08895 -20.98743
v 13.85641 -205.12748 -20.20329
v 8.00000 -199.29927 -19.62926
v 0.00000 -197.16600 -19.41916
v -8.00000 -199.29927 -19.62926
v -13.85641 -205.12748 -20.20329
v -16.00000 -213.08895 -20.98743
v -13.85641 -221.05043 -21.77157
v -8.00000 -226.87864 -22.34560
v 0.00000 -227.62930 -33.76562
v 8.00000 -225.50891 -33.45109
v 13.85641 -219.71589 -32.59177
v 16.00000 -211.80247 -31.41793
v 13.85641 -203.88906 -30.24409
v 8.00000 -198.09604 -29.38477
v 0.00000 -195.97565 -29.07024
v -8.00000 -198.09604 -29.38477
v -13.85641 -203.88906 -30.24409
v -16.00000 -211.80247 -31.41793
v -13.85641 -219.71589 -32.59177
v -8.00000 -225.50891 -33.45109
v 0.00000 -225.69831 -44.89418
v 8.00000 -223.59590 -44.47599
v 13.85641 -217.85203 -43.33346
v 16.00000 -210.00574 -41.77274
v 13.85641 -202.15946 -40.21202
v 8.00000 -196.41558 -39.06949
v 0.00000 -194.31318 -38.65129
v -8.00000 -196.41558 -39.06949
v -13.85641 -202.15946 -40.21202
v -16.00000 -210.00574 -41.77274
v -13.85641 -217.85203 -43.33346
v -8.00000 -223.59590 -44.47599
v 0.00000 -223.22359 -55.91460
v 8.00000 -221.14424 -55.39375
v 13.85641 -215.46334 -53.97076
v 16.00000 -207.70309 -52.02692
v 13.85641 -199.94284 -50.08307
v 8.00000 -194.26194 -48.66008
v 0.00000 -192.18259 -48.13923
v -8.00000 -194.26194 -48.66008
v -13.85641 -199.94284 -50.08307
v -16.00000 -207.70309 -52.02692
v -13.85641 -215.46334 -53.97076
v -8.00000 -221.14424 -55.39375
v 0.00000 -220.21111 -66.80031
v 8.00000 -218.15982 -66.17806
v 13.85641 -212.55559 -64.47803
v 16.00000 -204.90006 -62.15576
v 13.85641 -197.24454 -59.83348
v 8.00000 -191.64031 -58.13345
v 0.00000 -189.58902 -57.51120
v -8.00000 -191.64031 -58.13345
v -13.85641 -197.24454 -59.83348
v -16.00000 -204.90006 -62.15576
v -13.85641 -212.55559 -64.47803
v -8.00000 -218.15982 -66.17806
v 0.00000 -216.66812 -77.52509
v 8.00000 -214.64983 -76.80294
v 13.85641 -209.13577 -74.82997
v 16.00000 -201.60342 -72.13486
v 13.85641 -194.07106 -69.43974
v 8.00000 -188.55700 -67.46677
v 0.00000 -186.53871 -66.74462
v -8.00000 -188.55700 -67.46677
v -13.85641 -194.07106 -69.43974
v -16.00000 -201.60342 -72.13486
v -13.85641 -209.13577 -74.82997
v -8.00000 -214.64983 -76.80294
v 0.00000 -212.60316 -88.06311
v 8.00000 -210.62274 -87.24279
v 13.85641 -205.21212 -85.00164
v 16.00000 -197.82109 -81.94018
v 13.85641 -190.43005 -78.87871
v 8.00000 -185.01944 -76.63756
v 0.00000 -183.03901 -75.81724
v -8.00000 -185.01944 -76.63756
v -13.85641 -190.43005 -78.87871
v -16.00000 -197.82109 -81.94018
v -13.85641 -205.21212 -85.00164
v -8.00000 -210.62274 -87.24279
v 0.00000 -208.02602 -98.38898
v 8.00000 -206.08823 -97.47247
v 13.85641 -200.79410 -94.96854
v 16.00000 -193.56219 -91.54810
v 13.85641 -186.33027 -88.12766
v 8.00000 -181.03614 -85.62372
v 0.00000 -179.09836 -84.70722
v -8.00000 -181.03614 -85.62372
v -13.85641 -186.33027 -88.12766
v -16.00000 -193.56219 -91.54810
v -13.85641 -200.79410 -94.96854
v -8.00000 -206.08823 -97.47247
v 0.00000 -202.94772 -108.47782
v 8.00000 -201.05724 -107.46733
v 13.85641 -195.89235 -104.70664
v 16.00000 -188.83698 -100.93547
v 13.85641 -181.78161 -97.16430
v 8.00000 -176.61672 -94.40360
v 0.00000 -174.72624 -93.39312
v -8.00000 -176.61672 -94.40360
v -13.85641 -181.78161 -97.16430
v -16.00000 -188.83698 -100.93547
v -13.85641 -195.89235 -104.70664
v -8.00000 -201.05724 -107.46733
v 0.00000 -197.38051 -118.30532
v 8.00000 -195.54189 -117.20330
v 13.85641 -190.51868 -114.19250
v 16.00000 -183.65685 -110.07968
v 13.85641 -176.79502 -105.96686
v 8.00000 -171.77181 -102.95606
v 0.00000 -169.93319 -101.85404
v -8.00000 -171.77181 -102.95606
v -13.85641 -176.79502 -105.96686
v -16.00000 -183.65685 -110.07968
v -13.85641 -190.51868 -114.19250
v -8.00000 -195.54189 -117.20330
v 0.00000 -191.33779 -127.84782
v 8.00000 -189.55545 -126.65691
v 13.85641 -184.68603 -123.40326
v 16.00000 -178.03427 -118.95870
v 13.85641 -171.38252 -114.51414
v 8.00000 -166.51309 -111.26049
v 0.00000 -164.73076 -110.06957
v -8.00000 -166.51309 -111.26049
v -13.85641 -171.38252 -114.51414
v -16.00000 -178.03427 -118.95870
v -13.85641 -184.68603 -123.40326
v -8.00000 -189.55545 -126.65691
v 0.00000 -184.83412 -137.08232
v 8.00000 -183.11237 -135.80539
v 13.85641 -178.40846 -132.31673
v 16.00000 -171.98280 -127.55114
v 13.85641 -165.55714 -122.78554
v 8.00000 -160.85323 -119.29688
v 0.00000 -159.13148 -118.01995
v -8.00000 -160.85323 -119.29688
v -13.85641 -165.55714 -122.78554
v -16.00000 -171.98280 -127.55114
v -13.85641 -178.40846 -132.31673
v -8.00000 -183.11237 -135.80539
v 0.00000 -177.88517 -145.98658
v 8.00000 -176.22815 -144.62670
v 13.85641 -171.70108 -140.91144
v 16.00000 -165.51700 -135.83629
v 13.85641 -159.33291 -130.76114
v 8.00000 -154.80585 -127.04588
v 0.00000 -153.14883 -125.68600
v -8.00000 -154.80585 -127.04588
v -13.85641 -159.33291 -130.76114
v -16.00000 -165.51700 -135.83629
v -13.85641 -171.70108 -140.91144
v -8.00000 -176.22815 -144.62670
v 0.00000 -170.50767 -154.53915
v 8.00000 -168.91937 -153.09960
v 13.85641 -164.58006 -149.16668
v 16.00000 -158.65245 -143.79420
v 13.85641 -152.72485 -138.42173
v 8.00000 -148.38554 -134.48881
v 0.00000 -146.79724 -133.04926
v -8.00000 -148.38554 -134.48881
v -13.85641 -152.72485 -138.42173
v -16.00000 -158.65245 -143.79420
v -13.85641 -164.58006 -149.16668
v -8.00000 -168.91937 -153.09960
v 0.00000 -162.71941 -162.71941
v 8.00000 -161.20366 -161.20366
v 13.85641 -157.06256 -157.06256
v 16.00000 -151.40570 -151.40570
v 13.85641 -145.74885 -145.74885
v 8.00000 -141.60775 -141.60775
v 0.00000 -140.09200 -140.09200
v -8.00000 -141.60775 -141.60775
v -13.85641 -145.74885 -145.74885
v -16.00000 -151.40570 -151.40570
v -13.85641 -157.06256 -157.06256
v -8.00000 -161.20366 -161.20366
v 0.00000 -154.53915 -170.50767
v 8.00000 -153.09960 -168.91937
v 13.85641 -149.16668 -164.58006
v 16.00000 -143.79420 -158.65245
v 13.85641 -138.42173 -152.72485
v 8.00000 -134.48881 -148.38554
v 0.00000 -133.04926 -146.79724
v -8.00000 -134.48881 -148.38554
v -13.85641 -138.42173 -152.72485
v -16.00000 -143.79420 -158.65245
v -13.85641 -149.16668 -164.58006
v -8.00000 -153.09960 -168.91937
v 0.00000 -145.98658 -177.88517
v 8.00000 -144.62670 -176.22815
v 13.85641 -140.91144 -171.70108
v 16.00000 -135.83629 -165.51700
v 13.85641 -130.76114 -159.33291
v 8.00000 -127.04588 -154.80585
v 0.00000 -125.68600 -153.14883
v -8.00000 -127.04588 -154.80585
v -13.85641 -130.76114 -159.33291
v -16.00000 -135.83629 -165.51700
v -13.85641 -140.91144 -171.70108
v -8.00000 -144.62670 -176.22815
v 0.00000 -137.08232 -184.83412
v 8.00000 -135.80539 -183.11237
v 13.85641 -132.31673 -178.40846
v 16.00000 -127.55114 -171.98280
v 13.85641 -122.78554 -165.55714
v 8.00000 -119.29688 -160.85323
v 0.00000 -118.01995 -159.13148
v -8.00000 -119.29688 -160.85323
v -13.85641 -122.78554 -165.55714
v -16.00000 -127.55114 -171.98280
v -13.85641 -132.31673 -178.40846
v -8.00000 -135.80539 -183.11237
v 0.00000 -127.84782 -191.33779
v 8.00000 -126.65691 -189.55545
v 13.85641 -123.40326 -184.68603
v 16.00000 -118.95870 -178.03427
v 13.85641 -114.51414 -171.38252
v 8.00000 -111.26049 -166.51309
v 0.00000 -110.06957 -164.73076
v -8.00000 -111.26049 -166.51309
v -13.85641 -114.51414 -171.38252
v -16.00000 -118.95870 -178.03427
v -13.85641 -123.40326 -184.68603
v -8.00000 -126.65691 -189.55545
v 0.00000 -118.30532 -197.38051
v 8.00000 -117.20330 -195.54189
v 13.85641 -114.19250 -190.51868
v 16.00000 -110.07968 -183.65685
v 13.85641 -105.96686 -176.79502
v 8.00000 -102.95606 -171.77181
v 0.00000 -101.85404 -169.93319
v -8.00000 -102.95606 -171.77181
v -13.85641 -105.96686 -176.79502
v -16.00000 -110.07968 -183.65685
v -13.85641 -114.19250 -190.51868
v -8.00000 -117.20330 -195.54189
v 0.00000 -108.47782 -202.94772
v 8.00000 -107.46733 -201.05724
v 13.85641 -104.70664 -195.89235
v 16.00000 -100.93547 -188.83698
v 13.85641 -97.16430 -181.78161
v 8.00000 -94.40360 -176.61672
v 0.00000 -93.39312 -174.72624
v -8.00000 -94.40360 -176.61672
v -13.85641 -97.16430 -181.78161
v -16.00000 -100.93547 -188.83698
v -13.85641 -104.70664 -195.89235
v -8.00000 -107.46733 -201.05724
v 0.00000 -98.38898 -208.02602
v 8.00000 -97.47247 -206.08823
v 13.85641 -94.96854 -200.79410
v 16.00000 -91.54810 -193.56219
v 13.85641 -88.12766 -186.33027
v 8.00000 -85.62372 -181.03614
v 0.00000 -84.70722 -179.09836
v -8.00000 -85.62372 -181.03614
v -13.85641 -88.12766 -186.33027
v -16.00000 -91.54810 -193.56219
v -13.85641 -94.96854 -200.79410
v -8.00000 -97.47247 -206.08823
v 0.00000 -88.06311 -212.60316
v 8.00000 -87.24279 -210.62274
v 13.85641 -85.00164 -205.21212
v 16.00000 -81.94018 -197.82109
v 13.85641 -78.87871 -190.43005
v 8.00000 -76.63756 -185.01944
v 0.00000 -75.81724 -183.03901
v -8.00000 -76.63756 -185.01944
v -13.85641 -78.87871 -190.43005
v -16.00000 -81.94018 -197.82109
v -13.85641 -85.00164 -205.21212
v -8.00000 -87.24279 -210.62274
v 0.00000 -77.52509 -216.66812
v 8.00000 -76.80294 -214.64983
v 13.85641 -74.82997 -209.13577
v 16.00000 -72.13486 -201.60342
v 13.85641 -69.43974 -194.07106
v 8.00000 -67.46677 -188.55700
v 0.00000 -66.74462 -186.53871
v -8.00000 -67.46677 -188.55700
v -13.85641 -69.43974 -194.07106
v -16.00000 -72.13486 -201.60342
v -13.85641 -74.82997 -209.13577
v -8.00000 -76.80294 -214.64983
v 0.00000 -66.80031 -220.21111
v 8.00000 -66.17806 -218.15982
v 13.85641 -64.47803 -212.55559
v 16.00000 -62.15576 -204.90006
v 13.85641 -59.83348 -197.24454
v 8.00000 -58.13345 -191.64031
v 0.00000 -57.51120 -189.58902
v -8.00000 -58.13345 -191.64031
v -13.85641 -59.83348 -197.24454
v -16.00000 -62.15576 -204.90006
v -13.85641 -64.47803 -212.55559
v -8.00000 -66.17806 -218.15982
v 0.00000 -55.91460 -223.22359
v 8.00000 -55.39375 -221.14424
v 13.85641 -53.97076 -215.46334
v 16.00000 -52.02692 -207.70309
v 13.85641 -50.08307 -199.94284
v 8.00000 -48.66008 -194.26194
v 0.00000 -48.13923 -192.18259
v -8.00000 -48.66008 -194.26194
v -13.85641 -50.08307 -199.94284
v -16.00000 -52.02692 -207.70309
v -13.85641 -53.97076 -215.46334
v -8.00000 -55.39375 -221.14424
v 0.00000 -44.89418 -225.69831
v 8.00000 -44.47599 -223.59590
v 13.85641 -43.33346 -217.85203
v 16.00000 -41.77274 -210.00574
v 13.85641 -40.21202 -202.15946
v 8.00000 -39.06949 -196.41558
v 0.00000 -38.65129 -194.31318
v -8.00000 -39.06949 -196.41558
v -13.85641 -40.21202 -202.15946
v -16.00000 -41.77274 -210.00574
v -13.85641 -43.33346 -217.85203
v -8.00000 -44.47599 -223.59590
v 0.00000 -33.76562 -227.62930
v 8.00000 -33.45109 -225.50891
v 13.85641 -32.59177 -219.71589
v 16.00000 -31.41793 -211.80247
v 13.85641 -30.24409 -203.88906
v 8.00000 -29.38477 -198.09604
v 0.00000 -29.07024 -195.97565
v -8.00000 -29.38477 -198.09604
v -13.85641 -30.24409 -203.88906
v -16.00000 -31.41793 -211.80247
v -13.85641 -32.59177 -219.71589
v -8.00000 -33.45109 -225.50891
v 0.00000 -22.55570 -229.01191
v 8.00000 -22.34560 -226.87864
v 13.85641 -21.77157 -221.05043
v 16.00000 -20.98743 -213.08895
v 13.85641 -20.20329 -205.12748
v 8.00000 -19.62926 -199.29927
v 0.00000 -19.41916 -197.16600
v -8.00000 -19.62926 -199.29927
v -13.85641 -20.20329 -205.12748
v -16.00000 -20.98743 -213.08895
v -13.85641 -21.77157 -221.05043
v -8.00000 -22.34560 -226.87864
v 0.00000 -11.29145 -229.84281
v 8.00000 -11.18627 -227.70180
v 13.85641 -10.89891 -221.85245
v 16.00000 -10.50637 -213.86208
v 13.85641 -10.11383 -205.87172
v 8.00000 -9.82647 -200.02237
v 0.00000 -9.72129 -197.88136
v -8.00000 -9.82647 -200.02237
v -13.85641 -10.11383 -205.87172
v -16.00000 -10.50637 -213.86208
v -13.85641 -10.89891 -221.85245
v -8.00000 -11.18627 -227.70180
v 0.00000 -0.00000 -230.12000
v 8.00000 -0.00000 -227.97641
v 13.85641 -0.00000 -222.12000
v 16.00000 -0.00000 -214.12000
v 13.85641 -0.00000 -206.12000
v 8.00000 -0.00000 -200.26359
v 0.00000 -0.00000 -198.12000
v -8.00000 -0.00000 -200.26359
v -13.85641 -0.00000 -206.12000
v -16.00000 -0.00000 -214.12000
v -13.85641 -0.00000 -222.12000
v -8.00000 -0.00000 -227.97641
v 0.00000 11.29145 -229.84281
v 8.00000 11.18627 -227.70180
v 13.85641 10.89891 -221.85245
v 16.00000 10.50637 -213.86208
v 13.85641 10.11383 -205.87172
v 8.00000 9.82647 -200.02237
v 0.00000 9.72129 -197.88136
v -8.00000 9.82647 -200.02237
v -13.85641 10.11383 -205.87172
v -16.00000 10.50637 -213.86208
v -13.85641 10.89891 -221.85245
v -8.00000 11.18627 -227.70180
v 0.00000 22.55570 -229.01191
v 8.00000 22.34560 -226.87864
v 13.85641 21.77157 -221.05043
v 16.00000 20.98743 -213.08895
v 13.85641 20.20329 -205.12748
v 8.00000 19.62926 -199.29927
v 0.00000 19.41916 -197.16600
v -8.00000 19.62926 -199.29927
v -13.85641 20.20329 -205.12748
v -16.00000 20.98743 -213.08895
v -13.85641 21.77157 -221.05043
v -8.00000 22.34560 -226.87864
v 0.00000 33.76562 -227.62930
v 8.00000 33.45109 -225.50891
v 13.85641 32.59177 -219.71589
v 16.00000 31.41793 -211.80247
v 13.85641 30.24409 -203.88906
v 8.00000 29.38477 -198.09604
v 0.00000 29.07024 -195.97565
v -8.00000 29.38477 -198.09604
v -13.85641 30.24409 -203.88906
v -16.00000 31.41793 -211.80247
v -13.85641 32.59177 -219.71589
v -8.00000 33.45109 -225.50891
v 0.00000 44.89418 -225.69831
v 8.00000 44.47599 -223.59590
v 13.85641 43.33346 -217.85203
v 16.00000 41.77274 -210.00574
v 13.85641 40.21202 -202.15946
v 8.00000 39.06949 -196.41558
v 0.00000 38.65129 -194.31318
v -8.00000 39.06949 -196.41558
v -13.85641 40.21202 -202.15946
v -16.00000 41.77274 -210.00574
v -13.85641 43.33346 -217.85203
v -8.00000 44.47599 -223.59590
v 0.00000 55.91460 -223.22359
v 8.00000 55.39375 -221.14424
v 13.85641 53.97076 -215.46334
v 16.00000 52.02692 -207.70309
v 13.85641 50.08307 -199.94284
v 8.00000 48.66008 -194.26194
v 0.00000 48.13923 -192.18259
v -8.00000 48.66008 -194.26194
v -13.85641 50.08307 -199.94284
v -16.00000 52.02692 -207.70309
v -13.85641 53.97076 -215.46334
v -8.00000 55.39375 -221.14424
v 0.00000 66.80031 -220.21111
v 8.00000 66.17806 -218.15982
v 13.85641 64.47803 -212.55559
v 16.00000 62.15576 -204.90006
v 13.85641 59.83348 -197.24454
v 8.00000 58.13345 -191.64031
v 0.00000 57.51120 -189.58902
v -8.00000 58.13345 -191.64031
v -13.85641 59.83348 -197.24454
v -16.00000 62.15576 -204.90006
v -13.85641 64.47803 -212.55559
v -8.00000 66.17806 -218.15982
v 0.00000 77.52509 -216.66812
v 8.00000 76.80294 -214.64983
v 13.85641 74.82997 -209.13577
v 16.00000 72.13486 -201.60342
v 13.85641 69.43974 -194.07106
v 8.00000 67.46677 -188.55700
v 0.00000 66.74462 -186.53871
v -8.00000 67.46677 -188.55700
v -13.85641 69.43974 -194.07106
v -16.00000 72.13486 -201.60342
v -13.85641 74.82997 -209.13577
v -8.00000 76.80294 -214.64983
v 0.00000 88.06311 -212.60316
v 8.00000 87.24279 -210.62274
v 13.85641 85.00164 -205.21212
v 16.00000 81.94018 -197.82109
v 13.85641 78.87871 -190.43005
v 8.00000 76.63756 -185.01944
v 0.00000 75.81724 -183.03901
v -8.00000 76.63756 -185.01944
v -13.85641 78.87871 -190.43005
v -16.00000 81.94018 -197.82109
v -13.85641 85.00164 -205.21212
v -8.00000 87.24279 -210.62274
v 0.00000 98.38898 -208.02602
v 8.00000 97.47247 -206.08823
v 13.85641 94.96854 -200.79410
v 16.00000 91.54810 -193.56219
v 13.85641 88.12766 -186.33027
v 8.00000 85.62372 -181.03614
v 0.00000 84.70722 -179.09836
v -8.00000 85.62372 -181.03614
v -13.85641 88.12766 -186.33027
v -16.00000 91.54810 -193.56219
v -13.85641 94.96854 -200.79410
v -8.00000 97.47247 -206.08823
v 0.00000 108.47782 -202.94772
v 8.00000 107.46733 -201.05724
v 13.85641 104.70664 -195.89235
v 16.00000 100.93547 -188.83698
v 13.85641 97.16430 -181.78161
v 8.00000 94.40360 -176.61672
v 0.00000 93.39312 -174.72624
v -8.00000 94.40360 -176.61672
v -13.85641 97.16430 -181.78161
v -16.00000 100.93547 -188.83698
v -13.85641 104.70664 -195.89235
v -8.00000 107.46733 -201.05724
v 0.00000 118.30532 -197.38051
v 8.00000 117.20330 -195.54189
v 13.85641 114.19250 -190.51868
v 16.00000 110.07968 -183.65685
v 13.85641 105.96686 -176.79502
v 8.00000 102.95606 -171.77181
v 0.00000 101.85404 -169.93319
v -8.00000 102.95606 -171.77181
v -13.85641 105.96686 -176.79502
v -16.00000 110.07968 -183.65685
v -13.85641 114.19250 -190.51868
v -8.00000 117.20330 -195.54189
v 0.00000 127.84782 -191.33779
v 8.00000 126.65691 -189.55545
v 13.85641 123.40326 -184.68603
v 16.00000 118.95870 -178.03427
v 13.85641 114.51414 -171.38252
v 8.00000 111.26049 -166.51309
v 0.00000 110.06957 -164.73076
v -8.00000 111.26049 -166.51309
v -13.85641 114.51414 -171.38252
v -16.00000 118.95870 -178.03427
v -13.85641 123.40326 -184.68603
v -8.00000 126.65691 -189.55545
v 0.00000 137.08232 -184.83412
v 8.00000 135.80539 -183.11237
v 13.85641 132.31673 -178.40846
v 16.00000 127.55114 -171.98280
v 13.85641 122.78554 -165.55714
v 8.00000 119.29688 -160.85323
v 0.00000 118.01995 -159.13148
v -8.00000 119.29688 -160.85323
v -13.85641 122.78554 -165.55714
v -16.00000 127.55114 -171.98280
v -13.85641 132.31673 -178.40846
v -8.00000 135.80539 -183.11237
v 0.00000 145.98658 -177.88517
v 8.00000 144.62670 -176.22815
v 13.85641 140.91144 -171.70108
v 16.00000 135.83629 -165.51700
v 13.85641 130.76114 -159.33291
v 8.00000 127.04588 -154.80585
v 0.00000 125.68600 -153.14883
v -8.00000 127.04588 -154.80585
v -13.85641 130.76114 -159.33291
v -16.00000 135.83629 -165.51700
v -13.85641 140.91144 -171.70108
v -8.00000 144.62670 -176.22815
v 0.00000 154.53915 -170.50767
v 8.00000 153.09960 -168.91937
v 13.85641 149.16668 -164.58006
v 16.00000 143.79420 -158.65245
v 13.85641 138.42173 -152.72485
v 8.00000 134.48881 -148.38554
v 0.00000 133.04926 -146.79724
v -8.00000 134.48881 -148.38554
v -13.85641 138.42173 -152.72485
v -16.00000 143.79420 -158.65245
v -13.85641 149.16668 -164.58006
v -8.00000 153.09960 -168.91937
v 0.00000 162.71941 -162.71941
v 8.00000 161.20366 -161.20366
v 13.85641 157.06256 -157.06256
v 16.00000 151.40570 -151.40570
v 13.85641 145.74885 -145.74885
v 8.00000 141.60775 -141.60775
v 0.00000 140.09200 -140.09200
v -8.00000 141.60775 -141.60775
v -13.85641 145.74885 -145.74885
v -16.00000 151.40570 -151.40570
v -13.85641 157.06256 -157.06256
v -8.00000 161.20366 -161.20366
v 0.00000 170.50767 -154.53915
v 8.00000 168.91937 -153.09960
v 13.85641 164.58006 -149.16668
v 16.00000 158.65245 -143.79420
v 13.85641 152.72485 -138.42173
v 8.00000 148.38554 -134.48881
v 0.00000 146.79724 -133.04926
v -8.00000 148.38554 -134.48881
v -13.85641 152.72485 -138.42173
v -16.00000 158.65245 -143.79420
v -13.85641 164.58006 -149.16668
v -8.00000 168.91937 -153.09960
v 0.00000 177.88517 -145.98658
v 8.00000 176.22815 -144.62670
v 13.85641 171.70108 -140.91144
v 16.00000 165.51700 -135.83629
v 13.85641 159.33291 -130.76114
v 8.00000 154.80585 -127.04588
v 0.00000 153.14883 -125.68600
v -8.00000 154.80585 -127.04588
v -13.85641 159.33291 -130.76114
v -16.00000 165.51700 -135.83629
v -13.85641 171.70108 -140.91144
v -8.00000 176.22815 -144.62670
v 0.00000 184.83412 -137.08232
v 8.00000 183.11237 -135.80539
v 13.85641 178.40846 -132.31673
v 16.00000 171.98280 -127.55114
v 13.85641 165.55714 -122.78554
v 8.00000 160.85323 -119.29688
v 0.00000 159.13148 -118.01995
v -8.00000 160.85323 -119.29688
v -13.85641 165.55714 -122.78554
v -16.00000 171.98280 -127.55114
v -13.85641 178.40846 -132.31673
v -8.00000 183.11237 -135.80539
v 0.00000 191.33779 -127.84782
v 8.00000 189.55545 -126.65691
v 13.85641 184.68603 -123.40326
v 16.00000 178.03427 -118.95870
v 13.85641 171.38252 -114.51414
v 8.00000 166.51309 -111.26049
v 0.00000 164.73076 -110.06957
v -8.00000 166.51309 -111.26049
v -13.85641 171.38252 -114.51414
v -16.00000 178.03427 -118.95870
v -13.85641 184.68603 -123.40326
v -8.00000 189.55545 -126.65691
v 0.00000 197.38051 -118.30532
v 8.00000 195.54189 -117.20330
v 13.85641 190.51868 -114.19250
v 16.00000 183.65685 -110.07968
v 13.85641 176.79502 -105.96686
v 8.00000 171.77181 -102.95606
v 0.00000 169.93319 -101.85404
v -8.00000 171.77181 -102.95606
v -13.85641 176.79502 -105.96686
v -16.00000 183.65685 -110.07968
v -13.85641 190.51868 -114.19250
v -8.00000 195.54189 -117.20330
v 0.00000 202.94772 -108.47782
v 8.00000 201.05724 -107.46733
v 13.85641 195.89235 -104.70664
v 16.00000 188.83698 -100.93547
v 13.85641 181.78161 -97.16430
v 8.00000 176.61672 -94.40360
v 0.00000 174.72624 -93.39312
v -8.00000 176.61672 -94.40360
v -13.85641 181.78161 -97.16430
v -16.00000 188.83698 -100.93547
v -13.85641 195.89235 -104.70664
v -8.00000 201.05724 -107.46733
v 0.00000 208.02602 -98.38898
v 8.00000 206.08823 -97.47247
v 13.85641 200.79410 -94.96854
v 16.00000 193.56219 -91.54810
v 13.85641 186.33027 -88.12766
v 8.00000 181.03614 -85.62372
v 0.00000 179.09836 -84.70722
v -8.00000 181.03614 -85.62372
v -13.85641 186.33027 -88.12766
v -16.00000 193.56219 -91.54810
v -13.85641 200.79410 -94.96854
v -8.00000 206.08823 -97.47247
v 0.00000 212.60316 -88.06311
v 8.00000 210.62274 -87.24279
v 13.85641 205.21212 -85.00164
v 16.00000 197.82109 -81.94018
v 13.85641 190.43005 -78.87871
v 8.00000 185.01944 -76.63756
v 0.00000 183.03901 -75.81724
v -8.00000 185.01944 -76.63756
v -13.85641 190.43005 -78.87871
v -16.00000 197.82109 -81.94018
v -13.85641 205.21212 -85.00164
v -8.00000 210.62274 -87.24279
v 0.00000 216.66812 -77.52509
v 8.00000 214.64983 -76.80294
v 13.85641 209.13577 -74.82997
v 16.00000 201.60342 -72.13486
v 13.85641 194.07106 -69.43974
v 8.00000 188.55700 -67.46677
v 0.00000 186.53871 -66.74462
v -8.00000 188.55700 -67.46677
v -13.85641 194.07106 -69.43974
v -16.00000 201.60342 -72.13486
v -13.85641 209.13577 -74.82997
v -8.00000 214.64983 -76.80294
v 0.00000 220.21111 -66.80031
v 8.00000 218.15982 -66.17806
v 13.85641 212.55559 -64.47803
v 16.00000 204.90006 -62.15576
v 13.85641 197.24454 -59.83348
v 8.00000 191.64031 -58.13345
v 0.00000 189.58902 -57.51120
v -8.00000 191.64031 -58.13345
v -13.85641 197.24454 -59.83348
v -16.00000 204.90006 -62.15576
v -13.85641 212.55559 -64.47803
v -8.00000 218.15982 -66.17806
v 0.00000 223.22359 -55.91460
v 8.00000 221.14424 -55.39375
v 13.85641 215.46334 -53.97076
v 16.00000 207.70309 -52.02692
v 13.85641 199.94284 -50.08307
v 8.00000 194.26194 -48.66008
v 0.00000 192.18259 -48.13923
v -8.00000 194.26194 -48.66008
v -13.85641 199.94284 -50.08307
v -16.00000 207.70309 -52.02692
v -13.85641 215.46334 -53.97076
v -8.00000 221.14424 -55.39375
v 0.00000 225.69831 -44.89418
v 8.00000 223.59590 -44.47599
v 13.85641 217.85203 -43.33346
v 16.00000 210.00574 -41.77274
v 13.85641 202.15946 -40.21202
v 8.00000 196.41558 -39.06949
v 0.00000 194.31318 -38.65129
v -8.00000 196.41558 -39.06949
v -13.85641 202.15946 -40.21202
v -16.00000 210.00574 -41.77274
v -13.85641 217.85203 -43.33346
v -8.00000 223.59590 -44.47599
v 0.00000 227.62930 -33.76562
v 8.00000 225.50891 -33.45109
v 13.85641 219.71589 -32.59177
v 16.00000 211.80247 -31.41793
v 13.85641 203.88906 -30.24409
v 8.00000 198.09604 -29.38477
v 0.00000 195.97565 -29.07024
v -8.00000 198.09604 -29.38477
v -13.85641 203.88906 -30.24409
v -16.00000 211.80247 -31.41793
v -13.85641 219.71589 -32.59177
v -8.00000 225.50891 -33.45109
v 0.00000 229.01191 -22.55570
v 8.00000 226.87864 -22.34560
v 13.85641 221.05043 -21.77157
v 16.00000 213.08895 -20.98743
v 13.85641 205.12748 -20.20329
v 8.00000 199.29927 -19.62926
v 0.00000 197.16600 -19.41916
v -8.00000 199.29927 -19.62926
v -13.85641 205.12748 -20.20329
v -16.00000 213.08895 -20.98743
v -13.85641 221.05043 -21.77157
v -8.00000 226.87864 -22.34560
v 0.00000 229.84281 -11.29145
v 8.00000 227.70180 -11.18627
v 13.85641 221.85245 -10.89891
v 16.00000 213.86208 -10.50637
v 13.85641 205.87172 -10.11383
v 8.00000 200.02237 -9.82647
v 0.00000 197.88136 -9.72129
v -8.00000 200.02237 -9.82647
v -13.85641 205.87172 -10.11383
v -16.00000 213.86208 -10.50637
v -13.85641 221.85245 -10.89891
v -8.00000 227.70180 -11.18627
f 1 13 14 2
f 2 14 15 3
f 3 15 16 4
f 4 16 17 5
f 5 17 18 6
f 6 18 19 7
f 7 19 20 8
f 8 20 21 9
f 9 21 22 10
f 10 22 23 11
f 11 23 24 12
f 12 24 13 1
f 13 25 26 14
f 14 26 27 15
f 15 27 28 16
f 16 28 29 17
f 17 29 30 18
f 18 30 31 19
f 19 31 32 20
f 20 32 33 21
f 21 33 34 22
f 22 34 35 23
f 23 35 36 24
f 24 36 25 13
f 25 37 38 26
f 26 38 39 27
f 27 39 40 28
f 28 40 41 29
f 29 41 42 30
f 30 42 43 31
f 31 43 44 32
f 32 44 45 33
f 33 45 46 34
f 34 46 47 35
f 35 47 48 36
f 36 48 37 25
f 37 49 50 38
f 38 50 51 39
f 39 51 52 40
f 40 52 53 41
f 41 53 54 42
f 42 54 55 43
f 43 55 56 44
f 44 56 57 45
f 45 57 58 46
f 46 58 59 47
f 47 59 60 48
f 48 60 49 37
f 49 61 62 50
f 50 62 63 51
f 51 63 64 52
f 52 64 65 53
f 53 65 66 54
f 54 66 67 55
f 55 67 68 56
f 56 68 69 57
f 57 69 70 58
f 58 70 71 59
f 59 71 72 60
f 60 72 61 49
f 61 73 74 62
f 62 74 75 63
f 63 75 76 64
f 64 76 77 65
f 65 77 78 66
f 66 78 79 67
f 67 79 80 68
f 68 80 81 69
f 69 81 82 70
f 70 82 83 71
f 71 83 84 72
f 72 84 73 61
f 73 85 86 74
f 74 86 87 75
f 75 87 88 76
f 76 88 89 77
f 77 89 90 78
f 78 90 91 79
f 79 91 92 80
f 80 92 93 81
f 81 93 94 82
f 82 94 95 83
f 83 95 96 84
f 84 96 85 73
f 85 97 98 86
f 86 98 99 87
f 87 99 100 88
f 88 100 101 89
f 89 101 102 90
f 90 102 103 91
f 91 103 104 92
f 92 104 105 93
f 93 105 106 94
f 94 106 107 95
f 95 107 108 96
f 96 108 97 85
f 97 109 110 98
f 98 110 111 99
f 99 111 112 100
f 100 112 113 101
f 101 113 114 102
f 102 114 115 103
f 103 115 116 104
f 104 116 117 105
f 105 117 118 106
f 106 118 119 107
f 107 119 120 108
f 108 120 109 97
f 109 121 122 110
f 110 122 123 111
f 111 123 124 112
f 112 124 125 113
f 113 125 126 114
f 114 126 127 115
f 115 127 128 116
f 116 128 129 117
f 117 129 130 118
f 118 130 131 119
f 119 131 132 120
f 120 132 121 109
f 121 133 134 122
f 122 134 135 123
f 123 135 136 124
f 124 136 137 125
f 125 137 138 126
f 126 138 139 127
f 127 139 140 128
f 128 140 141 129
f 129 141 142 130
f 130 142 143 131
f 131 143 144 132
f 132 144 133 121
f 133 145 146 134
f 134 146 147 135
f 135 147 148 136
f 136 148 149 137
f 137 149 150 138
f 138 150 151 139
f 139 151 152 140
f 140 152 153 141
f 141 153 154 142
f 142 154 155 143
f 143 155 156 144
f 144 156 145 133
f 145 157 158 146
f 146 158 159 147
f 147 159 160 148
f 148 160 161 149
f 149 161 162 150
f 150 162 163 151
f 151 163 164 152
f 152 164 165 153
f 153 165 166 154
f 154 166 167 155
f 155 167 168 156
f 156 168 157 145
f 157 169 170 158
f 158 170 171 159
f 159 171 172 160
f 160 172 173 161
f 161 173 174 162
f 162 174 175 163
f 163 175 176 164
f 164 176 177 165
f 165 177 178 166
f 166 178 179 167
f 167 179 180 168
f 168 180 169 157
f 169 181 182 170
f 170 182 183 171
f 171 183 184 172
f 172 184 185 173
f 173 185 186 174
f 174 186 187 175
f 175 187 188 176
f 176 188 189 177
f 177 189 190 178
f 178 190 191 179
f 179 191 192 180
f 180 192 181 169
f 181 193 194 182
f 182 194 195 183
f 183 195 196 184
f 184 196 197 185
f 185 197 198 186
f 186 198 199 187
f 187 199 200 188
f 188 200 201 189
f 189 201 202 190
f 190 202 203 191
f 191 203 204 192
f 192 204 193 181
f 193 205 206 194
f 194 206 207 195
f 195 207 208 196
f 196 208 209 197
f 197 209 210 198
f 198 210 211 199
f 199 211 212 200
f 200 212 213 201
f 201 213 214 202
f 202 214 215 203
f 203 215 216 204
f 204 216 205 193
f 205 217 218 206
f 206 218 219 207
f 207 219 220 208
f 208 220 221 209
f 209 221 222 210
f 210 222 223 211
f 211 223 224 212
f 212 224 225 213
f 213 225 226 214
f 214 226 227 215
f 215 227 228 216
f 216 228 217 205
f 217 229 230 218
f 218 230 231 219
f 219 231 232 220
f 220 232 233 221
f 221 233 234 222
f 222 234 235 223
f 223 235 236 224
f 224 236 237 225
f 225 237 238 226
f 226 238 239 227
f 227 239 240 228
f 228 240 229 217
f 229 241 242 230
f 230 242 243 231
f 231 243 244 232
f 232 244 245 233
f 233 245 246 234
f 234 246 247 235
f 235 247 248 236
f 236 248 249 237
f 237 249 250 238
f 238 250 251 239
f 239 251 252 240
f 240 252 241 229
f 241 253 254 242
f 242 254 255 243
f 243 255 256 244
f 244 256 257 245
f 245 257 258 246
f 246 258 259 247
f 247 259 260 248
f 248 260 261 249
f 249 261 262 250
f 250 262 263 251
f 251 263 264 252
f 252 264 253 241
f 253 265 266 254
f 254 266 267 255
f 255 267 268 256
f 256 268 269 257
f 257 269 270 258
f 258 270 271 259
f 259 271 272 260
f 260 272 273 261
f 261 273 274 262
f 262 274 275 263
f 263 275 276 264
f 264 276 265 253
f 265 277 278 266
f 266 278 279 267
f 267 279 280 268
f 268 280 281 269
f 269 281 282 270
f 270 282 283 271
f 271 283 284 272
f 272 284 285 273
f 273 285 286 274
f 274 286 287 275
f 275 287 288 276
f 276 288 277 265
f 277 289 290 278
f 278 290 291 279
f 279 291 292 280
f 280 292 293 281
f 281 293 294 282
f 282 294 295 283
f 283 295 296 284
f 284 296 297 285
f 285 297 298 286
f 286 298 299 287
f 287 299 300 288
f 288 300 289 277
f 289 301 302 290
f 290 302 303 291
f 291 303 304 292
f 292 304 305 293
f 293 305 306 294
f 294 306 307 295
f 295 307 308 296
f 296 308 309 297
f 297 309 310 298
f 298 310 311 299
f 299 311 312 300
f 300 312 301 289
f 301 313 314 302
f 302 314 315 303
f 303 315 316 304
f 304 316 317 305
f 305 317 318 306
f 306 318 319 307
f 307 319 320 308
f 308 320 321 309
f 309 321 322 310
f 310 322 323 311
f 311 323 324 312
f 312 324 313 301
f 313 325 326 314
f 314 326 327 315
f 315 327 328 316
f 316 328 329 317
f 317 329 330 318
f 318 330 331 319
f 319 331 332 320
f 320 332 333 321
f 321 333 334 322
f 322 334 335 323
f 323 335 336 324
f 324 336 325 313
f 325 337 338 326
f 326 338 339 327
f 327 339 340 328
f 328 340 341 329
f 329 341 342 330
f 330 342 343 331
f 331 343 344 332
f 332 344 345 333
f 333 345 346 334
f 334 346 347 335
f 335 347 348 336
f 336 348 337 325
f 337 349 350 338
f 338 350 351 339
f 339 351 352 340
f 340 352 353 341
f 341 353 354 342
f 342 354 355 343
f 343 355 356 344
f 344 356 357 345
f 345 357 358 346
f 346 358 359 347
f 347 359 360 348
f 348 360 349 337
f 349 361 362 350
f 350 362 363 351
f 351 363 364 352
f 352 364 365 353
f 353 365 366 354
f 354 366 367 355
f 355 367 368 356
f 356 368 369 357
f 357 369 370 358
f 358 370 371 359
f 359 371 372 360
f 360 372 361 349
f 361 373 374 362
f 362 374 375 363
f 363 375 376 364
f 364 376 377 365
f 365 377 378 366
f 366 378 379 367
f 367 379 380 368
f 368 380 381 369
f 369 381 382 370
f 370 382 383 371
f 371 383 384 372
f 372 384 373 361
f 373 385 386 374
f 374 386 387 375
f 375 387 388 376
f 376 388 389 377
f 377 389 390 378
f 378 390 391 379
f 379 391 392 380
f 380 392 393 381
f 381 393 394 382
f 382 394 395 383
f 383 395 396 384
f 384 396 385 373
f 385 397 398 386
f 386 398 399 387
f 387 399 400 388
f 388 400 401 389
f 389 401 402 390
f 390 402 403 391
f 391 403 404 392
f 392 404 405 393
f 393 405 406 394
f 394 406 407 395
f 395 407 408 396
f 396 408 397 385
f 397 409 410 398
f 398 410 411 399
f 399 411 412 400
f 400 412 413 401
f 401 413 414 402
f 402 414 415 403
f 403 415 416 404
f 404 416 417 405
f 405 417 418 406
f 406 418 419 407
f 407 419 420 408
f 408 420 409 397
f 409 421 422 410
f 410 422 423 411
f 411 423 424 412
f 412 424 425 413
f 413 425 426 414
f 414 426 427 415
f 415 427 428 416
f 416 428 429 417
f 417 429 430 418
f 418 430 431 419
f 419 431 432 420
f 420 432 421 409
f 421 433 434 422
f 422 434 435 423
f 423 435 436 424
f 424 436 437 425
f 425 437 438 426
f 426 438 439 427
f 427 439 440 428
f 428 440 441 429
f 429 441 442 430
f 430 442 443 431
f 431 443 444 432
f 432 444 433 421
f 433 445 446 434
f 434 446 447 435
f 435 447 448 436
f 436 448 449 437
f 437 449 450 438
f 438 450 451 439
f 439 451 452 440
f 440 452 453 441
f 441 453 454 442
f 442 454 455 443
f 443 455 456 444
f 444 456 445 433
f 445 457 458 446
f 446 458 459 447
f 447 459 460 448
f 448 460 461 449
f 449 461 462 450
f 450 462 463 451
f 451 463 464 452
f 452 464 465 453
f 453 465 466 454
f 454 466 467 455
f 455 467 468 456
f 456 468 457 445
f 457 469 470 458
f 458 470 471 459
f 459 471 472 460
f 460 472 473 461
f 461 473 474 462
f 462 474 475 463
f 463 475 476 464
f 464 476 477 465
f 465 477 478 466
f 466 478 479 467
f 467 479 480 468
f 468 480 469 457
f 469 481 482 470
f 470 482 483 471
f 471 483 484 472
f 472 484 485 473
f 473 485 486 474
f 474 486 487 475
f 475 487 488 476
f 476 488 489 477
f 477 489 490 478
f 478 490 491 479
f 479 491 492 480
f 480 492 481 469
f 481 493 494 482
f 482 494 495 483
f 483 495 496 484
f 484 496 497 485
f 485 497 498 486
f 486 498 499 487
f 487 499 500 488
f 488 500 501 489
f 489 501 502 490
f 490 502 503 491
f 491 503 504 492
f 492 504 493 481
f 493 505 506 494
f 494 506 507 495
f 495 507 508 496
f 496 508 509 497
f 497 509 510 498
f 498 510 511 499
f 499 511 512 500
f 500 512 513 501
f 501 513 514 502
f 502 514 515 503
f 503 515 516 504
f 504 516 505 493
f 505 517 518 506
f 506 518 519 507
f 507 519 520 508
f 508 520 521 509
f 509 521 522 510
f 510 522 523 511
f 511 523 524 512
f 512 524 525 513
f 513 525 526 514
f 514 526 527 515
f 515 527 528 516
f 516 528 517 505
f 517 529 530 518
f 518 530 531 519
f 519 531 532 520
f 520 532 533 521
f 521 533 534 522
f 522 534 535 523
f 523 535 536 524
f 524 536 537 525
f 525 537 538 526
f 526 538 539 527
f 527 539 540 528
f 528 540 529 517
f 529 541 542 530
f 530 542 543 531
f 531 543 544 532
f 532 544 545 533
f 533 545 546 534
f 534 546 547 535
f 535 547 548 536
f 536 548 549 537
f 537 549 550 538
f 538 550 551 539
f 539 551 552 540
f 540 552 541 529
f 541 553 554 542
f 542 554 555 543
f 543 555 556 544
f 544 556 557 545
f 545 557 558 546
f 546 558 559 547
f 547 559 560 548
f 548 560 561 549
f 549 561 562 550
f 550 562 563 551
f 551 563 564 552
f 552 564 553 541
f 553 565 566 554
f 554 566 567 555
f 555 567 568 556
f 556 568 569 557
f 557 569 570 558
f 558 570 571 559
f 559 571 572 560
f 560 572 573 561
f 561 573 574 562
f 562 574 575 563
f 563 575 576 564
f 564 576 565 553
f 565 577 578 566
f 566 578 579 567
f 567 579 580 568
f 568 580 581 569
f 569 581 582 570
f 570 582 583 571
f 571 583 584 572
f 572 584 585 573
f 573 585 586 574
f 574 586 587 575
f 575 587 588 576
f 576 588 577 565
f 577 589 590 578
f 578 590 591 579
f 579 591 592 580
f 580 592 593 581
f 581 593 594 582
f 582 594 595 583
f 583 595 596 584
f 584 596 597 585
f 585 597 598 586
f 586 598 599 587
f 587 599 600 588
f 588 600 589 577
f 589 601 602 590
f 590 602 603 591
f 591 603 604 592
f 592 604 605 593
f 593 605 606 594
f 594 606 607 595
f 595 607 608 596
f 596 608 609 597
f 597 609 610 598
f 598 610 611 599
f 599 611 612 600
f 600 612 601 589
f 601 613 614 602
f 602 614 615 603
f 603 615 616 604
f 604 616 617 605
f 605 617 618 606
f 606 618 619 607
f 607 619 620 608
f 608 620 621 609
f 609 621 622 610
f 610 622 623 611
f 611 623 624 612
f 612 624 613 601
f 613 625 626 614
f 614 626 627 615
f 615 627 628 616
f 616 628 629 617
f 617 629 630 618
f 618 630 631 619
f 619 631 632 620
f 620 632 633 621
f 621 633 634 622
f 622 634 635 623
f 623 635 636 624
f 624 636 625 613
f 625 637 638 626
f 626 638 639 627
f 627 639 640 628
f 628 640 641 629
f 629 641 642 630
f 630 642 643 631
f 631 643 644 632
f 632 644 645 633
f 633 645 646 634
f 634 646 647 635
f 635 647 648 636
f 636 648 637 625
f 637 649 650 638
f 638 650 651 639
f 639 651 652 640
f 640 652 653 641
f 641 653 654 642
f 642 654 655 643
f 643 655 656 644
f 644 656 657 645
f 645 657 658 646
f 646 658 659 647
f 647 659 660 648
f 648 660 649 637
f 649 661 662 650
f 650 662 663 651
f 651 663 664 652
f 652 664 665 653
f 653 665 666 654
f 654 666 667 655
f 655 667 668 656
f 656 668 669 657
f 657 669 670 658
f 658 670 671 659
f 659 671 672 660
f 660 672 661 649
f 661 673 674 662
f 662 674 675 663
f 663 675 676 664
f 664 676 677 665
f 665 677 678 666
f 666 678 679 667
f 667 679 680 668
f 668 680 681 669
f 669 681 682 670
f 670 682 683 671
f 671 683 684 672
f 672 684 673 661
f 673 685 686 674
f 674 686 687 675
f 675 687 688 676
f 676 688 689 677
f 677 689 690 678
f 678 690 691 679
f 679 691 692 680
f 680 692 693 681
f 681 693 694 682
f 682 694 695 683
f 683 695 696 684
f 684 696 685 673
f 685 697 698 686
f 686 698 699 687
f 687 699 700 688
f 688 700 701 689
f 689 701 702 690
f 690 702 703 691
f 691 703 704 692
f 692 704 705 693
f 693 705 706 694
f 694 706 707 695
f 695 707 708 696
f 696 708 697 685
f 697 709 710 698
f 698 710 711 699
f 699 711 712 700
f 700 712 713 701
f 701 713 714 702
f 702 714 715 703
f 703 715 716 704
f 704 716 717 705
f 705 717 718 706
f 706 718 719 707
f 707 719 720 708
f 708 720 709 697
f 709 721 722 710
f 710 722 723 711
f 711 723 724 712
f 712 724 725 713
f 713 725 726 714
f 714 726 727 715
f 715 727 728 716
f 716 728 729 717
f 717 729 730 718
f 718 730 731 719
f 719 731 732 720
f 720 732 721 709
f 721 733 734 722
f 722 734 735 723
f 723 735 736 724
f 724 736 737 725
f 725 737 738 726
f 726 738 739 727
f 727 739 740 728
f 728 740 741 729
f 729 741 742 730
f 730 742 743 731
f 731 743 744 732
f 732 744 733 721
f 733 745 746 734
f 734 746 747 735
f 735 747 748 736
f 736 748 749 737
f 737 749 750 738
f 738 750 751 739
f 739 751 752 740
f 740 752 753 741
f 741 753 754 742
f 742 754 755 743
f 743 755 756 744
f 744 756 745 733
f 745 757 758 746
f 746 758 759 747
f 747 759 760 748
f 748 760 761 749
f 749 761 762 750
f 750 762 763 751
f 751 763 764 752
f 752 764 765 753
f 753 765 766 754
f 754 766 767 755
f 755 767 768 756
f 756 768 757 745
f 757 769 770 758
f 758 770 771 759
f 759 771 772 760
f 760 772 773 761
f 761 773 774 762
f 762 774 775 763
f 763 775 776 764
f 764 776 777 765
f 765 777 778 766
f 766 778 779 767
f 767 779 780 768
f 768 780 769 757
f 769 781 782 770
f 770 782 783 771
f 771 783 784 772
f 772 784 785 773
f 773 785 786 774
f 774 786 787 775
f 775 787 788 776
f 776 788 789 777
f 777 789 790 778
f 778 790 791 779
f 779 791 792 780
f 780 792 781 769
f 781 793 794 782
f 782 794 795 783
f 783 795 796 784
f 784 796 797 785
f 785 797 798 786
f 786 798 799 787
f 787 799 800 788
f 788 800 801 789
f 789 801 802 790
f 790 802 803 791
f 791 803 804 792
f 792 804 793 781
f 793 805 806 794
f 794 806 807 795
f 795 807 808 796
f 796 808 809 797
f 797 809 810 798
f 798 810 811 799
f 799 811 812 800
f 800 812 813 801
f 801 813 814 802
f 802 814 815 803
f 803 815 816 804
f 804 816 805 793
f 805 817 818 806
f 806 818 819 807
f 807 819 820 808
f 808 820 821 809
f 809 821 822 810
f 810 822 823 811
f 811 823 824 812
f 812 824 825 813
f 813 825 826 814
f 814 826 827 815
f 815 827 828 816
f 816 828 817 805
f 817 829 830 818
f 818 830 831 819
f 819 831 832 820
f 820 832 833 821
f 821 833 834 822
f 822 834 835 823
f 823 835 836 824
f 824 836 837 825
f 825 837 838 826
f 826 838 839 827
f 827 839 840 828
f 828 840 829 817
f 829 841 842 830
f 830 842 843 831
f 831 843 844 832
f 832 844 845 833
f 833 845 846 834
f 834 846 847 835
f 835 847 848 836
f 836 848 849 837
f 837 849 850 838
f 838 850 851 839
f 839 851 852 840
f 840 852 841 829
f 841 853 854 842
f 842 854 855 843
f 843 855 856 844
f 844 856 857 845
f 845 857 858 846
f 846 858 859 847
f 847 859 860 848
f 848 860 861 849
f 849 861 862 850
f 850 862 863 851
f 851 863 864 852
f 852 864 853 841
f 853 865 866 854
f 854 866 867 855
f 855 867 868 856
f 856 868 869 857
f 857 869 870 858
f 858 870 871 859
f 859 871 872 860
f 860 872 873 861
f 861 873 874 862
f 862 874 875 863
f 863 875 876 864
f 864 876 865 853
f 865 877 878 866
f 866 878 879 867
f 867 879 880 868
f 868 880 881 869
f 869 881 882 870
f 870 882 883 871
f 871 883 884 872
f 872 884 885 873
f 873 885 886 874
f 874 886 887 875
f 875 887 888 876
f 876 888 877 865
f 877 889 890 878
f 878 890 891 879
f 879 891 892 880
f 880 892 893 881
f 881 893 894 882
f 882 894 895 883
f 883 895 896 884
f 884 896 897 885
f 885 897 898 886
f 886 898 899 887
f 887 899 900 888
f 888 900 889 877
f 889 901 902 890
f 890 902 903 891
f 891 903 904 892
f 892 904 905 893
f 893 905 906 894
f 894 906 907 895
f 895 907 908 896
f 896 908 909 897
f 897 909 910 898
f 898 910 911 899
f 899 911 912 900
f 900 912 901 889
f 901 913 914 902
f 902 914 915 903
f 903 915 916 904
f 904 916 917 905
f 905 917 918 906
f 906 918 919 907
f 907 919 920 908
f 908 920 921 909
f 909 921 922 910
f 910 922 923 911
f 911 923 924 912
f 912 924 913 901
f 913 925 926 914
f 914 926 927 915
f 915 927 928 916
f 916 928 929 917
f 917 929 930 918
f 918 930 931 919
f 919 931 932 920
f 920 932 933 921
f 921 933 934 922
f 922 934 935 923
f 923 935 936 924
f 924 936 925 913
f 925 937 938 926
f 926 938 939 927
f 927 939 940 928
f 928 940 941 929
f 929 941 942 930
f 930 942 943 931
f 931 943 944 932
f 932 944 945 933
f 933 945 946 934
f 934 946 947 935
f 935 947 948 936
f 936 948 937 925
f 937 949 950 938
f 938 950 951 939
f 939 951 952 940
f 940 952 953 941
f 941 953 954 942
f 942 954 955 943
f 943 955 956 944
f 944 956 957 945
f 945 957 958 946
f 946 958 959 947
f 947 959 960 948
f 948 960 949 937
f 949 961 962 950
f 950 962 963 951
f 951 963 964 952
f 952 964 965 953
f 953 965 966 954
f 954 966 967 955
f 955 967 968 956
f 956 968 969 957
f 957 969 970 958
f 958 970 971 959
f 959 971 972 960
f 960 972 961 949
f 961 973 974 962
f 962 974 975 963
f 963 975 976 964
f 964 976 977 965
f 965 977 978 966
f 966 978 979 967
f 967 979 980 968
f 968 980 981 969
f 969 981 982 970
f 970 982 983 971
f 971 983 984 972
f 972 984 973 961
f 973 985 986 974
f 974 986 987 975
f 975 987 988 976
f 976 988 989 977
f 977 989 990 978
f 978 990 991 979
f 979 991 992 980
f 980 992 993 981
f 981 993 994 982
f 982 994 995 983
f 983 995 996 984
f 984 996 985 973
f 985 997 998 986
f 986 998 999 987
f 987 999 1000 988
f 988 1000 1001 989
f 989 1001 1002 990
f 990 1002 1003 991
f 991 1003 1004 992
f 992 1004 1005 993
f 993 1005 1006 994
f 994 1006 1007 995
f 995 1007 1008 996
f 996 1008 997 985
f 997 1009 1010 998
f 998 1010 1011 999
f 999 1011 1012 1000
f 1000 1012 1013 1001
f 1001 1013 1014 1002
f 1002 1014 1015 1003
f 1003 1015 1016 1004
f 1004 1016 1017 1005
f 1005 1017 1018 1006
f 1006 1018 1019 1007
f 1007 1019 1020 1008
f 1008 1020 1009 997
f 1009 1021 1022 1010
f 1010 1022 1023 1011
f 1011 1023 1024 1012
f 1012 1024 1025 1013
f 1013 1025 1026 1014
f 1014 1026 1027 1015
f 1015 1027 1028 1016
f 1016 1028 1029 1017
f 1017 1029 1030 1018
f 1018 1030 1031 1019
f 1019 1031 1032 1020
f 1020 1032 1021 1009
f 1021 1033 1034 1022
f 1022 1034 1035 1023
f 1023 1035 1036 1024
f 1024 1036 1037 1025
f 1025 1037 1038 1026
f 1026 1038 1039 1027
f 1027 1039 1040 1028
f 1028 1040 1041 1029
f 1029 1041 1042 1030
f 1030 1042 1043 1031
f 1031 1043 1044 1032
f 1032 1044 1033 1021
f 1033 1045 1046 1034
f 1034 1046 1047 1035
f 1035 1047 1048 1036
f 1036 1048 1049 1037
f 1037 1049 1050 1038
f 1038 1050 1051 1039
f 1039 1051 1052 1040
f 1040 1052 1053 1041
f 1041 1053 1054 1042
f 1042 1054 1055 1043
f 1043 1055 1056 1044
f 1044 1056 1045 1033
f 1045 1057 1058 1046
f 1046 1058 1059 1047
f 1047 1059 1060 1048
f 1048 1060 1061 1049
f 1049 1061 1062 1050
f 1050 1062 1063 1051
f 1051 1063 1064 1052
f 1052 1064 1065 1053
f 1053 1065 1066 1054
f 1054 1066 1067 1055
f 1055 1067 1068 1056
f 1056 1068 1057 1045
f 1057 1069 1070 1058
f 1058 1070 1071 1059
f 1059 1071 1072 1060
f 1060 1072 1073 1061
f 1061 1073 1074 1062
f 1062 1074 1075 1063
f 1063 1075 1076 1064
f 1064 1076 1077 1065
f 1065 1077 1078 1066
f 1066 1078 1079 1067
f 1067 1079 1080 1068
f 1068 1080 1069 1057
f 1069 1081 1082 1070
f 1070 1082 1083 1071
f 1071 1083 1084 1072
f 1072 1084 1085 1073
f 1073 1085 1086 1074
f 1074 1086 1087 1075
f 1075 1087 1088 1076
f 1076 1088 1089 1077
f 1077 1089 1090 1078
f 1078 1090 1091 1079
f 1079 1091 1092 1080
f 1080 1092 1081 1069
f 1081 1093 1094 1082
f 1082 1094 1095 1083
f 1083 1095 1096 1084
f 1084 1096 1097 1085
f 1085 1097 1098 1086
f 1086 1098 1099 1087
f 1087 1099 1100 1088
f 1088 1100 1101 1089
f 1089 1101 1102 1090
f 1090 1102 1103 1091
f 1091 1103 1104 1092
f 1092 1104 1093 1081
f 1093 1105 1106 1094
f 1094 1106 1107 1095
f 1095 1107 1108 1096
f 1096 1108 1109 1097
f 1097 1109 1110 1098
f 1098 1110 1111 1099
f 1099 1111 1112 1100
f 1100 1112 1113 1101
f 1101 1113 1114 1102
f 1102 1114 1115 1103
f 1103 1115 1116 1104
f 1104 1116 1105 1093
f 1105 1117 1118 1106
f 1106 1118 1119 1107
f 1107 1119 1120 1108
f 1108 1120 1121 1109
f 1109 1121 1122 1110
f 1110 1122 1123 1111
f 1111 1123 1124 1112
f 1112 1124 1125 1113
f 1113 1125 1126 1114
f 1114 1126 1127 1115
f 1115 1127 1128 1116
f 1116 1128 1117 1105
f 1117 1129 1130 1118
f 1118 1130 1131 1119
f 1119 1131 1132 1120
f 1120 1132 1133 1121
f 1121 1133 1134 1122
f 1122 1134 1135 1123
f 1123 1135 1136 1124
f 1124 1136 1137 1125
f 1125 1137 1138 1126
f 1126 1138 1139 1127
f 1127 1139 1140 1128
f 1128 1140 1129 1117
f 1129 1141 1142 1130
f 1130 1142 1143 1131
f 1131 1143 1144 1132
f 1132 1144 1145 1133
f 1133 1145 1146 1134
f 1134 1146 1147 1135
f 1135 1147 1148 1136
f 1136 1148 1149 1137
f 1137 1149 1150 1138
f 1138 1150 1151 1139
f 1139 1151 1152 1140
f 1140 1152 1141 1129
f 1141 1153 1154 1142
f 1142 1154 1155 1143
f 1143 1155 1156 1144
f 1144 1156 1157 1145
f 1145 1157 1158 1146
f 1146 1158 1159 1147
f 1147 1159 1160 1148
f 1148 1160 1161 1149
f 1149 1161 1162 1150
f 1150 1162 1163 1151
f 1151 1163 1164 1152
f 1152 1164 1153 1141
f 1153 1165 1166 1154
f 1154 1166 1167 1155
f 1155 1167 1168 1156
f 1156 1168 1169 1157
f 1157 1169 1170 1158
f 1158 1170 1171 1159
f 1159 1171 1172 1160
f 1160 1172 1173 1161
f 1161 1173 1174 1162
f 1162 1174 1175 1163
f 1163 1175 1176 1164
f 1164 1176 1165 1153
f 1165 1177 1178 1166
f 1166 1178 1179 1167
f 1167 1179 1180 1168
f 1168 1180 1181 1169
f 1169 1181 1182 1170
f 1170 1182 1183 1171
f 1171 1183 1184 1172
f 1172 1184 1185 1173
f 1173 1185 1186 1174
f 1174 1186 1187 1175
f 1175 1187 1188 1176
f 1176 1188 1177 1165
f 1177 1189 1190 1178
f 1178 1190 1191 1179
f 1179 1191 1192 1180
f 1180 1192 1193 1181
f 1181 1193 1194 1182
f 1182 1194 1195 1183
f 1183 1195 1196 1184
f 1184 1196 1197 1185
f 1185 1197 1198 1186
f 1186 1198 1199 1187
f 1187 1199 1200 1188
f 1188 1200 1189 1177
f 1189 1201 1202 1190
f 1190 1202 1203 1191
f 1191 1203 1204 1192
f 1192 1204 1205 1193
f 1193 1205 1206 1194
f 1194 1206 1207 1195
f 1195 1207 1208 1196
f 1196 1208 1209 1197
f 1197 1209 1210 1198
f 1198 1210 1211 1199
f 1199 1211 1212 1200
f 1200 1212 1201 1189
f 1201 1213 1214 1202
f 1202 1214 1215 1203
f 1203 1215 1216 1204
f 1204 1216 1217 1205
f 1205 1217 1218 1206
f 1206 1218 1219 1207
f 1207 1219 1220 1208
f 1208 1220 1221 1209
f 1209 1221 1222 1210
f 1210 1222 1223 1211
f 1211 1223 1224 1212
f 1212 1224 1213 1201
f 1213 1225 1226 1214
f 1214 1226 1227 1215
f 1215 1227 1228 1216
f 1216 1228 1229 1217
f 1217 1229 1230 1218
f 1218 1230 1231 1219
f 1219 1231 1232 1220
f 1220 1232 1233 1221
f 1221 1233 1234 1222
f 1222 1234 1235 1223
f 1223 1235 1236 1224
f 1224 1236 1225 1213
f 1225 1237 1238 1226
f 1226 1238 1239 1227
f 1227 1239 1240 1228
f 1228 1240 1241 1229
f 1229 1241 1242 1230
f 1230 1242 1243 1231
f 1231 1243 1244 1232
f 1232 1244 1245 1233
f 1233 1245 1246 1234
f 1234 1246 1247 1235
f 1235 1247 1248 1236
f 1236 1248 1237 1225
f 1237 1249 1250 1238
f 1238 1250 1251 1239
f 1239 1251 1252 1240
f 1240 1252 1253 1241
f 1241 1253 1254 1242
f 1242 1254 1255 1243
f 1243 1255 1256 1244
f 1244 1256 1257 1245
f 1245 1257 1258 1246
f 1246 1258 1259 1247
f 1247 1259 1260 1248
f 1248 1260 1249 1237
f 1249 1261 1262 1250
f 1250 1262 1263 1251
f 1251 1263 1264 1252
f 1252 1264 1265 1253
f 1253 1265 1266 1254
f 1254 1266 1267 1255
f 1255 1267 1268 1256
f 1256 1268 1269 1257
f 1257 1269 1270 1258
f 1258 1270 1271 1259
f 1259 1271 1272 1260
f 1260 1272 1261 1249
f 1261 1273 1274 1262
f 1262 1274 1275 1263
f 1263 1275 1276 1264
f 1264 1276 1277 1265
f 1265 1277 1278 1266
f 1266 1278 1279 1267
f 1267 1279 1280 1268
f 1268 1280 1281 1269
f 1269 1281 1282 1270
f 1270 1282 1283 1271
f 1271 1283 1284 1272
f 1272 1284 1273 1261
f 1273 1285 1286 1274
f 1274 1286 1287 1275
f 1275 1287 1288 1276
f 1276 1288 1289 1277
f 1277 1289 1290 1278
f 1278 1290 1291 1279
f 1279 1291 1292 1280
f 1280 1292 1293 1281
f 1281 1293 1294 1282
f 1282 1294 1295 1283
f 1283 1295 1296 1284
f 1284 1296 1285 1273
f 1285 1297 1298 1286
f 1286 1298 1299 1287
f 1287 1299 1300 1288
f 1288 1300 1301 1289
f 1289 1301 1302 1290
f 1290 1302 1303 1291
f 1291 1303 1304 1292
f 1292 1304 1305 1293
f 1293 1305 1306 1294
f 1294 1306 1307 1295
f 1295 1307 1308 1296
f 1296 1308 1297 1285
f 1297 1309 1310 1298
f 1298 1310 1311 1299
f 1299 1311 1312 1300
f 1300 1312 1313 1301
f 1301 1313 1314 1302
f 1302 1314 1315 1303
f 1303 1315 1316 1304
f 1304 1316 1317 1305
f 1305 1317 1318 1306
f 1306 1318 1319 1307
f 1307 1319 1320 1308
f 1308 1320 1309 1297
f 1309 1321 1322 1310
f 1310 1322 1323 1311
f 1311 1323 1324 1312
f 1312 1324 1325 1313
f 1313 1325 1326 1314
f 1314 1326 1327 1315
f 1315 1327 1328 1316
f 1316 1328 1329 1317
f 1317 1329 1330 1318
f 1318 1330 1331 1319
f 1319 1331 1332 1320
f 1320 1332 1321 1309
f 1321 1333 1334 1322
f 1322 1334 1335 1323
f 1323 1335 1336 1324
f 1324 1336 1337 1325
f 1325 1337 1338 1326
f 1326 1338 1339 1327
f 1327 1339 1340 1328
f 1328 1340 1341 1329
f 1329 1341 1342 1330
f 1330 1342 1343 1331
f 1331 1343 1344 1332
f 1332 1344 1333 1321
f 1333 1345 1346 1334
f 1334 1346 1347 1335
f 1335 1347 1348 1336
f 1336 1348 1349 1337
f 1337 1349 1350 1338
f 1338 1350 1351 1339
f 1339 1351 1352 1340
f 1340 1352 1353 1341
f 1341 1353 1354 1342
f 1342 1354 1355 1343
f 1343 1355 1356 1344
f 1344 1356 1345 1333
f 1345 1357 1358 1346
f 1346 1358 1359 1347
f 1347 1359 1360 1348
f 1348 1360 1361 1349
f 1349 1361 1362 1350
f 1350 1362 1363 1351
f 1351 1363 1364 1352
f 1352 1364 1365 1353
f 1353 1365 1366 1354
f 1354 1366 1367 1355
f 1355 1367 1368 1356
f 1356 1368 1357 1345
f 1357 1369 1370 1358
f 1358 1370 1371 1359
f 1359 1371 1372 1360
f 1360 1372 1373 1361
f 1361 1373 1374 1362
f 1362 1374 1375 1363
f 1363 1375 1376 1364
f 1364 1376 1377 1365
f 1365 1377 1378 1366
f 1366 1378 1379 1367
f 1367 1379 1380 1368
f 1368 1380 1369 1357
f 1369 1381 1382 1370
f 1370 1382 1383 1371
f 1371 1383 1384 1372
f 1372 1384 1385 1373
f 1373 1385 1386 1374
f 1374 1386 1387 1375
f 1375 1387 1388 1376
f 1376 1388 1389 1377
f 1377 1389 1390 1378
f 1378 1390 1391 1379
f 1379 1391 1392 1380
f 1380 1392 1381 1369
f 1381 1393 1394 1382
f 1382 1394 1395 1383
f 1383 1395 1396 1384
f 1384 1396 1397 1385
f 1385 1397 1398 1386
f 1386 1398 1399 1387
f 1387 1399 1400 1388
f 1388 1400 1401 1389
f 1389 1401 1402 1390
f 1390 1402 1403 1391
f 1391 1403 1404 1392
f 1392 1404 1393 1381
f 1393 1405 1406 1394
f 1394 1406 1407 1395
f 1395 1407 1408 1396
f 1396 1408 1409 1397
f 1397 1409 1410 1398
f 1398 1410 1411 1399
f 1399 1411 1412 1400
f 1400 1412 1413 1401
f 1401 1413 1414 1402
f 1402 1414 1415 1403
f 1403 1415 1416 1404
f 1404 1416 1405 1393
f 1405 1417 1418 1406
f 1406 1418 1419 1407
f 1407 1419 1420 1408
f 1408 1420 1421 1409
f 1409 1421 1422 1410
f 1410 1422 1423 1411
f 1411 1423 1424 1412
f 1412 1424 1425 1413
f 1413 1425 1426 1414
f 1414 1426 1427 1415
f 1415 1427 1428 1416
f 1416 1428 1417 1405
f 1417 1429 1430 1418
f 1418 1430 1431 1419
f 1419 1431 1432 1420
f 1420 1432 1433 1421
f 1421 1433 1434 1422
f 1422 1434 1435 1423
f 1423 1435 1436 1424
f 1424 1436 1437 1425
f 1425 1437 1438 1426
f 1426 1438 1439 1427
f 1427 1439 1440 1428
f 1428 1440 1429 1417
f 1429 1441 1442 1430
f 1430 1442 1443 1431
f 1431 1443 1444 1432
f 1432 1444 1445 1433
f 1433 1445 1446 1434
f 1434 1446 1447 1435
f 1435 1447 1448 1436
f 1436 1448 1449 1437
f 1437 1449 1450 1438
f 1438 1450 1451 1439
f 1439 1451 1452 1440
f 1440 1452 1441 1429
f 1441 1453 1454 1442
f 1442 1454 1455 1443
f 1443 1455 1456 1444
f 1444 1456 1457 1445
f 1445 1457 1458 1446
f 1446 1458 1459 1447
f 1447 1459 1460 1448
f 1448 1460 1461 1449
f 1449 1461 1462 1450
f 1450 1462 1463 1451
f 1451 1463 1464 1452
f 1452 1464 1453 1441
f 1453 1465 1466 1454
f 1454 1466 1467 1455
f 1455 1467 1468 1456
f 1456 1468 1469 1457
f 1457 1469 1470 1458
f 1458 1470 1471 1459
f 1459 1471 1472 1460
f 1460 1472 1473 1461
f 1461 1473 1474 1462
f 1462 1474 1475 1463
f 1463 1475 1476 1464
f 1464 1476 1465 1453
f 1465 1477 1478 1466
f 1466 1478 1479 1467
f 1467 1479 1480 1468
f 1468 1480 1481 1469
f 1469 1481 1482 1470
f 1470 1482 1483 1471
f 1471 1483 1484 1472
f 1472 1484 1485 1473
f 1473 1485 1486 1474
f 1474 1486 1487 1475
f 1475 1487 1488 1476
f 1476 1488 1477 1465
f 1477 1489 1490 1478
f 1478 1490 1491 1479
f 1479 1491 1492 1480
f 1480 1492 1493 1481
f 1481 1493 1494 1482
f 1482 1494 1495 1483
f 1483 1495 1496 1484
f 1484 1496 1497 1485
f 1485 1497 1498 1486
f 1486 1498 1499 1487
f 1487 1499 1500 1488
f 1488 1500 1489 1477
f 1489 1501 1502 1490
f 1490 1502 1503 1491
f 1491 1503 1504 1492
f 1492 1504 1505 1493
f 1493 1505 1506 1494
f 1494 1506 1507 1495
f 1495 1507 1508 1496
f 1496 1508 1509 1497
f 1497 1509 1510 1498
f 1498 1510 1511 1499
f 1499 1511 1512 1500
f 1500 1512 1501 1489
f 1501 1513 1514 1502
f 1502 1514 1515 1503
f 1503 1515 1516 1504
f 1504 1516 1517 1505
f 1505 1517 1518 1506
f 1506 1518 1519 1507
f 1507 1519 1520 1508
f 1508 1520 1521 1509
f 1509 1521 1522 1510
f 1510 1522 1523 1511
f 1511 1523 1524 1512
f 1512 1524 1513 1501
f 1513 1525 1526 1514
f 1514 1526 1527 1515
f 1515 1527 1528 1516
f 1516 1528 1529 1517
f 1517 1529 1530 1518
f 1518 1530 1531 1519
f 1519 1531 1532 1520
f 1520 1532 1533 1521
f 1521 1533 1534 1522
f 1522 1534 1535 1523
f 1523 1535 1536 1524
f 1524 1536 1525 1513
f 1525 1 2 1526
f 1526 2 3 1527
f 1527 3 4 1528
f 1528 4 5 1529
f 1529 5 6 1530
f 1530 6 7 1531
f 1531 7 8 1532
f 1532 8 9 1533
f 1533 9 10 1534
f 1534 10 11 1535
f 1535 11 12 1536
f 1536 12 1 1525
