# Original Basketbroom procedural mesh; units cm, Z up
o SM_BB_LargeHoopLight
s 1
v 0.00000 359.28000 0.00000
v 2.82843 358.10843 0.00000
v 4.00000 355.28000 0.00000
v 2.82843 352.45157 0.00000
v 0.00000 351.28000 0.00000
v -2.82843 352.45157 0.00000
v -4.00000 355.28000 0.00000
v -2.82843 358.10843 0.00000
v 0.00000 358.84723 17.62903
v 2.82843 357.67707 17.57155
v 4.00000 354.85205 17.43276
v 2.82843 352.02703 17.29398
v 0.00000 350.85687 17.23649
v -2.82843 352.02703 17.29398
v -4.00000 354.85205 17.43276
v -2.82843 357.67707 17.57155
v 0.00000 357.54997 35.21560
v 2.82843 356.38404 35.10076
v 4.00000 353.56923 34.82353
v 2.82843 350.75442 34.54630
v 0.00000 349.58849 34.43146
v -2.82843 350.75442 34.54630
v -4.00000 353.56923 34.82353
v -2.82843 356.38404 35.10076
v 0.00000 355.39134 52.71732
v 2.82843 354.23244 52.54542
v 4.00000 351.43463 52.13040
v 2.82843 348.63682 51.71539
v 0.00000 347.47792 51.54348
v -2.82843 348.63682 51.71539
v -4.00000 351.43463 52.13040
v -2.82843 354.23244 52.54542
v 0.00000 352.37654 70.09205
v 2.82843 351.22747 69.86349
v 4.00000 348.45339 69.31169
v 2.82843 345.67931 68.75989
v 0.00000 344.53025 68.53133
v -2.82843 345.67931 68.75989
v -4.00000 348.45339 69.31169
v -2.82843 351.22747 69.86349
v 0.00000 348.51283 87.29792
v 2.82843 347.37637 87.01325
v 4.00000 344.63270 86.32600
v 2.82843 341.88904 85.63875
v 0.00000 340.75258 85.35408
v -2.82843 341.88904 85.63875
v -4.00000 344.63270 86.32600
v -2.82843 347.37637 87.01325
v 0.00000 343.80952 104.29348
v 2.82843 342.68840 103.95339
v 4.00000 339.98176 103.13234
v 2.82843 337.27513 102.31129
v 0.00000 336.15400 101.97120
v -2.82843 337.27513 102.31129
v -4.00000 339.98176 103.13234
v -2.82843 342.68840 103.95339
v 0.00000 338.27795 121.03779
v 2.82843 337.17486 120.64310
v 4.00000 334.51178 119.69023
v 2.82843 331.84869 118.73736
v 0.00000 330.74560 118.34267
v -2.82843 331.84869 118.73736
v -4.00000 334.51178 119.69023
v -2.82843 337.17486 120.64310
v 0.00000 331.93144 137.49050
v 2.82843 330.84905 137.04216
v 4.00000 328.23592 135.95977
v 2.82843 325.62279 134.87738
v 0.00000 324.54040 134.42904
v -2.82843 325.62279 134.87738
v -4.00000 328.23592 135.95977
v -2.82843 330.84905 137.04216
v 0.00000 324.78527 153.61199
v 2.82843 323.72618 153.11108
v 4.00000 321.16932 151.90177
v 2.82843 318.61245 150.69247
v 0.00000 317.55336 150.19155
v -2.82843 318.61245 150.69247
v -4.00000 321.16932 151.90177
v -2.82843 323.72618 153.11108
v 0.00000 316.85667 169.36342
v 2.82843 315.82344 168.81114
v 4.00000 313.32899 167.47783
v 2.82843 310.83454 166.14452
v 0.00000 309.80130 165.59225
v -2.82843 310.83454 166.14452
v -4.00000 313.32899 167.47783
v -2.82843 315.82344 168.81114
v 0.00000 308.16474 184.70683
v 2.82843 307.15984 184.10453
v 4.00000 304.73382 182.65042
v 2.82843 302.30780 181.19632
v 0.00000 301.30291 180.59401
v -2.82843 302.30780 181.19632
v -4.00000 304.73382 182.65042
v -2.82843 307.15984 184.10453
v 0.00000 298.73040 199.60527
v 2.82843 297.75628 198.95438
v 4.00000 295.40452 197.38299
v 2.82843 293.05277 195.81160
v 0.00000 292.07865 195.16071
v -2.82843 293.05277 195.81160
v -4.00000 295.40452 197.38299
v -2.82843 297.75628 198.95438
v 0.00000 288.57640 214.02285
v 2.82843 287.63539 213.32494
v 4.00000 285.36357 211.64005
v 2.82843 283.09176 209.95516
v 0.00000 282.15074 209.25725
v -2.82843 283.09176 209.95516
v -4.00000 285.36357 211.64005
v -2.82843 287.63539 213.32494
v 0.00000 277.72720 227.92482
v 2.82843 276.82156 227.18158
v 4.00000 274.63515 225.38725
v 2.82843 272.44875 223.59291
v 0.00000 271.54311 222.84967
v -2.82843 272.44875 223.59291
v -4.00000 274.63515 225.38725
v -2.82843 276.82156 227.18158
v 0.00000 266.20892 241.27770
v 2.82843 265.34084 240.49092
v 4.00000 263.24512 238.59147
v 2.82843 261.14939 236.69201
v 0.00000 260.28131 235.90523
v -2.82843 261.14939 236.69201
v -4.00000 263.24512 238.59147
v -2.82843 265.34084 240.49092
v 0.00000 254.04932 254.04932
v 2.82843 253.22090 253.22090
v 4.00000 251.22090 251.22090
v 2.82843 249.22090 249.22090
v 0.00000 248.39247 248.39247
v -2.82843 249.22090 249.22090
v -4.00000 251.22090 251.22090
v -2.82843 253.22090 253.22090
v 0.00000 241.27770 266.20892
v 2.82843 240.49092 265.34084
v 4.00000 238.59147 263.24512
v 2.82843 236.69201 261.14939
v 0.00000 235.90523 260.28131
v -2.82843 236.69201 261.14939
v -4.00000 238.59147 263.24512
v -2.82843 240.49092 265.34084
v 0.00000 227.92482 277.72720
v 2.82843 227.18158 276.82156
v 4.00000 225.38725 274.63515
v 2.82843 223.59291 272.44875
v 0.00000 222.84967 271.54311
v -2.82843 223.59291 272.44875
v -4.00000 225.38725 274.63515
v -2.82843 227.18158 276.82156
v 0.00000 214.02285 288.57640
v 2.82843 213.32494 287.63539
v 4.00000 211.64005 285.36357
v 2.82843 209.95516 283.09176
v 0.00000 209.25725 282.15074
v -2.82843 209.95516 283.09176
v -4.00000 211.64005 285.36357
v -2.82843 213.32494 287.63539
v 0.00000 199.60527 298.73040
v 2.82843 198.95438 297.75628
v 4.00000 197.38299 295.40452
v 2.82843 195.81160 293.05277
v 0.00000 195.16071 292.07865
v -2.82843 195.81160 293.05277
v -4.00000 197.38299 295.40452
v -2.82843 198.95438 297.75628
v 0.00000 184.70683 308.16474
v 2.82843 184.10453 307.15984
v 4.00000 182.65042 304.73382
v 2.82843 181.19632 302.30780
v 0.00000 180.59401 301.30291
v -2.82843 181.19632 302.30780
v -4.00000 182.65042 304.73382
v -2.82843 184.10453 307.15984
v 0.00000 169.36342 316.85667
v 2.82843 168.81114 315.82344
v 4.00000 167.47783 313.32899
v 2.82843 166.14452 310.83454
v 0.00000 165.59225 309.80130
v -2.82843 166.14452 310.83454
v -4.00000 167.47783 313.32899
v -2.82843 168.81114 315.82344
v 0.00000 153.61199 324.78527
v 2.82843 153.11108 323.72618
v 4.00000 151.90177 321.16932
v 2.82843 150.69247 318.61245
v 0.00000 150.19155 317.55336
v -2.82843 150.69247 318.61245
v -4.00000 151.90177 321.16932
v -2.82843 153.11108 323.72618
v 0.00000 137.49050 331.93144
v 2.82843 137.04216 330.84905
v 4.00000 135.95977 328.23592
v 2.82843 134.87738 325.62279
v 0.00000 134.42904 324.54040
v -2.82843 134.87738 325.62279
v -4.00000 135.95977 328.23592
v -2.82843 137.04216 330.84905
v 0.00000 121.03779 338.27795
v 2.82843 120.64310 337.17486
v 4.00000 119.69023 334.51178
v 2.82843 118.73736 331.84869
v 0.00000 118.34267 330.74560
v -2.82843 118.73736 331.84869
v -4.00000 119.69023 334.51178
v -2.82843 120.64310 337.17486
v 0.00000 104.29348 343.80952
v 2.82843 103.95339 342.68840
v 4.00000 103.13234 339.98176
v 2.82843 102.31129 337.27513
v 0.00000 101.97120 336.15400
v -2.82843 102.31129 337.27513
v -4.00000 103.13234 339.98176
v -2.82843 103.95339 342.68840
v 0.00000 87.29792 348.51283
v 2.82843 87.01325 347.37637
v 4.00000 86.32600 344.63270
v 2.82843 85.63875 341.88904
v 0.00000 85.35408 340.75258
v -2.82843 85.63875 341.88904
v -4.00000 86.32600 344.63270
v -2.82843 87.01325 347.37637
v 0.00000 70.09205 352.37654
v 2.82843 69.86349 351.22747
v 4.00000 69.31169 348.45339
v 2.82843 68.75989 345.67931
v 0.00000 68.53133 344.53025
v -2.82843 68.75989 345.67931
v -4.00000 69.31169 348.45339
v -2.82843 69.86349 351.22747
v 0.00000 52.71732 355.39134
v 2.82843 52.54542 354.23244
v 4.00000 52.13040 351.43463
v 2.82843 51.71539 348.63682
v 0.00000 51.54348 347.47792
v -2.82843 51.71539 348.63682
v -4.00000 52.13040 351.43463
v -2.82843 52.54542 354.23244
v 0.00000 35.21560 357.54997
v 2.82843 35.10076 356.38404
v 4.00000 34.82353 353.56923
v 2.82843 34.54630 350.75442
v 0.00000 34.43146 349.58849
v -2.82843 34.54630 350.75442
v -4.00000 34.82353 353.56923
v -2.82843 35.10076 356.38404
v 0.00000 17.62903 358.84723
v 2.82843 17.57155 357.67707
v 4.00000 17.43276 354.85205
v 2.82843 17.29398 352.02703
v 0.00000 17.23649 350.85687
v -2.82843 17.29398 352.02703
v -4.00000 17.43276 354.85205
v -2.82843 17.57155 357.67707
v 0.00000 0.00000 359.28000
v 2.82843 0.00000 358.10843
v 4.00000 0.00000 355.28000
v 2.82843 0.00000 352.45157
v 0.00000 0.00000 351.28000
v -2.82843 0.00000 352.45157
v -4.00000 0.00000 355.28000
v -2.82843 0.00000 358.10843
v 0.00000 -17.62903 358.84723
v 2.82843 -17.57155 357.67707
v 4.00000 -17.43276 354.85205
v 2.82843 -17.29398 352.02703
v 0.00000 -17.23649 350.85687
v -2.82843 -17.29398 352.02703
v -4.00000 -17.43276 354.85205
v -2.82843 -17.57155 357.67707
v 0.00000 -35.21560 357.54997
v 2.82843 -35.10076 356.38404
v 4.00000 -34.82353 353.56923
v 2.82843 -34.54630 350.75442
v 0.00000 -34.43146 349.58849
v -2.82843 -34.54630 350.75442
v -4.00000 -34.82353 353.56923
v -2.82843 -35.10076 356.38404
v 0.00000 -52.71732 355.39134
v 2.82843 -52.54542 354.23244
v 4.00000 -52.13040 351.43463
v 2.82843 -51.71539 348.63682
v 0.00000 -51.54348 347.47792
v -2.82843 -51.71539 348.63682
v -4.00000 -52.13040 351.43463
v -2.82843 -52.54542 354.23244
v 0.00000 -70.09205 352.37654
v 2.82843 -69.86349 351.22747
v 4.00000 -69.31169 348.45339
v 2.82843 -68.75989 345.67931
v 0.00000 -68.53133 344.53025
v -2.82843 -68.75989 345.67931
v -4.00000 -69.31169 348.45339
v -2.82843 -69.86349 351.22747
v 0.00000 -87.29792 348.51283
v 2.82843 -87.01325 347.37637
v 4.00000 -86.32600 344.63270
v 2.82843 -85.63875 341.88904
v 0.00000 -85.35408 340.75258
v -2.82843 -85.63875 341.88904
v -4.00000 -86.32600 344.63270
v -2.82843 -87.01325 347.37637
v 0.00000 -104.29348 343.80952
v 2.82843 -103.95339 342.68840
v 4.00000 -103.13234 339.98176
v 2.82843 -102.31129 337.27513
v 0.00000 -101.97120 336.15400
v -2.82843 -102.31129 337.27513
v -4.00000 -103.13234 339.98176
v -2.82843 -103.95339 342.68840
v 0.00000 -121.03779 338.27795
v 2.82843 -120.64310 337.17486
v 4.00000 -119.69023 334.51178
v 2.82843 -118.73736 331.84869
v 0.00000 -118.34267 330.74560
v -2.82843 -118.73736 331.84869
v -4.00000 -119.69023 334.51178
v -2.82843 -120.64310 337.17486
v 0.00000 -137.49050 331.93144
v 2.82843 -137.04216 330.84905
v 4.00000 -135.95977 328.23592
v 2.82843 -134.87738 325.62279
v 0.00000 -134.42904 324.54040
v -2.82843 -134.87738 325.62279
v -4.00000 -135.95977 328.23592
v -2.82843 -137.04216 330.84905
v 0.00000 -153.61199 324.78527
v 2.82843 -153.11108 323.72618
v 4.00000 -151.90177 321.16932
v 2.82843 -150.69247 318.61245
v 0.00000 -150.19155 317.55336
v -2.82843 -150.69247 318.61245
v -4.00000 -151.90177 321.16932
v -2.82843 -153.11108 323.72618
v 0.00000 -169.36342 316.85667
v 2.82843 -168.81114 315.82344
v 4.00000 -167.47783 313.32899
v 2.82843 -166.14452 310.83454
v 0.00000 -165.59225 309.80130
v -2.82843 -166.14452 310.83454
v -4.00000 -167.47783 313.32899
v -2.82843 -168.81114 315.82344
v 0.00000 -184.70683 308.16474
v 2.82843 -184.10453 307.15984
v 4.00000 -182.65042 304.73382
v 2.82843 -181.19632 302.30780
v 0.00000 -180.59401 301.30291
v -2.82843 -181.19632 302.30780
v -4.00000 -182.65042 304.73382
v -2.82843 -184.10453 307.15984
v 0.00000 -199.60527 298.73040
v 2.82843 -198.95438 297.75628
v 4.00000 -197.38299 295.40452
v 2.82843 -195.81160 293.05277
v 0.00000 -195.16071 292.07865
v -2.82843 -195.81160 293.05277
v -4.00000 -197.38299 295.40452
v -2.82843 -198.95438 297.75628
v 0.00000 -214.02285 288.57640
v 2.82843 -213.32494 287.63539
v 4.00000 -211.64005 285.36357
v 2.82843 -209.95516 283.09176
v 0.00000 -209.25725 282.15074
v -2.82843 -209.95516 283.09176
v -4.00000 -211.64005 285.36357
v -2.82843 -213.32494 287.63539
v 0.00000 -227.92482 277.72720
v 2.82843 -227.18158 276.82156
v 4.00000 -225.38725 274.63515
v 2.82843 -223.59291 272.44875
v 0.00000 -222.84967 271.54311
v -2.82843 -223.59291 272.44875
v -4.00000 -225.38725 274.63515
v -2.82843 -227.18158 276.82156
v 0.00000 -241.27770 266.20892
v 2.82843 -240.49092 265.34084
v 4.00000 -238.59147 263.24512
v 2.82843 -236.69201 261.14939
v 0.00000 -235.90523 260.28131
v -2.82843 -236.69201 261.14939
v -4.00000 -238.59147 263.24512
v -2.82843 -240.49092 265.34084
v 0.00000 -254.04932 254.04932
v 2.82843 -253.22090 253.22090
v 4.00000 -251.22090 251.22090
v 2.82843 -249.22090 249.22090
v 0.00000 -248.39247 248.39247
v -2.82843 -249.22090 249.22090
v -4.00000 -251.22090 251.22090
v -2.82843 -253.22090 253.22090
v 0.00000 -266.20892 241.27770
v 2.82843 -265.34084 240.49092
v 4.00000 -263.24512 238.59147
v 2.82843 -261.14939 236.69201
v 0.00000 -260.28131 235.90523
v -2.82843 -261.14939 236.69201
v -4.00000 -263.24512 238.59147
v -2.82843 -265.34084 240.49092
v 0.00000 -277.72720 227.92482
v 2.82843 -276.82156 227.18158
v 4.00000 -274.63515 225.38725
v 2.82843 -272.44875 223.59291
v 0.00000 -271.54311 222.84967
v -2.82843 -272.44875 223.59291
v -4.00000 -274.63515 225.38725
v -2.82843 -276.82156 227.18158
v 0.00000 -288.57640 214.02285
v 2.82843 -287.63539 213.32494
v 4.00000 -285.36357 211.64005
v 2.82843 -283.09176 209.95516
v 0.00000 -282.15074 209.25725
v -2.82843 -283.09176 209.95516
v -4.00000 -285.36357 211.64005
v -2.82843 -287.63539 213.32494
v 0.00000 -298.73040 199.60527
v 2.82843 -297.75628 198.95438
v 4.00000 -295.40452 197.38299
v 2.82843 -293.05277 195.81160
v 0.00000 -292.07865 195.16071
v -2.82843 -293.05277 195.81160
v -4.00000 -295.40452 197.38299
v -2.82843 -297.75628 198.95438
v 0.00000 -308.16474 184.70683
v 2.82843 -307.15984 184.10453
v 4.00000 -304.73382 182.65042
v 2.82843 -302.30780 181.19632
v 0.00000 -301.30291 180.59401
v -2.82843 -302.30780 181.19632
v -4.00000 -304.73382 182.65042
v -2.82843 -307.15984 184.10453
v 0.00000 -316.85667 169.36342
v 2.82843 -315.82344 168.81114
v 4.00000 -313.32899 167.47783
v 2.82843 -310.83454 166.14452
v 0.00000 -309.80130 165.59225
v -2.82843 -310.83454 166.14452
v -4.00000 -313.32899 167.47783
v -2.82843 -315.82344 168.81114
v 0.00000 -324.78527 153.61199
v 2.82843 -323.72618 153.11108
v 4.00000 -321.16932 151.90177
v 2.82843 -318.61245 150.69247
v 0.00000 -317.55336 150.19155
v -2.82843 -318.61245 150.69247
v -4.00000 -321.16932 151.90177
v -2.82843 -323.72618 153.11108
v 0.00000 -331.93144 137.49050
v 2.82843 -330.84905 137.04216
v 4.00000 -328.23592 135.95977
v 2.82843 -325.62279 134.87738
v 0.00000 -324.54040 134.42904
v -2.82843 -325.62279 134.87738
v -4.00000 -328.23592 135.95977
v -2.82843 -330.84905 137.04216
v 0.00000 -338.27795 121.03779
v 2.82843 -337.17486 120.64310
v 4.00000 -334.51178 119.69023
v 2.82843 -331.84869 118.73736
v 0.00000 -330.74560 118.34267
v -2.82843 -331.84869 118.73736
v -4.00000 -334.51178 119.69023
v -2.82843 -337.17486 120.64310
v 0.00000 -343.80952 104.29348
v 2.82843 -342.68840 103.95339
v 4.00000 -339.98176 103.13234
v 2.82843 -337.27513 102.31129
v 0.00000 -336.15400 101.97120
v -2.82843 -337.27513 102.31129
v -4.00000 -339.98176 103.13234
v -2.82843 -342.68840 103.95339
v 0.00000 -348.51283 87.29792
v 2.82843 -347.37637 87.01325
v 4.00000 -344.63270 86.32600
v 2.82843 -341.88904 85.63875
v 0.00000 -340.75258 85.35408
v -2.82843 -341.88904 85.63875
v -4.00000 -344.63270 86.32600
v -2.82843 -347.37637 87.01325
v 0.00000 -352.37654 70.09205
v 2.82843 -351.22747 69.86349
v 4.00000 -348.45339 69.31169
v 2.82843 -345.67931 68.75989
v 0.00000 -344.53025 68.53133
v -2.82843 -345.67931 68.75989
v -4.00000 -348.45339 69.31169
v -2.82843 -351.22747 69.86349
v 0.00000 -355.39134 52.71732
v 2.82843 -354.23244 52.54542
v 4.00000 -351.43463 52.13040
v 2.82843 -348.63682 51.71539
v 0.00000 -347.47792 51.54348
v -2.82843 -348.63682 51.71539
v -4.00000 -351.43463 52.13040
v -2.82843 -354.23244 52.54542
v 0.00000 -357.54997 35.21560
v 2.82843 -356.38404 35.10076
v 4.00000 -353.56923 34.82353
v 2.82843 -350.75442 34.54630
v 0.00000 -349.58849 34.43146
v -2.82843 -350.75442 34.54630
v -4.00000 -353.56923 34.82353
v -2.82843 -356.38404 35.10076
v 0.00000 -358.84723 17.62903
v 2.82843 -357.67707 17.57155
v 4.00000 -354.85205 17.43276
v 2.82843 -352.02703 17.29398
v 0.00000 -350.85687 17.23649
v -2.82843 -352.02703 17.29398
v -4.00000 -354.85205 17.43276
v -2.82843 -357.67707 17.57155
v 0.00000 -359.28000 0.00000
v 2.82843 -358.10843 0.00000
v 4.00000 -355.28000 0.00000
v 2.82843 -352.45157 0.00000
v 0.00000 -351.28000 0.00000
v -2.82843 -352.45157 0.00000
v -4.00000 -355.28000 0.00000
v -2.82843 -358.10843 0.00000
v 0.00000 -358.84723 -17.62903
v 2.82843 -357.67707 -17.57155
v 4.00000 -354.85205 -17.43276
v 2.82843 -352.02703 -17.29398
v 0.00000 -350.85687 -17.23649
v -2.82843 -352.02703 -17.29398
v -4.00000 -354.85205 -17.43276
v -2.82843 -357.67707 -17.57155
v 0.00000 -357.54997 -35.21560
v 2.82843 -356.38404 -35.10076
v 4.00000 -353.56923 -34.82353
v 2.82843 -350.75442 -34.54630
v 0.00000 -349.58849 -34.43146
v -2.82843 -350.75442 -34.54630
v -4.00000 -353.56923 -34.82353
v -2.82843 -356.38404 -35.10076
v 0.00000 -355.39134 -52.71732
v 2.82843 -354.23244 -52.54542
v 4.00000 -351.43463 -52.13040
v 2.82843 -348.63682 -51.71539
v 0.00000 -347.47792 -51.54348
v -2.82843 -348.63682 -51.71539
v -4.00000 -351.43463 -52.13040
v -2.82843 -354.23244 -52.54542
v 0.00000 -352.37654 -70.09205
v 2.82843 -351.22747 -69.86349
v 4.00000 -348.45339 -69.31169
v 2.82843 -345.67931 -68.75989
v 0.00000 -344.53025 -68.53133
v -2.82843 -345.67931 -68.75989
v -4.00000 -348.45339 -69.31169
v -2.82843 -351.22747 -69.86349
v 0.00000 -348.51283 -87.29792
v 2.82843 -347.37637 -87.01325
v 4.00000 -344.63270 -86.32600
v 2.82843 -341.88904 -85.63875
v 0.00000 -340.75258 -85.35408
v -2.82843 -341.88904 -85.63875
v -4.00000 -344.63270 -86.32600
v -2.82843 -347.37637 -87.01325
v 0.00000 -343.80952 -104.29348
v 2.82843 -342.68840 -103.95339
v 4.00000 -339.98176 -103.13234
v 2.82843 -337.27513 -102.31129
v 0.00000 -336.15400 -101.97120
v -2.82843 -337.27513 -102.31129
v -4.00000 -339.98176 -103.13234
v -2.82843 -342.68840 -103.95339
v 0.00000 -338.27795 -121.03779
v 2.82843 -337.17486 -120.64310
v 4.00000 -334.51178 -119.69023
v 2.82843 -331.84869 -118.73736
v 0.00000 -330.74560 -118.34267
v -2.82843 -331.84869 -118.73736
v -4.00000 -334.51178 -119.69023
v -2.82843 -337.17486 -120.64310
v 0.00000 -331.93144 -137.49050
v 2.82843 -330.84905 -137.04216
v 4.00000 -328.23592 -135.95977
v 2.82843 -325.62279 -134.87738
v 0.00000 -324.54040 -134.42904
v -2.82843 -325.62279 -134.87738
v -4.00000 -328.23592 -135.95977
v -2.82843 -330.84905 -137.04216
v 0.00000 -324.78527 -153.61199
v 2.82843 -323.72618 -153.11108
v 4.00000 -321.16932 -151.90177
v 2.82843 -318.61245 -150.69247
v 0.00000 -317.55336 -150.19155
v -2.82843 -318.61245 -150.69247
v -4.00000 -321.16932 -151.90177
v -2.82843 -323.72618 -153.11108
v 0.00000 -316.85667 -169.36342
v 2.82843 -315.82344 -168.81114
v 4.00000 -313.32899 -167.47783
v 2.82843 -310.83454 -166.14452
v 0.00000 -309.80130 -165.59225
v -2.82843 -310.83454 -166.14452
v -4.00000 -313.32899 -167.47783
v -2.82843 -315.82344 -168.81114
v 0.00000 -308.16474 -184.70683
v 2.82843 -307.15984 -184.10453
v 4.00000 -304.73382 -182.65042
v 2.82843 -302.30780 -181.19632
v 0.00000 -301.30291 -180.59401
v -2.82843 -302.30780 -181.19632
v -4.00000 -304.73382 -182.65042
v -2.82843 -307.15984 -184.10453
v 0.00000 -298.73040 -199.60527
v 2.82843 -297.75628 -198.95438
v 4.00000 -295.40452 -197.38299
v 2.82843 -293.05277 -195.81160
v 0.00000 -292.07865 -195.16071
v -2.82843 -293.05277 -195.81160
v -4.00000 -295.40452 -197.38299
v -2.82843 -297.75628 -198.95438
v 0.00000 -288.57640 -214.02285
v 2.82843 -287.63539 -213.32494
v 4.00000 -285.36357 -211.64005
v 2.82843 -283.09176 -209.95516
v 0.00000 -282.15074 -209.25725
v -2.82843 -283.09176 -209.95516
v -4.00000 -285.36357 -211.64005
v -2.82843 -287.63539 -213.32494
v 0.00000 -277.72720 -227.92482
v 2.82843 -276.82156 -227.18158
v 4.00000 -274.63515 -225.38725
v 2.82843 -272.44875 -223.59291
v 0.00000 -271.54311 -222.84967
v -2.82843 -272.44875 -223.59291
v -4.00000 -274.63515 -225.38725
v -2.82843 -276.82156 -227.18158
v 0.00000 -266.20892 -241.27770
v 2.82843 -265.34084 -240.49092
v 4.00000 -263.24512 -238.59147
v 2.82843 -261.14939 -236.69201
v 0.00000 -260.28131 -235.90523
v -2.82843 -261.14939 -236.69201
v -4.00000 -263.24512 -238.59147
v -2.82843 -265.34084 -240.49092
v 0.00000 -254.04932 -254.04932
v 2.82843 -253.22090 -253.22090
v 4.00000 -251.22090 -251.22090
v 2.82843 -249.22090 -249.22090
v 0.00000 -248.39247 -248.39247
v -2.82843 -249.22090 -249.22090
v -4.00000 -251.22090 -251.22090
v -2.82843 -253.22090 -253.22090
v 0.00000 -241.27770 -266.20892
v 2.82843 -240.49092 -265.34084
v 4.00000 -238.59147 -263.24512
v 2.82843 -236.69201 -261.14939
v 0.00000 -235.90523 -260.28131
v -2.82843 -236.69201 -261.14939
v -4.00000 -238.59147 -263.24512
v -2.82843 -240.49092 -265.34084
v 0.00000 -227.92482 -277.72720
v 2.82843 -227.18158 -276.82156
v 4.00000 -225.38725 -274.63515
v 2.82843 -223.59291 -272.44875
v 0.00000 -222.84967 -271.54311
v -2.82843 -223.59291 -272.44875
v -4.00000 -225.38725 -274.63515
v -2.82843 -227.18158 -276.82156
v 0.00000 -214.02285 -288.57640
v 2.82843 -213.32494 -287.63539
v 4.00000 -211.64005 -285.36357
v 2.82843 -209.95516 -283.09176
v 0.00000 -209.25725 -282.15074
v -2.82843 -209.95516 -283.09176
v -4.00000 -211.64005 -285.36357
v -2.82843 -213.32494 -287.63539
v 0.00000 -199.60527 -298.73040
v 2.82843 -198.95438 -297.75628
v 4.00000 -197.38299 -295.40452
v 2.82843 -195.81160 -293.05277
v 0.00000 -195.16071 -292.07865
v -2.82843 -195.81160 -293.05277
v -4.00000 -197.38299 -295.40452
v -2.82843 -198.95438 -297.75628
v 0.00000 -184.70683 -308.16474
v 2.82843 -184.10453 -307.15984
v 4.00000 -182.65042 -304.73382
v 2.82843 -181.19632 -302.30780
v 0.00000 -180.59401 -301.30291
v -2.82843 -181.19632 -302.30780
v -4.00000 -182.65042 -304.73382
v -2.82843 -184.10453 -307.15984
v 0.00000 -169.36342 -316.85667
v 2.82843 -168.81114 -315.82344
v 4.00000 -167.47783 -313.32899
v 2.82843 -166.14452 -310.83454
v 0.00000 -165.59225 -309.80130
v -2.82843 -166.14452 -310.83454
v -4.00000 -167.47783 -313.32899
v -2.82843 -168.81114 -315.82344
v 0.00000 -153.61199 -324.78527
v 2.82843 -153.11108 -323.72618
v 4.00000 -151.90177 -321.16932
v 2.82843 -150.69247 -318.61245
v 0.00000 -150.19155 -317.55336
v -2.82843 -150.69247 -318.61245
v -4.00000 -151.90177 -321.16932
v -2.82843 -153.11108 -323.72618
v 0.00000 -137.49050 -331.93144
v 2.82843 -137.04216 -330.84905
v 4.00000 -135.95977 -328.23592
v 2.82843 -134.87738 -325.62279
v 0.00000 -134.42904 -324.54040
v -2.82843 -134.87738 -325.62279
v -4.00000 -135.95977 -328.23592
v -2.82843 -137.04216 -330.84905
v 0.00000 -121.03779 -338.27795
v 2.82843 -120.64310 -337.17486
v 4.00000 -119.69023 -334.51178
v 2.82843 -118.73736 -331.84869
v 0.00000 -118.34267 -330.74560
v -2.82843 -118.73736 -331.84869
v -4.00000 -119.69023 -334.51178
v -2.82843 -120.64310 -337.17486
v 0.00000 -104.29348 -343.80952
v 2.82843 -103.95339 -342.68840
v 4.00000 -103.13234 -339.98176
v 2.82843 -102.31129 -337.27513
v 0.00000 -101.97120 -336.15400
v -2.82843 -102.31129 -337.27513
v -4.00000 -103.13234 -339.98176
v -2.82843 -103.95339 -342.68840
v 0.00000 -87.29792 -348.51283
v 2.82843 -87.01325 -347.37637
v 4.00000 -86.32600 -344.63270
v 2.82843 -85.63875 -341.88904
v 0.00000 -85.35408 -340.75258
v -2.82843 -85.63875 -341.88904
v -4.00000 -86.32600 -344.63270
v -2.82843 -87.01325 -347.37637
v 0.00000 -70.09205 -352.37654
v 2.82843 -69.86349 -351.22747
v 4.00000 -69.31169 -348.45339
v 2.82843 -68.75989 -345.67931
v 0.00000 -68.53133 -344.53025
v -2.82843 -68.75989 -345.67931
v -4.00000 -69.31169 -348.45339
v -2.82843 -69.86349 -351.22747
v 0.00000 -52.71732 -355.39134
v 2.82843 -52.54542 -354.23244
v 4.00000 -52.13040 -351.43463
v 2.82843 -51.71539 -348.63682
v 0.00000 -51.54348 -347.47792
v -2.82843 -51.71539 -348.63682
v -4.00000 -52.13040 -351.43463
v -2.82843 -52.54542 -354.23244
v 0.00000 -35.21560 -357.54997
v 2.82843 -35.10076 -356.38404
v 4.00000 -34.82353 -353.56923
v 2.82843 -34.54630 -350.75442
v 0.00000 -34.43146 -349.58849
v -2.82843 -34.54630 -350.75442
v -4.00000 -34.82353 -353.56923
v -2.82843 -35.10076 -356.38404
v 0.00000 -17.62903 -358.84723
v 2.82843 -17.57155 -357.67707
v 4.00000 -17.43276 -354.85205
v 2.82843 -17.29398 -352.02703
v 0.00000 -17.23649 -350.85687
v -2.82843 -17.29398 -352.02703
v -4.00000 -17.43276 -354.85205
v -2.82843 -17.57155 -357.67707
v 0.00000 -0.00000 -359.28000
v 2.82843 -0.00000 -358.10843
v 4.00000 -0.00000 -355.28000
v 2.82843 -0.00000 -352.45157
v 0.00000 -0.00000 -351.28000
v -2.82843 -0.00000 -352.45157
v -4.00000 -0.00000 -355.28000
v -2.82843 -0.00000 -358.10843
v 0.00000 17.62903 -358.84723
v 2.82843 17.57155 -357.67707
v 4.00000 17.43276 -354.85205
v 2.82843 17.29398 -352.02703
v 0.00000 17.23649 -350.85687
v -2.82843 17.29398 -352.02703
v -4.00000 17.43276 -354.85205
v -2.82843 17.57155 -357.67707
v 0.00000 35.21560 -357.54997
v 2.82843 35.10076 -356.38404
v 4.00000 34.82353 -353.56923
v 2.82843 34.54630 -350.75442
v 0.00000 34.43146 -349.58849
v -2.82843 34.54630 -350.75442
v -4.00000 34.82353 -353.56923
v -2.82843 35.10076 -356.38404
v 0.00000 52.71732 -355.39134
v 2.82843 52.54542 -354.23244
v 4.00000 52.13040 -351.43463
v 2.82843 51.71539 -348.63682
v 0.00000 51.54348 -347.47792
v -2.82843 51.71539 -348.63682
v -4.00000 52.13040 -351.43463
v -2.82843 52.54542 -354.23244
v 0.00000 70.09205 -352.37654
v 2.82843 69.86349 -351.22747
v 4.00000 69.31169 -348.45339
v 2.82843 68.75989 -345.67931
v 0.00000 68.53133 -344.53025
v -2.82843 68.75989 -345.67931
v -4.00000 69.31169 -348.45339
v -2.82843 69.86349 -351.22747
v 0.00000 87.29792 -348.51283
v 2.82843 87.01325 -347.37637
v 4.00000 86.32600 -344.63270
v 2.82843 85.63875 -341.88904
v 0.00000 85.35408 -340.75258
v -2.82843 85.63875 -341.88904
v -4.00000 86.32600 -344.63270
v -2.82843 87.01325 -347.37637
v 0.00000 104.29348 -343.80952
v 2.82843 103.95339 -342.68840
v 4.00000 103.13234 -339.98176
v 2.82843 102.31129 -337.27513
v 0.00000 101.97120 -336.15400
v -2.82843 102.31129 -337.27513
v -4.00000 103.13234 -339.98176
v -2.82843 103.95339 -342.68840
v 0.00000 121.03779 -338.27795
v 2.82843 120.64310 -337.17486
v 4.00000 119.69023 -334.51178
v 2.82843 118.73736 -331.84869
v 0.00000 118.34267 -330.74560
v -2.82843 118.73736 -331.84869
v -4.00000 119.69023 -334.51178
v -2.82843 120.64310 -337.17486
v 0.00000 137.49050 -331.93144
v 2.82843 137.04216 -330.84905
v 4.00000 135.95977 -328.23592
v 2.82843 134.87738 -325.62279
v 0.00000 134.42904 -324.54040
v -2.82843 134.87738 -325.62279
v -4.00000 135.95977 -328.23592
v -2.82843 137.04216 -330.84905
v 0.00000 153.61199 -324.78527
v 2.82843 153.11108 -323.72618
v 4.00000 151.90177 -321.16932
v 2.82843 150.69247 -318.61245
v 0.00000 150.19155 -317.55336
v -2.82843 150.69247 -318.61245
v -4.00000 151.90177 -321.16932
v -2.82843 153.11108 -323.72618
v 0.00000 169.36342 -316.85667
v 2.82843 168.81114 -315.82344
v 4.00000 167.47783 -313.32899
v 2.82843 166.14452 -310.83454
v 0.00000 165.59225 -309.80130
v -2.82843 166.14452 -310.83454
v -4.00000 167.47783 -313.32899
v -2.82843 168.81114 -315.82344
v 0.00000 184.70683 -308.16474
v 2.82843 184.10453 -307.15984
v 4.00000 182.65042 -304.73382
v 2.82843 181.19632 -302.30780
v 0.00000 180.59401 -301.30291
v -2.82843 181.19632 -302.30780
v -4.00000 182.65042 -304.73382
v -2.82843 184.10453 -307.15984
v 0.00000 199.60527 -298.73040
v 2.82843 198.95438 -297.75628
v 4.00000 197.38299 -295.40452
v 2.82843 195.81160 -293.05277
v 0.00000 195.16071 -292.07865
v -2.82843 195.81160 -293.05277
v -4.00000 197.38299 -295.40452
v -2.82843 198.95438 -297.75628
v 0.00000 214.02285 -288.57640
v 2.82843 213.32494 -287.63539
v 4.00000 211.64005 -285.36357
v 2.82843 209.95516 -283.09176
v 0.00000 209.25725 -282.15074
v -2.82843 209.95516 -283.09176
v -4.00000 211.64005 -285.36357
v -2.82843 213.32494 -287.63539
v 0.00000 227.92482 -277.72720
v 2.82843 227.18158 -276.82156
v 4.00000 225.38725 -274.63515
v 2.82843 223.59291 -272.44875
v 0.00000 222.84967 -271.54311
v -2.82843 223.59291 -272.44875
v -4.00000 225.38725 -274.63515
v -2.82843 227.18158 -276.82156
v 0.00000 241.27770 -266.20892
v 2.82843 240.49092 -265.34084
v 4.00000 238.59147 -263.24512
v 2.82843 236.69201 -261.14939
v 0.00000 235.90523 -260.28131
v -2.82843 236.69201 -261.14939
v -4.00000 238.59147 -263.24512
v -2.82843 240.49092 -265.34084
v 0.00000 254.04932 -254.04932
v 2.82843 253.22090 -253.22090
v 4.00000 251.22090 -251.22090
v 2.82843 249.22090 -249.22090
v 0.00000 248.39247 -248.39247
v -2.82843 249.22090 -249.22090
v -4.00000 251.22090 -251.22090
v -2.82843 253.22090 -253.22090
v 0.00000 266.20892 -241.27770
v 2.82843 265.34084 -240.49092
v 4.00000 263.24512 -238.59147
v 2.82843 261.14939 -236.69201
v 0.00000 260.28131 -235.90523
v -2.82843 261.14939 -236.69201
v -4.00000 263.24512 -238.59147
v -2.82843 265.34084 -240.49092
v 0.00000 277.72720 -227.92482
v 2.82843 276.82156 -227.18158
v 4.00000 274.63515 -225.38725
v 2.82843 272.44875 -223.59291
v 0.00000 271.54311 -222.84967
v -2.82843 272.44875 -223.59291
v -4.00000 274.63515 -225.38725
v -2.82843 276.82156 -227.18158
v 0.00000 288.57640 -214.02285
v 2.82843 287.63539 -213.32494
v 4.00000 285.36357 -211.64005
v 2.82843 283.09176 -209.95516
v 0.00000 282.15074 -209.25725
v -2.82843 283.09176 -209.95516
v -4.00000 285.36357 -211.64005
v -2.82843 287.63539 -213.32494
v 0.00000 298.73040 -199.60527
v 2.82843 297.75628 -198.95438
v 4.00000 295.40452 -197.38299
v 2.82843 293.05277 -195.81160
v 0.00000 292.07865 -195.16071
v -2.82843 293.05277 -195.81160
v -4.00000 295.40452 -197.38299
v -2.82843 297.75628 -198.95438
v 0.00000 308.16474 -184.70683
v 2.82843 307.15984 -184.10453
v 4.00000 304.73382 -182.65042
v 2.82843 302.30780 -181.19632
v 0.00000 301.30291 -180.59401
v -2.82843 302.30780 -181.19632
v -4.00000 304.73382 -182.65042
v -2.82843 307.15984 -184.10453
v 0.00000 316.85667 -169.36342
v 2.82843 315.82344 -168.81114
v 4.00000 313.32899 -167.47783
v 2.82843 310.83454 -166.14452
v 0.00000 309.80130 -165.59225
v -2.82843 310.83454 -166.14452
v -4.00000 313.32899 -167.47783
v -2.82843 315.82344 -168.81114
v 0.00000 324.78527 -153.61199
v 2.82843 323.72618 -153.11108
v 4.00000 321.16932 -151.90177
v 2.82843 318.61245 -150.69247
v 0.00000 317.55336 -150.19155
v -2.82843 318.61245 -150.69247
v -4.00000 321.16932 -151.90177
v -2.82843 323.72618 -153.11108
v 0.00000 331.93144 -137.49050
v 2.82843 330.84905 -137.04216
v 4.00000 328.23592 -135.95977
v 2.82843 325.62279 -134.87738
v 0.00000 324.54040 -134.42904
v -2.82843 325.62279 -134.87738
v -4.00000 328.23592 -135.95977
v -2.82843 330.84905 -137.04216
v 0.00000 338.27795 -121.03779
v 2.82843 337.17486 -120.64310
v 4.00000 334.51178 -119.69023
v 2.82843 331.84869 -118.73736
v 0.00000 330.74560 -118.34267
v -2.82843 331.84869 -118.73736
v -4.00000 334.51178 -119.69023
v -2.82843 337.17486 -120.64310
v 0.00000 343.80952 -104.29348
v 2.82843 342.68840 -103.95339
v 4.00000 339.98176 -103.13234
v 2.82843 337.27513 -102.31129
v 0.00000 336.15400 -101.97120
v -2.82843 337.27513 -102.31129
v -4.00000 339.98176 -103.13234
v -2.82843 342.68840 -103.95339
v 0.00000 348.51283 -87.29792
v 2.82843 347.37637 -87.01325
v 4.00000 344.63270 -86.32600
v 2.82843 341.88904 -85.63875
v 0.00000 340.75258 -85.35408
v -2.82843 341.88904 -85.63875
v -4.00000 344.63270 -86.32600
v -2.82843 347.37637 -87.01325
v 0.00000 352.37654 -70.09205
v 2.82843 351.22747 -69.86349
v 4.00000 348.45339 -69.31169
v 2.82843 345.67931 -68.75989
v 0.00000 344.53025 -68.53133
v -2.82843 345.67931 -68.75989
v -4.00000 348.45339 -69.31169
v -2.82843 351.22747 -69.86349
v 0.00000 355.39134 -52.71732
v 2.82843 354.23244 -52.54542
v 4.00000 351.43463 -52.13040
v 2.82843 348.63682 -51.71539
v 0.00000 347.47792 -51.54348
v -2.82843 348.63682 -51.71539
v -4.00000 351.43463 -52.13040
v -2.82843 354.23244 -52.54542
v 0.00000 357.54997 -35.21560
v 2.82843 356.38404 -35.10076
v 4.00000 353.56923 -34.82353
v 2.82843 350.75442 -34.54630
v 0.00000 349.58849 -34.43146
v -2.82843 350.75442 -34.54630
v -4.00000 353.56923 -34.82353
v -2.82843 356.38404 -35.10076
v 0.00000 358.84723 -17.62903
v 2.82843 357.67707 -17.57155
v 4.00000 354.85205 -17.43276
v 2.82843 352.02703 -17.29398
v 0.00000 350.85687 -17.23649
v -2.82843 352.02703 -17.29398
v -4.00000 354.85205 -17.43276
v -2.82843 357.67707 -17.57155
f 1 9 10 2
f 2 10 11 3
f 3 11 12 4
f 4 12 13 5
f 5 13 14 6
f 6 14 15 7
f 7 15 16 8
f 8 16 9 1
f 9 17 18 10
f 10 18 19 11
f 11 19 20 12
f 12 20 21 13
f 13 21 22 14
f 14 22 23 15
f 15 23 24 16
f 16 24 17 9
f 17 25 26 18
f 18 26 27 19
f 19 27 28 20
f 20 28 29 21
f 21 29 30 22
f 22 30 31 23
f 23 31 32 24
f 24 32 25 17
f 25 33 34 26
f 26 34 35 27
f 27 35 36 28
f 28 36 37 29
f 29 37 38 30
f 30 38 39 31
f 31 39 40 32
f 32 40 33 25
f 33 41 42 34
f 34 42 43 35
f 35 43 44 36
f 36 44 45 37
f 37 45 46 38
f 38 46 47 39
f 39 47 48 40
f 40 48 41 33
f 41 49 50 42
f 42 50 51 43
f 43 51 52 44
f 44 52 53 45
f 45 53 54 46
f 46 54 55 47
f 47 55 56 48
f 48 56 49 41
f 49 57 58 50
f 50 58 59 51
f 51 59 60 52
f 52 60 61 53
f 53 61 62 54
f 54 62 63 55
f 55 63 64 56
f 56 64 57 49
f 57 65 66 58
f 58 66 67 59
f 59 67 68 60
f 60 68 69 61
f 61 69 70 62
f 62 70 71 63
f 63 71 72 64
f 64 72 65 57
f 65 73 74 66
f 66 74 75 67
f 67 75 76 68
f 68 76 77 69
f 69 77 78 70
f 70 78 79 71
f 71 79 80 72
f 72 80 73 65
f 73 81 82 74
f 74 82 83 75
f 75 83 84 76
f 76 84 85 77
f 77 85 86 78
f 78 86 87 79
f 79 87 88 80
f 80 88 81 73
f 81 89 90 82
f 82 90 91 83
f 83 91 92 84
f 84 92 93 85
f 85 93 94 86
f 86 94 95 87
f 87 95 96 88
f 88 96 89 81
f 89 97 98 90
f 90 98 99 91
f 91 99 100 92
f 92 100 101 93
f 93 101 102 94
f 94 102 103 95
f 95 103 104 96
f 96 104 97 89
f 97 105 106 98
f 98 106 107 99
f 99 107 108 100
f 100 108 109 101
f 101 109 110 102
f 102 110 111 103
f 103 111 112 104
f 104 112 105 97
f 105 113 114 106
f 106 114 115 107
f 107 115 116 108
f 108 116 117 109
f 109 117 118 110
f 110 118 119 111
f 111 119 120 112
f 112 120 113 105
f 113 121 122 114
f 114 122 123 115
f 115 123 124 116
f 116 124 125 117
f 117 125 126 118
f 118 126 127 119
f 119 127 128 120
f 120 128 121 113
f 121 129 130 122
f 122 130 131 123
f 123 131 132 124
f 124 132 133 125
f 125 133 134 126
f 126 134 135 127
f 127 135 136 128
f 128 136 129 121
f 129 137 138 130
f 130 138 139 131
f 131 139 140 132
f 132 140 141 133
f 133 141 142 134
f 134 142 143 135
f 135 143 144 136
f 136 144 137 129
f 137 145 146 138
f 138 146 147 139
f 139 147 148 140
f 140 148 149 141
f 141 149 150 142
f 142 150 151 143
f 143 151 152 144
f 144 152 145 137
f 145 153 154 146
f 146 154 155 147
f 147 155 156 148
f 148 156 157 149
f 149 157 158 150
f 150 158 159 151
f 151 159 160 152
f 152 160 153 145
f 153 161 162 154
f 154 162 163 155
f 155 163 164 156
f 156 164 165 157
f 157 165 166 158
f 158 166 167 159
f 159 167 168 160
f 160 168 161 153
f 161 169 170 162
f 162 170 171 163
f 163 171 172 164
f 164 172 173 165
f 165 173 174 166
f 166 174 175 167
f 167 175 176 168
f 168 176 169 161
f 169 177 178 170
f 170 178 179 171
f 171 179 180 172
f 172 180 181 173
f 173 181 182 174
f 174 182 183 175
f 175 183 184 176
f 176 184 177 169
f 177 185 186 178
f 178 186 187 179
f 179 187 188 180
f 180 188 189 181
f 181 189 190 182
f 182 190 191 183
f 183 191 192 184
f 184 192 185 177
f 185 193 194 186
f 186 194 195 187
f 187 195 196 188
f 188 196 197 189
f 189 197 198 190
f 190 198 199 191
f 191 199 200 192
f 192 200 193 185
f 193 201 202 194
f 194 202 203 195
f 195 203 204 196
f 196 204 205 197
f 197 205 206 198
f 198 206 207 199
f 199 207 208 200
f 200 208 201 193
f 201 209 210 202
f 202 210 211 203
f 203 211 212 204
f 204 212 213 205
f 205 213 214 206
f 206 214 215 207
f 207 215 216 208
f 208 216 209 201
f 209 217 218 210
f 210 218 219 211
f 211 219 220 212
f 212 220 221 213
f 213 221 222 214
f 214 222 223 215
f 215 223 224 216
f 216 224 217 209
f 217 225 226 218
f 218 226 227 219
f 219 227 228 220
f 220 228 229 221
f 221 229 230 222
f 222 230 231 223
f 223 231 232 224
f 224 232 225 217
f 225 233 234 226
f 226 234 235 227
f 227 235 236 228
f 228 236 237 229
f 229 237 238 230
f 230 238 239 231
f 231 239 240 232
f 232 240 233 225
f 233 241 242 234
f 234 242 243 235
f 235 243 244 236
f 236 244 245 237
f 237 245 246 238
f 238 246 247 239
f 239 247 248 240
f 240 248 241 233
f 241 249 250 242
f 242 250 251 243
f 243 251 252 244
f 244 252 253 245
f 245 253 254 246
f 246 254 255 247
f 247 255 256 248
f 248 256 249 241
f 249 257 258 250
f 250 258 259 251
f 251 259 260 252
f 252 260 261 253
f 253 261 262 254
f 254 262 263 255
f 255 263 264 256
f 256 264 257 249
f 257 265 266 258
f 258 266 267 259
f 259 267 268 260
f 260 268 269 261
f 261 269 270 262
f 262 270 271 263
f 263 271 272 264
f 264 272 265 257
f 265 273 274 266
f 266 274 275 267
f 267 275 276 268
f 268 276 277 269
f 269 277 278 270
f 270 278 279 271
f 271 279 280 272
f 272 280 273 265
f 273 281 282 274
f 274 282 283 275
f 275 283 284 276
f 276 284 285 277
f 277 285 286 278
f 278 286 287 279
f 279 287 288 280
f 280 288 281 273
f 281 289 290 282
f 282 290 291 283
f 283 291 292 284
f 284 292 293 285
f 285 293 294 286
f 286 294 295 287
f 287 295 296 288
f 288 296 289 281
f 289 297 298 290
f 290 298 299 291
f 291 299 300 292
f 292 300 301 293
f 293 301 302 294
f 294 302 303 295
f 295 303 304 296
f 296 304 297 289
f 297 305 306 298
f 298 306 307 299
f 299 307 308 300
f 300 308 309 301
f 301 309 310 302
f 302 310 311 303
f 303 311 312 304
f 304 312 305 297
f 305 313 314 306
f 306 314 315 307
f 307 315 316 308
f 308 316 317 309
f 309 317 318 310
f 310 318 319 311
f 311 319 320 312
f 312 320 313 305
f 313 321 322 314
f 314 322 323 315
f 315 323 324 316
f 316 324 325 317
f 317 325 326 318
f 318 326 327 319
f 319 327 328 320
f 320 328 321 313
f 321 329 330 322
f 322 330 331 323
f 323 331 332 324
f 324 332 333 325
f 325 333 334 326
f 326 334 335 327
f 327 335 336 328
f 328 336 329 321
f 329 337 338 330
f 330 338 339 331
f 331 339 340 332
f 332 340 341 333
f 333 341 342 334
f 334 342 343 335
f 335 343 344 336
f 336 344 337 329
f 337 345 346 338
f 338 346 347 339
f 339 347 348 340
f 340 348 349 341
f 341 349 350 342
f 342 350 351 343
f 343 351 352 344
f 344 352 345 337
f 345 353 354 346
f 346 354 355 347
f 347 355 356 348
f 348 356 357 349
f 349 357 358 350
f 350 358 359 351
f 351 359 360 352
f 352 360 353 345
f 353 361 362 354
f 354 362 363 355
f 355 363 364 356
f 356 364 365 357
f 357 365 366 358
f 358 366 367 359
f 359 367 368 360
f 360 368 361 353
f 361 369 370 362
f 362 370 371 363
f 363 371 372 364
f 364 372 373 365
f 365 373 374 366
f 366 374 375 367
f 367 375 376 368
f 368 376 369 361
f 369 377 378 370
f 370 378 379 371
f 371 379 380 372
f 372 380 381 373
f 373 381 382 374
f 374 382 383 375
f 375 383 384 376
f 376 384 377 369
f 377 385 386 378
f 378 386 387 379
f 379 387 388 380
f 380 388 389 381
f 381 389 390 382
f 382 390 391 383
f 383 391 392 384
f 384 392 385 377
f 385 393 394 386
f 386 394 395 387
f 387 395 396 388
f 388 396 397 389
f 389 397 398 390
f 390 398 399 391
f 391 399 400 392
f 392 400 393 385
f 393 401 402 394
f 394 402 403 395
f 395 403 404 396
f 396 404 405 397
f 397 405 406 398
f 398 406 407 399
f 399 407 408 400
f 400 408 401 393
f 401 409 410 402
f 402 410 411 403
f 403 411 412 404
f 404 412 413 405
f 405 413 414 406
f 406 414 415 407
f 407 415 416 408
f 408 416 409 401
f 409 417 418 410
f 410 418 419 411
f 411 419 420 412
f 412 420 421 413
f 413 421 422 414
f 414 422 423 415
f 415 423 424 416
f 416 424 417 409
f 417 425 426 418
f 418 426 427 419
f 419 427 428 420
f 420 428 429 421
f 421 429 430 422
f 422 430 431 423
f 423 431 432 424
f 424 432 425 417
f 425 433 434 426
f 426 434 435 427
f 427 435 436 428
f 428 436 437 429
f 429 437 438 430
f 430 438 439 431
f 431 439 440 432
f 432 440 433 425
f 433 441 442 434
f 434 442 443 435
f 435 443 444 436
f 436 444 445 437
f 437 445 446 438
f 438 446 447 439
f 439 447 448 440
f 440 448 441 433
f 441 449 450 442
f 442 450 451 443
f 443 451 452 444
f 444 452 453 445
f 445 453 454 446
f 446 454 455 447
f 447 455 456 448
f 448 456 449 441
f 449 457 458 450
f 450 458 459 451
f 451 459 460 452
f 452 460 461 453
f 453 461 462 454
f 454 462 463 455
f 455 463 464 456
f 456 464 457 449
f 457 465 466 458
f 458 466 467 459
f 459 467 468 460
f 460 468 469 461
f 461 469 470 462
f 462 470 471 463
f 463 471 472 464
f 464 472 465 457
f 465 473 474 466
f 466 474 475 467
f 467 475 476 468
f 468 476 477 469
f 469 477 478 470
f 470 478 479 471
f 471 479 480 472
f 472 480 473 465
f 473 481 482 474
f 474 482 483 475
f 475 483 484 476
f 476 484 485 477
f 477 485 486 478
f 478 486 487 479
f 479 487 488 480
f 480 488 481 473
f 481 489 490 482
f 482 490 491 483
f 483 491 492 484
f 484 492 493 485
f 485 493 494 486
f 486 494 495 487
f 487 495 496 488
f 488 496 489 481
f 489 497 498 490
f 490 498 499 491
f 491 499 500 492
f 492 500 501 493
f 493 501 502 494
f 494 502 503 495
f 495 503 504 496
f 496 504 497 489
f 497 505 506 498
f 498 506 507 499
f 499 507 508 500
f 500 508 509 501
f 501 509 510 502
f 502 510 511 503
f 503 511 512 504
f 504 512 505 497
f 505 513 514 506
f 506 514 515 507
f 507 515 516 508
f 508 516 517 509
f 509 517 518 510
f 510 518 519 511
f 511 519 520 512
f 512 520 513 505
f 513 521 522 514
f 514 522 523 515
f 515 523 524 516
f 516 524 525 517
f 517 525 526 518
f 518 526 527 519
f 519 527 528 520
f 520 528 521 513
f 521 529 530 522
f 522 530 531 523
f 523 531 532 524
f 524 532 533 525
f 525 533 534 526
f 526 534 535 527
f 527 535 536 528
f 528 536 529 521
f 529 537 538 530
f 530 538 539 531
f 531 539 540 532
f 532 540 541 533
f 533 541 542 534
f 534 542 543 535
f 535 543 544 536
f 536 544 537 529
f 537 545 546 538
f 538 546 547 539
f 539 547 548 540
f 540 548 549 541
f 541 549 550 542
f 542 550 551 543
f 543 551 552 544
f 544 552 545 537
f 545 553 554 546
f 546 554 555 547
f 547 555 556 548
f 548 556 557 549
f 549 557 558 550
f 550 558 559 551
f 551 559 560 552
f 552 560 553 545
f 553 561 562 554
f 554 562 563 555
f 555 563 564 556
f 556 564 565 557
f 557 565 566 558
f 558 566 567 559
f 559 567 568 560
f 560 568 561 553
f 561 569 570 562
f 562 570 571 563
f 563 571 572 564
f 564 572 573 565
f 565 573 574 566
f 566 574 575 567
f 567 575 576 568
f 568 576 569 561
f 569 577 578 570
f 570 578 579 571
f 571 579 580 572
f 572 580 581 573
f 573 581 582 574
f 574 582 583 575
f 575 583 584 576
f 576 584 577 569
f 577 585 586 578
f 578 586 587 579
f 579 587 588 580
f 580 588 589 581
f 581 589 590 582
f 582 590 591 583
f 583 591 592 584
f 584 592 585 577
f 585 593 594 586
f 586 594 595 587
f 587 595 596 588
f 588 596 597 589
f 589 597 598 590
f 590 598 599 591
f 591 599 600 592
f 592 600 593 585
f 593 601 602 594
f 594 602 603 595
f 595 603 604 596
f 596 604 605 597
f 597 605 606 598
f 598 606 607 599
f 599 607 608 600
f 600 608 601 593
f 601 609 610 602
f 602 610 611 603
f 603 611 612 604
f 604 612 613 605
f 605 613 614 606
f 606 614 615 607
f 607 615 616 608
f 608 616 609 601
f 609 617 618 610
f 610 618 619 611
f 611 619 620 612
f 612 620 621 613
f 613 621 622 614
f 614 622 623 615
f 615 623 624 616
f 616 624 617 609
f 617 625 626 618
f 618 626 627 619
f 619 627 628 620
f 620 628 629 621
f 621 629 630 622
f 622 630 631 623
f 623 631 632 624
f 624 632 625 617
f 625 633 634 626
f 626 634 635 627
f 627 635 636 628
f 628 636 637 629
f 629 637 638 630
f 630 638 639 631
f 631 639 640 632
f 632 640 633 625
f 633 641 642 634
f 634 642 643 635
f 635 643 644 636
f 636 644 645 637
f 637 645 646 638
f 638 646 647 639
f 639 647 648 640
f 640 648 641 633
f 641 649 650 642
f 642 650 651 643
f 643 651 652 644
f 644 652 653 645
f 645 653 654 646
f 646 654 655 647
f 647 655 656 648
f 648 656 649 641
f 649 657 658 650
f 650 658 659 651
f 651 659 660 652
f 652 660 661 653
f 653 661 662 654
f 654 662 663 655
f 655 663 664 656
f 656 664 657 649
f 657 665 666 658
f 658 666 667 659
f 659 667 668 660
f 660 668 669 661
f 661 669 670 662
f 662 670 671 663
f 663 671 672 664
f 664 672 665 657
f 665 673 674 666
f 666 674 675 667
f 667 675 676 668
f 668 676 677 669
f 669 677 678 670
f 670 678 679 671
f 671 679 680 672
f 672 680 673 665
f 673 681 682 674
f 674 682 683 675
f 675 683 684 676
f 676 684 685 677
f 677 685 686 678
f 678 686 687 679
f 679 687 688 680
f 680 688 681 673
f 681 689 690 682
f 682 690 691 683
f 683 691 692 684
f 684 692 693 685
f 685 693 694 686
f 686 694 695 687
f 687 695 696 688
f 688 696 689 681
f 689 697 698 690
f 690 698 699 691
f 691 699 700 692
f 692 700 701 693
f 693 701 702 694
f 694 702 703 695
f 695 703 704 696
f 696 704 697 689
f 697 705 706 698
f 698 706 707 699
f 699 707 708 700
f 700 708 709 701
f 701 709 710 702
f 702 710 711 703
f 703 711 712 704
f 704 712 705 697
f 705 713 714 706
f 706 714 715 707
f 707 715 716 708
f 708 716 717 709
f 709 717 718 710
f 710 718 719 711
f 711 719 720 712
f 712 720 713 705
f 713 721 722 714
f 714 722 723 715
f 715 723 724 716
f 716 724 725 717
f 717 725 726 718
f 718 726 727 719
f 719 727 728 720
f 720 728 721 713
f 721 729 730 722
f 722 730 731 723
f 723 731 732 724
f 724 732 733 725
f 725 733 734 726
f 726 734 735 727
f 727 735 736 728
f 728 736 729 721
f 729 737 738 730
f 730 738 739 731
f 731 739 740 732
f 732 740 741 733
f 733 741 742 734
f 734 742 743 735
f 735 743 744 736
f 736 744 737 729
f 737 745 746 738
f 738 746 747 739
f 739 747 748 740
f 740 748 749 741
f 741 749 750 742
f 742 750 751 743
f 743 751 752 744
f 744 752 745 737
f 745 753 754 746
f 746 754 755 747
f 747 755 756 748
f 748 756 757 749
f 749 757 758 750
f 750 758 759 751
f 751 759 760 752
f 752 760 753 745
f 753 761 762 754
f 754 762 763 755
f 755 763 764 756
f 756 764 765 757
f 757 765 766 758
f 758 766 767 759
f 759 767 768 760
f 760 768 761 753
f 761 769 770 762
f 762 770 771 763
f 763 771 772 764
f 764 772 773 765
f 765 773 774 766
f 766 774 775 767
f 767 775 776 768
f 768 776 769 761
f 769 777 778 770
f 770 778 779 771
f 771 779 780 772
f 772 780 781 773
f 773 781 782 774
f 774 782 783 775
f 775 783 784 776
f 776 784 777 769
f 777 785 786 778
f 778 786 787 779
f 779 787 788 780
f 780 788 789 781
f 781 789 790 782
f 782 790 791 783
f 783 791 792 784
f 784 792 785 777
f 785 793 794 786
f 786 794 795 787
f 787 795 796 788
f 788 796 797 789
f 789 797 798 790
f 790 798 799 791
f 791 799 800 792
f 792 800 793 785
f 793 801 802 794
f 794 802 803 795
f 795 803 804 796
f 796 804 805 797
f 797 805 806 798
f 798 806 807 799
f 799 807 808 800
f 800 808 801 793
f 801 809 810 802
f 802 810 811 803
f 803 811 812 804
f 804 812 813 805
f 805 813 814 806
f 806 814 815 807
f 807 815 816 808
f 808 816 809 801
f 809 817 818 810
f 810 818 819 811
f 811 819 820 812
f 812 820 821 813
f 813 821 822 814
f 814 822 823 815
f 815 823 824 816
f 816 824 817 809
f 817 825 826 818
f 818 826 827 819
f 819 827 828 820
f 820 828 829 821
f 821 829 830 822
f 822 830 831 823
f 823 831 832 824
f 824 832 825 817
f 825 833 834 826
f 826 834 835 827
f 827 835 836 828
f 828 836 837 829
f 829 837 838 830
f 830 838 839 831
f 831 839 840 832
f 832 840 833 825
f 833 841 842 834
f 834 842 843 835
f 835 843 844 836
f 836 844 845 837
f 837 845 846 838
f 838 846 847 839
f 839 847 848 840
f 840 848 841 833
f 841 849 850 842
f 842 850 851 843
f 843 851 852 844
f 844 852 853 845
f 845 853 854 846
f 846 854 855 847
f 847 855 856 848
f 848 856 849 841
f 849 857 858 850
f 850 858 859 851
f 851 859 860 852
f 852 860 861 853
f 853 861 862 854
f 854 862 863 855
f 855 863 864 856
f 856 864 857 849
f 857 865 866 858
f 858 866 867 859
f 859 867 868 860
f 860 868 869 861
f 861 869 870 862
f 862 870 871 863
f 863 871 872 864
f 864 872 865 857
f 865 873 874 866
f 866 874 875 867
f 867 875 876 868
f 868 876 877 869
f 869 877 878 870
f 870 878 879 871
f 871 879 880 872
f 872 880 873 865
f 873 881 882 874
f 874 882 883 875
f 875 883 884 876
f 876 884 885 877
f 877 885 886 878
f 878 886 887 879
f 879 887 888 880
f 880 888 881 873
f 881 889 890 882
f 882 890 891 883
f 883 891 892 884
f 884 892 893 885
f 885 893 894 886
f 886 894 895 887
f 887 895 896 888
f 888 896 889 881
f 889 897 898 890
f 890 898 899 891
f 891 899 900 892
f 892 900 901 893
f 893 901 902 894
f 894 902 903 895
f 895 903 904 896
f 896 904 897 889
f 897 905 906 898
f 898 906 907 899
f 899 907 908 900
f 900 908 909 901
f 901 909 910 902
f 902 910 911 903
f 903 911 912 904
f 904 912 905 897
f 905 913 914 906
f 906 914 915 907
f 907 915 916 908
f 908 916 917 909
f 909 917 918 910
f 910 918 919 911
f 911 919 920 912
f 912 920 913 905
f 913 921 922 914
f 914 922 923 915
f 915 923 924 916
f 916 924 925 917
f 917 925 926 918
f 918 926 927 919
f 919 927 928 920
f 920 928 921 913
f 921 929 930 922
f 922 930 931 923
f 923 931 932 924
f 924 932 933 925
f 925 933 934 926
f 926 934 935 927
f 927 935 936 928
f 928 936 929 921
f 929 937 938 930
f 930 938 939 931
f 931 939 940 932
f 932 940 941 933
f 933 941 942 934
f 934 942 943 935
f 935 943 944 936
f 936 944 937 929
f 937 945 946 938
f 938 946 947 939
f 939 947 948 940
f 940 948 949 941
f 941 949 950 942
f 942 950 951 943
f 943 951 952 944
f 944 952 945 937
f 945 953 954 946
f 946 954 955 947
f 947 955 956 948
f 948 956 957 949
f 949 957 958 950
f 950 958 959 951
f 951 959 960 952
f 952 960 953 945
f 953 961 962 954
f 954 962 963 955
f 955 963 964 956
f 956 964 965 957
f 957 965 966 958
f 958 966 967 959
f 959 967 968 960
f 960 968 961 953
f 961 969 970 962
f 962 970 971 963
f 963 971 972 964
f 964 972 973 965
f 965 973 974 966
f 966 974 975 967
f 967 975 976 968
f 968 976 969 961
f 969 977 978 970
f 970 978 979 971
f 971 979 980 972
f 972 980 981 973
f 973 981 982 974
f 974 982 983 975
f 975 983 984 976
f 976 984 977 969
f 977 985 986 978
f 978 986 987 979
f 979 987 988 980
f 980 988 989 981
f 981 989 990 982
f 982 990 991 983
f 983 991 992 984
f 984 992 985 977
f 985 993 994 986
f 986 994 995 987
f 987 995 996 988
f 988 996 997 989
f 989 997 998 990
f 990 998 999 991
f 991 999 1000 992
f 992 1000 993 985
f 993 1001 1002 994
f 994 1002 1003 995
f 995 1003 1004 996
f 996 1004 1005 997
f 997 1005 1006 998
f 998 1006 1007 999
f 999 1007 1008 1000
f 1000 1008 1001 993
f 1001 1009 1010 1002
f 1002 1010 1011 1003
f 1003 1011 1012 1004
f 1004 1012 1013 1005
f 1005 1013 1014 1006
f 1006 1014 1015 1007
f 1007 1015 1016 1008
f 1008 1016 1009 1001
f 1009 1017 1018 1010
f 1010 1018 1019 1011
f 1011 1019 1020 1012
f 1012 1020 1021 1013
f 1013 1021 1022 1014
f 1014 1022 1023 1015
f 1015 1023 1024 1016
f 1016 1024 1017 1009
f 1017 1 2 1018
f 1018 2 3 1019
f 1019 3 4 1020
f 1020 4 5 1021
f 1021 5 6 1022
f 1022 6 7 1023
f 1023 7 8 1024
f 1024 8 1 1017
