# Original Basketbroom procedural mesh; units cm, Z up
o SM_BB_Stars
s 1
v 31645.95189 0.00000 4800.00000
v 31629.95189 0.00000 4800.00000
v 31637.95189 8.00000 4800.00000
v 31637.95189 -8.00000 4800.00000
v 31637.95189 0.00000 4808.00000
v 31637.95189 0.00000 4792.00000
v -20997.99672 19246.87804 14564.94845
v -21021.99672 19246.87804 14564.94845
v -21009.99672 19258.87804 14564.94845
v -21009.99672 19234.87804 14564.94845
v -21009.99672 19246.87804 14576.94845
v -21009.99672 19246.87804 14552.94845
v 1833.22758 -20706.37101 24329.89691
v 1801.22758 -20706.37101 24329.89691
v 1817.22758 -20690.37101 24329.89691
v 1817.22758 -20722.37101 24329.89691
v 1817.22758 -20706.37101 24345.89691
v 1817.22758 -20706.37101 24313.89691
v 18791.47388 24484.06361 8494.84536
v 18751.47388 24484.06361 8494.84536
v 18771.47388 24504.06361 8494.84536
v 18771.47388 24464.06361 8494.84536
v 18771.47388 24484.06361 8514.84536
v 18771.47388 24484.06361 8474.84536
v -25869.17493 -4577.30788 18259.79381
v -25885.17493 -4577.30788 18259.79381
v -25877.17493 -4569.30788 18259.79381
v -25877.17493 -4585.30788 18259.79381
v -25877.17493 -4577.30788 18267.79381
v -25877.17493 -4577.30788 18251.79381
v 13045.59761 -8290.90793 28024.74227
v 13021.59761 -8290.90793 28024.74227
v 13033.59761 -8278.90793 28024.74227
v 13033.59761 -8302.90793 28024.74227
v 13033.59761 -8290.90793 28036.74227
v 13033.59761 -8290.90793 28012.74227
v -7665.00413 28572.95252 12189.69072
v -7697.00413 28572.95252 12189.69072
v -7681.00413 28588.95252 12189.69072
v -7681.00413 28556.95252 12189.69072
v -7681.00413 28572.95252 12205.69072
v -7681.00413 28572.95252 12173.69072
v -10710.26615 -20660.47451 21954.63918
v -10750.26615 -20660.47451 21954.63918
v -10730.26615 -20640.47451 21954.63918
v -10730.26615 -20680.47451 21954.63918
v -10730.26615 -20660.47451 21974.63918
v -10730.26615 -20660.47451 21934.63918
v 29511.52190 10774.63888 6119.58763
v 29495.52190 10774.63888 6119.58763
v 29503.52190 10782.63888 6119.58763
v 29503.52190 10766.63888 6119.58763
v 29503.52190 10774.63888 6127.58763
v 29503.52190 10774.63888 6111.58763
v -25665.53949 10599.31503 15884.53608
v -25689.53949 10599.31503 15884.53608
v -25677.53949 10611.31503 15884.53608
v -25677.53949 10587.31503 15884.53608
v -25677.53949 10599.31503 15896.53608
v -25677.53949 10599.31503 15872.53608
v 8125.80267 -17330.17725 25649.48454
v 8093.80267 -17330.17725 25649.48454
v 8109.80267 -17314.17725 25649.48454
v 8109.80267 -17346.17725 25649.48454
v 8109.80267 -17330.17725 25665.48454
v 8109.80267 -17330.17725 25633.48454
v 9135.52477 29061.72936 9814.43299
v 9095.52477 29061.72936 9814.43299
v 9115.52477 29081.72936 9814.43299
v 9115.52477 29041.72936 9814.43299
v 9115.52477 29061.72936 9834.43299
v 9115.52477 29061.72936 9794.43299
v -21891.37975 -12691.13820 19579.38144
v -21907.37975 -12691.13820 19579.38144
v -21899.37975 -12683.13820 19579.38144
v -21899.37975 -12699.13820 19579.38144
v -21899.37975 -12691.13820 19587.38144
v -21899.37975 -12691.13820 19571.38144
v 12477.93020 -2740.59978 29344.32990
v 12453.93020 -2740.59978 29344.32990
v 12465.93020 -2728.59978 29344.32990
v 12465.93020 -2752.59978 29344.32990
v 12465.93020 -2740.59978 29356.32990
v 12465.93020 -2740.59978 29332.32990
v -16667.70476 23730.85321 13509.27835
v -16699.70476 23730.85321 13509.27835
v -16683.70476 23746.85321 13509.27835
v -16683.70476 23714.85321 13509.27835
v -16683.70476 23730.85321 13525.27835
v -16683.70476 23730.85321 13493.27835
v -2802.29595 -21779.46308 23274.22680
v -2842.29595 -21779.46308 23274.22680
v -2822.29595 -21759.46308 23274.22680
v -2822.29595 -21799.46308 23274.22680
v -2822.29595 -21779.46308 23294.22680
v -2822.29595 -21779.46308 23254.22680
v 23806.38618 20057.30507 7439.17526
v 23790.38618 20057.30507 7439.17526
v 23798.38618 20065.30507 7439.17526
v 23798.38618 20049.30507 7439.17526
v 23798.38618 20057.30507 7447.17526
v 23798.38618 20057.30507 7431.17526
v -26946.77004 1114.82978 17204.12371
v -26970.77004 1114.82978 17204.12371
v -26958.77004 1126.82978 17204.12371
v -26958.77004 1102.82978 17204.12371
v -26958.77004 1114.82978 17216.12371
v -26958.77004 1114.82978 17192.12371
v 12224.93896 -12149.52493 26969.07216
v 12192.93896 -12149.52493 26969.07216
v 12208.93896 -12133.52493 26969.07216
v 12208.93896 -12165.52493 26969.07216
v 12208.93896 -12149.52493 26985.07216
v 12208.93896 -12149.52493 26953.07216
v -1365.76923 29968.53731 11134.02062
v -1405.76923 29968.53731 11134.02062
v -1385.76923 29988.53731 11134.02062
v -1385.76923 29948.53731 11134.02062
v -1385.76923 29968.53731 11154.02062
v -1385.76923 29968.53731 11114.02062
v -15518.23600 -18605.61978 20898.96907
v -15534.23600 -18605.61978 20898.96907
v -15526.23600 -18597.61978 20898.96907
v -15526.23600 -18613.61978 20898.96907
v -15526.23600 -18605.61978 20906.96907
v -15526.23600 -18605.61978 20890.96907
v 31326.60585 4213.33593 5063.91753
v 31302.60585 4213.33593 5063.91753
v 31314.60585 4225.33593 5063.91753
v 31314.60585 4201.33593 5063.91753
v 31314.60585 4213.33593 5075.91753
v 31314.60585 4213.33593 5051.91753
v -23260.86688 16195.43770 14828.86598
v -23292.86688 16195.43770 14828.86598
v -23276.86688 16211.43770 14828.86598
v -23276.86688 16179.43770 14828.86598
v -23276.86688 16195.43770 14844.86598
v -23276.86688 16195.43770 14812.86598
v 4513.44509 -19973.81393 24593.81443
v 4473.44509 -19973.81393 24593.81443
v 4493.44509 -19953.81393 24593.81443
v 4493.44509 -19993.81393 24593.81443
v 4493.44509 -19973.81393 24613.81443
v 4493.44509 -19973.81393 24573.81443
v 15310.22319 26704.41983 8758.76289
v 15294.22319 26704.41983 8758.76289
v 15302.22319 26712.41983 8758.76289
v 15302.22319 26696.41983 8758.76289
v 15302.22319 26704.41983 8766.76289
v 15302.22319 26704.41983 8750.76289
v -24847.11410 -7930.73542 18523.71134
v -24871.11410 -7930.73542 18523.71134
v -24859.11410 -7918.73542 18523.71134
v -24859.11410 -7942.73542 18523.71134
v -24859.11410 -7930.73542 18535.71134
v -24859.11410 -7930.73542 18511.71134
v 13595.04210 -6273.86187 28288.65979
v 13563.04210 -6273.86187 28288.65979
v 13579.04210 -6257.86187 28288.65979
v 13579.04210 -6289.86187 28288.65979
v 13579.04210 -6273.86187 28304.65979
v 13579.04210 -6273.86187 28272.65979
v -11360.01494 27191.96392 12453.60825
v -11400.01494 27191.96392 12453.60825
v -11380.01494 27211.96392 12453.60825
v -11380.01494 27171.96392 12453.60825
v -11380.01494 27191.96392 12473.60825
v -11380.01494 27191.96392 12433.60825
v -7786.22414 -21669.92866 22218.55670
v -7802.22414 -21669.92866 22218.55670
v -7794.22414 -21661.92866 22218.55670
v -7794.22414 -21677.92866 22218.55670
v -7794.22414 -21669.92866 22226.55670
v -7794.22414 -21669.92866 22210.55670
v 27768.73576 14588.16240 6383.50515
v 27744.73576 14588.16240 6383.50515
v 27756.73576 14600.16240 6383.50515
v 27756.73576 14576.16240 6383.50515
v 27756.73576 14588.16240 6395.50515
v 27756.73576 14588.16240 6371.50515
v -26698.06587 7041.74203 16148.45361
v -26730.06587 7041.74203 16148.45361
v -26714.06587 7057.74203 16148.45361
v -26714.06587 7025.74203 16148.45361
v -26714.06587 7041.74203 16164.45361
v -26714.06587 7041.74203 16132.45361
v 10174.15607 -15792.04572 25913.40206
v 10134.15607 -15792.04572 25913.40206
v 10154.15607 -15772.04572 25913.40206
v 10154.15607 -15812.04572 25913.40206
v 10154.15607 -15792.04572 25933.40206
v 10154.15607 -15792.04572 25893.40206
v 5152.20518 29932.65782 10078.35052
v 5136.20518 29932.65782 10078.35052
v 5144.20518 29940.65782 10078.35052
v 5144.20518 29924.65782 10078.35052
v 5144.20518 29932.65782 10086.35052
v 5144.20518 29932.65782 10070.35052
v -19836.31863 -15371.65357 19843.29897
v -19860.31863 -15371.65357 19843.29897
v -19848.31863 -15359.65357 19843.29897
v -19848.31863 -15383.65357 19843.29897
v -19848.31863 -15371.65357 19855.29897
v -19848.31863 -15371.65357 19831.29897
v 12113.40423 -1002.24521 29608.24742
v 12081.40423 -1002.24521 29608.24742
v 12097.40423 -986.24521 29608.24742
v 12097.40423 -1018.24521 29608.24742
v 12097.40423 -1002.24521 29624.24742
v 12097.40423 -1002.24521 29592.24742
v -19594.68794 21202.90292 13773.19588
v -19634.68794 21202.90292 13773.19588
v -19614.68794 21222.90292 13773.19588
v -19614.68794 21182.90292 13773.19588
v -19614.68794 21202.90292 13793.19588
v -19614.68794 21202.90292 13753.19588
v 113.75355 -21678.20513 23538.14433
v 97.75355 -21678.20513 23538.14433
v 105.75355 -21670.20513 23538.14433
v 105.75355 -21686.20513 23538.14433
v 105.75355 -21678.20513 23546.14433
v 105.75355 -21678.20513 23530.14433
v 20880.09092 23004.02449 7703.09278
v 20856.09092 23004.02449 7703.09278
v 20868.09092 23016.02449 7703.09278
v 20868.09092 22992.02449 7703.09278
v 20868.09092 23004.02449 7715.09278
v 20868.09092 23004.02449 7691.09278
v -26681.29162 -2474.29899 17468.04124
v -26713.29162 -2474.29899 17468.04124
v -26697.29162 -2458.29899 17468.04124
v -26697.29162 -2490.29899 17468.04124
v -26697.29162 -2474.29899 17484.04124
v -26697.29162 -2474.29899 17452.04124
v 13405.14444 -10158.84741 27232.98969
v 13365.14444 -10158.84741 27232.98969
v 13385.14444 -10138.84741 27232.98969
v 13385.14444 -10178.84741 27232.98969
v 13385.14444 -10158.84741 27252.98969
v 13385.14444 -10158.84741 27212.98969
v -5343.83961 29418.44351 11397.93814
v -5359.83961 29418.44351 11397.93814
v -5351.83961 29426.44351 11397.93814
v -5351.83961 29410.44351 11397.93814
v -5351.83961 29418.44351 11405.93814
v -5351.83961 29418.44351 11389.93814
v -12772.00140 -20315.05696 21162.88660
v -12796.00140 -20315.05696 21162.88660
v -12784.00140 -20303.05696 21162.88660
v -12784.00140 -20327.05696 21162.88660
v -12784.00140 -20315.05696 21174.88660
v -12784.00140 -20315.05696 21150.88660
v 30447.22756 8339.93783 5327.83505
v 30415.22756 8339.93783 5327.83505
v 30431.22756 8355.93783 5327.83505
v 30431.22756 8323.93783 5327.83505
v 30431.22756 8339.93783 5343.83505
v 30431.22756 8339.93783 5311.83505
v -25084.41706 12883.17235 15092.78351
v -25124.41706 12883.17235 15092.78351
v -25104.41706 12903.17235 15092.78351
v -25104.41706 12863.17235 15092.78351
v -25104.41706 12883.17235 15112.78351
v -25104.41706 12883.17235 15072.78351
v 7013.08838 -18895.02312 24857.73196
v 6997.08838 -18895.02312 24857.73196
v 7005.08838 -18887.02312 24857.73196
v 7005.08838 -18903.02312 24857.73196
v 7005.08838 -18895.02312 24865.73196
v 7005.08838 -18895.02312 24849.73196
v 11587.83116 28435.74109 9022.68041
v 11563.83116 28435.74109 9022.68041
v 11575.83116 28447.74109 9022.68041
v 11575.83116 28423.74109 9022.68041
v 11575.83116 28435.74109 9034.68041
v 11575.83116 28435.74109 9010.68041
v -23392.43712 -11093.69520 18787.62887
v -23424.43712 -11093.69520 18787.62887
v -23408.43712 -11077.69520 18787.62887
v -23408.43712 -11109.69520 18787.62887
v -23408.43712 -11093.69520 18803.62887
v -23408.43712 -11093.69520 18771.62887
v 13826.87911 -4256.80839 28552.57732
v 13786.87911 -4256.80839 28552.57732
v 13806.87911 -4236.80839 28552.57732
v 13806.87911 -4276.80839 28552.57732
v 13806.87911 -4256.80839 28572.57732
v 13806.87911 -4256.80839 28532.57732
v -14839.26739 25334.22960 12717.52577
v -14855.26739 25334.22960 12717.52577
v -14847.26739 25342.22960 12717.52577
v -14847.26739 25326.22960 12717.52577
v -14847.26739 25334.22960 12725.52577
v -14847.26739 25334.22960 12709.52577
v -4768.91742 -22263.89861 22482.47423
v -4792.91742 -22263.89861 22482.47423
v -4780.91742 -22251.89861 22482.47423
v -4780.91742 -22275.89861 22482.47423
v -4780.91742 -22263.89861 22494.47423
v -4780.91742 -22263.89861 22470.47423
v 25534.81863 18127.37342 6647.42268
v 25502.81863 18127.37342 6647.42268
v 25518.81863 18143.37342 6647.42268
v 25518.81863 18111.37342 6647.42268
v 25518.81863 18127.37342 6663.42268
v 25518.81863 18127.37342 6631.42268
v -27239.71842 3397.32621 16412.37113
v -27279.71842 3397.32621 16412.37113
v -27259.71842 3417.32621 16412.37113
v -27259.71842 3377.32621 16412.37113
v -27259.71842 3397.32621 16432.37113
v -27259.71842 3397.32621 16392.37113
v 11937.62828 -14015.41680 26177.31959
v 11921.62828 -14015.41680 26177.31959
v 11929.62828 -14007.41680 26177.31959
v 11929.62828 -14023.41680 26177.31959
v 11929.62828 -14015.41680 26185.31959
v 11929.62828 -14015.41680 26169.31959
v 1115.59653 30262.51091 10342.26804
v 1091.59653 30262.51091 10342.26804
v 1103.59653 30274.51091 10342.26804
v 1103.59653 30250.51091 10342.26804
v 1103.59653 30262.51091 10354.26804
v 1103.59653 30262.51091 10330.26804
v -17457.27860 -17730.88774 20107.21649
v -17489.27860 -17730.88774 20107.21649
v -17473.27860 -17714.88774 20107.21649
v -17473.27860 -17746.88774 20107.21649
v -17473.27860 -17730.88774 20123.21649
v -17473.27860 -17730.88774 20091.21649
v 11479.07808 585.91037 29872.16495
v 11439.07808 585.91037 29872.16495
v 11459.07808 605.91037 29872.16495
v 11459.07808 565.91037 29872.16495
v 11459.07808 585.91037 29892.16495
v 11459.07808 585.91037 29852.16495
v -22160.69935 18316.88337 14037.11340
v -22176.69935 18316.88337 14037.11340
v -22168.69935 18324.88337 14037.11340
v -22168.69935 18308.88337 14037.11340
v -22168.69935 18316.88337 14045.11340
v -22168.69935 18316.88337 14029.11340
v 2967.44569 -21183.18182 23802.06186
v 2943.44569 -21183.18182 23802.06186
v 2955.44569 -21171.18182 23802.06186
v 2955.44569 -21195.18182 23802.06186
v 2955.44569 -21183.18182 23814.06186
v 2955.44569 -21183.18182 23790.06186
v 17592.41165 25526.38831 7967.01031
v 17560.41165 25526.38831 7967.01031
v 17576.41165 25542.38831 7967.01031
v 17576.41165 25510.38831 7967.01031
v 17576.41165 25526.38831 7983.01031
v 17576.41165 25526.38831 7951.01031
v -25939.54825 -5973.23139 17731.95876
v -25979.54825 -5973.23139 17731.95876
v -25959.54825 -5953.23139 17731.95876
v -25959.54825 -5993.23139 17731.95876
v -25959.54825 -5973.23139 17751.95876
v -25959.54825 -5973.23139 17711.95876
v 14249.40494 -8068.61072 27496.90722
v 14233.40494 -8068.61072 27496.90722
v 14241.40494 -8060.61072 27496.90722
v 14241.40494 -8076.61072 27496.90722
v 14241.40494 -8068.61072 27504.90722
v 14241.40494 -8068.61072 27488.90722
v -9183.44883 28345.10263 11661.85567
v -9207.44883 28345.10263 11661.85567
v -9195.44883 28357.10263 11661.85567
v -9195.44883 28333.10263 11661.85567
v -9195.44883 28345.10263 11673.85567
v -9195.44883 28345.10263 11649.85567
v -9847.23561 -21624.26064 21426.80412
v -9879.23561 -21624.26064 21426.80412
v -9863.23561 -21608.26064 21426.80412
v -9863.23561 -21640.26064 21426.80412
v -9863.23561 -21624.26064 21442.80412
v -9863.23561 -21624.26064 21410.80412
v 29025.28303 12305.52149 5591.75258
v 28985.28303 12305.52149 5591.75258
v 29005.28303 12325.52149 5591.75258
v 29005.28303 12285.52149 5591.75258
v 29005.28303 12305.52149 5611.75258
v 29005.28303 12305.52149 5571.75258
v -26455.58368 9372.85829 15356.70103
v -26471.58368 9372.85829 15356.70103
v -26463.58368 9380.85829 15356.70103
v -26463.58368 9364.85829 15356.70103
v -26463.58368 9372.85829 15364.70103
v -26463.58368 9372.85829 15348.70103
v 9319.18366 -17500.83025 25121.64948
v 9295.18366 -17500.83025 25121.64948
v 9307.18366 -17488.83025 25121.64948
v 9307.18366 -17512.83025 25121.64948
v 9307.18366 -17500.83025 25133.64948
v 9307.18366 -17500.83025 25109.64948
v 7676.91932 29649.10478 9286.59794
v 7644.91932 29649.10478 9286.59794
v 7660.91932 29665.10478 9286.59794
v 7660.91932 29633.10478 9286.59794
v 7660.91932 29649.10478 9302.59794
v 7660.91932 29649.10478 9270.59794
v -21537.84659 -14010.63277 19051.54639
v -21577.84659 -14010.63277 19051.54639
v -21557.84659 -13990.63277 19051.54639
v -21557.84659 -14030.63277 19051.54639
v -21557.84659 -14010.63277 19071.54639
v -21557.84659 -14010.63277 19031.54639
v 13732.65926 -2289.83688 28816.49485
v 13716.65926 -2289.83688 28816.49485
v 13724.65926 -2281.83688 28816.49485
v 13724.65926 -2297.83688 28816.49485
v 13724.65926 -2289.83688 28824.49485
v 13724.65926 -2289.83688 28808.49485
v -18009.61758 23037.00131 12981.44330
v -18033.61758 23037.00131 12981.44330
v -18021.61758 23049.00131 12981.44330
v -18021.61758 23025.00131 12981.44330
v -18021.61758 23037.00131 12993.44330
v -18021.61758 23037.00131 12969.44330
v -1732.91297 -22439.76305 22746.39175
v -1764.91297 -22439.76305 22746.39175
v -1748.91297 -22423.76305 22746.39175
v -1748.91297 -22455.76305 22746.39175
v -1748.91297 -22439.76305 22762.39175
v -1748.91297 -22439.76305 22730.39175
v 22851.88296 21329.28731 6911.34021
v 22811.88296 21329.28731 6911.34021
v 22831.88296 21349.28731 6911.34021
v 22831.88296 21309.28731 6911.34021
v 22831.88296 21329.28731 6931.34021
v 22831.88296 21329.28731 6891.34021
v -27301.89556 -266.45999 16676.28866
v -27317.89556 -266.45999 16676.28866
v -27309.89556 -258.45999 16676.28866
v -27309.89556 -274.45999 16676.28866
v -27309.89556 -266.45999 16684.28866
v -27309.89556 -266.45999 16668.28866
v 13420.41489 -12044.72458 26441.23711
v 13396.41489 -12044.72458 26441.23711
v 13408.41489 -12032.72458 26441.23711
v 13408.41489 -12056.72458 26441.23711
v 13408.41489 -12044.72458 26453.23711
v 13408.41489 -12044.72458 26429.23711
v -2916.79307 30048.42013 10606.18557
v -2948.79307 30048.42013 10606.18557
v -2932.79307 30064.42013 10606.18557
v -2932.79307 30032.42013 10606.18557
v -2932.79307 30048.42013 10622.18557
v -2932.79307 30048.42013 10590.18557
v -14803.42563 -19730.25472 20371.13402
v -14843.42563 -19730.25472 20371.13402
v -14823.42563 -19710.25472 20371.13402
v -14823.42563 -19750.25472 20371.13402
v -14823.42563 -19730.25472 20391.13402
v -14823.42563 -19730.25472 20351.13402
v 10586.50551 1977.81555 30136.08247
v 10570.50551 1977.81555 30136.08247
v 10578.50551 1985.81555 30136.08247
v 10578.50551 1969.81555 30136.08247
v 10578.50551 1977.81555 30144.08247
v 10578.50551 1977.81555 30128.08247
v -24290.57505 15128.29667 14301.03093
v -24314.57505 15128.29667 14301.03093
v -24302.57505 15140.29667 14301.03093
v -24302.57505 15116.29667 14301.03093
v -24302.57505 15128.29667 14313.03093
v -24302.57505 15128.29667 14289.03093
v 5689.76143 -20313.47010 24065.97938
v 5657.76143 -20313.47010 24065.97938
v 5673.76143 -20297.47010 24065.97938
v 5673.76143 -20329.47010 24065.97938
v 5673.76143 -20313.47010 24081.97938
v 5673.76143 -20313.47010 24049.97938
v 14004.35335 27580.60348 8230.92784
v 13964.35335 27580.60348 8230.92784
v 13984.35335 27600.60348 8230.92784
v 13984.35335 27560.60348 8230.92784
v 13984.35335 27580.60348 8250.92784
v 13984.35335 27580.60348 8210.92784
v -24756.99906 -9318.97303 17995.87629
v -24772.99906 -9318.97303 17995.87629
v -24764.99906 -9310.97303 17995.87629
v -24764.99906 -9326.97303 17995.87629
v -24764.99906 -9318.97303 18003.87629
v -24764.99906 -9318.97303 17987.87629
v 14782.94481 -5929.23259 27760.82474
v 14758.94481 -5929.23259 27760.82474
v 14770.94481 -5917.23259 27760.82474
v 14770.94481 -5941.23259 27760.82474
v 14770.94481 -5929.23259 27772.82474
v 14770.94481 -5929.23259 27748.82474
v -12831.79028 26771.44409 11925.77320
v -12863.79028 26771.44409 11925.77320
v -12847.79028 26787.44409 11925.77320
v -12847.79028 26755.44409 11925.77320
v -12847.79028 26771.44409 11941.77320
v -12847.79028 26771.44409 11909.77320
v -6801.85382 -22516.10323 21690.72165
v -6841.85382 -22516.10323 21690.72165
v -6821.85382 -22496.10323 21690.72165
v -6821.85382 -22536.10323 21690.72165
v -6821.85382 -22516.10323 21710.72165
v -6821.85382 -22516.10323 21670.72165
v 27072.06842 16038.93165 5855.67010
v 27056.06842 16038.93165 5855.67010
v 27064.06842 16046.93165 5855.67010
v 27064.06842 16030.93165 5855.67010
v 27064.06842 16038.93165 5863.67010
v 27064.06842 16038.93165 5847.67010
v -27322.21367 5730.36115 15620.61856
v -27346.21367 5730.36115 15620.61856
v -27334.21367 5742.36115 15620.61856
v -27334.21367 5718.36115 15620.61856
v -27334.21367 5730.36115 15632.61856
v -27334.21367 5730.36115 15608.61856
v 11376.00049 -15827.93027 25385.56701
v 11344.00049 -15827.93027 25385.56701
v 11360.00049 -15811.93027 25385.56701
v 11360.00049 -15843.93027 25385.56701
v 11360.00049 -15827.93027 25401.56701
v 11360.00049 -15827.93027 25369.56701
v 3649.22557 30325.17726 9550.51546
v 3609.22557 30325.17726 9550.51546
v 3629.22557 30345.17726 9550.51546
v 3629.22557 30305.17726 9550.51546
v 3629.22557 30325.17726 9570.51546
v 3629.22557 30325.17726 9530.51546
v -19339.14345 -16631.32267 19315.46392
v -19355.14345 -16631.32267 19315.46392
v -19347.14345 -16623.32267 19315.46392
v -19347.14345 -16639.32267 19315.46392
v -19347.14345 -16631.32267 19323.46392
v -19347.14345 -16631.32267 19307.46392
v 13359.35580 -421.55613 29080.41237
v 13335.35580 -421.55613 29080.41237
v 13347.35580 -409.55613 29080.41237
v 13347.35580 -433.55613 29080.41237
v 13347.35580 -421.55613 29092.41237
v 13347.35580 -421.55613 29068.41237
v -20831.73382 20345.32898 13245.36082
v -20863.73382 20345.32898 13245.36082
v -20847.73382 20361.32898 13245.36082
v -20847.73382 20329.32898 13245.36082
v -20847.73382 20345.32898 13261.36082
v -20847.73382 20345.32898 13229.36082
v 1263.88483 -22203.11729 23010.30928
v 1223.88483 -22203.11729 23010.30928
v 1243.88483 -22183.11729 23010.30928
v 1243.88483 -22223.11729 23010.30928
v 1243.88483 -22203.11729 23030.30928
v 1243.88483 -22203.11729 22990.30928
v 19754.07830 24137.27549 7175.25773
v 19738.07830 24137.27549 7175.25773
v 19746.07830 24145.27549 7175.25773
v 19746.07830 24129.27549 7175.25773
v 19746.07830 24137.27549 7183.25773
v 19746.07830 24137.27549 7167.25773
v -26857.23525 -3882.47494 16940.20619
v -26881.23525 -3882.47494 16940.20619
v -26869.23525 -3870.47494 16940.20619
v -26869.23525 -3894.47494 16940.20619
v -26869.23525 -3882.47494 16952.20619
v -26869.23525 -3882.47494 16928.20619
v 14585.69935 -9927.66723 26705.15464
v 14553.69935 -9927.66723 26705.15464
v 14569.69935 -9911.66723 26705.15464
v 14569.69935 -9943.66723 26705.15464
v 14569.69935 -9927.66723 26721.15464
v 14569.69935 -9927.66723 26689.15464
v -6871.93954 29297.47477 10870.10309
v -6911.93954 29297.47477 10870.10309
v -6891.93954 29317.47477 10870.10309
v -6891.93954 29277.47477 10870.10309
v -6891.93954 29297.47477 10890.10309
v -6891.93954 29297.47477 10850.10309
f 1 3 5
f 3 1 6
f 3 2 5
f 2 3 6
f 2 4 5
f 4 2 6
f 4 1 5
f 1 4 6
f 7 9 11
f 9 7 12
f 9 8 11
f 8 9 12
f 8 10 11
f 10 8 12
f 10 7 11
f 7 10 12
f 13 15 17
f 15 13 18
f 15 14 17
f 14 15 18
f 14 16 17
f 16 14 18
f 16 13 17
f 13 16 18
f 19 21 23
f 21 19 24
f 21 20 23
f 20 21 24
f 20 22 23
f 22 20 24
f 22 19 23
f 19 22 24
f 25 27 29
f 27 25 30
f 27 26 29
f 26 27 30
f 26 28 29
f 28 26 30
f 28 25 29
f 25 28 30
f 31 33 35
f 33 31 36
f 33 32 35
f 32 33 36
f 32 34 35
f 34 32 36
f 34 31 35
f 31 34 36
f 37 39 41
f 39 37 42
f 39 38 41
f 38 39 42
f 38 40 41
f 40 38 42
f 40 37 41
f 37 40 42
f 43 45 47
f 45 43 48
f 45 44 47
f 44 45 48
f 44 46 47
f 46 44 48
f 46 43 47
f 43 46 48
f 49 51 53
f 51 49 54
f 51 50 53
f 50 51 54
f 50 52 53
f 52 50 54
f 52 49 53
f 49 52 54
f 55 57 59
f 57 55 60
f 57 56 59
f 56 57 60
f 56 58 59
f 58 56 60
f 58 55 59
f 55 58 60
f 61 63 65
f 63 61 66
f 63 62 65
f 62 63 66
f 62 64 65
f 64 62 66
f 64 61 65
f 61 64 66
f 67 69 71
f 69 67 72
f 69 68 71
f 68 69 72
f 68 70 71
f 70 68 72
f 70 67 71
f 67 70 72
f 73 75 77
f 75 73 78
f 75 74 77
f 74 75 78
f 74 76 77
f 76 74 78
f 76 73 77
f 73 76 78
f 79 81 83
f 81 79 84
f 81 80 83
f 80 81 84
f 80 82 83
f 82 80 84
f 82 79 83
f 79 82 84
f 85 87 89
f 87 85 90
f 87 86 89
f 86 87 90
f 86 88 89
f 88 86 90
f 88 85 89
f 85 88 90
f 91 93 95
f 93 91 96
f 93 92 95
f 92 93 96
f 92 94 95
f 94 92 96
f 94 91 95
f 91 94 96
f 97 99 101
f 99 97 102
f 99 98 101
f 98 99 102
f 98 100 101
f 100 98 102
f 100 97 101
f 97 100 102
f 103 105 107
f 105 103 108
f 105 104 107
f 104 105 108
f 104 106 107
f 106 104 108
f 106 103 107
f 103 106 108
f 109 111 113
f 111 109 114
f 111 110 113
f 110 111 114
f 110 112 113
f 112 110 114
f 112 109 113
f 109 112 114
f 115 117 119
f 117 115 120
f 117 116 119
f 116 117 120
f 116 118 119
f 118 116 120
f 118 115 119
f 115 118 120
f 121 123 125
f 123 121 126
f 123 122 125
f 122 123 126
f 122 124 125
f 124 122 126
f 124 121 125
f 121 124 126
f 127 129 131
f 129 127 132
f 129 128 131
f 128 129 132
f 128 130 131
f 130 128 132
f 130 127 131
f 127 130 132
f 133 135 137
f 135 133 138
f 135 134 137
f 134 135 138
f 134 136 137
f 136 134 138
f 136 133 137
f 133 136 138
f 139 141 143
f 141 139 144
f 141 140 143
f 140 141 144
f 140 142 143
f 142 140 144
f 142 139 143
f 139 142 144
f 145 147 149
f 147 145 150
f 147 146 149
f 146 147 150
f 146 148 149
f 148 146 150
f 148 145 149
f 145 148 150
f 151 153 155
f 153 151 156
f 153 152 155
f 152 153 156
f 152 154 155
f 154 152 156
f 154 151 155
f 151 154 156
f 157 159 161
f 159 157 162
f 159 158 161
f 158 159 162
f 158 160 161
f 160 158 162
f 160 157 161
f 157 160 162
f 163 165 167
f 165 163 168
f 165 164 167
f 164 165 168
f 164 166 167
f 166 164 168
f 166 163 167
f 163 166 168
f 169 171 173
f 171 169 174
f 171 170 173
f 170 171 174
f 170 172 173
f 172 170 174
f 172 169 173
f 169 172 174
f 175 177 179
f 177 175 180
f 177 176 179
f 176 177 180
f 176 178 179
f 178 176 180
f 178 175 179
f 175 178 180
f 181 183 185
f 183 181 186
f 183 182 185
f 182 183 186
f 182 184 185
f 184 182 186
f 184 181 185
f 181 184 186
f 187 189 191
f 189 187 192
f 189 188 191
f 188 189 192
f 188 190 191
f 190 188 192
f 190 187 191
f 187 190 192
f 193 195 197
f 195 193 198
f 195 194 197
f 194 195 198
f 194 196 197
f 196 194 198
f 196 193 197
f 193 196 198
f 199 201 203
f 201 199 204
f 201 200 203
f 200 201 204
f 200 202 203
f 202 200 204
f 202 199 203
f 199 202 204
f 205 207 209
f 207 205 210
f 207 206 209
f 206 207 210
f 206 208 209
f 208 206 210
f 208 205 209
f 205 208 210
f 211 213 215
f 213 211 216
f 213 212 215
f 212 213 216
f 212 214 215
f 214 212 216
f 214 211 215
f 211 214 216
f 217 219 221
f 219 217 222
f 219 218 221
f 218 219 222
f 218 220 221
f 220 218 222
f 220 217 221
f 217 220 222
f 223 225 227
f 225 223 228
f 225 224 227
f 224 225 228
f 224 226 227
f 226 224 228
f 226 223 227
f 223 226 228
f 229 231 233
f 231 229 234
f 231 230 233
f 230 231 234
f 230 232 233
f 232 230 234
f 232 229 233
f 229 232 234
f 235 237 239
f 237 235 240
f 237 236 239
f 236 237 240
f 236 238 239
f 238 236 240
f 238 235 239
f 235 238 240
f 241 243 245
f 243 241 246
f 243 242 245
f 242 243 246
f 242 244 245
f 244 242 246
f 244 241 245
f 241 244 246
f 247 249 251
f 249 247 252
f 249 248 251
f 248 249 252
f 248 250 251
f 250 248 252
f 250 247 251
f 247 250 252
f 253 255 257
f 255 253 258
f 255 254 257
f 254 255 258
f 254 256 257
f 256 254 258
f 256 253 257
f 253 256 258
f 259 261 263
f 261 259 264
f 261 260 263
f 260 261 264
f 260 262 263
f 262 260 264
f 262 259 263
f 259 262 264
f 265 267 269
f 267 265 270
f 267 266 269
f 266 267 270
f 266 268 269
f 268 266 270
f 268 265 269
f 265 268 270
f 271 273 275
f 273 271 276
f 273 272 275
f 272 273 276
f 272 274 275
f 274 272 276
f 274 271 275
f 271 274 276
f 277 279 281
f 279 277 282
f 279 278 281
f 278 279 282
f 278 280 281
f 280 278 282
f 280 277 281
f 277 280 282
f 283 285 287
f 285 283 288
f 285 284 287
f 284 285 288
f 284 286 287
f 286 284 288
f 286 283 287
f 283 286 288
f 289 291 293
f 291 289 294
f 291 290 293
f 290 291 294
f 290 292 293
f 292 290 294
f 292 289 293
f 289 292 294
f 295 297 299
f 297 295 300
f 297 296 299
f 296 297 300
f 296 298 299
f 298 296 300
f 298 295 299
f 295 298 300
f 301 303 305
f 303 301 306
f 303 302 305
f 302 303 306
f 302 304 305
f 304 302 306
f 304 301 305
f 301 304 306
f 307 309 311
f 309 307 312
f 309 308 311
f 308 309 312
f 308 310 311
f 310 308 312
f 310 307 311
f 307 310 312
f 313 315 317
f 315 313 318
f 315 314 317
f 314 315 318
f 314 316 317
f 316 314 318
f 316 313 317
f 313 316 318
f 319 321 323
f 321 319 324
f 321 320 323
f 320 321 324
f 320 322 323
f 322 320 324
f 322 319 323
f 319 322 324
f 325 327 329
f 327 325 330
f 327 326 329
f 326 327 330
f 326 328 329
f 328 326 330
f 328 325 329
f 325 328 330
f 331 333 335
f 333 331 336
f 333 332 335
f 332 333 336
f 332 334 335
f 334 332 336
f 334 331 335
f 331 334 336
f 337 339 341
f 339 337 342
f 339 338 341
f 338 339 342
f 338 340 341
f 340 338 342
f 340 337 341
f 337 340 342
f 343 345 347
f 345 343 348
f 345 344 347
f 344 345 348
f 344 346 347
f 346 344 348
f 346 343 347
f 343 346 348
f 349 351 353
f 351 349 354
f 351 350 353
f 350 351 354
f 350 352 353
f 352 350 354
f 352 349 353
f 349 352 354
f 355 357 359
f 357 355 360
f 357 356 359
f 356 357 360
f 356 358 359
f 358 356 360
f 358 355 359
f 355 358 360
f 361 363 365
f 363 361 366
f 363 362 365
f 362 363 366
f 362 364 365
f 364 362 366
f 364 361 365
f 361 364 366
f 367 369 371
f 369 367 372
f 369 368 371
f 368 369 372
f 368 370 371
f 370 368 372
f 370 367 371
f 367 370 372
f 373 375 377
f 375 373 378
f 375 374 377
f 374 375 378
f 374 376 377
f 376 374 378
f 376 373 377
f 373 376 378
f 379 381 383
f 381 379 384
f 381 380 383
f 380 381 384
f 380 382 383
f 382 380 384
f 382 379 383
f 379 382 384
f 385 387 389
f 387 385 390
f 387 386 389
f 386 387 390
f 386 388 389
f 388 386 390
f 388 385 389
f 385 388 390
f 391 393 395
f 393 391 396
f 393 392 395
f 392 393 396
f 392 394 395
f 394 392 396
f 394 391 395
f 391 394 396
f 397 399 401
f 399 397 402
f 399 398 401
f 398 399 402
f 398 400 401
f 400 398 402
f 400 397 401
f 397 400 402
f 403 405 407
f 405 403 408
f 405 404 407
f 404 405 408
f 404 406 407
f 406 404 408
f 406 403 407
f 403 406 408
f 409 411 413
f 411 409 414
f 411 410 413
f 410 411 414
f 410 412 413
f 412 410 414
f 412 409 413
f 409 412 414
f 415 417 419
f 417 415 420
f 417 416 419
f 416 417 420
f 416 418 419
f 418 416 420
f 418 415 419
f 415 418 420
f 421 423 425
f 423 421 426
f 423 422 425
f 422 423 426
f 422 424 425
f 424 422 426
f 424 421 425
f 421 424 426
f 427 429 431
f 429 427 432
f 429 428 431
f 428 429 432
f 428 430 431
f 430 428 432
f 430 427 431
f 427 430 432
f 433 435 437
f 435 433 438
f 435 434 437
f 434 435 438
f 434 436 437
f 436 434 438
f 436 433 437
f 433 436 438
f 439 441 443
f 441 439 444
f 441 440 443
f 440 441 444
f 440 442 443
f 442 440 444
f 442 439 443
f 439 442 444
f 445 447 449
f 447 445 450
f 447 446 449
f 446 447 450
f 446 448 449
f 448 446 450
f 448 445 449
f 445 448 450
f 451 453 455
f 453 451 456
f 453 452 455
f 452 453 456
f 452 454 455
f 454 452 456
f 454 451 455
f 451 454 456
f 457 459 461
f 459 457 462
f 459 458 461
f 458 459 462
f 458 460 461
f 460 458 462
f 460 457 461
f 457 460 462
f 463 465 467
f 465 463 468
f 465 464 467
f 464 465 468
f 464 466 467
f 466 464 468
f 466 463 467
f 463 466 468
f 469 471 473
f 471 469 474
f 471 470 473
f 470 471 474
f 470 472 473
f 472 470 474
f 472 469 473
f 469 472 474
f 475 477 479
f 477 475 480
f 477 476 479
f 476 477 480
f 476 478 479
f 478 476 480
f 478 475 479
f 475 478 480
f 481 483 485
f 483 481 486
f 483 482 485
f 482 483 486
f 482 484 485
f 484 482 486
f 484 481 485
f 481 484 486
f 487 489 491
f 489 487 492
f 489 488 491
f 488 489 492
f 488 490 491
f 490 488 492
f 490 487 491
f 487 490 492
f 493 495 497
f 495 493 498
f 495 494 497
f 494 495 498
f 494 496 497
f 496 494 498
f 496 493 497
f 493 496 498
f 499 501 503
f 501 499 504
f 501 500 503
f 500 501 504
f 500 502 503
f 502 500 504
f 502 499 503
f 499 502 504
f 505 507 509
f 507 505 510
f 507 506 509
f 506 507 510
f 506 508 509
f 508 506 510
f 508 505 509
f 505 508 510
f 511 513 515
f 513 511 516
f 513 512 515
f 512 513 516
f 512 514 515
f 514 512 516
f 514 511 515
f 511 514 516
f 517 519 521
f 519 517 522
f 519 518 521
f 518 519 522
f 518 520 521
f 520 518 522
f 520 517 521
f 517 520 522
f 523 525 527
f 525 523 528
f 525 524 527
f 524 525 528
f 524 526 527
f 526 524 528
f 526 523 527
f 523 526 528
f 529 531 533
f 531 529 534
f 531 530 533
f 530 531 534
f 530 532 533
f 532 530 534
f 532 529 533
f 529 532 534
f 535 537 539
f 537 535 540
f 537 536 539
f 536 537 540
f 536 538 539
f 538 536 540
f 538 535 539
f 535 538 540
f 541 543 545
f 543 541 546
f 543 542 545
f 542 543 546
f 542 544 545
f 544 542 546
f 544 541 545
f 541 544 546
f 547 549 551
f 549 547 552
f 549 548 551
f 548 549 552
f 548 550 551
f 550 548 552
f 550 547 551
f 547 550 552
f 553 555 557
f 555 553 558
f 555 554 557
f 554 555 558
f 554 556 557
f 556 554 558
f 556 553 557
f 553 556 558
f 559 561 563
f 561 559 564
f 561 560 563
f 560 561 564
f 560 562 563
f 562 560 564
f 562 559 563
f 559 562 564
f 565 567 569
f 567 565 570
f 567 566 569
f 566 567 570
f 566 568 569
f 568 566 570
f 568 565 569
f 565 568 570
f 571 573 575
f 573 571 576
f 573 572 575
f 572 573 576
f 572 574 575
f 574 572 576
f 574 571 575
f 571 574 576
