# Original Basketbroom wing; centimeters, Z up; Unreal Y = -OBJ Y
o SM_BB_SnipeWingRight
s 1
v -0.939636 -0.148364 0.000000
v -0.664423 -0.104909 0.227688
v -0.000000 -0.000000 0.322000
v 0.664423 0.104909 0.227688
v 0.939636 0.148364 0.000000
v 0.664423 0.104909 -0.227688
v 0.000000 0.000000 -0.322000
v -0.664423 -0.104909 -0.227688
v -1.052468 -11.850390 0.450000
v -0.216999 -11.718474 1.141197
v 1.800000 -11.400000 1.427500
v 3.816999 -11.081526 1.141197
v 4.652468 -10.949610 0.450000
v 3.816999 -11.081526 -0.241197
v 1.800000 -11.400000 -0.527500
v -0.216999 -11.718474 -0.241197
v 2.644156 -38.529870 1.500000
v 3.627060 -38.374675 2.313173
v 6.000000 -38.000000 2.650000
v 8.372940 -37.625325 2.313173
v 9.355844 -37.470130 1.500000
v 8.372940 -37.625325 0.686827
v 6.000000 -38.000000 0.350000
v 3.627060 -38.374675 0.686827
v 7.898701 -64.184416 2.520000
v 8.537589 -64.083539 3.048562
v 10.080000 -63.840000 3.267500
v 11.622411 -63.596461 3.048562
v 12.261299 -63.495584 2.520000
v 11.622411 -63.596461 1.991438
v 10.080000 -63.840000 1.772500
v 8.537589 -64.083539 1.991438
v 11.916104 -76.013247 3.000000
v 11.940676 -76.009367 3.020329
v 12.000000 -76.000000 3.028750
v 12.059324 -75.990633 3.020329
v 12.083896 -75.986753 3.000000
v 12.059324 -75.990633 2.979671
v 12.000000 -76.000000 2.971250
v 11.940676 -76.009367 2.979671
v -0.415495 -8.928462 0.195000
v -0.276226 -9.207161 0.422688
v 0.060000 -9.880000 0.517000
v 0.396226 -10.552839 0.422688
v 0.535495 -10.831538 0.195000
v 0.396226 -10.552839 -0.032688
v 0.060000 -9.880000 -0.127000
v -0.276226 -9.207161 -0.032688
v -6.174227 -9.385401 0.074250
v -5.751445 -10.231452 0.765447
v -4.730760 -12.274000 1.051750
v -3.710075 -14.316548 0.765447
v -3.287293 -15.162599 0.074250
v -3.710075 -14.316548 -0.616947
v -4.730760 -12.274000 -0.903250
v -5.751445 -10.231452 -0.616947
v -17.607397 -14.461649 -0.207500
v -17.110006 -15.457003 0.605673
v -15.909200 -17.860000 0.942500
v -14.708394 -20.262997 0.605673
v -14.211003 -21.258351 -0.207500
v -14.708394 -20.262997 -1.020673
v -15.909200 -17.860000 -1.357500
v -17.110006 -15.457003 -1.020673
v -27.872084 -21.077472 -0.481200
v -27.548780 -21.724452 0.047362
v -26.768256 -23.286400 0.266300
v -25.987732 -24.848348 0.047362
v -25.664428 -25.495328 -0.481200
v -25.987732 -24.848348 -1.009762
v -26.768256 -23.286400 -1.228700
v -27.548780 -21.724452 -1.009762
v -31.920855 -25.755041 -0.610000
v -31.908420 -25.779925 -0.589671
v -31.878400 -25.840000 -0.581250
v -31.848380 -25.900075 -0.589671
v -31.835945 -25.924959 -0.610000
v -31.848380 -25.900075 -0.630329
v -31.878400 -25.840000 -0.638750
v -31.908420 -25.779925 -0.630329
v 0.862900 -17.063179 0.355500
v 1.003811 -17.341082 0.583188
v 1.344000 -18.012000 0.677500
v 1.684189 -18.682918 0.583188
v 1.825100 -18.960821 0.355500
v 1.684189 -18.682918 0.127812
v 1.344000 -18.012000 0.033500
v 1.003811 -17.341082 0.127812
v -4.837906 -17.525651 0.258825
v -4.410141 -18.369285 0.950022
v -3.377424 -20.406000 1.236325
v -2.344707 -22.442715 0.950022
v -1.916942 -23.286349 0.258825
v -2.344707 -22.442715 -0.432372
v -3.377424 -20.406000 -0.718675
v -4.410141 -18.369285 -0.432372
v -16.112295 -22.603354 0.033250
v -15.609041 -23.595865 0.846423
v -14.394080 -25.992000 1.183250
v -13.179119 -28.388135 0.846423
v -12.675865 -29.380646 0.033250
v -13.179119 -28.388135 -0.779923
v -14.394080 -25.992000 -1.116750
v -15.609041 -23.595865 -0.779923
v -26.212814 -29.215780 -0.185880
v -25.885699 -29.860912 0.342682
v -25.095974 -31.418400 0.561620
v -24.306250 -32.975888 0.342682
v -23.979135 -33.621020 -0.185880
v -24.306250 -32.975888 -0.714442
v -25.095974 -31.418400 -0.933380
v -25.885699 -29.860912 -0.714442
v -30.175115 -33.887284 -0.289000
v -30.162534 -33.912097 -0.268671
v -30.132160 -33.972000 -0.260250
v -30.101786 -34.031903 -0.268671
v -30.089205 -34.056716 -0.289000
v -30.101786 -34.031903 -0.309329
v -30.132160 -33.972000 -0.317750
v -30.162534 -33.912097 -0.309329
v 2.141188 -25.198013 0.516000
v 2.283772 -25.475086 0.743688
v 2.628000 -26.144000 0.838000
v 2.972228 -26.812914 0.743688
v 3.114812 -27.089987 0.516000
v 2.972228 -26.812914 0.288312
v 2.628000 -26.144000 0.194000
v 2.283772 -25.475086 0.288312
v -3.501911 -25.666253 0.443400
v -3.069067 -26.507368 1.134597
v -2.024088 -28.538000 1.420900
v -0.979109 -30.568632 1.134597
v -0.546265 -31.409747 0.443400
v -0.979109 -30.568632 -0.247797
v -2.024088 -28.538000 -0.534100
v -3.069067 -26.507368 -0.247797
v -14.617575 -30.745474 0.274000
v -14.108347 -31.735021 1.087173
v -12.878960 -34.124000 1.424000
v -11.649573 -36.512979 1.087173
v -11.140345 -37.502526 0.274000
v -11.649573 -36.512979 -0.539173
v -12.878960 -34.124000 -0.876000
v -14.108347 -31.735021 -0.539173
v -24.553793 -37.354358 0.109440
v -24.222794 -37.997564 0.638002
v -23.423693 -39.550400 0.856940
v -22.624592 -41.103236 0.638002
v -22.293593 -41.746442 0.109440
v -22.624592 -41.103236 -0.419122
v -23.423693 -39.550400 -0.638060
v -24.222794 -37.997564 -0.419122
v -28.429385 -42.019537 0.032000
v -28.416655 -42.044276 0.052329
v -28.385920 -42.104000 0.060750
v -28.355185 -42.163724 0.052329
v -28.342455 -42.188463 0.032000
v -28.355185 -42.163724 0.011671
v -28.385920 -42.104000 0.003250
v -28.416655 -42.044276 0.011671
v 3.419366 -33.332968 0.676500
v 3.563655 -33.609176 0.904188
v 3.912000 -34.276000 0.998500
v 4.260345 -34.942824 0.904188
v 4.404634 -35.219032 0.676500
v 4.260345 -34.942824 0.448812
v 3.912000 -34.276000 0.354500
v 3.563655 -33.609176 0.448812
v -2.166247 -33.807226 0.627975
v -1.728226 -34.645713 1.319172
v -0.670752 -36.670000 1.605475
v 0.386722 -38.694287 1.319172
v 0.824743 -39.532774 0.627975
v 0.386722 -38.694287 -0.063222
v -0.670752 -36.670000 -0.349525
v -1.728226 -34.645713 -0.063222
v -13.123246 -38.888030 0.514750
v -12.607928 -39.874486 1.327923
v -11.363840 -42.256000 1.664750
v -10.119752 -44.637514 1.327923
v -9.604434 -45.623970 0.514750
v -10.119752 -44.637514 -0.298423
v -11.363840 -42.256000 -0.635250
v -12.607928 -39.874486 -0.298423
v -22.895025 -45.493220 0.404760
v -22.560068 -46.134416 0.933322
v -21.751411 -47.682400 1.152260
v -20.942754 -49.230384 0.933322
v -20.607798 -49.871580 0.404760
v -20.942754 -49.230384 -0.123802
v -21.751411 -47.682400 -0.342740
v -22.560068 -46.134416 -0.123802
v -26.683665 -50.151801 0.353000
v -26.670782 -50.176462 0.373329
v -26.639680 -50.236000 0.381750
v -26.608578 -50.295538 0.373329
v -26.595695 -50.320199 0.353000
v -26.608578 -50.295538 0.332671
v -26.639680 -50.236000 0.324250
v -26.670782 -50.176462 0.332671
v 4.697434 -41.468052 0.837000
v 4.843461 -41.743356 1.064688
v 5.196000 -42.408000 1.159000
v 5.548539 -43.072644 1.064688
v 5.694566 -43.347948 0.837000
v 5.548539 -43.072644 0.609312
v 5.196000 -42.408000 0.515000
v 4.843461 -41.743356 0.609312
v -0.830920 -41.948587 0.812550
v -0.387625 -42.784332 1.503747
v 0.682584 -44.802000 1.790050
v 1.752793 -46.819668 1.503747
v 2.196088 -47.655413 0.812550
v 1.752793 -46.819668 0.121353
v 0.682584 -44.802000 -0.164950
v -0.387625 -42.784332 0.121353
v -11.629313 -47.031043 0.755500
v -11.107789 -48.014273 1.568673
v -9.848720 -50.388000 1.905500
v -8.589651 -52.761727 1.568673
v -8.068127 -53.744957 0.755500
v -8.589651 -52.761727 -0.057673
v -9.848720 -50.388000 -0.394500
v -11.107789 -48.014273 -0.057673
v -21.236515 -53.632378 0.700080
v -20.897524 -54.271477 1.228642
v -20.079130 -55.814400 1.447580
v -19.260735 -57.357323 1.228642
v -18.921744 -57.996422 0.700080
v -19.260735 -57.357323 0.171518
v -20.079130 -55.814400 -0.047420
v -20.897524 -54.271477 0.171518
v -24.937955 -58.284076 0.674000
v -24.924917 -58.308657 0.694329
v -24.893440 -58.368000 0.702750
v -24.861963 -58.427343 0.694329
v -24.848925 -58.451924 0.674000
v -24.861963 -58.427343 0.653671
v -24.893440 -58.368000 0.645250
v -24.924917 -58.308657 0.653671
v 5.975389 -49.603270 0.997500
v 6.123186 -49.877632 1.225188
v 6.480000 -50.540000 1.319500
v 6.836814 -51.202368 1.225188
v 6.984611 -51.476730 0.997500
v 6.836814 -51.202368 0.769812
v 6.480000 -50.540000 0.675500
v 6.123186 -49.877632 0.769812
v 0.504065 -50.090355 0.997125
v 0.952735 -50.923239 1.688322
v 2.035920 -52.934000 1.974625
v 3.119105 -54.944761 1.688322
v 3.567775 -55.777645 0.997125
v 3.119105 -54.944761 0.305928
v 2.035920 -52.934000 0.019625
v 0.952735 -50.923239 0.305928
v -10.135783 -55.174535 0.996250
v -9.607936 -56.154399 1.809423
v -8.333600 -58.520000 2.146250
v -7.059264 -60.885601 1.809423
v -6.531417 -61.865465 0.996250
v -7.059264 -60.885601 0.183077
v -8.333600 -58.520000 -0.153750
v -9.607936 -56.154399 0.183077
v -19.578267 -61.771848 0.995400
v -19.235166 -62.408759 1.523962
v -18.406848 -63.946400 1.742900
v -17.578530 -65.484041 1.523962
v -17.235429 -66.120952 0.995400
v -17.578530 -65.484041 0.466838
v -18.406848 -63.946400 0.247900
v -19.235166 -62.408759 0.466838
v -23.192255 -66.416363 0.995000
v -23.179058 -66.440860 1.015329
v -23.147200 -66.500000 1.023750
v -23.115342 -66.559140 1.015329
v -23.102145 -66.583637 0.995000
v -23.115342 -66.559140 0.974671
v -23.147200 -66.500000 0.966250
v -23.179058 -66.440860 0.974671
v 7.253229 -57.738628 1.158000
v 7.402830 -58.012006 1.385688
v 7.764000 -58.672000 1.480000
v 8.125170 -59.331994 1.385688
v 8.274771 -59.605372 1.158000
v 8.125170 -59.331994 0.930312
v 7.764000 -58.672000 0.836000
v 7.402830 -58.012006 0.930312
v 1.838701 -58.232549 1.181700
v 2.292848 -59.062448 1.872897
v 3.389256 -61.066000 2.159200
v 4.485664 -63.069552 1.872897
v 4.939811 -63.899451 1.181700
v 4.485664 -63.069552 0.490503
v 3.389256 -61.066000 0.204200
v 2.292848 -59.062448 0.490503
v -8.642662 -63.318528 1.237000
v -8.108372 -64.294880 2.050173
v -6.818480 -66.652000 2.387000
v -5.528588 -69.009120 2.050173
v -4.994298 -69.985472 1.237000
v -5.528588 -69.009120 0.423827
v -6.818480 -66.652000 0.087000
v -8.108372 -64.294880 0.423827
v -17.920285 -69.911643 1.290720
v -17.572996 -70.546272 1.819282
v -16.734566 -72.078400 2.038220
v -15.896137 -73.610528 1.819282
v -15.548848 -74.245157 1.290720
v -15.896137 -73.610528 0.762158
v -16.734566 -72.078400 0.543220
v -17.572996 -70.546272 0.762158
v -21.446565 -74.548663 1.316000
v -21.433207 -74.573072 1.336329
v -21.400960 -74.632000 1.344750
v -21.368713 -74.690928 1.336329
v -21.355355 -74.715337 1.316000
v -21.368713 -74.690928 1.295671
v -21.400960 -74.632000 1.287250
v -21.433207 -74.573072 1.295671
v 8.530953 -65.874134 1.318500
v 8.682392 -66.146485 1.546188
v 9.048000 -66.804000 1.640500
v 9.413608 -67.461515 1.546188
v 9.565047 -67.733866 1.318500
v 9.413608 -67.461515 1.090812
v 9.048000 -66.804000 0.996500
v 8.682392 -66.146485 1.090812
v 3.172984 -66.375191 1.366275
v 3.632711 -67.201973 2.057472
v 4.742592 -69.198000 2.343775
v 5.852473 -71.194027 2.057472
v 6.312200 -72.020809 1.366275
v 5.852473 -71.194027 0.675078
v 4.742592 -69.198000 0.388775
v 3.632711 -67.201973 0.675078
v -7.149958 -71.463049 1.477750
v -6.609102 -72.435733 2.290923
v -5.303360 -74.784000 2.627750
v -3.997618 -77.132267 2.290923
v -3.456762 -78.104951 1.477750
v -3.997618 -77.132267 0.664577
v -5.303360 -74.784000 0.327750
v -6.609102 -72.435733 0.664577
v -16.262573 -78.051782 1.586040
v -15.911017 -78.684026 2.114602
v -15.062285 -80.210400 2.333540
v -14.213553 -81.736774 2.114602
v -13.861996 -82.369018 1.586040
v -14.213553 -81.736774 1.057478
v -15.062285 -80.210400 0.838540
v -15.911017 -78.684026 1.057478
v -19.700885 -82.680976 1.637000
v -19.687364 -82.705293 1.657329
v -19.654720 -82.764000 1.665750
v -19.622076 -82.822707 1.657329
v -19.608555 -82.847024 1.637000
v -19.622076 -82.822707 1.616671
v -19.654720 -82.764000 1.608250
v -19.687364 -82.705293 1.616671
f 9 10 2 1
f 10 11 3 2
f 11 12 4 3
f 12 13 5 4
f 13 14 6 5
f 14 15 7 6
f 15 16 8 7
f 16 9 1 8
f 17 18 10 9
f 18 19 11 10
f 19 20 12 11
f 20 21 13 12
f 21 22 14 13
f 22 23 15 14
f 23 24 16 15
f 24 17 9 16
f 25 26 18 17
f 26 27 19 18
f 27 28 20 19
f 28 29 21 20
f 29 30 22 21
f 30 31 23 22
f 31 32 24 23
f 32 25 17 24
f 33 34 26 25
f 34 35 27 26
f 35 36 28 27
f 36 37 29 28
f 37 38 30 29
f 38 39 31 30
f 39 40 32 31
f 40 33 25 32
f 1 2 3 4 5 6 7 8
f 40 39 38 37 36 35 34 33
f 49 50 42 41
f 50 51 43 42
f 51 52 44 43
f 52 53 45 44
f 53 54 46 45
f 54 55 47 46
f 55 56 48 47
f 56 49 41 48
f 57 58 50 49
f 58 59 51 50
f 59 60 52 51
f 60 61 53 52
f 61 62 54 53
f 62 63 55 54
f 63 64 56 55
f 64 57 49 56
f 65 66 58 57
f 66 67 59 58
f 67 68 60 59
f 68 69 61 60
f 69 70 62 61
f 70 71 63 62
f 71 72 64 63
f 72 65 57 64
f 73 74 66 65
f 74 75 67 66
f 75 76 68 67
f 76 77 69 68
f 77 78 70 69
f 78 79 71 70
f 79 80 72 71
f 80 73 65 72
f 41 42 43 44 45 46 47 48
f 80 79 78 77 76 75 74 73
f 89 90 82 81
f 90 91 83 82
f 91 92 84 83
f 92 93 85 84
f 93 94 86 85
f 94 95 87 86
f 95 96 88 87
f 96 89 81 88
f 97 98 90 89
f 98 99 91 90
f 99 100 92 91
f 100 101 93 92
f 101 102 94 93
f 102 103 95 94
f 103 104 96 95
f 104 97 89 96
f 105 106 98 97
f 106 107 99 98
f 107 108 100 99
f 108 109 101 100
f 109 110 102 101
f 110 111 103 102
f 111 112 104 103
f 112 105 97 104
f 113 114 106 105
f 114 115 107 106
f 115 116 108 107
f 116 117 109 108
f 117 118 110 109
f 118 119 111 110
f 119 120 112 111
f 120 113 105 112
f 81 82 83 84 85 86 87 88
f 120 119 118 117 116 115 114 113
f 129 130 122 121
f 130 131 123 122
f 131 132 124 123
f 132 133 125 124
f 133 134 126 125
f 134 135 127 126
f 135 136 128 127
f 136 129 121 128
f 137 138 130 129
f 138 139 131 130
f 139 140 132 131
f 140 141 133 132
f 141 142 134 133
f 142 143 135 134
f 143 144 136 135
f 144 137 129 136
f 145 146 138 137
f 146 147 139 138
f 147 148 140 139
f 148 149 141 140
f 149 150 142 141
f 150 151 143 142
f 151 152 144 143
f 152 145 137 144
f 153 154 146 145
f 154 155 147 146
f 155 156 148 147
f 156 157 149 148
f 157 158 150 149
f 158 159 151 150
f 159 160 152 151
f 160 153 145 152
f 121 122 123 124 125 126 127 128
f 160 159 158 157 156 155 154 153
f 169 170 162 161
f 170 171 163 162
f 171 172 164 163
f 172 173 165 164
f 173 174 166 165
f 174 175 167 166
f 175 176 168 167
f 176 169 161 168
f 177 178 170 169
f 178 179 171 170
f 179 180 172 171
f 180 181 173 172
f 181 182 174 173
f 182 183 175 174
f 183 184 176 175
f 184 177 169 176
f 185 186 178 177
f 186 187 179 178
f 187 188 180 179
f 188 189 181 180
f 189 190 182 181
f 190 191 183 182
f 191 192 184 183
f 192 185 177 184
f 193 194 186 185
f 194 195 187 186
f 195 196 188 187
f 196 197 189 188
f 197 198 190 189
f 198 199 191 190
f 199 200 192 191
f 200 193 185 192
f 161 162 163 164 165 166 167 168
f 200 199 198 197 196 195 194 193
f 209 210 202 201
f 210 211 203 202
f 211 212 204 203
f 212 213 205 204
f 213 214 206 205
f 214 215 207 206
f 215 216 208 207
f 216 209 201 208
f 217 218 210 209
f 218 219 211 210
f 219 220 212 211
f 220 221 213 212
f 221 222 214 213
f 222 223 215 214
f 223 224 216 215
f 224 217 209 216
f 225 226 218 217
f 226 227 219 218
f 227 228 220 219
f 228 229 221 220
f 229 230 222 221
f 230 231 223 222
f 231 232 224 223
f 232 225 217 224
f 233 234 226 225
f 234 235 227 226
f 235 236 228 227
f 236 237 229 228
f 237 238 230 229
f 238 239 231 230
f 239 240 232 231
f 240 233 225 232
f 201 202 203 204 205 206 207 208
f 240 239 238 237 236 235 234 233
f 249 250 242 241
f 250 251 243 242
f 251 252 244 243
f 252 253 245 244
f 253 254 246 245
f 254 255 247 246
f 255 256 248 247
f 256 249 241 248
f 257 258 250 249
f 258 259 251 250
f 259 260 252 251
f 260 261 253 252
f 261 262 254 253
f 262 263 255 254
f 263 264 256 255
f 264 257 249 256
f 265 266 258 257
f 266 267 259 258
f 267 268 260 259
f 268 269 261 260
f 269 270 262 261
f 270 271 263 262
f 271 272 264 263
f 272 265 257 264
f 273 274 266 265
f 274 275 267 266
f 275 276 268 267
f 276 277 269 268
f 277 278 270 269
f 278 279 271 270
f 279 280 272 271
f 280 273 265 272
f 241 242 243 244 245 246 247 248
f 280 279 278 277 276 275 274 273
f 289 290 282 281
f 290 291 283 282
f 291 292 284 283
f 292 293 285 284
f 293 294 286 285
f 294 295 287 286
f 295 296 288 287
f 296 289 281 288
f 297 298 290 289
f 298 299 291 290
f 299 300 292 291
f 300 301 293 292
f 301 302 294 293
f 302 303 295 294
f 303 304 296 295
f 304 297 289 296
f 305 306 298 297
f 306 307 299 298
f 307 308 300 299
f 308 309 301 300
f 309 310 302 301
f 310 311 303 302
f 311 312 304 303
f 312 305 297 304
f 313 314 306 305
f 314 315 307 306
f 315 316 308 307
f 316 317 309 308
f 317 318 310 309
f 318 319 311 310
f 319 320 312 311
f 320 313 305 312
f 281 282 283 284 285 286 287 288
f 320 319 318 317 316 315 314 313
f 329 330 322 321
f 330 331 323 322
f 331 332 324 323
f 332 333 325 324
f 333 334 326 325
f 334 335 327 326
f 335 336 328 327
f 336 329 321 328
f 337 338 330 329
f 338 339 331 330
f 339 340 332 331
f 340 341 333 332
f 341 342 334 333
f 342 343 335 334
f 343 344 336 335
f 344 337 329 336
f 345 346 338 337
f 346 347 339 338
f 347 348 340 339
f 348 349 341 340
f 349 350 342 341
f 350 351 343 342
f 351 352 344 343
f 352 345 337 344
f 353 354 346 345
f 354 355 347 346
f 355 356 348 347
f 356 357 349 348
f 357 358 350 349
f 358 359 351 350
f 359 360 352 351
f 360 353 345 352
f 321 322 323 324 325 326 327 328
f 360 359 358 357 356 355 354 353
