# Original Basketbroom flight equipment; cm, Z up; Unreal Y = -OBJ Y
o SM_BB_BroomLeather
s 1
v -21.000000 3.300000 -5.500000
v -20.921458 2.857884 -6.221739
v -20.863961 1.650000 -6.750089
v -20.842916 0.000000 -6.943478
v -20.863961 -1.650000 -6.750089
v -20.921458 -2.857884 -6.221739
v -21.000000 -3.300000 -5.500000
v -21.078542 -2.857884 -4.778261
v -21.136039 -1.650000 -4.249911
v -21.157084 -0.000000 -4.056522
v -21.136039 1.650000 -4.249911
v -21.078542 2.857884 -4.778261
v -21.000000 3.300000 -5.500000
v -19.740741 4.300000 -5.362963
v -19.646610 3.723909 -6.304268
v -19.577702 2.150000 -6.993351
v -19.552480 0.000000 -7.245573
v -19.577702 -2.150000 -6.993351
v -19.646610 -3.723909 -6.304268
v -19.740741 -4.300000 -5.362963
v -19.834871 -3.723909 -4.421658
v -19.903780 -2.150000 -3.732575
v -19.929002 -0.000000 -3.480353
v -19.903780 2.150000 -3.732575
v -19.834871 3.723909 -4.421658
v -19.740741 4.300000 -5.362963
v -17.703704 5.200000 -5.170370
v -17.631518 4.503332 -6.312091
v -17.578674 2.600000 -7.147888
v -17.559331 0.000000 -7.453811
v -17.578674 -2.600000 -7.147888
v -17.631518 -4.503332 -6.312091
v -17.703704 -5.200000 -5.170370
v -17.775890 -4.503332 -4.028650
v -17.828734 -2.600000 -3.192853
v -17.848076 -0.000000 -2.886930
v -17.828734 2.600000 -3.192853
v -17.775890 4.503332 -4.028650
v -17.703704 5.200000 -5.170370
v -14.000000 5.800000 -5.000000
v -13.961506 5.022947 -6.275419
v -13.933326 2.900000 -7.209091
v -13.923011 0.000000 -7.550838
v -13.933326 -2.900000 -7.209091
v -13.961506 -5.022947 -6.275419
v -14.000000 -5.800000 -5.000000
v -14.038494 -5.022947 -3.724581
v -14.066674 -2.900000 -2.790909
v -14.076989 -0.000000 -2.449162
v -14.066674 2.900000 -2.790909
v -14.038494 5.022947 -3.724581
v -14.000000 5.800000 -5.000000
v -7.518519 6.000000 -4.862963
v -7.495798 5.196152 -6.182767
v -7.479165 3.000000 -7.148931
v -7.473077 0.000000 -7.502572
v -7.479165 -3.000000 -7.148931
v -7.495798 -5.196152 -6.182767
v -7.518519 -6.000000 -4.862963
v -7.541239 -5.196152 -3.543159
v -7.557872 -3.000000 -2.576995
v -7.563960 -0.000000 -2.223354
v -7.557872 3.000000 -2.576995
v -7.541239 5.196152 -3.543159
v -7.518519 6.000000 -4.862963
v 0.629630 6.000000 -4.748148
v 0.643490 5.196152 -6.068075
v 0.653637 3.000000 -7.034329
v 0.657351 0.000000 -7.388003
v 0.653637 -3.000000 -7.034329
v 0.643490 -5.196152 -6.068075
v 0.629630 -6.000000 -4.748148
v 0.615769 -5.196152 -3.428221
v 0.605622 -3.000000 -2.461967
v 0.601908 -0.000000 -2.108294
v 0.605622 3.000000 -2.461967
v 0.615769 5.196152 -3.428221
v 0.629630 6.000000 -4.748148
v 8.000000 6.000000 -4.700000
v 7.998182 5.196152 -6.019999
v 7.996851 3.000000 -6.986305
v 7.996364 0.000000 -7.339997
v 7.996851 -3.000000 -6.986305
v 7.998182 -5.196152 -6.019999
v 8.000000 -6.000000 -4.700000
v 8.001818 -5.196152 -3.380001
v 8.003149 -3.000000 -2.413695
v 8.003636 -0.000000 -2.060003
v 8.003149 3.000000 -2.413695
v 8.001818 5.196152 -3.380001
v 8.000000 6.000000 -4.700000
v 14.074074 5.700000 -4.766667
v 14.052020 4.936345 -6.020473
v 14.035876 2.850000 -6.938322
v 14.029966 0.000000 -7.274279
v 14.035876 -2.850000 -6.938322
v 14.052020 -4.936345 -6.020473
v 14.074074 -5.700000 -4.766667
v 14.096128 -4.936345 -3.512861
v 14.112273 -2.850000 -2.595011
v 14.118182 -0.000000 -2.259055
v 14.112273 2.850000 -2.595011
v 14.096128 4.936345 -3.512861
v 14.074074 5.700000 -4.766667
v 19.370370 5.000000 -4.900000
v 19.341625 4.330127 -5.999624
v 19.320582 2.500000 -6.804605
v 19.312880 0.000000 -7.099249
v 19.320582 -2.500000 -6.804605
v 19.341625 -4.330127 -5.999624
v 19.370370 -5.000000 -4.900000
v 19.399116 -4.330127 -3.800376
v 19.420159 -2.500000 -2.995395
v 19.427861 -0.000000 -2.700751
v 19.420159 2.500000 -2.995395
v 19.399116 4.330127 -3.800376
v 19.370370 5.000000 -4.900000
v 23.000000 4.000000 -5.000000
v 22.975764 3.464102 -5.879666
v 22.958023 2.000000 -6.523627
v 22.951529 0.000000 -6.759332
v 22.958023 -2.000000 -6.523627
v 22.975764 -3.464102 -5.879666
v 23.000000 -4.000000 -5.000000
v 23.024236 -3.464102 -4.120334
v 23.041977 -2.000000 -3.476373
v 23.048471 -0.000000 -3.240668
v 23.041977 2.000000 -3.476373
v 23.024236 3.464102 -4.120334
v 23.000000 4.000000 -5.000000
v 39.950000 4.500000 7.000000
v 40.358623 4.500000 5.475000
v 41.475000 4.500000 4.358623
v 43.000000 4.500000 3.950000
v 44.525000 4.500000 4.358623
v 45.641377 4.500000 5.475000
v 46.050000 4.500000 7.000000
v 45.641377 4.500000 8.525000
v 44.525000 4.500000 9.641377
v 43.000000 4.500000 10.050000
v 41.475000 4.500000 9.641377
v 40.358623 4.500000 8.525000
v 39.950000 4.500000 7.000000
v 39.950000 16.800000 7.000000
v 40.358623 16.800000 5.475000
v 41.475000 16.800000 4.358623
v 43.000000 16.800000 3.950000
v 44.525000 16.800000 4.358623
v 45.641377 16.800000 5.475000
v 46.050000 16.800000 7.000000
v 45.641377 16.800000 8.525000
v 44.525000 16.800000 9.641377
v 43.000000 16.800000 10.050000
v 41.475000 16.800000 9.641377
v 40.358623 16.800000 8.525000
v 39.950000 16.800000 7.000000
v 46.050000 -4.500000 7.000000
v 45.641377 -4.500000 5.475000
v 44.525000 -4.500000 4.358623
v 43.000000 -4.500000 3.950000
v 41.475000 -4.500000 4.358623
v 40.358623 -4.500000 5.475000
v 39.950000 -4.500000 7.000000
v 40.358623 -4.500000 8.525000
v 41.475000 -4.500000 9.641377
v 43.000000 -4.500000 10.050000
v 44.525000 -4.500000 9.641377
v 45.641377 -4.500000 8.525000
v 46.050000 -4.500000 7.000000
v 46.050000 -16.800000 7.000000
v 45.641377 -16.800000 5.475000
v 44.525000 -16.800000 4.358623
v 43.000000 -16.800000 3.950000
v 41.475000 -16.800000 4.358623
v 40.358623 -16.800000 5.475000
v 39.950000 -16.800000 7.000000
v 40.358623 -16.800000 8.525000
v 41.475000 -16.800000 9.641377
v 43.000000 -16.800000 10.050000
v 44.525000 -16.800000 9.641377
v 45.641377 -16.800000 8.525000
v 46.050000 -16.800000 7.000000
v -110.000000 6.200000 -8.500000
v -110.000000 5.826094 -10.620525
v -110.000000 4.749476 -12.485283
v -110.000000 3.100000 -13.869358
v -110.000000 1.076619 -14.605808
v -110.000000 -1.076619 -14.605808
v -110.000000 -3.100000 -13.869358
v -110.000000 -4.749476 -12.485283
v -110.000000 -5.826094 -10.620525
v -110.000000 -6.200000 -8.500000
v -110.000000 -5.826094 -6.379475
v -110.000000 -4.749476 -4.514717
v -110.000000 -3.100000 -3.130642
v -110.000000 -1.076619 -2.394192
v -110.000000 1.076619 -2.394192
v -110.000000 3.100000 -3.130642
v -110.000000 4.749476 -4.514717
v -110.000000 5.826094 -6.379475
v -110.000000 6.200000 -8.500000
v -98.000000 6.200000 -8.500000
v -98.000000 5.826094 -10.620525
v -98.000000 4.749476 -12.485283
v -98.000000 3.100000 -13.869358
v -98.000000 1.076619 -14.605808
v -98.000000 -1.076619 -14.605808
v -98.000000 -3.100000 -13.869358
v -98.000000 -4.749476 -12.485283
v -98.000000 -5.826094 -10.620525
v -98.000000 -6.200000 -8.500000
v -98.000000 -5.826094 -6.379475
v -98.000000 -4.749476 -4.514717
v -98.000000 -3.100000 -3.130642
v -98.000000 -1.076619 -2.394192
v -98.000000 1.076619 -2.394192
v -98.000000 3.100000 -3.130642
v -98.000000 4.749476 -4.514717
v -98.000000 5.826094 -6.379475
v -98.000000 6.200000 -8.500000
v -123.500000 9.000000 -9.500000
v -123.500000 8.457234 -12.578181
v -123.500000 6.894400 -15.285088
v -123.500000 4.500000 -17.294229
v -123.500000 1.562834 -18.363270
v -123.500000 -1.562834 -18.363270
v -123.500000 -4.500000 -17.294229
v -123.500000 -6.894400 -15.285088
v -123.500000 -8.457234 -12.578181
v -123.500000 -9.000000 -9.500000
v -123.500000 -8.457234 -6.421819
v -123.500000 -6.894400 -3.714912
v -123.500000 -4.500000 -1.705771
v -123.500000 -1.562834 -0.636730
v -123.500000 1.562834 -0.636730
v -123.500000 4.500000 -1.705771
v -123.500000 6.894400 -3.714912
v -123.500000 8.457234 -6.421819
v -123.500000 9.000000 -9.500000
v -116.500000 9.000000 -9.500000
v -116.500000 8.457234 -12.578181
v -116.500000 6.894400 -15.285088
v -116.500000 4.500000 -17.294229
v -116.500000 1.562834 -18.363270
v -116.500000 -1.562834 -18.363270
v -116.500000 -4.500000 -17.294229
v -116.500000 -6.894400 -15.285088
v -116.500000 -8.457234 -12.578181
v -116.500000 -9.000000 -9.500000
v -116.500000 -8.457234 -6.421819
v -116.500000 -6.894400 -3.714912
v -116.500000 -4.500000 -1.705771
v -116.500000 -1.562834 -0.636730
v -116.500000 1.562834 -0.636730
v -116.500000 4.500000 -1.705771
v -116.500000 6.894400 -3.714912
v -116.500000 8.457234 -6.421819
v -116.500000 9.000000 -9.500000
v -124.478071 -6.800000 -8.457011
v -124.156795 -6.354850 -8.587503
v -123.618834 -6.524882 -8.597069
v -123.607631 -7.075118 -8.472489
v -124.138669 -7.245150 -8.385928
v -124.478071 -6.800000 -8.457011
v -124.204706 -6.029179 -5.549591
v -123.796804 -5.695365 -5.751058
v -123.303068 -5.957487 -5.674104
v -123.405824 -6.453301 -5.425077
v -123.963068 -6.497609 -5.348123
v -124.204706 -6.029179 -5.549591
v -123.946244 -4.184885 -3.183546
v -123.584353 -3.941155 -3.541367
v -123.063584 -4.110046 -3.404691
v -123.103622 -4.458157 -2.962400
v -123.649136 -4.504410 -2.825725
v -123.946244 -4.184885 -3.183546
v -123.682053 -1.469057 -1.870490
v -123.342491 -1.398773 -2.315645
v -122.811652 -1.486543 -2.145611
v -122.823138 -1.611073 -1.595370
v -123.361075 -1.600266 -1.425336
v -123.682053 -1.469057 -1.870490
v -123.416747 1.557228 -1.870490
v -123.095769 1.426019 -2.315645
v -122.557832 1.415212 -2.145611
v -122.546346 1.539741 -1.595370
v -123.077184 1.627512 -1.425336
v -123.416747 1.557228 -1.870490
v -123.150326 4.294576 -3.183546
v -122.853217 3.975052 -3.541367
v -122.307703 4.021305 -3.404691
v -122.267666 4.369415 -2.962400
v -122.788435 4.538306 -2.825725
v -123.150326 4.294576 -3.183546
v -122.878175 6.223998 -5.549591
v -122.636537 5.755568 -5.751058
v -122.079294 5.799875 -5.674104
v -121.976537 6.295689 -5.425077
v -122.470273 6.557811 -5.348123
v -122.878175 6.223998 -5.549591
v -122.620928 6.800000 -8.542989
v -122.290589 6.343493 -8.513284
v -121.756090 6.517863 -8.465221
v -121.756090 7.082137 -8.465221
v -122.290589 7.256507 -8.513284
v -122.620928 6.800000 -8.542989
v -122.347563 6.029179 -11.450409
v -121.939661 5.695365 -11.248942
v -121.445925 5.957487 -11.325896
v -121.548682 6.453301 -11.574923
v -122.105925 6.497609 -11.651877
v -122.347563 6.029179 -11.450409
v -122.089101 4.184885 -13.816454
v -121.727210 3.941155 -13.458633
v -121.206441 4.110046 -13.595309
v -121.246479 4.458157 -14.037600
v -121.791993 4.504410 -14.174275
v -122.089101 4.184885 -13.816454
v -121.824910 1.469057 -15.129510
v -121.485348 1.398773 -14.684355
v -120.954509 1.486543 -14.854389
v -120.965995 1.611073 -15.404630
v -121.503932 1.600266 -15.574664
v -121.824910 1.469057 -15.129510
v -121.559604 -1.557228 -15.129510
v -121.238626 -1.426019 -14.684355
v -120.700689 -1.415212 -14.854389
v -120.689203 -1.539741 -15.404630
v -121.220042 -1.627512 -15.574664
v -121.559604 -1.557228 -15.129510
v -121.293183 -4.294576 -13.816454
v -120.996074 -3.975052 -13.458633
v -120.450560 -4.021305 -13.595309
v -120.410523 -4.369415 -14.037600
v -120.931292 -4.538306 -14.174275
v -121.293183 -4.294576 -13.816454
v -121.021033 -6.223998 -11.450409
v -120.779394 -5.755568 -11.248942
v -120.222151 -5.799875 -11.325896
v -120.119394 -6.295689 -11.574923
v -120.613130 -6.557811 -11.651877
v -121.021033 -6.223998 -11.450409
v -120.763785 -6.800000 -8.457011
v -120.433446 -6.343493 -8.486716
v -119.898947 -6.517863 -8.534779
v -119.898947 -7.082137 -8.534779
v -120.433446 -7.256507 -8.486716
v -120.763785 -6.800000 -8.457011
v -120.490420 -6.029179 -5.549591
v -120.082518 -5.695365 -5.751058
v -119.588782 -5.957487 -5.674104
v -119.691539 -6.453301 -5.425077
v -120.248782 -6.497609 -5.348123
v -120.490420 -6.029179 -5.549591
v -120.231958 -4.184885 -3.183546
v -119.870068 -3.941155 -3.541367
v -119.349298 -4.110046 -3.404691
v -119.389336 -4.458157 -2.962400
v -119.934850 -4.504410 -2.825725
v -120.231958 -4.184885 -3.183546
v -119.967767 -1.469057 -1.870490
v -119.628205 -1.398773 -2.315645
v -119.097366 -1.486543 -2.145611
v -119.108852 -1.611073 -1.595370
v -119.646789 -1.600266 -1.425336
v -119.967767 -1.469057 -1.870490
v -119.702461 1.557228 -1.870490
v -119.381483 1.426019 -2.315645
v -118.843546 1.415212 -2.145611
v -118.832060 1.539741 -1.595370
v -119.362899 1.627512 -1.425336
v -119.702461 1.557228 -1.870490
v -119.436040 4.294576 -3.183546
v -119.138932 3.975052 -3.541367
v -118.593418 4.021305 -3.404691
v -118.553380 4.369415 -2.962400
v -119.074149 4.538306 -2.825725
v -119.436040 4.294576 -3.183546
v -119.163890 6.223998 -5.549591
v -118.922251 5.755568 -5.751058
v -118.365008 5.799875 -5.674104
v -118.262251 6.295689 -5.425077
v -118.755987 6.557811 -5.348123
v -119.163890 6.223998 -5.549591
v -118.906642 6.800000 -8.542989
v -118.576304 6.343493 -8.513284
v -118.041804 6.517863 -8.465221
v -118.041804 7.082137 -8.465221
v -118.576304 7.256507 -8.513284
v -118.906642 6.800000 -8.542989
v -118.633277 6.029179 -11.450409
v -118.225375 5.695365 -11.248942
v -117.731639 5.957487 -11.325896
v -117.834396 6.453301 -11.574923
v -118.391639 6.497609 -11.651877
v -118.633277 6.029179 -11.450409
v -118.374816 4.184885 -13.816454
v -118.012925 3.941155 -13.458633
v -117.492155 4.110046 -13.595309
v -117.532193 4.458157 -14.037600
v -118.077707 4.504410 -14.174275
v -118.374816 4.184885 -13.816454
v -118.110624 1.469057 -15.129510
v -117.771062 1.398773 -14.684355
v -117.240223 1.486543 -14.854389
v -117.251709 1.611073 -15.404630
v -117.789647 1.600266 -15.574664
v -118.110624 1.469057 -15.129510
v -117.845318 -1.557228 -15.129510
v -117.524340 -1.426019 -14.684355
v -116.986403 -1.415212 -14.854389
v -116.974917 -1.539741 -15.404630
v -117.505756 -1.627512 -15.574664
v -117.845318 -1.557228 -15.129510
v -117.578897 -4.294576 -13.816454
v -117.281789 -3.975052 -13.458633
v -116.736275 -4.021305 -13.595309
v -116.696237 -4.369415 -14.037600
v -117.217006 -4.538306 -14.174275
v -117.578897 -4.294576 -13.816454
v -117.306747 -6.223998 -11.450409
v -117.065108 -5.755568 -11.248942
v -116.507865 -5.799875 -11.325896
v -116.405109 -6.295689 -11.574923
v -116.898844 -6.557811 -11.651877
v -117.306747 -6.223998 -11.450409
v -117.049500 -6.800000 -8.457011
v -116.719161 -6.343493 -8.486716
v -116.184661 -6.517863 -8.534779
v -116.184661 -7.082137 -8.534779
v -116.719161 -7.256507 -8.486716
v -117.049500 -6.800000 -8.457011
v -116.776135 -6.029179 -5.549591
v -116.368232 -5.695365 -5.751058
v -115.874496 -5.957487 -5.674104
v -115.977253 -6.453301 -5.425077
v -116.534496 -6.497609 -5.348123
v -116.776135 -6.029179 -5.549591
v -116.517673 -4.184885 -3.183546
v -116.155782 -3.941155 -3.541367
v -115.635013 -4.110046 -3.404691
v -115.675050 -4.458157 -2.962400
v -116.220564 -4.504410 -2.825725
v -116.517673 -4.184885 -3.183546
v -116.253481 -1.469057 -1.870490
v -115.913919 -1.398773 -2.315645
v -115.383080 -1.486543 -2.145611
v -115.394566 -1.611073 -1.595370
v -115.932504 -1.600266 -1.425336
v -116.253481 -1.469057 -1.870490
v -115.988175 1.557228 -1.870490
v -115.667198 1.426019 -2.315645
v -115.129260 1.415212 -2.145611
v -115.117774 1.539741 -1.595370
v -115.648613 1.627512 -1.425336
v -115.988175 1.557228 -1.870490
v -115.721754 4.294576 -3.183546
v -115.424646 3.975052 -3.541367
v -114.879132 4.021305 -3.404691
v -114.839094 4.369415 -2.962400
v -115.359864 4.538306 -2.825725
v -115.721754 4.294576 -3.183546
v -115.449604 6.223998 -5.549591
v -115.207966 5.755568 -5.751058
v -114.650722 5.799875 -5.674104
v -114.547966 6.295689 -5.425077
v -115.041702 6.557811 -5.348123
v -115.449604 6.223998 -5.549591
v -115.192357 6.800000 -8.542989
v -114.862018 6.343493 -8.513284
v -114.327518 6.517863 -8.465221
v -114.327518 7.082137 -8.465221
v -114.862018 7.256507 -8.513284
v -115.192357 6.800000 -8.542989
v -114.918992 6.029179 -11.450409
v -114.511089 5.695365 -11.248942
v -114.017353 5.957487 -11.325896
v -114.120110 6.453301 -11.574923
v -114.677353 6.497609 -11.651877
v -114.918992 6.029179 -11.450409
v -114.660530 4.184885 -13.816454
v -114.298639 3.941155 -13.458633
v -113.777870 4.110046 -13.595309
v -113.817907 4.458157 -14.037600
v -114.363421 4.504410 -14.174275
v -114.660530 4.184885 -13.816454
v -114.396339 1.469057 -15.129510
v -114.056776 1.398773 -14.684355
v -113.525938 1.486543 -14.854389
v -113.537423 1.611073 -15.404630
v -114.075361 1.600266 -15.574664
v -114.396339 1.469057 -15.129510
v -114.131032 -1.557228 -15.129510
v -113.810055 -1.426019 -14.684355
v -113.272117 -1.415212 -14.854389
v -113.260631 -1.539741 -15.404630
v -113.791470 -1.627512 -15.574664
v -114.131032 -1.557228 -15.129510
v -113.864611 -4.294576 -13.816454
v -113.567503 -3.975052 -13.458633
v -113.021989 -4.021305 -13.595309
v -112.981951 -4.369415 -14.037600
v -113.502721 -4.538306 -14.174275
v -113.864611 -4.294576 -13.816454
v -113.592461 -6.223998 -11.450409
v -113.350823 -5.755568 -11.248942
v -112.793580 -5.799875 -11.325896
v -112.690823 -6.295689 -11.574923
v -113.184559 -6.557811 -11.651877
v -113.592461 -6.223998 -11.450409
v -113.335214 -6.800000 -8.457011
v -113.004875 -6.343493 -8.486716
v -112.470375 -6.517863 -8.534779
v -112.470375 -7.082137 -8.534779
v -113.004875 -7.256507 -8.486716
v -113.335214 -6.800000 -8.457011
v -113.061849 -6.029179 -5.549591
v -112.653947 -5.695365 -5.751058
v -112.160211 -5.957487 -5.674104
v -112.262967 -6.453301 -5.425077
v -112.820210 -6.497609 -5.348123
v -113.061849 -6.029179 -5.549591
v -112.803387 -4.184885 -3.183546
v -112.441496 -3.941155 -3.541367
v -111.920727 -4.110046 -3.404691
v -111.960765 -4.458157 -2.962400
v -112.506278 -4.504410 -2.825725
v -112.803387 -4.184885 -3.183546
v -112.539196 -1.469057 -1.870490
v -112.199633 -1.398773 -2.315645
v -111.668795 -1.486543 -2.145611
v -111.680281 -1.611073 -1.595370
v -112.218218 -1.600266 -1.425336
v -112.539196 -1.469057 -1.870490
v -112.273890 1.557228 -1.870490
v -111.952912 1.426019 -2.315645
v -111.414974 1.415212 -2.145611
v -111.403489 1.539741 -1.595370
v -111.934327 1.627512 -1.425336
v -112.273890 1.557228 -1.870490
v -112.007469 4.294576 -3.183546
v -111.710360 3.975052 -3.541367
v -111.164846 4.021305 -3.404691
v -111.124809 4.369415 -2.962400
v -111.645578 4.538306 -2.825725
v -112.007469 4.294576 -3.183546
v -111.735318 6.223998 -5.549591
v -111.493680 5.755568 -5.751058
v -110.936437 5.799875 -5.674104
v -110.833680 6.295689 -5.425077
v -111.327416 6.557811 -5.348123
v -111.735318 6.223998 -5.549591
v -111.478071 6.800000 -8.542989
v -111.147732 6.343493 -8.513284
v -110.613232 6.517863 -8.465221
v -110.613232 7.082137 -8.465221
v -111.147732 7.256507 -8.513284
v -111.478071 6.800000 -8.542989
v -111.204706 6.029179 -11.450409
v -110.796804 5.695365 -11.248942
v -110.303068 5.957487 -11.325896
v -110.405824 6.453301 -11.574923
v -110.963068 6.497609 -11.651877
v -111.204706 6.029179 -11.450409
v -110.946244 4.184885 -13.816454
v -110.584353 3.941155 -13.458633
v -110.063584 4.110046 -13.595309
v -110.103622 4.458157 -14.037600
v -110.649136 4.504410 -14.174275
v -110.946244 4.184885 -13.816454
v -110.682053 1.469057 -15.129510
v -110.342491 1.398773 -14.684355
v -109.811652 1.486543 -14.854389
v -109.823138 1.611073 -15.404630
v -110.361075 1.600266 -15.574664
v -110.682053 1.469057 -15.129510
v -110.416747 -1.557228 -15.129510
v -110.095769 -1.426019 -14.684355
v -109.557832 -1.415212 -14.854389
v -109.546346 -1.539741 -15.404630
v -110.077184 -1.627512 -15.574664
v -110.416747 -1.557228 -15.129510
v -110.150326 -4.294576 -13.816454
v -109.853217 -3.975052 -13.458633
v -109.307703 -4.021305 -13.595309
v -109.267666 -4.369415 -14.037600
v -109.788435 -4.538306 -14.174275
v -110.150326 -4.294576 -13.816454
v -109.878175 -6.223998 -11.450409
v -109.636537 -5.755568 -11.248942
v -109.079294 -5.799875 -11.325896
v -108.976537 -6.295689 -11.574923
v -109.470273 -6.557811 -11.651877
v -109.878175 -6.223998 -11.450409
v -109.620928 -6.800000 -8.457011
v -109.290589 -6.343493 -8.486716
v -108.756090 -6.517863 -8.534779
v -108.756090 -7.082137 -8.534779
v -109.290589 -7.256507 -8.486716
v -109.620928 -6.800000 -8.457011
v -109.347563 -6.029179 -5.549591
v -108.939661 -5.695365 -5.751058
v -108.445925 -5.957487 -5.674104
v -108.548682 -6.453301 -5.425077
v -109.105925 -6.497609 -5.348123
v -109.347563 -6.029179 -5.549591
v -109.089101 -4.184885 -3.183546
v -108.727210 -3.941155 -3.541367
v -108.206441 -4.110046 -3.404691
v -108.246479 -4.458157 -2.962400
v -108.791993 -4.504410 -2.825725
v -109.089101 -4.184885 -3.183546
v -108.824910 -1.469057 -1.870490
v -108.485348 -1.398773 -2.315645
v -107.954509 -1.486543 -2.145611
v -107.965995 -1.611073 -1.595370
v -108.503932 -1.600266 -1.425336
v -108.824910 -1.469057 -1.870490
v -108.559604 1.557228 -1.870490
v -108.238626 1.426019 -2.315645
v -107.700689 1.415212 -2.145611
v -107.689203 1.539741 -1.595370
v -108.220042 1.627512 -1.425336
v -108.559604 1.557228 -1.870490
v -108.293183 4.294576 -3.183546
v -107.996074 3.975052 -3.541367
v -107.450560 4.021305 -3.404691
v -107.410523 4.369415 -2.962400
v -107.931292 4.538306 -2.825725
v -108.293183 4.294576 -3.183546
v -108.021033 6.223998 -5.549591
v -107.779394 5.755568 -5.751058
v -107.222151 5.799875 -5.674104
v -107.119394 6.295689 -5.425077
v -107.613130 6.557811 -5.348123
v -108.021033 6.223998 -5.549591
v -107.763785 6.800000 -8.542989
v -107.433446 6.343493 -8.513284
v -106.898947 6.517863 -8.465221
v -106.898947 7.082137 -8.465221
v -107.433446 7.256507 -8.513284
v -107.763785 6.800000 -8.542989
v -107.490420 6.029179 -11.450409
v -107.082518 5.695365 -11.248942
v -106.588782 5.957487 -11.325896
v -106.691539 6.453301 -11.574923
v -107.248782 6.497609 -11.651877
v -107.490420 6.029179 -11.450409
v -107.231958 4.184885 -13.816454
v -106.870068 3.941155 -13.458633
v -106.349298 4.110046 -13.595309
v -106.389336 4.458157 -14.037600
v -106.934850 4.504410 -14.174275
v -107.231958 4.184885 -13.816454
v -106.967767 1.469057 -15.129510
v -106.628205 1.398773 -14.684355
v -106.097366 1.486543 -14.854389
v -106.108852 1.611073 -15.404630
v -106.646789 1.600266 -15.574664
v -106.967767 1.469057 -15.129510
v -106.702461 -1.557228 -15.129510
v -106.381483 -1.426019 -14.684355
v -105.843546 -1.415212 -14.854389
v -105.832060 -1.539741 -15.404630
v -106.362899 -1.627512 -15.574664
v -106.702461 -1.557228 -15.129510
v -106.436040 -4.294576 -13.816454
v -106.138932 -3.975052 -13.458633
v -105.593418 -4.021305 -13.595309
v -105.553380 -4.369415 -14.037600
v -106.074149 -4.538306 -14.174275
v -106.436040 -4.294576 -13.816454
v -106.163890 -6.223998 -11.450409
v -105.922251 -5.755568 -11.248942
v -105.365008 -5.799875 -11.325896
v -105.262251 -6.295689 -11.574923
v -105.755987 -6.557811 -11.651877
v -106.163890 -6.223998 -11.450409
v -105.906642 -6.800000 -8.457011
v -105.576304 -6.343493 -8.486716
v -105.041804 -6.517863 -8.534779
v -105.041804 -7.082137 -8.534779
v -105.576304 -7.256507 -8.486716
v -105.906642 -6.800000 -8.457011
v -105.633277 -6.029179 -5.549591
v -105.225375 -5.695365 -5.751058
v -104.731639 -5.957487 -5.674104
v -104.834396 -6.453301 -5.425077
v -105.391639 -6.497609 -5.348123
v -105.633277 -6.029179 -5.549591
v -105.374816 -4.184885 -3.183546
v -105.012925 -3.941155 -3.541367
v -104.492155 -4.110046 -3.404691
v -104.532193 -4.458157 -2.962400
v -105.077707 -4.504410 -2.825725
v -105.374816 -4.184885 -3.183546
v -105.110624 -1.469057 -1.870490
v -104.771062 -1.398773 -2.315645
v -104.240223 -1.486543 -2.145611
v -104.251709 -1.611073 -1.595370
v -104.789647 -1.600266 -1.425336
v -105.110624 -1.469057 -1.870490
v -104.845318 1.557228 -1.870490
v -104.524340 1.426019 -2.315645
v -103.986403 1.415212 -2.145611
v -103.974917 1.539741 -1.595370
v -104.505756 1.627512 -1.425336
v -104.845318 1.557228 -1.870490
v -104.578897 4.294576 -3.183546
v -104.281789 3.975052 -3.541367
v -103.736275 4.021305 -3.404691
v -103.696237 4.369415 -2.962400
v -104.217006 4.538306 -2.825725
v -104.578897 4.294576 -3.183546
v -104.306747 6.223998 -5.549591
v -104.065108 5.755568 -5.751058
v -103.507865 5.799875 -5.674104
v -103.405109 6.295689 -5.425077
v -103.898844 6.557811 -5.348123
v -104.306747 6.223998 -5.549591
v -104.049500 6.800000 -8.542989
v -103.719161 6.343493 -8.513284
v -103.184661 6.517863 -8.465221
v -103.184661 7.082137 -8.465221
v -103.719161 7.256507 -8.513284
v -104.049500 6.800000 -8.542989
v -103.776135 6.029179 -11.450409
v -103.368232 5.695365 -11.248942
v -102.874496 5.957487 -11.325896
v -102.977253 6.453301 -11.574923
v -103.534496 6.497609 -11.651877
v -103.776135 6.029179 -11.450409
v -103.517673 4.184885 -13.816454
v -103.155782 3.941155 -13.458633
v -102.635013 4.110046 -13.595309
v -102.675050 4.458157 -14.037600
v -103.220564 4.504410 -14.174275
v -103.517673 4.184885 -13.816454
v -103.253481 1.469057 -15.129510
v -102.913919 1.398773 -14.684355
v -102.383080 1.486543 -14.854389
v -102.394566 1.611073 -15.404630
v -102.932504 1.600266 -15.574664
v -103.253481 1.469057 -15.129510
v -102.988175 -1.557228 -15.129510
v -102.667198 -1.426019 -14.684355
v -102.129260 -1.415212 -14.854389
v -102.117774 -1.539741 -15.404630
v -102.648613 -1.627512 -15.574664
v -102.988175 -1.557228 -15.129510
v -102.721754 -4.294576 -13.816454
v -102.424646 -3.975052 -13.458633
v -101.879132 -4.021305 -13.595309
v -101.839094 -4.369415 -14.037600
v -102.359864 -4.538306 -14.174275
v -102.721754 -4.294576 -13.816454
v -102.449604 -6.223998 -11.450409
v -102.207966 -5.755568 -11.248942
v -101.650722 -5.799875 -11.325896
v -101.547966 -6.295689 -11.574923
v -102.041702 -6.557811 -11.651877
v -102.449604 -6.223998 -11.450409
v -102.192357 -6.800000 -8.457011
v -101.862018 -6.343493 -8.486716
v -101.327518 -6.517863 -8.534779
v -101.327518 -7.082137 -8.534779
v -101.862018 -7.256507 -8.486716
v -102.192357 -6.800000 -8.457011
v -101.918992 -6.029179 -5.549591
v -101.511089 -5.695365 -5.751058
v -101.017353 -5.957487 -5.674104
v -101.120110 -6.453301 -5.425077
v -101.677353 -6.497609 -5.348123
v -101.918992 -6.029179 -5.549591
v -101.660530 -4.184885 -3.183546
v -101.298639 -3.941155 -3.541367
v -100.777870 -4.110046 -3.404691
v -100.817907 -4.458157 -2.962400
v -101.363421 -4.504410 -2.825725
v -101.660530 -4.184885 -3.183546
v -101.396339 -1.469057 -1.870490
v -101.056776 -1.398773 -2.315645
v -100.525938 -1.486543 -2.145611
v -100.537423 -1.611073 -1.595370
v -101.075361 -1.600266 -1.425336
v -101.396339 -1.469057 -1.870490
v -101.131032 1.557228 -1.870490
v -100.810055 1.426019 -2.315645
v -100.272117 1.415212 -2.145611
v -100.260631 1.539741 -1.595370
v -100.791470 1.627512 -1.425336
v -101.131032 1.557228 -1.870490
v -100.864611 4.294576 -3.183546
v -100.567503 3.975052 -3.541367
v -100.021989 4.021305 -3.404691
v -99.981951 4.369415 -2.962400
v -100.502721 4.538306 -2.825725
v -100.864611 4.294576 -3.183546
v -100.592461 6.223998 -5.549591
v -100.350823 5.755568 -5.751058
v -99.793580 5.799875 -5.674104
v -99.690823 6.295689 -5.425077
v -100.184559 6.557811 -5.348123
v -100.592461 6.223998 -5.549591
v -100.335214 6.800000 -8.542989
v -100.004875 6.343493 -8.513284
v -99.470375 6.517863 -8.465221
v -99.470375 7.082137 -8.465221
v -100.004875 7.256507 -8.513284
v -100.335214 6.800000 -8.542989
v -100.061849 6.029179 -11.450409
v -99.653947 5.695365 -11.248942
v -99.160211 5.957487 -11.325896
v -99.262967 6.453301 -11.574923
v -99.820210 6.497609 -11.651877
v -100.061849 6.029179 -11.450409
v -99.803387 4.184885 -13.816454
v -99.441496 3.941155 -13.458633
v -98.920727 4.110046 -13.595309
v -98.960765 4.458157 -14.037600
v -99.506278 4.504410 -14.174275
v -99.803387 4.184885 -13.816454
v -99.539196 1.469057 -15.129510
v -99.199633 1.398773 -14.684355
v -98.668795 1.486543 -14.854389
v -98.680281 1.611073 -15.404630
v -99.218218 1.600266 -15.574664
v -99.539196 1.469057 -15.129510
v -99.273890 -1.557228 -15.129510
v -98.952912 -1.426019 -14.684355
v -98.414974 -1.415212 -14.854389
v -98.403489 -1.539741 -15.404630
v -98.934327 -1.627512 -15.574664
v -99.273890 -1.557228 -15.129510
v -99.007469 -4.294576 -13.816454
v -98.710360 -3.975052 -13.458633
v -98.164846 -4.021305 -13.595309
v -98.124809 -4.369415 -14.037600
v -98.645578 -4.538306 -14.174275
v -99.007469 -4.294576 -13.816454
v -98.735318 -6.223998 -11.450409
v -98.493680 -5.755568 -11.248942
v -97.936437 -5.799875 -11.325896
v -97.833680 -6.295689 -11.574923
v -98.327416 -6.557811 -11.651877
v -98.735318 -6.223998 -11.450409
v -98.478071 -6.800000 -8.457011
v -98.138669 -6.354850 -8.385928
v -97.607631 -6.524882 -8.472489
v -97.618834 -7.075118 -8.597069
v -98.156795 -7.245150 -8.587503
v -98.478071 -6.800000 -8.457011
vt 0.000000 0.000000
vt 0.083333 0.000000
vt 0.166667 0.000000
vt 0.250000 0.000000
vt 0.333333 0.000000
vt 0.416667 0.000000
vt 0.500000 0.000000
vt 0.583333 0.000000
vt 0.666667 0.000000
vt 0.750000 0.000000
vt 0.833333 0.000000
vt 0.916667 0.000000
vt 1.000000 0.000000
vt 0.000000 0.126669
vt 0.083333 0.126669
vt 0.166667 0.126669
vt 0.250000 0.126669
vt 0.333333 0.126669
vt 0.416667 0.126669
vt 0.500000 0.126669
vt 0.583333 0.126669
vt 0.666667 0.126669
vt 0.750000 0.126669
vt 0.833333 0.126669
vt 0.916667 0.126669
vt 1.000000 0.126669
vt 0.000000 0.331281
vt 0.083333 0.331281
vt 0.166667 0.331281
vt 0.250000 0.331281
vt 0.333333 0.331281
vt 0.416667 0.331281
vt 0.500000 0.331281
vt 0.583333 0.331281
vt 0.666667 0.331281
vt 0.750000 0.331281
vt 0.833333 0.331281
vt 0.916667 0.331281
vt 1.000000 0.331281
vt 0.000000 0.702044
vt 0.083333 0.702044
vt 0.166667 0.702044
vt 0.250000 0.702044
vt 0.333333 0.702044
vt 0.416667 0.702044
vt 0.500000 0.702044
vt 0.583333 0.702044
vt 0.666667 0.702044
vt 0.750000 0.702044
vt 0.833333 0.702044
vt 0.916667 0.702044
vt 1.000000 0.702044
vt 0.000000 1.350337
vt 0.083333 1.350337
vt 0.166667 1.350337
vt 0.250000 1.350337
vt 0.333333 1.350337
vt 0.416667 1.350337
vt 0.500000 1.350337
vt 0.583333 1.350337
vt 0.666667 1.350337
vt 0.750000 1.350337
vt 0.833333 1.350337
vt 0.916667 1.350337
vt 1.000000 1.350337
vt 0.000000 2.165232
vt 0.083333 2.165232
vt 0.166667 2.165232
vt 0.250000 2.165232
vt 0.333333 2.165232
vt 0.416667 2.165232
vt 0.500000 2.165232
vt 0.583333 2.165232
vt 0.666667 2.165232
vt 0.750000 2.165232
vt 0.833333 2.165232
vt 0.916667 2.165232
vt 1.000000 2.165232
vt 0.000000 2.902285
vt 0.083333 2.902285
vt 0.166667 2.902285
vt 0.250000 2.902285
vt 0.333333 2.902285
vt 0.416667 2.902285
vt 0.500000 2.902285
vt 0.583333 2.902285
vt 0.666667 2.902285
vt 0.750000 2.902285
vt 0.833333 2.902285
vt 0.916667 2.902285
vt 1.000000 2.902285
vt 0.000000 3.509729
vt 0.083333 3.509729
vt 0.166667 3.509729
vt 0.250000 3.509729
vt 0.333333 3.509729
vt 0.416667 3.509729
vt 0.500000 3.509729
vt 0.583333 3.509729
vt 0.666667 3.509729
vt 0.750000 3.509729
vt 0.833333 3.509729
vt 0.916667 3.509729
vt 1.000000 3.509729
vt 0.000000 4.039526
vt 0.083333 4.039526
vt 0.166667 4.039526
vt 0.250000 4.039526
vt 0.333333 4.039526
vt 0.416667 4.039526
vt 0.500000 4.039526
vt 0.583333 4.039526
vt 0.666667 4.039526
vt 0.750000 4.039526
vt 0.833333 4.039526
vt 0.916667 4.039526
vt 1.000000 4.039526
vt 0.000000 4.402627
vt 0.083333 4.402627
vt 0.166667 4.402627
vt 0.250000 4.402627
vt 0.333333 4.402627
vt 0.416667 4.402627
vt 0.500000 4.402627
vt 0.583333 4.402627
vt 0.666667 4.402627
vt 0.750000 4.402627
vt 0.833333 4.402627
vt 0.916667 4.402627
vt 1.000000 4.402627
vt 0.000000 0.000000
vt 0.083333 0.000000
vt 0.166667 0.000000
vt 0.250000 0.000000
vt 0.333333 0.000000
vt 0.416667 0.000000
vt 0.500000 0.000000
vt 0.583333 0.000000
vt 0.666667 0.000000
vt 0.750000 0.000000
vt 0.833333 0.000000
vt 0.916667 0.000000
vt 1.000000 0.000000
vt 0.000000 1.230000
vt 0.083333 1.230000
vt 0.166667 1.230000
vt 0.250000 1.230000
vt 0.333333 1.230000
vt 0.416667 1.230000
vt 0.500000 1.230000
vt 0.583333 1.230000
vt 0.666667 1.230000
vt 0.750000 1.230000
vt 0.833333 1.230000
vt 0.916667 1.230000
vt 1.000000 1.230000
vt 0.000000 0.000000
vt 0.083333 0.000000
vt 0.166667 0.000000
vt 0.250000 0.000000
vt 0.333333 0.000000
vt 0.416667 0.000000
vt 0.500000 0.000000
vt 0.583333 0.000000
vt 0.666667 0.000000
vt 0.750000 0.000000
vt 0.833333 0.000000
vt 0.916667 0.000000
vt 1.000000 0.000000
vt 0.000000 1.230000
vt 0.083333 1.230000
vt 0.166667 1.230000
vt 0.250000 1.230000
vt 0.333333 1.230000
vt 0.416667 1.230000
vt 0.500000 1.230000
vt 0.583333 1.230000
vt 0.666667 1.230000
vt 0.750000 1.230000
vt 0.833333 1.230000
vt 0.916667 1.230000
vt 1.000000 1.230000
vt 0.000000 0.000000
vt 0.055556 0.000000
vt 0.111111 0.000000
vt 0.166667 0.000000
vt 0.222222 0.000000
vt 0.277778 0.000000
vt 0.333333 0.000000
vt 0.388889 0.000000
vt 0.444444 0.000000
vt 0.500000 0.000000
vt 0.555556 0.000000
vt 0.611111 0.000000
vt 0.666667 0.000000
vt 0.722222 0.000000
vt 0.777778 0.000000
vt 0.833333 0.000000
vt 0.888889 0.000000
vt 0.944444 0.000000
vt 1.000000 0.000000
vt 0.000000 1.200000
vt 0.055556 1.200000
vt 0.111111 1.200000
vt 0.166667 1.200000
vt 0.222222 1.200000
vt 0.277778 1.200000
vt 0.333333 1.200000
vt 0.388889 1.200000
vt 0.444444 1.200000
vt 0.500000 1.200000
vt 0.555556 1.200000
vt 0.611111 1.200000
vt 0.666667 1.200000
vt 0.722222 1.200000
vt 0.777778 1.200000
vt 0.833333 1.200000
vt 0.888889 1.200000
vt 0.944444 1.200000
vt 1.000000 1.200000
vt 0.000000 0.000000
vt 0.055556 0.000000
vt 0.111111 0.000000
vt 0.166667 0.000000
vt 0.222222 0.000000
vt 0.277778 0.000000
vt 0.333333 0.000000
vt 0.388889 0.000000
vt 0.444444 0.000000
vt 0.500000 0.000000
vt 0.555556 0.000000
vt 0.611111 0.000000
vt 0.666667 0.000000
vt 0.722222 0.000000
vt 0.777778 0.000000
vt 0.833333 0.000000
vt 0.888889 0.000000
vt 0.944444 0.000000
vt 1.000000 0.000000
vt 0.000000 0.700000
vt 0.055556 0.700000
vt 0.111111 0.700000
vt 0.166667 0.700000
vt 0.222222 0.700000
vt 0.277778 0.700000
vt 0.333333 0.700000
vt 0.388889 0.700000
vt 0.444444 0.700000
vt 0.500000 0.700000
vt 0.555556 0.700000
vt 0.611111 0.700000
vt 0.666667 0.700000
vt 0.722222 0.700000
vt 0.777778 0.700000
vt 0.833333 0.700000
vt 0.888889 0.700000
vt 0.944444 0.700000
vt 1.000000 0.700000
vt 0.000000 0.000000
vt 0.200000 0.000000
vt 0.400000 0.000000
vt 0.600000 0.000000
vt 0.800000 0.000000
vt 1.000000 0.000000
vt 0.000000 0.303789
vt 0.200000 0.303789
vt 0.400000 0.303789
vt 0.600000 0.303789
vt 0.800000 0.303789
vt 1.000000 0.303789
vt 0.000000 0.607578
vt 0.200000 0.607578
vt 0.400000 0.607578
vt 0.600000 0.607578
vt 0.800000 0.607578
vt 1.000000 0.607578
vt 0.000000 0.911368
vt 0.200000 0.911368
vt 0.400000 0.911368
vt 0.600000 0.911368
vt 0.800000 0.911368
vt 1.000000 0.911368
vt 0.000000 1.215157
vt 0.200000 1.215157
vt 0.400000 1.215157
vt 0.600000 1.215157
vt 0.800000 1.215157
vt 1.000000 1.215157
vt 0.000000 1.518946
vt 0.200000 1.518946
vt 0.400000 1.518946
vt 0.600000 1.518946
vt 0.800000 1.518946
vt 1.000000 1.518946
vt 0.000000 1.822735
vt 0.200000 1.822735
vt 0.400000 1.822735
vt 0.600000 1.822735
vt 0.800000 1.822735
vt 1.000000 1.822735
vt 0.000000 2.126524
vt 0.200000 2.126524
vt 0.400000 2.126524
vt 0.600000 2.126524
vt 0.800000 2.126524
vt 1.000000 2.126524
vt 0.000000 2.430313
vt 0.200000 2.430313
vt 0.400000 2.430313
vt 0.600000 2.430313
vt 0.800000 2.430313
vt 1.000000 2.430313
vt 0.000000 2.734103
vt 0.200000 2.734103
vt 0.400000 2.734103
vt 0.600000 2.734103
vt 0.800000 2.734103
vt 1.000000 2.734103
vt 0.000000 3.037892
vt 0.200000 3.037892
vt 0.400000 3.037892
vt 0.600000 3.037892
vt 0.800000 3.037892
vt 1.000000 3.037892
vt 0.000000 3.341681
vt 0.200000 3.341681
vt 0.400000 3.341681
vt 0.600000 3.341681
vt 0.800000 3.341681
vt 1.000000 3.341681
vt 0.000000 3.645470
vt 0.200000 3.645470
vt 0.400000 3.645470
vt 0.600000 3.645470
vt 0.800000 3.645470
vt 1.000000 3.645470
vt 0.000000 3.949259
vt 0.200000 3.949259
vt 0.400000 3.949259
vt 0.600000 3.949259
vt 0.800000 3.949259
vt 1.000000 3.949259
vt 0.000000 4.253048
vt 0.200000 4.253048
vt 0.400000 4.253048
vt 0.600000 4.253048
vt 0.800000 4.253048
vt 1.000000 4.253048
vt 0.000000 4.556838
vt 0.200000 4.556838
vt 0.400000 4.556838
vt 0.600000 4.556838
vt 0.800000 4.556838
vt 1.000000 4.556838
vt 0.000000 4.860627
vt 0.200000 4.860627
vt 0.400000 4.860627
vt 0.600000 4.860627
vt 0.800000 4.860627
vt 1.000000 4.860627
vt 0.000000 5.164416
vt 0.200000 5.164416
vt 0.400000 5.164416
vt 0.600000 5.164416
vt 0.800000 5.164416
vt 1.000000 5.164416
vt 0.000000 5.468205
vt 0.200000 5.468205
vt 0.400000 5.468205
vt 0.600000 5.468205
vt 0.800000 5.468205
vt 1.000000 5.468205
vt 0.000000 5.771994
vt 0.200000 5.771994
vt 0.400000 5.771994
vt 0.600000 5.771994
vt 0.800000 5.771994
vt 1.000000 5.771994
vt 0.000000 6.075784
vt 0.200000 6.075784
vt 0.400000 6.075784
vt 0.600000 6.075784
vt 0.800000 6.075784
vt 1.000000 6.075784
vt 0.000000 6.379573
vt 0.200000 6.379573
vt 0.400000 6.379573
vt 0.600000 6.379573
vt 0.800000 6.379573
vt 1.000000 6.379573
vt 0.000000 6.683362
vt 0.200000 6.683362
vt 0.400000 6.683362
vt 0.600000 6.683362
vt 0.800000 6.683362
vt 1.000000 6.683362
vt 0.000000 6.987151
vt 0.200000 6.987151
vt 0.400000 6.987151
vt 0.600000 6.987151
vt 0.800000 6.987151
vt 1.000000 6.987151
vt 0.000000 7.290940
vt 0.200000 7.290940
vt 0.400000 7.290940
vt 0.600000 7.290940
vt 0.800000 7.290940
vt 1.000000 7.290940
vt 0.000000 7.594729
vt 0.200000 7.594729
vt 0.400000 7.594729
vt 0.600000 7.594729
vt 0.800000 7.594729
vt 1.000000 7.594729
vt 0.000000 7.898519
vt 0.200000 7.898519
vt 0.400000 7.898519
vt 0.600000 7.898519
vt 0.800000 7.898519
vt 1.000000 7.898519
vt 0.000000 8.202308
vt 0.200000 8.202308
vt 0.400000 8.202308
vt 0.600000 8.202308
vt 0.800000 8.202308
vt 1.000000 8.202308
vt 0.000000 8.506097
vt 0.200000 8.506097
vt 0.400000 8.506097
vt 0.600000 8.506097
vt 0.800000 8.506097
vt 1.000000 8.506097
vt 0.000000 8.809886
vt 0.200000 8.809886
vt 0.400000 8.809886
vt 0.600000 8.809886
vt 0.800000 8.809886
vt 1.000000 8.809886
vt 0.000000 9.113675
vt 0.200000 9.113675
vt 0.400000 9.113675
vt 0.600000 9.113675
vt 0.800000 9.113675
vt 1.000000 9.113675
vt 0.000000 9.417465
vt 0.200000 9.417465
vt 0.400000 9.417465
vt 0.600000 9.417465
vt 0.800000 9.417465
vt 1.000000 9.417465
vt 0.000000 9.721254
vt 0.200000 9.721254
vt 0.400000 9.721254
vt 0.600000 9.721254
vt 0.800000 9.721254
vt 1.000000 9.721254
vt 0.000000 10.025043
vt 0.200000 10.025043
vt 0.400000 10.025043
vt 0.600000 10.025043
vt 0.800000 10.025043
vt 1.000000 10.025043
vt 0.000000 10.328832
vt 0.200000 10.328832
vt 0.400000 10.328832
vt 0.600000 10.328832
vt 0.800000 10.328832
vt 1.000000 10.328832
vt 0.000000 10.632621
vt 0.200000 10.632621
vt 0.400000 10.632621
vt 0.600000 10.632621
vt 0.800000 10.632621
vt 1.000000 10.632621
vt 0.000000 10.936410
vt 0.200000 10.936410
vt 0.400000 10.936410
vt 0.600000 10.936410
vt 0.800000 10.936410
vt 1.000000 10.936410
vt 0.000000 11.240200
vt 0.200000 11.240200
vt 0.400000 11.240200
vt 0.600000 11.240200
vt 0.800000 11.240200
vt 1.000000 11.240200
vt 0.000000 11.543989
vt 0.200000 11.543989
vt 0.400000 11.543989
vt 0.600000 11.543989
vt 0.800000 11.543989
vt 1.000000 11.543989
vt 0.000000 11.847778
vt 0.200000 11.847778
vt 0.400000 11.847778
vt 0.600000 11.847778
vt 0.800000 11.847778
vt 1.000000 11.847778
vt 0.000000 12.151567
vt 0.200000 12.151567
vt 0.400000 12.151567
vt 0.600000 12.151567
vt 0.800000 12.151567
vt 1.000000 12.151567
vt 0.000000 12.455356
vt 0.200000 12.455356
vt 0.400000 12.455356
vt 0.600000 12.455356
vt 0.800000 12.455356
vt 1.000000 12.455356
vt 0.000000 12.759145
vt 0.200000 12.759145
vt 0.400000 12.759145
vt 0.600000 12.759145
vt 0.800000 12.759145
vt 1.000000 12.759145
vt 0.000000 13.062935
vt 0.200000 13.062935
vt 0.400000 13.062935
vt 0.600000 13.062935
vt 0.800000 13.062935
vt 1.000000 13.062935
vt 0.000000 13.366724
vt 0.200000 13.366724
vt 0.400000 13.366724
vt 0.600000 13.366724
vt 0.800000 13.366724
vt 1.000000 13.366724
vt 0.000000 13.670513
vt 0.200000 13.670513
vt 0.400000 13.670513
vt 0.600000 13.670513
vt 0.800000 13.670513
vt 1.000000 13.670513
vt 0.000000 13.974302
vt 0.200000 13.974302
vt 0.400000 13.974302
vt 0.600000 13.974302
vt 0.800000 13.974302
vt 1.000000 13.974302
vt 0.000000 14.278091
vt 0.200000 14.278091
vt 0.400000 14.278091
vt 0.600000 14.278091
vt 0.800000 14.278091
vt 1.000000 14.278091
vt 0.000000 14.581881
vt 0.200000 14.581881
vt 0.400000 14.581881
vt 0.600000 14.581881
vt 0.800000 14.581881
vt 1.000000 14.581881
vt 0.000000 14.885670
vt 0.200000 14.885670
vt 0.400000 14.885670
vt 0.600000 14.885670
vt 0.800000 14.885670
vt 1.000000 14.885670
vt 0.000000 15.189459
vt 0.200000 15.189459
vt 0.400000 15.189459
vt 0.600000 15.189459
vt 0.800000 15.189459
vt 1.000000 15.189459
vt 0.000000 15.493248
vt 0.200000 15.493248
vt 0.400000 15.493248
vt 0.600000 15.493248
vt 0.800000 15.493248
vt 1.000000 15.493248
vt 0.000000 15.797037
vt 0.200000 15.797037
vt 0.400000 15.797037
vt 0.600000 15.797037
vt 0.800000 15.797037
vt 1.000000 15.797037
vt 0.000000 16.100826
vt 0.200000 16.100826
vt 0.400000 16.100826
vt 0.600000 16.100826
vt 0.800000 16.100826
vt 1.000000 16.100826
vt 0.000000 16.404616
vt 0.200000 16.404616
vt 0.400000 16.404616
vt 0.600000 16.404616
vt 0.800000 16.404616
vt 1.000000 16.404616
vt 0.000000 16.708405
vt 0.200000 16.708405
vt 0.400000 16.708405
vt 0.600000 16.708405
vt 0.800000 16.708405
vt 1.000000 16.708405
vt 0.000000 17.012194
vt 0.200000 17.012194
vt 0.400000 17.012194
vt 0.600000 17.012194
vt 0.800000 17.012194
vt 1.000000 17.012194
vt 0.000000 17.315983
vt 0.200000 17.315983
vt 0.400000 17.315983
vt 0.600000 17.315983
vt 0.800000 17.315983
vt 1.000000 17.315983
vt 0.000000 17.619772
vt 0.200000 17.619772
vt 0.400000 17.619772
vt 0.600000 17.619772
vt 0.800000 17.619772
vt 1.000000 17.619772
vt 0.000000 17.923561
vt 0.200000 17.923561
vt 0.400000 17.923561
vt 0.600000 17.923561
vt 0.800000 17.923561
vt 1.000000 17.923561
vt 0.000000 18.227351
vt 0.200000 18.227351
vt 0.400000 18.227351
vt 0.600000 18.227351
vt 0.800000 18.227351
vt 1.000000 18.227351
vt 0.000000 18.531140
vt 0.200000 18.531140
vt 0.400000 18.531140
vt 0.600000 18.531140
vt 0.800000 18.531140
vt 1.000000 18.531140
vt 0.000000 18.834929
vt 0.200000 18.834929
vt 0.400000 18.834929
vt 0.600000 18.834929
vt 0.800000 18.834929
vt 1.000000 18.834929
vt 0.000000 19.138718
vt 0.200000 19.138718
vt 0.400000 19.138718
vt 0.600000 19.138718
vt 0.800000 19.138718
vt 1.000000 19.138718
vt 0.000000 19.442507
vt 0.200000 19.442507
vt 0.400000 19.442507
vt 0.600000 19.442507
vt 0.800000 19.442507
vt 1.000000 19.442507
vt 0.000000 19.746297
vt 0.200000 19.746297
vt 0.400000 19.746297
vt 0.600000 19.746297
vt 0.800000 19.746297
vt 1.000000 19.746297
vt 0.000000 20.050086
vt 0.200000 20.050086
vt 0.400000 20.050086
vt 0.600000 20.050086
vt 0.800000 20.050086
vt 1.000000 20.050086
vt 0.000000 20.353875
vt 0.200000 20.353875
vt 0.400000 20.353875
vt 0.600000 20.353875
vt 0.800000 20.353875
vt 1.000000 20.353875
vt 0.000000 20.657664
vt 0.200000 20.657664
vt 0.400000 20.657664
vt 0.600000 20.657664
vt 0.800000 20.657664
vt 1.000000 20.657664
vt 0.000000 20.961453
vt 0.200000 20.961453
vt 0.400000 20.961453
vt 0.600000 20.961453
vt 0.800000 20.961453
vt 1.000000 20.961453
vt 0.000000 21.265242
vt 0.200000 21.265242
vt 0.400000 21.265242
vt 0.600000 21.265242
vt 0.800000 21.265242
vt 1.000000 21.265242
vt 0.000000 21.569032
vt 0.200000 21.569032
vt 0.400000 21.569032
vt 0.600000 21.569032
vt 0.800000 21.569032
vt 1.000000 21.569032
vt 0.000000 21.872821
vt 0.200000 21.872821
vt 0.400000 21.872821
vt 0.600000 21.872821
vt 0.800000 21.872821
vt 1.000000 21.872821
vt 0.000000 22.176610
vt 0.200000 22.176610
vt 0.400000 22.176610
vt 0.600000 22.176610
vt 0.800000 22.176610
vt 1.000000 22.176610
vt 0.000000 22.480399
vt 0.200000 22.480399
vt 0.400000 22.480399
vt 0.600000 22.480399
vt 0.800000 22.480399
vt 1.000000 22.480399
vt 0.000000 22.784188
vt 0.200000 22.784188
vt 0.400000 22.784188
vt 0.600000 22.784188
vt 0.800000 22.784188
vt 1.000000 22.784188
vt 0.000000 23.087977
vt 0.200000 23.087977
vt 0.400000 23.087977
vt 0.600000 23.087977
vt 0.800000 23.087977
vt 1.000000 23.087977
vt 0.000000 23.391767
vt 0.200000 23.391767
vt 0.400000 23.391767
vt 0.600000 23.391767
vt 0.800000 23.391767
vt 1.000000 23.391767
vt 0.000000 23.695556
vt 0.200000 23.695556
vt 0.400000 23.695556
vt 0.600000 23.695556
vt 0.800000 23.695556
vt 1.000000 23.695556
vt 0.000000 23.999345
vt 0.200000 23.999345
vt 0.400000 23.999345
vt 0.600000 23.999345
vt 0.800000 23.999345
vt 1.000000 23.999345
vt 0.000000 24.303134
vt 0.200000 24.303134
vt 0.400000 24.303134
vt 0.600000 24.303134
vt 0.800000 24.303134
vt 1.000000 24.303134
vt 0.000000 24.606923
vt 0.200000 24.606923
vt 0.400000 24.606923
vt 0.600000 24.606923
vt 0.800000 24.606923
vt 1.000000 24.606923
vt 0.000000 24.910713
vt 0.200000 24.910713
vt 0.400000 24.910713
vt 0.600000 24.910713
vt 0.800000 24.910713
vt 1.000000 24.910713
vt 0.000000 25.214502
vt 0.200000 25.214502
vt 0.400000 25.214502
vt 0.600000 25.214502
vt 0.800000 25.214502
vt 1.000000 25.214502
vt 0.000000 25.518291
vt 0.200000 25.518291
vt 0.400000 25.518291
vt 0.600000 25.518291
vt 0.800000 25.518291
vt 1.000000 25.518291
vt 0.000000 25.822080
vt 0.200000 25.822080
vt 0.400000 25.822080
vt 0.600000 25.822080
vt 0.800000 25.822080
vt 1.000000 25.822080
vt 0.000000 26.125869
vt 0.200000 26.125869
vt 0.400000 26.125869
vt 0.600000 26.125869
vt 0.800000 26.125869
vt 1.000000 26.125869
vt 0.000000 26.429658
vt 0.200000 26.429658
vt 0.400000 26.429658
vt 0.600000 26.429658
vt 0.800000 26.429658
vt 1.000000 26.429658
vt 0.000000 26.733448
vt 0.200000 26.733448
vt 0.400000 26.733448
vt 0.600000 26.733448
vt 0.800000 26.733448
vt 1.000000 26.733448
vt 0.000000 27.037237
vt 0.200000 27.037237
vt 0.400000 27.037237
vt 0.600000 27.037237
vt 0.800000 27.037237
vt 1.000000 27.037237
vt 0.000000 27.341026
vt 0.200000 27.341026
vt 0.400000 27.341026
vt 0.600000 27.341026
vt 0.800000 27.341026
vt 1.000000 27.341026
vt 0.000000 27.644815
vt 0.200000 27.644815
vt 0.400000 27.644815
vt 0.600000 27.644815
vt 0.800000 27.644815
vt 1.000000 27.644815
vt 0.000000 27.948604
vt 0.200000 27.948604
vt 0.400000 27.948604
vt 0.600000 27.948604
vt 0.800000 27.948604
vt 1.000000 27.948604
vt 0.000000 28.252394
vt 0.200000 28.252394
vt 0.400000 28.252394
vt 0.600000 28.252394
vt 0.800000 28.252394
vt 1.000000 28.252394
vt 0.000000 28.556183
vt 0.200000 28.556183
vt 0.400000 28.556183
vt 0.600000 28.556183
vt 0.800000 28.556183
vt 1.000000 28.556183
vt 0.000000 28.859972
vt 0.200000 28.859972
vt 0.400000 28.859972
vt 0.600000 28.859972
vt 0.800000 28.859972
vt 1.000000 28.859972
vt 0.000000 29.163761
vt 0.200000 29.163761
vt 0.400000 29.163761
vt 0.600000 29.163761
vt 0.800000 29.163761
vt 1.000000 29.163761
vt 0.000000 29.467550
vt 0.200000 29.467550
vt 0.400000 29.467550
vt 0.600000 29.467550
vt 0.800000 29.467550
vt 1.000000 29.467550
vt 0.000000 29.771339
vt 0.200000 29.771339
vt 0.400000 29.771339
vt 0.600000 29.771339
vt 0.800000 29.771339
vt 1.000000 29.771339
f 14/14 15/15 2/2 1/1
f 15/15 16/16 3/3 2/2
f 16/16 17/17 4/4 3/3
f 17/17 18/18 5/5 4/4
f 18/18 19/19 6/6 5/5
f 19/19 20/20 7/7 6/6
f 20/20 21/21 8/8 7/7
f 21/21 22/22 9/9 8/8
f 22/22 23/23 10/10 9/9
f 23/23 24/24 11/11 10/10
f 24/24 25/25 12/12 11/11
f 25/25 26/26 13/13 12/12
f 27/27 28/28 15/15 14/14
f 28/28 29/29 16/16 15/15
f 29/29 30/30 17/17 16/16
f 30/30 31/31 18/18 17/17
f 31/31 32/32 19/19 18/18
f 32/32 33/33 20/20 19/19
f 33/33 34/34 21/21 20/20
f 34/34 35/35 22/22 21/21
f 35/35 36/36 23/23 22/22
f 36/36 37/37 24/24 23/23
f 37/37 38/38 25/25 24/24
f 38/38 39/39 26/26 25/25
f 40/40 41/41 28/28 27/27
f 41/41 42/42 29/29 28/28
f 42/42 43/43 30/30 29/29
f 43/43 44/44 31/31 30/30
f 44/44 45/45 32/32 31/31
f 45/45 46/46 33/33 32/32
f 46/46 47/47 34/34 33/33
f 47/47 48/48 35/35 34/34
f 48/48 49/49 36/36 35/35
f 49/49 50/50 37/37 36/36
f 50/50 51/51 38/38 37/37
f 51/51 52/52 39/39 38/38
f 53/53 54/54 41/41 40/40
f 54/54 55/55 42/42 41/41
f 55/55 56/56 43/43 42/42
f 56/56 57/57 44/44 43/43
f 57/57 58/58 45/45 44/44
f 58/58 59/59 46/46 45/45
f 59/59 60/60 47/47 46/46
f 60/60 61/61 48/48 47/47
f 61/61 62/62 49/49 48/48
f 62/62 63/63 50/50 49/49
f 63/63 64/64 51/51 50/50
f 64/64 65/65 52/52 51/51
f 66/66 67/67 54/54 53/53
f 67/67 68/68 55/55 54/54
f 68/68 69/69 56/56 55/55
f 69/69 70/70 57/57 56/56
f 70/70 71/71 58/58 57/57
f 71/71 72/72 59/59 58/58
f 72/72 73/73 60/60 59/59
f 73/73 74/74 61/61 60/60
f 74/74 75/75 62/62 61/61
f 75/75 76/76 63/63 62/62
f 76/76 77/77 64/64 63/63
f 77/77 78/78 65/65 64/64
f 79/79 80/80 67/67 66/66
f 80/80 81/81 68/68 67/67
f 81/81 82/82 69/69 68/68
f 82/82 83/83 70/70 69/69
f 83/83 84/84 71/71 70/70
f 84/84 85/85 72/72 71/71
f 85/85 86/86 73/73 72/72
f 86/86 87/87 74/74 73/73
f 87/87 88/88 75/75 74/74
f 88/88 89/89 76/76 75/75
f 89/89 90/90 77/77 76/76
f 90/90 91/91 78/78 77/77
f 92/92 93/93 80/80 79/79
f 93/93 94/94 81/81 80/80
f 94/94 95/95 82/82 81/81
f 95/95 96/96 83/83 82/82
f 96/96 97/97 84/84 83/83
f 97/97 98/98 85/85 84/84
f 98/98 99/99 86/86 85/85
f 99/99 100/100 87/87 86/86
f 100/100 101/101 88/88 87/87
f 101/101 102/102 89/89 88/88
f 102/102 103/103 90/90 89/89
f 103/103 104/104 91/91 90/90
f 105/105 106/106 93/93 92/92
f 106/106 107/107 94/94 93/93
f 107/107 108/108 95/95 94/94
f 108/108 109/109 96/96 95/95
f 109/109 110/110 97/97 96/96
f 110/110 111/111 98/98 97/97
f 111/111 112/112 99/99 98/98
f 112/112 113/113 100/100 99/99
f 113/113 114/114 101/101 100/100
f 114/114 115/115 102/102 101/101
f 115/115 116/116 103/103 102/102
f 116/116 117/117 104/104 103/103
f 118/118 119/119 106/106 105/105
f 119/119 120/120 107/107 106/106
f 120/120 121/121 108/108 107/107
f 121/121 122/122 109/109 108/108
f 122/122 123/123 110/110 109/109
f 123/123 124/124 111/111 110/110
f 124/124 125/125 112/112 111/111
f 125/125 126/126 113/113 112/112
f 126/126 127/127 114/114 113/113
f 127/127 128/128 115/115 114/114
f 128/128 129/129 116/116 115/115
f 129/129 130/130 117/117 116/116
f 1/1 2/2 3/3 4/4 5/5 6/6 7/7 8/8 9/9 10/10 11/11 12/12
f 129/129 128/128 127/127 126/126 125/125 124/124 123/123 122/122 121/121 120/120 119/119 118/118
f 144/144 145/145 132/132 131/131
f 145/145 146/146 133/133 132/132
f 146/146 147/147 134/134 133/133
f 147/147 148/148 135/135 134/134
f 148/148 149/149 136/136 135/135
f 149/149 150/150 137/137 136/136
f 150/150 151/151 138/138 137/137
f 151/151 152/152 139/139 138/138
f 152/152 153/153 140/140 139/139
f 153/153 154/154 141/141 140/140
f 154/154 155/155 142/142 141/141
f 155/155 156/156 143/143 142/142
f 131/131 132/132 133/133 134/134 135/135 136/136 137/137 138/138 139/139 140/140 141/141 142/142
f 155/155 154/154 153/153 152/152 151/151 150/150 149/149 148/148 147/147 146/146 145/145 144/144
f 170/170 171/171 158/158 157/157
f 171/171 172/172 159/159 158/158
f 172/172 173/173 160/160 159/159
f 173/173 174/174 161/161 160/160
f 174/174 175/175 162/162 161/161
f 175/175 176/176 163/163 162/162
f 176/176 177/177 164/164 163/163
f 177/177 178/178 165/165 164/164
f 178/178 179/179 166/166 165/165
f 179/179 180/180 167/167 166/166
f 180/180 181/181 168/168 167/167
f 181/181 182/182 169/169 168/168
f 157/157 158/158 159/159 160/160 161/161 162/162 163/163 164/164 165/165 166/166 167/167 168/168
f 181/181 180/180 179/179 178/178 177/177 176/176 175/175 174/174 173/173 172/172 171/171 170/170
f 202/202 203/203 184/184 183/183
f 203/203 204/204 185/185 184/184
f 204/204 205/205 186/186 185/185
f 205/205 206/206 187/187 186/186
f 206/206 207/207 188/188 187/187
f 207/207 208/208 189/189 188/188
f 208/208 209/209 190/190 189/189
f 209/209 210/210 191/191 190/190
f 210/210 211/211 192/192 191/191
f 211/211 212/212 193/193 192/192
f 212/212 213/213 194/194 193/193
f 213/213 214/214 195/195 194/194
f 214/214 215/215 196/196 195/195
f 215/215 216/216 197/197 196/196
f 216/216 217/217 198/198 197/197
f 217/217 218/218 199/199 198/198
f 218/218 219/219 200/200 199/199
f 219/219 220/220 201/201 200/200
f 183/183 184/184 185/185 186/186 187/187 188/188 189/189 190/190 191/191 192/192 193/193 194/194 195/195 196/196 197/197 198/198 199/199 200/200
f 219/219 218/218 217/217 216/216 215/215 214/214 213/213 212/212 211/211 210/210 209/209 208/208 207/207 206/206 205/205 204/204 203/203 202/202
f 240/240 241/241 222/222 221/221
f 241/241 242/242 223/223 222/222
f 242/242 243/243 224/224 223/223
f 243/243 244/244 225/225 224/224
f 244/244 245/245 226/226 225/225
f 245/245 246/246 227/227 226/226
f 246/246 247/247 228/228 227/227
f 247/247 248/248 229/229 228/228
f 248/248 249/249 230/230 229/229
f 249/249 250/250 231/231 230/230
f 250/250 251/251 232/232 231/231
f 251/251 252/252 233/233 232/232
f 252/252 253/253 234/234 233/233
f 253/253 254/254 235/235 234/234
f 254/254 255/255 236/236 235/235
f 255/255 256/256 237/237 236/236
f 256/256 257/257 238/238 237/237
f 257/257 258/258 239/239 238/238
f 221/221 222/222 223/223 224/224 225/225 226/226 227/227 228/228 229/229 230/230 231/231 232/232 233/233 234/234 235/235 236/236 237/237 238/238
f 257/257 256/256 255/255 254/254 253/253 252/252 251/251 250/250 249/249 248/248 247/247 246/246 245/245 244/244 243/243 242/242 241/241 240/240
f 265/265 266/266 260/260 259/259
f 266/266 267/267 261/261 260/260
f 267/267 268/268 262/262 261/261
f 268/268 269/269 263/263 262/262
f 269/269 270/270 264/264 263/263
f 271/271 272/272 266/266 265/265
f 272/272 273/273 267/267 266/266
f 273/273 274/274 268/268 267/267
f 274/274 275/275 269/269 268/268
f 275/275 276/276 270/270 269/269
f 277/277 278/278 272/272 271/271
f 278/278 279/279 273/273 272/272
f 279/279 280/280 274/274 273/273
f 280/280 281/281 275/275 274/274
f 281/281 282/282 276/276 275/275
f 283/283 284/284 278/278 277/277
f 284/284 285/285 279/279 278/278
f 285/285 286/286 280/280 279/279
f 286/286 287/287 281/281 280/280
f 287/287 288/288 282/282 281/281
f 289/289 290/290 284/284 283/283
f 290/290 291/291 285/285 284/284
f 291/291 292/292 286/286 285/285
f 292/292 293/293 287/287 286/286
f 293/293 294/294 288/288 287/287
f 295/295 296/296 290/290 289/289
f 296/296 297/297 291/291 290/290
f 297/297 298/298 292/292 291/291
f 298/298 299/299 293/293 292/292
f 299/299 300/300 294/294 293/293
f 301/301 302/302 296/296 295/295
f 302/302 303/303 297/297 296/296
f 303/303 304/304 298/298 297/297
f 304/304 305/305 299/299 298/298
f 305/305 306/306 300/300 299/299
f 307/307 308/308 302/302 301/301
f 308/308 309/309 303/303 302/302
f 309/309 310/310 304/304 303/303
f 310/310 311/311 305/305 304/304
f 311/311 312/312 306/306 305/305
f 313/313 314/314 308/308 307/307
f 314/314 315/315 309/309 308/308
f 315/315 316/316 310/310 309/309
f 316/316 317/317 311/311 310/310
f 317/317 318/318 312/312 311/311
f 319/319 320/320 314/314 313/313
f 320/320 321/321 315/315 314/314
f 321/321 322/322 316/316 315/315
f 322/322 323/323 317/317 316/316
f 323/323 324/324 318/318 317/317
f 325/325 326/326 320/320 319/319
f 326/326 327/327 321/321 320/320
f 327/327 328/328 322/322 321/321
f 328/328 329/329 323/323 322/322
f 329/329 330/330 324/324 323/323
f 331/331 332/332 326/326 325/325
f 332/332 333/333 327/327 326/326
f 333/333 334/334 328/328 327/327
f 334/334 335/335 329/329 328/328
f 335/335 336/336 330/330 329/329
f 337/337 338/338 332/332 331/331
f 338/338 339/339 333/333 332/332
f 339/339 340/340 334/334 333/333
f 340/340 341/341 335/335 334/334
f 341/341 342/342 336/336 335/335
f 343/343 344/344 338/338 337/337
f 344/344 345/345 339/339 338/338
f 345/345 346/346 340/340 339/339
f 346/346 347/347 341/341 340/340
f 347/347 348/348 342/342 341/341
f 349/349 350/350 344/344 343/343
f 350/350 351/351 345/345 344/344
f 351/351 352/352 346/346 345/345
f 352/352 353/353 347/347 346/346
f 353/353 354/354 348/348 347/347
f 355/355 356/356 350/350 349/349
f 356/356 357/357 351/351 350/350
f 357/357 358/358 352/352 351/351
f 358/358 359/359 353/353 352/352
f 359/359 360/360 354/354 353/353
f 361/361 362/362 356/356 355/355
f 362/362 363/363 357/357 356/356
f 363/363 364/364 358/358 357/357
f 364/364 365/365 359/359 358/358
f 365/365 366/366 360/360 359/359
f 367/367 368/368 362/362 361/361
f 368/368 369/369 363/363 362/362
f 369/369 370/370 364/364 363/363
f 370/370 371/371 365/365 364/364
f 371/371 372/372 366/366 365/365
f 373/373 374/374 368/368 367/367
f 374/374 375/375 369/369 368/368
f 375/375 376/376 370/370 369/369
f 376/376 377/377 371/371 370/370
f 377/377 378/378 372/372 371/371
f 379/379 380/380 374/374 373/373
f 380/380 381/381 375/375 374/374
f 381/381 382/382 376/376 375/375
f 382/382 383/383 377/377 376/376
f 383/383 384/384 378/378 377/377
f 385/385 386/386 380/380 379/379
f 386/386 387/387 381/381 380/380
f 387/387 388/388 382/382 381/381
f 388/388 389/389 383/383 382/382
f 389/389 390/390 384/384 383/383
f 391/391 392/392 386/386 385/385
f 392/392 393/393 387/387 386/386
f 393/393 394/394 388/388 387/387
f 394/394 395/395 389/389 388/388
f 395/395 396/396 390/390 389/389
f 397/397 398/398 392/392 391/391
f 398/398 399/399 393/393 392/392
f 399/399 400/400 394/394 393/393
f 400/400 401/401 395/395 394/394
f 401/401 402/402 396/396 395/395
f 403/403 404/404 398/398 397/397
f 404/404 405/405 399/399 398/398
f 405/405 406/406 400/400 399/399
f 406/406 407/407 401/401 400/400
f 407/407 408/408 402/402 401/401
f 409/409 410/410 404/404 403/403
f 410/410 411/411 405/405 404/404
f 411/411 412/412 406/406 405/405
f 412/412 413/413 407/407 406/406
f 413/413 414/414 408/408 407/407
f 415/415 416/416 410/410 409/409
f 416/416 417/417 411/411 410/410
f 417/417 418/418 412/412 411/411
f 418/418 419/419 413/413 412/412
f 419/419 420/420 414/414 413/413
f 421/421 422/422 416/416 415/415
f 422/422 423/423 417/417 416/416
f 423/423 424/424 418/418 417/417
f 424/424 425/425 419/419 418/418
f 425/425 426/426 420/420 419/419
f 427/427 428/428 422/422 421/421
f 428/428 429/429 423/423 422/422
f 429/429 430/430 424/424 423/423
f 430/430 431/431 425/425 424/424
f 431/431 432/432 426/426 425/425
f 433/433 434/434 428/428 427/427
f 434/434 435/435 429/429 428/428
f 435/435 436/436 430/430 429/429
f 436/436 437/437 431/431 430/430
f 437/437 438/438 432/432 431/431
f 439/439 440/440 434/434 433/433
f 440/440 441/441 435/435 434/434
f 441/441 442/442 436/436 435/435
f 442/442 443/443 437/437 436/436
f 443/443 444/444 438/438 437/437
f 445/445 446/446 440/440 439/439
f 446/446 447/447 441/441 440/440
f 447/447 448/448 442/442 441/441
f 448/448 449/449 443/443 442/442
f 449/449 450/450 444/444 443/443
f 451/451 452/452 446/446 445/445
f 452/452 453/453 447/447 446/446
f 453/453 454/454 448/448 447/447
f 454/454 455/455 449/449 448/448
f 455/455 456/456 450/450 449/449
f 457/457 458/458 452/452 451/451
f 458/458 459/459 453/453 452/452
f 459/459 460/460 454/454 453/453
f 460/460 461/461 455/455 454/454
f 461/461 462/462 456/456 455/455
f 463/463 464/464 458/458 457/457
f 464/464 465/465 459/459 458/458
f 465/465 466/466 460/460 459/459
f 466/466 467/467 461/461 460/460
f 467/467 468/468 462/462 461/461
f 469/469 470/470 464/464 463/463
f 470/470 471/471 465/465 464/464
f 471/471 472/472 466/466 465/465
f 472/472 473/473 467/467 466/466
f 473/473 474/474 468/468 467/467
f 475/475 476/476 470/470 469/469
f 476/476 477/477 471/471 470/470
f 477/477 478/478 472/472 471/471
f 478/478 479/479 473/473 472/472
f 479/479 480/480 474/474 473/473
f 481/481 482/482 476/476 475/475
f 482/482 483/483 477/477 476/476
f 483/483 484/484 478/478 477/477
f 484/484 485/485 479/479 478/478
f 485/485 486/486 480/480 479/479
f 487/487 488/488 482/482 481/481
f 488/488 489/489 483/483 482/482
f 489/489 490/490 484/484 483/483
f 490/490 491/491 485/485 484/484
f 491/491 492/492 486/486 485/485
f 493/493 494/494 488/488 487/487
f 494/494 495/495 489/489 488/488
f 495/495 496/496 490/490 489/489
f 496/496 497/497 491/491 490/490
f 497/497 498/498 492/492 491/491
f 499/499 500/500 494/494 493/493
f 500/500 501/501 495/495 494/494
f 501/501 502/502 496/496 495/495
f 502/502 503/503 497/497 496/496
f 503/503 504/504 498/498 497/497
f 505/505 506/506 500/500 499/499
f 506/506 507/507 501/501 500/500
f 507/507 508/508 502/502 501/501
f 508/508 509/509 503/503 502/502
f 509/509 510/510 504/504 503/503
f 511/511 512/512 506/506 505/505
f 512/512 513/513 507/507 506/506
f 513/513 514/514 508/508 507/507
f 514/514 515/515 509/509 508/508
f 515/515 516/516 510/510 509/509
f 517/517 518/518 512/512 511/511
f 518/518 519/519 513/513 512/512
f 519/519 520/520 514/514 513/513
f 520/520 521/521 515/515 514/514
f 521/521 522/522 516/516 515/515
f 523/523 524/524 518/518 517/517
f 524/524 525/525 519/519 518/518
f 525/525 526/526 520/520 519/519
f 526/526 527/527 521/521 520/520
f 527/527 528/528 522/522 521/521
f 529/529 530/530 524/524 523/523
f 530/530 531/531 525/525 524/524
f 531/531 532/532 526/526 525/525
f 532/532 533/533 527/527 526/526
f 533/533 534/534 528/528 527/527
f 535/535 536/536 530/530 529/529
f 536/536 537/537 531/531 530/530
f 537/537 538/538 532/532 531/531
f 538/538 539/539 533/533 532/532
f 539/539 540/540 534/534 533/533
f 541/541 542/542 536/536 535/535
f 542/542 543/543 537/537 536/536
f 543/543 544/544 538/538 537/537
f 544/544 545/545 539/539 538/538
f 545/545 546/546 540/540 539/539
f 547/547 548/548 542/542 541/541
f 548/548 549/549 543/543 542/542
f 549/549 550/550 544/544 543/543
f 550/550 551/551 545/545 544/544
f 551/551 552/552 546/546 545/545
f 553/553 554/554 548/548 547/547
f 554/554 555/555 549/549 548/548
f 555/555 556/556 550/550 549/549
f 556/556 557/557 551/551 550/550
f 557/557 558/558 552/552 551/551
f 559/559 560/560 554/554 553/553
f 560/560 561/561 555/555 554/554
f 561/561 562/562 556/556 555/555
f 562/562 563/563 557/557 556/556
f 563/563 564/564 558/558 557/557
f 565/565 566/566 560/560 559/559
f 566/566 567/567 561/561 560/560
f 567/567 568/568 562/562 561/561
f 568/568 569/569 563/563 562/562
f 569/569 570/570 564/564 563/563
f 571/571 572/572 566/566 565/565
f 572/572 573/573 567/567 566/566
f 573/573 574/574 568/568 567/567
f 574/574 575/575 569/569 568/568
f 575/575 576/576 570/570 569/569
f 577/577 578/578 572/572 571/571
f 578/578 579/579 573/573 572/572
f 579/579 580/580 574/574 573/573
f 580/580 581/581 575/575 574/574
f 581/581 582/582 576/576 575/575
f 583/583 584/584 578/578 577/577
f 584/584 585/585 579/579 578/578
f 585/585 586/586 580/580 579/579
f 586/586 587/587 581/581 580/580
f 587/587 588/588 582/582 581/581
f 589/589 590/590 584/584 583/583
f 590/590 591/591 585/585 584/584
f 591/591 592/592 586/586 585/585
f 592/592 593/593 587/587 586/586
f 593/593 594/594 588/588 587/587
f 595/595 596/596 590/590 589/589
f 596/596 597/597 591/591 590/590
f 597/597 598/598 592/592 591/591
f 598/598 599/599 593/593 592/592
f 599/599 600/600 594/594 593/593
f 601/601 602/602 596/596 595/595
f 602/602 603/603 597/597 596/596
f 603/603 604/604 598/598 597/597
f 604/604 605/605 599/599 598/598
f 605/605 606/606 600/600 599/599
f 607/607 608/608 602/602 601/601
f 608/608 609/609 603/603 602/602
f 609/609 610/610 604/604 603/603
f 610/610 611/611 605/605 604/604
f 611/611 612/612 606/606 605/605
f 613/613 614/614 608/608 607/607
f 614/614 615/615 609/609 608/608
f 615/615 616/616 610/610 609/609
f 616/616 617/617 611/611 610/610
f 617/617 618/618 612/612 611/611
f 619/619 620/620 614/614 613/613
f 620/620 621/621 615/615 614/614
f 621/621 622/622 616/616 615/615
f 622/622 623/623 617/617 616/616
f 623/623 624/624 618/618 617/617
f 625/625 626/626 620/620 619/619
f 626/626 627/627 621/621 620/620
f 627/627 628/628 622/622 621/621
f 628/628 629/629 623/623 622/622
f 629/629 630/630 624/624 623/623
f 631/631 632/632 626/626 625/625
f 632/632 633/633 627/627 626/626
f 633/633 634/634 628/628 627/627
f 634/634 635/635 629/629 628/628
f 635/635 636/636 630/630 629/629
f 637/637 638/638 632/632 631/631
f 638/638 639/639 633/633 632/632
f 639/639 640/640 634/634 633/633
f 640/640 641/641 635/635 634/634
f 641/641 642/642 636/636 635/635
f 643/643 644/644 638/638 637/637
f 644/644 645/645 639/639 638/638
f 645/645 646/646 640/640 639/639
f 646/646 647/647 641/641 640/640
f 647/647 648/648 642/642 641/641
f 649/649 650/650 644/644 643/643
f 650/650 651/651 645/645 644/644
f 651/651 652/652 646/646 645/645
f 652/652 653/653 647/647 646/646
f 653/653 654/654 648/648 647/647
f 655/655 656/656 650/650 649/649
f 656/656 657/657 651/651 650/650
f 657/657 658/658 652/652 651/651
f 658/658 659/659 653/653 652/652
f 659/659 660/660 654/654 653/653
f 661/661 662/662 656/656 655/655
f 662/662 663/663 657/657 656/656
f 663/663 664/664 658/658 657/657
f 664/664 665/665 659/659 658/658
f 665/665 666/666 660/660 659/659
f 667/667 668/668 662/662 661/661
f 668/668 669/669 663/663 662/662
f 669/669 670/670 664/664 663/663
f 670/670 671/671 665/665 664/664
f 671/671 672/672 666/666 665/665
f 673/673 674/674 668/668 667/667
f 674/674 675/675 669/669 668/668
f 675/675 676/676 670/670 669/669
f 676/676 677/677 671/671 670/670
f 677/677 678/678 672/672 671/671
f 679/679 680/680 674/674 673/673
f 680/680 681/681 675/675 674/674
f 681/681 682/682 676/676 675/675
f 682/682 683/683 677/677 676/676
f 683/683 684/684 678/678 677/677
f 685/685 686/686 680/680 679/679
f 686/686 687/687 681/681 680/680
f 687/687 688/688 682/682 681/681
f 688/688 689/689 683/683 682/682
f 689/689 690/690 684/684 683/683
f 691/691 692/692 686/686 685/685
f 692/692 693/693 687/687 686/686
f 693/693 694/694 688/688 687/687
f 694/694 695/695 689/689 688/688
f 695/695 696/696 690/690 689/689
f 697/697 698/698 692/692 691/691
f 698/698 699/699 693/693 692/692
f 699/699 700/700 694/694 693/693
f 700/700 701/701 695/695 694/694
f 701/701 702/702 696/696 695/695
f 703/703 704/704 698/698 697/697
f 704/704 705/705 699/699 698/698
f 705/705 706/706 700/700 699/699
f 706/706 707/707 701/701 700/700
f 707/707 708/708 702/702 701/701
f 709/709 710/710 704/704 703/703
f 710/710 711/711 705/705 704/704
f 711/711 712/712 706/706 705/705
f 712/712 713/713 707/707 706/706
f 713/713 714/714 708/708 707/707
f 715/715 716/716 710/710 709/709
f 716/716 717/717 711/711 710/710
f 717/717 718/718 712/712 711/711
f 718/718 719/719 713/713 712/712
f 719/719 720/720 714/714 713/713
f 721/721 722/722 716/716 715/715
f 722/722 723/723 717/717 716/716
f 723/723 724/724 718/718 717/717
f 724/724 725/725 719/719 718/718
f 725/725 726/726 720/720 719/719
f 727/727 728/728 722/722 721/721
f 728/728 729/729 723/723 722/722
f 729/729 730/730 724/724 723/723
f 730/730 731/731 725/725 724/724
f 731/731 732/732 726/726 725/725
f 733/733 734/734 728/728 727/727
f 734/734 735/735 729/729 728/728
f 735/735 736/736 730/730 729/729
f 736/736 737/737 731/731 730/730
f 737/737 738/738 732/732 731/731
f 739/739 740/740 734/734 733/733
f 740/740 741/741 735/735 734/734
f 741/741 742/742 736/736 735/735
f 742/742 743/743 737/737 736/736
f 743/743 744/744 738/738 737/737
f 745/745 746/746 740/740 739/739
f 746/746 747/747 741/741 740/740
f 747/747 748/748 742/742 741/741
f 748/748 749/749 743/743 742/742
f 749/749 750/750 744/744 743/743
f 751/751 752/752 746/746 745/745
f 752/752 753/753 747/747 746/746
f 753/753 754/754 748/748 747/747
f 754/754 755/755 749/749 748/748
f 755/755 756/756 750/750 749/749
f 757/757 758/758 752/752 751/751
f 758/758 759/759 753/753 752/752
f 759/759 760/760 754/754 753/753
f 760/760 761/761 755/755 754/754
f 761/761 762/762 756/756 755/755
f 763/763 764/764 758/758 757/757
f 764/764 765/765 759/759 758/758
f 765/765 766/766 760/760 759/759
f 766/766 767/767 761/761 760/760
f 767/767 768/768 762/762 761/761
f 769/769 770/770 764/764 763/763
f 770/770 771/771 765/765 764/764
f 771/771 772/772 766/766 765/765
f 772/772 773/773 767/767 766/766
f 773/773 774/774 768/768 767/767
f 775/775 776/776 770/770 769/769
f 776/776 777/777 771/771 770/770
f 777/777 778/778 772/772 771/771
f 778/778 779/779 773/773 772/772
f 779/779 780/780 774/774 773/773
f 781/781 782/782 776/776 775/775
f 782/782 783/783 777/777 776/776
f 783/783 784/784 778/778 777/777
f 784/784 785/785 779/779 778/778
f 785/785 786/786 780/780 779/779
f 787/787 788/788 782/782 781/781
f 788/788 789/789 783/783 782/782
f 789/789 790/790 784/784 783/783
f 790/790 791/791 785/785 784/784
f 791/791 792/792 786/786 785/785
f 793/793 794/794 788/788 787/787
f 794/794 795/795 789/789 788/788
f 795/795 796/796 790/790 789/789
f 796/796 797/797 791/791 790/790
f 797/797 798/798 792/792 791/791
f 799/799 800/800 794/794 793/793
f 800/800 801/801 795/795 794/794
f 801/801 802/802 796/796 795/795
f 802/802 803/803 797/797 796/796
f 803/803 804/804 798/798 797/797
f 805/805 806/806 800/800 799/799
f 806/806 807/807 801/801 800/800
f 807/807 808/808 802/802 801/801
f 808/808 809/809 803/803 802/802
f 809/809 810/810 804/804 803/803
f 811/811 812/812 806/806 805/805
f 812/812 813/813 807/807 806/806
f 813/813 814/814 808/808 807/807
f 814/814 815/815 809/809 808/808
f 815/815 816/816 810/810 809/809
f 817/817 818/818 812/812 811/811
f 818/818 819/819 813/813 812/812
f 819/819 820/820 814/814 813/813
f 820/820 821/821 815/815 814/814
f 821/821 822/822 816/816 815/815
f 823/823 824/824 818/818 817/817
f 824/824 825/825 819/819 818/818
f 825/825 826/826 820/820 819/819
f 826/826 827/827 821/821 820/820
f 827/827 828/828 822/822 821/821
f 829/829 830/830 824/824 823/823
f 830/830 831/831 825/825 824/824
f 831/831 832/832 826/826 825/825
f 832/832 833/833 827/827 826/826
f 833/833 834/834 828/828 827/827
f 835/835 836/836 830/830 829/829
f 836/836 837/837 831/831 830/830
f 837/837 838/838 832/832 831/831
f 838/838 839/839 833/833 832/832
f 839/839 840/840 834/834 833/833
f 841/841 842/842 836/836 835/835
f 842/842 843/843 837/837 836/836
f 843/843 844/844 838/838 837/837
f 844/844 845/845 839/839 838/838
f 845/845 846/846 840/840 839/839
f 847/847 848/848 842/842 841/841
f 848/848 849/849 843/843 842/842
f 849/849 850/850 844/844 843/843
f 850/850 851/851 845/845 844/844
f 851/851 852/852 846/846 845/845
f 259/259 260/260 261/261 262/262 263/263
f 851/851 850/850 849/849 848/848 847/847
