# Original Basketbroom flight equipment; cm, Z up; Unreal Y = -OBJ Y
o SM_BB_BroomCopper
s 1
v 46.110000 5.460000 7.000000
v 45.693339 5.460000 5.445000
v 44.555000 5.460000 4.306661
v 43.000000 5.460000 3.890000
v 41.445000 5.460000 4.306661
v 40.306661 5.460000 5.445000
v 39.890000 5.460000 7.000000
v 40.306661 5.460000 8.555000
v 41.445000 5.460000 9.693339
v 43.000000 5.460000 10.110000
v 44.555000 5.460000 9.693339
v 45.693339 5.460000 8.555000
v 46.110000 5.460000 7.000000
v 46.110000 5.140000 7.000000
v 45.693339 5.140000 5.445000
v 44.555000 5.140000 4.306661
v 43.000000 5.140000 3.890000
v 41.445000 5.140000 4.306661
v 40.306661 5.140000 5.445000
v 39.890000 5.140000 7.000000
v 40.306661 5.140000 8.555000
v 41.445000 5.140000 9.693339
v 43.000000 5.140000 10.110000
v 44.555000 5.140000 9.693339
v 45.693339 5.140000 8.555000
v 46.110000 5.140000 7.000000
v 46.110000 7.480000 7.000000
v 45.693339 7.480000 5.445000
v 44.555000 7.480000 4.306661
v 43.000000 7.480000 3.890000
v 41.445000 7.480000 4.306661
v 40.306661 7.480000 5.445000
v 39.890000 7.480000 7.000000
v 40.306661 7.480000 8.555000
v 41.445000 7.480000 9.693339
v 43.000000 7.480000 10.110000
v 44.555000 7.480000 9.693339
v 45.693339 7.480000 8.555000
v 46.110000 7.480000 7.000000
v 46.110000 7.160000 7.000000
v 45.693339 7.160000 5.445000
v 44.555000 7.160000 4.306661
v 43.000000 7.160000 3.890000
v 41.445000 7.160000 4.306661
v 40.306661 7.160000 5.445000
v 39.890000 7.160000 7.000000
v 40.306661 7.160000 8.555000
v 41.445000 7.160000 9.693339
v 43.000000 7.160000 10.110000
v 44.555000 7.160000 9.693339
v 45.693339 7.160000 8.555000
v 46.110000 7.160000 7.000000
v 46.110000 9.500000 7.000000
v 45.693339 9.500000 5.445000
v 44.555000 9.500000 4.306661
v 43.000000 9.500000 3.890000
v 41.445000 9.500000 4.306661
v 40.306661 9.500000 5.445000
v 39.890000 9.500000 7.000000
v 40.306661 9.500000 8.555000
v 41.445000 9.500000 9.693339
v 43.000000 9.500000 10.110000
v 44.555000 9.500000 9.693339
v 45.693339 9.500000 8.555000
v 46.110000 9.500000 7.000000
v 46.110000 9.180000 7.000000
v 45.693339 9.180000 5.445000
v 44.555000 9.180000 4.306661
v 43.000000 9.180000 3.890000
v 41.445000 9.180000 4.306661
v 40.306661 9.180000 5.445000
v 39.890000 9.180000 7.000000
v 40.306661 9.180000 8.555000
v 41.445000 9.180000 9.693339
v 43.000000 9.180000 10.110000
v 44.555000 9.180000 9.693339
v 45.693339 9.180000 8.555000
v 46.110000 9.180000 7.000000
v 46.110000 11.520000 7.000000
v 45.693339 11.520000 5.445000
v 44.555000 11.520000 4.306661
v 43.000000 11.520000 3.890000
v 41.445000 11.520000 4.306661
v 40.306661 11.520000 5.445000
v 39.890000 11.520000 7.000000
v 40.306661 11.520000 8.555000
v 41.445000 11.520000 9.693339
v 43.000000 11.520000 10.110000
v 44.555000 11.520000 9.693339
v 45.693339 11.520000 8.555000
v 46.110000 11.520000 7.000000
v 46.110000 11.200000 7.000000
v 45.693339 11.200000 5.445000
v 44.555000 11.200000 4.306661
v 43.000000 11.200000 3.890000
v 41.445000 11.200000 4.306661
v 40.306661 11.200000 5.445000
v 39.890000 11.200000 7.000000
v 40.306661 11.200000 8.555000
v 41.445000 11.200000 9.693339
v 43.000000 11.200000 10.110000
v 44.555000 11.200000 9.693339
v 45.693339 11.200000 8.555000
v 46.110000 11.200000 7.000000
v 46.110000 13.540000 7.000000
v 45.693339 13.540000 5.445000
v 44.555000 13.540000 4.306661
v 43.000000 13.540000 3.890000
v 41.445000 13.540000 4.306661
v 40.306661 13.540000 5.445000
v 39.890000 13.540000 7.000000
v 40.306661 13.540000 8.555000
v 41.445000 13.540000 9.693339
v 43.000000 13.540000 10.110000
v 44.555000 13.540000 9.693339
v 45.693339 13.540000 8.555000
v 46.110000 13.540000 7.000000
v 46.110000 13.220000 7.000000
v 45.693339 13.220000 5.445000
v 44.555000 13.220000 4.306661
v 43.000000 13.220000 3.890000
v 41.445000 13.220000 4.306661
v 40.306661 13.220000 5.445000
v 39.890000 13.220000 7.000000
v 40.306661 13.220000 8.555000
v 41.445000 13.220000 9.693339
v 43.000000 13.220000 10.110000
v 44.555000 13.220000 9.693339
v 45.693339 13.220000 8.555000
v 46.110000 13.220000 7.000000
v 46.110000 15.560000 7.000000
v 45.693339 15.560000 5.445000
v 44.555000 15.560000 4.306661
v 43.000000 15.560000 3.890000
v 41.445000 15.560000 4.306661
v 40.306661 15.560000 5.445000
v 39.890000 15.560000 7.000000
v 40.306661 15.560000 8.555000
v 41.445000 15.560000 9.693339
v 43.000000 15.560000 10.110000
v 44.555000 15.560000 9.693339
v 45.693339 15.560000 8.555000
v 46.110000 15.560000 7.000000
v 46.110000 15.240000 7.000000
v 45.693339 15.240000 5.445000
v 44.555000 15.240000 4.306661
v 43.000000 15.240000 3.890000
v 41.445000 15.240000 4.306661
v 40.306661 15.240000 5.445000
v 39.890000 15.240000 7.000000
v 40.306661 15.240000 8.555000
v 41.445000 15.240000 9.693339
v 43.000000 15.240000 10.110000
v 44.555000 15.240000 9.693339
v 45.693339 15.240000 8.555000
v 46.110000 15.240000 7.000000
v 46.110000 -5.140000 7.000000
v 45.693339 -5.140000 5.445000
v 44.555000 -5.140000 4.306661
v 43.000000 -5.140000 3.890000
v 41.445000 -5.140000 4.306661
v 40.306661 -5.140000 5.445000
v 39.890000 -5.140000 7.000000
v 40.306661 -5.140000 8.555000
v 41.445000 -5.140000 9.693339
v 43.000000 -5.140000 10.110000
v 44.555000 -5.140000 9.693339
v 45.693339 -5.140000 8.555000
v 46.110000 -5.140000 7.000000
v 46.110000 -5.460000 7.000000
v 45.693339 -5.460000 5.445000
v 44.555000 -5.460000 4.306661
v 43.000000 -5.460000 3.890000
v 41.445000 -5.460000 4.306661
v 40.306661 -5.460000 5.445000
v 39.890000 -5.460000 7.000000
v 40.306661 -5.460000 8.555000
v 41.445000 -5.460000 9.693339
v 43.000000 -5.460000 10.110000
v 44.555000 -5.460000 9.693339
v 45.693339 -5.460000 8.555000
v 46.110000 -5.460000 7.000000
v 46.110000 -7.160000 7.000000
v 45.693339 -7.160000 5.445000
v 44.555000 -7.160000 4.306661
v 43.000000 -7.160000 3.890000
v 41.445000 -7.160000 4.306661
v 40.306661 -7.160000 5.445000
v 39.890000 -7.160000 7.000000
v 40.306661 -7.160000 8.555000
v 41.445000 -7.160000 9.693339
v 43.000000 -7.160000 10.110000
v 44.555000 -7.160000 9.693339
v 45.693339 -7.160000 8.555000
v 46.110000 -7.160000 7.000000
v 46.110000 -7.480000 7.000000
v 45.693339 -7.480000 5.445000
v 44.555000 -7.480000 4.306661
v 43.000000 -7.480000 3.890000
v 41.445000 -7.480000 4.306661
v 40.306661 -7.480000 5.445000
v 39.890000 -7.480000 7.000000
v 40.306661 -7.480000 8.555000
v 41.445000 -7.480000 9.693339
v 43.000000 -7.480000 10.110000
v 44.555000 -7.480000 9.693339
v 45.693339 -7.480000 8.555000
v 46.110000 -7.480000 7.000000
v 46.110000 -9.180000 7.000000
v 45.693339 -9.180000 5.445000
v 44.555000 -9.180000 4.306661
v 43.000000 -9.180000 3.890000
v 41.445000 -9.180000 4.306661
v 40.306661 -9.180000 5.445000
v 39.890000 -9.180000 7.000000
v 40.306661 -9.180000 8.555000
v 41.445000 -9.180000 9.693339
v 43.000000 -9.180000 10.110000
v 44.555000 -9.180000 9.693339
v 45.693339 -9.180000 8.555000
v 46.110000 -9.180000 7.000000
v 46.110000 -9.500000 7.000000
v 45.693339 -9.500000 5.445000
v 44.555000 -9.500000 4.306661
v 43.000000 -9.500000 3.890000
v 41.445000 -9.500000 4.306661
v 40.306661 -9.500000 5.445000
v 39.890000 -9.500000 7.000000
v 40.306661 -9.500000 8.555000
v 41.445000 -9.500000 9.693339
v 43.000000 -9.500000 10.110000
v 44.555000 -9.500000 9.693339
v 45.693339 -9.500000 8.555000
v 46.110000 -9.500000 7.000000
v 46.110000 -11.200000 7.000000
v 45.693339 -11.200000 5.445000
v 44.555000 -11.200000 4.306661
v 43.000000 -11.200000 3.890000
v 41.445000 -11.200000 4.306661
v 40.306661 -11.200000 5.445000
v 39.890000 -11.200000 7.000000
v 40.306661 -11.200000 8.555000
v 41.445000 -11.200000 9.693339
v 43.000000 -11.200000 10.110000
v 44.555000 -11.200000 9.693339
v 45.693339 -11.200000 8.555000
v 46.110000 -11.200000 7.000000
v 46.110000 -11.520000 7.000000
v 45.693339 -11.520000 5.445000
v 44.555000 -11.520000 4.306661
v 43.000000 -11.520000 3.890000
v 41.445000 -11.520000 4.306661
v 40.306661 -11.520000 5.445000
v 39.890000 -11.520000 7.000000
v 40.306661 -11.520000 8.555000
v 41.445000 -11.520000 9.693339
v 43.000000 -11.520000 10.110000
v 44.555000 -11.520000 9.693339
v 45.693339 -11.520000 8.555000
v 46.110000 -11.520000 7.000000
v 46.110000 -13.220000 7.000000
v 45.693339 -13.220000 5.445000
v 44.555000 -13.220000 4.306661
v 43.000000 -13.220000 3.890000
v 41.445000 -13.220000 4.306661
v 40.306661 -13.220000 5.445000
v 39.890000 -13.220000 7.000000
v 40.306661 -13.220000 8.555000
v 41.445000 -13.220000 9.693339
v 43.000000 -13.220000 10.110000
v 44.555000 -13.220000 9.693339
v 45.693339 -13.220000 8.555000
v 46.110000 -13.220000 7.000000
v 46.110000 -13.540000 7.000000
v 45.693339 -13.540000 5.445000
v 44.555000 -13.540000 4.306661
v 43.000000 -13.540000 3.890000
v 41.445000 -13.540000 4.306661
v 40.306661 -13.540000 5.445000
v 39.890000 -13.540000 7.000000
v 40.306661 -13.540000 8.555000
v 41.445000 -13.540000 9.693339
v 43.000000 -13.540000 10.110000
v 44.555000 -13.540000 9.693339
v 45.693339 -13.540000 8.555000
v 46.110000 -13.540000 7.000000
v 46.110000 -15.240000 7.000000
v 45.693339 -15.240000 5.445000
v 44.555000 -15.240000 4.306661
v 43.000000 -15.240000 3.890000
v 41.445000 -15.240000 4.306661
v 40.306661 -15.240000 5.445000
v 39.890000 -15.240000 7.000000
v 40.306661 -15.240000 8.555000
v 41.445000 -15.240000 9.693339
v 43.000000 -15.240000 10.110000
v 44.555000 -15.240000 9.693339
v 45.693339 -15.240000 8.555000
v 46.110000 -15.240000 7.000000
v 46.110000 -15.560000 7.000000
v 45.693339 -15.560000 5.445000
v 44.555000 -15.560000 4.306661
v 43.000000 -15.560000 3.890000
v 41.445000 -15.560000 4.306661
v 40.306661 -15.560000 5.445000
v 39.890000 -15.560000 7.000000
v 40.306661 -15.560000 8.555000
v 41.445000 -15.560000 9.693339
v 43.000000 -15.560000 10.110000
v 44.555000 -15.560000 9.693339
v 45.693339 -15.560000 8.555000
v 46.110000 -15.560000 7.000000
v -98.550000 6.450000 -8.500000
v -98.550000 6.061017 -10.706030
v -98.550000 4.940987 -12.645980
v -98.550000 3.225000 -14.085864
v -98.550000 1.120031 -14.852010
v -98.550000 -1.120031 -14.852010
v -98.550000 -3.225000 -14.085864
v -98.550000 -4.940987 -12.645980
v -98.550000 -6.061017 -10.706030
v -98.550000 -6.450000 -8.500000
v -98.550000 -6.061017 -6.293970
v -98.550000 -4.940987 -4.354020
v -98.550000 -3.225000 -2.914136
v -98.550000 -1.120031 -2.147990
v -98.550000 1.120031 -2.147990
v -98.550000 3.225000 -2.914136
v -98.550000 4.940987 -4.354020
v -98.550000 6.061017 -6.293970
v -98.550000 6.450000 -8.500000
v -97.450000 6.450000 -8.500000
v -97.450000 6.061017 -10.706030
v -97.450000 4.940987 -12.645980
v -97.450000 3.225000 -14.085864
v -97.450000 1.120031 -14.852010
v -97.450000 -1.120031 -14.852010
v -97.450000 -3.225000 -14.085864
v -97.450000 -4.940987 -12.645980
v -97.450000 -6.061017 -10.706030
v -97.450000 -6.450000 -8.500000
v -97.450000 -6.061017 -6.293970
v -97.450000 -4.940987 -4.354020
v -97.450000 -3.225000 -2.914136
v -97.450000 -1.120031 -2.147990
v -97.450000 1.120031 -2.147990
v -97.450000 3.225000 -2.914136
v -97.450000 4.940987 -4.354020
v -97.450000 6.061017 -6.293970
v -97.450000 6.450000 -8.500000
v -111.550000 7.300000 -9.000000
v -111.550000 6.859756 -11.496747
v -111.550000 5.592124 -13.692350
v -111.550000 3.650000 -15.321985
v -111.550000 1.267632 -16.189097
v -111.550000 -1.267632 -16.189097
v -111.550000 -3.650000 -15.321985
v -111.550000 -5.592124 -13.692350
v -111.550000 -6.859756 -11.496747
v -111.550000 -7.300000 -9.000000
v -111.550000 -6.859756 -6.503253
v -111.550000 -5.592124 -4.307650
v -111.550000 -3.650000 -2.678015
v -111.550000 -1.267632 -1.810903
v -111.550000 1.267632 -1.810903
v -111.550000 3.650000 -2.678015
v -111.550000 5.592124 -4.307650
v -111.550000 6.859756 -6.503253
v -111.550000 7.300000 -9.000000
v -110.450000 7.300000 -9.000000
v -110.450000 6.859756 -11.496747
v -110.450000 5.592124 -13.692350
v -110.450000 3.650000 -15.321985
v -110.450000 1.267632 -16.189097
v -110.450000 -1.267632 -16.189097
v -110.450000 -3.650000 -15.321985
v -110.450000 -5.592124 -13.692350
v -110.450000 -6.859756 -11.496747
v -110.450000 -7.300000 -9.000000
v -110.450000 -6.859756 -6.503253
v -110.450000 -5.592124 -4.307650
v -110.450000 -3.650000 -2.678015
v -110.450000 -1.267632 -1.810903
v -110.450000 1.267632 -1.810903
v -110.450000 3.650000 -2.678015
v -110.450000 5.592124 -4.307650
v -110.450000 6.859756 -6.503253
v -110.450000 7.300000 -9.000000
v -124.550000 9.350000 -9.500000
v -124.550000 8.786126 -12.697888
v -124.550000 7.162516 -15.510064
v -124.550000 4.675000 -17.597338
v -124.550000 1.623610 -18.707952
v -124.550000 -1.623610 -18.707952
v -124.550000 -4.675000 -17.597338
v -124.550000 -7.162516 -15.510064
v -124.550000 -8.786126 -12.697888
v -124.550000 -9.350000 -9.500000
v -124.550000 -8.786126 -6.302112
v -124.550000 -7.162516 -3.489936
v -124.550000 -4.675000 -1.402662
v -124.550000 -1.623610 -0.292048
v -124.550000 1.623610 -0.292048
v -124.550000 4.675000 -1.402662
v -124.550000 7.162516 -3.489936
v -124.550000 8.786126 -6.302112
v -124.550000 9.350000 -9.500000
v -123.450000 9.350000 -9.500000
v -123.450000 8.786126 -12.697888
v -123.450000 7.162516 -15.510064
v -123.450000 4.675000 -17.597338
v -123.450000 1.623610 -18.707952
v -123.450000 -1.623610 -18.707952
v -123.450000 -4.675000 -17.597338
v -123.450000 -7.162516 -15.510064
v -123.450000 -8.786126 -12.697888
v -123.450000 -9.350000 -9.500000
v -123.450000 -8.786126 -6.302112
v -123.450000 -7.162516 -3.489936
v -123.450000 -4.675000 -1.402662
v -123.450000 -1.623610 -0.292048
v -123.450000 1.623610 -0.292048
v -123.450000 4.675000 -1.402662
v -123.450000 7.162516 -3.489936
v -123.450000 8.786126 -6.302112
v -123.450000 9.350000 -9.500000
v 97.450000 3.480000 -6.000000
v 97.450000 3.270130 -7.190230
v 97.450000 2.665835 -8.236901
v 97.450000 1.740000 -9.013768
v 97.450000 0.604296 -9.427131
v 97.450000 -0.604296 -9.427131
v 97.450000 -1.740000 -9.013768
v 97.450000 -2.665835 -8.236901
v 97.450000 -3.270130 -7.190230
v 97.450000 -3.480000 -6.000000
v 97.450000 -3.270130 -4.809770
v 97.450000 -2.665835 -3.763099
v 97.450000 -1.740000 -2.986232
v 97.450000 -0.604296 -2.572869
v 97.450000 0.604296 -2.572869
v 97.450000 1.740000 -2.986232
v 97.450000 2.665835 -3.763099
v 97.450000 3.270130 -4.809770
v 97.450000 3.480000 -6.000000
v 98.550000 3.480000 -6.000000
v 98.550000 3.270130 -7.190230
v 98.550000 2.665835 -8.236901
v 98.550000 1.740000 -9.013768
v 98.550000 0.604296 -9.427131
v 98.550000 -0.604296 -9.427131
v 98.550000 -1.740000 -9.013768
v 98.550000 -2.665835 -8.236901
v 98.550000 -3.270130 -7.190230
v 98.550000 -3.480000 -6.000000
v 98.550000 -3.270130 -4.809770
v 98.550000 -2.665835 -3.763099
v 98.550000 -1.740000 -2.986232
v 98.550000 -0.604296 -2.572869
v 98.550000 0.604296 -2.572869
v 98.550000 1.740000 -2.986232
v 98.550000 2.665835 -3.763099
v 98.550000 3.270130 -4.809770
v 98.550000 3.480000 -6.000000
v 138.450000 3.150000 -2.000000
v 138.450000 2.960032 -3.077363
v 138.450000 2.413040 -4.024781
v 138.450000 1.575000 -4.727980
v 138.450000 0.546992 -5.102144
v 138.450000 -0.546992 -5.102144
v 138.450000 -1.575000 -4.727980
v 138.450000 -2.413040 -4.024781
v 138.450000 -2.960032 -3.077363
v 138.450000 -3.150000 -2.000000
v 138.450000 -2.960032 -0.922637
v 138.450000 -2.413040 0.024781
v 138.450000 -1.575000 0.727980
v 138.450000 -0.546992 1.102144
v 138.450000 0.546992 1.102144
v 138.450000 1.575000 0.727980
v 138.450000 2.413040 0.024781
v 138.450000 2.960032 -0.922637
v 138.450000 3.150000 -2.000000
v 139.550000 3.150000 -2.000000
v 139.550000 2.960032 -3.077363
v 139.550000 2.413040 -4.024781
v 139.550000 1.575000 -4.727980
v 139.550000 0.546992 -5.102144
v 139.550000 -0.546992 -5.102144
v 139.550000 -1.575000 -4.727980
v 139.550000 -2.413040 -4.024781
v 139.550000 -2.960032 -3.077363
v 139.550000 -3.150000 -2.000000
v 139.550000 -2.960032 -0.922637
v 139.550000 -2.413040 0.024781
v 139.550000 -1.575000 0.727980
v 139.550000 -0.546992 1.102144
v 139.550000 0.546992 1.102144
v 139.550000 1.575000 0.727980
v 139.550000 2.413040 0.024781
v 139.550000 2.960032 -0.922637
v 139.550000 3.150000 -2.000000
v 2.802717 2.359185 -10.000000
v 2.946087 1.562962 -10.510652
v 3.706825 1.022750 -10.722171
v 4.639301 1.054998 -10.510652
v 5.197283 1.640815 -10.000000
v 5.053913 2.437038 -9.489348
v 4.293175 2.977250 -9.277829
v 3.360699 2.945002 -9.489348
v 2.802717 2.359185 -10.000000
v 3.695240 5.334046 -14.370370
v 3.829580 4.532900 -14.875752
v 4.584449 3.983680 -15.085088
v 5.517654 4.008110 -14.875752
v 6.082538 4.591880 -14.370370
v 5.948198 5.393026 -13.864989
v 5.193329 5.942246 -13.655653
v 4.260123 5.917816 -13.864989
v 3.695240 5.334046 -14.370370
v 5.056512 9.599391 -20.740741
v 5.128254 8.770535 -21.213120
v 5.840828 8.162879 -21.408785
v 6.776817 8.132381 -21.213120
v 7.387932 8.696906 -20.740741
v 7.316190 9.525762 -20.268362
v 6.603617 10.133417 -20.072696
v 5.667627 10.163915 -20.268362
v 5.056512 9.599391 -20.740741
v 6.924636 13.637253 -28.000000
v 6.837571 12.772178 -28.399194
v 7.431442 12.040558 -28.564546
v 8.358366 11.870966 -28.399194
v 9.075364 12.362747 -28.000000
v 9.162429 13.227822 -27.600806
v 8.568558 13.959442 -27.435454
v 7.641634 14.129034 -27.600806
v 6.924636 13.637253 -28.000000
v 9.166665 16.148148 -37.151852
v 9.589805 15.303918 -37.305215
v 10.470189 14.954227 -37.171308
v 11.292100 15.303918 -36.828572
v 11.574075 16.148148 -36.477777
v 11.150936 16.992378 -36.324414
v 10.270552 17.342070 -36.458321
v 9.448640 16.992378 -36.801057
v 9.166665 16.148148 -37.151852
v 11.997299 18.962963 -46.907654
v 12.416526 18.109272 -47.011341
v 13.286023 17.755661 -46.826340
v 14.096451 18.109272 -46.461021
v 14.373071 18.962963 -46.129383
v 13.953844 19.816654 -46.025696
v 13.084347 20.170265 -46.210697
v 12.273919 19.816654 -46.576016
v 11.997299 18.962963 -46.907654
v 15.435272 22.115160 -54.000000
v 14.918276 21.442963 -54.442897
v 15.034940 20.511284 -54.626351
v 15.716923 19.865888 -54.442897
v 16.564728 19.884840 -54.000000
v 17.081724 20.557037 -53.557103
v 16.965060 21.488716 -53.373649
v 16.283077 22.134112 -53.557103
v 15.435272 22.115160 -54.000000
v 18.754966 23.121462 -57.703704
v 18.246533 22.664371 -58.372923
v 18.157775 21.753013 -58.650123
v 18.540685 20.921249 -58.372923
v 19.170960 20.656315 -57.703704
v 19.679393 21.113406 -57.034484
v 19.768151 22.024764 -56.757284
v 19.385241 22.856528 -57.034484
v 18.754966 23.121462 -57.703704
v 21.898359 23.249696 -59.185185
v 21.539952 22.875584 -59.989471
v 21.407643 21.988567 -60.322617
v 21.578937 21.108247 -59.989471
v 21.953493 20.750304 -59.185185
v 22.311900 21.124416 -58.380899
v 22.444209 22.011433 -58.047753
v 22.272915 22.891753 -58.380899
v 21.898359 23.249696 -59.185185
v 24.000000 23.250000 -60.000000
v 23.676806 22.883883 -60.822676
v 23.542935 22.000000 -61.163439
v 23.676806 21.116117 -60.822676
v 24.000000 20.750000 -60.000000
v 24.323194 21.116117 -59.177324
v 24.457065 22.000000 -58.836561
v 24.323194 22.883883 -59.177324
v 24.000000 23.250000 -60.000000
v 11.458043 17.157700 -60.000000
v 11.909672 17.111511 -61.096016
v 13.000000 17.000000 -61.550000
v 14.090328 16.888489 -61.096016
v 14.541957 16.842300 -60.000000
v 14.090328 16.888489 -58.903984
v 13.000000 17.000000 -58.450000
v 11.909672 17.111511 -58.903984
v 11.458043 17.157700 -60.000000
v 11.799059 20.479490 -60.000000
v 12.248437 20.414986 -61.096016
v 13.333333 20.259259 -61.550000
v 14.418229 20.103533 -61.096016
v 14.867608 20.039028 -60.000000
v 14.418229 20.103533 -58.903984
v 13.333333 20.259259 -58.450000
v 12.248437 20.414986 -58.903984
v 11.799059 20.479490 -60.000000
v 12.710317 25.404275 -60.000000
v 13.120600 25.209930 -61.096016
v 14.111111 24.740741 -61.550000
v 15.101622 24.271551 -61.096016
v 15.511905 24.077207 -60.000000
v 15.101622 24.271551 -58.903984
v 14.111111 24.740741 -58.450000
v 13.120600 25.209930 -58.903984
v 12.710317 25.404275 -60.000000
v 16.358206 29.410886 -60.000000
v 16.546183 28.997647 -61.096016
v 17.000000 28.000000 -61.550000
v 17.453817 27.002353 -61.096016
v 17.641794 26.589114 -60.000000
v 17.453817 27.002353 -58.903984
v 17.000000 28.000000 -58.450000
v 16.546183 28.997647 -58.903984
v 16.358206 29.410886 -60.000000
v 23.845175 30.767740 -60.000000
v 23.879674 30.315069 -61.096016
v 23.962963 29.222222 -61.550000
v 24.046251 28.129376 -61.096016
v 24.080751 27.676704 -60.000000
v 24.046251 28.129376 -58.903984
v 23.962963 29.222222 -58.450000
v 23.879674 30.315069 -58.903984
v 23.845175 30.767740 -60.000000
v 33.154825 30.767740 -60.000000
v 33.120326 30.315069 -61.096016
v 33.037037 29.222222 -61.550000
v 32.953749 28.129376 -61.096016
v 32.919249 27.676704 -60.000000
v 32.953749 28.129376 -58.903984
v 33.037037 29.222222 -58.450000
v 33.120326 30.315069 -58.903984
v 33.154825 30.767740 -60.000000
v 40.641794 29.410886 -60.000000
v 40.453817 28.997647 -61.096016
v 40.000000 28.000000 -61.550000
v 39.546183 27.002353 -61.096016
v 39.358206 26.589114 -60.000000
v 39.546183 27.002353 -58.903984
v 40.000000 28.000000 -58.450000
v 40.453817 28.997647 -58.903984
v 40.641794 29.410886 -60.000000
v 44.289683 25.404275 -60.000000
v 43.879400 25.209930 -61.096016
v 42.888889 24.740741 -61.550000
v 41.898378 24.271551 -61.096016
v 41.488095 24.077207 -60.000000
v 41.898378 24.271551 -58.903984
v 42.888889 24.740741 -58.450000
v 43.879400 25.209930 -58.903984
v 44.289683 25.404275 -60.000000
v 45.200941 20.479490 -60.000000
v 44.751563 20.414986 -61.096016
v 43.666667 20.259259 -61.550000
v 42.581771 20.103533 -61.096016
v 42.132392 20.039028 -60.000000
v 42.581771 20.103533 -58.903984
v 43.666667 20.259259 -58.450000
v 44.751563 20.414986 -58.903984
v 45.200941 20.479490 -60.000000
v 45.541957 17.157700 -60.000000
v 45.090328 17.111511 -61.096016
v 44.000000 17.000000 -61.550000
v 42.909672 16.888489 -61.096016
v 42.458043 16.842300 -60.000000
v 42.909672 16.888489 -58.903984
v 44.000000 17.000000 -58.450000
v 45.090328 17.111511 -58.903984
v 45.541957 17.157700 -60.000000
v 21.300000 17.000000 -60.000000
v 21.650000 17.000000 -60.606218
v 22.350000 17.000000 -60.606218
v 22.700000 17.000000 -60.000000
v 22.350000 17.000000 -59.393782
v 21.650000 17.000000 -59.393782
v 21.300000 17.000000 -60.000000
v 21.300000 28.000000 -60.000000
v 21.650000 28.000000 -60.606218
v 22.350000 28.000000 -60.606218
v 22.700000 28.000000 -60.000000
v 22.350000 28.000000 -59.393782
v 21.650000 28.000000 -59.393782
v 21.300000 28.000000 -60.000000
v 27.300000 17.000000 -60.000000
v 27.650000 17.000000 -60.606218
v 28.350000 17.000000 -60.606218
v 28.700000 17.000000 -60.000000
v 28.350000 17.000000 -59.393782
v 27.650000 17.000000 -59.393782
v 27.300000 17.000000 -60.000000
v 27.300000 28.000000 -60.000000
v 27.650000 28.000000 -60.606218
v 28.350000 28.000000 -60.606218
v 28.700000 28.000000 -60.000000
v 28.350000 28.000000 -59.393782
v 27.650000 28.000000 -59.393782
v 27.300000 28.000000 -60.000000
v 33.300000 17.000000 -60.000000
v 33.650000 17.000000 -60.606218
v 34.350000 17.000000 -60.606218
v 34.700000 17.000000 -60.000000
v 34.350000 17.000000 -59.393782
v 33.650000 17.000000 -59.393782
v 33.300000 17.000000 -60.000000
v 33.300000 28.000000 -60.000000
v 33.650000 28.000000 -60.606218
v 34.350000 28.000000 -60.606218
v 34.700000 28.000000 -60.000000
v 34.350000 28.000000 -59.393782
v 33.650000 28.000000 -59.393782
v 33.300000 28.000000 -60.000000
v 5.197283 -1.640815 -10.000000
v 4.639301 -1.054998 -10.510652
v 3.706825 -1.022750 -10.722171
v 2.946087 -1.562962 -10.510652
v 2.802717 -2.359185 -10.000000
v 3.360699 -2.945002 -9.489348
v 4.293175 -2.977250 -9.277829
v 5.053913 -2.437038 -9.489348
v 5.197283 -1.640815 -10.000000
v 6.082538 -4.591880 -14.370370
v 5.517654 -4.008110 -14.875752
v 4.584449 -3.983680 -15.085088
v 3.829580 -4.532900 -14.875752
v 3.695240 -5.334046 -14.370370
v 4.260123 -5.917816 -13.864989
v 5.193329 -5.942246 -13.655653
v 5.948198 -5.393026 -13.864989
v 6.082538 -4.591880 -14.370370
v 7.387932 -8.696906 -20.740741
v 6.776817 -8.132381 -21.213120
v 5.840828 -8.162879 -21.408785
v 5.128254 -8.770535 -21.213120
v 5.056512 -9.599391 -20.740741
v 5.667627 -10.163915 -20.268362
v 6.603617 -10.133417 -20.072696
v 7.316190 -9.525762 -20.268362
v 7.387932 -8.696906 -20.740741
v 9.075364 -12.362747 -28.000000
v 8.358366 -11.870966 -28.399194
v 7.431442 -12.040558 -28.564546
v 6.837571 -12.772178 -28.399194
v 6.924636 -13.637253 -28.000000
v 7.641634 -14.129034 -27.600806
v 8.568558 -13.959442 -27.435454
v 9.162429 -13.227822 -27.600806
v 9.075364 -12.362747 -28.000000
v 11.574075 -16.148148 -36.477777
v 11.292100 -15.303918 -36.828572
v 10.470189 -14.954227 -37.171308
v 9.589805 -15.303918 -37.305215
v 9.166665 -16.148148 -37.151852
v 9.448640 -16.992378 -36.801057
v 10.270552 -17.342070 -36.458321
v 11.150936 -16.992378 -36.324414
v 11.574075 -16.148148 -36.477777
v 14.373071 -18.962963 -46.129383
v 14.096451 -18.109272 -46.461021
v 13.286023 -17.755661 -46.826340
v 12.416526 -18.109272 -47.011341
v 11.997299 -18.962963 -46.907654
v 12.273919 -19.816654 -46.576016
v 13.084347 -20.170265 -46.210697
v 13.953844 -19.816654 -46.025696
v 14.373071 -18.962963 -46.129383
v 16.564728 -19.884840 -54.000000
v 15.716923 -19.865888 -54.442897
v 15.034940 -20.511284 -54.626351
v 14.918276 -21.442963 -54.442897
v 15.435272 -22.115160 -54.000000
v 16.283077 -22.134112 -53.557103
v 16.965060 -21.488716 -53.373649
v 17.081724 -20.557037 -53.557103
v 16.564728 -19.884840 -54.000000
v 19.170960 -20.656315 -57.703704
v 18.540685 -20.921249 -58.372923
v 18.157775 -21.753013 -58.650123
v 18.246533 -22.664371 -58.372923
v 18.754966 -23.121462 -57.703704
v 19.385241 -22.856528 -57.034484
v 19.768151 -22.024764 -56.757284
v 19.679393 -21.113406 -57.034484
v 19.170960 -20.656315 -57.703704
v 21.953493 -20.750304 -59.185185
v 21.578937 -21.108247 -59.989471
v 21.407643 -21.988567 -60.322617
v 21.539952 -22.875584 -59.989471
v 21.898359 -23.249696 -59.185185
v 22.272915 -22.891753 -58.380899
v 22.444209 -22.011433 -58.047753
v 22.311900 -21.124416 -58.380899
v 21.953493 -20.750304 -59.185185
v 24.000000 -20.750000 -60.000000
v 23.676806 -21.116117 -60.822676
v 23.542935 -22.000000 -61.163439
v 23.676806 -22.883883 -60.822676
v 24.000000 -23.250000 -60.000000
v 24.323194 -22.883883 -59.177324
v 24.457065 -22.000000 -58.836561
v 24.323194 -21.116117 -59.177324
v 24.000000 -20.750000 -60.000000
v 14.541957 -16.842300 -60.000000
v 14.090328 -16.888489 -61.096016
v 13.000000 -17.000000 -61.550000
v 11.909672 -17.111511 -61.096016
v 11.458043 -17.157700 -60.000000
v 11.909672 -17.111511 -58.903984
v 13.000000 -17.000000 -58.450000
v 14.090328 -16.888489 -58.903984
v 14.541957 -16.842300 -60.000000
v 14.867608 -20.039028 -60.000000
v 14.418229 -20.103533 -61.096016
v 13.333333 -20.259259 -61.550000
v 12.248437 -20.414986 -61.096016
v 11.799059 -20.479490 -60.000000
v 12.248437 -20.414986 -58.903984
v 13.333333 -20.259259 -58.450000
v 14.418229 -20.103533 -58.903984
v 14.867608 -20.039028 -60.000000
v 15.511905 -24.077207 -60.000000
v 15.101622 -24.271551 -61.096016
v 14.111111 -24.740741 -61.550000
v 13.120600 -25.209930 -61.096016
v 12.710317 -25.404275 -60.000000
v 13.120600 -25.209930 -58.903984
v 14.111111 -24.740741 -58.450000
v 15.101622 -24.271551 -58.903984
v 15.511905 -24.077207 -60.000000
v 17.641794 -26.589114 -60.000000
v 17.453817 -27.002353 -61.096016
v 17.000000 -28.000000 -61.550000
v 16.546183 -28.997647 -61.096016
v 16.358206 -29.410886 -60.000000
v 16.546183 -28.997647 -58.903984
v 17.000000 -28.000000 -58.450000
v 17.453817 -27.002353 -58.903984
v 17.641794 -26.589114 -60.000000
v 24.080751 -27.676704 -60.000000
v 24.046251 -28.129376 -61.096016
v 23.962963 -29.222222 -61.550000
v 23.879674 -30.315069 -61.096016
v 23.845175 -30.767740 -60.000000
v 23.879674 -30.315069 -58.903984
v 23.962963 -29.222222 -58.450000
v 24.046251 -28.129376 -58.903984
v 24.080751 -27.676704 -60.000000
v 32.919249 -27.676704 -60.000000
v 32.953749 -28.129376 -61.096016
v 33.037037 -29.222222 -61.550000
v 33.120326 -30.315069 -61.096016
v 33.154825 -30.767740 -60.000000
v 33.120326 -30.315069 -58.903984
v 33.037037 -29.222222 -58.450000
v 32.953749 -28.129376 -58.903984
v 32.919249 -27.676704 -60.000000
v 39.358206 -26.589114 -60.000000
v 39.546183 -27.002353 -61.096016
v 40.000000 -28.000000 -61.550000
v 40.453817 -28.997647 -61.096016
v 40.641794 -29.410886 -60.000000
v 40.453817 -28.997647 -58.903984
v 40.000000 -28.000000 -58.450000
v 39.546183 -27.002353 -58.903984
v 39.358206 -26.589114 -60.000000
v 41.488095 -24.077207 -60.000000
v 41.898378 -24.271551 -61.096016
v 42.888889 -24.740741 -61.550000
v 43.879400 -25.209930 -61.096016
v 44.289683 -25.404275 -60.000000
v 43.879400 -25.209930 -58.903984
v 42.888889 -24.740741 -58.450000
v 41.898378 -24.271551 -58.903984
v 41.488095 -24.077207 -60.000000
v 42.132392 -20.039028 -60.000000
v 42.581771 -20.103533 -61.096016
v 43.666667 -20.259259 -61.550000
v 44.751563 -20.414986 -61.096016
v 45.200941 -20.479490 -60.000000
v 44.751563 -20.414986 -58.903984
v 43.666667 -20.259259 -58.450000
v 42.581771 -20.103533 -58.903984
v 42.132392 -20.039028 -60.000000
v 42.458043 -16.842300 -60.000000
v 42.909672 -16.888489 -61.096016
v 44.000000 -17.000000 -61.550000
v 45.090328 -17.111511 -61.096016
v 45.541957 -17.157700 -60.000000
v 45.090328 -17.111511 -58.903984
v 44.000000 -17.000000 -58.450000
v 42.909672 -16.888489 -58.903984
v 42.458043 -16.842300 -60.000000
v 22.700000 -17.000000 -60.000000
v 22.350000 -17.000000 -60.606218
v 21.650000 -17.000000 -60.606218
v 21.300000 -17.000000 -60.000000
v 21.650000 -17.000000 -59.393782
v 22.350000 -17.000000 -59.393782
v 22.700000 -17.000000 -60.000000
v 22.700000 -28.000000 -60.000000
v 22.350000 -28.000000 -60.606218
v 21.650000 -28.000000 -60.606218
v 21.300000 -28.000000 -60.000000
v 21.650000 -28.000000 -59.393782
v 22.350000 -28.000000 -59.393782
v 22.700000 -28.000000 -60.000000
v 28.700000 -17.000000 -60.000000
v 28.350000 -17.000000 -60.606218
v 27.650000 -17.000000 -60.606218
v 27.300000 -17.000000 -60.000000
v 27.650000 -17.000000 -59.393782
v 28.350000 -17.000000 -59.393782
v 28.700000 -17.000000 -60.000000
v 28.700000 -28.000000 -60.000000
v 28.350000 -28.000000 -60.606218
v 27.650000 -28.000000 -60.606218
v 27.300000 -28.000000 -60.000000
v 27.650000 -28.000000 -59.393782
v 28.350000 -28.000000 -59.393782
v 28.700000 -28.000000 -60.000000
v 34.700000 -17.000000 -60.000000
v 34.350000 -17.000000 -60.606218
v 33.650000 -17.000000 -60.606218
v 33.300000 -17.000000 -60.000000
v 33.650000 -17.000000 -59.393782
v 34.350000 -17.000000 -59.393782
v 34.700000 -17.000000 -60.000000
v 34.700000 -28.000000 -60.000000
v 34.350000 -28.000000 -60.606218
v 33.650000 -28.000000 -60.606218
v 33.300000 -28.000000 -60.000000
v 33.650000 -28.000000 -59.393782
v 34.350000 -28.000000 -59.393782
v 34.700000 -28.000000 -60.000000
vt 0.000000 0.000000
vt 0.083333 0.000000
vt 0.166667 0.000000
vt 0.250000 0.000000
vt 0.333333 0.000000
vt 0.416667 0.000000
vt 0.500000 0.000000
vt 0.583333 0.000000
vt 0.666667 0.000000
vt 0.750000 0.000000
vt 0.833333 0.000000
vt 0.916667 0.000000
vt 1.000000 0.000000
vt 0.000000 0.032000
vt 0.083333 0.032000
vt 0.166667 0.032000
vt 0.250000 0.032000
vt 0.333333 0.032000
vt 0.416667 0.032000
vt 0.500000 0.032000
vt 0.583333 0.032000
vt 0.666667 0.032000
vt 0.750000 0.032000
vt 0.833333 0.032000
vt 0.916667 0.032000
vt 1.000000 0.032000
vt 0.000000 0.000000
vt 0.083333 0.000000
vt 0.166667 0.000000
vt 0.250000 0.000000
vt 0.333333 0.000000
vt 0.416667 0.000000
vt 0.500000 0.000000
vt 0.583333 0.000000
vt 0.666667 0.000000
vt 0.750000 0.000000
vt 0.833333 0.000000
vt 0.916667 0.000000
vt 1.000000 0.000000
vt 0.000000 0.032000
vt 0.083333 0.032000
vt 0.166667 0.032000
vt 0.250000 0.032000
vt 0.333333 0.032000
vt 0.416667 0.032000
vt 0.500000 0.032000
vt 0.583333 0.032000
vt 0.666667 0.032000
vt 0.750000 0.032000
vt 0.833333 0.032000
vt 0.916667 0.032000
vt 1.000000 0.032000
vt 0.000000 0.000000
vt 0.083333 0.000000
vt 0.166667 0.000000
vt 0.250000 0.000000
vt 0.333333 0.000000
vt 0.416667 0.000000
vt 0.500000 0.000000
vt 0.583333 0.000000
vt 0.666667 0.000000
vt 0.750000 0.000000
vt 0.833333 0.000000
vt 0.916667 0.000000
vt 1.000000 0.000000
vt 0.000000 0.032000
vt 0.083333 0.032000
vt 0.166667 0.032000
vt 0.250000 0.032000
vt 0.333333 0.032000
vt 0.416667 0.032000
vt 0.500000 0.032000
vt 0.583333 0.032000
vt 0.666667 0.032000
vt 0.750000 0.032000
vt 0.833333 0.032000
vt 0.916667 0.032000
vt 1.000000 0.032000
vt 0.000000 0.000000
vt 0.083333 0.000000
vt 0.166667 0.000000
vt 0.250000 0.000000
vt 0.333333 0.000000
vt 0.416667 0.000000
vt 0.500000 0.000000
vt 0.583333 0.000000
vt 0.666667 0.000000
vt 0.750000 0.000000
vt 0.833333 0.000000
vt 0.916667 0.000000
vt 1.000000 0.000000
vt 0.000000 0.032000
vt 0.083333 0.032000
vt 0.166667 0.032000
vt 0.250000 0.032000
vt 0.333333 0.032000
vt 0.416667 0.032000
vt 0.500000 0.032000
vt 0.583333 0.032000
vt 0.666667 0.032000
vt 0.750000 0.032000
vt 0.833333 0.032000
vt 0.916667 0.032000
vt 1.000000 0.032000
vt 0.000000 0.000000
vt 0.083333 0.000000
vt 0.166667 0.000000
vt 0.250000 0.000000
vt 0.333333 0.000000
vt 0.416667 0.000000
vt 0.500000 0.000000
vt 0.583333 0.000000
vt 0.666667 0.000000
vt 0.750000 0.000000
vt 0.833333 0.000000
vt 0.916667 0.000000
vt 1.000000 0.000000
vt 0.000000 0.032000
vt 0.083333 0.032000
vt 0.166667 0.032000
vt 0.250000 0.032000
vt 0.333333 0.032000
vt 0.416667 0.032000
vt 0.500000 0.032000
vt 0.583333 0.032000
vt 0.666667 0.032000
vt 0.750000 0.032000
vt 0.833333 0.032000
vt 0.916667 0.032000
vt 1.000000 0.032000
vt 0.000000 0.000000
vt 0.083333 0.000000
vt 0.166667 0.000000
vt 0.250000 0.000000
vt 0.333333 0.000000
vt 0.416667 0.000000
vt 0.500000 0.000000
vt 0.583333 0.000000
vt 0.666667 0.000000
vt 0.750000 0.000000
vt 0.833333 0.000000
vt 0.916667 0.000000
vt 1.000000 0.000000
vt 0.000000 0.032000
vt 0.083333 0.032000
vt 0.166667 0.032000
vt 0.250000 0.032000
vt 0.333333 0.032000
vt 0.416667 0.032000
vt 0.500000 0.032000
vt 0.583333 0.032000
vt 0.666667 0.032000
vt 0.750000 0.032000
vt 0.833333 0.032000
vt 0.916667 0.032000
vt 1.000000 0.032000
vt 0.000000 0.000000
vt 0.083333 0.000000
vt 0.166667 0.000000
vt 0.250000 0.000000
vt 0.333333 0.000000
vt 0.416667 0.000000
vt 0.500000 0.000000
vt 0.583333 0.000000
vt 0.666667 0.000000
vt 0.750000 0.000000
vt 0.833333 0.000000
vt 0.916667 0.000000
vt 1.000000 0.000000
vt 0.000000 0.032000
vt 0.083333 0.032000
vt 0.166667 0.032000
vt 0.250000 0.032000
vt 0.333333 0.032000
vt 0.416667 0.032000
vt 0.500000 0.032000
vt 0.583333 0.032000
vt 0.666667 0.032000
vt 0.750000 0.032000
vt 0.833333 0.032000
vt 0.916667 0.032000
vt 1.000000 0.032000
vt 0.000000 0.000000
vt 0.083333 0.000000
vt 0.166667 0.000000
vt 0.250000 0.000000
vt 0.333333 0.000000
vt 0.416667 0.000000
vt 0.500000 0.000000
vt 0.583333 0.000000
vt 0.666667 0.000000
vt 0.750000 0.000000
vt 0.833333 0.000000
vt 0.916667 0.000000
vt 1.000000 0.000000
vt 0.000000 0.032000
vt 0.083333 0.032000
vt 0.166667 0.032000
vt 0.250000 0.032000
vt 0.333333 0.032000
vt 0.416667 0.032000
vt 0.500000 0.032000
vt 0.583333 0.032000
vt 0.666667 0.032000
vt 0.750000 0.032000
vt 0.833333 0.032000
vt 0.916667 0.032000
vt 1.000000 0.032000
vt 0.000000 0.000000
vt 0.083333 0.000000
vt 0.166667 0.000000
vt 0.250000 0.000000
vt 0.333333 0.000000
vt 0.416667 0.000000
vt 0.500000 0.000000
vt 0.583333 0.000000
vt 0.666667 0.000000
vt 0.750000 0.000000
vt 0.833333 0.000000
vt 0.916667 0.000000
vt 1.000000 0.000000
vt 0.000000 0.032000
vt 0.083333 0.032000
vt 0.166667 0.032000
vt 0.250000 0.032000
vt 0.333333 0.032000
vt 0.416667 0.032000
vt 0.500000 0.032000
vt 0.583333 0.032000
vt 0.666667 0.032000
vt 0.750000 0.032000
vt 0.833333 0.032000
vt 0.916667 0.032000
vt 1.000000 0.032000
vt 0.000000 0.000000
vt 0.083333 0.000000
vt 0.166667 0.000000
vt 0.250000 0.000000
vt 0.333333 0.000000
vt 0.416667 0.000000
vt 0.500000 0.000000
vt 0.583333 0.000000
vt 0.666667 0.000000
vt 0.750000 0.000000
vt 0.833333 0.000000
vt 0.916667 0.000000
vt 1.000000 0.000000
vt 0.000000 0.032000
vt 0.083333 0.032000
vt 0.166667 0.032000
vt 0.250000 0.032000
vt 0.333333 0.032000
vt 0.416667 0.032000
vt 0.500000 0.032000
vt 0.583333 0.032000
vt 0.666667 0.032000
vt 0.750000 0.032000
vt 0.833333 0.032000
vt 0.916667 0.032000
vt 1.000000 0.032000
vt 0.000000 0.000000
vt 0.083333 0.000000
vt 0.166667 0.000000
vt 0.250000 0.000000
vt 0.333333 0.000000
vt 0.416667 0.000000
vt 0.500000 0.000000
vt 0.583333 0.000000
vt 0.666667 0.000000
vt 0.750000 0.000000
vt 0.833333 0.000000
vt 0.916667 0.000000
vt 1.000000 0.000000
vt 0.000000 0.032000
vt 0.083333 0.032000
vt 0.166667 0.032000
vt 0.250000 0.032000
vt 0.333333 0.032000
vt 0.416667 0.032000
vt 0.500000 0.032000
vt 0.583333 0.032000
vt 0.666667 0.032000
vt 0.750000 0.032000
vt 0.833333 0.032000
vt 0.916667 0.032000
vt 1.000000 0.032000
vt 0.000000 0.000000
vt 0.083333 0.000000
vt 0.166667 0.000000
vt 0.250000 0.000000
vt 0.333333 0.000000
vt 0.416667 0.000000
vt 0.500000 0.000000
vt 0.583333 0.000000
vt 0.666667 0.000000
vt 0.750000 0.000000
vt 0.833333 0.000000
vt 0.916667 0.000000
vt 1.000000 0.000000
vt 0.000000 0.032000
vt 0.083333 0.032000
vt 0.166667 0.032000
vt 0.250000 0.032000
vt 0.333333 0.032000
vt 0.416667 0.032000
vt 0.500000 0.032000
vt 0.583333 0.032000
vt 0.666667 0.032000
vt 0.750000 0.032000
vt 0.833333 0.032000
vt 0.916667 0.032000
vt 1.000000 0.032000
vt 0.000000 0.000000
vt 0.055556 0.000000
vt 0.111111 0.000000
vt 0.166667 0.000000
vt 0.222222 0.000000
vt 0.277778 0.000000
vt 0.333333 0.000000
vt 0.388889 0.000000
vt 0.444444 0.000000
vt 0.500000 0.000000
vt 0.555556 0.000000
vt 0.611111 0.000000
vt 0.666667 0.000000
vt 0.722222 0.000000
vt 0.777778 0.000000
vt 0.833333 0.000000
vt 0.888889 0.000000
vt 0.944444 0.000000
vt 1.000000 0.000000
vt 0.000000 0.110000
vt 0.055556 0.110000
vt 0.111111 0.110000
vt 0.166667 0.110000
vt 0.222222 0.110000
vt 0.277778 0.110000
vt 0.333333 0.110000
vt 0.388889 0.110000
vt 0.444444 0.110000
vt 0.500000 0.110000
vt 0.555556 0.110000
vt 0.611111 0.110000
vt 0.666667 0.110000
vt 0.722222 0.110000
vt 0.777778 0.110000
vt 0.833333 0.110000
vt 0.888889 0.110000
vt 0.944444 0.110000
vt 1.000000 0.110000
vt 0.000000 0.000000
vt 0.055556 0.000000
vt 0.111111 0.000000
vt 0.166667 0.000000
vt 0.222222 0.000000
vt 0.277778 0.000000
vt 0.333333 0.000000
vt 0.388889 0.000000
vt 0.444444 0.000000
vt 0.500000 0.000000
vt 0.555556 0.000000
vt 0.611111 0.000000
vt 0.666667 0.000000
vt 0.722222 0.000000
vt 0.777778 0.000000
vt 0.833333 0.000000
vt 0.888889 0.000000
vt 0.944444 0.000000
vt 1.000000 0.000000
vt 0.000000 0.110000
vt 0.055556 0.110000
vt 0.111111 0.110000
vt 0.166667 0.110000
vt 0.222222 0.110000
vt 0.277778 0.110000
vt 0.333333 0.110000
vt 0.388889 0.110000
vt 0.444444 0.110000
vt 0.500000 0.110000
vt 0.555556 0.110000
vt 0.611111 0.110000
vt 0.666667 0.110000
vt 0.722222 0.110000
vt 0.777778 0.110000
vt 0.833333 0.110000
vt 0.888889 0.110000
vt 0.944444 0.110000
vt 1.000000 0.110000
vt 0.000000 0.000000
vt 0.055556 0.000000
vt 0.111111 0.000000
vt 0.166667 0.000000
vt 0.222222 0.000000
vt 0.277778 0.000000
vt 0.333333 0.000000
vt 0.388889 0.000000
vt 0.444444 0.000000
vt 0.500000 0.000000
vt 0.555556 0.000000
vt 0.611111 0.000000
vt 0.666667 0.000000
vt 0.722222 0.000000
vt 0.777778 0.000000
vt 0.833333 0.000000
vt 0.888889 0.000000
vt 0.944444 0.000000
vt 1.000000 0.000000
vt 0.000000 0.110000
vt 0.055556 0.110000
vt 0.111111 0.110000
vt 0.166667 0.110000
vt 0.222222 0.110000
vt 0.277778 0.110000
vt 0.333333 0.110000
vt 0.388889 0.110000
vt 0.444444 0.110000
vt 0.500000 0.110000
vt 0.555556 0.110000
vt 0.611111 0.110000
vt 0.666667 0.110000
vt 0.722222 0.110000
vt 0.777778 0.110000
vt 0.833333 0.110000
vt 0.888889 0.110000
vt 0.944444 0.110000
vt 1.000000 0.110000
vt 0.000000 0.000000
vt 0.055556 0.000000
vt 0.111111 0.000000
vt 0.166667 0.000000
vt 0.222222 0.000000
vt 0.277778 0.000000
vt 0.333333 0.000000
vt 0.388889 0.000000
vt 0.444444 0.000000
vt 0.500000 0.000000
vt 0.555556 0.000000
vt 0.611111 0.000000
vt 0.666667 0.000000
vt 0.722222 0.000000
vt 0.777778 0.000000
vt 0.833333 0.000000
vt 0.888889 0.000000
vt 0.944444 0.000000
vt 1.000000 0.000000
vt 0.000000 0.110000
vt 0.055556 0.110000
vt 0.111111 0.110000
vt 0.166667 0.110000
vt 0.222222 0.110000
vt 0.277778 0.110000
vt 0.333333 0.110000
vt 0.388889 0.110000
vt 0.444444 0.110000
vt 0.500000 0.110000
vt 0.555556 0.110000
vt 0.611111 0.110000
vt 0.666667 0.110000
vt 0.722222 0.110000
vt 0.777778 0.110000
vt 0.833333 0.110000
vt 0.888889 0.110000
vt 0.944444 0.110000
vt 1.000000 0.110000
vt 0.000000 0.000000
vt 0.055556 0.000000
vt 0.111111 0.000000
vt 0.166667 0.000000
vt 0.222222 0.000000
vt 0.277778 0.000000
vt 0.333333 0.000000
vt 0.388889 0.000000
vt 0.444444 0.000000
vt 0.500000 0.000000
vt 0.555556 0.000000
vt 0.611111 0.000000
vt 0.666667 0.000000
vt 0.722222 0.000000
vt 0.777778 0.000000
vt 0.833333 0.000000
vt 0.888889 0.000000
vt 0.944444 0.000000
vt 1.000000 0.000000
vt 0.000000 0.110000
vt 0.055556 0.110000
vt 0.111111 0.110000
vt 0.166667 0.110000
vt 0.222222 0.110000
vt 0.277778 0.110000
vt 0.333333 0.110000
vt 0.388889 0.110000
vt 0.444444 0.110000
vt 0.500000 0.110000
vt 0.555556 0.110000
vt 0.611111 0.110000
vt 0.666667 0.110000
vt 0.722222 0.110000
vt 0.777778 0.110000
vt 0.833333 0.110000
vt 0.888889 0.110000
vt 0.944444 0.110000
vt 1.000000 0.110000
vt 0.000000 0.000000
vt 0.125000 0.000000
vt 0.250000 0.000000
vt 0.375000 0.000000
vt 0.500000 0.000000
vt 0.625000 0.000000
vt 0.750000 0.000000
vt 0.875000 0.000000
vt 1.000000 0.000000
vt 0.000000 0.535438
vt 0.125000 0.535438
vt 0.250000 0.535438
vt 0.375000 0.535438
vt 0.500000 0.535438
vt 0.625000 0.535438
vt 0.750000 0.535438
vt 0.875000 0.535438
vt 1.000000 0.535438
vt 0.000000 1.309229
vt 0.125000 1.309229
vt 0.250000 1.309229
vt 0.375000 1.309229
vt 0.500000 1.309229
vt 0.625000 1.309229
vt 0.750000 1.309229
vt 0.875000 1.309229
vt 1.000000 1.309229
vt 0.000000 2.150027
vt 0.125000 2.150027
vt 0.250000 2.150027
vt 0.375000 2.150027
vt 0.500000 2.150027
vt 0.625000 2.150027
vt 0.750000 2.150027
vt 0.875000 2.150027
vt 1.000000 2.150027
vt 0.000000 3.115586
vt 0.125000 3.115586
vt 0.250000 3.115586
vt 0.375000 3.115586
vt 0.500000 3.115586
vt 0.625000 3.115586
vt 0.750000 3.115586
vt 0.875000 3.115586
vt 1.000000 3.115586
vt 0.000000 4.164434
vt 0.125000 4.164434
vt 0.250000 4.164434
vt 0.375000 4.164434
vt 0.500000 4.164434
vt 0.625000 4.164434
vt 0.750000 4.164434
vt 0.875000 4.164434
vt 1.000000 4.164434
vt 0.000000 4.989329
vt 0.125000 4.989329
vt 0.250000 4.989329
vt 0.375000 4.989329
vt 0.500000 4.989329
vt 0.625000 4.989329
vt 0.750000 4.989329
vt 0.875000 4.989329
vt 1.000000 4.989329
vt 0.000000 5.471892
vt 0.125000 5.471892
vt 0.250000 5.471892
vt 0.375000 5.471892
vt 0.500000 5.471892
vt 0.625000 5.471892
vt 0.750000 5.471892
vt 0.875000 5.471892
vt 1.000000 5.471892
vt 0.000000 5.803348
vt 0.125000 5.803348
vt 0.250000 5.803348
vt 0.375000 5.803348
vt 0.500000 5.803348
vt 0.625000 5.803348
vt 0.750000 5.803348
vt 0.875000 5.803348
vt 1.000000 5.803348
vt 0.000000 6.026187
vt 0.125000 6.026187
vt 0.250000 6.026187
vt 0.375000 6.026187
vt 0.500000 6.026187
vt 0.625000 6.026187
vt 0.750000 6.026187
vt 0.875000 6.026187
vt 1.000000 6.026187
vt 0.000000 0.000000
vt 0.125000 0.000000
vt 0.250000 0.000000
vt 0.375000 0.000000
vt 0.500000 0.000000
vt 0.625000 0.000000
vt 0.750000 0.000000
vt 0.875000 0.000000
vt 1.000000 0.000000
vt 0.000000 0.327626
vt 0.125000 0.327626
vt 0.250000 0.327626
vt 0.375000 0.327626
vt 0.500000 0.327626
vt 0.625000 0.327626
vt 0.750000 0.327626
vt 0.875000 0.327626
vt 1.000000 0.327626
vt 0.000000 0.782473
vt 0.125000 0.782473
vt 0.250000 0.782473
vt 0.375000 0.782473
vt 0.500000 0.782473
vt 0.625000 0.782473
vt 0.750000 0.782473
vt 0.875000 0.782473
vt 1.000000 0.782473
vt 0.000000 1.218001
vt 0.125000 1.218001
vt 0.250000 1.218001
vt 0.375000 1.218001
vt 0.500000 1.218001
vt 0.625000 1.218001
vt 0.750000 1.218001
vt 0.875000 1.218001
vt 1.000000 1.218001
vt 0.000000 1.924943
vt 0.125000 1.924943
vt 0.250000 1.924943
vt 0.375000 1.924943
vt 0.500000 1.924943
vt 0.625000 1.924943
vt 0.750000 1.924943
vt 0.875000 1.924943
vt 1.000000 1.924943
vt 0.000000 2.832351
vt 0.125000 2.832351
vt 0.250000 2.832351
vt 0.375000 2.832351
vt 0.500000 2.832351
vt 0.625000 2.832351
vt 0.750000 2.832351
vt 0.875000 2.832351
vt 1.000000 2.832351
vt 0.000000 3.539292
vt 0.125000 3.539292
vt 0.250000 3.539292
vt 0.375000 3.539292
vt 0.500000 3.539292
vt 0.625000 3.539292
vt 0.750000 3.539292
vt 0.875000 3.539292
vt 1.000000 3.539292
vt 0.000000 3.974820
vt 0.125000 3.974820
vt 0.250000 3.974820
vt 0.375000 3.974820
vt 0.500000 3.974820
vt 0.625000 3.974820
vt 0.750000 3.974820
vt 0.875000 3.974820
vt 1.000000 3.974820
vt 0.000000 4.429668
vt 0.125000 4.429668
vt 0.250000 4.429668
vt 0.375000 4.429668
vt 0.500000 4.429668
vt 0.625000 4.429668
vt 0.750000 4.429668
vt 0.875000 4.429668
vt 1.000000 4.429668
vt 0.000000 4.757294
vt 0.125000 4.757294
vt 0.250000 4.757294
vt 0.375000 4.757294
vt 0.500000 4.757294
vt 0.625000 4.757294
vt 0.750000 4.757294
vt 0.875000 4.757294
vt 1.000000 4.757294
vt 0.000000 0.000000
vt 0.166667 0.000000
vt 0.333333 0.000000
vt 0.500000 0.000000
vt 0.666667 0.000000
vt 0.833333 0.000000
vt 1.000000 0.000000
vt 0.000000 1.100000
vt 0.166667 1.100000
vt 0.333333 1.100000
vt 0.500000 1.100000
vt 0.666667 1.100000
vt 0.833333 1.100000
vt 1.000000 1.100000
vt 0.000000 0.000000
vt 0.166667 0.000000
vt 0.333333 0.000000
vt 0.500000 0.000000
vt 0.666667 0.000000
vt 0.833333 0.000000
vt 1.000000 0.000000
vt 0.000000 1.100000
vt 0.166667 1.100000
vt 0.333333 1.100000
vt 0.500000 1.100000
vt 0.666667 1.100000
vt 0.833333 1.100000
vt 1.000000 1.100000
vt 0.000000 0.000000
vt 0.166667 0.000000
vt 0.333333 0.000000
vt 0.500000 0.000000
vt 0.666667 0.000000
vt 0.833333 0.000000
vt 1.000000 0.000000
vt 0.000000 1.100000
vt 0.166667 1.100000
vt 0.333333 1.100000
vt 0.500000 1.100000
vt 0.666667 1.100000
vt 0.833333 1.100000
vt 1.000000 1.100000
vt 0.000000 0.000000
vt 0.125000 0.000000
vt 0.250000 0.000000
vt 0.375000 0.000000
vt 0.500000 0.000000
vt 0.625000 0.000000
vt 0.750000 0.000000
vt 0.875000 0.000000
vt 1.000000 0.000000
vt 0.000000 0.535438
vt 0.125000 0.535438
vt 0.250000 0.535438
vt 0.375000 0.535438
vt 0.500000 0.535438
vt 0.625000 0.535438
vt 0.750000 0.535438
vt 0.875000 0.535438
vt 1.000000 0.535438
vt 0.000000 1.309229
vt 0.125000 1.309229
vt 0.250000 1.309229
vt 0.375000 1.309229
vt 0.500000 1.309229
vt 0.625000 1.309229
vt 0.750000 1.309229
vt 0.875000 1.309229
vt 1.000000 1.309229
vt 0.000000 2.150027
vt 0.125000 2.150027
vt 0.250000 2.150027
vt 0.375000 2.150027
vt 0.500000 2.150027
vt 0.625000 2.150027
vt 0.750000 2.150027
vt 0.875000 2.150027
vt 1.000000 2.150027
vt 0.000000 3.115586
vt 0.125000 3.115586
vt 0.250000 3.115586
vt 0.375000 3.115586
vt 0.500000 3.115586
vt 0.625000 3.115586
vt 0.750000 3.115586
vt 0.875000 3.115586
vt 1.000000 3.115586
vt 0.000000 4.164434
vt 0.125000 4.164434
vt 0.250000 4.164434
vt 0.375000 4.164434
vt 0.500000 4.164434
vt 0.625000 4.164434
vt 0.750000 4.164434
vt 0.875000 4.164434
vt 1.000000 4.164434
vt 0.000000 4.989329
vt 0.125000 4.989329
vt 0.250000 4.989329
vt 0.375000 4.989329
vt 0.500000 4.989329
vt 0.625000 4.989329
vt 0.750000 4.989329
vt 0.875000 4.989329
vt 1.000000 4.989329
vt 0.000000 5.471892
vt 0.125000 5.471892
vt 0.250000 5.471892
vt 0.375000 5.471892
vt 0.500000 5.471892
vt 0.625000 5.471892
vt 0.750000 5.471892
vt 0.875000 5.471892
vt 1.000000 5.471892
vt 0.000000 5.803348
vt 0.125000 5.803348
vt 0.250000 5.803348
vt 0.375000 5.803348
vt 0.500000 5.803348
vt 0.625000 5.803348
vt 0.750000 5.803348
vt 0.875000 5.803348
vt 1.000000 5.803348
vt 0.000000 6.026187
vt 0.125000 6.026187
vt 0.250000 6.026187
vt 0.375000 6.026187
vt 0.500000 6.026187
vt 0.625000 6.026187
vt 0.750000 6.026187
vt 0.875000 6.026187
vt 1.000000 6.026187
vt 0.000000 0.000000
vt 0.125000 0.000000
vt 0.250000 0.000000
vt 0.375000 0.000000
vt 0.500000 0.000000
vt 0.625000 0.000000
vt 0.750000 0.000000
vt 0.875000 0.000000
vt 1.000000 0.000000
vt 0.000000 0.327626
vt 0.125000 0.327626
vt 0.250000 0.327626
vt 0.375000 0.327626
vt 0.500000 0.327626
vt 0.625000 0.327626
vt 0.750000 0.327626
vt 0.875000 0.327626
vt 1.000000 0.327626
vt 0.000000 0.782473
vt 0.125000 0.782473
vt 0.250000 0.782473
vt 0.375000 0.782473
vt 0.500000 0.782473
vt 0.625000 0.782473
vt 0.750000 0.782473
vt 0.875000 0.782473
vt 1.000000 0.782473
vt 0.000000 1.218001
vt 0.125000 1.218001
vt 0.250000 1.218001
vt 0.375000 1.218001
vt 0.500000 1.218001
vt 0.625000 1.218001
vt 0.750000 1.218001
vt 0.875000 1.218001
vt 1.000000 1.218001
vt 0.000000 1.924943
vt 0.125000 1.924943
vt 0.250000 1.924943
vt 0.375000 1.924943
vt 0.500000 1.924943
vt 0.625000 1.924943
vt 0.750000 1.924943
vt 0.875000 1.924943
vt 1.000000 1.924943
vt 0.000000 2.832351
vt 0.125000 2.832351
vt 0.250000 2.832351
vt 0.375000 2.832351
vt 0.500000 2.832351
vt 0.625000 2.832351
vt 0.750000 2.832351
vt 0.875000 2.832351
vt 1.000000 2.832351
vt 0.000000 3.539292
vt 0.125000 3.539292
vt 0.250000 3.539292
vt 0.375000 3.539292
vt 0.500000 3.539292
vt 0.625000 3.539292
vt 0.750000 3.539292
vt 0.875000 3.539292
vt 1.000000 3.539292
vt 0.000000 3.974820
vt 0.125000 3.974820
vt 0.250000 3.974820
vt 0.375000 3.974820
vt 0.500000 3.974820
vt 0.625000 3.974820
vt 0.750000 3.974820
vt 0.875000 3.974820
vt 1.000000 3.974820
vt 0.000000 4.429668
vt 0.125000 4.429668
vt 0.250000 4.429668
vt 0.375000 4.429668
vt 0.500000 4.429668
vt 0.625000 4.429668
vt 0.750000 4.429668
vt 0.875000 4.429668
vt 1.000000 4.429668
vt 0.000000 4.757294
vt 0.125000 4.757294
vt 0.250000 4.757294
vt 0.375000 4.757294
vt 0.500000 4.757294
vt 0.625000 4.757294
vt 0.750000 4.757294
vt 0.875000 4.757294
vt 1.000000 4.757294
vt 0.000000 0.000000
vt 0.166667 0.000000
vt 0.333333 0.000000
vt 0.500000 0.000000
vt 0.666667 0.000000
vt 0.833333 0.000000
vt 1.000000 0.000000
vt 0.000000 1.100000
vt 0.166667 1.100000
vt 0.333333 1.100000
vt 0.500000 1.100000
vt 0.666667 1.100000
vt 0.833333 1.100000
vt 1.000000 1.100000
vt 0.000000 0.000000
vt 0.166667 0.000000
vt 0.333333 0.000000
vt 0.500000 0.000000
vt 0.666667 0.000000
vt 0.833333 0.000000
vt 1.000000 0.000000
vt 0.000000 1.100000
vt 0.166667 1.100000
vt 0.333333 1.100000
vt 0.500000 1.100000
vt 0.666667 1.100000
vt 0.833333 1.100000
vt 1.000000 1.100000
vt 0.000000 0.000000
vt 0.166667 0.000000
vt 0.333333 0.000000
vt 0.500000 0.000000
vt 0.666667 0.000000
vt 0.833333 0.000000
vt 1.000000 0.000000
vt 0.000000 1.100000
vt 0.166667 1.100000
vt 0.333333 1.100000
vt 0.500000 1.100000
vt 0.666667 1.100000
vt 0.833333 1.100000
vt 1.000000 1.100000
f 14/14 15/15 2/2 1/1
f 15/15 16/16 3/3 2/2
f 16/16 17/17 4/4 3/3
f 17/17 18/18 5/5 4/4
f 18/18 19/19 6/6 5/5
f 19/19 20/20 7/7 6/6
f 20/20 21/21 8/8 7/7
f 21/21 22/22 9/9 8/8
f 22/22 23/23 10/10 9/9
f 23/23 24/24 11/11 10/10
f 24/24 25/25 12/12 11/11
f 25/25 26/26 13/13 12/12
f 1/1 2/2 3/3 4/4 5/5 6/6 7/7 8/8 9/9 10/10 11/11 12/12
f 25/25 24/24 23/23 22/22 21/21 20/20 19/19 18/18 17/17 16/16 15/15 14/14
f 40/40 41/41 28/28 27/27
f 41/41 42/42 29/29 28/28
f 42/42 43/43 30/30 29/29
f 43/43 44/44 31/31 30/30
f 44/44 45/45 32/32 31/31
f 45/45 46/46 33/33 32/32
f 46/46 47/47 34/34 33/33
f 47/47 48/48 35/35 34/34
f 48/48 49/49 36/36 35/35
f 49/49 50/50 37/37 36/36
f 50/50 51/51 38/38 37/37
f 51/51 52/52 39/39 38/38
f 27/27 28/28 29/29 30/30 31/31 32/32 33/33 34/34 35/35 36/36 37/37 38/38
f 51/51 50/50 49/49 48/48 47/47 46/46 45/45 44/44 43/43 42/42 41/41 40/40
f 66/66 67/67 54/54 53/53
f 67/67 68/68 55/55 54/54
f 68/68 69/69 56/56 55/55
f 69/69 70/70 57/57 56/56
f 70/70 71/71 58/58 57/57
f 71/71 72/72 59/59 58/58
f 72/72 73/73 60/60 59/59
f 73/73 74/74 61/61 60/60
f 74/74 75/75 62/62 61/61
f 75/75 76/76 63/63 62/62
f 76/76 77/77 64/64 63/63
f 77/77 78/78 65/65 64/64
f 53/53 54/54 55/55 56/56 57/57 58/58 59/59 60/60 61/61 62/62 63/63 64/64
f 77/77 76/76 75/75 74/74 73/73 72/72 71/71 70/70 69/69 68/68 67/67 66/66
f 92/92 93/93 80/80 79/79
f 93/93 94/94 81/81 80/80
f 94/94 95/95 82/82 81/81
f 95/95 96/96 83/83 82/82
f 96/96 97/97 84/84 83/83
f 97/97 98/98 85/85 84/84
f 98/98 99/99 86/86 85/85
f 99/99 100/100 87/87 86/86
f 100/100 101/101 88/88 87/87
f 101/101 102/102 89/89 88/88
f 102/102 103/103 90/90 89/89
f 103/103 104/104 91/91 90/90
f 79/79 80/80 81/81 82/82 83/83 84/84 85/85 86/86 87/87 88/88 89/89 90/90
f 103/103 102/102 101/101 100/100 99/99 98/98 97/97 96/96 95/95 94/94 93/93 92/92
f 118/118 119/119 106/106 105/105
f 119/119 120/120 107/107 106/106
f 120/120 121/121 108/108 107/107
f 121/121 122/122 109/109 108/108
f 122/122 123/123 110/110 109/109
f 123/123 124/124 111/111 110/110
f 124/124 125/125 112/112 111/111
f 125/125 126/126 113/113 112/112
f 126/126 127/127 114/114 113/113
f 127/127 128/128 115/115 114/114
f 128/128 129/129 116/116 115/115
f 129/129 130/130 117/117 116/116
f 105/105 106/106 107/107 108/108 109/109 110/110 111/111 112/112 113/113 114/114 115/115 116/116
f 129/129 128/128 127/127 126/126 125/125 124/124 123/123 122/122 121/121 120/120 119/119 118/118
f 144/144 145/145 132/132 131/131
f 145/145 146/146 133/133 132/132
f 146/146 147/147 134/134 133/133
f 147/147 148/148 135/135 134/134
f 148/148 149/149 136/136 135/135
f 149/149 150/150 137/137 136/136
f 150/150 151/151 138/138 137/137
f 151/151 152/152 139/139 138/138
f 152/152 153/153 140/140 139/139
f 153/153 154/154 141/141 140/140
f 154/154 155/155 142/142 141/141
f 155/155 156/156 143/143 142/142
f 131/131 132/132 133/133 134/134 135/135 136/136 137/137 138/138 139/139 140/140 141/141 142/142
f 155/155 154/154 153/153 152/152 151/151 150/150 149/149 148/148 147/147 146/146 145/145 144/144
f 170/170 171/171 158/158 157/157
f 171/171 172/172 159/159 158/158
f 172/172 173/173 160/160 159/159
f 173/173 174/174 161/161 160/160
f 174/174 175/175 162/162 161/161
f 175/175 176/176 163/163 162/162
f 176/176 177/177 164/164 163/163
f 177/177 178/178 165/165 164/164
f 178/178 179/179 166/166 165/165
f 179/179 180/180 167/167 166/166
f 180/180 181/181 168/168 167/167
f 181/181 182/182 169/169 168/168
f 157/157 158/158 159/159 160/160 161/161 162/162 163/163 164/164 165/165 166/166 167/167 168/168
f 181/181 180/180 179/179 178/178 177/177 176/176 175/175 174/174 173/173 172/172 171/171 170/170
f 196/196 197/197 184/184 183/183
f 197/197 198/198 185/185 184/184
f 198/198 199/199 186/186 185/185
f 199/199 200/200 187/187 186/186
f 200/200 201/201 188/188 187/187
f 201/201 202/202 189/189 188/188
f 202/202 203/203 190/190 189/189
f 203/203 204/204 191/191 190/190
f 204/204 205/205 192/192 191/191
f 205/205 206/206 193/193 192/192
f 206/206 207/207 194/194 193/193
f 207/207 208/208 195/195 194/194
f 183/183 184/184 185/185 186/186 187/187 188/188 189/189 190/190 191/191 192/192 193/193 194/194
f 207/207 206/206 205/205 204/204 203/203 202/202 201/201 200/200 199/199 198/198 197/197 196/196
f 222/222 223/223 210/210 209/209
f 223/223 224/224 211/211 210/210
f 224/224 225/225 212/212 211/211
f 225/225 226/226 213/213 212/212
f 226/226 227/227 214/214 213/213
f 227/227 228/228 215/215 214/214
f 228/228 229/229 216/216 215/215
f 229/229 230/230 217/217 216/216
f 230/230 231/231 218/218 217/217
f 231/231 232/232 219/219 218/218
f 232/232 233/233 220/220 219/219
f 233/233 234/234 221/221 220/220
f 209/209 210/210 211/211 212/212 213/213 214/214 215/215 216/216 217/217 218/218 219/219 220/220
f 233/233 232/232 231/231 230/230 229/229 228/228 227/227 226/226 225/225 224/224 223/223 222/222
f 248/248 249/249 236/236 235/235
f 249/249 250/250 237/237 236/236
f 250/250 251/251 238/238 237/237
f 251/251 252/252 239/239 238/238
f 252/252 253/253 240/240 239/239
f 253/253 254/254 241/241 240/240
f 254/254 255/255 242/242 241/241
f 255/255 256/256 243/243 242/242
f 256/256 257/257 244/244 243/243
f 257/257 258/258 245/245 244/244
f 258/258 259/259 246/246 245/245
f 259/259 260/260 247/247 246/246
f 235/235 236/236 237/237 238/238 239/239 240/240 241/241 242/242 243/243 244/244 245/245 246/246
f 259/259 258/258 257/257 256/256 255/255 254/254 253/253 252/252 251/251 250/250 249/249 248/248
f 274/274 275/275 262/262 261/261
f 275/275 276/276 263/263 262/262
f 276/276 277/277 264/264 263/263
f 277/277 278/278 265/265 264/264
f 278/278 279/279 266/266 265/265
f 279/279 280/280 267/267 266/266
f 280/280 281/281 268/268 267/267
f 281/281 282/282 269/269 268/268
f 282/282 283/283 270/270 269/269
f 283/283 284/284 271/271 270/270
f 284/284 285/285 272/272 271/271
f 285/285 286/286 273/273 272/272
f 261/261 262/262 263/263 264/264 265/265 266/266 267/267 268/268 269/269 270/270 271/271 272/272
f 285/285 284/284 283/283 282/282 281/281 280/280 279/279 278/278 277/277 276/276 275/275 274/274
f 300/300 301/301 288/288 287/287
f 301/301 302/302 289/289 288/288
f 302/302 303/303 290/290 289/289
f 303/303 304/304 291/291 290/290
f 304/304 305/305 292/292 291/291
f 305/305 306/306 293/293 292/292
f 306/306 307/307 294/294 293/293
f 307/307 308/308 295/295 294/294
f 308/308 309/309 296/296 295/295
f 309/309 310/310 297/297 296/296
f 310/310 311/311 298/298 297/297
f 311/311 312/312 299/299 298/298
f 287/287 288/288 289/289 290/290 291/291 292/292 293/293 294/294 295/295 296/296 297/297 298/298
f 311/311 310/310 309/309 308/308 307/307 306/306 305/305 304/304 303/303 302/302 301/301 300/300
f 332/332 333/333 314/314 313/313
f 333/333 334/334 315/315 314/314
f 334/334 335/335 316/316 315/315
f 335/335 336/336 317/317 316/316
f 336/336 337/337 318/318 317/317
f 337/337 338/338 319/319 318/318
f 338/338 339/339 320/320 319/319
f 339/339 340/340 321/321 320/320
f 340/340 341/341 322/322 321/321
f 341/341 342/342 323/323 322/322
f 342/342 343/343 324/324 323/323
f 343/343 344/344 325/325 324/324
f 344/344 345/345 326/326 325/325
f 345/345 346/346 327/327 326/326
f 346/346 347/347 328/328 327/327
f 347/347 348/348 329/329 328/328
f 348/348 349/349 330/330 329/329
f 349/349 350/350 331/331 330/330
f 313/313 314/314 315/315 316/316 317/317 318/318 319/319 320/320 321/321 322/322 323/323 324/324 325/325 326/326 327/327 328/328 329/329 330/330
f 349/349 348/348 347/347 346/346 345/345 344/344 343/343 342/342 341/341 340/340 339/339 338/338 337/337 336/336 335/335 334/334 333/333 332/332
f 370/370 371/371 352/352 351/351
f 371/371 372/372 353/353 352/352
f 372/372 373/373 354/354 353/353
f 373/373 374/374 355/355 354/354
f 374/374 375/375 356/356 355/355
f 375/375 376/376 357/357 356/356
f 376/376 377/377 358/358 357/357
f 377/377 378/378 359/359 358/358
f 378/378 379/379 360/360 359/359
f 379/379 380/380 361/361 360/360
f 380/380 381/381 362/362 361/361
f 381/381 382/382 363/363 362/362
f 382/382 383/383 364/364 363/363
f 383/383 384/384 365/365 364/364
f 384/384 385/385 366/366 365/365
f 385/385 386/386 367/367 366/366
f 386/386 387/387 368/368 367/367
f 387/387 388/388 369/369 368/368
f 351/351 352/352 353/353 354/354 355/355 356/356 357/357 358/358 359/359 360/360 361/361 362/362 363/363 364/364 365/365 366/366 367/367 368/368
f 387/387 386/386 385/385 384/384 383/383 382/382 381/381 380/380 379/379 378/378 377/377 376/376 375/375 374/374 373/373 372/372 371/371 370/370
f 408/408 409/409 390/390 389/389
f 409/409 410/410 391/391 390/390
f 410/410 411/411 392/392 391/391
f 411/411 412/412 393/393 392/392
f 412/412 413/413 394/394 393/393
f 413/413 414/414 395/395 394/394
f 414/414 415/415 396/396 395/395
f 415/415 416/416 397/397 396/396
f 416/416 417/417 398/398 397/397
f 417/417 418/418 399/399 398/398
f 418/418 419/419 400/400 399/399
f 419/419 420/420 401/401 400/400
f 420/420 421/421 402/402 401/401
f 421/421 422/422 403/403 402/402
f 422/422 423/423 404/404 403/403
f 423/423 424/424 405/405 404/404
f 424/424 425/425 406/406 405/405
f 425/425 426/426 407/407 406/406
f 389/389 390/390 391/391 392/392 393/393 394/394 395/395 396/396 397/397 398/398 399/399 400/400 401/401 402/402 403/403 404/404 405/405 406/406
f 425/425 424/424 423/423 422/422 421/421 420/420 419/419 418/418 417/417 416/416 415/415 414/414 413/413 412/412 411/411 410/410 409/409 408/408
f 446/446 447/447 428/428 427/427
f 447/447 448/448 429/429 428/428
f 448/448 449/449 430/430 429/429
f 449/449 450/450 431/431 430/430
f 450/450 451/451 432/432 431/431
f 451/451 452/452 433/433 432/432
f 452/452 453/453 434/434 433/433
f 453/453 454/454 435/435 434/434
f 454/454 455/455 436/436 435/435
f 455/455 456/456 437/437 436/436
f 456/456 457/457 438/438 437/437
f 457/457 458/458 439/439 438/438
f 458/458 459/459 440/440 439/439
f 459/459 460/460 441/441 440/440
f 460/460 461/461 442/442 441/441
f 461/461 462/462 443/443 442/442
f 462/462 463/463 444/444 443/443
f 463/463 464/464 445/445 444/444
f 427/427 428/428 429/429 430/430 431/431 432/432 433/433 434/434 435/435 436/436 437/437 438/438 439/439 440/440 441/441 442/442 443/443 444/444
f 463/463 462/462 461/461 460/460 459/459 458/458 457/457 456/456 455/455 454/454 453/453 452/452 451/451 450/450 449/449 448/448 447/447 446/446
f 484/484 485/485 466/466 465/465
f 485/485 486/486 467/467 466/466
f 486/486 487/487 468/468 467/467
f 487/487 488/488 469/469 468/468
f 488/488 489/489 470/470 469/469
f 489/489 490/490 471/471 470/470
f 490/490 491/491 472/472 471/471
f 491/491 492/492 473/473 472/472
f 492/492 493/493 474/474 473/473
f 493/493 494/494 475/475 474/474
f 494/494 495/495 476/476 475/475
f 495/495 496/496 477/477 476/476
f 496/496 497/497 478/478 477/477
f 497/497 498/498 479/479 478/478
f 498/498 499/499 480/480 479/479
f 499/499 500/500 481/481 480/480
f 500/500 501/501 482/482 481/481
f 501/501 502/502 483/483 482/482
f 465/465 466/466 467/467 468/468 469/469 470/470 471/471 472/472 473/473 474/474 475/475 476/476 477/477 478/478 479/479 480/480 481/481 482/482
f 501/501 500/500 499/499 498/498 497/497 496/496 495/495 494/494 493/493 492/492 491/491 490/490 489/489 488/488 487/487 486/486 485/485 484/484
f 512/512 513/513 504/504 503/503
f 513/513 514/514 505/505 504/504
f 514/514 515/515 506/506 505/505
f 515/515 516/516 507/507 506/506
f 516/516 517/517 508/508 507/507
f 517/517 518/518 509/509 508/508
f 518/518 519/519 510/510 509/509
f 519/519 520/520 511/511 510/510
f 521/521 522/522 513/513 512/512
f 522/522 523/523 514/514 513/513
f 523/523 524/524 515/515 514/514
f 524/524 525/525 516/516 515/515
f 525/525 526/526 517/517 516/516
f 526/526 527/527 518/518 517/517
f 527/527 528/528 519/519 518/518
f 528/528 529/529 520/520 519/519
f 530/530 531/531 522/522 521/521
f 531/531 532/532 523/523 522/522
f 532/532 533/533 524/524 523/523
f 533/533 534/534 525/525 524/524
f 534/534 535/535 526/526 525/525
f 535/535 536/536 527/527 526/526
f 536/536 537/537 528/528 527/527
f 537/537 538/538 529/529 528/528
f 539/539 540/540 531/531 530/530
f 540/540 541/541 532/532 531/531
f 541/541 542/542 533/533 532/532
f 542/542 543/543 534/534 533/533
f 543/543 544/544 535/535 534/534
f 544/544 545/545 536/536 535/535
f 545/545 546/546 537/537 536/536
f 546/546 547/547 538/538 537/537
f 548/548 549/549 540/540 539/539
f 549/549 550/550 541/541 540/540
f 550/550 551/551 542/542 541/541
f 551/551 552/552 543/543 542/542
f 552/552 553/553 544/544 543/543
f 553/553 554/554 545/545 544/544
f 554/554 555/555 546/546 545/545
f 555/555 556/556 547/547 546/546
f 557/557 558/558 549/549 548/548
f 558/558 559/559 550/550 549/549
f 559/559 560/560 551/551 550/550
f 560/560 561/561 552/552 551/551
f 561/561 562/562 553/553 552/552
f 562/562 563/563 554/554 553/553
f 563/563 564/564 555/555 554/554
f 564/564 565/565 556/556 555/555
f 566/566 567/567 558/558 557/557
f 567/567 568/568 559/559 558/558
f 568/568 569/569 560/560 559/559
f 569/569 570/570 561/561 560/560
f 570/570 571/571 562/562 561/561
f 571/571 572/572 563/563 562/562
f 572/572 573/573 564/564 563/563
f 573/573 574/574 565/565 564/564
f 575/575 576/576 567/567 566/566
f 576/576 577/577 568/568 567/567
f 577/577 578/578 569/569 568/568
f 578/578 579/579 570/570 569/569
f 579/579 580/580 571/571 570/570
f 580/580 581/581 572/572 571/571
f 581/581 582/582 573/573 572/572
f 582/582 583/583 574/574 573/573
f 584/584 585/585 576/576 575/575
f 585/585 586/586 577/577 576/576
f 586/586 587/587 578/578 577/577
f 587/587 588/588 579/579 578/578
f 588/588 589/589 580/580 579/579
f 589/589 590/590 581/581 580/580
f 590/590 591/591 582/582 581/581
f 591/591 592/592 583/583 582/582
f 503/503 504/504 505/505 506/506 507/507 508/508 509/509 510/510
f 591/591 590/590 589/589 588/588 587/587 586/586 585/585 584/584
f 602/602 603/603 594/594 593/593
f 603/603 604/604 595/595 594/594
f 604/604 605/605 596/596 595/595
f 605/605 606/606 597/597 596/596
f 606/606 607/607 598/598 597/597
f 607/607 608/608 599/599 598/598
f 608/608 609/609 600/600 599/599
f 609/609 610/610 601/601 600/600
f 611/611 612/612 603/603 602/602
f 612/612 613/613 604/604 603/603
f 613/613 614/614 605/605 604/604
f 614/614 615/615 606/606 605/605
f 615/615 616/616 607/607 606/606
f 616/616 617/617 608/608 607/607
f 617/617 618/618 609/609 608/608
f 618/618 619/619 610/610 609/609
f 620/620 621/621 612/612 611/611
f 621/621 622/622 613/613 612/612
f 622/622 623/623 614/614 613/613
f 623/623 624/624 615/615 614/614
f 624/624 625/625 616/616 615/615
f 625/625 626/626 617/617 616/616
f 626/626 627/627 618/618 617/617
f 627/627 628/628 619/619 618/618
f 629/629 630/630 621/621 620/620
f 630/630 631/631 622/622 621/621
f 631/631 632/632 623/623 622/622
f 632/632 633/633 624/624 623/623
f 633/633 634/634 625/625 624/624
f 634/634 635/635 626/626 625/625
f 635/635 636/636 627/627 626/626
f 636/636 637/637 628/628 627/627
f 638/638 639/639 630/630 629/629
f 639/639 640/640 631/631 630/630
f 640/640 641/641 632/632 631/631
f 641/641 642/642 633/633 632/632
f 642/642 643/643 634/634 633/633
f 643/643 644/644 635/635 634/634
f 644/644 645/645 636/636 635/635
f 645/645 646/646 637/637 636/636
f 647/647 648/648 639/639 638/638
f 648/648 649/649 640/640 639/639
f 649/649 650/650 641/641 640/640
f 650/650 651/651 642/642 641/641
f 651/651 652/652 643/643 642/642
f 652/652 653/653 644/644 643/643
f 653/653 654/654 645/645 644/644
f 654/654 655/655 646/646 645/645
f 656/656 657/657 648/648 647/647
f 657/657 658/658 649/649 648/648
f 658/658 659/659 650/650 649/649
f 659/659 660/660 651/651 650/650
f 660/660 661/661 652/652 651/651
f 661/661 662/662 653/653 652/652
f 662/662 663/663 654/654 653/653
f 663/663 664/664 655/655 654/654
f 665/665 666/666 657/657 656/656
f 666/666 667/667 658/658 657/657
f 667/667 668/668 659/659 658/658
f 668/668 669/669 660/660 659/659
f 669/669 670/670 661/661 660/660
f 670/670 671/671 662/662 661/661
f 671/671 672/672 663/663 662/662
f 672/672 673/673 664/664 663/663
f 674/674 675/675 666/666 665/665
f 675/675 676/676 667/667 666/666
f 676/676 677/677 668/668 667/667
f 677/677 678/678 669/669 668/668
f 678/678 679/679 670/670 669/669
f 679/679 680/680 671/671 670/670
f 680/680 681/681 672/672 671/671
f 681/681 682/682 673/673 672/672
f 593/593 594/594 595/595 596/596 597/597 598/598 599/599 600/600
f 681/681 680/680 679/679 678/678 677/677 676/676 675/675 674/674
f 690/690 691/691 684/684 683/683
f 691/691 692/692 685/685 684/684
f 692/692 693/693 686/686 685/685
f 693/693 694/694 687/687 686/686
f 694/694 695/695 688/688 687/687
f 695/695 696/696 689/689 688/688
f 683/683 684/684 685/685 686/686 687/687 688/688
f 695/695 694/694 693/693 692/692 691/691 690/690
f 704/704 705/705 698/698 697/697
f 705/705 706/706 699/699 698/698
f 706/706 707/707 700/700 699/699
f 707/707 708/708 701/701 700/700
f 708/708 709/709 702/702 701/701
f 709/709 710/710 703/703 702/702
f 697/697 698/698 699/699 700/700 701/701 702/702
f 709/709 708/708 707/707 706/706 705/705 704/704
f 718/718 719/719 712/712 711/711
f 719/719 720/720 713/713 712/712
f 720/720 721/721 714/714 713/713
f 721/721 722/722 715/715 714/714
f 722/722 723/723 716/716 715/715
f 723/723 724/724 717/717 716/716
f 711/711 712/712 713/713 714/714 715/715 716/716
f 723/723 722/722 721/721 720/720 719/719 718/718
f 734/734 735/735 726/726 725/725
f 735/735 736/736 727/727 726/726
f 736/736 737/737 728/728 727/727
f 737/737 738/738 729/729 728/728
f 738/738 739/739 730/730 729/729
f 739/739 740/740 731/731 730/730
f 740/740 741/741 732/732 731/731
f 741/741 742/742 733/733 732/732
f 743/743 744/744 735/735 734/734
f 744/744 745/745 736/736 735/735
f 745/745 746/746 737/737 736/736
f 746/746 747/747 738/738 737/737
f 747/747 748/748 739/739 738/738
f 748/748 749/749 740/740 739/739
f 749/749 750/750 741/741 740/740
f 750/750 751/751 742/742 741/741
f 752/752 753/753 744/744 743/743
f 753/753 754/754 745/745 744/744
f 754/754 755/755 746/746 745/745
f 755/755 756/756 747/747 746/746
f 756/756 757/757 748/748 747/747
f 757/757 758/758 749/749 748/748
f 758/758 759/759 750/750 749/749
f 759/759 760/760 751/751 750/750
f 761/761 762/762 753/753 752/752
f 762/762 763/763 754/754 753/753
f 763/763 764/764 755/755 754/754
f 764/764 765/765 756/756 755/755
f 765/765 766/766 757/757 756/756
f 766/766 767/767 758/758 757/757
f 767/767 768/768 759/759 758/758
f 768/768 769/769 760/760 759/759
f 770/770 771/771 762/762 761/761
f 771/771 772/772 763/763 762/762
f 772/772 773/773 764/764 763/763
f 773/773 774/774 765/765 764/764
f 774/774 775/775 766/766 765/765
f 775/775 776/776 767/767 766/766
f 776/776 777/777 768/768 767/767
f 777/777 778/778 769/769 768/768
f 779/779 780/780 771/771 770/770
f 780/780 781/781 772/772 771/771
f 781/781 782/782 773/773 772/772
f 782/782 783/783 774/774 773/773
f 783/783 784/784 775/775 774/774
f 784/784 785/785 776/776 775/775
f 785/785 786/786 777/777 776/776
f 786/786 787/787 778/778 777/777
f 788/788 789/789 780/780 779/779
f 789/789 790/790 781/781 780/780
f 790/790 791/791 782/782 781/781
f 791/791 792/792 783/783 782/782
f 792/792 793/793 784/784 783/783
f 793/793 794/794 785/785 784/784
f 794/794 795/795 786/786 785/785
f 795/795 796/796 787/787 786/786
f 797/797 798/798 789/789 788/788
f 798/798 799/799 790/790 789/789
f 799/799 800/800 791/791 790/790
f 800/800 801/801 792/792 791/791
f 801/801 802/802 793/793 792/792
f 802/802 803/803 794/794 793/793
f 803/803 804/804 795/795 794/794
f 804/804 805/805 796/796 795/795
f 806/806 807/807 798/798 797/797
f 807/807 808/808 799/799 798/798
f 808/808 809/809 800/800 799/799
f 809/809 810/810 801/801 800/800
f 810/810 811/811 802/802 801/801
f 811/811 812/812 803/803 802/802
f 812/812 813/813 804/804 803/803
f 813/813 814/814 805/805 804/804
f 725/725 726/726 727/727 728/728 729/729 730/730 731/731 732/732
f 813/813 812/812 811/811 810/810 809/809 808/808 807/807 806/806
f 824/824 825/825 816/816 815/815
f 825/825 826/826 817/817 816/816
f 826/826 827/827 818/818 817/817
f 827/827 828/828 819/819 818/818
f 828/828 829/829 820/820 819/819
f 829/829 830/830 821/821 820/820
f 830/830 831/831 822/822 821/821
f 831/831 832/832 823/823 822/822
f 833/833 834/834 825/825 824/824
f 834/834 835/835 826/826 825/825
f 835/835 836/836 827/827 826/826
f 836/836 837/837 828/828 827/827
f 837/837 838/838 829/829 828/828
f 838/838 839/839 830/830 829/829
f 839/839 840/840 831/831 830/830
f 840/840 841/841 832/832 831/831
f 842/842 843/843 834/834 833/833
f 843/843 844/844 835/835 834/834
f 844/844 845/845 836/836 835/835
f 845/845 846/846 837/837 836/836
f 846/846 847/847 838/838 837/837
f 847/847 848/848 839/839 838/838
f 848/848 849/849 840/840 839/839
f 849/849 850/850 841/841 840/840
f 851/851 852/852 843/843 842/842
f 852/852 853/853 844/844 843/843
f 853/853 854/854 845/845 844/844
f 854/854 855/855 846/846 845/845
f 855/855 856/856 847/847 846/846
f 856/856 857/857 848/848 847/847
f 857/857 858/858 849/849 848/848
f 858/858 859/859 850/850 849/849
f 860/860 861/861 852/852 851/851
f 861/861 862/862 853/853 852/852
f 862/862 863/863 854/854 853/853
f 863/863 864/864 855/855 854/854
f 864/864 865/865 856/856 855/855
f 865/865 866/866 857/857 856/856
f 866/866 867/867 858/858 857/857
f 867/867 868/868 859/859 858/858
f 869/869 870/870 861/861 860/860
f 870/870 871/871 862/862 861/861
f 871/871 872/872 863/863 862/862
f 872/872 873/873 864/864 863/863
f 873/873 874/874 865/865 864/864
f 874/874 875/875 866/866 865/865
f 875/875 876/876 867/867 866/866
f 876/876 877/877 868/868 867/867
f 878/878 879/879 870/870 869/869
f 879/879 880/880 871/871 870/870
f 880/880 881/881 872/872 871/871
f 881/881 882/882 873/873 872/872
f 882/882 883/883 874/874 873/873
f 883/883 884/884 875/875 874/874
f 884/884 885/885 876/876 875/875
f 885/885 886/886 877/877 876/876
f 887/887 888/888 879/879 878/878
f 888/888 889/889 880/880 879/879
f 889/889 890/890 881/881 880/880
f 890/890 891/891 882/882 881/881
f 891/891 892/892 883/883 882/882
f 892/892 893/893 884/884 883/883
f 893/893 894/894 885/885 884/884
f 894/894 895/895 886/886 885/885
f 896/896 897/897 888/888 887/887
f 897/897 898/898 889/889 888/888
f 898/898 899/899 890/890 889/889
f 899/899 900/900 891/891 890/890
f 900/900 901/901 892/892 891/891
f 901/901 902/902 893/893 892/892
f 902/902 903/903 894/894 893/893
f 903/903 904/904 895/895 894/894
f 815/815 816/816 817/817 818/818 819/819 820/820 821/821 822/822
f 903/903 902/902 901/901 900/900 899/899 898/898 897/897 896/896
f 912/912 913/913 906/906 905/905
f 913/913 914/914 907/907 906/906
f 914/914 915/915 908/908 907/907
f 915/915 916/916 909/909 908/908
f 916/916 917/917 910/910 909/909
f 917/917 918/918 911/911 910/910
f 905/905 906/906 907/907 908/908 909/909 910/910
f 917/917 916/916 915/915 914/914 913/913 912/912
f 926/926 927/927 920/920 919/919
f 927/927 928/928 921/921 920/920
f 928/928 929/929 922/922 921/921
f 929/929 930/930 923/923 922/922
f 930/930 931/931 924/924 923/923
f 931/931 932/932 925/925 924/924
f 919/919 920/920 921/921 922/922 923/923 924/924
f 931/931 930/930 929/929 928/928 927/927 926/926
f 940/940 941/941 934/934 933/933
f 941/941 942/942 935/935 934/934
f 942/942 943/943 936/936 935/935
f 943/943 944/944 937/937 936/936
f 944/944 945/945 938/938 937/937
f 945/945 946/946 939/939 938/938
f 933/933 934/934 935/935 936/936 937/937 938/938
f 945/945 944/944 943/943 942/942 941/941 940/940
