# Original Basketbroom wing; centimeters, Z up; Unreal Y = -OBJ Y
o SM_BB_SnitchWingRight
s 1
v -0.944506 -0.115654 0.000000
v -0.667867 -0.081780 0.227688
v -0.000000 -0.000000 0.322000
v 0.667867 0.081780 0.227688
v 0.944506 0.115654 0.000000
v 0.667867 0.081780 -0.227688
v 0.000000 0.000000 -0.322000
v -0.667867 -0.081780 -0.227688
v -1.067251 -15.051092 0.450000
v -0.227453 -14.948260 1.141197
v 1.800000 -14.700000 1.427500
v 3.827453 -14.451740 1.141197
v 4.667251 -14.348908 0.450000
v 3.827453 -14.451740 -0.241197
v 1.800000 -14.700000 -0.527500
v -0.227453 -14.948260 -0.241197
v 2.626763 -49.413049 1.500000
v 3.614761 -49.292070 2.313173
v 6.000000 -49.000000 2.650000
v 8.385239 -48.707930 2.313173
v 9.373237 -48.586951 1.500000
v 8.385239 -48.707930 0.686827
v 6.000000 -49.000000 0.350000
v 3.614761 -49.292070 0.686827
v 7.887396 -82.588482 2.520000
v 8.529595 -82.509846 3.048562
v 10.080000 -82.320000 3.267500
v 11.630405 -82.130154 3.048562
v 12.272604 -82.051518 2.520000
v 11.630405 -82.130154 1.991438
v 10.080000 -82.320000 1.772500
v 8.529595 -82.509846 1.991438
v 11.915669 -98.010326 3.000000
v 11.940369 -98.007302 3.020329
v 12.000000 -98.000000 3.028750
v 12.059631 -97.992698 3.020329
v 12.084331 -97.989674 3.000000
v 12.059631 -97.992698 2.979671
v 12.000000 -98.000000 2.971250
v 11.940369 -98.007302 2.979671
v -0.673245 -11.969530 0.195000
v -0.458483 -12.195195 0.422688
v 0.060000 -12.740000 0.517000
v 0.578483 -13.284805 0.422688
v 0.793245 -13.510470 0.195000
v 0.578483 -13.284805 -0.032688
v 0.060000 -12.740000 -0.127000
v -0.458483 -12.195195 -0.032688
v -5.409643 -13.488072 0.074250
v -4.757685 -14.173128 0.765447
v -3.183720 -15.827000 1.051750
v -1.609755 -17.480872 0.765447
v -0.957797 -18.165928 0.074250
v -1.609755 -17.480872 -0.616947
v -3.183720 -15.827000 -0.903250
v -4.757685 -14.173128 -0.616947
v -13.371133 -20.278320 -0.207500
v -12.604124 -21.084268 0.605673
v -10.752400 -23.030000 0.942500
v -8.900676 -24.975732 0.605673
v -8.133667 -25.781680 -0.207500
v -8.900676 -24.975732 -1.020673
v -10.752400 -23.030000 -1.357500
v -12.604124 -21.084268 -1.020673
v -19.807009 -28.238608 -0.481200
v -19.308453 -28.762474 0.047362
v -18.104832 -30.027200 0.266300
v -16.901211 -31.291926 0.047362
v -16.402655 -31.815792 -0.481200
v -16.901211 -31.291926 -1.009762
v -18.104832 -30.027200 -1.228700
v -19.308453 -28.762474 -1.009762
v -21.630268 -33.251208 -0.610000
v -21.611093 -33.271357 -0.589671
v -21.564800 -33.320000 -0.581250
v -21.518507 -33.368643 -0.589671
v -21.499332 -33.388792 -0.610000
v -21.518507 -33.368643 -0.630329
v -21.564800 -33.320000 -0.638750
v -21.611093 -33.271357 -0.630329
v 0.612484 -22.453695 0.355500
v 0.826740 -22.679898 0.583188
v 1.344000 -23.226000 0.677500
v 1.861260 -23.772102 0.583188
v 2.075516 -23.998305 0.355500
v 1.861260 -23.772102 0.127812
v 1.344000 -23.226000 0.033500
v 0.826740 -22.679898 0.127812
v -4.135803 -23.968503 0.258825
v -3.485382 -24.655190 0.950022
v -1.915128 -26.313000 1.236325
v -0.344874 -27.970810 0.950022
v 0.305547 -28.657497 0.258825
v -0.344874 -27.970810 -0.432372
v -1.915128 -26.313000 -0.718675
v -3.485382 -24.655190 -0.432372
v -12.132318 -30.757768 0.033250
v -11.367118 -31.565635 0.846423
v -9.519760 -33.516000 1.183250
v -7.672402 -35.466365 0.846423
v -6.907202 -36.274232 0.033250
v -7.672402 -35.466365 -0.779923
v -9.519760 -33.516000 -1.116750
v -11.367118 -31.565635 -0.779923
v -18.605280 -38.720349 -0.185880
v -18.107899 -39.245463 0.342682
v -16.907117 -40.513200 0.561620
v -15.706334 -41.780937 0.342682
v -15.208954 -42.306051 -0.185880
v -15.706334 -41.780937 -0.714442
v -16.907117 -40.513200 -0.933380
v -18.107899 -39.245463 -0.714442
v -20.448834 -43.737044 -0.289000
v -20.429704 -43.757241 -0.268671
v -20.383520 -43.806000 -0.260250
v -20.337336 -43.854759 -0.268671
v -20.318206 -43.874956 -0.289000
v -20.337336 -43.854759 -0.309329
v -20.383520 -43.806000 -0.317750
v -20.429704 -43.757241 -0.309329
v 1.898230 -32.937896 0.516000
v 2.111975 -33.164626 0.743688
v 2.628000 -33.712000 0.838000
v 3.144025 -34.259374 0.743688
v 3.357770 -34.486104 0.516000
v 3.144025 -34.259374 0.288312
v 2.628000 -33.712000 0.194000
v 2.111975 -33.164626 0.288312
v -2.861910 -34.449042 0.443400
v -2.213042 -35.137329 1.134597
v -0.646536 -36.799000 1.420900
v 0.919970 -38.460671 1.134597
v 1.568838 -39.148958 0.443400
v 0.919970 -38.460671 -0.247797
v -0.646536 -36.799000 -0.534100
v -2.213042 -35.137329 -0.247797
v -10.893442 -41.237343 0.274000
v -10.130068 -42.047092 1.087173
v -8.287120 -44.002000 1.424000
v -6.444172 -45.956908 1.087173
v -5.680798 -46.766657 0.274000
v -6.444172 -45.956908 -0.539173
v -8.287120 -44.002000 -0.876000
v -10.130068 -42.047092 -0.539173
v -17.403511 -49.202173 0.109440
v -16.907318 -49.728510 0.638002
v -15.709402 -50.999200 0.856940
v -14.511485 -52.269890 0.638002
v -14.015292 -52.796227 0.109440
v -14.511485 -52.269890 -0.419122
v -15.709402 -50.999200 -0.638060
v -16.907318 -49.728510 -0.419122
v -19.267398 -54.222884 0.032000
v -19.248314 -54.243127 0.052329
v -19.202240 -54.292000 0.060750
v -19.156166 -54.340873 0.052329
v -19.137082 -54.361116 0.032000
v -19.156166 -54.340873 0.011671
v -19.202240 -54.292000 0.003250
v -19.248314 -54.243127 0.011671
v 3.183993 -43.422132 0.676500
v 3.397221 -43.649379 0.904188
v 3.912000 -44.198000 0.998500
v 4.426779 -44.746621 0.904188
v 4.640007 -44.973868 0.676500
v 4.426779 -44.746621 0.448812
v 3.912000 -44.198000 0.354500
v 3.397221 -43.649379 0.448812
v -1.587966 -44.929688 0.627975
v -0.940666 -45.619543 1.319172
v 0.622056 -47.285000 1.605475
v 2.184778 -48.950457 1.319172
v 2.832078 -49.640312 0.627975
v 2.184778 -48.950457 -0.063222
v 0.622056 -47.285000 -0.349525
v -0.940666 -45.619543 -0.063222
v -9.654506 -51.717044 0.514750
v -8.892976 -52.528639 1.327923
v -7.054480 -54.488000 1.664750
v -5.215984 -56.447361 1.327923
v -4.454454 -57.258956 0.514750
v -5.215984 -56.447361 -0.298423
v -7.054480 -54.488000 -0.635250
v -8.892976 -52.528639 -0.298423
v -16.201703 -59.684079 0.404760
v -15.706709 -60.211615 0.933322
v -14.511686 -61.485200 1.152260
v -13.316664 -62.758785 0.933322
v -12.821670 -63.286321 0.404760
v -13.316664 -62.758785 -0.123802
v -14.511686 -61.485200 -0.342740
v -15.706709 -60.211615 -0.123802
v -18.085961 -64.708726 0.353000
v -18.066922 -64.729016 0.373329
v -18.020960 -64.778000 0.381750
v -17.974998 -64.826984 0.373329
v -17.955959 -64.847274 0.353000
v -17.974998 -64.826984 0.332671
v -18.020960 -64.778000 0.324250
v -18.066922 -64.729016 0.332671
v 4.469772 -53.906404 0.837000
v 4.682479 -54.134156 1.064688
v 5.196000 -54.684000 1.159000
v 5.709521 -55.233844 1.064688
v 5.922228 -55.461596 0.837000
v 5.709521 -55.233844 0.609312
v 5.196000 -54.684000 0.515000
v 4.682479 -54.134156 0.609312
v -0.313973 -55.410440 0.812550
v 0.331746 -56.101832 1.503747
v 1.890648 -57.771000 1.790050
v 3.449550 -59.440168 1.503747
v 4.095269 -60.131560 0.812550
v 3.449550 -59.440168 0.121353
v 1.890648 -57.771000 -0.164950
v 0.331746 -56.101832 0.121353
v -8.415512 -62.196871 0.755500
v -7.655843 -63.010273 1.568673
v -5.821840 -64.974000 1.905500
v -3.987837 -66.937727 1.568673
v -3.228168 -67.751129 0.755500
v -3.987837 -66.937727 -0.057673
v -5.821840 -64.974000 -0.394500
v -7.655843 -63.010273 -0.057673
v -14.999858 -70.166066 0.700080
v -14.506073 -70.694778 1.228642
v -13.313971 -71.971200 1.447580
v -12.121869 -73.247622 1.228642
v -11.628085 -73.776334 0.700080
v -12.121869 -73.247622 0.171518
v -13.313971 -71.971200 -0.047420
v -14.506073 -70.694778 0.171518
v -16.904522 -75.194572 0.674000
v -16.885530 -75.214907 0.694329
v -16.839680 -75.264000 0.702750
v -16.793830 -75.313093 0.694329
v -16.774838 -75.333428 0.674000
v -16.793830 -75.313093 0.653671
v -16.839680 -75.264000 0.645250
v -16.885530 -75.214907 0.653671
v 5.755567 -64.390710 0.997500
v 5.967749 -64.618959 1.225188
v 6.480000 -65.170000 1.319500
v 6.992251 -65.721041 1.225188
v 7.204433 -65.949290 0.997500
v 6.992251 -65.721041 0.769812
v 6.480000 -65.170000 0.675500
v 5.967749 -64.618959 0.769812
v 0.960068 -65.891298 0.997125
v 1.604191 -66.584196 1.688322
v 3.159240 -68.257000 1.974625
v 4.714289 -69.929804 1.688322
v 5.358412 -70.622702 0.997125
v 4.714289 -69.929804 0.305928
v 3.159240 -68.257000 0.019625
v 1.604191 -66.584196 0.305928
v -7.176461 -72.676822 0.996250
v -6.418670 -73.491996 1.809423
v -4.589200 -75.460000 2.146250
v -2.759730 -77.428004 1.809423
v -2.001939 -78.243178 0.996250
v -2.759730 -77.428004 0.183077
v -4.589200 -75.460000 -0.153750
v -6.418670 -73.491996 0.183077
v -13.797975 -80.648134 0.995400
v -13.305411 -81.177997 1.523962
v -12.116256 -82.457200 1.742900
v -10.927101 -83.736403 1.523962
v -10.434537 -84.266266 0.995400
v -10.927101 -83.736403 0.466838
v -12.116256 -82.457200 0.247900
v -13.305411 -81.177997 0.466838
v -15.723082 -85.680421 0.995000
v -15.704137 -85.700800 1.015329
v -15.658400 -85.750000 1.023750
v -15.612663 -85.799200 1.015329
v -15.593718 -85.819579 0.995000
v -15.612663 -85.799200 0.974671
v -15.658400 -85.750000 0.966250
v -15.704137 -85.700800 0.974671
v 7.041377 -74.875051 1.158000
v 7.253029 -75.103785 1.385688
v 7.764000 -75.656000 1.480000
v 8.274971 -76.208215 1.385688
v 8.486623 -76.436949 1.158000
v 8.274971 -76.208215 0.930312
v 7.764000 -75.656000 0.836000
v 7.253029 -75.103785 0.930312
v 2.234156 -76.372261 1.181700
v 2.876669 -77.066634 1.872897
v 4.427832 -78.743000 2.159200
v 5.978995 -80.419366 1.872897
v 6.621508 -81.113739 1.181700
v 5.978995 -80.419366 0.490503
v 4.427832 -78.743000 0.204200
v 2.876669 -77.066634 0.490503
v -5.937355 -83.156895 1.237000
v -5.181458 -83.973805 2.050173
v -3.356560 -85.946000 2.387000
v -1.531662 -87.918195 2.050173
v -0.775765 -88.735105 1.237000
v -1.531662 -87.918195 0.423827
v -3.356560 -85.946000 0.087000
v -5.181458 -83.973805 0.423827
v -12.596058 -91.130282 1.290720
v -12.104724 -91.661273 1.819282
v -10.918541 -92.943200 2.038220
v -9.732357 -94.225127 1.819282
v -9.241024 -94.756118 1.290720
v -9.732357 -94.225127 0.762158
v -10.918541 -92.943200 0.543220
v -12.104724 -91.661273 0.762158
v -14.541640 -96.166272 1.316000
v -14.522742 -96.186695 1.336329
v -14.477120 -96.236000 1.344750
v -14.431498 -96.285305 1.336329
v -14.412600 -96.305728 1.316000
v -14.431498 -96.285305 1.295671
v -14.477120 -96.236000 1.287250
v -14.522742 -96.186695 1.295671
v 8.361784 -85.328939 1.318500
v 8.562772 -85.567079 1.546188
v 9.048000 -86.142000 1.640500
v 9.533228 -86.716921 1.546188
v 9.734216 -86.955061 1.318500
v 9.533228 -86.716921 1.090812
v 9.048000 -86.142000 0.996500
v 8.562772 -85.567079 1.090812
v 3.613267 -86.502478 1.366275
v 4.223410 -87.225404 2.057472
v 5.696424 -88.970700 2.343775
v 7.169438 -90.715996 2.057472
v 7.779581 -91.438922 1.366275
v 7.169438 -90.715996 0.675078
v 5.696424 -88.970700 0.388775
v 4.223410 -87.225404 0.675078
v -4.574693 -92.667210 1.477750
v -3.856878 -93.517710 2.290923
v -2.123920 -95.571000 2.627750
v -0.390962 -97.624290 2.290923
v 0.326853 -98.474790 1.477750
v -0.390962 -97.624290 0.664577
v -2.123920 -95.571000 0.327750
v -3.856878 -93.517710 0.664577
v -11.313828 -100.095256 1.586040
v -10.847248 -100.648082 2.114602
v -9.720826 -101.982720 2.333540
v -8.594403 -103.317358 2.114602
v -8.127823 -103.870184 1.586040
v -8.594403 -103.317358 1.057478
v -9.720826 -101.982720 0.838540
v -10.847248 -100.648082 1.057478
v -13.357109 -104.927405 1.637000
v -13.339164 -104.948668 1.657329
v -13.295840 -105.000000 1.665750
v -13.252516 -105.051332 1.657329
v -13.234571 -105.072595 1.637000
v -13.252516 -105.051332 1.616671
v -13.295840 -105.000000 1.608250
v -13.339164 -104.948668 1.616671
f 9 10 2 1
f 10 11 3 2
f 11 12 4 3
f 12 13 5 4
f 13 14 6 5
f 14 15 7 6
f 15 16 8 7
f 16 9 1 8
f 17 18 10 9
f 18 19 11 10
f 19 20 12 11
f 20 21 13 12
f 21 22 14 13
f 22 23 15 14
f 23 24 16 15
f 24 17 9 16
f 25 26 18 17
f 26 27 19 18
f 27 28 20 19
f 28 29 21 20
f 29 30 22 21
f 30 31 23 22
f 31 32 24 23
f 32 25 17 24
f 33 34 26 25
f 34 35 27 26
f 35 36 28 27
f 36 37 29 28
f 37 38 30 29
f 38 39 31 30
f 39 40 32 31
f 40 33 25 32
f 1 2 3 4 5 6 7 8
f 40 39 38 37 36 35 34 33
f 49 50 42 41
f 50 51 43 42
f 51 52 44 43
f 52 53 45 44
f 53 54 46 45
f 54 55 47 46
f 55 56 48 47
f 56 49 41 48
f 57 58 50 49
f 58 59 51 50
f 59 60 52 51
f 60 61 53 52
f 61 62 54 53
f 62 63 55 54
f 63 64 56 55
f 64 57 49 56
f 65 66 58 57
f 66 67 59 58
f 67 68 60 59
f 68 69 61 60
f 69 70 62 61
f 70 71 63 62
f 71 72 64 63
f 72 65 57 64
f 73 74 66 65
f 74 75 67 66
f 75 76 68 67
f 76 77 69 68
f 77 78 70 69
f 78 79 71 70
f 79 80 72 71
f 80 73 65 72
f 41 42 43 44 45 46 47 48
f 80 79 78 77 76 75 74 73
f 89 90 82 81
f 90 91 83 82
f 91 92 84 83
f 92 93 85 84
f 93 94 86 85
f 94 95 87 86
f 95 96 88 87
f 96 89 81 88
f 97 98 90 89
f 98 99 91 90
f 99 100 92 91
f 100 101 93 92
f 101 102 94 93
f 102 103 95 94
f 103 104 96 95
f 104 97 89 96
f 105 106 98 97
f 106 107 99 98
f 107 108 100 99
f 108 109 101 100
f 109 110 102 101
f 110 111 103 102
f 111 112 104 103
f 112 105 97 104
f 113 114 106 105
f 114 115 107 106
f 115 116 108 107
f 116 117 109 108
f 117 118 110 109
f 118 119 111 110
f 119 120 112 111
f 120 113 105 112
f 81 82 83 84 85 86 87 88
f 120 119 118 117 116 115 114 113
f 129 130 122 121
f 130 131 123 122
f 131 132 124 123
f 132 133 125 124
f 133 134 126 125
f 134 135 127 126
f 135 136 128 127
f 136 129 121 128
f 137 138 130 129
f 138 139 131 130
f 139 140 132 131
f 140 141 133 132
f 141 142 134 133
f 142 143 135 134
f 143 144 136 135
f 144 137 129 136
f 145 146 138 137
f 146 147 139 138
f 147 148 140 139
f 148 149 141 140
f 149 150 142 141
f 150 151 143 142
f 151 152 144 143
f 152 145 137 144
f 153 154 146 145
f 154 155 147 146
f 155 156 148 147
f 156 157 149 148
f 157 158 150 149
f 158 159 151 150
f 159 160 152 151
f 160 153 145 152
f 121 122 123 124 125 126 127 128
f 160 159 158 157 156 155 154 153
f 169 170 162 161
f 170 171 163 162
f 171 172 164 163
f 172 173 165 164
f 173 174 166 165
f 174 175 167 166
f 175 176 168 167
f 176 169 161 168
f 177 178 170 169
f 178 179 171 170
f 179 180 172 171
f 180 181 173 172
f 181 182 174 173
f 182 183 175 174
f 183 184 176 175
f 184 177 169 176
f 185 186 178 177
f 186 187 179 178
f 187 188 180 179
f 188 189 181 180
f 189 190 182 181
f 190 191 183 182
f 191 192 184 183
f 192 185 177 184
f 193 194 186 185
f 194 195 187 186
f 195 196 188 187
f 196 197 189 188
f 197 198 190 189
f 198 199 191 190
f 199 200 192 191
f 200 193 185 192
f 161 162 163 164 165 166 167 168
f 200 199 198 197 196 195 194 193
f 209 210 202 201
f 210 211 203 202
f 211 212 204 203
f 212 213 205 204
f 213 214 206 205
f 214 215 207 206
f 215 216 208 207
f 216 209 201 208
f 217 218 210 209
f 218 219 211 210
f 219 220 212 211
f 220 221 213 212
f 221 222 214 213
f 222 223 215 214
f 223 224 216 215
f 224 217 209 216
f 225 226 218 217
f 226 227 219 218
f 227 228 220 219
f 228 229 221 220
f 229 230 222 221
f 230 231 223 222
f 231 232 224 223
f 232 225 217 224
f 233 234 226 225
f 234 235 227 226
f 235 236 228 227
f 236 237 229 228
f 237 238 230 229
f 238 239 231 230
f 239 240 232 231
f 240 233 225 232
f 201 202 203 204 205 206 207 208
f 240 239 238 237 236 235 234 233
f 249 250 242 241
f 250 251 243 242
f 251 252 244 243
f 252 253 245 244
f 253 254 246 245
f 254 255 247 246
f 255 256 248 247
f 256 249 241 248
f 257 258 250 249
f 258 259 251 250
f 259 260 252 251
f 260 261 253 252
f 261 262 254 253
f 262 263 255 254
f 263 264 256 255
f 264 257 249 256
f 265 266 258 257
f 266 267 259 258
f 267 268 260 259
f 268 269 261 260
f 269 270 262 261
f 270 271 263 262
f 271 272 264 263
f 272 265 257 264
f 273 274 266 265
f 274 275 267 266
f 275 276 268 267
f 276 277 269 268
f 277 278 270 269
f 278 279 271 270
f 279 280 272 271
f 280 273 265 272
f 241 242 243 244 245 246 247 248
f 280 279 278 277 276 275 274 273
f 289 290 282 281
f 290 291 283 282
f 291 292 284 283
f 292 293 285 284
f 293 294 286 285
f 294 295 287 286
f 295 296 288 287
f 296 289 281 288
f 297 298 290 289
f 298 299 291 290
f 299 300 292 291
f 300 301 293 292
f 301 302 294 293
f 302 303 295 294
f 303 304 296 295
f 304 297 289 296
f 305 306 298 297
f 306 307 299 298
f 307 308 300 299
f 308 309 301 300
f 309 310 302 301
f 310 311 303 302
f 311 312 304 303
f 312 305 297 304
f 313 314 306 305
f 314 315 307 306
f 315 316 308 307
f 316 317 309 308
f 317 318 310 309
f 318 319 311 310
f 319 320 312 311
f 320 313 305 312
f 281 282 283 284 285 286 287 288
f 320 319 318 317 316 315 314 313
f 329 330 322 321
f 330 331 323 322
f 331 332 324 323
f 332 333 325 324
f 333 334 326 325
f 334 335 327 326
f 335 336 328 327
f 336 329 321 328
f 337 338 330 329
f 338 339 331 330
f 339 340 332 331
f 340 341 333 332
f 341 342 334 333
f 342 343 335 334
f 343 344 336 335
f 344 337 329 336
f 345 346 338 337
f 346 347 339 338
f 347 348 340 339
f 348 349 341 340
f 349 350 342 341
f 350 351 343 342
f 351 352 344 343
f 352 345 337 344
f 353 354 346 345
f 354 355 347 346
f 355 356 348 347
f 356 357 349 348
f 357 358 350 349
f 358 359 351 350
f 359 360 352 351
f 360 353 345 352
f 321 322 323 324 325 326 327 328
f 360 359 358 357 356 355 354 353
