# Basketbroom original 3D environment. Centimetres, Z up.
o SM_BB_ENV_RR_AlcoveBed1
s 1
v 19252.54241 667.26937 1062.30693
v 19618.54759 1073.85069 1082.38519
v 20081.12116 1489.71598 1100.83059
v 20555.59118 1924.30734 1117.27753
v 20948.70163 2379.59392 1131.40004
v 21186.85553 2849.62890 1142.91821
v 21237.76883 3323.56287 1151.60376
v 21118.25237 3790.66413 1157.28454
v 20885.65154 4245.02911 1159.84796
v 20616.13354 4687.81215 1159.24320
v 20377.53207 5125.90641 1155.48226
v 20206.25654 5567.60326 1148.63968
v 20096.23250 6017.17015 1138.85107
v 20003.52420 6470.90066 1126.31045
v 19864.73762 6916.70823 1111.26636
v 19622.47450 7337.91203 1094.01699
v 19248.69510 7720.05332 1074.90422
v 18757.67234 8058.12832 1054.30684
v 18203.95572 8361.16017 1032.63312
v 17666.06172 8651.81951 1010.31260
v 17221.58775 8960.60244 987.78769
v 16922.36685 9316.22602 965.50483
v 16778.14991 9735.56131 943.90566
v 16754.22137 10216.89701 923.41827
v 16783.45737 10739.34540 904.44873
v 16788.37338 11269.05670 887.37300
v 16705.41693 11770.36066 872.52953
v 16503.24717 12217.96546 860.21251
v 16189.11097 12605.71190 850.66607
v 15801.75964 12948.42511 844.07940
v 15394.07249 13275.81976 840.58307
v 15011.99185 13620.35749 840.24637
v 14677.36646 14003.34110 843.07597
v 14380.58438 14424.43386 849.01579
v 14085.16070 14858.80121 857.94810
v 13742.11977 15263.46479 869.69586
v 13308.63380 15591.12922 884.02624
v 12764.10834 15806.89037 900.65521
v 12118.10392 15901.93299 919.25318
v 11407.61795 15899.11819 939.45154
v 10685.11672 15848.04196 960.84997
v 10001.89155 15810.80939 983.02435
v 9392.70832 15843.11990 1005.53519
v 8866.91876 15977.07427 1027.93632
v 8408.60645 16211.69121 1049.78375
v 7984.98670 16514.54712 1070.64448
v 7559.42271 16834.09637 1090.10503
v 7104.07024 17118.44249 1107.77972
v 6607.72019 17333.97321 1123.31822
v 6076.54663 17477.21856 1136.41257
v 5528.29210 17575.60690 1146.80323
v 4982.83041 17676.69450 1154.28427
v 4453.15752 17829.56350 1158.70741
v 3940.33351 18064.95434 1159.98498
v 3434.04051 18381.27701 1158.09167
v 2918.03833 18741.69073 1153.06499
v 2377.86070 19083.61522 1145.00459
v 1807.34902 19337.67122 1134.07020
v 1211.30703 19449.68675 1120.47856
v 603.33563 19398.24504 1104.49904
v 0.00000 19201.72056 1086.44837
v -585.98712 18912.34755 1066.68429
v -1150.53690 18599.33705 1045.59854
v -1698.84598 18326.83242 1023.60904
v -2241.73426 18134.24572 1001.15160
v -2789.38901 18025.63347 978.67134
v -3345.44859 17971.56933 956.61381
v -3904.29212 17922.58504 935.41619
v -4453.05983 17829.22723 915.49861
v -4977.85032 17661.52617 897.25584
v -5471.58617 17420.97030 881.04946
v -5940.05491 17140.79946 867.20066
v -6403.09054 16874.59075 855.98393
v -6889.65834 16677.23513 847.62158
v -7428.07821 16585.04233 842.27936
v -8034.78974 16601.95703 840.06315
v -8706.01547 16696.66821 841.01687
v -9415.94463 16811.55382 845.12162
v -10122.81497 16880.29684 852.29605
v -10781.30700 16848.07824 862.39795
v -11357.10258 16687.49889 875.22711
v -11838.32910 16405.02132 890.52926
v -12239.44003 16036.12382 908.00110
v -12595.66972 15631.28905 927.29636
v -12949.65518 15238.01742 948.03259
v -13334.86703 14885.21485 969.79882
v -13761.95479 14575.20930 992.16363
v -14213.34850 14285.76125 1014.68375
v -14648.64259 13980.82885 1036.91284
v -15019.37401 13625.82593 1058.41033
v -15288.20721 13201.71428 1078.75013
v -15445.61023 12712.93232 1097.52910
v -15517.64481 12186.56328 1114.37507
v -15561.40992 11663.36298 1128.95412
v -15649.00162 11184.12262 1140.97732
v -15845.05514 10776.33409 1150.20637
v -16185.47645 10445.78423 1156.45834
v -16664.86361 10175.73935 1159.60932
v -17237.30834 9933.57295 1159.59685
v -17830.68262 9682.09007 1156.42120
v -18369.75529 9391.33241 1150.14529
v -18800.25567 9046.77774 1140.89352
v -19105.50691 8651.43422 1128.84925
v -19309.73348 8221.71081 1114.25120
v -19466.78226 7779.19638 1097.38871
v -19638.17043 7341.78185 1078.59598
v -19868.24432 6917.48791 1058.24548
v -20165.39305 6503.03325 1036.74057
v -20496.24769 6087.17937 1014.50746
v -20795.27736 5657.02518 991.98681
v -20986.73983 5204.41065 969.62499
v -21011.48563 4729.76745 947.86520
v -20849.24874 4241.98760 927.13871
v -20528.47911 3754.61952 907.85632
v -20120.01398 3280.21833 890.40022
v -19716.47466 2825.36444 875.11637
v -19404.25065 2388.47090 862.30770
v -19237.53726 1961.22157 852.22808
v -19223.20108 1532.87806 845.07729
v -19321.49483 1095.44462 840.99704
v -19462.14601 647.31632 840.06822
v 17787.35366 806.74686 1622.30693
v 18119.88526 1182.79434 1642.38519
v 18554.58605 1566.51618 1660.83059
v 19016.23803 1967.41942 1677.27753
v 19412.09257 2388.42583 1691.40004
v 19660.10974 2824.43430 1702.91821
v 19713.98828 3264.47337 1711.60376
v 19576.49977 3696.43831 1717.28454
v 19296.67493 4112.26761 1719.84796
v 18951.97112 4511.20897 1719.24320
v 18621.71679 4899.64709 1715.48226
v 18361.07201 5287.47744 1708.63968
v 18184.44263 5682.57558 1698.85107
v 18063.86826 6085.85945 1686.31045
v 17942.59378 6489.34047 1671.26636
v 17758.71358 6878.40263 1654.01699
v 17470.31379 7237.77413 1634.90422
v 17073.12804 7558.97719 1614.30684
v 16604.47130 7846.17131 1592.63312
v 16132.11915 8117.65757 1570.31260
v 15732.10177 8401.82837 1547.78769
v 15463.21741 8728.48954 1525.50483
v 15347.11615 9118.42936 1503.90566
v 15360.74321 9575.06907 1483.41827
v 15443.54416 10081.55437 1464.44873
v 15516.70461 10604.82704 1447.37300
v 15507.63613 11105.67447 1432.52953
v 15371.32127 11551.42895 1420.21251
v 15101.48718 11926.78564 1410.66607
v 14728.32963 12238.65270 1404.07940
v 14304.26884 12512.95940 1400.58307
v 13883.28615 12784.25186 1400.24637
v 13501.36022 13081.64980 1403.07597
v 13164.77945 13416.28390 1409.01579
v 12850.01671 13775.04367 1417.94810
v 12514.59863 14123.36245 1429.69586
v 12114.53655 14416.54724 1444.02624
v 11621.76545 14615.97039 1460.65521
v 11035.33876 14704.45637 1479.25318
v 10382.63709 14695.19993 1499.45154
v 9710.57079 14630.62147 1520.84997
v 9070.30335 14571.02461 1543.02435
v 8501.13246 14576.56257 1565.53519
v 8019.15290 14688.53157 1587.93632
v 7614.30602 14916.44660 1609.78375
v 7256.23101 15235.49916 1630.64448
v 6906.19447 15595.45197 1650.10503
v 6530.42481 15938.02021 1667.77972
v 6110.05737 16216.74718 1683.31822
v 5644.53438 16412.41280 1696.41257
v 5147.98146 16538.50293 1706.80323
v 4640.73147 16634.73028 1714.28427
v 4139.79090 16750.82926 1718.70741
v 3652.09139 16926.35139 1719.98498
v 3172.92454 17173.70386 1718.09167
v 2689.67578 17470.63343 1713.06499
v 2188.80357 17765.09784 1705.00459
v 1662.81061 17991.11884 1694.07020
v 1114.15897 18090.30465 1680.47856
v 554.54280 18031.65393 1664.49904
v 0.00000 17822.75686 1646.44837
v -535.86170 17508.43290 1626.68429
v -1047.47275 17157.17160 1605.59854
v -1539.24527 16839.95620 1583.60904
v -2022.98765 16608.66870 1561.15160
v -2511.94352 16481.38241 1538.67134
v -3014.14665 16439.40976 1516.61381
v -3528.17355 16436.85589 1495.41619
v -4043.42060 16419.08383 1475.49861
v -4545.09843 16343.45135 1457.25584
v -5022.01338 16194.98902 1441.04946
v -5473.79225 15991.57472 1427.20066
v -5914.14348 15776.93115 1415.98393
v -6368.14265 15604.08314 1407.62158
v -6863.89291 15515.24021 1402.27936
v -7421.32613 15525.25959 1400.06315
v -8042.38828 15614.50897 1401.01687
v -8706.72660 15733.59379 1405.12162
v -9375.20244 15818.25134 1412.29605
v -10000.69408 15809.21576 1422.39795
v -10542.78425 15670.23764 1435.22711
v -10981.17249 15398.22544 1450.52926
v -11322.76552 15022.33400 1468.00110
v -11599.45087 14592.70690 1487.29636
v -11856.87722 14163.09887 1508.03259
v -12137.95440 13773.54122 1529.79882
v -12466.96354 13438.93974 1552.16363
v -12840.24605 13147.17961 1574.68375
v -13227.28140 12866.84137 1596.91284
v -13582.26881 12561.26876 1618.41033
v -13862.40508 12203.65566 1638.75013
v -14046.35182 11787.71595 1657.52910
v -14145.96919 11330.32364 1674.37507
v -14206.51585 10865.53127 1688.95412
v -14294.50129 10432.46784 1700.97732
v -14476.84088 10061.67590 1710.20637
v -14798.28986 9764.78572 1716.45834
v -15265.06554 9531.00049 1719.60932
v -15840.68113 9331.27878 1719.59685
v -16455.89928 9128.33574 1716.42120
v -17029.78267 8888.64761 1710.14529
v -17494.82476 8592.18998 1700.89352
v -17817.54597 8236.74713 1688.84925
v -18007.37044 7835.80467 1674.25120
v -18110.61423 7411.41719 1657.38871
v -18191.63411 6985.13899 1638.59598
v -18307.76612 6570.53256 1618.24548
v -18486.97701 6169.85079 1596.74057
v -18716.30298 5775.65986 1574.50746
v -18945.41204 5376.18875 1551.98681
v -19104.28877 4961.83268 1529.62499
v -19128.98250 4529.99365 1507.86520
v -18986.38389 4086.34230 1487.13871
v -18689.18361 3642.20905 1467.85632
v -18295.48684 3209.46641 1450.40022
v -17892.86406 2795.27093 1435.11637
v -17572.05285 2399.00176 1422.30770
v -17399.17139 2012.70799 1412.22808
v -17395.86989 1624.81135 1405.07729
v -17534.12228 1225.37576 1400.99704
v -17747.30067 810.55967 1400.06822
v 17881.93578 797.74319 2182.30693
v 18165.80181 1179.45649 2202.38519
v 18550.28596 1566.73252 2220.83059
v 18973.77697 1968.60861 2237.27753
v 19349.04509 2388.78820 2251.40004
v 19590.04017 2823.27800 2262.91821
v 19639.02383 3261.56638 2271.60376
v 19484.77113 3690.83221 2277.28454
v 19165.63190 4101.31876 2279.84796
v 18756.46415 4490.46150 2279.24320
v 18344.00742 4863.86067 2275.48226
v 17999.20499 5232.54077 2268.63968
v 17755.93642 5607.57997 2258.85107
v 17603.27254 5994.42657 2246.31045
v 17493.56237 6389.50322 2231.26636
v 17363.11289 6780.86747 2214.01699
v 17157.88145 7153.04560 2194.90422
v 16854.97572 7494.33598 2174.30684
v 16472.38224 7803.64236 2152.63312
v 16063.60616 8093.79942 2130.31260
v 15699.26448 8389.50960 2107.78769
v 15442.23481 8720.03788 2085.50483
v 15325.13146 9108.94848 2063.90566
v 15337.94336 9564.56759 2043.41827
v 15430.00986 10074.91010 2024.44873
v 15525.47043 10609.40568 2007.37300
v 15546.69670 11127.35041 1992.52953
v 15437.61190 11590.46430 1980.21251
v 15179.08008 11975.22137 1970.66607
v 14791.52981 12280.44186 1964.07940
v 14324.53707 12527.14712 1960.58307
v 13837.58408 12750.39737 1960.24637
v 13379.05983 12985.79725 1963.07597
v 12970.83627 13255.46550 1969.01579
v 12603.44266 13558.69118 1977.94810
v 12242.89036 13871.00408 1989.69586
v 11846.04117 14152.43990 2004.02624
v 11378.54729 14362.40960 2020.65521
v 10828.78029 14476.01446 2039.25318
v 10212.92641 14495.86177 2059.45154
v 9569.81767 14454.79012 2080.84997
v 8947.80123 14407.99520 2103.02435
v 8388.66830 14416.79791 2125.53519
v 7914.44141 14529.37768 2147.93632
v 7521.47555 14765.07041 2169.78375
v 7183.46429 15107.78541 2190.64448
v 6861.67777 15511.03989 2210.10503
v 6518.30793 15913.08664 2227.77972
v 6128.00415 16257.03674 2243.31822
v 5683.73882 16509.04226 2256.41257
v 5195.53994 16668.19451 2266.80323
v 4683.38501 16764.64432 2274.28427
v 4167.60731 16846.58456 2278.70741
v 3660.78616 16960.69715 2279.98498
v 3164.13283 17133.04519 2278.09167
v 2669.31680 17357.31614 2273.06499
v 2164.38413 17594.79241 2265.00459
v 1640.82660 17786.31079 2254.07020
v 1098.57336 17872.21684 2240.47856
v 546.75139 17813.43182 2224.49904
v 0.00000 17606.26162 2206.44837
v -527.90851 17285.67987 2186.68429
v -1030.22197 16915.78331 2165.59854
v -1510.32825 16570.55876 2143.60904
v -1980.37151 16311.45633 2121.15160
v -2455.88363 16169.35520 2098.67134
v -2948.74641 16136.95576 2076.61381
v -3461.62751 16173.98829 2055.41619
v -3986.51182 16223.18088 2035.49861
v -4508.25726 16231.24060 2017.25584
v -5011.91809 16167.45924 2001.04946
v -5490.80715 16033.51232 1987.20066
v -5951.68693 15861.21415 1975.98393
v -6414.40180 15699.27318 1967.62158
v -6905.39890 15593.94342 1962.27936
v -7447.12707 15570.54314 1960.06315
v -8047.23218 15622.40779 1961.01687
v -8691.95582 15711.14326 1965.12162
v -9346.89188 15778.03385 1972.29605
v -9965.64315 15762.56896 1982.39795
v -10503.88642 15621.64576 1995.22711
v -10934.06447 15342.89348 2010.52926
v -11255.31429 14947.73679 2028.00110
v -11494.65510 14483.45479 2047.29636
v -11698.47561 14007.28603 2068.03259
v -11916.91976 13568.24772 2089.79882
v -12186.55350 13192.89838 2112.16363
v -12517.60963 12879.64829 2134.68375
v -12890.71472 12603.05826 2156.91284
v -13264.70979 12326.03217 2178.41033
v -13593.12617 12015.16096 2198.75013
v -13843.54221 11653.61437 2217.52910
v -14012.69707 11247.13132 2234.37507
v -14131.45926 10821.33407 2248.95412
v -14257.19858 10411.76739 2260.97732
v -14455.61214 10050.58751 2270.20637
v -14777.99986 9754.82495 2276.45834
v -15241.91119 9520.33573 2279.60932
v -15822.21841 9323.31675 2279.59685
v -16456.23192 9128.46972 2276.42120
v -17061.61909 8900.59091 2270.14529
v -17561.32736 8615.34806 2260.89352
v -17907.09079 8265.57804 2248.84925
v -18093.40714 7861.29840 2234.25120
v -18157.06761 7424.01488 2217.38871
v -18162.32388 6977.91257 2198.59598
v -18176.83732 6541.42197 2178.24548
v -18246.86848 6122.18684 2156.74057
v -18380.52270 5716.89281 2134.50746
v -18545.09732 5315.41516 2111.98681
v -18679.62090 4907.10878 2089.62499
v -18718.26974 4486.40826 2067.86520
v -18616.40954 4055.43036 2047.13871
v -18369.95522 3622.69907 2027.85632
v -18020.97374 3198.82128 2010.40022
v -17647.21327 2791.21716 1995.11637
v -17338.86402 2400.34205 1982.30770
v -17170.36109 2019.11619 1972.22808
v -17176.83445 1635.83105 1965.07729
v -17343.25313 1239.25078 1960.99704
v -17609.94086 823.63553 1960.06822
v 17857.05050 800.11212 2742.30693
v 18074.41064 1186.10007 2762.38519
v 18385.52045 1575.02189 2780.83059
v 18745.82956 1974.99265 2797.27753
v 19078.31534 2390.34427 2811.40004
v 19297.47762 2818.45008 2822.91821
v 19337.19916 3249.86216 2831.60376
v 19172.89346 3671.77148 2837.28454
v 18830.28320 4073.29984 2839.84796
v 18377.75492 4450.27236 2839.24320
v 17904.90148 4807.27624 2835.48226
v 17494.60504 5155.93517 2828.63968
v 17198.17208 5509.96207 2818.85107
v 17021.86764 5879.01185 2806.31045
v 16929.14043 6264.01014 2791.26636
v 16857.33199 6656.16742 2774.01699
v 16742.66034 7040.44180 2754.90422
v 16544.51110 7402.34151 2734.30684
v 16260.49046 7735.41919 2712.63312
v 15927.10282 8046.26512 2690.31260
v 15606.06566 8354.54648 2667.78769
v 15361.33073 8687.45021 2645.50483
v 15235.06708 9070.10830 2623.90566
v 15231.09435 9515.35356 2603.41827
v 15311.50955 10016.73586 2584.44873
v 15407.55073 10547.81279 2567.37300
v 15440.77971 11068.57375 2552.52953
v 15347.18665 11537.21724 2540.21251
v 15096.00468 11923.36330 2530.66607
v 14697.08496 12217.99312 2524.07940
v 14194.81520 12436.34207 2520.58307
v 13651.25606 12612.37210 2520.24637
v 13124.75588 12786.48730 2523.07597
v 12651.56761 12990.72675 2529.01579
v 12236.57592 13236.78977 2537.94810
v 11855.75279 13511.43680 2549.69586
v 11468.71465 13781.28008 2564.02624
v 11036.28770 14005.59574 2580.65521
v 10536.49563 14152.76427 2599.25318
v 9973.30576 14214.40903 2619.45154
v 9375.36254 14211.87324 2640.84997
v 8785.67037 14192.22672 2663.02435
v 8246.37977 14214.66528 2685.53519
v 7784.36018 14331.66364 2707.93632
v 7402.64339 14571.29397 2729.78375
v 7080.42531 14926.94044 2750.64448
v 6781.08813 15358.22666 2770.10503
v 6464.87424 15803.13314 2787.77972
v 6101.41930 16197.35519 2803.31822
v 5677.77389 16494.34015 2816.41257
v 5199.54055 16679.10414 2826.80323
v 4685.48052 16771.02684 2834.28427
v 4158.33083 16814.65118 2838.70741
v 3635.73418 16861.73777 2839.98498
v 3124.75698 16950.94519 2838.09167
v 2621.72149 17092.40245 2833.06499
v 2116.77622 17262.76654 2825.00459
v 1600.72143 17412.68198 2814.07020
v 1070.84143 17484.16695 2800.47856
v 533.12892 17431.89318 2784.49904
v 0.00000 17240.87115 2766.44837
v -515.36026 16934.22784 2746.68429
v -1005.37991 16568.17110 2725.59854
v -1472.23585 16215.68136 2703.60904
v -1927.74005 15944.39531 2681.15160
v -2388.83546 15796.16765 2658.67134
v -2870.52485 15775.20748 2636.61381
v -3379.27907 15848.69864 2615.41619
v -3909.90949 15959.48477 2595.49861
v -4447.52219 16046.25384 2577.25584
v -4974.03166 16064.14325 2561.04946
v -5476.67080 15998.66964 2547.20066
v -5954.86293 15868.34410 2535.98393
v -6422.22581 15715.37308 2527.62158
v -6902.27917 15588.02783 2522.27936
v -7418.96871 15521.12207 2520.06315
v -7985.40415 15521.58646 2521.01687
v -8595.28796 15564.21513 2525.12162
v -9220.86322 15598.99970 2532.29605
v -9818.97422 15567.37767 2542.39795
v -10343.78853 15421.64858 2555.22711
v -10762.01702 15140.81062 2570.52926
v -11065.16839 14737.44624 2588.00110
v -11274.08016 14253.50010 2607.29636
v -11433.53067 13746.67111 2628.03259
v -11598.28839 13272.30791 2649.79882
v -11815.20464 12867.06422 2672.16363
v -12107.66065 12539.71707 2694.68375
v -12468.12094 12271.85168 2716.91284
v -12861.82039 12027.58582 2738.41033
v -13240.63566 11768.41832 2758.75013
v -13562.38657 11467.70889 2777.52910
v -13808.59642 11119.72578 2794.37507
v -13994.00070 10740.39136 2808.95412
v -14163.83591 10359.95751 2820.97732
v -14379.25577 10010.70435 2830.20637
v -14695.58887 9714.36769 2836.45834
v -15140.97567 9473.84542 2839.60932
v -15703.11941 9271.95542 2839.59685
v -16329.29364 9077.33976 2836.42120
v -16940.21484 8855.04664 2830.14529
v -17453.48934 8577.79583 2820.89352
v -17808.83060 8233.94103 2808.84925
v -17986.41241 7829.59455 2794.25120
v -18011.93936 7384.65755 2777.38871
v -17946.55235 6924.71420 2758.59598
v -17864.97409 6472.08257 2738.24548
v -17829.46627 6039.32830 2716.74057
v -17868.71614 5627.31827 2694.50746
v -17969.10530 5227.97120 2671.98681
v -18081.48787 4830.03166 2649.62499
v -18141.12274 4425.16063 2627.86520
v -18093.70166 4011.75729 2607.13871
v -17918.16858 3595.08766 2587.85632
v -17638.05845 3183.97251 2570.40022
v -17317.05511 2785.76883 2555.11637
v -17039.99715 2402.05983 2542.30770
v -16885.69967 2027.08860 2532.22808
v -16900.89476 1649.71362 2525.07729
v -17084.27889 1258.07664 2520.99704
v -17386.19530 844.93481 2520.06822
v 18905.48475 700.30725 3302.30693
v 19045.80692 1115.48546 3322.38519
v 19267.48496 1530.65013 3340.83059
v 19545.57805 1952.59439 3357.27753
v 19817.37242 2386.09642 3371.40004
v 20002.35591 2830.08210 3382.91821
v 20029.40311 3276.70460 3391.60376
v 19861.75789 3713.87216 3397.28454
v 19511.09325 4130.18260 3399.84796
v 19035.67928 4520.09219 3399.24320
v 18523.18328 4886.94978 3395.48226
v 18063.93020 5242.36700 3388.63968
v 17723.70795 5601.93946 3378.85107
v 17525.28074 5978.94441 3366.31045
v 17444.66853 6378.63220 3351.26636
v 17423.07535 6795.65118 3334.01699
v 17389.93713 7215.97678 3314.90422
v 17288.80589 7622.88518 3294.30684
v 17096.98442 8004.74664 3272.63312
v 16832.21016 8361.44895 3250.31260
v 16544.37089 8706.54753 3227.78769
v 16295.53508 9063.74201 3205.50483
v 16135.62474 9458.47294 3183.90566
v 16082.45062 9907.48331 3163.41827
v 16113.13405 10410.26986 3144.44873
v 16169.81687 10945.96660 3127.37300
v 16177.51210 11477.40969 3112.52953
v 16067.76780 11961.53268 3100.21251
v 15799.94959 12362.78610 3090.66607
v 15372.98664 12664.91221 3084.07940
v 14823.92383 12876.71685 3080.58307
v 14214.27890 13029.43969 3080.24637
v 13609.34649 13166.28371 3083.07597
v 13057.78672 13327.56513 3089.01579
v 12578.38488 13536.70463 3097.94810
v 12158.03489 13792.19166 3109.69586
v 11760.87883 14068.66938 3124.02624
v 11344.64096 14327.06144 3140.65521
v 10877.89443 14530.33191 3159.25318
v 10352.03718 14659.25799 3179.45154
v 9784.00276 14722.35403 3200.84997
v 9209.27864 14755.97698 3223.02435
v 8668.31090 14814.05338 3245.53519
v 8191.57925 14950.60713 3267.93632
v 7788.80130 15200.99141 3289.78375
v 7445.91693 15568.41921 3310.64448
v 7130.47822 16020.73641 3330.10503
v 6803.00178 16498.91709 3347.77972
v 6429.85615 16934.67811 3363.31822
v 5993.02332 17271.35378 3376.41257
v 5493.57073 17480.92202 3386.80323
v 4948.23147 17571.31315 3394.28427
v 4381.08634 17581.46544 3398.70741
v 3813.98662 17565.86373 3399.98498
v 3259.48263 17574.00581 3398.09167
v 2718.67855 17632.06173 3393.06499
v 2184.23801 17733.25681 3385.00459
v 1646.63849 17840.45566 3374.07020
v 1100.56704 17900.11429 3360.47856
v 548.51111 17862.71821 3344.49904
v 0.00000 17702.47381 3326.44837
v -533.03311 17429.20981 3306.68429
v -1042.53817 17088.12260 3285.59854
v -1529.29202 16747.22952 3263.60904
v -2004.06366 16476.68952 3241.15160
v -2484.20699 16327.00192 3218.67134
v -2986.92017 16313.49650 3196.61381
v -3521.96893 16412.34662 3175.41619
v -4087.07059 16569.34469 3155.49861
v -4668.16348 16718.28264 3137.25584
v -5244.79863 16802.52256 3121.04946
v -5798.68276 16792.35129 3107.20066
v -6321.89477 16692.31067 3095.98393
v -6821.16411 16536.29072 3087.62158
v -7315.97728 16372.47774 3082.27936
v -7830.69369 16243.74557 3080.06315
v -8383.37828 16170.55230 3081.01687
v -8975.67420 16142.37466 3085.12162
v -9588.02780 16120.58739 3092.29605
v -10182.83290 16051.61143 3102.39795
v -10715.15698 15885.56879 3115.22711
v -11147.71356 15593.84064 3130.52926
v -11464.81897 15179.43703 3148.00110
v -11680.03237 14676.71506 3167.29636
v -11834.15937 14140.75230 3188.03259
v -11983.66532 13630.23995 3209.79882
v -12183.09742 13189.86591 3232.16363
v -12467.52476 12838.11773 3254.68375
v -12841.30824 12564.33608 3276.91284
v -13277.49011 12335.49939 3298.41033
v -13728.38991 12109.84531 3318.75013
v -14143.90742 11852.22158 3337.52910
v -14491.06163 11545.74033 3354.37507
v -14767.58019 11195.91497 3368.95412
v -15004.25146 10826.33051 3380.97732
v -15254.66467 10467.95594 3390.20637
v -15575.53459 10146.35119 3396.45834
v -16004.38828 9871.52825 3399.60932
v -16542.64182 9633.99867 3399.59685
v -17150.48046 9408.10879 3396.42120
v -17755.96902 9161.07321 3390.14529
v -18275.82606 8864.15660 3380.89352
v -18641.06625 8501.89743 3368.84925
v -18818.78883 8076.23788 3354.25120
v -18822.51482 7604.47750 3337.38871
v -18707.31963 7112.28102 3318.59598
v -18551.25708 6624.67013 3298.24548
v -18429.38288 6158.41778 3276.74057
v -18389.34151 5718.43624 3254.50746
v -18437.00419 5299.00505 3231.98681
v -18537.16495 4888.75150 3209.62499
v -18629.01522 4476.93645 3187.86520
v -18650.88360 4058.31072 3167.13871
v -18565.40218 3634.64402 3147.85632
v -18376.04160 3212.59018 3130.40022
v -18128.94441 2799.16676 3115.11637
v -17899.14540 2397.12174 3102.30770
v -17765.78515 2002.44038 3092.22808
v -17784.85110 1605.24165 3085.07729
v -17968.92611 1193.76816 3080.99704
v -18281.04680 759.75013 3080.06822
v 20691.76407 530.26379 3862.30693
v 20748.35988 991.72019 3882.38519
v 20869.57862 1450.04858 3900.83059
v 21051.58189 1910.41631 3917.27753
v 21249.25685 2377.86643 3931.40004
v 21391.16133 2853.00039 3942.91821
v 21404.67081 3330.03503 3951.60376
v 21242.55081 3798.26076 3957.28454
v 20901.60571 4246.36210 3959.84796
v 20426.76843 4667.71646 3959.24320
v 19899.03957 5064.24651 3955.48226
v 19411.28693 5446.91532 3948.63968
v 19040.10720 5832.33091 3938.85107
v 18823.26942 6236.60822 3926.31045
v 18750.25935 6668.91611 3911.26636
v 18768.85217 7127.45184 3894.01699
v 18805.08834 7599.75161 3874.90422
v 18789.46666 8067.54937 3854.30684
v 18680.18165 8514.49149 3832.63312
v 18475.47471 8933.67987 3810.31260
v 18211.15265 9331.83333 3787.78769
v 17944.60781 9727.97844 3765.50483
v 17731.37436 10146.63846 3743.90566
v 17602.73843 10607.71904 3723.41827
v 17552.35836 11116.81476 3704.44873
v 17536.51112 11659.83084 3687.37300
v 17487.69729 12204.47261 3672.52953
v 17336.66442 12708.72464 3660.21251
v 17035.08210 13133.79158 3650.66607
v 16571.06617 13457.10527 3644.07940
v 15972.43753 13680.67412 3640.58307
v 15296.98867 13831.47314 3640.24637
v 14613.52366 13953.30450 3643.07597
v 13980.45520 14092.64525 3649.01579
v 13429.27850 14283.30776 3657.94810
v 12958.20484 14535.37693 3669.69586
v 12537.44822 14832.54721 3684.02624
v 12123.53132 15139.07340 3700.65521
v 11676.98472 15414.08027 3719.25318
v 11176.96606 15628.19993 3739.45154
v 10627.81934 15776.46503 3760.84997
v 10055.77882 15882.52414 3783.02435
v 9497.66732 15992.22284 3805.53519
v 8986.21008 16158.38843 3827.93632
v 8537.52620 16421.91722 3849.78375
v 8145.23047 16795.79290 3870.64448
v 7782.90442 17257.85998 3890.10503
v 7413.54257 17755.26100 3907.77972
v 7002.13446 18219.41184 3923.31822
v 6526.66526 18586.65217 3936.41257
v 5983.73995 18817.60944 3946.80323
v 5387.30280 18908.63569 3954.28427
v 4761.59983 18891.34630 3958.70741
v 4131.57728 18820.39817 3959.98498
v 3514.58224 18753.75527 3958.09167
v 2916.35887 18732.34293 3953.06499
v 2332.35265 18766.23419 3945.00459
v 1753.09542 18832.23246 3934.07020
v 1170.85894 18883.70113 3920.47856
v 584.44488 18869.15247 3904.49904
v 0.00000 18752.97909 3886.44837
v -572.36808 18530.90487 3866.68429
v -1124.46716 18234.54600 3845.59854
v -1655.52818 17923.27403 3823.60904
v -2174.59814 17666.02671 3801.15160
v -2698.41029 17519.24941 3778.67134
v -3245.32379 17508.52593 3756.61381
v -3827.73966 17620.19046 3735.41619
v -4446.24153 17805.75589 3715.49861
v -5088.17972 17997.56721 3697.25584
v -5731.68208 18130.24971 3681.04946
v -6353.81028 18160.60644 3667.20066
v -6939.71302 18079.27910 3655.98393
v -7488.96317 17910.45819 3647.62158
v -8016.15160 17700.14079 3642.27936
v -8544.97825 17497.39509 3640.06315
v -9097.72337 17335.41587 3641.01687
v -9684.05396 17219.06058 3645.12162
v -10293.74719 17123.12021 3652.29605
v -10896.74450 17001.70583 3662.39795
v -11451.33098 16805.21073 3675.22711
v -11918.10039 16498.71880 3690.52926
v -12274.90928 16075.35079 3708.00110
v -12527.24205 15559.95156 3727.29636
v -12709.70911 15001.99282 3748.03259
v -12877.41161 14460.33744 3769.79882
v -13089.58470 13985.24882 3792.16363
v -13390.92554 13603.80508 3814.68375
v -13797.16091 13313.48269 3836.91284
v -14290.19141 13085.67302 3858.41033
v -14824.90343 12877.40257 3878.75013
v -15345.57825 12646.78927 3897.52910
v -15806.24877 12366.71823 3914.37507
v -16187.70135 12032.15576 3928.95412
v -16504.77827 11659.01997 3940.97732
v -16800.95286 11275.62733 3950.20637
v -17131.69637 10910.30311 3956.45834
v -17542.31550 10579.88859 3959.60932
v -18048.18134 10283.26117 3959.59685
v -18624.71549 10001.92166 3956.42120
v -19211.25799 9707.01843 3950.14529
v -19728.10565 9369.88119 3940.89352
v -20101.27462 8972.04333 3928.84925
v -20286.61517 8511.17283 3914.25120
v -20284.88360 8001.05727 3897.38871
v -20142.33589 7466.08361 3878.59598
v -19936.35600 6932.63180 3858.24548
v -19750.84828 6420.74195 3836.74057
v -19649.75599 5939.02944 3814.50746
v -19657.80392 5484.34018 3791.98681
v -19755.10007 5045.69806 3769.62499
v -19887.40534 4610.47852 3747.86520
v -19988.37623 4170.06034 3727.13871
v -20005.84752 3722.67834 3707.85632
v -19922.76186 3272.56924 3690.40022
v -19765.20716 2826.16863 3675.11637
v -19594.55442 2387.37710 3662.30770
v -19486.30934 1954.25431 3652.22808
v -19503.01644 1518.80051 3645.07729
v -19670.71377 1070.05852 3640.99704
v -19967.26029 599.23236 3640.06822
vt 19.252542 1.062307
vt 19.618548 1.082385
vt 20.081121 1.100831
vt 20.555591 1.117278
vt 20.948702 1.131400
vt 21.186856 1.142918
vt 21.237769 1.151604
vt 21.118252 1.157285
vt 20.885652 1.159848
vt 20.616134 1.159243
vt 20.377532 1.155482
vt 20.206257 1.148640
vt 20.096233 1.138851
vt 20.003524 1.126310
vt 19.864738 1.111266
vt 19.622474 1.094017
vt 19.248695 1.074904
vt 18.757672 1.054307
vt 18.203956 1.032633
vt 17.666062 1.010313
vt 17.221588 0.987788
vt 16.922367 0.965505
vt 16.778150 0.943906
vt 16.754221 0.923418
vt 16.783457 0.904449
vt 16.788373 0.887373
vt 16.705417 0.872530
vt 16.503247 0.860213
vt 16.189111 0.850666
vt 15.801760 0.844079
vt 15.394072 0.840583
vt 15.011992 0.840246
vt 14.677366 0.843076
vt 14.380584 0.849016
vt 14.085161 0.857948
vt 13.742120 0.869696
vt 13.308634 0.884026
vt 12.764108 0.900655
vt 12.118104 0.919253
vt 11.407618 0.939452
vt 10.685117 0.960850
vt 10.001892 0.983024
vt 9.392708 1.005535
vt 8.866919 1.027936
vt 8.408606 1.049784
vt 7.984987 1.070644
vt 7.559423 1.090105
vt 7.104070 1.107780
vt 6.607720 1.123318
vt 6.076547 1.136413
vt 5.528292 1.146803
vt 4.982830 1.154284
vt 4.453158 1.158707
vt 3.940334 1.159985
vt 3.434041 1.158092
vt 2.918038 1.153065
vt 2.377861 1.145005
vt 1.807349 1.134070
vt 1.211307 1.120479
vt 0.603336 1.104499
vt 0.000000 1.086448
vt -0.585987 1.066684
vt -1.150537 1.045599
vt -1.698846 1.023609
vt -2.241734 1.001152
vt -2.789389 0.978671
vt -3.345449 0.956614
vt -3.904292 0.935416
vt -4.453060 0.915499
vt -4.977850 0.897256
vt -5.471586 0.881049
vt -5.940055 0.867201
vt -6.403091 0.855984
vt -6.889658 0.847622
vt -7.428078 0.842279
vt -8.034790 0.840063
vt -8.706015 0.841017
vt -9.415945 0.845122
vt -10.122815 0.852296
vt -10.781307 0.862398
vt -11.357103 0.875227
vt -11.838329 0.890529
vt -12.239440 0.908001
vt -12.595670 0.927296
vt -12.949655 0.948033
vt -13.334867 0.969799
vt -13.761955 0.992164
vt -14.213349 1.014684
vt -14.648643 1.036913
vt -15.019374 1.058410
vt -15.288207 1.078750
vt -15.445610 1.097529
vt -15.517645 1.114375
vt -15.561410 1.128954
vt -15.649002 1.140977
vt -15.845055 1.150206
vt -16.185476 1.156458
vt -16.664864 1.159609
vt -17.237308 1.159597
vt -17.830683 1.156421
vt -18.369755 1.150145
vt -18.800256 1.140894
vt -19.105507 1.128849
vt -19.309733 1.114251
vt -19.466782 1.097389
vt -19.638170 1.078596
vt -19.868244 1.058245
vt -20.165393 1.036741
vt -20.496248 1.014507
vt -20.795277 0.991987
vt -20.986740 0.969625
vt -21.011486 0.947865
vt -20.849249 0.927139
vt -20.528479 0.907856
vt -20.120014 0.890400
vt -19.716475 0.875116
vt -19.404251 0.862308
vt -19.237537 0.852228
vt -19.223201 0.845077
vt -19.321495 0.840997
vt -19.462146 0.840068
vt 17.787354 1.622307
vt 18.119885 1.642385
vt 18.554586 1.660831
vt 19.016238 1.677278
vt 19.412093 1.691400
vt 19.660110 1.702918
vt 19.713988 1.711604
vt 19.576500 1.717285
vt 19.296675 1.719848
vt 18.951971 1.719243
vt 18.621717 1.715482
vt 18.361072 1.708640
vt 18.184443 1.698851
vt 18.063868 1.686310
vt 17.942594 1.671266
vt 17.758714 1.654017
vt 17.470314 1.634904
vt 17.073128 1.614307
vt 16.604471 1.592633
vt 16.132119 1.570313
vt 15.732102 1.547788
vt 15.463217 1.525505
vt 15.347116 1.503906
vt 15.360743 1.483418
vt 15.443544 1.464449
vt 15.516705 1.447373
vt 15.507636 1.432530
vt 15.371321 1.420213
vt 15.101487 1.410666
vt 14.728330 1.404079
vt 14.304269 1.400583
vt 13.883286 1.400246
vt 13.501360 1.403076
vt 13.164779 1.409016
vt 12.850017 1.417948
vt 12.514599 1.429696
vt 12.114537 1.444026
vt 11.621765 1.460655
vt 11.035339 1.479253
vt 10.382637 1.499452
vt 9.710571 1.520850
vt 9.070303 1.543024
vt 8.501132 1.565535
vt 8.019153 1.587936
vt 7.614306 1.609784
vt 7.256231 1.630644
vt 6.906194 1.650105
vt 6.530425 1.667780
vt 6.110057 1.683318
vt 5.644534 1.696413
vt 5.147981 1.706803
vt 4.640731 1.714284
vt 4.139791 1.718707
vt 3.652091 1.719985
vt 3.172925 1.718092
vt 2.689676 1.713065
vt 2.188804 1.705005
vt 1.662811 1.694070
vt 1.114159 1.680479
vt 0.554543 1.664499
vt 0.000000 1.646448
vt -0.535862 1.626684
vt -1.047473 1.605599
vt -1.539245 1.583609
vt -2.022988 1.561152
vt -2.511944 1.538671
vt -3.014147 1.516614
vt -3.528174 1.495416
vt -4.043421 1.475499
vt -4.545098 1.457256
vt -5.022013 1.441049
vt -5.473792 1.427201
vt -5.914143 1.415984
vt -6.368143 1.407622
vt -6.863893 1.402279
vt -7.421326 1.400063
vt -8.042388 1.401017
vt -8.706727 1.405122
vt -9.375202 1.412296
vt -10.000694 1.422398
vt -10.542784 1.435227
vt -10.981172 1.450529
vt -11.322766 1.468001
vt -11.599451 1.487296
vt -11.856877 1.508033
vt -12.137954 1.529799
vt -12.466964 1.552164
vt -12.840246 1.574684
vt -13.227281 1.596913
vt -13.582269 1.618410
vt -13.862405 1.638750
vt -14.046352 1.657529
vt -14.145969 1.674375
vt -14.206516 1.688954
vt -14.294501 1.700977
vt -14.476841 1.710206
vt -14.798290 1.716458
vt -15.265066 1.719609
vt -15.840681 1.719597
vt -16.455899 1.716421
vt -17.029783 1.710145
vt -17.494825 1.700894
vt -17.817546 1.688849
vt -18.007370 1.674251
vt -18.110614 1.657389
vt -18.191634 1.638596
vt -18.307766 1.618245
vt -18.486977 1.596741
vt -18.716303 1.574507
vt -18.945412 1.551987
vt -19.104289 1.529625
vt -19.128982 1.507865
vt -18.986384 1.487139
vt -18.689184 1.467856
vt -18.295487 1.450400
vt -17.892864 1.435116
vt -17.572053 1.422308
vt -17.399171 1.412228
vt -17.395870 1.405077
vt -17.534122 1.400997
vt -17.747301 1.400068
vt 17.881936 2.182307
vt 18.165802 2.202385
vt 18.550286 2.220831
vt 18.973777 2.237278
vt 19.349045 2.251400
vt 19.590040 2.262918
vt 19.639024 2.271604
vt 19.484771 2.277285
vt 19.165632 2.279848
vt 18.756464 2.279243
vt 18.344007 2.275482
vt 17.999205 2.268640
vt 17.755936 2.258851
vt 17.603273 2.246310
vt 17.493562 2.231266
vt 17.363113 2.214017
vt 17.157881 2.194904
vt 16.854976 2.174307
vt 16.472382 2.152633
vt 16.063606 2.130313
vt 15.699264 2.107788
vt 15.442235 2.085505
vt 15.325131 2.063906
vt 15.337943 2.043418
vt 15.430010 2.024449
vt 15.525470 2.007373
vt 15.546697 1.992530
vt 15.437612 1.980213
vt 15.179080 1.970666
vt 14.791530 1.964079
vt 14.324537 1.960583
vt 13.837584 1.960246
vt 13.379060 1.963076
vt 12.970836 1.969016
vt 12.603443 1.977948
vt 12.242890 1.989696
vt 11.846041 2.004026
vt 11.378547 2.020655
vt 10.828780 2.039253
vt 10.212926 2.059452
vt 9.569818 2.080850
vt 8.947801 2.103024
vt 8.388668 2.125535
vt 7.914441 2.147936
vt 7.521476 2.169784
vt 7.183464 2.190644
vt 6.861678 2.210105
vt 6.518308 2.227780
vt 6.128004 2.243318
vt 5.683739 2.256413
vt 5.195540 2.266803
vt 4.683385 2.274284
vt 4.167607 2.278707
vt 3.660786 2.279985
vt 3.164133 2.278092
vt 2.669317 2.273065
vt 2.164384 2.265005
vt 1.640827 2.254070
vt 1.098573 2.240479
vt 0.546751 2.224499
vt 0.000000 2.206448
vt -0.527909 2.186684
vt -1.030222 2.165599
vt -1.510328 2.143609
vt -1.980372 2.121152
vt -2.455884 2.098671
vt -2.948746 2.076614
vt -3.461628 2.055416
vt -3.986512 2.035499
vt -4.508257 2.017256
vt -5.011918 2.001049
vt -5.490807 1.987201
vt -5.951687 1.975984
vt -6.414402 1.967622
vt -6.905399 1.962279
vt -7.447127 1.960063
vt -8.047232 1.961017
vt -8.691956 1.965122
vt -9.346892 1.972296
vt -9.965643 1.982398
vt -10.503886 1.995227
vt -10.934064 2.010529
vt -11.255314 2.028001
vt -11.494655 2.047296
vt -11.698476 2.068033
vt -11.916920 2.089799
vt -12.186553 2.112164
vt -12.517610 2.134684
vt -12.890715 2.156913
vt -13.264710 2.178410
vt -13.593126 2.198750
vt -13.843542 2.217529
vt -14.012697 2.234375
vt -14.131459 2.248954
vt -14.257199 2.260977
vt -14.455612 2.270206
vt -14.778000 2.276458
vt -15.241911 2.279609
vt -15.822218 2.279597
vt -16.456232 2.276421
vt -17.061619 2.270145
vt -17.561327 2.260894
vt -17.907091 2.248849
vt -18.093407 2.234251
vt -18.157068 2.217389
vt -18.162324 2.198596
vt -18.176837 2.178245
vt -18.246868 2.156741
vt -18.380523 2.134507
vt -18.545097 2.111987
vt -18.679621 2.089625
vt -18.718270 2.067865
vt -18.616410 2.047139
vt -18.369955 2.027856
vt -18.020974 2.010400
vt -17.647213 1.995116
vt -17.338864 1.982308
vt -17.170361 1.972228
vt -17.176834 1.965077
vt -17.343253 1.960997
vt -17.609941 1.960068
vt 17.857051 2.742307
vt 18.074411 2.762385
vt 18.385520 2.780831
vt 18.745830 2.797278
vt 19.078315 2.811400
vt 19.297478 2.822918
vt 19.337199 2.831604
vt 19.172893 2.837285
vt 18.830283 2.839848
vt 18.377755 2.839243
vt 17.904901 2.835482
vt 17.494605 2.828640
vt 17.198172 2.818851
vt 17.021868 2.806310
vt 16.929140 2.791266
vt 16.857332 2.774017
vt 16.742660 2.754904
vt 16.544511 2.734307
vt 16.260490 2.712633
vt 15.927103 2.690313
vt 15.606066 2.667788
vt 15.361331 2.645505
vt 15.235067 2.623906
vt 15.231094 2.603418
vt 15.311510 2.584449
vt 15.407551 2.567373
vt 15.440780 2.552530
vt 15.347187 2.540213
vt 15.096005 2.530666
vt 14.697085 2.524079
vt 14.194815 2.520583
vt 13.651256 2.520246
vt 13.124756 2.523076
vt 12.651568 2.529016
vt 12.236576 2.537948
vt 11.855753 2.549696
vt 11.468715 2.564026
vt 11.036288 2.580655
vt 10.536496 2.599253
vt 9.973306 2.619452
vt 9.375363 2.640850
vt 8.785670 2.663024
vt 8.246380 2.685535
vt 7.784360 2.707936
vt 7.402643 2.729784
vt 7.080425 2.750644
vt 6.781088 2.770105
vt 6.464874 2.787780
vt 6.101419 2.803318
vt 5.677774 2.816413
vt 5.199541 2.826803
vt 4.685481 2.834284
vt 4.158331 2.838707
vt 3.635734 2.839985
vt 3.124757 2.838092
vt 2.621721 2.833065
vt 2.116776 2.825005
vt 1.600721 2.814070
vt 1.070841 2.800479
vt 0.533129 2.784499
vt 0.000000 2.766448
vt -0.515360 2.746684
vt -1.005380 2.725599
vt -1.472236 2.703609
vt -1.927740 2.681152
vt -2.388835 2.658671
vt -2.870525 2.636614
vt -3.379279 2.615416
vt -3.909909 2.595499
vt -4.447522 2.577256
vt -4.974032 2.561049
vt -5.476671 2.547201
vt -5.954863 2.535984
vt -6.422226 2.527622
vt -6.902279 2.522279
vt -7.418969 2.520063
vt -7.985404 2.521017
vt -8.595288 2.525122
vt -9.220863 2.532296
vt -9.818974 2.542398
vt -10.343789 2.555227
vt -10.762017 2.570529
vt -11.065168 2.588001
vt -11.274080 2.607296
vt -11.433531 2.628033
vt -11.598288 2.649799
vt -11.815205 2.672164
vt -12.107661 2.694684
vt -12.468121 2.716913
vt -12.861820 2.738410
vt -13.240636 2.758750
vt -13.562387 2.777529
vt -13.808596 2.794375
vt -13.994001 2.808954
vt -14.163836 2.820977
vt -14.379256 2.830206
vt -14.695589 2.836458
vt -15.140976 2.839609
vt -15.703119 2.839597
vt -16.329294 2.836421
vt -16.940215 2.830145
vt -17.453489 2.820894
vt -17.808831 2.808849
vt -17.986412 2.794251
vt -18.011939 2.777389
vt -17.946552 2.758596
vt -17.864974 2.738245
vt -17.829466 2.716741
vt -17.868716 2.694507
vt -17.969105 2.671987
vt -18.081488 2.649625
vt -18.141123 2.627865
vt -18.093702 2.607139
vt -17.918169 2.587856
vt -17.638058 2.570400
vt -17.317055 2.555116
vt -17.039997 2.542308
vt -16.885700 2.532228
vt -16.900895 2.525077
vt -17.084279 2.520997
vt -17.386195 2.520068
vt 18.905485 3.302307
vt 19.045807 3.322385
vt 19.267485 3.340831
vt 19.545578 3.357278
vt 19.817372 3.371400
vt 20.002356 3.382918
vt 20.029403 3.391604
vt 19.861758 3.397285
vt 19.511093 3.399848
vt 19.035679 3.399243
vt 18.523183 3.395482
vt 18.063930 3.388640
vt 17.723708 3.378851
vt 17.525281 3.366310
vt 17.444669 3.351266
vt 17.423075 3.334017
vt 17.389937 3.314904
vt 17.288806 3.294307
vt 17.096984 3.272633
vt 16.832210 3.250313
vt 16.544371 3.227788
vt 16.295535 3.205505
vt 16.135625 3.183906
vt 16.082451 3.163418
vt 16.113134 3.144449
vt 16.169817 3.127373
vt 16.177512 3.112530
vt 16.067768 3.100213
vt 15.799950 3.090666
vt 15.372987 3.084079
vt 14.823924 3.080583
vt 14.214279 3.080246
vt 13.609346 3.083076
vt 13.057787 3.089016
vt 12.578385 3.097948
vt 12.158035 3.109696
vt 11.760879 3.124026
vt 11.344641 3.140655
vt 10.877894 3.159253
vt 10.352037 3.179452
vt 9.784003 3.200850
vt 9.209279 3.223024
vt 8.668311 3.245535
vt 8.191579 3.267936
vt 7.788801 3.289784
vt 7.445917 3.310644
vt 7.130478 3.330105
vt 6.803002 3.347780
vt 6.429856 3.363318
vt 5.993023 3.376413
vt 5.493571 3.386803
vt 4.948231 3.394284
vt 4.381086 3.398707
vt 3.813987 3.399985
vt 3.259483 3.398092
vt 2.718679 3.393065
vt 2.184238 3.385005
vt 1.646638 3.374070
vt 1.100567 3.360479
vt 0.548511 3.344499
vt 0.000000 3.326448
vt -0.533033 3.306684
vt -1.042538 3.285599
vt -1.529292 3.263609
vt -2.004064 3.241152
vt -2.484207 3.218671
vt -2.986920 3.196614
vt -3.521969 3.175416
vt -4.087071 3.155499
vt -4.668163 3.137256
vt -5.244799 3.121049
vt -5.798683 3.107201
vt -6.321895 3.095984
vt -6.821164 3.087622
vt -7.315977 3.082279
vt -7.830694 3.080063
vt -8.383378 3.081017
vt -8.975674 3.085122
vt -9.588028 3.092296
vt -10.182833 3.102398
vt -10.715157 3.115227
vt -11.147714 3.130529
vt -11.464819 3.148001
vt -11.680032 3.167296
vt -11.834159 3.188033
vt -11.983665 3.209799
vt -12.183097 3.232164
vt -12.467525 3.254684
vt -12.841308 3.276913
vt -13.277490 3.298410
vt -13.728390 3.318750
vt -14.143907 3.337529
vt -14.491062 3.354375
vt -14.767580 3.368954
vt -15.004251 3.380977
vt -15.254665 3.390206
vt -15.575535 3.396458
vt -16.004388 3.399609
vt -16.542642 3.399597
vt -17.150480 3.396421
vt -17.755969 3.390145
vt -18.275826 3.380894
vt -18.641066 3.368849
vt -18.818789 3.354251
vt -18.822515 3.337389
vt -18.707320 3.318596
vt -18.551257 3.298245
vt -18.429383 3.276741
vt -18.389342 3.254507
vt -18.437004 3.231987
vt -18.537165 3.209625
vt -18.629015 3.187865
vt -18.650884 3.167139
vt -18.565402 3.147856
vt -18.376042 3.130400
vt -18.128944 3.115116
vt -17.899145 3.102308
vt -17.765785 3.092228
vt -17.784851 3.085077
vt -17.968926 3.080997
vt -18.281047 3.080068
vt 20.691764 3.862307
vt 20.748360 3.882385
vt 20.869579 3.900831
vt 21.051582 3.917278
vt 21.249257 3.931400
vt 21.391161 3.942918
vt 21.404671 3.951604
vt 21.242551 3.957285
vt 20.901606 3.959848
vt 20.426768 3.959243
vt 19.899040 3.955482
vt 19.411287 3.948640
vt 19.040107 3.938851
vt 18.823269 3.926310
vt 18.750259 3.911266
vt 18.768852 3.894017
vt 18.805088 3.874904
vt 18.789467 3.854307
vt 18.680182 3.832633
vt 18.475475 3.810313
vt 18.211153 3.787788
vt 17.944608 3.765505
vt 17.731374 3.743906
vt 17.602738 3.723418
vt 17.552358 3.704449
vt 17.536511 3.687373
vt 17.487697 3.672530
vt 17.336664 3.660213
vt 17.035082 3.650666
vt 16.571066 3.644079
vt 15.972438 3.640583
vt 15.296989 3.640246
vt 14.613524 3.643076
vt 13.980455 3.649016
vt 13.429278 3.657948
vt 12.958205 3.669696
vt 12.537448 3.684026
vt 12.123531 3.700655
vt 11.676985 3.719253
vt 11.176966 3.739452
vt 10.627819 3.760850
vt 10.055779 3.783024
vt 9.497667 3.805535
vt 8.986210 3.827936
vt 8.537526 3.849784
vt 8.145230 3.870644
vt 7.782904 3.890105
vt 7.413543 3.907780
vt 7.002134 3.923318
vt 6.526665 3.936413
vt 5.983740 3.946803
vt 5.387303 3.954284
vt 4.761600 3.958707
vt 4.131577 3.959985
vt 3.514582 3.958092
vt 2.916359 3.953065
vt 2.332353 3.945005
vt 1.753095 3.934070
vt 1.170859 3.920479
vt 0.584445 3.904499
vt 0.000000 3.886448
vt -0.572368 3.866684
vt -1.124467 3.845599
vt -1.655528 3.823609
vt -2.174598 3.801152
vt -2.698410 3.778671
vt -3.245324 3.756614
vt -3.827740 3.735416
vt -4.446242 3.715499
vt -5.088180 3.697256
vt -5.731682 3.681049
vt -6.353810 3.667201
vt -6.939713 3.655984
vt -7.488963 3.647622
vt -8.016152 3.642279
vt -8.544978 3.640063
vt -9.097723 3.641017
vt -9.684054 3.645122
vt -10.293747 3.652296
vt -10.896744 3.662398
vt -11.451331 3.675227
vt -11.918100 3.690529
vt -12.274909 3.708001
vt -12.527242 3.727296
vt -12.709709 3.748033
vt -12.877412 3.769799
vt -13.089585 3.792164
vt -13.390926 3.814684
vt -13.797161 3.836913
vt -14.290191 3.858410
vt -14.824903 3.878750
vt -15.345578 3.897529
vt -15.806249 3.914375
vt -16.187701 3.928954
vt -16.504778 3.940977
vt -16.800953 3.950206
vt -17.131696 3.956458
vt -17.542315 3.959609
vt -18.048181 3.959597
vt -18.624715 3.956421
vt -19.211258 3.950145
vt -19.728106 3.940894
vt -20.101275 3.928849
vt -20.286615 3.914251
vt -20.284884 3.897389
vt -20.142336 3.878596
vt -19.936356 3.858245
vt -19.750848 3.836741
vt -19.649756 3.814507
vt -19.657804 3.791987
vt -19.755100 3.769625
vt -19.887405 3.747865
vt -19.988376 3.727139
vt -20.005848 3.707856
vt -19.922762 3.690400
vt -19.765207 3.675116
vt -19.594554 3.662308
vt -19.486309 3.652228
vt -19.503016 3.645077
vt -19.670714 3.640997
vt -19.967260 3.640068
f 1/1 122/122 123/123
f 1/1 123/123 2/2
f 2/2 123/123 124/124
f 2/2 124/124 3/3
f 3/3 124/124 125/125
f 3/3 125/125 4/4
f 4/4 125/125 126/126
f 4/4 126/126 5/5
f 5/5 126/126 127/127
f 5/5 127/127 6/6
f 6/6 127/127 128/128
f 6/6 128/128 7/7
f 7/7 128/128 129/129
f 7/7 129/129 8/8
f 8/8 129/129 130/130
f 8/8 130/130 9/9
f 9/9 130/130 131/131
f 9/9 131/131 10/10
f 10/10 131/131 132/132
f 10/10 132/132 11/11
f 11/11 132/132 133/133
f 11/11 133/133 12/12
f 12/12 133/133 134/134
f 12/12 134/134 13/13
f 13/13 134/134 135/135
f 13/13 135/135 14/14
f 14/14 135/135 136/136
f 14/14 136/136 15/15
f 15/15 136/136 137/137
f 15/15 137/137 16/16
f 16/16 137/137 138/138
f 16/16 138/138 17/17
f 17/17 138/138 139/139
f 17/17 139/139 18/18
f 18/18 139/139 140/140
f 18/18 140/140 19/19
f 19/19 140/140 141/141
f 19/19 141/141 20/20
f 20/20 141/141 142/142
f 20/20 142/142 21/21
f 21/21 142/142 143/143
f 21/21 143/143 22/22
f 22/22 143/143 144/144
f 22/22 144/144 23/23
f 23/23 144/144 145/145
f 23/23 145/145 24/24
f 24/24 145/145 146/146
f 24/24 146/146 25/25
f 25/25 146/146 147/147
f 25/25 147/147 26/26
f 26/26 147/147 148/148
f 26/26 148/148 27/27
f 27/27 148/148 149/149
f 27/27 149/149 28/28
f 28/28 149/149 150/150
f 28/28 150/150 29/29
f 29/29 150/150 151/151
f 29/29 151/151 30/30
f 30/30 151/151 152/152
f 30/30 152/152 31/31
f 31/31 152/152 153/153
f 31/31 153/153 32/32
f 32/32 153/153 154/154
f 32/32 154/154 33/33
f 33/33 154/154 155/155
f 33/33 155/155 34/34
f 34/34 155/155 156/156
f 34/34 156/156 35/35
f 35/35 156/156 157/157
f 35/35 157/157 36/36
f 36/36 157/157 158/158
f 36/36 158/158 37/37
f 37/37 158/158 159/159
f 37/37 159/159 38/38
f 38/38 159/159 160/160
f 38/38 160/160 39/39
f 39/39 160/160 161/161
f 39/39 161/161 40/40
f 40/40 161/161 162/162
f 40/40 162/162 41/41
f 41/41 162/162 163/163
f 41/41 163/163 42/42
f 42/42 163/163 164/164
f 42/42 164/164 43/43
f 43/43 164/164 165/165
f 43/43 165/165 44/44
f 44/44 165/165 166/166
f 44/44 166/166 45/45
f 45/45 166/166 167/167
f 45/45 167/167 46/46
f 46/46 167/167 168/168
f 46/46 168/168 47/47
f 47/47 168/168 169/169
f 47/47 169/169 48/48
f 48/48 169/169 170/170
f 48/48 170/170 49/49
f 49/49 170/170 171/171
f 49/49 171/171 50/50
f 50/50 171/171 172/172
f 50/50 172/172 51/51
f 51/51 172/172 173/173
f 51/51 173/173 52/52
f 52/52 173/173 174/174
f 52/52 174/174 53/53
f 53/53 174/174 175/175
f 53/53 175/175 54/54
f 54/54 175/175 176/176
f 54/54 176/176 55/55
f 55/55 176/176 177/177
f 55/55 177/177 56/56
f 56/56 177/177 178/178
f 56/56 178/178 57/57
f 57/57 178/178 179/179
f 57/57 179/179 58/58
f 58/58 179/179 180/180
f 58/58 180/180 59/59
f 59/59 180/180 181/181
f 59/59 181/181 60/60
f 60/60 181/181 182/182
f 60/60 182/182 61/61
f 61/61 182/182 183/183
f 61/61 183/183 62/62
f 62/62 183/183 184/184
f 62/62 184/184 63/63
f 63/63 184/184 185/185
f 63/63 185/185 64/64
f 64/64 185/185 186/186
f 64/64 186/186 65/65
f 65/65 186/186 187/187
f 65/65 187/187 66/66
f 66/66 187/187 188/188
f 66/66 188/188 67/67
f 67/67 188/188 189/189
f 67/67 189/189 68/68
f 68/68 189/189 190/190
f 68/68 190/190 69/69
f 69/69 190/190 191/191
f 69/69 191/191 70/70
f 70/70 191/191 192/192
f 70/70 192/192 71/71
f 71/71 192/192 193/193
f 71/71 193/193 72/72
f 72/72 193/193 194/194
f 72/72 194/194 73/73
f 73/73 194/194 195/195
f 73/73 195/195 74/74
f 74/74 195/195 196/196
f 74/74 196/196 75/75
f 75/75 196/196 197/197
f 75/75 197/197 76/76
f 76/76 197/197 198/198
f 76/76 198/198 77/77
f 77/77 198/198 199/199
f 77/77 199/199 78/78
f 78/78 199/199 200/200
f 78/78 200/200 79/79
f 79/79 200/200 201/201
f 79/79 201/201 80/80
f 80/80 201/201 202/202
f 80/80 202/202 81/81
f 81/81 202/202 203/203
f 81/81 203/203 82/82
f 82/82 203/203 204/204
f 82/82 204/204 83/83
f 83/83 204/204 205/205
f 83/83 205/205 84/84
f 84/84 205/205 206/206
f 84/84 206/206 85/85
f 85/85 206/206 207/207
f 85/85 207/207 86/86
f 86/86 207/207 208/208
f 86/86 208/208 87/87
f 87/87 208/208 209/209
f 87/87 209/209 88/88
f 88/88 209/209 210/210
f 88/88 210/210 89/89
f 89/89 210/210 211/211
f 89/89 211/211 90/90
f 90/90 211/211 212/212
f 90/90 212/212 91/91
f 91/91 212/212 213/213
f 91/91 213/213 92/92
f 92/92 213/213 214/214
f 92/92 214/214 93/93
f 93/93 214/214 215/215
f 93/93 215/215 94/94
f 94/94 215/215 216/216
f 94/94 216/216 95/95
f 95/95 216/216 217/217
f 95/95 217/217 96/96
f 96/96 217/217 218/218
f 96/96 218/218 97/97
f 97/97 218/218 219/219
f 97/97 219/219 98/98
f 98/98 219/219 220/220
f 98/98 220/220 99/99
f 99/99 220/220 221/221
f 99/99 221/221 100/100
f 100/100 221/221 222/222
f 100/100 222/222 101/101
f 101/101 222/222 223/223
f 101/101 223/223 102/102
f 102/102 223/223 224/224
f 102/102 224/224 103/103
f 103/103 224/224 225/225
f 103/103 225/225 104/104
f 104/104 225/225 226/226
f 104/104 226/226 105/105
f 105/105 226/226 227/227
f 105/105 227/227 106/106
f 106/106 227/227 228/228
f 106/106 228/228 107/107
f 107/107 228/228 229/229
f 107/107 229/229 108/108
f 108/108 229/229 230/230
f 108/108 230/230 109/109
f 109/109 230/230 231/231
f 109/109 231/231 110/110
f 110/110 231/231 232/232
f 110/110 232/232 111/111
f 111/111 232/232 233/233
f 111/111 233/233 112/112
f 112/112 233/233 234/234
f 112/112 234/234 113/113
f 113/113 234/234 235/235
f 113/113 235/235 114/114
f 114/114 235/235 236/236
f 114/114 236/236 115/115
f 115/115 236/236 237/237
f 115/115 237/237 116/116
f 116/116 237/237 238/238
f 116/116 238/238 117/117
f 117/117 238/238 239/239
f 117/117 239/239 118/118
f 118/118 239/239 240/240
f 118/118 240/240 119/119
f 119/119 240/240 241/241
f 119/119 241/241 120/120
f 120/120 241/241 242/242
f 120/120 242/242 121/121
f 122/122 243/243 244/244
f 122/122 244/244 123/123
f 123/123 244/244 245/245
f 123/123 245/245 124/124
f 124/124 245/245 246/246
f 124/124 246/246 125/125
f 125/125 246/246 247/247
f 125/125 247/247 126/126
f 126/126 247/247 248/248
f 126/126 248/248 127/127
f 127/127 248/248 249/249
f 127/127 249/249 128/128
f 128/128 249/249 250/250
f 128/128 250/250 129/129
f 129/129 250/250 251/251
f 129/129 251/251 130/130
f 130/130 251/251 252/252
f 130/130 252/252 131/131
f 131/131 252/252 253/253
f 131/131 253/253 132/132
f 132/132 253/253 254/254
f 132/132 254/254 133/133
f 133/133 254/254 255/255
f 133/133 255/255 134/134
f 134/134 255/255 256/256
f 134/134 256/256 135/135
f 135/135 256/256 257/257
f 135/135 257/257 136/136
f 136/136 257/257 258/258
f 136/136 258/258 137/137
f 137/137 258/258 259/259
f 137/137 259/259 138/138
f 138/138 259/259 260/260
f 138/138 260/260 139/139
f 139/139 260/260 261/261
f 139/139 261/261 140/140
f 140/140 261/261 262/262
f 140/140 262/262 141/141
f 141/141 262/262 263/263
f 141/141 263/263 142/142
f 142/142 263/263 264/264
f 142/142 264/264 143/143
f 143/143 264/264 265/265
f 143/143 265/265 144/144
f 144/144 265/265 266/266
f 144/144 266/266 145/145
f 145/145 266/266 267/267
f 145/145 267/267 146/146
f 146/146 267/267 268/268
f 146/146 268/268 147/147
f 147/147 268/268 269/269
f 147/147 269/269 148/148
f 148/148 269/269 270/270
f 148/148 270/270 149/149
f 149/149 270/270 271/271
f 149/149 271/271 150/150
f 150/150 271/271 272/272
f 150/150 272/272 151/151
f 151/151 272/272 273/273
f 151/151 273/273 152/152
f 152/152 273/273 274/274
f 152/152 274/274 153/153
f 153/153 274/274 275/275
f 153/153 275/275 154/154
f 154/154 275/275 276/276
f 154/154 276/276 155/155
f 155/155 276/276 277/277
f 155/155 277/277 156/156
f 156/156 277/277 278/278
f 156/156 278/278 157/157
f 157/157 278/278 279/279
f 157/157 279/279 158/158
f 158/158 279/279 280/280
f 158/158 280/280 159/159
f 159/159 280/280 281/281
f 159/159 281/281 160/160
f 160/160 281/281 282/282
f 160/160 282/282 161/161
f 161/161 282/282 283/283
f 161/161 283/283 162/162
f 162/162 283/283 284/284
f 162/162 284/284 163/163
f 163/163 284/284 285/285
f 163/163 285/285 164/164
f 164/164 285/285 286/286
f 164/164 286/286 165/165
f 165/165 286/286 287/287
f 165/165 287/287 166/166
f 166/166 287/287 288/288
f 166/166 288/288 167/167
f 167/167 288/288 289/289
f 167/167 289/289 168/168
f 168/168 289/289 290/290
f 168/168 290/290 169/169
f 169/169 290/290 291/291
f 169/169 291/291 170/170
f 170/170 291/291 292/292
f 170/170 292/292 171/171
f 171/171 292/292 293/293
f 171/171 293/293 172/172
f 172/172 293/293 294/294
f 172/172 294/294 173/173
f 173/173 294/294 295/295
f 173/173 295/295 174/174
f 174/174 295/295 296/296
f 174/174 296/296 175/175
f 175/175 296/296 297/297
f 175/175 297/297 176/176
f 176/176 297/297 298/298
f 176/176 298/298 177/177
f 177/177 298/298 299/299
f 177/177 299/299 178/178
f 178/178 299/299 300/300
f 178/178 300/300 179/179
f 179/179 300/300 301/301
f 179/179 301/301 180/180
f 180/180 301/301 302/302
f 180/180 302/302 181/181
f 181/181 302/302 303/303
f 181/181 303/303 182/182
f 182/182 303/303 304/304
f 182/182 304/304 183/183
f 183/183 304/304 305/305
f 183/183 305/305 184/184
f 184/184 305/305 306/306
f 184/184 306/306 185/185
f 185/185 306/306 307/307
f 185/185 307/307 186/186
f 186/186 307/307 308/308
f 186/186 308/308 187/187
f 187/187 308/308 309/309
f 187/187 309/309 188/188
f 188/188 309/309 310/310
f 188/188 310/310 189/189
f 189/189 310/310 311/311
f 189/189 311/311 190/190
f 190/190 311/311 312/312
f 190/190 312/312 191/191
f 191/191 312/312 313/313
f 191/191 313/313 192/192
f 192/192 313/313 314/314
f 192/192 314/314 193/193
f 193/193 314/314 315/315
f 193/193 315/315 194/194
f 194/194 315/315 316/316
f 194/194 316/316 195/195
f 195/195 316/316 317/317
f 195/195 317/317 196/196
f 196/196 317/317 318/318
f 196/196 318/318 197/197
f 197/197 318/318 319/319
f 197/197 319/319 198/198
f 198/198 319/319 320/320
f 198/198 320/320 199/199
f 199/199 320/320 321/321
f 199/199 321/321 200/200
f 200/200 321/321 322/322
f 200/200 322/322 201/201
f 201/201 322/322 323/323
f 201/201 323/323 202/202
f 202/202 323/323 324/324
f 202/202 324/324 203/203
f 203/203 324/324 325/325
f 203/203 325/325 204/204
f 204/204 325/325 326/326
f 204/204 326/326 205/205
f 205/205 326/326 327/327
f 205/205 327/327 206/206
f 206/206 327/327 328/328
f 206/206 328/328 207/207
f 207/207 328/328 329/329
f 207/207 329/329 208/208
f 208/208 329/329 330/330
f 208/208 330/330 209/209
f 209/209 330/330 331/331
f 209/209 331/331 210/210
f 210/210 331/331 332/332
f 210/210 332/332 211/211
f 211/211 332/332 333/333
f 211/211 333/333 212/212
f 212/212 333/333 334/334
f 212/212 334/334 213/213
f 213/213 334/334 335/335
f 213/213 335/335 214/214
f 214/214 335/335 336/336
f 214/214 336/336 215/215
f 215/215 336/336 337/337
f 215/215 337/337 216/216
f 216/216 337/337 338/338
f 216/216 338/338 217/217
f 217/217 338/338 339/339
f 217/217 339/339 218/218
f 218/218 339/339 340/340
f 218/218 340/340 219/219
f 219/219 340/340 341/341
f 219/219 341/341 220/220
f 220/220 341/341 342/342
f 220/220 342/342 221/221
f 221/221 342/342 343/343
f 221/221 343/343 222/222
f 222/222 343/343 344/344
f 222/222 344/344 223/223
f 223/223 344/344 345/345
f 223/223 345/345 224/224
f 224/224 345/345 346/346
f 224/224 346/346 225/225
f 225/225 346/346 347/347
f 225/225 347/347 226/226
f 226/226 347/347 348/348
f 226/226 348/348 227/227
f 227/227 348/348 349/349
f 227/227 349/349 228/228
f 228/228 349/349 350/350
f 228/228 350/350 229/229
f 229/229 350/350 351/351
f 229/229 351/351 230/230
f 230/230 351/351 352/352
f 230/230 352/352 231/231
f 231/231 352/352 353/353
f 231/231 353/353 232/232
f 232/232 353/353 354/354
f 232/232 354/354 233/233
f 233/233 354/354 355/355
f 233/233 355/355 234/234
f 234/234 355/355 356/356
f 234/234 356/356 235/235
f 235/235 356/356 357/357
f 235/235 357/357 236/236
f 236/236 357/357 358/358
f 236/236 358/358 237/237
f 237/237 358/358 359/359
f 237/237 359/359 238/238
f 238/238 359/359 360/360
f 238/238 360/360 239/239
f 239/239 360/360 361/361
f 239/239 361/361 240/240
f 240/240 361/361 362/362
f 240/240 362/362 241/241
f 241/241 362/362 363/363
f 241/241 363/363 242/242
f 243/243 364/364 365/365
f 243/243 365/365 244/244
f 244/244 365/365 366/366
f 244/244 366/366 245/245
f 245/245 366/366 367/367
f 245/245 367/367 246/246
f 246/246 367/367 368/368
f 246/246 368/368 247/247
f 247/247 368/368 369/369
f 247/247 369/369 248/248
f 248/248 369/369 370/370
f 248/248 370/370 249/249
f 249/249 370/370 371/371
f 249/249 371/371 250/250
f 250/250 371/371 372/372
f 250/250 372/372 251/251
f 251/251 372/372 373/373
f 251/251 373/373 252/252
f 252/252 373/373 374/374
f 252/252 374/374 253/253
f 253/253 374/374 375/375
f 253/253 375/375 254/254
f 254/254 375/375 376/376
f 254/254 376/376 255/255
f 255/255 376/376 377/377
f 255/255 377/377 256/256
f 256/256 377/377 378/378
f 256/256 378/378 257/257
f 257/257 378/378 379/379
f 257/257 379/379 258/258
f 258/258 379/379 380/380
f 258/258 380/380 259/259
f 259/259 380/380 381/381
f 259/259 381/381 260/260
f 260/260 381/381 382/382
f 260/260 382/382 261/261
f 261/261 382/382 383/383
f 261/261 383/383 262/262
f 262/262 383/383 384/384
f 262/262 384/384 263/263
f 263/263 384/384 385/385
f 263/263 385/385 264/264
f 264/264 385/385 386/386
f 264/264 386/386 265/265
f 265/265 386/386 387/387
f 265/265 387/387 266/266
f 266/266 387/387 388/388
f 266/266 388/388 267/267
f 267/267 388/388 389/389
f 267/267 389/389 268/268
f 268/268 389/389 390/390
f 268/268 390/390 269/269
f 269/269 390/390 391/391
f 269/269 391/391 270/270
f 270/270 391/391 392/392
f 270/270 392/392 271/271
f 271/271 392/392 393/393
f 271/271 393/393 272/272
f 272/272 393/393 394/394
f 272/272 394/394 273/273
f 273/273 394/394 395/395
f 273/273 395/395 274/274
f 274/274 395/395 396/396
f 274/274 396/396 275/275
f 275/275 396/396 397/397
f 275/275 397/397 276/276
f 276/276 397/397 398/398
f 276/276 398/398 277/277
f 277/277 398/398 399/399
f 277/277 399/399 278/278
f 278/278 399/399 400/400
f 278/278 400/400 279/279
f 279/279 400/400 401/401
f 279/279 401/401 280/280
f 280/280 401/401 402/402
f 280/280 402/402 281/281
f 281/281 402/402 403/403
f 281/281 403/403 282/282
f 282/282 403/403 404/404
f 282/282 404/404 283/283
f 283/283 404/404 405/405
f 283/283 405/405 284/284
f 284/284 405/405 406/406
f 284/284 406/406 285/285
f 285/285 406/406 407/407
f 285/285 407/407 286/286
f 286/286 407/407 408/408
f 286/286 408/408 287/287
f 287/287 408/408 409/409
f 287/287 409/409 288/288
f 288/288 409/409 410/410
f 288/288 410/410 289/289
f 289/289 410/410 411/411
f 289/289 411/411 290/290
f 290/290 411/411 412/412
f 290/290 412/412 291/291
f 291/291 412/412 413/413
f 291/291 413/413 292/292
f 292/292 413/413 414/414
f 292/292 414/414 293/293
f 293/293 414/414 415/415
f 293/293 415/415 294/294
f 294/294 415/415 416/416
f 294/294 416/416 295/295
f 295/295 416/416 417/417
f 295/295 417/417 296/296
f 296/296 417/417 418/418
f 296/296 418/418 297/297
f 297/297 418/418 419/419
f 297/297 419/419 298/298
f 298/298 419/419 420/420
f 298/298 420/420 299/299
f 299/299 420/420 421/421
f 299/299 421/421 300/300
f 300/300 421/421 422/422
f 300/300 422/422 301/301
f 301/301 422/422 423/423
f 301/301 423/423 302/302
f 302/302 423/423 424/424
f 302/302 424/424 303/303
f 303/303 424/424 425/425
f 303/303 425/425 304/304
f 304/304 425/425 426/426
f 304/304 426/426 305/305
f 305/305 426/426 427/427
f 305/305 427/427 306/306
f 306/306 427/427 428/428
f 306/306 428/428 307/307
f 307/307 428/428 429/429
f 307/307 429/429 308/308
f 308/308 429/429 430/430
f 308/308 430/430 309/309
f 309/309 430/430 431/431
f 309/309 431/431 310/310
f 310/310 431/431 432/432
f 310/310 432/432 311/311
f 311/311 432/432 433/433
f 311/311 433/433 312/312
f 312/312 433/433 434/434
f 312/312 434/434 313/313
f 313/313 434/434 435/435
f 313/313 435/435 314/314
f 314/314 435/435 436/436
f 314/314 436/436 315/315
f 315/315 436/436 437/437
f 315/315 437/437 316/316
f 316/316 437/437 438/438
f 316/316 438/438 317/317
f 317/317 438/438 439/439
f 317/317 439/439 318/318
f 318/318 439/439 440/440
f 318/318 440/440 319/319
f 319/319 440/440 441/441
f 319/319 441/441 320/320
f 320/320 441/441 442/442
f 320/320 442/442 321/321
f 321/321 442/442 443/443
f 321/321 443/443 322/322
f 322/322 443/443 444/444
f 322/322 444/444 323/323
f 323/323 444/444 445/445
f 323/323 445/445 324/324
f 324/324 445/445 446/446
f 324/324 446/446 325/325
f 325/325 446/446 447/447
f 325/325 447/447 326/326
f 326/326 447/447 448/448
f 326/326 448/448 327/327
f 327/327 448/448 449/449
f 327/327 449/449 328/328
f 328/328 449/449 450/450
f 328/328 450/450 329/329
f 329/329 450/450 451/451
f 329/329 451/451 330/330
f 330/330 451/451 452/452
f 330/330 452/452 331/331
f 331/331 452/452 453/453
f 331/331 453/453 332/332
f 332/332 453/453 454/454
f 332/332 454/454 333/333
f 333/333 454/454 455/455
f 333/333 455/455 334/334
f 334/334 455/455 456/456
f 334/334 456/456 335/335
f 335/335 456/456 457/457
f 335/335 457/457 336/336
f 336/336 457/457 458/458
f 336/336 458/458 337/337
f 337/337 458/458 459/459
f 337/337 459/459 338/338
f 338/338 459/459 460/460
f 338/338 460/460 339/339
f 339/339 460/460 461/461
f 339/339 461/461 340/340
f 340/340 461/461 462/462
f 340/340 462/462 341/341
f 341/341 462/462 463/463
f 341/341 463/463 342/342
f 342/342 463/463 464/464
f 342/342 464/464 343/343
f 343/343 464/464 465/465
f 343/343 465/465 344/344
f 344/344 465/465 466/466
f 344/344 466/466 345/345
f 345/345 466/466 467/467
f 345/345 467/467 346/346
f 346/346 467/467 468/468
f 346/346 468/468 347/347
f 347/347 468/468 469/469
f 347/347 469/469 348/348
f 348/348 469/469 470/470
f 348/348 470/470 349/349
f 349/349 470/470 471/471
f 349/349 471/471 350/350
f 350/350 471/471 472/472
f 350/350 472/472 351/351
f 351/351 472/472 473/473
f 351/351 473/473 352/352
f 352/352 473/473 474/474
f 352/352 474/474 353/353
f 353/353 474/474 475/475
f 353/353 475/475 354/354
f 354/354 475/475 476/476
f 354/354 476/476 355/355
f 355/355 476/476 477/477
f 355/355 477/477 356/356
f 356/356 477/477 478/478
f 356/356 478/478 357/357
f 357/357 478/478 479/479
f 357/357 479/479 358/358
f 358/358 479/479 480/480
f 358/358 480/480 359/359
f 359/359 480/480 481/481
f 359/359 481/481 360/360
f 360/360 481/481 482/482
f 360/360 482/482 361/361
f 361/361 482/482 483/483
f 361/361 483/483 362/362
f 362/362 483/483 484/484
f 362/362 484/484 363/363
f 364/364 485/485 486/486
f 364/364 486/486 365/365
f 365/365 486/486 487/487
f 365/365 487/487 366/366
f 366/366 487/487 488/488
f 366/366 488/488 367/367
f 367/367 488/488 489/489
f 367/367 489/489 368/368
f 368/368 489/489 490/490
f 368/368 490/490 369/369
f 369/369 490/490 491/491
f 369/369 491/491 370/370
f 370/370 491/491 492/492
f 370/370 492/492 371/371
f 371/371 492/492 493/493
f 371/371 493/493 372/372
f 372/372 493/493 494/494
f 372/372 494/494 373/373
f 373/373 494/494 495/495
f 373/373 495/495 374/374
f 374/374 495/495 496/496
f 374/374 496/496 375/375
f 375/375 496/496 497/497
f 375/375 497/497 376/376
f 376/376 497/497 498/498
f 376/376 498/498 377/377
f 377/377 498/498 499/499
f 377/377 499/499 378/378
f 378/378 499/499 500/500
f 378/378 500/500 379/379
f 379/379 500/500 501/501
f 379/379 501/501 380/380
f 380/380 501/501 502/502
f 380/380 502/502 381/381
f 381/381 502/502 503/503
f 381/381 503/503 382/382
f 382/382 503/503 504/504
f 382/382 504/504 383/383
f 383/383 504/504 505/505
f 383/383 505/505 384/384
f 384/384 505/505 506/506
f 384/384 506/506 385/385
f 385/385 506/506 507/507
f 385/385 507/507 386/386
f 386/386 507/507 508/508
f 386/386 508/508 387/387
f 387/387 508/508 509/509
f 387/387 509/509 388/388
f 388/388 509/509 510/510
f 388/388 510/510 389/389
f 389/389 510/510 511/511
f 389/389 511/511 390/390
f 390/390 511/511 512/512
f 390/390 512/512 391/391
f 391/391 512/512 513/513
f 391/391 513/513 392/392
f 392/392 513/513 514/514
f 392/392 514/514 393/393
f 393/393 514/514 515/515
f 393/393 515/515 394/394
f 394/394 515/515 516/516
f 394/394 516/516 395/395
f 395/395 516/516 517/517
f 395/395 517/517 396/396
f 396/396 517/517 518/518
f 396/396 518/518 397/397
f 397/397 518/518 519/519
f 397/397 519/519 398/398
f 398/398 519/519 520/520
f 398/398 520/520 399/399
f 399/399 520/520 521/521
f 399/399 521/521 400/400
f 400/400 521/521 522/522
f 400/400 522/522 401/401
f 401/401 522/522 523/523
f 401/401 523/523 402/402
f 402/402 523/523 524/524
f 402/402 524/524 403/403
f 403/403 524/524 525/525
f 403/403 525/525 404/404
f 404/404 525/525 526/526
f 404/404 526/526 405/405
f 405/405 526/526 527/527
f 405/405 527/527 406/406
f 406/406 527/527 528/528
f 406/406 528/528 407/407
f 407/407 528/528 529/529
f 407/407 529/529 408/408
f 408/408 529/529 530/530
f 408/408 530/530 409/409
f 409/409 530/530 531/531
f 409/409 531/531 410/410
f 410/410 531/531 532/532
f 410/410 532/532 411/411
f 411/411 532/532 533/533
f 411/411 533/533 412/412
f 412/412 533/533 534/534
f 412/412 534/534 413/413
f 413/413 534/534 535/535
f 413/413 535/535 414/414
f 414/414 535/535 536/536
f 414/414 536/536 415/415
f 415/415 536/536 537/537
f 415/415 537/537 416/416
f 416/416 537/537 538/538
f 416/416 538/538 417/417
f 417/417 538/538 539/539
f 417/417 539/539 418/418
f 418/418 539/539 540/540
f 418/418 540/540 419/419
f 419/419 540/540 541/541
f 419/419 541/541 420/420
f 420/420 541/541 542/542
f 420/420 542/542 421/421
f 421/421 542/542 543/543
f 421/421 543/543 422/422
f 422/422 543/543 544/544
f 422/422 544/544 423/423
f 423/423 544/544 545/545
f 423/423 545/545 424/424
f 424/424 545/545 546/546
f 424/424 546/546 425/425
f 425/425 546/546 547/547
f 425/425 547/547 426/426
f 426/426 547/547 548/548
f 426/426 548/548 427/427
f 427/427 548/548 549/549
f 427/427 549/549 428/428
f 428/428 549/549 550/550
f 428/428 550/550 429/429
f 429/429 550/550 551/551
f 429/429 551/551 430/430
f 430/430 551/551 552/552
f 430/430 552/552 431/431
f 431/431 552/552 553/553
f 431/431 553/553 432/432
f 432/432 553/553 554/554
f 432/432 554/554 433/433
f 433/433 554/554 555/555
f 433/433 555/555 434/434
f 434/434 555/555 556/556
f 434/434 556/556 435/435
f 435/435 556/556 557/557
f 435/435 557/557 436/436
f 436/436 557/557 558/558
f 436/436 558/558 437/437
f 437/437 558/558 559/559
f 437/437 559/559 438/438
f 438/438 559/559 560/560
f 438/438 560/560 439/439
f 439/439 560/560 561/561
f 439/439 561/561 440/440
f 440/440 561/561 562/562
f 440/440 562/562 441/441
f 441/441 562/562 563/563
f 441/441 563/563 442/442
f 442/442 563/563 564/564
f 442/442 564/564 443/443
f 443/443 564/564 565/565
f 443/443 565/565 444/444
f 444/444 565/565 566/566
f 444/444 566/566 445/445
f 445/445 566/566 567/567
f 445/445 567/567 446/446
f 446/446 567/567 568/568
f 446/446 568/568 447/447
f 447/447 568/568 569/569
f 447/447 569/569 448/448
f 448/448 569/569 570/570
f 448/448 570/570 449/449
f 449/449 570/570 571/571
f 449/449 571/571 450/450
f 450/450 571/571 572/572
f 450/450 572/572 451/451
f 451/451 572/572 573/573
f 451/451 573/573 452/452
f 452/452 573/573 574/574
f 452/452 574/574 453/453
f 453/453 574/574 575/575
f 453/453 575/575 454/454
f 454/454 575/575 576/576
f 454/454 576/576 455/455
f 455/455 576/576 577/577
f 455/455 577/577 456/456
f 456/456 577/577 578/578
f 456/456 578/578 457/457
f 457/457 578/578 579/579
f 457/457 579/579 458/458
f 458/458 579/579 580/580
f 458/458 580/580 459/459
f 459/459 580/580 581/581
f 459/459 581/581 460/460
f 460/460 581/581 582/582
f 460/460 582/582 461/461
f 461/461 582/582 583/583
f 461/461 583/583 462/462
f 462/462 583/583 584/584
f 462/462 584/584 463/463
f 463/463 584/584 585/585
f 463/463 585/585 464/464
f 464/464 585/585 586/586
f 464/464 586/586 465/465
f 465/465 586/586 587/587
f 465/465 587/587 466/466
f 466/466 587/587 588/588
f 466/466 588/588 467/467
f 467/467 588/588 589/589
f 467/467 589/589 468/468
f 468/468 589/589 590/590
f 468/468 590/590 469/469
f 469/469 590/590 591/591
f 469/469 591/591 470/470
f 470/470 591/591 592/592
f 470/470 592/592 471/471
f 471/471 592/592 593/593
f 471/471 593/593 472/472
f 472/472 593/593 594/594
f 472/472 594/594 473/473
f 473/473 594/594 595/595
f 473/473 595/595 474/474
f 474/474 595/595 596/596
f 474/474 596/596 475/475
f 475/475 596/596 597/597
f 475/475 597/597 476/476
f 476/476 597/597 598/598
f 476/476 598/598 477/477
f 477/477 598/598 599/599
f 477/477 599/599 478/478
f 478/478 599/599 600/600
f 478/478 600/600 479/479
f 479/479 600/600 601/601
f 479/479 601/601 480/480
f 480/480 601/601 602/602
f 480/480 602/602 481/481
f 481/481 602/602 603/603
f 481/481 603/603 482/482
f 482/482 603/603 604/604
f 482/482 604/604 483/483
f 483/483 604/604 605/605
f 483/483 605/605 484/484
f 485/485 606/606 607/607
f 485/485 607/607 486/486
f 486/486 607/607 608/608
f 486/486 608/608 487/487
f 487/487 608/608 609/609
f 487/487 609/609 488/488
f 488/488 609/609 610/610
f 488/488 610/610 489/489
f 489/489 610/610 611/611
f 489/489 611/611 490/490
f 490/490 611/611 612/612
f 490/490 612/612 491/491
f 491/491 612/612 613/613
f 491/491 613/613 492/492
f 492/492 613/613 614/614
f 492/492 614/614 493/493
f 493/493 614/614 615/615
f 493/493 615/615 494/494
f 494/494 615/615 616/616
f 494/494 616/616 495/495
f 495/495 616/616 617/617
f 495/495 617/617 496/496
f 496/496 617/617 618/618
f 496/496 618/618 497/497
f 497/497 618/618 619/619
f 497/497 619/619 498/498
f 498/498 619/619 620/620
f 498/498 620/620 499/499
f 499/499 620/620 621/621
f 499/499 621/621 500/500
f 500/500 621/621 622/622
f 500/500 622/622 501/501
f 501/501 622/622 623/623
f 501/501 623/623 502/502
f 502/502 623/623 624/624
f 502/502 624/624 503/503
f 503/503 624/624 625/625
f 503/503 625/625 504/504
f 504/504 625/625 626/626
f 504/504 626/626 505/505
f 505/505 626/626 627/627
f 505/505 627/627 506/506
f 506/506 627/627 628/628
f 506/506 628/628 507/507
f 507/507 628/628 629/629
f 507/507 629/629 508/508
f 508/508 629/629 630/630
f 508/508 630/630 509/509
f 509/509 630/630 631/631
f 509/509 631/631 510/510
f 510/510 631/631 632/632
f 510/510 632/632 511/511
f 511/511 632/632 633/633
f 511/511 633/633 512/512
f 512/512 633/633 634/634
f 512/512 634/634 513/513
f 513/513 634/634 635/635
f 513/513 635/635 514/514
f 514/514 635/635 636/636
f 514/514 636/636 515/515
f 515/515 636/636 637/637
f 515/515 637/637 516/516
f 516/516 637/637 638/638
f 516/516 638/638 517/517
f 517/517 638/638 639/639
f 517/517 639/639 518/518
f 518/518 639/639 640/640
f 518/518 640/640 519/519
f 519/519 640/640 641/641
f 519/519 641/641 520/520
f 520/520 641/641 642/642
f 520/520 642/642 521/521
f 521/521 642/642 643/643
f 521/521 643/643 522/522
f 522/522 643/643 644/644
f 522/522 644/644 523/523
f 523/523 644/644 645/645
f 523/523 645/645 524/524
f 524/524 645/645 646/646
f 524/524 646/646 525/525
f 525/525 646/646 647/647
f 525/525 647/647 526/526
f 526/526 647/647 648/648
f 526/526 648/648 527/527
f 527/527 648/648 649/649
f 527/527 649/649 528/528
f 528/528 649/649 650/650
f 528/528 650/650 529/529
f 529/529 650/650 651/651
f 529/529 651/651 530/530
f 530/530 651/651 652/652
f 530/530 652/652 531/531
f 531/531 652/652 653/653
f 531/531 653/653 532/532
f 532/532 653/653 654/654
f 532/532 654/654 533/533
f 533/533 654/654 655/655
f 533/533 655/655 534/534
f 534/534 655/655 656/656
f 534/534 656/656 535/535
f 535/535 656/656 657/657
f 535/535 657/657 536/536
f 536/536 657/657 658/658
f 536/536 658/658 537/537
f 537/537 658/658 659/659
f 537/537 659/659 538/538
f 538/538 659/659 660/660
f 538/538 660/660 539/539
f 539/539 660/660 661/661
f 539/539 661/661 540/540
f 540/540 661/661 662/662
f 540/540 662/662 541/541
f 541/541 662/662 663/663
f 541/541 663/663 542/542
f 542/542 663/663 664/664
f 542/542 664/664 543/543
f 543/543 664/664 665/665
f 543/543 665/665 544/544
f 544/544 665/665 666/666
f 544/544 666/666 545/545
f 545/545 666/666 667/667
f 545/545 667/667 546/546
f 546/546 667/667 668/668
f 546/546 668/668 547/547
f 547/547 668/668 669/669
f 547/547 669/669 548/548
f 548/548 669/669 670/670
f 548/548 670/670 549/549
f 549/549 670/670 671/671
f 549/549 671/671 550/550
f 550/550 671/671 672/672
f 550/550 672/672 551/551
f 551/551 672/672 673/673
f 551/551 673/673 552/552
f 552/552 673/673 674/674
f 552/552 674/674 553/553
f 553/553 674/674 675/675
f 553/553 675/675 554/554
f 554/554 675/675 676/676
f 554/554 676/676 555/555
f 555/555 676/676 677/677
f 555/555 677/677 556/556
f 556/556 677/677 678/678
f 556/556 678/678 557/557
f 557/557 678/678 679/679
f 557/557 679/679 558/558
f 558/558 679/679 680/680
f 558/558 680/680 559/559
f 559/559 680/680 681/681
f 559/559 681/681 560/560
f 560/560 681/681 682/682
f 560/560 682/682 561/561
f 561/561 682/682 683/683
f 561/561 683/683 562/562
f 562/562 683/683 684/684
f 562/562 684/684 563/563
f 563/563 684/684 685/685
f 563/563 685/685 564/564
f 564/564 685/685 686/686
f 564/564 686/686 565/565
f 565/565 686/686 687/687
f 565/565 687/687 566/566
f 566/566 687/687 688/688
f 566/566 688/688 567/567
f 567/567 688/688 689/689
f 567/567 689/689 568/568
f 568/568 689/689 690/690
f 568/568 690/690 569/569
f 569/569 690/690 691/691
f 569/569 691/691 570/570
f 570/570 691/691 692/692
f 570/570 692/692 571/571
f 571/571 692/692 693/693
f 571/571 693/693 572/572
f 572/572 693/693 694/694
f 572/572 694/694 573/573
f 573/573 694/694 695/695
f 573/573 695/695 574/574
f 574/574 695/695 696/696
f 574/574 696/696 575/575
f 575/575 696/696 697/697
f 575/575 697/697 576/576
f 576/576 697/697 698/698
f 576/576 698/698 577/577
f 577/577 698/698 699/699
f 577/577 699/699 578/578
f 578/578 699/699 700/700
f 578/578 700/700 579/579
f 579/579 700/700 701/701
f 579/579 701/701 580/580
f 580/580 701/701 702/702
f 580/580 702/702 581/581
f 581/581 702/702 703/703
f 581/581 703/703 582/582
f 582/582 703/703 704/704
f 582/582 704/704 583/583
f 583/583 704/704 705/705
f 583/583 705/705 584/584
f 584/584 705/705 706/706
f 584/584 706/706 585/585
f 585/585 706/706 707/707
f 585/585 707/707 586/586
f 586/586 707/707 708/708
f 586/586 708/708 587/587
f 587/587 708/708 709/709
f 587/587 709/709 588/588
f 588/588 709/709 710/710
f 588/588 710/710 589/589
f 589/589 710/710 711/711
f 589/589 711/711 590/590
f 590/590 711/711 712/712
f 590/590 712/712 591/591
f 591/591 712/712 713/713
f 591/591 713/713 592/592
f 592/592 713/713 714/714
f 592/592 714/714 593/593
f 593/593 714/714 715/715
f 593/593 715/715 594/594
f 594/594 715/715 716/716
f 594/594 716/716 595/595
f 595/595 716/716 717/717
f 595/595 717/717 596/596
f 596/596 717/717 718/718
f 596/596 718/718 597/597
f 597/597 718/718 719/719
f 597/597 719/719 598/598
f 598/598 719/719 720/720
f 598/598 720/720 599/599
f 599/599 720/720 721/721
f 599/599 721/721 600/600
f 600/600 721/721 722/722
f 600/600 722/722 601/601
f 601/601 722/722 723/723
f 601/601 723/723 602/602
f 602/602 723/723 724/724
f 602/602 724/724 603/603
f 603/603 724/724 725/725
f 603/603 725/725 604/604
f 604/604 725/725 726/726
f 604/604 726/726 605/605
