# Basketbroom original 3D environment. Centimetres, Z up.
o SM_BB_ENV_RR_AlcoveBed6
s 1
v 48846.75157 1614.09314 14876.35768
v 50192.37083 2281.59144 14891.84416
v 51474.00123 2987.60240 14909.47428
v 52436.35089 3735.00185 14928.89860
v 52894.21439 4511.36645 14949.73215
v 52788.49697 5294.79473 14971.56200
v 52200.87966 6063.55000 14993.95550
v 51322.38379 6805.12607 15016.46879
v 50387.00735 7520.65447 15038.65567
v 49593.58146 8222.67078 15060.07640
v 49042.84050 8927.24462 15080.30643
v 48711.09674 9644.07992 15098.94478
v 48468.87731 10369.27730 15115.62207
v 48137.04349 11084.50326 15130.00773
v 47559.85561 11763.65609 15141.81665
v 46668.73346 12384.81500 15150.81478
v 45514.03006 12942.67794 15156.82378
v 44253.63200 13455.97441 15159.72455
v 43102.49308 13965.90305 15159.45959
v 42260.87917 14524.99628 15156.03416
v 41846.37413 15179.69994 15149.51614
v 41853.11241 15952.83060 15140.03473
v 42151.96002 16832.70719 15127.77785
v 42531.01880 17773.73863 15112.98842
v 42761.98519 18709.20557 15095.95957
v 42669.38504 19572.35412 15077.02882
v 42179.37813 20318.48655 15056.57136
v 41332.58699 20939.88846 15034.99266
v 40258.31839 21467.65069 15012.72041
v 39120.94177 21959.05419 14990.19604
v 38058.35850 22474.56144 14967.86599
v 37134.36335 23052.60191 14946.17283
v 36320.86243 23691.62181 14925.54651
v 35514.70472 24346.66171 14906.39586
v 34581.46463 24942.68422 14889.10044
v 33409.31702 25400.74414 14874.00303
v 31953.30373 25668.10326 14861.40287
v 30254.54905 25741.44258 14851.54969
v 28428.52790 25674.26739 14844.63878
v 26627.69645 25564.88678 14840.80712
v 24992.59185 25528.17844 14840.13064
v 23608.86734 25660.29200 14842.62276
v 22484.71387 26008.31042 14848.23408
v 21555.13230 26555.53842 14856.85338
v 20709.69290 27227.87599 14868.30984
v 19832.39375 27919.42860 14882.37638
v 18838.80683 28528.67435 14898.77421
v 17697.84995 28992.61537 14917.17833
v 16432.11472 29306.84904 14937.22396
v 15099.00831 29524.31561 14958.51381
v 13761.82833 29732.97335 14980.62591
v 12462.81447 30020.18817 15003.12201
v 11208.36135 30436.51088 15025.55622
v 9970.95249 30971.96138 15047.48391
v 8705.39421 31553.71633 15068.47048
v 7371.39285 32066.64068 15088.09997
v 5952.52725 32390.02071 15105.98333
v 4463.81916 32438.00951 15121.76610
v 2945.32464 32189.78222 15135.13549
v 1445.19701 31698.79705 15145.82650
v 0.00000 31077.70916 15153.62725
v -1379.06043 30463.89327 15158.38311
v -2708.14643 29977.24309 15159.99985
v -4020.48921 29684.56825 15158.44540
v -5348.70245 29582.56771 15153.75057
v -6707.95155 29604.84791 15146.00843
v -8087.95108 29650.07244 15135.37242
v -9457.95938 29621.02422 15122.05333
v -10783.15593 29460.69189 15106.31516
v -12045.45171 29172.71975 15088.46984
v -13259.21004 28819.21607 15068.87105
v -14473.78670 28496.96885 15047.90724
v -15759.84985 28300.71694 15025.99392
v -17183.20161 28286.60159 15003.56540
v -18775.57565 28448.74215 14981.06622
v -20514.17389 28717.16233 14958.94230
v -22319.34875 28977.75802 14937.63214
v -24073.46691 29107.32922 14917.55810
v -25655.88585 29011.58533 14899.11806
v -26982.24568 28653.21894 14882.67748
v -28033.67285 28060.82754 14868.56223
v -28864.29646 27316.25843 14857.05206
v -29582.94196 26525.41155 14848.37510
v -30314.38870 25783.03210 14842.70334
v -31153.62093 25143.69427 14840.14917
v -32129.90863 24608.54787 14840.76324
v -33194.77599 24131.53223 14844.53336
v -34239.67499 23641.82212 14851.38482
v -35138.30761 23073.73933 14861.18181
v -35798.98814 22393.13580 14873.73017
v -36207.84856 21610.99262 14888.78118
v -36446.01589 20779.91282 14906.03654
v -36672.58670 19975.43898 14925.15425
v -37077.36204 19269.42412 14945.75539
v -37818.56110 18705.18364 14967.43165
v -38966.93929 18283.09057 14989.75342
v -40476.42611 17961.18684 15012.27827
v -42192.76662 17669.87397 15034.55976
v -43898.57121 17334.85681 15056.15629
v -45380.23644 16899.96661 15076.63980
v -46494.06718 16342.07426 15095.60433
v -47208.67035 15673.63631 15112.67398
v -47608.60315 14933.12993 15127.51044
v -47857.70135 14167.92770 15139.81966
v -48134.79348 13416.49447 15149.35767
v -48564.52675 12696.41964 15155.93543
v -49168.12229 12002.04315 15159.42256
v -49852.14624 11311.48001 15159.74995
v -50440.08140 10599.27266 15156.91111
v -50736.25331 9849.04537 15150.96231
v -50599.90477 9061.00976 15142.02145
v -50003.16441 8251.64778 15130.26574
v -49051.85982 7446.28535 15115.92818
v -47960.85336 6668.16376 15099.29293
v -46991.40141 5928.87381 15080.68970
v -46371.39309 5224.19734 15060.48722
v -46225.47834 4536.91955 15039.08588
v -46538.83674 3845.11482 15016.90986
v -47166.77439 3132.06719 14994.39870
v -47886.51043 2393.33947 14971.99855
v -48472.98262 1637.81357 14950.15338
v 53700.76132 1306.04405 15436.35768
v 54926.25320 2052.17510 15451.84416
v 56130.26825 2831.43077 15469.47428
v 57059.22137 3648.68786 15488.89860
v 57504.54075 4493.70072 15509.73215
v 57369.13252 5345.18832 15531.56200
v 56698.00897 6179.81045 15553.95550
v 55662.59061 6981.96359 15576.46879
v 54504.16607 7749.98453 15598.65567
v 53456.04000 8495.93035 15620.07640
v 52671.09335 9238.94257 15640.30643
v 52179.32468 9995.09817 15658.94478
v 51889.23980 10768.35698 15675.62207
v 51631.51929 11546.96231 15690.00773
v 51228.67381 12307.47062 15701.81665
v 50565.55318 13025.32107 15710.81478
v 49635.65201 13687.83967 15716.82378
v 48547.02268 14304.09728 15719.72455
v 47486.04188 14906.82241 15719.45959
v 46652.13540 15544.43556 15716.03416
v 46186.62102 16265.18288 15709.51614
v 46120.62345 17098.78219 15700.03473
v 46360.05215 18042.53103 15687.77785
v 46712.50717 19057.71813 15672.98842
v 46946.40465 20078.68412 15655.95957
v 46861.72377 21032.20791 15637.02882
v 46348.29641 21860.79570 15616.57136
v 45412.52493 22541.54078 15594.99266
v 44164.86016 23093.36836 15572.72041
v 42774.11245 23569.41831 15550.19604
v 41405.82105 24036.70614 15527.86599
v 40166.65007 24550.07640 15506.17283
v 39073.67046 25129.95840 15485.54651
v 38057.80697 25752.49492 15466.39586
v 36998.29921 26356.42638 15449.10044
v 35774.24833 26865.08482 15434.00303
v 34313.94203 27216.14200 15421.40287
v 32624.35250 27388.49403 15411.54969
v 30791.07364 27416.16145 15404.63878
v 28949.92933 27383.31332 15400.80712
v 27241.48909 27401.08731 15400.13064
v 25765.24019 27573.46797 15402.62276
v 24549.42781 27963.70849 15408.23408
v 23546.16653 28573.02363 15416.85338
v 22651.94672 29339.33047 15428.30984
v 21744.69603 30156.96524 15442.37638
v 20723.32422 30910.94213 15458.77421
v 19535.86285 31514.06997 15477.17833
v 18187.51517 31934.03487 15497.22396
v 16727.92749 32200.91029 15518.51381
v 15224.64211 32392.36075 15540.62591
v 13734.15984 32601.69556 15563.12201
v 12281.85303 32900.10498 15585.55622
v 10857.50438 33306.64358 15607.48391
v 9426.49844 33776.95862 15628.47048
v 7950.43092 34215.24330 15648.09997
v 6407.56418 34505.69197 15665.98333
v 4804.31111 34552.74273 15681.76610
v 3173.26069 34316.10509 15695.13549
v 1559.23887 33828.18921 15705.82650
v 0.00000 33187.54732 15713.62725
v -1489.72494 32530.22357 15718.38311
v -2923.75618 31988.57886 15719.99985
v -4337.18569 31651.51219 15718.44540
v -5769.59880 31539.50409 15713.75057
v -7246.37286 31602.73632 15706.00843
v -8766.63179 31742.51841 15695.37242
v -10303.68746 31848.19933 15682.05333
v -11818.38926 31836.48554 15666.31516
v -13279.96951 31679.44757 15648.46984
v -14685.20179 31411.66122 15628.87105
v -16066.69360 31114.38916 15607.90724
v -17485.11968 30882.80836 15585.99392
v -19006.72329 30788.17660 15563.56540
v -20673.90150 30848.46558 15541.06622
v -22480.44944 31017.85173 15518.94230
v -24362.33363 31198.71881 15497.63214
v -26209.66662 31271.90843 15477.55810
v -27897.64337 31134.65344 15459.11806
v -29326.54218 30733.12444 15442.67748
v -30456.53299 30078.61481 15428.56223
v -31323.90128 29242.25418 15417.05206
v -32031.38280 28330.63566 15408.37510
v -32714.58539 27451.20734 15402.70334
v -33495.57493 26679.48038 15400.14917
v -34440.14237 26039.02039 15400.76324
v -35534.77876 25500.33115 15404.53336
v -36692.83995 24997.93778 15411.38482
v -37788.93801 24458.68831 15421.18181
v -38709.98138 23830.71032 15433.73017
v -39404.46337 23102.74191 15448.78118
v -39911.29107 22307.45022 15466.03654
v -40356.06426 21508.32789 15485.15425
v -40914.11485 20775.60977 15505.75539
v -41751.80058 20160.30241 15527.43165
v -42966.06856 19675.66508 15549.75342
v -44543.90036 19292.39151 15572.27827
v -46357.07522 18948.57820 15594.55976
v -48195.70784 18570.28088 15616.15629
v -49830.37278 18094.95844 15636.63980
v -51082.19276 17489.55093 15655.60433
v -51876.89177 16757.37363 15672.67398
v -52263.90035 15932.37950 15687.51044
v -52393.53416 15063.94295 15699.81966
v -52459.93300 14198.45082 15709.35767
v -52629.65707 13364.59031 15715.93543
v -52981.18042 12567.23780 15719.42256
v -53476.96723 11791.18895 15719.74995
v -53978.48470 11012.12505 15716.91111
v -54299.31782 10209.66201 15710.96231
v -54277.86404 9376.97791 15702.02145
v -53843.79409 8523.36301 15690.26574
v -53054.24604 7669.22246 15675.92818
v -52086.04794 6836.24082 15659.29293
v -51185.57039 6037.30208 15640.68970
v -50592.72183 5270.63804 15620.48722
v -50464.84516 4520.67525 15599.08588
v -50826.55378 3765.05850 15576.90986
v -51562.71689 2984.62687 15554.39870
v -52456.94328 2171.84433 15531.99855
v -53262.23075 1333.87443 15510.15338
v 55716.70475 1178.10661 15996.35768
v 56745.81506 1963.99436 16011.84416
v 57799.77183 2775.43546 16029.47428
v 58640.17679 3619.16971 16048.89860
v 59046.09110 4487.79384 16069.73215
v 58887.57867 5361.89342 16091.56200
v 58170.74590 6217.88386 16113.95550
v 57038.56466 7038.02632 16136.46879
v 55727.00103 7818.09773 16158.65567
v 54491.38400 8569.17843 16180.07640
v 53528.13126 9312.56946 16200.30643
v 52918.34683 10069.89437 16218.94478
v 52611.96952 10852.68334 16235.62207
v 52456.88441 11656.19116 16250.00773
v 52261.76192 12460.60122 16261.81665
v 51869.85746 13239.70482 16270.81478
v 51217.58678 13973.84292 16276.82378
v 50357.49038 14661.73980 16279.72455
v 49438.05861 15325.81862 16279.45959
v 48648.19279 16007.82444 16276.03416
v 48146.41587 16755.32179 16269.51614
v 48000.03009 17603.45787 16260.03473
v 48155.58597 18558.74587 16247.77785
v 48450.77921 19591.47680 16232.98842
v 48663.31770 20640.59614 16215.95957
v 48579.57498 21630.39708 16197.02882
v 48059.38766 22493.82123 16176.57136
v 47075.27216 23194.28182 16154.99266
v 45713.74415 23737.94052 16132.72041
v 44139.82087 24171.43996 16110.19604
v 42538.36389 24565.22461 16087.86599
v 41053.29970 24987.94238 16066.17283
v 39745.52907 25481.00315 16045.54651
v 38582.85970 26042.74536 16026.39586
v 37463.47691 26628.53492 16009.10044
v 36262.64553 27167.49524 15994.00303
v 34884.68946 27590.42175 15981.40287
v 33301.35573 27859.02215 15971.54969
v 31563.47406 27985.64870 15964.63878
v 29783.00034 28035.65032 15960.80712
v 28093.24646 28110.44116 15960.13064
v 26602.48935 28316.29173 15962.62276
v 25357.73149 28729.21670 15968.23408
v 24330.87606 29368.15806 15976.85338
v 23430.92351 30186.16831 15988.30984
v 22536.34278 31083.25112 16002.37638
v 21534.99170 31936.99225 16018.77421
v 20357.16964 32640.76923 16037.17833
v 18990.94069 33136.46600 16057.22396
v 17476.13057 33430.33677 16078.51381
v 15881.45333 33586.43994 16100.62591
v 14275.01161 33699.91236 16123.12201
v 12699.90738 33859.51272 16145.55622
v 11163.61540 34112.76892 16167.48391
v 9643.59216 34446.28202 16188.47048
v 8104.91650 34788.48390 16208.09997
v 6521.24240 35034.23314 16225.98333
v 4889.66253 35082.84478 16241.76610
v 3233.30694 34876.25214 16255.13549
v 1591.13503 34423.75515 16265.82650
v 0.00000 33804.34732 16273.62725
v -1522.66928 33145.36110 16278.38311
v -2987.62831 32584.41601 16279.99985
v -4429.92403 32227.49305 16278.44540
v -5893.87807 32117.33429 16273.75057
v -7413.47495 32222.79224 16266.00843
v -8996.90946 32452.48935 16255.37242
v -10622.49197 32687.75222 16242.05333
v -12248.34398 32823.20388 16226.31516
v -13832.27595 32800.92344 16208.46984
v -15353.45892 32626.54901 16188.87105
v -16826.07988 32362.19156 16167.90724
v -18297.88963 32099.22465 16145.99392
v -19832.50848 31921.01951 16123.56540
v -21481.25597 31869.06350 16101.06622
v -23255.31439 31924.50164 16078.94230
v -25110.01809 32011.53826 16057.63214
v -26949.29653 32021.36436 16037.55810
v -28650.97624 31848.10126 16019.11806
v -30105.44295 31424.18037 16002.67748
v -31254.26991 30742.97978 15988.56223
v -32114.30079 29861.17723 15977.05206
v -32777.08174 28880.43604 15968.37510
v -33382.11182 27915.14893 15962.70334
v -34072.08540 27057.53937 15960.14917
v -34945.49810 26351.93136 15960.76324
v -36023.81135 25786.39375 15964.53336
v -37245.84526 25303.64048 15971.38482
v -38492.57543 24826.33742 15981.18181
v -39634.36077 24287.20889 15993.73017
v -40583.91355 23653.15041 16008.78118
v -41335.39664 22935.21407 16026.03654
v -41974.24191 22181.73679 16045.15425
v -42652.37768 21457.99581 16065.75539
v -43536.05699 20820.39570 16087.43165
v -44743.89007 20294.73707 16109.75342
v -46297.10837 19866.18216 16132.27827
v -48100.67895 19483.97403 16154.55976
v -49963.60644 19078.55062 16176.15629
v -51653.09661 18584.41313 16196.63980
v -52965.04009 17960.44549 16215.60433
v -53786.95230 17200.79816 16232.67398
v -54131.51130 16333.25819 16247.51044
v -54128.66441 15406.70320 16259.81966
v -53978.59256 14473.01433 16269.35767
v -53881.60989 13570.36924 16275.93543
v -53969.40268 12713.71811 16279.42256
v -54261.81003 11895.05508 16279.74995
v -54664.55178 11092.17371 16276.91111
v -55008.92076 10281.48069 16270.96231
v -55119.52338 9449.28365 16262.02145
v -54885.98176 8597.09526 16250.26574
v -54312.77643 7739.32393 16235.92818
v -53528.82215 6895.02526 16219.29293
v -52752.39229 6077.80779 16200.68970
v -52222.73181 5288.57050 16180.48722
v -52121.57389 4514.32704 16159.08588
v -52511.58074 3733.59723 16136.90986
v -53313.07874 2925.91957 16114.39870
v -54327.30631 2081.20163 16091.99855
v -55298.34699 1204.65677 16070.15338
v 56348.06259 1138.03887 16556.35768
v 57122.01099 1945.76292 16571.84416
v 57968.23042 2769.78535 16589.47428
v 58675.97861 3618.50126 16608.89860
v 59023.27387 4487.88127 16629.73215
v 58853.82200 5361.52204 16651.56200
v 58134.21706 6216.93951 16673.95550
v 56971.26533 7035.28428 16696.46879
v 55583.01513 7810.07756 16718.65567
v 54233.08199 8550.90418 16740.07640
v 53150.51975 9280.12940 16760.30643
v 52462.36889 10023.74498 16778.94478
v 52161.43357 10800.11589 16795.62207
v 52119.45629 11611.53591 16810.00773
v 52140.06579 12442.56268 16821.81665
v 52032.23081 13266.39353 16830.81478
v 51678.21212 14057.12090 16836.82378
v 51072.44532 14802.97307 16839.72455
v 50318.42647 15514.78770 16839.45959
v 49585.65913 16225.45920 16836.03416
v 49042.72659 16979.48646 16829.51614
v 48790.67522 17815.76922 16820.03473
v 48820.38301 18749.87460 16807.77785
v 49008.78139 19762.81850 16792.98842
v 49154.95071 20801.49800 16775.95957
v 49043.18441 21791.83489 16757.02882
v 48511.00125 22660.89761 16736.57136
v 47498.86070 23360.56905 16714.99266
v 46065.23364 23884.21380 16692.72041
v 44363.06393 24269.84834 16670.19604
v 42587.02781 24587.93438 16647.86599
v 40910.64523 24917.49343 16626.17283
v 39434.96318 25318.73311 16605.54651
v 38165.53100 25812.04503 16586.39586
v 37023.76822 26371.32463 16569.10044
v 35886.54977 26934.62069 16554.00303
v 34638.30152 27428.84763 16541.40287
v 33216.36439 27799.95181 16531.54969
v 31633.83342 28037.52434 16524.63878
v 29972.95971 28184.39818 16520.80712
v 28353.09187 28326.84356 16520.13064
v 26886.03487 28567.85884 16522.62276
v 25635.52162 28992.29928 16528.23408
v 24595.10994 29635.90230 16536.85338
v 23691.41766 30469.35557 16548.30984
v 22810.13803 31403.61202 16562.37638
v 21834.29110 32315.34447 16578.77421
v 20680.49041 33084.31271 16597.17833
v 19320.73248 33630.04244 16617.22396
v 17783.38732 33935.21253 16638.51381
v 16135.12178 34047.60779 16660.62591
v 14452.30437 34059.91097 16683.12201
v 12793.53860 34074.39032 16705.55622
v 11183.42056 34164.92464 16727.48391
v 9612.31377 34349.84736 16748.47048
v 8050.17601 34585.36156 16768.09997
v 6467.00280 34782.04886 16785.98333
v 4850.36879 34838.79854 16801.76610
v 3212.50708 34682.21868 16815.13549
v 1584.37319 34297.49778 16825.82650
v 0.00000 33739.53781 16833.62725
v -1521.31119 33120.00264 16838.38311
v -2986.54731 32574.33185 16839.99985
v -4428.68572 32219.80212 16838.44540
v -5894.21393 32118.89588 16833.75057
v -7423.62049 32260.43873 16826.00843
v -9033.34582 32564.82659 16815.37242
v -10707.39652 32911.34335 16802.05333
v -12402.94121 33177.99453 16786.31516
v -14068.26086 33280.09835 16768.46984
v -15665.87582 33194.52121 16748.87105
v -17190.89517 32961.64590 16727.90724
v -18675.95315 32665.04604 16705.99392
v -20179.19141 32396.61206 16683.56540
v -21758.71652 32219.80866 16661.06622
v -23443.03884 32144.15329 16638.94230
v -25209.61969 32119.81672 16617.63214
v -26981.51344 32054.00928 16597.55810
v -28645.72264 31843.12582 16579.11806
v -30088.54493 31409.18812 16562.67748
v -31236.05394 30727.80930 16548.56223
v -32084.81142 29838.08555 16537.05206
v -32710.41181 28831.28061 16528.37510
v -33248.89998 27822.56456 16522.70334
v -33855.92346 26915.78658 16520.14917
v -34657.07738 26173.34428 16520.76324
v -35706.94348 25601.03996 16524.53336
v -36972.04499 25152.28302 16531.38482
v -38344.86894 24749.16109 16541.18181
v -39684.98194 24312.20782 16553.73017
v -40873.09133 23788.09965 16568.78118
v -41858.50543 23165.80708 16586.03654
v -42682.03659 22476.28741 16605.15425
v -43464.67515 21776.87765 16625.75539
v -44364.56220 21126.90474 16647.43165
v -45516.57248 20563.80010 16669.75342
v -46975.85013 20088.32105 16692.27827
v -48686.17013 19663.75659 16714.55976
v -50485.93018 19228.71837 16736.15629
v -52151.57900 18718.27024 16756.63980
v -53464.90276 18085.45967 16775.60433
v -54281.63795 17315.64046 16792.67398
v -54577.70450 16429.03261 16807.51044
v -54456.58518 15471.48116 16819.81966
v -54114.63172 14497.60930 16829.35767
v -53775.75529 13552.97030 16835.93543
v -53617.85133 12661.60904 16839.42256
v -53716.46897 11822.88462 16839.74995
v -54025.41047 11017.60024 16836.91111
v -54401.07617 10219.96094 16830.96231
v -54661.93611 9409.97299 16822.02145
v -54661.96691 8581.24675 16810.26574
v -54351.72992 7741.49368 16795.92818
v -53804.89410 6906.27355 16779.29293
v -53200.04751 6089.38063 16760.68970
v -52763.39305 5294.51855 16740.48722
v -52691.83684 4512.14192 16719.08588
v -53083.11954 3722.92598 16696.90986
v -53897.45273 2906.31961 16674.39870
v -54964.33816 2050.32940 16651.99855
v -56032.64057 1158.05644 16630.15338
v 55977.69830 1161.54323 17116.35768
v 56455.59572 1978.05915 17131.84416
v 57052.16346 2800.51032 17149.47428
v 57595.10893 3638.68226 17168.89860
v 57872.46988 4492.29089 17189.73215
v 57709.08225 5348.92826 17211.56200
v 57033.10580 6188.47342 17233.95550
v 55909.02450 6992.00430 17256.46879
v 54525.08221 7751.14959 17278.65567
v 53138.91519 8473.49454 17300.07640
v 51999.64875 9181.25974 17320.30643
v 51272.84439 9903.35359 17338.94478
v 50993.58953 10663.85466 17355.62207
v 51063.14154 11471.74317 17370.00773
v 51289.38950 12316.47027 17381.81665
v 51456.32503 13171.73400 17390.81478
v 51397.98922 14006.45847 17396.82378
v 51051.32416 14798.80077 17399.72455
v 50470.24807 15547.37588 17399.45959
v 49797.19529 16274.56776 17396.03416
v 49203.33614 17019.65443 17389.51614
v 48819.44650 17823.49515 17380.03473
v 48682.23348 18710.15670 17367.77785
v 48714.99914 19672.60890 17352.98842
v 48749.09484 20668.66932 17335.95957
v 48578.18969 21629.91470 17317.02882
v 48026.05830 22481.49089 17296.57136
v 47004.28678 23166.41524 17274.99266
v 45540.33639 23665.77642 17252.72041
v 43767.15342 24007.16341 17230.19604
v 41879.01050 24257.52725 17207.86599
v 40069.69538 24502.19597 17186.17283
v 38474.58735 24816.93869 17165.54651
v 37135.88697 25242.85526 17146.39586
v 36001.37577 25773.26992 17129.10044
v 34954.96641 26357.79404 17114.00303
v 33866.36286 26922.63244 17101.40287
v 32641.19838 27400.20219 17091.54969
v 31253.93928 27757.43014 17084.63878
v 29752.98563 28012.14728 17080.80712
v 28237.92101 28230.92788 17080.13064
v 26818.83139 28508.23460 17082.62276
v 25573.47972 28933.54217 17088.23408
v 24517.98629 29557.75405 17096.85338
v 23600.89162 30370.94330 17108.30984
v 22721.46531 31299.85832 17122.37638
v 21764.32857 32226.90300 17138.77421
v 20637.08032 33024.76113 17157.17833
v 19297.43136 33595.16927 17177.22396
v 17761.11779 33898.61985 17198.51381
v 16089.51633 33964.69734 17220.62591
v 14363.38804 33879.36352 17243.12201
v 12653.72467 33753.52639 17265.55622
v 11000.73056 33683.82128 17287.48391
v 9407.81100 33719.34319 17308.47048
v 7850.93512 33846.05005 17328.09997
v 6297.58997 33994.37241 17345.98333
v 4726.16139 34067.36908 17361.76610
v 3137.17210 33979.44931 17375.13549
v 1551.93668 33691.84261 17385.82650
v 0.00000 33232.02221 17393.62725
v -1498.27362 32689.84470 17398.38311
v -2945.48912 32191.31665 17399.99985
v -4370.55648 31858.77203 17398.44540
v -5819.40300 31771.06622 17393.75057
v -7336.57950 31937.46082 17386.00843
v -8945.55666 32294.16311 17375.37242
v -10636.50599 32724.65731 17362.05333
v -12367.54990 33096.77376 17346.31516
v -14079.91291 33303.75821 17328.46984
v -15721.36292 33295.39646 17308.87105
v -17268.33994 33088.90099 17287.90724
v -18737.02350 32756.44579 17265.99392
v -20177.56887 32394.38620 17243.56540
v -21652.43489 32085.45526 17221.06622
v -23206.53330 31867.42412 17198.94230
v -24841.05940 31719.14908 17177.63214
v -26502.45372 31568.58523 17157.55810
v -28092.84919 31319.52413 17139.11806
v -29500.29993 30887.28570 17122.67748
v -30639.06587 30230.63040 17108.56223
v -31485.40641 29368.72092 17097.05206
v -32094.81221 28377.40187 17088.37510
v -32592.53545 27366.38067 17082.70334
v -33138.72417 26445.46791 17080.14917
v -33879.03062 25691.58588 17080.76324
v -34897.62411 25127.62364 17084.53336
v -36189.61766 24719.75525 17091.38482
v -37663.67418 24393.23822 17101.18181
v -39175.01113 24060.36215 17113.73017
v -40577.89864 23650.34346 17128.78118
v -41779.14647 23130.82465 17146.03654
v -42772.96730 22514.12847 17165.15425
v -43643.66580 21847.14362 17185.75539
v -44533.89080 21189.54859 17207.43165
v -45588.75513 20588.93550 17229.75342
v -46895.41696 20061.99685 17252.27827
v -48440.20968 19588.23128 17274.55976
v -50099.95704 19117.75133 17296.15629
v -51672.42603 18589.60364 17316.63980
v -52936.98598 17953.42924 17335.60433
v -53725.40537 17186.50991 17352.67398
v -53978.42155 16300.39780 17367.51044
v -53767.99133 15335.45530 17379.81966
v -53276.65815 14346.10927 17389.35767
v -52740.30223 13382.77665 17395.93543
v -52373.45293 12477.15674 17399.42256
v -52302.70494 11635.78704 17399.74995
v -52531.21751 10843.26139 17396.91111
v -52946.56531 10072.75035 17390.96231
v -53369.04560 9298.90264 17382.02145
v -53623.25727 8507.76056 17370.26574
v -53607.43433 7700.03563 17355.92818
v -53335.65258 6887.15476 17339.29293
v -52937.48421 6082.59281 17320.68970
v -52614.66880 5292.88237 17300.48722
v -52569.62540 4512.61020 17279.08588
v -52930.75346 3725.77082 17256.90986
v -53700.85527 2912.91351 17234.39870
v -54747.13593 2060.85559 17211.99855
v -55836.84997 1170.48186 17190.15338
v 51004.88861 1477.13170 17676.35768
v 51154.27421 2234.97508 17691.84416
v 51468.52749 2987.78599 17709.47428
v 51822.37065 3746.46553 17728.89860
v 52024.11507 4514.70048 17749.73215
v 51887.87204 5284.88656 17771.56200
v 51306.12114 6040.41857 17793.95550
v 50296.79594 6763.33948 17816.46879
v 49007.82329 7443.83247 17838.65567
v 47676.85642 8087.06713 17860.07640
v 46559.56775 8713.91026 17880.30643
v 45850.81884 9354.59209 17898.94478
v 45625.47090 10037.51548 17915.62207
v 45818.71615 10777.69573 17930.00773
v 46252.06422 11569.80730 17941.81665
v 46695.37160 12389.19342 17950.81478
v 46943.08084 13201.04078 17956.82378
v 46878.37244 13974.46959 17959.72455
v 46503.68114 14695.96078 17959.45959
v 45928.19175 15376.37054 17956.03416
v 45318.12488 16047.97456 17949.51614
v 44828.47356 16751.80213 17940.03473
v 44540.89572 17519.52470 17927.77785
v 44429.71950 18356.75897 17912.98842
v 44367.62902 19234.70136 17895.95957
v 44168.38462 20094.33490 17877.02882
v 43650.97548 20862.91029 17856.57136
v 42702.42792 21477.64392 17834.99266
v 41317.47352 21908.42089 17812.72041
v 39601.85732 22171.04788 17790.19604
v 37739.01292 22325.53393 17767.86599
v 35932.47320 22459.05651 17746.17283
v 34344.29655 22658.87017 17725.54651
v 33050.35207 22984.36148 17706.39586
v 32026.59366 23448.19684 17689.10044
v 31169.10128 24013.62603 17674.00303
v 30338.86551 24609.40108 17661.40287
v 29414.22108 25157.40115 17651.54969
v 28332.18205 25603.23205 17644.63878
v 27104.98123 25938.62506 17640.80712
v 25807.74437 26207.04733 17640.13064
v 24543.76826 26489.75429 17642.62276
v 23401.49448 26876.55226 17648.23408
v 22419.38825 27431.27604 17656.85338
v 21571.07397 28164.29681 17668.30984
v 20774.97300 29022.31679 17682.37638
v 19923.52390 29899.89360 17698.77421
v 18920.25388 30669.55463 17717.17833
v 17710.87980 31220.68785 17737.22396
v 16297.74048 31494.03897 17758.51381
v 14733.72764 31499.88095 17780.62591
v 13099.69825 31313.40103 17803.12201
v 11475.11918 31048.70287 17825.55622
v 9913.36007 30820.29513 17847.48391
v 8430.23690 30705.37662 17868.47048
v 7008.48510 30720.02016 17888.09997
v 5614.31625 30817.52572 17905.98333
v 4217.70297 30909.42686 17921.76610
v 2807.23780 30901.62623 17935.13549
v 1393.45890 30732.74190 17945.82650
v 0.00000 30400.89165 17953.62725
v -1352.56422 29969.15536 17958.38311
v -2662.07254 29547.43849 17959.99985
v -3951.61143 29256.78097 17958.44540
v -5263.92126 29188.38187 17953.75057
v -6645.07668 29371.54182 17946.00843
v -8124.15157 29761.68246 17935.37242
v -9697.81097 30252.65927 17922.05333
v -11327.17859 30709.18877 17906.31516
v -12949.44697 31008.31100 17888.46984
v -14500.46474 31075.81028 17868.87105
v -15939.52914 30905.43605 17847.90724
v -17266.00940 30554.88125 17825.99392
v -18520.09220 30120.59793 17803.56540
v -19766.02192 29700.79122 17781.06622
v -21063.40654 29359.80560 17758.94230
v -22437.59295 29106.30313 17737.63214
v -23861.45635 28892.50209 17717.55810
v -25257.38124 28634.17947 17699.11806
v -26520.83548 28243.84683 17682.67748
v -27558.43256 27665.04166 17668.56223
v -28327.01955 26895.54326 17657.05206
v -28858.75140 25991.46919 17648.37510
v -29261.23710 25051.07483 17642.70334
v -29690.44073 24184.18275 17640.14917
v -30304.07284 23478.00949 17640.76324
v -31210.98180 22971.09970 17644.53336
v -32434.48789 22643.91024 17651.38482
v -33903.49732 22428.55347 17661.18181
v -35475.79286 22233.52798 17673.73017
v -36986.38010 21974.30629 17688.78118
v -38304.34780 21599.08917 17706.03654
v -39377.95178 21101.28380 17725.15425
v -40251.16949 20515.35876 17745.75539
v -41044.78569 19898.73923 17767.43165
v -41907.79413 19307.15336 17789.75342
v -42955.98443 18772.69773 17812.27827
v -44219.91598 18292.33611 17834.55976
v -45621.92069 17830.31870 17856.15629
v -46991.99195 17332.77013 17876.63980
v -48118.72575 16748.39657 17895.60433
v -48818.71632 16047.41183 17912.67398
v -49000.60400 15231.91993 17927.51044
v -48701.07168 14334.52835 17939.81966
v -48079.31032 13406.46349 17949.35767
v -47370.71510 12500.19717 17955.93543
v -46814.86107 11653.22847 17959.42256
v -46582.05192 10878.71562 17959.74995
v -46723.56251 10165.63817 17956.91111
v -47162.67925 9487.36507 17950.96231
v -47729.50526 8814.41789 17942.02145
v -48227.17625 8126.00092 17930.26574
v -48506.04617 7415.88295 17915.92818
v -48519.51495 6690.92589 17899.29293
v -48341.57185 5963.77861 17880.68970
v -48139.61463 5243.65033 17860.48722
v -48111.94439 4529.69104 17839.08588
v -48411.93570 3810.14203 17816.90986
v -49085.77160 3067.70385 17794.39870
v -50046.05924 2288.68208 17771.99855
v -51091.19515 1471.65445 17750.15338
vt 48.846752 14.876358
vt 50.192371 14.891844
vt 51.474001 14.909474
vt 52.436351 14.928899
vt 52.894214 14.949732
vt 52.788497 14.971562
vt 52.200880 14.993955
vt 51.322384 15.016469
vt 50.387007 15.038656
vt 49.593581 15.060076
vt 49.042840 15.080306
vt 48.711097 15.098945
vt 48.468877 15.115622
vt 48.137043 15.130008
vt 47.559856 15.141817
vt 46.668733 15.150815
vt 45.514030 15.156824
vt 44.253632 15.159725
vt 43.102493 15.159460
vt 42.260879 15.156034
vt 41.846374 15.149516
vt 41.853112 15.140035
vt 42.151960 15.127778
vt 42.531019 15.112988
vt 42.761985 15.095960
vt 42.669385 15.077029
vt 42.179378 15.056571
vt 41.332587 15.034993
vt 40.258318 15.012720
vt 39.120942 14.990196
vt 38.058358 14.967866
vt 37.134363 14.946173
vt 36.320862 14.925547
vt 35.514705 14.906396
vt 34.581465 14.889100
vt 33.409317 14.874003
vt 31.953304 14.861403
vt 30.254549 14.851550
vt 28.428528 14.844639
vt 26.627696 14.840807
vt 24.992592 14.840131
vt 23.608867 14.842623
vt 22.484714 14.848234
vt 21.555132 14.856853
vt 20.709693 14.868310
vt 19.832394 14.882376
vt 18.838807 14.898774
vt 17.697850 14.917178
vt 16.432115 14.937224
vt 15.099008 14.958514
vt 13.761828 14.980626
vt 12.462814 15.003122
vt 11.208361 15.025556
vt 9.970952 15.047484
vt 8.705394 15.068470
vt 7.371393 15.088100
vt 5.952527 15.105983
vt 4.463819 15.121766
vt 2.945325 15.135135
vt 1.445197 15.145826
vt 0.000000 15.153627
vt -1.379060 15.158383
vt -2.708146 15.160000
vt -4.020489 15.158445
vt -5.348702 15.153751
vt -6.707952 15.146008
vt -8.087951 15.135372
vt -9.457959 15.122053
vt -10.783156 15.106315
vt -12.045452 15.088470
vt -13.259210 15.068871
vt -14.473787 15.047907
vt -15.759850 15.025994
vt -17.183202 15.003565
vt -18.775576 14.981066
vt -20.514174 14.958942
vt -22.319349 14.937632
vt -24.073467 14.917558
vt -25.655886 14.899118
vt -26.982246 14.882677
vt -28.033673 14.868562
vt -28.864296 14.857052
vt -29.582942 14.848375
vt -30.314389 14.842703
vt -31.153621 14.840149
vt -32.129909 14.840763
vt -33.194776 14.844533
vt -34.239675 14.851385
vt -35.138308 14.861182
vt -35.798988 14.873730
vt -36.207849 14.888781
vt -36.446016 14.906037
vt -36.672587 14.925154
vt -37.077362 14.945755
vt -37.818561 14.967432
vt -38.966939 14.989753
vt -40.476426 15.012278
vt -42.192767 15.034560
vt -43.898571 15.056156
vt -45.380236 15.076640
vt -46.494067 15.095604
vt -47.208670 15.112674
vt -47.608603 15.127510
vt -47.857701 15.139820
vt -48.134793 15.149358
vt -48.564527 15.155935
vt -49.168122 15.159423
vt -49.852146 15.159750
vt -50.440081 15.156911
vt -50.736253 15.150962
vt -50.599905 15.142021
vt -50.003164 15.130266
vt -49.051860 15.115928
vt -47.960853 15.099293
vt -46.991401 15.080690
vt -46.371393 15.060487
vt -46.225478 15.039086
vt -46.538837 15.016910
vt -47.166774 14.994399
vt -47.886510 14.971999
vt -48.472983 14.950153
vt 53.700761 15.436358
vt 54.926253 15.451844
vt 56.130268 15.469474
vt 57.059221 15.488899
vt 57.504541 15.509732
vt 57.369133 15.531562
vt 56.698009 15.553955
vt 55.662591 15.576469
vt 54.504166 15.598656
vt 53.456040 15.620076
vt 52.671093 15.640306
vt 52.179325 15.658945
vt 51.889240 15.675622
vt 51.631519 15.690008
vt 51.228674 15.701817
vt 50.565553 15.710815
vt 49.635652 15.716824
vt 48.547023 15.719725
vt 47.486042 15.719460
vt 46.652135 15.716034
vt 46.186621 15.709516
vt 46.120623 15.700035
vt 46.360052 15.687778
vt 46.712507 15.672988
vt 46.946405 15.655960
vt 46.861724 15.637029
vt 46.348296 15.616571
vt 45.412525 15.594993
vt 44.164860 15.572720
vt 42.774112 15.550196
vt 41.405821 15.527866
vt 40.166650 15.506173
vt 39.073670 15.485547
vt 38.057807 15.466396
vt 36.998299 15.449100
vt 35.774248 15.434003
vt 34.313942 15.421403
vt 32.624352 15.411550
vt 30.791074 15.404639
vt 28.949929 15.400807
vt 27.241489 15.400131
vt 25.765240 15.402623
vt 24.549428 15.408234
vt 23.546167 15.416853
vt 22.651947 15.428310
vt 21.744696 15.442376
vt 20.723324 15.458774
vt 19.535863 15.477178
vt 18.187515 15.497224
vt 16.727927 15.518514
vt 15.224642 15.540626
vt 13.734160 15.563122
vt 12.281853 15.585556
vt 10.857504 15.607484
vt 9.426498 15.628470
vt 7.950431 15.648100
vt 6.407564 15.665983
vt 4.804311 15.681766
vt 3.173261 15.695135
vt 1.559239 15.705826
vt 0.000000 15.713627
vt -1.489725 15.718383
vt -2.923756 15.720000
vt -4.337186 15.718445
vt -5.769599 15.713751
vt -7.246373 15.706008
vt -8.766632 15.695372
vt -10.303687 15.682053
vt -11.818389 15.666315
vt -13.279970 15.648470
vt -14.685202 15.628871
vt -16.066694 15.607907
vt -17.485120 15.585994
vt -19.006723 15.563565
vt -20.673902 15.541066
vt -22.480449 15.518942
vt -24.362334 15.497632
vt -26.209667 15.477558
vt -27.897643 15.459118
vt -29.326542 15.442677
vt -30.456533 15.428562
vt -31.323901 15.417052
vt -32.031383 15.408375
vt -32.714585 15.402703
vt -33.495575 15.400149
vt -34.440142 15.400763
vt -35.534779 15.404533
vt -36.692840 15.411385
vt -37.788938 15.421182
vt -38.709981 15.433730
vt -39.404463 15.448781
vt -39.911291 15.466037
vt -40.356064 15.485154
vt -40.914115 15.505755
vt -41.751801 15.527432
vt -42.966069 15.549753
vt -44.543900 15.572278
vt -46.357075 15.594560
vt -48.195708 15.616156
vt -49.830373 15.636640
vt -51.082193 15.655604
vt -51.876892 15.672674
vt -52.263900 15.687510
vt -52.393534 15.699820
vt -52.459933 15.709358
vt -52.629657 15.715935
vt -52.981180 15.719423
vt -53.476967 15.719750
vt -53.978485 15.716911
vt -54.299318 15.710962
vt -54.277864 15.702021
vt -53.843794 15.690266
vt -53.054246 15.675928
vt -52.086048 15.659293
vt -51.185570 15.640690
vt -50.592722 15.620487
vt -50.464845 15.599086
vt -50.826554 15.576910
vt -51.562717 15.554399
vt -52.456943 15.531999
vt -53.262231 15.510153
vt 55.716705 15.996358
vt 56.745815 16.011844
vt 57.799772 16.029474
vt 58.640177 16.048899
vt 59.046091 16.069732
vt 58.887579 16.091562
vt 58.170746 16.113955
vt 57.038565 16.136469
vt 55.727001 16.158656
vt 54.491384 16.180076
vt 53.528131 16.200306
vt 52.918347 16.218945
vt 52.611970 16.235622
vt 52.456884 16.250008
vt 52.261762 16.261817
vt 51.869857 16.270815
vt 51.217587 16.276824
vt 50.357490 16.279725
vt 49.438059 16.279460
vt 48.648193 16.276034
vt 48.146416 16.269516
vt 48.000030 16.260035
vt 48.155586 16.247778
vt 48.450779 16.232988
vt 48.663318 16.215960
vt 48.579575 16.197029
vt 48.059388 16.176571
vt 47.075272 16.154993
vt 45.713744 16.132720
vt 44.139821 16.110196
vt 42.538364 16.087866
vt 41.053300 16.066173
vt 39.745529 16.045547
vt 38.582860 16.026396
vt 37.463477 16.009100
vt 36.262646 15.994003
vt 34.884689 15.981403
vt 33.301356 15.971550
vt 31.563474 15.964639
vt 29.783000 15.960807
vt 28.093246 15.960131
vt 26.602489 15.962623
vt 25.357731 15.968234
vt 24.330876 15.976853
vt 23.430924 15.988310
vt 22.536343 16.002376
vt 21.534992 16.018774
vt 20.357170 16.037178
vt 18.990941 16.057224
vt 17.476131 16.078514
vt 15.881453 16.100626
vt 14.275012 16.123122
vt 12.699907 16.145556
vt 11.163615 16.167484
vt 9.643592 16.188470
vt 8.104917 16.208100
vt 6.521242 16.225983
vt 4.889663 16.241766
vt 3.233307 16.255135
vt 1.591135 16.265826
vt 0.000000 16.273627
vt -1.522669 16.278383
vt -2.987628 16.280000
vt -4.429924 16.278445
vt -5.893878 16.273751
vt -7.413475 16.266008
vt -8.996909 16.255372
vt -10.622492 16.242053
vt -12.248344 16.226315
vt -13.832276 16.208470
vt -15.353459 16.188871
vt -16.826080 16.167907
vt -18.297890 16.145994
vt -19.832508 16.123565
vt -21.481256 16.101066
vt -23.255314 16.078942
vt -25.110018 16.057632
vt -26.949297 16.037558
vt -28.650976 16.019118
vt -30.105443 16.002677
vt -31.254270 15.988562
vt -32.114301 15.977052
vt -32.777082 15.968375
vt -33.382112 15.962703
vt -34.072085 15.960149
vt -34.945498 15.960763
vt -36.023811 15.964533
vt -37.245845 15.971385
vt -38.492575 15.981182
vt -39.634361 15.993730
vt -40.583914 16.008781
vt -41.335397 16.026037
vt -41.974242 16.045154
vt -42.652378 16.065755
vt -43.536057 16.087432
vt -44.743890 16.109753
vt -46.297108 16.132278
vt -48.100679 16.154560
vt -49.963606 16.176156
vt -51.653097 16.196640
vt -52.965040 16.215604
vt -53.786952 16.232674
vt -54.131511 16.247510
vt -54.128664 16.259820
vt -53.978593 16.269358
vt -53.881610 16.275935
vt -53.969403 16.279423
vt -54.261810 16.279750
vt -54.664552 16.276911
vt -55.008921 16.270962
vt -55.119523 16.262021
vt -54.885982 16.250266
vt -54.312776 16.235928
vt -53.528822 16.219293
vt -52.752392 16.200690
vt -52.222732 16.180487
vt -52.121574 16.159086
vt -52.511581 16.136910
vt -53.313079 16.114399
vt -54.327306 16.091999
vt -55.298347 16.070153
vt 56.348063 16.556358
vt 57.122011 16.571844
vt 57.968230 16.589474
vt 58.675979 16.608899
vt 59.023274 16.629732
vt 58.853822 16.651562
vt 58.134217 16.673955
vt 56.971265 16.696469
vt 55.583015 16.718656
vt 54.233082 16.740076
vt 53.150520 16.760306
vt 52.462369 16.778945
vt 52.161434 16.795622
vt 52.119456 16.810008
vt 52.140066 16.821817
vt 52.032231 16.830815
vt 51.678212 16.836824
vt 51.072445 16.839725
vt 50.318426 16.839460
vt 49.585659 16.836034
vt 49.042727 16.829516
vt 48.790675 16.820035
vt 48.820383 16.807778
vt 49.008781 16.792988
vt 49.154951 16.775960
vt 49.043184 16.757029
vt 48.511001 16.736571
vt 47.498861 16.714993
vt 46.065234 16.692720
vt 44.363064 16.670196
vt 42.587028 16.647866
vt 40.910645 16.626173
vt 39.434963 16.605547
vt 38.165531 16.586396
vt 37.023768 16.569100
vt 35.886550 16.554003
vt 34.638302 16.541403
vt 33.216364 16.531550
vt 31.633833 16.524639
vt 29.972960 16.520807
vt 28.353092 16.520131
vt 26.886035 16.522623
vt 25.635522 16.528234
vt 24.595110 16.536853
vt 23.691418 16.548310
vt 22.810138 16.562376
vt 21.834291 16.578774
vt 20.680490 16.597178
vt 19.320732 16.617224
vt 17.783387 16.638514
vt 16.135122 16.660626
vt 14.452304 16.683122
vt 12.793539 16.705556
vt 11.183421 16.727484
vt 9.612314 16.748470
vt 8.050176 16.768100
vt 6.467003 16.785983
vt 4.850369 16.801766
vt 3.212507 16.815135
vt 1.584373 16.825826
vt 0.000000 16.833627
vt -1.521311 16.838383
vt -2.986547 16.840000
vt -4.428686 16.838445
vt -5.894214 16.833751
vt -7.423620 16.826008
vt -9.033346 16.815372
vt -10.707397 16.802053
vt -12.402941 16.786315
vt -14.068261 16.768470
vt -15.665876 16.748871
vt -17.190895 16.727907
vt -18.675953 16.705994
vt -20.179191 16.683565
vt -21.758717 16.661066
vt -23.443039 16.638942
vt -25.209620 16.617632
vt -26.981513 16.597558
vt -28.645723 16.579118
vt -30.088545 16.562677
vt -31.236054 16.548562
vt -32.084811 16.537052
vt -32.710412 16.528375
vt -33.248900 16.522703
vt -33.855923 16.520149
vt -34.657077 16.520763
vt -35.706943 16.524533
vt -36.972045 16.531385
vt -38.344869 16.541182
vt -39.684982 16.553730
vt -40.873091 16.568781
vt -41.858505 16.586037
vt -42.682037 16.605154
vt -43.464675 16.625755
vt -44.364562 16.647432
vt -45.516572 16.669753
vt -46.975850 16.692278
vt -48.686170 16.714560
vt -50.485930 16.736156
vt -52.151579 16.756640
vt -53.464903 16.775604
vt -54.281638 16.792674
vt -54.577705 16.807510
vt -54.456585 16.819820
vt -54.114632 16.829358
vt -53.775755 16.835935
vt -53.617851 16.839423
vt -53.716469 16.839750
vt -54.025410 16.836911
vt -54.401076 16.830962
vt -54.661936 16.822021
vt -54.661967 16.810266
vt -54.351730 16.795928
vt -53.804894 16.779293
vt -53.200048 16.760690
vt -52.763393 16.740487
vt -52.691837 16.719086
vt -53.083120 16.696910
vt -53.897453 16.674399
vt -54.964338 16.651999
vt -56.032641 16.630153
vt 55.977698 17.116358
vt 56.455596 17.131844
vt 57.052163 17.149474
vt 57.595109 17.168899
vt 57.872470 17.189732
vt 57.709082 17.211562
vt 57.033106 17.233955
vt 55.909025 17.256469
vt 54.525082 17.278656
vt 53.138915 17.300076
vt 51.999649 17.320306
vt 51.272844 17.338945
vt 50.993590 17.355622
vt 51.063142 17.370008
vt 51.289390 17.381817
vt 51.456325 17.390815
vt 51.397989 17.396824
vt 51.051324 17.399725
vt 50.470248 17.399460
vt 49.797195 17.396034
vt 49.203336 17.389516
vt 48.819446 17.380035
vt 48.682233 17.367778
vt 48.714999 17.352988
vt 48.749095 17.335960
vt 48.578190 17.317029
vt 48.026058 17.296571
vt 47.004287 17.274993
vt 45.540336 17.252720
vt 43.767153 17.230196
vt 41.879011 17.207866
vt 40.069695 17.186173
vt 38.474587 17.165547
vt 37.135887 17.146396
vt 36.001376 17.129100
vt 34.954966 17.114003
vt 33.866363 17.101403
vt 32.641198 17.091550
vt 31.253939 17.084639
vt 29.752986 17.080807
vt 28.237921 17.080131
vt 26.818831 17.082623
vt 25.573480 17.088234
vt 24.517986 17.096853
vt 23.600892 17.108310
vt 22.721465 17.122376
vt 21.764329 17.138774
vt 20.637080 17.157178
vt 19.297431 17.177224
vt 17.761118 17.198514
vt 16.089516 17.220626
vt 14.363388 17.243122
vt 12.653725 17.265556
vt 11.000731 17.287484
vt 9.407811 17.308470
vt 7.850935 17.328100
vt 6.297590 17.345983
vt 4.726161 17.361766
vt 3.137172 17.375135
vt 1.551937 17.385826
vt 0.000000 17.393627
vt -1.498274 17.398383
vt -2.945489 17.400000
vt -4.370556 17.398445
vt -5.819403 17.393751
vt -7.336580 17.386008
vt -8.945557 17.375372
vt -10.636506 17.362053
vt -12.367550 17.346315
vt -14.079913 17.328470
vt -15.721363 17.308871
vt -17.268340 17.287907
vt -18.737024 17.265994
vt -20.177569 17.243565
vt -21.652435 17.221066
vt -23.206533 17.198942
vt -24.841059 17.177632
vt -26.502454 17.157558
vt -28.092849 17.139118
vt -29.500300 17.122677
vt -30.639066 17.108562
vt -31.485406 17.097052
vt -32.094812 17.088375
vt -32.592535 17.082703
vt -33.138724 17.080149
vt -33.879031 17.080763
vt -34.897624 17.084533
vt -36.189618 17.091385
vt -37.663674 17.101182
vt -39.175011 17.113730
vt -40.577899 17.128781
vt -41.779146 17.146037
vt -42.772967 17.165154
vt -43.643666 17.185755
vt -44.533891 17.207432
vt -45.588755 17.229753
vt -46.895417 17.252278
vt -48.440210 17.274560
vt -50.099957 17.296156
vt -51.672426 17.316640
vt -52.936986 17.335604
vt -53.725405 17.352674
vt -53.978422 17.367510
vt -53.767991 17.379820
vt -53.276658 17.389358
vt -52.740302 17.395935
vt -52.373453 17.399423
vt -52.302705 17.399750
vt -52.531218 17.396911
vt -52.946565 17.390962
vt -53.369046 17.382021
vt -53.623257 17.370266
vt -53.607434 17.355928
vt -53.335653 17.339293
vt -52.937484 17.320690
vt -52.614669 17.300487
vt -52.569625 17.279086
vt -52.930753 17.256910
vt -53.700855 17.234399
vt -54.747136 17.211999
vt -55.836850 17.190153
vt 51.004889 17.676358
vt 51.154274 17.691844
vt 51.468527 17.709474
vt 51.822371 17.728899
vt 52.024115 17.749732
vt 51.887872 17.771562
vt 51.306121 17.793955
vt 50.296796 17.816469
vt 49.007823 17.838656
vt 47.676856 17.860076
vt 46.559568 17.880306
vt 45.850819 17.898945
vt 45.625471 17.915622
vt 45.818716 17.930008
vt 46.252064 17.941817
vt 46.695372 17.950815
vt 46.943081 17.956824
vt 46.878372 17.959725
vt 46.503681 17.959460
vt 45.928192 17.956034
vt 45.318125 17.949516
vt 44.828474 17.940035
vt 44.540896 17.927778
vt 44.429719 17.912988
vt 44.367629 17.895960
vt 44.168385 17.877029
vt 43.650975 17.856571
vt 42.702428 17.834993
vt 41.317474 17.812720
vt 39.601857 17.790196
vt 37.739013 17.767866
vt 35.932473 17.746173
vt 34.344297 17.725547
vt 33.050352 17.706396
vt 32.026594 17.689100
vt 31.169101 17.674003
vt 30.338866 17.661403
vt 29.414221 17.651550
vt 28.332182 17.644639
vt 27.104981 17.640807
vt 25.807744 17.640131
vt 24.543768 17.642623
vt 23.401494 17.648234
vt 22.419388 17.656853
vt 21.571074 17.668310
vt 20.774973 17.682376
vt 19.923524 17.698774
vt 18.920254 17.717178
vt 17.710880 17.737224
vt 16.297740 17.758514
vt 14.733728 17.780626
vt 13.099698 17.803122
vt 11.475119 17.825556
vt 9.913360 17.847484
vt 8.430237 17.868470
vt 7.008485 17.888100
vt 5.614316 17.905983
vt 4.217703 17.921766
vt 2.807238 17.935135
vt 1.393459 17.945826
vt 0.000000 17.953627
vt -1.352564 17.958383
vt -2.662073 17.960000
vt -3.951611 17.958445
vt -5.263921 17.953751
vt -6.645077 17.946008
vt -8.124152 17.935372
vt -9.697811 17.922053
vt -11.327179 17.906315
vt -12.949447 17.888470
vt -14.500465 17.868871
vt -15.939529 17.847907
vt -17.266009 17.825994
vt -18.520092 17.803565
vt -19.766022 17.781066
vt -21.063407 17.758942
vt -22.437593 17.737632
vt -23.861456 17.717558
vt -25.257381 17.699118
vt -26.520835 17.682677
vt -27.558433 17.668562
vt -28.327020 17.657052
vt -28.858751 17.648375
vt -29.261237 17.642703
vt -29.690441 17.640149
vt -30.304073 17.640763
vt -31.210982 17.644533
vt -32.434488 17.651385
vt -33.903497 17.661182
vt -35.475793 17.673730
vt -36.986380 17.688781
vt -38.304348 17.706037
vt -39.377952 17.725154
vt -40.251169 17.745755
vt -41.044786 17.767432
vt -41.907794 17.789753
vt -42.955984 17.812278
vt -44.219916 17.834560
vt -45.621921 17.856156
vt -46.991992 17.876640
vt -48.118726 17.895604
vt -48.818716 17.912674
vt -49.000604 17.927510
vt -48.701072 17.939820
vt -48.079310 17.949358
vt -47.370715 17.955935
vt -46.814861 17.959423
vt -46.582052 17.959750
vt -46.723563 17.956911
vt -47.162679 17.950962
vt -47.729505 17.942021
vt -48.227176 17.930266
vt -48.506046 17.915928
vt -48.519515 17.899293
vt -48.341572 17.880690
vt -48.139615 17.860487
vt -48.111944 17.839086
vt -48.411936 17.816910
vt -49.085772 17.794399
vt -50.046059 17.771999
vt -51.091195 17.750153
f 1/1 122/122 123/123
f 1/1 123/123 2/2
f 2/2 123/123 124/124
f 2/2 124/124 3/3
f 3/3 124/124 125/125
f 3/3 125/125 4/4
f 4/4 125/125 126/126
f 4/4 126/126 5/5
f 5/5 126/126 127/127
f 5/5 127/127 6/6
f 6/6 127/127 128/128
f 6/6 128/128 7/7
f 7/7 128/128 129/129
f 7/7 129/129 8/8
f 8/8 129/129 130/130
f 8/8 130/130 9/9
f 9/9 130/130 131/131
f 9/9 131/131 10/10
f 10/10 131/131 132/132
f 10/10 132/132 11/11
f 11/11 132/132 133/133
f 11/11 133/133 12/12
f 12/12 133/133 134/134
f 12/12 134/134 13/13
f 13/13 134/134 135/135
f 13/13 135/135 14/14
f 14/14 135/135 136/136
f 14/14 136/136 15/15
f 15/15 136/136 137/137
f 15/15 137/137 16/16
f 16/16 137/137 138/138
f 16/16 138/138 17/17
f 17/17 138/138 139/139
f 17/17 139/139 18/18
f 18/18 139/139 140/140
f 18/18 140/140 19/19
f 19/19 140/140 141/141
f 19/19 141/141 20/20
f 20/20 141/141 142/142
f 20/20 142/142 21/21
f 21/21 142/142 143/143
f 21/21 143/143 22/22
f 22/22 143/143 144/144
f 22/22 144/144 23/23
f 23/23 144/144 145/145
f 23/23 145/145 24/24
f 24/24 145/145 146/146
f 24/24 146/146 25/25
f 25/25 146/146 147/147
f 25/25 147/147 26/26
f 26/26 147/147 148/148
f 26/26 148/148 27/27
f 27/27 148/148 149/149
f 27/27 149/149 28/28
f 28/28 149/149 150/150
f 28/28 150/150 29/29
f 29/29 150/150 151/151
f 29/29 151/151 30/30
f 30/30 151/151 152/152
f 30/30 152/152 31/31
f 31/31 152/152 153/153
f 31/31 153/153 32/32
f 32/32 153/153 154/154
f 32/32 154/154 33/33
f 33/33 154/154 155/155
f 33/33 155/155 34/34
f 34/34 155/155 156/156
f 34/34 156/156 35/35
f 35/35 156/156 157/157
f 35/35 157/157 36/36
f 36/36 157/157 158/158
f 36/36 158/158 37/37
f 37/37 158/158 159/159
f 37/37 159/159 38/38
f 38/38 159/159 160/160
f 38/38 160/160 39/39
f 39/39 160/160 161/161
f 39/39 161/161 40/40
f 40/40 161/161 162/162
f 40/40 162/162 41/41
f 41/41 162/162 163/163
f 41/41 163/163 42/42
f 42/42 163/163 164/164
f 42/42 164/164 43/43
f 43/43 164/164 165/165
f 43/43 165/165 44/44
f 44/44 165/165 166/166
f 44/44 166/166 45/45
f 45/45 166/166 167/167
f 45/45 167/167 46/46
f 46/46 167/167 168/168
f 46/46 168/168 47/47
f 47/47 168/168 169/169
f 47/47 169/169 48/48
f 48/48 169/169 170/170
f 48/48 170/170 49/49
f 49/49 170/170 171/171
f 49/49 171/171 50/50
f 50/50 171/171 172/172
f 50/50 172/172 51/51
f 51/51 172/172 173/173
f 51/51 173/173 52/52
f 52/52 173/173 174/174
f 52/52 174/174 53/53
f 53/53 174/174 175/175
f 53/53 175/175 54/54
f 54/54 175/175 176/176
f 54/54 176/176 55/55
f 55/55 176/176 177/177
f 55/55 177/177 56/56
f 56/56 177/177 178/178
f 56/56 178/178 57/57
f 57/57 178/178 179/179
f 57/57 179/179 58/58
f 58/58 179/179 180/180
f 58/58 180/180 59/59
f 59/59 180/180 181/181
f 59/59 181/181 60/60
f 60/60 181/181 182/182
f 60/60 182/182 61/61
f 61/61 182/182 183/183
f 61/61 183/183 62/62
f 62/62 183/183 184/184
f 62/62 184/184 63/63
f 63/63 184/184 185/185
f 63/63 185/185 64/64
f 64/64 185/185 186/186
f 64/64 186/186 65/65
f 65/65 186/186 187/187
f 65/65 187/187 66/66
f 66/66 187/187 188/188
f 66/66 188/188 67/67
f 67/67 188/188 189/189
f 67/67 189/189 68/68
f 68/68 189/189 190/190
f 68/68 190/190 69/69
f 69/69 190/190 191/191
f 69/69 191/191 70/70
f 70/70 191/191 192/192
f 70/70 192/192 71/71
f 71/71 192/192 193/193
f 71/71 193/193 72/72
f 72/72 193/193 194/194
f 72/72 194/194 73/73
f 73/73 194/194 195/195
f 73/73 195/195 74/74
f 74/74 195/195 196/196
f 74/74 196/196 75/75
f 75/75 196/196 197/197
f 75/75 197/197 76/76
f 76/76 197/197 198/198
f 76/76 198/198 77/77
f 77/77 198/198 199/199
f 77/77 199/199 78/78
f 78/78 199/199 200/200
f 78/78 200/200 79/79
f 79/79 200/200 201/201
f 79/79 201/201 80/80
f 80/80 201/201 202/202
f 80/80 202/202 81/81
f 81/81 202/202 203/203
f 81/81 203/203 82/82
f 82/82 203/203 204/204
f 82/82 204/204 83/83
f 83/83 204/204 205/205
f 83/83 205/205 84/84
f 84/84 205/205 206/206
f 84/84 206/206 85/85
f 85/85 206/206 207/207
f 85/85 207/207 86/86
f 86/86 207/207 208/208
f 86/86 208/208 87/87
f 87/87 208/208 209/209
f 87/87 209/209 88/88
f 88/88 209/209 210/210
f 88/88 210/210 89/89
f 89/89 210/210 211/211
f 89/89 211/211 90/90
f 90/90 211/211 212/212
f 90/90 212/212 91/91
f 91/91 212/212 213/213
f 91/91 213/213 92/92
f 92/92 213/213 214/214
f 92/92 214/214 93/93
f 93/93 214/214 215/215
f 93/93 215/215 94/94
f 94/94 215/215 216/216
f 94/94 216/216 95/95
f 95/95 216/216 217/217
f 95/95 217/217 96/96
f 96/96 217/217 218/218
f 96/96 218/218 97/97
f 97/97 218/218 219/219
f 97/97 219/219 98/98
f 98/98 219/219 220/220
f 98/98 220/220 99/99
f 99/99 220/220 221/221
f 99/99 221/221 100/100
f 100/100 221/221 222/222
f 100/100 222/222 101/101
f 101/101 222/222 223/223
f 101/101 223/223 102/102
f 102/102 223/223 224/224
f 102/102 224/224 103/103
f 103/103 224/224 225/225
f 103/103 225/225 104/104
f 104/104 225/225 226/226
f 104/104 226/226 105/105
f 105/105 226/226 227/227
f 105/105 227/227 106/106
f 106/106 227/227 228/228
f 106/106 228/228 107/107
f 107/107 228/228 229/229
f 107/107 229/229 108/108
f 108/108 229/229 230/230
f 108/108 230/230 109/109
f 109/109 230/230 231/231
f 109/109 231/231 110/110
f 110/110 231/231 232/232
f 110/110 232/232 111/111
f 111/111 232/232 233/233
f 111/111 233/233 112/112
f 112/112 233/233 234/234
f 112/112 234/234 113/113
f 113/113 234/234 235/235
f 113/113 235/235 114/114
f 114/114 235/235 236/236
f 114/114 236/236 115/115
f 115/115 236/236 237/237
f 115/115 237/237 116/116
f 116/116 237/237 238/238
f 116/116 238/238 117/117
f 117/117 238/238 239/239
f 117/117 239/239 118/118
f 118/118 239/239 240/240
f 118/118 240/240 119/119
f 119/119 240/240 241/241
f 119/119 241/241 120/120
f 120/120 241/241 242/242
f 120/120 242/242 121/121
f 122/122 243/243 244/244
f 122/122 244/244 123/123
f 123/123 244/244 245/245
f 123/123 245/245 124/124
f 124/124 245/245 246/246
f 124/124 246/246 125/125
f 125/125 246/246 247/247
f 125/125 247/247 126/126
f 126/126 247/247 248/248
f 126/126 248/248 127/127
f 127/127 248/248 249/249
f 127/127 249/249 128/128
f 128/128 249/249 250/250
f 128/128 250/250 129/129
f 129/129 250/250 251/251
f 129/129 251/251 130/130
f 130/130 251/251 252/252
f 130/130 252/252 131/131
f 131/131 252/252 253/253
f 131/131 253/253 132/132
f 132/132 253/253 254/254
f 132/132 254/254 133/133
f 133/133 254/254 255/255
f 133/133 255/255 134/134
f 134/134 255/255 256/256
f 134/134 256/256 135/135
f 135/135 256/256 257/257
f 135/135 257/257 136/136
f 136/136 257/257 258/258
f 136/136 258/258 137/137
f 137/137 258/258 259/259
f 137/137 259/259 138/138
f 138/138 259/259 260/260
f 138/138 260/260 139/139
f 139/139 260/260 261/261
f 139/139 261/261 140/140
f 140/140 261/261 262/262
f 140/140 262/262 141/141
f 141/141 262/262 263/263
f 141/141 263/263 142/142
f 142/142 263/263 264/264
f 142/142 264/264 143/143
f 143/143 264/264 265/265
f 143/143 265/265 144/144
f 144/144 265/265 266/266
f 144/144 266/266 145/145
f 145/145 266/266 267/267
f 145/145 267/267 146/146
f 146/146 267/267 268/268
f 146/146 268/268 147/147
f 147/147 268/268 269/269
f 147/147 269/269 148/148
f 148/148 269/269 270/270
f 148/148 270/270 149/149
f 149/149 270/270 271/271
f 149/149 271/271 150/150
f 150/150 271/271 272/272
f 150/150 272/272 151/151
f 151/151 272/272 273/273
f 151/151 273/273 152/152
f 152/152 273/273 274/274
f 152/152 274/274 153/153
f 153/153 274/274 275/275
f 153/153 275/275 154/154
f 154/154 275/275 276/276
f 154/154 276/276 155/155
f 155/155 276/276 277/277
f 155/155 277/277 156/156
f 156/156 277/277 278/278
f 156/156 278/278 157/157
f 157/157 278/278 279/279
f 157/157 279/279 158/158
f 158/158 279/279 280/280
f 158/158 280/280 159/159
f 159/159 280/280 281/281
f 159/159 281/281 160/160
f 160/160 281/281 282/282
f 160/160 282/282 161/161
f 161/161 282/282 283/283
f 161/161 283/283 162/162
f 162/162 283/283 284/284
f 162/162 284/284 163/163
f 163/163 284/284 285/285
f 163/163 285/285 164/164
f 164/164 285/285 286/286
f 164/164 286/286 165/165
f 165/165 286/286 287/287
f 165/165 287/287 166/166
f 166/166 287/287 288/288
f 166/166 288/288 167/167
f 167/167 288/288 289/289
f 167/167 289/289 168/168
f 168/168 289/289 290/290
f 168/168 290/290 169/169
f 169/169 290/290 291/291
f 169/169 291/291 170/170
f 170/170 291/291 292/292
f 170/170 292/292 171/171
f 171/171 292/292 293/293
f 171/171 293/293 172/172
f 172/172 293/293 294/294
f 172/172 294/294 173/173
f 173/173 294/294 295/295
f 173/173 295/295 174/174
f 174/174 295/295 296/296
f 174/174 296/296 175/175
f 175/175 296/296 297/297
f 175/175 297/297 176/176
f 176/176 297/297 298/298
f 176/176 298/298 177/177
f 177/177 298/298 299/299
f 177/177 299/299 178/178
f 178/178 299/299 300/300
f 178/178 300/300 179/179
f 179/179 300/300 301/301
f 179/179 301/301 180/180
f 180/180 301/301 302/302
f 180/180 302/302 181/181
f 181/181 302/302 303/303
f 181/181 303/303 182/182
f 182/182 303/303 304/304
f 182/182 304/304 183/183
f 183/183 304/304 305/305
f 183/183 305/305 184/184
f 184/184 305/305 306/306
f 184/184 306/306 185/185
f 185/185 306/306 307/307
f 185/185 307/307 186/186
f 186/186 307/307 308/308
f 186/186 308/308 187/187
f 187/187 308/308 309/309
f 187/187 309/309 188/188
f 188/188 309/309 310/310
f 188/188 310/310 189/189
f 189/189 310/310 311/311
f 189/189 311/311 190/190
f 190/190 311/311 312/312
f 190/190 312/312 191/191
f 191/191 312/312 313/313
f 191/191 313/313 192/192
f 192/192 313/313 314/314
f 192/192 314/314 193/193
f 193/193 314/314 315/315
f 193/193 315/315 194/194
f 194/194 315/315 316/316
f 194/194 316/316 195/195
f 195/195 316/316 317/317
f 195/195 317/317 196/196
f 196/196 317/317 318/318
f 196/196 318/318 197/197
f 197/197 318/318 319/319
f 197/197 319/319 198/198
f 198/198 319/319 320/320
f 198/198 320/320 199/199
f 199/199 320/320 321/321
f 199/199 321/321 200/200
f 200/200 321/321 322/322
f 200/200 322/322 201/201
f 201/201 322/322 323/323
f 201/201 323/323 202/202
f 202/202 323/323 324/324
f 202/202 324/324 203/203
f 203/203 324/324 325/325
f 203/203 325/325 204/204
f 204/204 325/325 326/326
f 204/204 326/326 205/205
f 205/205 326/326 327/327
f 205/205 327/327 206/206
f 206/206 327/327 328/328
f 206/206 328/328 207/207
f 207/207 328/328 329/329
f 207/207 329/329 208/208
f 208/208 329/329 330/330
f 208/208 330/330 209/209
f 209/209 330/330 331/331
f 209/209 331/331 210/210
f 210/210 331/331 332/332
f 210/210 332/332 211/211
f 211/211 332/332 333/333
f 211/211 333/333 212/212
f 212/212 333/333 334/334
f 212/212 334/334 213/213
f 213/213 334/334 335/335
f 213/213 335/335 214/214
f 214/214 335/335 336/336
f 214/214 336/336 215/215
f 215/215 336/336 337/337
f 215/215 337/337 216/216
f 216/216 337/337 338/338
f 216/216 338/338 217/217
f 217/217 338/338 339/339
f 217/217 339/339 218/218
f 218/218 339/339 340/340
f 218/218 340/340 219/219
f 219/219 340/340 341/341
f 219/219 341/341 220/220
f 220/220 341/341 342/342
f 220/220 342/342 221/221
f 221/221 342/342 343/343
f 221/221 343/343 222/222
f 222/222 343/343 344/344
f 222/222 344/344 223/223
f 223/223 344/344 345/345
f 223/223 345/345 224/224
f 224/224 345/345 346/346
f 224/224 346/346 225/225
f 225/225 346/346 347/347
f 225/225 347/347 226/226
f 226/226 347/347 348/348
f 226/226 348/348 227/227
f 227/227 348/348 349/349
f 227/227 349/349 228/228
f 228/228 349/349 350/350
f 228/228 350/350 229/229
f 229/229 350/350 351/351
f 229/229 351/351 230/230
f 230/230 351/351 352/352
f 230/230 352/352 231/231
f 231/231 352/352 353/353
f 231/231 353/353 232/232
f 232/232 353/353 354/354
f 232/232 354/354 233/233
f 233/233 354/354 355/355
f 233/233 355/355 234/234
f 234/234 355/355 356/356
f 234/234 356/356 235/235
f 235/235 356/356 357/357
f 235/235 357/357 236/236
f 236/236 357/357 358/358
f 236/236 358/358 237/237
f 237/237 358/358 359/359
f 237/237 359/359 238/238
f 238/238 359/359 360/360
f 238/238 360/360 239/239
f 239/239 360/360 361/361
f 239/239 361/361 240/240
f 240/240 361/361 362/362
f 240/240 362/362 241/241
f 241/241 362/362 363/363
f 241/241 363/363 242/242
f 243/243 364/364 365/365
f 243/243 365/365 244/244
f 244/244 365/365 366/366
f 244/244 366/366 245/245
f 245/245 366/366 367/367
f 245/245 367/367 246/246
f 246/246 367/367 368/368
f 246/246 368/368 247/247
f 247/247 368/368 369/369
f 247/247 369/369 248/248
f 248/248 369/369 370/370
f 248/248 370/370 249/249
f 249/249 370/370 371/371
f 249/249 371/371 250/250
f 250/250 371/371 372/372
f 250/250 372/372 251/251
f 251/251 372/372 373/373
f 251/251 373/373 252/252
f 252/252 373/373 374/374
f 252/252 374/374 253/253
f 253/253 374/374 375/375
f 253/253 375/375 254/254
f 254/254 375/375 376/376
f 254/254 376/376 255/255
f 255/255 376/376 377/377
f 255/255 377/377 256/256
f 256/256 377/377 378/378
f 256/256 378/378 257/257
f 257/257 378/378 379/379
f 257/257 379/379 258/258
f 258/258 379/379 380/380
f 258/258 380/380 259/259
f 259/259 380/380 381/381
f 259/259 381/381 260/260
f 260/260 381/381 382/382
f 260/260 382/382 261/261
f 261/261 382/382 383/383
f 261/261 383/383 262/262
f 262/262 383/383 384/384
f 262/262 384/384 263/263
f 263/263 384/384 385/385
f 263/263 385/385 264/264
f 264/264 385/385 386/386
f 264/264 386/386 265/265
f 265/265 386/386 387/387
f 265/265 387/387 266/266
f 266/266 387/387 388/388
f 266/266 388/388 267/267
f 267/267 388/388 389/389
f 267/267 389/389 268/268
f 268/268 389/389 390/390
f 268/268 390/390 269/269
f 269/269 390/390 391/391
f 269/269 391/391 270/270
f 270/270 391/391 392/392
f 270/270 392/392 271/271
f 271/271 392/392 393/393
f 271/271 393/393 272/272
f 272/272 393/393 394/394
f 272/272 394/394 273/273
f 273/273 394/394 395/395
f 273/273 395/395 274/274
f 274/274 395/395 396/396
f 274/274 396/396 275/275
f 275/275 396/396 397/397
f 275/275 397/397 276/276
f 276/276 397/397 398/398
f 276/276 398/398 277/277
f 277/277 398/398 399/399
f 277/277 399/399 278/278
f 278/278 399/399 400/400
f 278/278 400/400 279/279
f 279/279 400/400 401/401
f 279/279 401/401 280/280
f 280/280 401/401 402/402
f 280/280 402/402 281/281
f 281/281 402/402 403/403
f 281/281 403/403 282/282
f 282/282 403/403 404/404
f 282/282 404/404 283/283
f 283/283 404/404 405/405
f 283/283 405/405 284/284
f 284/284 405/405 406/406
f 284/284 406/406 285/285
f 285/285 406/406 407/407
f 285/285 407/407 286/286
f 286/286 407/407 408/408
f 286/286 408/408 287/287
f 287/287 408/408 409/409
f 287/287 409/409 288/288
f 288/288 409/409 410/410
f 288/288 410/410 289/289
f 289/289 410/410 411/411
f 289/289 411/411 290/290
f 290/290 411/411 412/412
f 290/290 412/412 291/291
f 291/291 412/412 413/413
f 291/291 413/413 292/292
f 292/292 413/413 414/414
f 292/292 414/414 293/293
f 293/293 414/414 415/415
f 293/293 415/415 294/294
f 294/294 415/415 416/416
f 294/294 416/416 295/295
f 295/295 416/416 417/417
f 295/295 417/417 296/296
f 296/296 417/417 418/418
f 296/296 418/418 297/297
f 297/297 418/418 419/419
f 297/297 419/419 298/298
f 298/298 419/419 420/420
f 298/298 420/420 299/299
f 299/299 420/420 421/421
f 299/299 421/421 300/300
f 300/300 421/421 422/422
f 300/300 422/422 301/301
f 301/301 422/422 423/423
f 301/301 423/423 302/302
f 302/302 423/423 424/424
f 302/302 424/424 303/303
f 303/303 424/424 425/425
f 303/303 425/425 304/304
f 304/304 425/425 426/426
f 304/304 426/426 305/305
f 305/305 426/426 427/427
f 305/305 427/427 306/306
f 306/306 427/427 428/428
f 306/306 428/428 307/307
f 307/307 428/428 429/429
f 307/307 429/429 308/308
f 308/308 429/429 430/430
f 308/308 430/430 309/309
f 309/309 430/430 431/431
f 309/309 431/431 310/310
f 310/310 431/431 432/432
f 310/310 432/432 311/311
f 311/311 432/432 433/433
f 311/311 433/433 312/312
f 312/312 433/433 434/434
f 312/312 434/434 313/313
f 313/313 434/434 435/435
f 313/313 435/435 314/314
f 314/314 435/435 436/436
f 314/314 436/436 315/315
f 315/315 436/436 437/437
f 315/315 437/437 316/316
f 316/316 437/437 438/438
f 316/316 438/438 317/317
f 317/317 438/438 439/439
f 317/317 439/439 318/318
f 318/318 439/439 440/440
f 318/318 440/440 319/319
f 319/319 440/440 441/441
f 319/319 441/441 320/320
f 320/320 441/441 442/442
f 320/320 442/442 321/321
f 321/321 442/442 443/443
f 321/321 443/443 322/322
f 322/322 443/443 444/444
f 322/322 444/444 323/323
f 323/323 444/444 445/445
f 323/323 445/445 324/324
f 324/324 445/445 446/446
f 324/324 446/446 325/325
f 325/325 446/446 447/447
f 325/325 447/447 326/326
f 326/326 447/447 448/448
f 326/326 448/448 327/327
f 327/327 448/448 449/449
f 327/327 449/449 328/328
f 328/328 449/449 450/450
f 328/328 450/450 329/329
f 329/329 450/450 451/451
f 329/329 451/451 330/330
f 330/330 451/451 452/452
f 330/330 452/452 331/331
f 331/331 452/452 453/453
f 331/331 453/453 332/332
f 332/332 453/453 454/454
f 332/332 454/454 333/333
f 333/333 454/454 455/455
f 333/333 455/455 334/334
f 334/334 455/455 456/456
f 334/334 456/456 335/335
f 335/335 456/456 457/457
f 335/335 457/457 336/336
f 336/336 457/457 458/458
f 336/336 458/458 337/337
f 337/337 458/458 459/459
f 337/337 459/459 338/338
f 338/338 459/459 460/460
f 338/338 460/460 339/339
f 339/339 460/460 461/461
f 339/339 461/461 340/340
f 340/340 461/461 462/462
f 340/340 462/462 341/341
f 341/341 462/462 463/463
f 341/341 463/463 342/342
f 342/342 463/463 464/464
f 342/342 464/464 343/343
f 343/343 464/464 465/465
f 343/343 465/465 344/344
f 344/344 465/465 466/466
f 344/344 466/466 345/345
f 345/345 466/466 467/467
f 345/345 467/467 346/346
f 346/346 467/467 468/468
f 346/346 468/468 347/347
f 347/347 468/468 469/469
f 347/347 469/469 348/348
f 348/348 469/469 470/470
f 348/348 470/470 349/349
f 349/349 470/470 471/471
f 349/349 471/471 350/350
f 350/350 471/471 472/472
f 350/350 472/472 351/351
f 351/351 472/472 473/473
f 351/351 473/473 352/352
f 352/352 473/473 474/474
f 352/352 474/474 353/353
f 353/353 474/474 475/475
f 353/353 475/475 354/354
f 354/354 475/475 476/476
f 354/354 476/476 355/355
f 355/355 476/476 477/477
f 355/355 477/477 356/356
f 356/356 477/477 478/478
f 356/356 478/478 357/357
f 357/357 478/478 479/479
f 357/357 479/479 358/358
f 358/358 479/479 480/480
f 358/358 480/480 359/359
f 359/359 480/480 481/481
f 359/359 481/481 360/360
f 360/360 481/481 482/482
f 360/360 482/482 361/361
f 361/361 482/482 483/483
f 361/361 483/483 362/362
f 362/362 483/483 484/484
f 362/362 484/484 363/363
f 364/364 485/485 486/486
f 364/364 486/486 365/365
f 365/365 486/486 487/487
f 365/365 487/487 366/366
f 366/366 487/487 488/488
f 366/366 488/488 367/367
f 367/367 488/488 489/489
f 367/367 489/489 368/368
f 368/368 489/489 490/490
f 368/368 490/490 369/369
f 369/369 490/490 491/491
f 369/369 491/491 370/370
f 370/370 491/491 492/492
f 370/370 492/492 371/371
f 371/371 492/492 493/493
f 371/371 493/493 372/372
f 372/372 493/493 494/494
f 372/372 494/494 373/373
f 373/373 494/494 495/495
f 373/373 495/495 374/374
f 374/374 495/495 496/496
f 374/374 496/496 375/375
f 375/375 496/496 497/497
f 375/375 497/497 376/376
f 376/376 497/497 498/498
f 376/376 498/498 377/377
f 377/377 498/498 499/499
f 377/377 499/499 378/378
f 378/378 499/499 500/500
f 378/378 500/500 379/379
f 379/379 500/500 501/501
f 379/379 501/501 380/380
f 380/380 501/501 502/502
f 380/380 502/502 381/381
f 381/381 502/502 503/503
f 381/381 503/503 382/382
f 382/382 503/503 504/504
f 382/382 504/504 383/383
f 383/383 504/504 505/505
f 383/383 505/505 384/384
f 384/384 505/505 506/506
f 384/384 506/506 385/385
f 385/385 506/506 507/507
f 385/385 507/507 386/386
f 386/386 507/507 508/508
f 386/386 508/508 387/387
f 387/387 508/508 509/509
f 387/387 509/509 388/388
f 388/388 509/509 510/510
f 388/388 510/510 389/389
f 389/389 510/510 511/511
f 389/389 511/511 390/390
f 390/390 511/511 512/512
f 390/390 512/512 391/391
f 391/391 512/512 513/513
f 391/391 513/513 392/392
f 392/392 513/513 514/514
f 392/392 514/514 393/393
f 393/393 514/514 515/515
f 393/393 515/515 394/394
f 394/394 515/515 516/516
f 394/394 516/516 395/395
f 395/395 516/516 517/517
f 395/395 517/517 396/396
f 396/396 517/517 518/518
f 396/396 518/518 397/397
f 397/397 518/518 519/519
f 397/397 519/519 398/398
f 398/398 519/519 520/520
f 398/398 520/520 399/399
f 399/399 520/520 521/521
f 399/399 521/521 400/400
f 400/400 521/521 522/522
f 400/400 522/522 401/401
f 401/401 522/522 523/523
f 401/401 523/523 402/402
f 402/402 523/523 524/524
f 402/402 524/524 403/403
f 403/403 524/524 525/525
f 403/403 525/525 404/404
f 404/404 525/525 526/526
f 404/404 526/526 405/405
f 405/405 526/526 527/527
f 405/405 527/527 406/406
f 406/406 527/527 528/528
f 406/406 528/528 407/407
f 407/407 528/528 529/529
f 407/407 529/529 408/408
f 408/408 529/529 530/530
f 408/408 530/530 409/409
f 409/409 530/530 531/531
f 409/409 531/531 410/410
f 410/410 531/531 532/532
f 410/410 532/532 411/411
f 411/411 532/532 533/533
f 411/411 533/533 412/412
f 412/412 533/533 534/534
f 412/412 534/534 413/413
f 413/413 534/534 535/535
f 413/413 535/535 414/414
f 414/414 535/535 536/536
f 414/414 536/536 415/415
f 415/415 536/536 537/537
f 415/415 537/537 416/416
f 416/416 537/537 538/538
f 416/416 538/538 417/417
f 417/417 538/538 539/539
f 417/417 539/539 418/418
f 418/418 539/539 540/540
f 418/418 540/540 419/419
f 419/419 540/540 541/541
f 419/419 541/541 420/420
f 420/420 541/541 542/542
f 420/420 542/542 421/421
f 421/421 542/542 543/543
f 421/421 543/543 422/422
f 422/422 543/543 544/544
f 422/422 544/544 423/423
f 423/423 544/544 545/545
f 423/423 545/545 424/424
f 424/424 545/545 546/546
f 424/424 546/546 425/425
f 425/425 546/546 547/547
f 425/425 547/547 426/426
f 426/426 547/547 548/548
f 426/426 548/548 427/427
f 427/427 548/548 549/549
f 427/427 549/549 428/428
f 428/428 549/549 550/550
f 428/428 550/550 429/429
f 429/429 550/550 551/551
f 429/429 551/551 430/430
f 430/430 551/551 552/552
f 430/430 552/552 431/431
f 431/431 552/552 553/553
f 431/431 553/553 432/432
f 432/432 553/553 554/554
f 432/432 554/554 433/433
f 433/433 554/554 555/555
f 433/433 555/555 434/434
f 434/434 555/555 556/556
f 434/434 556/556 435/435
f 435/435 556/556 557/557
f 435/435 557/557 436/436
f 436/436 557/557 558/558
f 436/436 558/558 437/437
f 437/437 558/558 559/559
f 437/437 559/559 438/438
f 438/438 559/559 560/560
f 438/438 560/560 439/439
f 439/439 560/560 561/561
f 439/439 561/561 440/440
f 440/440 561/561 562/562
f 440/440 562/562 441/441
f 441/441 562/562 563/563
f 441/441 563/563 442/442
f 442/442 563/563 564/564
f 442/442 564/564 443/443
f 443/443 564/564 565/565
f 443/443 565/565 444/444
f 444/444 565/565 566/566
f 444/444 566/566 445/445
f 445/445 566/566 567/567
f 445/445 567/567 446/446
f 446/446 567/567 568/568
f 446/446 568/568 447/447
f 447/447 568/568 569/569
f 447/447 569/569 448/448
f 448/448 569/569 570/570
f 448/448 570/570 449/449
f 449/449 570/570 571/571
f 449/449 571/571 450/450
f 450/450 571/571 572/572
f 450/450 572/572 451/451
f 451/451 572/572 573/573
f 451/451 573/573 452/452
f 452/452 573/573 574/574
f 452/452 574/574 453/453
f 453/453 574/574 575/575
f 453/453 575/575 454/454
f 454/454 575/575 576/576
f 454/454 576/576 455/455
f 455/455 576/576 577/577
f 455/455 577/577 456/456
f 456/456 577/577 578/578
f 456/456 578/578 457/457
f 457/457 578/578 579/579
f 457/457 579/579 458/458
f 458/458 579/579 580/580
f 458/458 580/580 459/459
f 459/459 580/580 581/581
f 459/459 581/581 460/460
f 460/460 581/581 582/582
f 460/460 582/582 461/461
f 461/461 582/582 583/583
f 461/461 583/583 462/462
f 462/462 583/583 584/584
f 462/462 584/584 463/463
f 463/463 584/584 585/585
f 463/463 585/585 464/464
f 464/464 585/585 586/586
f 464/464 586/586 465/465
f 465/465 586/586 587/587
f 465/465 587/587 466/466
f 466/466 587/587 588/588
f 466/466 588/588 467/467
f 467/467 588/588 589/589
f 467/467 589/589 468/468
f 468/468 589/589 590/590
f 468/468 590/590 469/469
f 469/469 590/590 591/591
f 469/469 591/591 470/470
f 470/470 591/591 592/592
f 470/470 592/592 471/471
f 471/471 592/592 593/593
f 471/471 593/593 472/472
f 472/472 593/593 594/594
f 472/472 594/594 473/473
f 473/473 594/594 595/595
f 473/473 595/595 474/474
f 474/474 595/595 596/596
f 474/474 596/596 475/475
f 475/475 596/596 597/597
f 475/475 597/597 476/476
f 476/476 597/597 598/598
f 476/476 598/598 477/477
f 477/477 598/598 599/599
f 477/477 599/599 478/478
f 478/478 599/599 600/600
f 478/478 600/600 479/479
f 479/479 600/600 601/601
f 479/479 601/601 480/480
f 480/480 601/601 602/602
f 480/480 602/602 481/481
f 481/481 602/602 603/603
f 481/481 603/603 482/482
f 482/482 603/603 604/604
f 482/482 604/604 483/483
f 483/483 604/604 605/605
f 483/483 605/605 484/484
f 485/485 606/606 607/607
f 485/485 607/607 486/486
f 486/486 607/607 608/608
f 486/486 608/608 487/487
f 487/487 608/608 609/609
f 487/487 609/609 488/488
f 488/488 609/609 610/610
f 488/488 610/610 489/489
f 489/489 610/610 611/611
f 489/489 611/611 490/490
f 490/490 611/611 612/612
f 490/490 612/612 491/491
f 491/491 612/612 613/613
f 491/491 613/613 492/492
f 492/492 613/613 614/614
f 492/492 614/614 493/493
f 493/493 614/614 615/615
f 493/493 615/615 494/494
f 494/494 615/615 616/616
f 494/494 616/616 495/495
f 495/495 616/616 617/617
f 495/495 617/617 496/496
f 496/496 617/617 618/618
f 496/496 618/618 497/497
f 497/497 618/618 619/619
f 497/497 619/619 498/498
f 498/498 619/619 620/620
f 498/498 620/620 499/499
f 499/499 620/620 621/621
f 499/499 621/621 500/500
f 500/500 621/621 622/622
f 500/500 622/622 501/501
f 501/501 622/622 623/623
f 501/501 623/623 502/502
f 502/502 623/623 624/624
f 502/502 624/624 503/503
f 503/503 624/624 625/625
f 503/503 625/625 504/504
f 504/504 625/625 626/626
f 504/504 626/626 505/505
f 505/505 626/626 627/627
f 505/505 627/627 506/506
f 506/506 627/627 628/628
f 506/506 628/628 507/507
f 507/507 628/628 629/629
f 507/507 629/629 508/508
f 508/508 629/629 630/630
f 508/508 630/630 509/509
f 509/509 630/630 631/631
f 509/509 631/631 510/510
f 510/510 631/631 632/632
f 510/510 632/632 511/511
f 511/511 632/632 633/633
f 511/511 633/633 512/512
f 512/512 633/633 634/634
f 512/512 634/634 513/513
f 513/513 634/634 635/635
f 513/513 635/635 514/514
f 514/514 635/635 636/636
f 514/514 636/636 515/515
f 515/515 636/636 637/637
f 515/515 637/637 516/516
f 516/516 637/637 638/638
f 516/516 638/638 517/517
f 517/517 638/638 639/639
f 517/517 639/639 518/518
f 518/518 639/639 640/640
f 518/518 640/640 519/519
f 519/519 640/640 641/641
f 519/519 641/641 520/520
f 520/520 641/641 642/642
f 520/520 642/642 521/521
f 521/521 642/642 643/643
f 521/521 643/643 522/522
f 522/522 643/643 644/644
f 522/522 644/644 523/523
f 523/523 644/644 645/645
f 523/523 645/645 524/524
f 524/524 645/645 646/646
f 524/524 646/646 525/525
f 525/525 646/646 647/647
f 525/525 647/647 526/526
f 526/526 647/647 648/648
f 526/526 648/648 527/527
f 527/527 648/648 649/649
f 527/527 649/649 528/528
f 528/528 649/649 650/650
f 528/528 650/650 529/529
f 529/529 650/650 651/651
f 529/529 651/651 530/530
f 530/530 651/651 652/652
f 530/530 652/652 531/531
f 531/531 652/652 653/653
f 531/531 653/653 532/532
f 532/532 653/653 654/654
f 532/532 654/654 533/533
f 533/533 654/654 655/655
f 533/533 655/655 534/534
f 534/534 655/655 656/656
f 534/534 656/656 535/535
f 535/535 656/656 657/657
f 535/535 657/657 536/536
f 536/536 657/657 658/658
f 536/536 658/658 537/537
f 537/537 658/658 659/659
f 537/537 659/659 538/538
f 538/538 659/659 660/660
f 538/538 660/660 539/539
f 539/539 660/660 661/661
f 539/539 661/661 540/540
f 540/540 661/661 662/662
f 540/540 662/662 541/541
f 541/541 662/662 663/663
f 541/541 663/663 542/542
f 542/542 663/663 664/664
f 542/542 664/664 543/543
f 543/543 664/664 665/665
f 543/543 665/665 544/544
f 544/544 665/665 666/666
f 544/544 666/666 545/545
f 545/545 666/666 667/667
f 545/545 667/667 546/546
f 546/546 667/667 668/668
f 546/546 668/668 547/547
f 547/547 668/668 669/669
f 547/547 669/669 548/548
f 548/548 669/669 670/670
f 548/548 670/670 549/549
f 549/549 670/670 671/671
f 549/549 671/671 550/550
f 550/550 671/671 672/672
f 550/550 672/672 551/551
f 551/551 672/672 673/673
f 551/551 673/673 552/552
f 552/552 673/673 674/674
f 552/552 674/674 553/553
f 553/553 674/674 675/675
f 553/553 675/675 554/554
f 554/554 675/675 676/676
f 554/554 676/676 555/555
f 555/555 676/676 677/677
f 555/555 677/677 556/556
f 556/556 677/677 678/678
f 556/556 678/678 557/557
f 557/557 678/678 679/679
f 557/557 679/679 558/558
f 558/558 679/679 680/680
f 558/558 680/680 559/559
f 559/559 680/680 681/681
f 559/559 681/681 560/560
f 560/560 681/681 682/682
f 560/560 682/682 561/561
f 561/561 682/682 683/683
f 561/561 683/683 562/562
f 562/562 683/683 684/684
f 562/562 684/684 563/563
f 563/563 684/684 685/685
f 563/563 685/685 564/564
f 564/564 685/685 686/686
f 564/564 686/686 565/565
f 565/565 686/686 687/687
f 565/565 687/687 566/566
f 566/566 687/687 688/688
f 566/566 688/688 567/567
f 567/567 688/688 689/689
f 567/567 689/689 568/568
f 568/568 689/689 690/690
f 568/568 690/690 569/569
f 569/569 690/690 691/691
f 569/569 691/691 570/570
f 570/570 691/691 692/692
f 570/570 692/692 571/571
f 571/571 692/692 693/693
f 571/571 693/693 572/572
f 572/572 693/693 694/694
f 572/572 694/694 573/573
f 573/573 694/694 695/695
f 573/573 695/695 574/574
f 574/574 695/695 696/696
f 574/574 696/696 575/575
f 575/575 696/696 697/697
f 575/575 697/697 576/576
f 576/576 697/697 698/698
f 576/576 698/698 577/577
f 577/577 698/698 699/699
f 577/577 699/699 578/578
f 578/578 699/699 700/700
f 578/578 700/700 579/579
f 579/579 700/700 701/701
f 579/579 701/701 580/580
f 580/580 701/701 702/702
f 580/580 702/702 581/581
f 581/581 702/702 703/703
f 581/581 703/703 582/582
f 582/582 703/703 704/704
f 582/582 704/704 583/583
f 583/583 704/704 705/705
f 583/583 705/705 584/584
f 584/584 705/705 706/706
f 584/584 706/706 585/585
f 585/585 706/706 707/707
f 585/585 707/707 586/586
f 586/586 707/707 708/708
f 586/586 708/708 587/587
f 587/587 708/708 709/709
f 587/587 709/709 588/588
f 588/588 709/709 710/710
f 588/588 710/710 589/589
f 589/589 710/710 711/711
f 589/589 711/711 590/590
f 590/590 711/711 712/712
f 590/590 712/712 591/591
f 591/591 712/712 713/713
f 591/591 713/713 592/592
f 592/592 713/713 714/714
f 592/592 714/714 593/593
f 593/593 714/714 715/715
f 593/593 715/715 594/594
f 594/594 715/715 716/716
f 594/594 716/716 595/595
f 595/595 716/716 717/717
f 595/595 717/717 596/596
f 596/596 717/717 718/718
f 596/596 718/718 597/597
f 597/597 718/718 719/719
f 597/597 719/719 598/598
f 598/598 719/719 720/720
f 598/598 720/720 599/599
f 599/599 720/720 721/721
f 599/599 721/721 600/600
f 600/600 721/721 722/722
f 600/600 722/722 601/601
f 601/601 722/722 723/723
f 601/601 723/723 602/602
f 602/602 723/723 724/724
f 602/602 724/724 603/603
f 603/603 724/724 725/725
f 603/603 725/725 604/604
f 604/604 725/725 726/726
f 604/604 726/726 605/605
