# Basketbroom original 3D environment. Centimetres, Z up.
o SM_BB_ENV_RR_AlcoveBed2
s 1
v 41383.52813 707.01839 3957.67196
v 41496.71975 1322.29359 3959.92850
v 41739.15724 1933.39810 3959.01528
v 42103.16378 2547.22175 3954.95039
v 42498.51370 3170.48857 3947.81440
v 42782.32265 3804.00052 3937.74874
v 42809.34163 4440.04671 3924.95291
v 42485.10162 5064.34768 3909.68053
v 41803.21143 5661.81614 3892.23430
v 40853.53686 6223.62195 3872.95999
v 39798.07914 6752.32869 3852.23961
v 38822.57385 7262.55376 3830.48386
v 38080.21441 7776.44121 3808.12392
v 37646.53885 8315.47762 3785.60296
v 37500.51870 8891.88815 3763.36735
v 37537.70434 9503.26912 3741.85780
v 37610.17668 10133.00215 3721.50062
v 37578.93333 10756.73249 3702.69929
v 37360.36331 11352.65531 3685.82644
v 36950.94941 11911.57316 3671.21651
v 36422.30530 12442.44445 3659.15906
v 35889.21561 12970.63792 3649.89305
v 35462.74873 13528.85128 3643.60216
v 35205.47686 14143.62539 3640.41105
v 35104.71672 14822.41968 3640.38298
v 35073.02223 15546.44112 3643.51850
v 34975.39457 16272.63015 3649.75547
v 34673.32883 16944.96618 3658.97028
v 34070.16421 17511.72211 3670.98027
v 33142.13235 17942.80703 3685.54743
v 31944.87506 18240.89883 3702.38302
v 30593.97733 18441.96419 3721.15338
v 29227.04733 18604.40600 3741.48646
v 27960.91039 18790.19367 3762.97928
v 26858.55700 19044.41035 3785.20585
v 25916.40967 19380.50257 3807.72563
v 25074.89644 19776.72961 3830.09229
v 24247.06264 20185.43120 3851.86253
v 23353.96944 20552.10703 3872.60486
v 22353.93211 20837.59991 3891.90816
v 21255.63869 21035.28671 3909.38986
v 20111.55764 21176.69886 3924.70345
v 18995.33464 21322.96379 3937.54544
v 17972.42016 21544.51791 3947.66129
v 17075.05240 21895.88963 3954.85051
v 16290.46094 22394.39054 3958.97061
v 15565.80883 23010.47997 3959.93992
v 14827.08514 23673.68133 3957.73925
v 14004.26892 24292.54912 3952.41219
v 13053.33052 24782.20289 3944.06434
v 11967.47990 25090.14591 3932.86115
v 10774.60561 25211.51426 3919.02467
v 9523.19966 25188.46173 3902.82912
v 8263.15456 25093.86422 3884.59552
v 7029.16447 25005.00703 3864.68524
v 5832.71774 24976.45723 3843.49290
v 4664.70530 25021.64558 3821.43854
v 3506.19084 25109.64329 3798.95927
v 2341.71788 25178.26817 3776.50063
v 1168.88977 25158.86996 3754.50774
v 0.00000 25003.97211 3733.41651
v -1144.73616 24707.87316 3713.64495
v -2248.93432 24312.72800 3695.58494
v -3311.05636 23897.69871 3679.59443
v -4349.19628 23554.70228 3665.99034
v -5396.82059 23358.99922 3655.04231
v -6490.64757 23344.70124 3646.96733
v -7655.47932 23493.58728 3641.92544
v -8892.48306 23741.00785 3640.01658
v -10176.35943 23996.75628 3641.27857
v -11463.36417 24173.66628 3645.68640
v -12707.62056 24214.14192 3653.15271
v -13879.42604 24105.70547 3663.52952
v -14977.92634 23880.61092 3676.61117
v -16032.30320 23600.18772 3692.13836
v -17089.95650 23329.86012 3709.80337
v -18195.44674 23113.88783 3729.25606
v -19368.10792 22958.74744 3750.11089
v -20587.49437 22830.82695 3771.95452
v -21793.48899 22668.94111 3794.35400
v -22902.66196 22406.94764 3816.86539
v -23836.20079 21998.29173 3839.04251
v -24549.81856 21433.80106 3860.44581
v -25054.48410 20746.60208 3880.65108
v -25419.41823 20002.65710 3899.25786
v -25754.82321 19280.44993 3915.89735
v -26179.16940 18646.99842 3930.23977
v -26781.85108 18138.40677 3942.00085
v -27594.32182 17751.31025 3950.94749
v -28580.38283 17447.56403 3956.90236
v -29649.80687 17169.87009 3959.74744
v -30691.15651 16862.38569 3959.42635
v -31612.49755 16488.95764 3955.94544
v -32375.40270 16042.87435 3949.37370
v -33009.55654 15545.35996 3939.84140
v -33601.90572 15034.16977 3927.53745
v -34263.39275 14547.07082 3912.70572
v -35084.63099 14106.51812 3895.64018
v -36096.36268 13711.01489 3876.67906
v -37249.43098 13335.89555 3856.19816
v -38422.51599 12942.69124 3834.60343
v -39456.21129 12493.17492 3812.32285
v -40202.54925 11962.72444 3789.79804
v -40573.23033 11348.23044 3767.47544
v -40569.76720 10668.07636 3745.79746
v -40284.67177 9954.77815 3725.19378
v -39872.71201 9243.50906 3706.07274
v -39501.69657 8560.98926 3688.81334
v -39299.51199 7918.70592 3673.75764
v -39315.60785 7312.45358 3661.20406
v -39510.20014 6727.59742 3651.40139
v -39774.81069 6147.30469 3644.54394
v -39976.75247 5560.08046 3640.76761
v -40011.69503 4963.57113 3640.14725
v -39845.52373 4363.42565 3642.69516
v -39530.41431 3768.22484 3648.36083
v -39189.10883 3183.16947 3657.03198
v -38972.61868 2605.67241 3668.53673
v -39006.03288 2025.06735 3682.64708
v -39341.42755 1426.74470 3699.08335
v -39934.52059 798.97648 3717.51978
v 39533.61848 824.41885 4517.67196
v 39456.60936 1421.16269 4519.92850
v 39474.24271 2009.36355 4519.01528
v 39621.74354 2593.55255 4514.95039
v 39848.70586 3180.64204 4507.81440
v 40037.42249 3773.80266 4497.74874
v 40046.59694 4368.62383 4484.95291
v 39765.03333 4953.52113 4469.68053
v 39156.28291 5514.37944 4452.23430
v 38278.30217 6041.43035 4432.95999
v 37270.86613 6535.21948 4412.23961
v 36314.71883 7008.73455 4390.48386
v 35576.27580 7484.28768 4368.12392
v 35156.67498 7985.96895 4345.60296
v 35062.38234 8530.49276 4323.36735
v 35206.99996 9120.17972 4301.85780
v 35443.09529 9741.20831 4281.50062
v 35612.59121 10368.29830 4262.69929
v 35598.11308 10974.39208 4245.82644
v 35357.76732 11541.71262 4231.21651
v 34931.99682 12069.72269 4219.15906
v 34421.15299 12576.42015 4209.89305
v 33942.66890 13091.82928 4203.60216
v 33583.61537 13645.61207 4200.41105
v 33365.62637 14253.24946 4200.38298
v 33234.39654 14906.19593 4203.51850
v 33077.00543 15570.31297 4209.75547
v 32760.45847 16194.03485 4218.97028
v 32177.54492 16724.10360 4230.98027
v 31283.89318 17123.67156 4245.54743
v 30113.59051 17386.30183 4262.38302
v 28768.53322 17540.48084 4281.15338
v 27385.90795 17642.41443 4301.48646
v 26095.58234 17759.03572 4322.97928
v 24982.17682 17946.81030 4345.20585
v 24064.31131 18233.70268 4367.72563
v 23296.98430 18610.82594 4390.09229
v 22594.73210 19037.03494 4411.86253
v 21866.14790 19455.14308 4432.60486
v 21046.95927 19814.17366 4451.90816
v 20120.19106 20089.67217 4469.38986
v 19117.26508 20294.54314 4484.70345
v 18101.09522 20476.06970 4497.54544
v 17138.63394 20699.65480 4507.66129
v 16273.64727 21024.66959 4514.85051
v 15509.70773 21480.85091 4518.97061
v 14809.01652 22053.79899 4519.93992
v 14106.50779 22685.16647 4517.73925
v 13333.11764 23288.08366 4512.41219
v 12439.14498 23772.99031 4504.06434
v 11409.23172 24075.25380 4492.86115
v 10264.20728 24175.13413 4479.02467
v 9050.28575 24103.15483 4462.82912
v 7820.79025 23928.92388 4444.59552
v 6617.95074 23737.19066 4424.68524
v 5461.60672 23599.39733 4403.49290
v 4348.31184 23550.59010 4381.43854
v 3259.85563 23579.70039 4358.95927
v 2176.44645 23636.51814 4336.50063
v 1088.23043 23652.79694 4314.50774
v 0.00000 23569.92884 4293.41651
v -1072.72495 23363.27821 4273.64495
v -2114.04588 23054.40856 4255.58494
v -3119.29137 22706.68147 4239.59443
v -4102.03920 22405.55790 4225.99034
v -5092.64945 22230.32921 4215.04231
v -6128.13795 22227.04488 4206.96733
v -7237.17984 22392.02021 4201.92544
v -8426.51570 22671.64283 4200.01658
v -9674.91195 22978.55114 4201.27857
v -10938.03441 23218.61969 4205.68640
v -12163.17831 23319.52956 4213.15271
v -13308.53065 23251.28602 4223.52952
v -14359.31662 23031.97904 4236.61117
v -15333.88210 22717.29531 4252.13836
v -16276.38966 22377.92609 4269.80337
v -17238.05853 22073.09614 4289.25606
v -18253.72972 21829.56468 4310.11089
v -19323.00388 21633.28465 4331.95452
v -20404.13416 21436.27845 4354.35400
v -21424.45083 21175.87550 4376.86539
v -22304.86617 20799.17878 4399.04251
v -22990.27832 20283.95925 4420.44581
v -23474.72167 19648.64182 4440.65108
v -23811.21902 18948.04629 4459.25786
v -24101.30322 18256.60768 4475.89735
v -24466.41491 17645.11222 4490.23977
v -25010.23979 17159.05568 4502.00085
v -25784.92387 16805.90351 4510.94749
v -26773.39767 16555.19650 4516.90236
v -27894.78874 16350.86398 4519.74744
v -29031.84265 16130.93903 4519.42635
v -30071.25815 15847.56680 4515.94544
v -30942.82559 15480.49069 4509.37370
v -31643.19948 15039.87032 4499.84140
v -32235.24462 14558.27182 4487.53745
v -32822.48850 14075.49107 4472.70572
v -33507.27485 13622.17074 4455.64018
v -34347.45686 13208.20557 4436.67906
v -35327.53236 12819.80953 4416.19816
v -36355.45882 12425.72634 4394.60343
v -37287.50876 11989.70612 4372.32285
v -37973.52099 11484.26830 4349.79804
v -38307.34239 10900.62352 4327.47544
v -38264.91740 10251.37490 4305.79746
v -37916.33333 9565.50299 4285.19378
v -37406.93182 8878.01614 4266.07274
v -36913.31386 8218.44260 4248.81334
v -36588.92248 7602.44086 4233.75764
v -36517.70673 7029.27889 4221.20406
v -36691.72773 6485.46653 4211.40139
v -37020.31643 5952.43091 4204.54394
v -37367.39556 5414.73653 4200.76761
v -37603.69954 4865.45968 4200.14725
v -37655.37114 4306.80551 4202.69516
v -37531.66928 3746.23577 4208.36083
v -37321.88052 3190.32426 4217.03198
v -37162.41177 2639.47093 4228.53673
v -37185.61800 2086.12423 4242.64708
v -37468.44870 1517.51416 4259.08335
v -37999.16749 921.79942 4277.51978
v 38486.47037 890.87381 5077.67196
v 38227.38814 1480.73397 5079.92850
v 38024.36265 2057.99266 5079.01528
v 37953.84764 2624.69397 5074.95039
v 38007.65485 3187.69653 5067.81440
v 38098.81520 3752.47519 5057.74874
v 38096.54632 4318.21083 5044.95291
v 37877.83963 4876.62925 5029.68053
v 37377.26963 5415.28653 5012.23430
v 36617.20044 5923.91143 4992.95999
v 35707.41804 6400.90591 4972.23961
v 34813.92762 6856.83995 4950.48386
v 34107.44790 7312.90837 4928.12392
v 33709.21351 7794.41185 4905.60296
v 33652.59645 8321.52573 4883.36735
v 33873.50391 8900.99784 4861.85780
v 34232.49766 9522.34034 4841.50062
v 34560.65870 10160.49797 4822.69929
v 34713.21629 10784.45088 4805.82644
v 34612.62869 11368.72714 4791.21651
v 34266.86940 11903.37629 4779.15906
v 33757.60167 12398.23720 4769.89305
v 33203.50004 12879.31870 4763.60216
v 32712.46351 13378.11374 4760.41105
v 32339.93441 13917.56057 4760.38298
v 32067.89041 14499.99583 4763.51850
v 31811.39363 15102.09447 4769.75547
v 31449.68900 15679.46895 4778.97028
v 30870.28080 16180.08218 4790.98027
v 30010.15818 16562.19296 4805.54743
v 28879.76276 16810.51721 4822.38302
v 27561.72340 16944.50589 4841.15338
v 26185.40518 17015.15418 4861.48646
v 24886.67028 17090.74614 4882.97928
v 23767.01284 17235.99271 4905.20585
v 22865.86270 17491.63586 4927.72563
v 22154.68482 17861.73878 4950.09229
v 21553.55335 18313.39899 4971.86253
v 20963.08029 18789.31552 4992.60486
v 20299.68218 19229.01767 5011.90816
v 19521.77102 19591.30071 5029.38986
v 18638.47234 19869.74890 5044.70345
v 17699.23646 20095.48727 5057.54544
v 16769.64263 20325.76143 5067.66129
v 15903.29060 20622.04906 5074.85051
v 15120.39654 21025.32771 5078.97061
v 14400.52116 21537.40930 5079.93992
v 13691.15311 22115.36745 5077.73925
v 12927.90040 22681.62319 5072.41219
v 12058.03217 23146.75634 5064.06434
v 11058.44061 23437.51749 5052.86115
v 9941.80666 23520.48939 5039.02467
v 8749.62531 23413.15852 5022.82912
v 7535.79328 23178.40113 5004.59552
v 6347.74051 22904.10332 4984.68524
v 5212.43698 22674.81777 4963.49290
v 4132.06691 22545.17023 4941.43854
v 3089.90202 22524.14959 4918.95927
v 2062.72146 22575.62385 4896.50063
v 1033.70721 22634.73808 4874.50774
v 0.00000 22634.26857 4853.41651
v -1028.17828 22531.50178 4833.64495
v -2035.96480 22326.02182 4815.58494
v -3015.49140 22061.99881 4799.59443
v -3974.81678 21814.04363 4785.99034
v -4939.35330 21661.50218 4775.04231
v -5944.26884 21660.15657 4766.96733
v -7020.43731 21821.24154 4761.92544
v -8179.67032 22105.14862 4760.01658
v -9405.78639 22432.08311 4761.27857
v -10656.09973 22706.06399 4765.68640
v -11873.82942 22844.07951 4773.15271
v -13007.34405 22800.52098 4783.52952
v -14028.95404 22578.77534 4796.61117
v -14945.55874 22226.40558 4812.13836
v -15796.19033 21816.05696 4829.80337
v -16636.45548 21419.08406 4849.25606
v -17515.19136 21081.21480 4870.11089
v -18452.20790 20808.59279 4891.95452
v -19426.24770 20568.67854 4914.35400
v -20378.94103 20305.16228 4936.86539
v -21234.65637 19961.15004 4959.04251
v -21929.88649 19502.13725 4980.44581
v -22441.57860 18930.59080 5000.65108
v -22803.37610 18287.13187 5019.25786
v -23102.48942 17638.15264 5035.89735
v -23456.67316 17054.45761 5050.23977
v -23978.16799 16588.52383 5062.00085
v -24736.72466 16258.22156 5070.94749
v -25734.88383 16042.33340 5076.90236
v -26904.93650 15888.93426 5079.74744
v -28129.59762 15733.21794 5079.42635
v -29279.95640 15518.26449 5075.94544
v -30257.79015 15211.56782 5069.37370
v -31027.30050 14812.01586 5059.84140
v -31624.66037 14345.65452 5047.53745
v -32141.42416 13852.59205 5032.70572
v -32687.20592 13370.35808 5015.64018
v -33344.72308 12919.92024 4996.67906
v -34133.48797 12499.17367 4976.19816
v -34995.81499 12085.68343 4954.60343
v -35811.17375 11646.97187 4932.32285
v -36434.87586 11154.00142 4909.79804
v -36748.19137 10592.62647 4887.47544
v -36702.47672 9968.89606 4865.79746
v -36341.48685 9306.65121 4845.19378
v -35793.30895 8638.83515 4826.07274
v -35233.82207 7996.17860 4808.81334
v -34833.58975 7397.63285 4793.75764
v -34706.06981 6845.92369 4781.20406
v -34874.79634 6329.37659 4771.40139
v -35270.75143 5828.65343 4764.54394
v -35760.70665 5325.24227 4760.76761
v -36196.52766 4808.12582 4760.14725
v -36468.10782 4276.11220 4762.69516
v -36541.33880 3735.34071 4768.36083
v -36467.81166 3193.59687 4777.03198
v -36362.92822 2654.39815 4788.53673
v -36360.27640 2113.80627 4802.64708
v -36558.53943 1561.61075 4819.08335
v -36979.89426 986.48537 4837.51978
v 37899.49195 928.12511 5637.67196
v 37477.66373 1517.06758 5639.92850
v 37071.64672 2089.94684 5639.01528
v 36795.16815 2646.32777 5634.95039
v 36682.33241 3192.77487 5627.81440
v 36680.74328 3736.87436 5617.74874
v 36676.01502 4281.48705 5604.95291
v 36538.72431 4822.06829 5589.68053
v 36176.94552 5348.42722 5572.23430
v 35575.55168 5850.21731 5552.95999
v 34808.13828 6323.65009 5532.23961
v 34017.07630 6776.19088 5510.48386
v 33368.41310 7226.67956 5488.12392
v 32997.16432 7700.17923 5465.60296
v 32961.88579 8219.14440 5443.36735
v 33224.14301 8794.26475 5421.85780
v 33659.80343 9418.80105 5401.50062
v 34098.05859 10069.11525 5382.69929
v 34374.61840 10711.77156 5365.82644
v 34380.89599 11314.92991 5351.21651
v 34092.76027 11859.83211 5339.15906
v 33569.85153 12347.82080 5329.89305
v 32926.83421 12799.77745 5323.60216
v 32287.61078 13247.65728 5320.41105
v 31739.08175 13720.91326 5320.38298
v 31300.65824 14232.83068 5323.51850
v 30919.69785 14772.20780 5329.75547
v 30493.60909 15304.14275 5338.97028
v 29909.95959 15780.44198 5350.98027
v 29089.83887 16156.50450 5365.54743
v 28019.01218 16408.83476 5382.38302
v 26756.14543 16546.67660 5401.15338
v 25415.73880 16613.00506 5421.48646
v 24132.31328 16673.73573 5442.97928
v 23018.69129 16798.25744 5465.20585
v 22132.77549 17037.71594 5487.72563
v 21463.68832 17408.60314 5510.09229
v 20940.94689 17887.62766 5531.86253
v 20462.20846 18420.02503 5552.60486
v 19928.95539 18938.71972 5571.90816
v 19277.38650 19387.77432 5589.38986
v 18494.29047 19741.82794 5604.70345
v 17613.65874 20014.44045 5617.54544
v 16696.91977 20252.07244 5627.66129
v 15805.31489 20515.53814 5634.85051
v 14975.13281 20855.35829 5638.97061
v 14204.67849 21289.83945 5639.93992
v 13456.88606 21793.99117 5637.73925
v 12675.41173 22303.74094 5632.41219
v 11807.17818 22734.56004 5624.06434
v 10822.42806 23008.44797 5612.86115
v 9724.91871 23080.09148 5599.02467
v 8549.14705 22953.07386 5582.82912
v 7346.64834 22680.29906 5564.59552
v 6167.43386 22348.19843 5544.68524
v 5044.03044 22049.92151 5523.49290
v 3983.96666 21856.58554 5501.43854
v 2972.72483 21796.38349 5478.95927
v 1984.79124 21848.64454 5456.50063
v 997.28890 21954.73460 5434.50774
v 0.00000 22041.80137 5413.41651
v -1002.43813 22050.88117 5393.64495
v -1996.66173 21959.37952 5375.58494
v -2971.68895 21789.94986 5359.59443
v -3929.34319 21602.61647 5345.99034
v -4888.53047 21472.91686 5335.04231
v -5880.57548 21463.78303 5326.96733
v -6936.84287 21601.10050 5321.92544
v -8073.54775 21861.60417 5320.01658
v -9280.38725 22177.45614 5321.27857
v -10518.56859 22456.03313 5325.68640
v -11730.26707 22608.18184 5333.15271
v -12856.87258 22575.32079 5343.52952
v -13859.46348 22346.26187 5356.61117
v -14733.45602 21958.28097 5372.13836
v -15511.08642 21482.46408 5389.80337
v -16249.79979 20998.74462 5409.25606
v -17010.13475 20569.44849 5430.11089
v -17831.15976 20220.42592 5451.95452
v -18713.08702 19935.94849 5474.35400
v -19614.55533 19668.57260 5496.86539
v -20466.83993 19359.91069 5519.04251
v -21200.76827 18964.56176 5540.44581
v -21776.83959 18468.58651 5560.65108
v -22207.07758 17896.09644 5579.25786
v -22559.44515 17301.90532 5595.89735
v -22941.59189 16753.15768 5610.23977
v -23468.24227 16306.63564 5622.00085
v -24222.91190 15989.75544 5630.94749
v -25227.40725 15791.71949 5636.90236
v -26430.50549 15667.53376 5639.74744
v -27720.85614 15553.03949 5639.42635
v -28960.64643 15385.38280 5635.94544
v -30028.96014 15121.73652 5629.37370
v -30859.86416 14750.07207 5619.84140
v -31461.64214 14288.88841 5607.53745
v -31909.94705 13776.83413 5592.70572
v -32316.82085 13256.62660 5575.64018
v -32786.28650 12759.37007 5556.67906
v -33372.36479 12294.78983 5536.19816
v -34054.93445 11850.37198 5514.60343
v -34742.83709 11398.95529 5492.32285
v -35304.04979 10911.27202 5469.79804
v -35612.96888 10368.37291 5447.47544
v -35598.38227 9769.28316 5425.79746
v -35274.95764 9131.34968 5405.19378
v -34746.43767 8483.66152 5386.07274
v -34178.42548 7856.50738 5368.81334
v -33749.29228 7271.11963 5353.75764
v -33595.57499 6733.53086 5341.20406
v -33770.42658 6234.50178 5331.40139
v -34229.38049 5754.97896 5324.54394
v -34848.33434 5274.42218 5320.76761
v -35467.50264 4778.42240 5320.14725
v -35946.05600 4262.61604 5322.69516
v -36208.45620 3731.67852 5328.36083
v -36266.44622 3194.36845 5337.03198
v -36209.24480 2657.26759 5348.53673
v -36165.70828 2120.33210 5362.64708
v -36252.10612 1576.46131 5379.08335
v -36524.22262 1015.40357 5397.51978
v 37618.20935 945.97610 6197.67196
v 37063.88932 1537.12017 6199.92850
v 36485.47583 2109.60707 6199.01528
v 36027.93961 2660.65275 6194.95039
v 35765.45136 3196.28815 6187.81440
v 35682.14425 3725.88833 6177.74874
v 35684.98960 4255.86692 6164.95291
v 35643.81988 4785.60628 6149.68053
v 35444.02039 5307.60252 6132.23430
v 35033.01514 5811.83416 6112.95999
v 34443.93594 6292.36200 6092.23961
v 33787.96852 6753.00295 6070.48386
v 33217.94331 7209.12311 6048.12392
v 32875.86648 7684.12667 6025.60296
v 32842.71386 8201.48001 6003.36735
v 33107.98533 8775.17233 5981.85780
v 33569.57949 9402.48916 5961.50062
v 34063.98586 10062.38447 5942.69929
v 34416.34035 10720.72709 5925.82644
v 34493.20531 11341.00275 5911.21651
v 34240.29911 11896.73113 5899.15906
v 33692.93673 12380.87277 5889.89305
v 32956.60602 12808.33682 5883.60216
v 32165.43508 13210.14167 5880.41105
v 31433.68032 13620.96135 5880.38298
v 30817.27241 14064.50635 5883.51850
v 30298.37001 14542.34491 5889.75547
v 29797.38183 15030.82633 5898.97028
v 29207.12985 15487.95753 5910.98027
v 28436.21950 15868.38076 5925.54743
v 27445.86613 16141.36737 5942.38302
v 26267.24507 16305.23643 5961.15338
v 24993.70812 16392.49489 5981.48646
v 23751.22661 16463.07008 6002.97928
v 22657.93706 16587.23205 6025.20585
v 21787.08021 16823.66504 6047.72563
v 21145.88750 17200.19849 6070.09229
v 20676.90096 17704.11151 6091.86253
v 20280.14040 18285.78709 6112.60486
v 19847.40403 18874.86085 6131.90816
v 19296.28889 19403.51646 6149.38986
v 18592.39234 19828.86582 6164.70345
v 17753.05844 20146.45965 6177.54544
v 16832.99257 20389.95297 6187.66129
v 15898.46703 20616.80529 6194.85051
v 15000.40243 20884.92563 6198.97061
v 14156.20679 21228.56512 6199.93992
v 13346.27507 21642.25089 6197.73925
v 12525.17674 22078.89469 6192.41219
v 11642.08353 22463.28110 6184.06434
v 10661.92819 22716.66009 6172.86115
v 9579.14196 22784.08712 6159.02467
v 8419.24547 22654.95813 6142.82912
v 7228.57352 22369.35598 6124.59552
v 6056.97627 22007.64574 6104.68524
v 4940.71589 21666.55825 6083.49290
v 3892.16180 21429.74347 6061.43854
v 2899.68847 21342.76801 6038.95927
v 1936.80988 21401.04585 6016.50063
v 975.86597 21554.72511 5994.50774
v 0.00000 21728.66314 5973.41651
v -991.69996 21850.37786 5953.64495
v -1987.73579 21876.11305 5935.58494
v -2974.25248 21805.87146 5919.59443
v -3946.45986 21682.19960 5905.99034
v -4915.57315 21573.26255 5895.04231
v -5907.33824 21546.29552 5886.96733
v -6951.95819 21640.90581 5881.92544
v -8069.24940 21851.73975 5880.01658
v -9255.40283 22126.72449 5881.27857
v -10477.64022 22381.62558 5885.68640
v -11680.23041 22525.96300 5893.15271
v -12800.80143 22491.40300 5903.52952
v -13791.44332 22252.94928 5916.61117
v -14636.59619 21835.83793 5932.13836
v -15360.31503 21306.05029 5949.80337
v -16019.15786 20748.01018 5969.25606
v -16682.38155 20237.34108 5990.11089
v -17406.28498 19818.04605 6011.95452
v -18212.34061 19491.67653 6034.35400
v -19077.94609 19221.67793 6056.86539
v -19944.29864 18950.73426 6079.04251
v -20739.52021 18624.48570 6100.44581
v -21409.09383 18212.99731 6120.65108
v -21942.27269 17722.44501 6139.25786
v -22383.85812 17193.18367 6155.89735
v -22825.56865 16685.28917 6170.23977
v -23378.53929 16257.04761 6182.00085
v -24135.67141 15944.17246 6190.94749
v -25136.89554 15747.02088 6196.90236
v -26350.14428 15630.03198 6199.74744
v -27675.83350 15533.19294 6199.42635
v -28974.54428 15391.16643 6195.94544
v -30109.23308 15153.24910 6189.37370
v -30987.72866 14797.37609 6179.84140
v -31590.64759 14333.81061 6167.53745
v -31974.58388 13797.98849 6152.70572
v -32248.97026 13235.79221 6135.64018
v -32534.39291 12686.95082 6116.67906
v -32916.99360 12172.50934 6096.19816
v -33415.36089 11690.41652 6074.60343
v -33972.21565 11220.05392 6052.32285
v -34474.55920 10733.22364 6029.79804
v -34795.77302 10206.94281 6007.47544
v -34845.06301 9633.08806 5985.79746
v -34606.58658 9021.49196 5965.19378
v -34153.79512 8395.81644 5946.07274
v -33632.95650 7784.31999 5928.81334
v -33220.58463 7209.43129 5913.75764
v -33068.80525 6680.21666 5901.20406
v -33257.19781 6190.41104 5891.40139
v -33767.70187 5722.31632 5884.54394
v -34491.37092 5254.53894 5880.76761
v -35264.78985 4770.16307 5880.14725
v -35923.68785 4262.03778 5882.69516
v -36355.30627 3733.29408 5888.36083
v -36531.54910 3193.35264 5897.03198
v -36511.70938 2651.62025 5908.53673
v -36414.25873 2111.99570 5922.64708
v -36368.04420 1570.84265 5939.08335
v -36460.43131 1019.45194 5957.51978
v 41372.99442 707.68689 6757.67196
v 40737.35345 1359.09447 6759.92850
v 40036.70809 1990.49841 6759.01528
v 39439.48909 2596.95544 6754.95039
v 39055.55318 3183.68122 6747.81440
v 38905.59314 3761.35091 6737.74874
v 38921.78716 4339.54508 6724.95291
v 38978.94859 4921.49287 6709.68053
v 38944.79537 5502.59936 6692.23430
v 38731.34732 6073.48219 6672.95999
v 38329.19829 6626.13926 6652.23961
v 37812.56719 7160.33131 6630.48386
v 37313.41320 7686.97269 6608.12392
v 36973.82897 8226.45117 6585.60296
v 36893.55171 8801.91982 6563.36735
v 37091.09673 9429.86185 6541.85780
v 37492.18262 10111.66961 6521.50062
v 37949.53805 10829.94231 6502.69929
v 38287.26561 11551.61291 6485.82644
v 38354.52666 12237.41654 6471.21651
v 38070.31215 12854.60610 6459.15906
v 37444.44236 13388.26181 6449.89305
v 36568.40205 13846.72591 6443.60216
v 35580.11332 14258.66230 6440.41105
v 34615.56545 14662.33004 6440.38298
v 33764.31917 15090.72529 6443.51850
v 33043.96655 15558.09009 6449.75547
v 32401.49813 16053.11858 6458.97028
v 31739.85169 16541.95640 6470.98027
v 30959.16634 16980.52783 6485.54743
v 29997.48830 17332.12096 6502.38302
v 28856.42522 17583.88572 6521.15338
v 27603.07642 17755.88451 6541.48646
v 26348.24431 17898.70788 6562.97928
v 25209.29196 18079.66268 6585.20585
v 24271.10850 18361.74933 6607.72563
v 23558.80013 18782.51724 6630.09229
v 23031.07981 19340.30361 6651.86253
v 22595.72870 19993.05964 6672.60486
v 22140.77022 20670.68330 6691.90816
v 21569.88474 21296.99462 6709.38986
v 20829.79171 21813.93011 6724.70345
v 19920.90415 22199.52921 6737.54544
v 18889.00667 22473.28132 6747.66129
v 17802.54977 22686.76339 6754.85051
v 16724.90070 22902.71754 6758.97061
v 15691.94737 23169.93500 6759.93992
v 14702.65601 23502.98482 6757.73925
v 13724.80141 23874.28953 6752.41219
v 12712.27278 24221.78631 6744.06434
v 11626.30375 24469.88956 6732.86115
v 10452.09410 24556.64433 6719.02467
v 9204.71790 24457.56665 6702.82912
v 7922.81808 24197.60815 6684.59552
v 6653.46311 23846.67912 6664.68524
v 5434.77764 23499.84421 6643.49290
v 4283.37694 23248.67858 6621.43854
v 3191.22259 23153.43309 6598.95927
v 2132.38285 23225.46663 6576.50063
v 1076.07874 23425.90024 6554.50774
v 0.00000 23680.84492 6533.41651
v -1101.88822 23907.81544 6513.64495
v -2220.13654 24044.08524 6495.58494
v -3338.33519 24067.12257 6479.59443
v -4444.98985 24000.08967 6465.99034
v -5542.80111 23900.68057 6455.04231
v -6650.46910 23837.44826 6446.96733
v -7795.43714 23862.15795 6441.92544
v -9000.13531 23988.06282 6440.01658
v -10267.52406 24181.86898 6441.27857
v -11572.62857 24372.30838 6445.68640
v -12864.78903 24472.39678 6453.15271
v -14081.19451 24407.67831 6463.52952
v -15167.52916 24140.71513 6476.61117
v -16098.17435 23683.45717 6492.13836
v -16887.86532 23093.39832 6509.80337
v -17589.41164 22455.05760 6529.25606
v -18277.17934 21853.32583 6550.11089
v -19021.61758 21347.85519 6571.95452
v -19864.00537 20957.06566 6594.35400
v -20801.14884 20656.78206 6616.86539
v -21786.55077 20393.31145 6639.04251
v -22748.62123 20105.78659 6660.44581
v -23619.94652 19749.57543 6680.65108
v -24366.97444 19312.49472 6699.25786
v -25008.60535 18818.39964 6715.89735
v -25615.64876 18317.36358 6730.23977
v -26289.83580 17866.41951 6742.00085
v -27128.70281 17508.02527 6750.94749
v -28188.36074 17253.96654 6756.90236
v -29457.70785 17080.22414 6759.74744
v -30854.25045 16934.27958 6759.42635
v -32244.39138 16751.92193 6755.94544
v -33482.34575 16477.42456 6749.37370
v -34454.88173 16080.06420 6739.84140
v -35116.47623 15561.57265 6727.53745
v -35502.33507 14952.55238 6712.70572
v -35714.20830 14299.83788 6695.64018
v -35883.47359 13649.80941 6676.67906
v -36124.17465 13033.73130 6656.19816
v -36492.58247 12460.02056 6634.60343
v -36967.87472 11915.50241 6612.32285
v -37461.26442 11374.31352 6589.79804
v -37850.83677 10810.44471 6567.47544
v -38030.03109 10208.90903 6545.79746
v -37952.49714 9571.44710 6525.19378
v -37656.91955 8915.07084 6506.07274
v -37262.15401 8264.60812 6488.81334
v -36933.35778 7642.62874 6473.75764
v -36830.09988 7060.89610 6461.20406
v -37054.03817 6516.59210 6451.40139
v -37614.24748 5994.45009 6444.54394
v -38422.41817 5473.50240 6440.76761
v -39319.91630 4935.38527 6440.14725
v -40127.67432 4370.71985 6442.69516
v -40701.94482 3781.11337 6448.36083
v -40976.91336 3176.31900 6457.03198
v -40979.77080 2568.19671 6468.53673
v -40813.48548 1964.44522 6482.64708
v -40613.80466 1365.08197 6499.08335
v -40495.97794 763.34482 6517.51978
vt 41.383528 3.957672
vt 41.496720 3.959929
vt 41.739157 3.959015
vt 42.103164 3.954950
vt 42.498514 3.947814
vt 42.782323 3.937749
vt 42.809342 3.924953
vt 42.485102 3.909681
vt 41.803211 3.892234
vt 40.853537 3.872960
vt 39.798079 3.852240
vt 38.822574 3.830484
vt 38.080214 3.808124
vt 37.646539 3.785603
vt 37.500519 3.763367
vt 37.537704 3.741858
vt 37.610177 3.721501
vt 37.578933 3.702699
vt 37.360363 3.685826
vt 36.950949 3.671217
vt 36.422305 3.659159
vt 35.889216 3.649893
vt 35.462749 3.643602
vt 35.205477 3.640411
vt 35.104717 3.640383
vt 35.073022 3.643519
vt 34.975395 3.649755
vt 34.673329 3.658970
vt 34.070164 3.670980
vt 33.142132 3.685547
vt 31.944875 3.702383
vt 30.593977 3.721153
vt 29.227047 3.741486
vt 27.960910 3.762979
vt 26.858557 3.785206
vt 25.916410 3.807726
vt 25.074896 3.830092
vt 24.247063 3.851863
vt 23.353969 3.872605
vt 22.353932 3.891908
vt 21.255639 3.909390
vt 20.111558 3.924703
vt 18.995335 3.937545
vt 17.972420 3.947661
vt 17.075052 3.954851
vt 16.290461 3.958971
vt 15.565809 3.959940
vt 14.827085 3.957739
vt 14.004269 3.952412
vt 13.053331 3.944064
vt 11.967480 3.932861
vt 10.774606 3.919025
vt 9.523200 3.902829
vt 8.263155 3.884596
vt 7.029164 3.864685
vt 5.832718 3.843493
vt 4.664705 3.821439
vt 3.506191 3.798959
vt 2.341718 3.776501
vt 1.168890 3.754508
vt 0.000000 3.733417
vt -1.144736 3.713645
vt -2.248934 3.695585
vt -3.311056 3.679594
vt -4.349196 3.665990
vt -5.396821 3.655042
vt -6.490648 3.646967
vt -7.655479 3.641925
vt -8.892483 3.640017
vt -10.176359 3.641279
vt -11.463364 3.645686
vt -12.707621 3.653153
vt -13.879426 3.663530
vt -14.977926 3.676611
vt -16.032303 3.692138
vt -17.089957 3.709803
vt -18.195447 3.729256
vt -19.368108 3.750111
vt -20.587494 3.771955
vt -21.793489 3.794354
vt -22.902662 3.816865
vt -23.836201 3.839043
vt -24.549819 3.860446
vt -25.054484 3.880651
vt -25.419418 3.899258
vt -25.754823 3.915897
vt -26.179169 3.930240
vt -26.781851 3.942001
vt -27.594322 3.950947
vt -28.580383 3.956902
vt -29.649807 3.959747
vt -30.691157 3.959426
vt -31.612498 3.955945
vt -32.375403 3.949374
vt -33.009557 3.939841
vt -33.601906 3.927537
vt -34.263393 3.912706
vt -35.084631 3.895640
vt -36.096363 3.876679
vt -37.249431 3.856198
vt -38.422516 3.834603
vt -39.456211 3.812323
vt -40.202549 3.789798
vt -40.573230 3.767475
vt -40.569767 3.745797
vt -40.284672 3.725194
vt -39.872712 3.706073
vt -39.501697 3.688813
vt -39.299512 3.673758
vt -39.315608 3.661204
vt -39.510200 3.651401
vt -39.774811 3.644544
vt -39.976752 3.640768
vt -40.011695 3.640147
vt -39.845524 3.642695
vt -39.530414 3.648361
vt -39.189109 3.657032
vt -38.972619 3.668537
vt -39.006033 3.682647
vt -39.341428 3.699083
vt -39.934521 3.717520
vt 39.533618 4.517672
vt 39.456609 4.519929
vt 39.474243 4.519015
vt 39.621744 4.514950
vt 39.848706 4.507814
vt 40.037422 4.497749
vt 40.046597 4.484953
vt 39.765033 4.469681
vt 39.156283 4.452234
vt 38.278302 4.432960
vt 37.270866 4.412240
vt 36.314719 4.390484
vt 35.576276 4.368124
vt 35.156675 4.345603
vt 35.062382 4.323367
vt 35.207000 4.301858
vt 35.443095 4.281501
vt 35.612591 4.262699
vt 35.598113 4.245826
vt 35.357767 4.231217
vt 34.931997 4.219159
vt 34.421153 4.209893
vt 33.942669 4.203602
vt 33.583615 4.200411
vt 33.365626 4.200383
vt 33.234397 4.203519
vt 33.077005 4.209755
vt 32.760458 4.218970
vt 32.177545 4.230980
vt 31.283893 4.245547
vt 30.113591 4.262383
vt 28.768533 4.281153
vt 27.385908 4.301486
vt 26.095582 4.322979
vt 24.982177 4.345206
vt 24.064311 4.367726
vt 23.296984 4.390092
vt 22.594732 4.411863
vt 21.866148 4.432605
vt 21.046959 4.451908
vt 20.120191 4.469390
vt 19.117265 4.484703
vt 18.101095 4.497545
vt 17.138634 4.507661
vt 16.273647 4.514851
vt 15.509708 4.518971
vt 14.809017 4.519940
vt 14.106508 4.517739
vt 13.333118 4.512412
vt 12.439145 4.504064
vt 11.409232 4.492861
vt 10.264207 4.479025
vt 9.050286 4.462829
vt 7.820790 4.444596
vt 6.617951 4.424685
vt 5.461607 4.403493
vt 4.348312 4.381439
vt 3.259856 4.358959
vt 2.176446 4.336501
vt 1.088230 4.314508
vt 0.000000 4.293417
vt -1.072725 4.273645
vt -2.114046 4.255585
vt -3.119291 4.239594
vt -4.102039 4.225990
vt -5.092649 4.215042
vt -6.128138 4.206967
vt -7.237180 4.201925
vt -8.426516 4.200017
vt -9.674912 4.201279
vt -10.938034 4.205686
vt -12.163178 4.213153
vt -13.308531 4.223530
vt -14.359317 4.236611
vt -15.333882 4.252138
vt -16.276390 4.269803
vt -17.238059 4.289256
vt -18.253730 4.310111
vt -19.323004 4.331955
vt -20.404134 4.354354
vt -21.424451 4.376865
vt -22.304866 4.399043
vt -22.990278 4.420446
vt -23.474722 4.440651
vt -23.811219 4.459258
vt -24.101303 4.475897
vt -24.466415 4.490240
vt -25.010240 4.502001
vt -25.784924 4.510947
vt -26.773398 4.516902
vt -27.894789 4.519747
vt -29.031843 4.519426
vt -30.071258 4.515945
vt -30.942826 4.509374
vt -31.643199 4.499841
vt -32.235245 4.487537
vt -32.822488 4.472706
vt -33.507275 4.455640
vt -34.347457 4.436679
vt -35.327532 4.416198
vt -36.355459 4.394603
vt -37.287509 4.372323
vt -37.973521 4.349798
vt -38.307342 4.327475
vt -38.264917 4.305797
vt -37.916333 4.285194
vt -37.406932 4.266073
vt -36.913314 4.248813
vt -36.588922 4.233758
vt -36.517707 4.221204
vt -36.691728 4.211401
vt -37.020316 4.204544
vt -37.367396 4.200768
vt -37.603700 4.200147
vt -37.655371 4.202695
vt -37.531669 4.208361
vt -37.321881 4.217032
vt -37.162412 4.228537
vt -37.185618 4.242647
vt -37.468449 4.259083
vt -37.999167 4.277520
vt 38.486470 5.077672
vt 38.227388 5.079929
vt 38.024363 5.079015
vt 37.953848 5.074950
vt 38.007655 5.067814
vt 38.098815 5.057749
vt 38.096546 5.044953
vt 37.877840 5.029681
vt 37.377270 5.012234
vt 36.617200 4.992960
vt 35.707418 4.972240
vt 34.813928 4.950484
vt 34.107448 4.928124
vt 33.709214 4.905603
vt 33.652596 4.883367
vt 33.873504 4.861858
vt 34.232498 4.841501
vt 34.560659 4.822699
vt 34.713216 4.805826
vt 34.612629 4.791217
vt 34.266869 4.779159
vt 33.757602 4.769893
vt 33.203500 4.763602
vt 32.712464 4.760411
vt 32.339934 4.760383
vt 32.067890 4.763519
vt 31.811394 4.769755
vt 31.449689 4.778970
vt 30.870281 4.790980
vt 30.010158 4.805547
vt 28.879763 4.822383
vt 27.561723 4.841153
vt 26.185405 4.861486
vt 24.886670 4.882979
vt 23.767013 4.905206
vt 22.865863 4.927726
vt 22.154685 4.950092
vt 21.553553 4.971863
vt 20.963080 4.992605
vt 20.299682 5.011908
vt 19.521771 5.029390
vt 18.638472 5.044703
vt 17.699236 5.057545
vt 16.769643 5.067661
vt 15.903291 5.074851
vt 15.120397 5.078971
vt 14.400521 5.079940
vt 13.691153 5.077739
vt 12.927900 5.072412
vt 12.058032 5.064064
vt 11.058441 5.052861
vt 9.941807 5.039025
vt 8.749625 5.022829
vt 7.535793 5.004596
vt 6.347741 4.984685
vt 5.212437 4.963493
vt 4.132067 4.941439
vt 3.089902 4.918959
vt 2.062721 4.896501
vt 1.033707 4.874508
vt 0.000000 4.853417
vt -1.028178 4.833645
vt -2.035965 4.815585
vt -3.015491 4.799594
vt -3.974817 4.785990
vt -4.939353 4.775042
vt -5.944269 4.766967
vt -7.020437 4.761925
vt -8.179670 4.760017
vt -9.405786 4.761279
vt -10.656100 4.765686
vt -11.873829 4.773153
vt -13.007344 4.783530
vt -14.028954 4.796611
vt -14.945559 4.812138
vt -15.796190 4.829803
vt -16.636455 4.849256
vt -17.515191 4.870111
vt -18.452208 4.891955
vt -19.426248 4.914354
vt -20.378941 4.936865
vt -21.234656 4.959043
vt -21.929886 4.980446
vt -22.441579 5.000651
vt -22.803376 5.019258
vt -23.102489 5.035897
vt -23.456673 5.050240
vt -23.978168 5.062001
vt -24.736725 5.070947
vt -25.734884 5.076902
vt -26.904936 5.079747
vt -28.129598 5.079426
vt -29.279956 5.075945
vt -30.257790 5.069374
vt -31.027300 5.059841
vt -31.624660 5.047537
vt -32.141424 5.032706
vt -32.687206 5.015640
vt -33.344723 4.996679
vt -34.133488 4.976198
vt -34.995815 4.954603
vt -35.811174 4.932323
vt -36.434876 4.909798
vt -36.748191 4.887475
vt -36.702477 4.865797
vt -36.341487 4.845194
vt -35.793309 4.826073
vt -35.233822 4.808813
vt -34.833590 4.793758
vt -34.706070 4.781204
vt -34.874796 4.771401
vt -35.270751 4.764544
vt -35.760707 4.760768
vt -36.196528 4.760147
vt -36.468108 4.762695
vt -36.541339 4.768361
vt -36.467812 4.777032
vt -36.362928 4.788537
vt -36.360276 4.802647
vt -36.558539 4.819083
vt -36.979894 4.837520
vt 37.899492 5.637672
vt 37.477664 5.639929
vt 37.071647 5.639015
vt 36.795168 5.634950
vt 36.682332 5.627814
vt 36.680743 5.617749
vt 36.676015 5.604953
vt 36.538724 5.589681
vt 36.176946 5.572234
vt 35.575552 5.552960
vt 34.808138 5.532240
vt 34.017076 5.510484
vt 33.368413 5.488124
vt 32.997164 5.465603
vt 32.961886 5.443367
vt 33.224143 5.421858
vt 33.659803 5.401501
vt 34.098059 5.382699
vt 34.374618 5.365826
vt 34.380896 5.351217
vt 34.092760 5.339159
vt 33.569852 5.329893
vt 32.926834 5.323602
vt 32.287611 5.320411
vt 31.739082 5.320383
vt 31.300658 5.323519
vt 30.919698 5.329755
vt 30.493609 5.338970
vt 29.909960 5.350980
vt 29.089839 5.365547
vt 28.019012 5.382383
vt 26.756145 5.401153
vt 25.415739 5.421486
vt 24.132313 5.442979
vt 23.018691 5.465206
vt 22.132775 5.487726
vt 21.463688 5.510092
vt 20.940947 5.531863
vt 20.462208 5.552605
vt 19.928955 5.571908
vt 19.277386 5.589390
vt 18.494290 5.604703
vt 17.613659 5.617545
vt 16.696920 5.627661
vt 15.805315 5.634851
vt 14.975133 5.638971
vt 14.204678 5.639940
vt 13.456886 5.637739
vt 12.675412 5.632412
vt 11.807178 5.624064
vt 10.822428 5.612861
vt 9.724919 5.599025
vt 8.549147 5.582829
vt 7.346648 5.564596
vt 6.167434 5.544685
vt 5.044030 5.523493
vt 3.983967 5.501439
vt 2.972725 5.478959
vt 1.984791 5.456501
vt 0.997289 5.434508
vt 0.000000 5.413417
vt -1.002438 5.393645
vt -1.996662 5.375585
vt -2.971689 5.359594
vt -3.929343 5.345990
vt -4.888530 5.335042
vt -5.880575 5.326967
vt -6.936843 5.321925
vt -8.073548 5.320017
vt -9.280387 5.321279
vt -10.518569 5.325686
vt -11.730267 5.333153
vt -12.856873 5.343530
vt -13.859463 5.356611
vt -14.733456 5.372138
vt -15.511086 5.389803
vt -16.249800 5.409256
vt -17.010135 5.430111
vt -17.831160 5.451955
vt -18.713087 5.474354
vt -19.614555 5.496865
vt -20.466840 5.519043
vt -21.200768 5.540446
vt -21.776840 5.560651
vt -22.207078 5.579258
vt -22.559445 5.595897
vt -22.941592 5.610240
vt -23.468242 5.622001
vt -24.222912 5.630947
vt -25.227407 5.636902
vt -26.430505 5.639747
vt -27.720856 5.639426
vt -28.960646 5.635945
vt -30.028960 5.629374
vt -30.859864 5.619841
vt -31.461642 5.607537
vt -31.909947 5.592706
vt -32.316821 5.575640
vt -32.786287 5.556679
vt -33.372365 5.536198
vt -34.054934 5.514603
vt -34.742837 5.492323
vt -35.304050 5.469798
vt -35.612969 5.447475
vt -35.598382 5.425797
vt -35.274958 5.405194
vt -34.746438 5.386073
vt -34.178425 5.368813
vt -33.749292 5.353758
vt -33.595575 5.341204
vt -33.770427 5.331401
vt -34.229380 5.324544
vt -34.848334 5.320768
vt -35.467503 5.320147
vt -35.946056 5.322695
vt -36.208456 5.328361
vt -36.266446 5.337032
vt -36.209245 5.348537
vt -36.165708 5.362647
vt -36.252106 5.379083
vt -36.524223 5.397520
vt 37.618209 6.197672
vt 37.063889 6.199929
vt 36.485476 6.199015
vt 36.027940 6.194950
vt 35.765451 6.187814
vt 35.682144 6.177749
vt 35.684990 6.164953
vt 35.643820 6.149681
vt 35.444020 6.132234
vt 35.033015 6.112960
vt 34.443936 6.092240
vt 33.787969 6.070484
vt 33.217943 6.048124
vt 32.875866 6.025603
vt 32.842714 6.003367
vt 33.107985 5.981858
vt 33.569579 5.961501
vt 34.063986 5.942699
vt 34.416340 5.925826
vt 34.493205 5.911217
vt 34.240299 5.899159
vt 33.692937 5.889893
vt 32.956606 5.883602
vt 32.165435 5.880411
vt 31.433680 5.880383
vt 30.817272 5.883519
vt 30.298370 5.889755
vt 29.797382 5.898970
vt 29.207130 5.910980
vt 28.436220 5.925547
vt 27.445866 5.942383
vt 26.267245 5.961153
vt 24.993708 5.981486
vt 23.751227 6.002979
vt 22.657937 6.025206
vt 21.787080 6.047726
vt 21.145887 6.070092
vt 20.676901 6.091863
vt 20.280140 6.112605
vt 19.847404 6.131908
vt 19.296289 6.149390
vt 18.592392 6.164703
vt 17.753058 6.177545
vt 16.832993 6.187661
vt 15.898467 6.194851
vt 15.000402 6.198971
vt 14.156207 6.199940
vt 13.346275 6.197739
vt 12.525177 6.192412
vt 11.642084 6.184064
vt 10.661928 6.172861
vt 9.579142 6.159025
vt 8.419245 6.142829
vt 7.228574 6.124596
vt 6.056976 6.104685
vt 4.940716 6.083493
vt 3.892162 6.061439
vt 2.899688 6.038959
vt 1.936810 6.016501
vt 0.975866 5.994508
vt 0.000000 5.973417
vt -0.991700 5.953645
vt -1.987736 5.935585
vt -2.974252 5.919594
vt -3.946460 5.905990
vt -4.915573 5.895042
vt -5.907338 5.886967
vt -6.951958 5.881925
vt -8.069249 5.880017
vt -9.255403 5.881279
vt -10.477640 5.885686
vt -11.680230 5.893153
vt -12.800801 5.903530
vt -13.791443 5.916611
vt -14.636596 5.932138
vt -15.360315 5.949803
vt -16.019158 5.969256
vt -16.682382 5.990111
vt -17.406285 6.011955
vt -18.212341 6.034354
vt -19.077946 6.056865
vt -19.944299 6.079043
vt -20.739520 6.100446
vt -21.409094 6.120651
vt -21.942273 6.139258
vt -22.383858 6.155897
vt -22.825569 6.170240
vt -23.378539 6.182001
vt -24.135671 6.190947
vt -25.136896 6.196902
vt -26.350144 6.199747
vt -27.675833 6.199426
vt -28.974544 6.195945
vt -30.109233 6.189374
vt -30.987729 6.179841
vt -31.590648 6.167537
vt -31.974584 6.152706
vt -32.248970 6.135640
vt -32.534393 6.116679
vt -32.916994 6.096198
vt -33.415361 6.074603
vt -33.972216 6.052323
vt -34.474559 6.029798
vt -34.795773 6.007475
vt -34.845063 5.985797
vt -34.606587 5.965194
vt -34.153795 5.946073
vt -33.632957 5.928813
vt -33.220585 5.913758
vt -33.068805 5.901204
vt -33.257198 5.891401
vt -33.767702 5.884544
vt -34.491371 5.880768
vt -35.264790 5.880147
vt -35.923688 5.882695
vt -36.355306 5.888361
vt -36.531549 5.897032
vt -36.511709 5.908537
vt -36.414259 5.922647
vt -36.368044 5.939083
vt -36.460431 5.957520
vt 41.372994 6.757672
vt 40.737353 6.759929
vt 40.036708 6.759015
vt 39.439489 6.754950
vt 39.055553 6.747814
vt 38.905593 6.737749
vt 38.921787 6.724953
vt 38.978949 6.709681
vt 38.944795 6.692234
vt 38.731347 6.672960
vt 38.329198 6.652240
vt 37.812567 6.630484
vt 37.313413 6.608124
vt 36.973829 6.585603
vt 36.893552 6.563367
vt 37.091097 6.541858
vt 37.492183 6.521501
vt 37.949538 6.502699
vt 38.287266 6.485826
vt 38.354527 6.471217
vt 38.070312 6.459159
vt 37.444442 6.449893
vt 36.568402 6.443602
vt 35.580113 6.440411
vt 34.615565 6.440383
vt 33.764319 6.443519
vt 33.043967 6.449755
vt 32.401498 6.458970
vt 31.739852 6.470980
vt 30.959166 6.485547
vt 29.997488 6.502383
vt 28.856425 6.521153
vt 27.603076 6.541486
vt 26.348244 6.562979
vt 25.209292 6.585206
vt 24.271109 6.607726
vt 23.558800 6.630092
vt 23.031080 6.651863
vt 22.595729 6.672605
vt 22.140770 6.691908
vt 21.569885 6.709390
vt 20.829792 6.724703
vt 19.920904 6.737545
vt 18.889007 6.747661
vt 17.802550 6.754851
vt 16.724901 6.758971
vt 15.691947 6.759940
vt 14.702656 6.757739
vt 13.724801 6.752412
vt 12.712273 6.744064
vt 11.626304 6.732861
vt 10.452094 6.719025
vt 9.204718 6.702829
vt 7.922818 6.684596
vt 6.653463 6.664685
vt 5.434778 6.643493
vt 4.283377 6.621439
vt 3.191223 6.598959
vt 2.132383 6.576501
vt 1.076079 6.554508
vt 0.000000 6.533417
vt -1.101888 6.513645
vt -2.220137 6.495585
vt -3.338335 6.479594
vt -4.444990 6.465990
vt -5.542801 6.455042
vt -6.650469 6.446967
vt -7.795437 6.441925
vt -9.000135 6.440017
vt -10.267524 6.441279
vt -11.572629 6.445686
vt -12.864789 6.453153
vt -14.081195 6.463530
vt -15.167529 6.476611
vt -16.098174 6.492138
vt -16.887865 6.509803
vt -17.589412 6.529256
vt -18.277179 6.550111
vt -19.021618 6.571955
vt -19.864005 6.594354
vt -20.801149 6.616865
vt -21.786551 6.639043
vt -22.748621 6.660446
vt -23.619947 6.680651
vt -24.366974 6.699258
vt -25.008605 6.715897
vt -25.615649 6.730240
vt -26.289836 6.742001
vt -27.128703 6.750947
vt -28.188361 6.756902
vt -29.457708 6.759747
vt -30.854250 6.759426
vt -32.244391 6.755945
vt -33.482346 6.749374
vt -34.454882 6.739841
vt -35.116476 6.727537
vt -35.502335 6.712706
vt -35.714208 6.695640
vt -35.883474 6.676679
vt -36.124175 6.656198
vt -36.492582 6.634603
vt -36.967875 6.612323
vt -37.461264 6.589798
vt -37.850837 6.567475
vt -38.030031 6.545797
vt -37.952497 6.525194
vt -37.656920 6.506073
vt -37.262154 6.488813
vt -36.933358 6.473758
vt -36.830100 6.461204
vt -37.054038 6.451401
vt -37.614247 6.444544
vt -38.422418 6.440768
vt -39.319916 6.440147
vt -40.127674 6.442695
vt -40.701945 6.448361
vt -40.976913 6.457032
vt -40.979771 6.468537
vt -40.813485 6.482647
vt -40.613805 6.499083
vt -40.495978 6.517520
f 1/1 122/122 123/123
f 1/1 123/123 2/2
f 2/2 123/123 124/124
f 2/2 124/124 3/3
f 3/3 124/124 125/125
f 3/3 125/125 4/4
f 4/4 125/125 126/126
f 4/4 126/126 5/5
f 5/5 126/126 127/127
f 5/5 127/127 6/6
f 6/6 127/127 128/128
f 6/6 128/128 7/7
f 7/7 128/128 129/129
f 7/7 129/129 8/8
f 8/8 129/129 130/130
f 8/8 130/130 9/9
f 9/9 130/130 131/131
f 9/9 131/131 10/10
f 10/10 131/131 132/132
f 10/10 132/132 11/11
f 11/11 132/132 133/133
f 11/11 133/133 12/12
f 12/12 133/133 134/134
f 12/12 134/134 13/13
f 13/13 134/134 135/135
f 13/13 135/135 14/14
f 14/14 135/135 136/136
f 14/14 136/136 15/15
f 15/15 136/136 137/137
f 15/15 137/137 16/16
f 16/16 137/137 138/138
f 16/16 138/138 17/17
f 17/17 138/138 139/139
f 17/17 139/139 18/18
f 18/18 139/139 140/140
f 18/18 140/140 19/19
f 19/19 140/140 141/141
f 19/19 141/141 20/20
f 20/20 141/141 142/142
f 20/20 142/142 21/21
f 21/21 142/142 143/143
f 21/21 143/143 22/22
f 22/22 143/143 144/144
f 22/22 144/144 23/23
f 23/23 144/144 145/145
f 23/23 145/145 24/24
f 24/24 145/145 146/146
f 24/24 146/146 25/25
f 25/25 146/146 147/147
f 25/25 147/147 26/26
f 26/26 147/147 148/148
f 26/26 148/148 27/27
f 27/27 148/148 149/149
f 27/27 149/149 28/28
f 28/28 149/149 150/150
f 28/28 150/150 29/29
f 29/29 150/150 151/151
f 29/29 151/151 30/30
f 30/30 151/151 152/152
f 30/30 152/152 31/31
f 31/31 152/152 153/153
f 31/31 153/153 32/32
f 32/32 153/153 154/154
f 32/32 154/154 33/33
f 33/33 154/154 155/155
f 33/33 155/155 34/34
f 34/34 155/155 156/156
f 34/34 156/156 35/35
f 35/35 156/156 157/157
f 35/35 157/157 36/36
f 36/36 157/157 158/158
f 36/36 158/158 37/37
f 37/37 158/158 159/159
f 37/37 159/159 38/38
f 38/38 159/159 160/160
f 38/38 160/160 39/39
f 39/39 160/160 161/161
f 39/39 161/161 40/40
f 40/40 161/161 162/162
f 40/40 162/162 41/41
f 41/41 162/162 163/163
f 41/41 163/163 42/42
f 42/42 163/163 164/164
f 42/42 164/164 43/43
f 43/43 164/164 165/165
f 43/43 165/165 44/44
f 44/44 165/165 166/166
f 44/44 166/166 45/45
f 45/45 166/166 167/167
f 45/45 167/167 46/46
f 46/46 167/167 168/168
f 46/46 168/168 47/47
f 47/47 168/168 169/169
f 47/47 169/169 48/48
f 48/48 169/169 170/170
f 48/48 170/170 49/49
f 49/49 170/170 171/171
f 49/49 171/171 50/50
f 50/50 171/171 172/172
f 50/50 172/172 51/51
f 51/51 172/172 173/173
f 51/51 173/173 52/52
f 52/52 173/173 174/174
f 52/52 174/174 53/53
f 53/53 174/174 175/175
f 53/53 175/175 54/54
f 54/54 175/175 176/176
f 54/54 176/176 55/55
f 55/55 176/176 177/177
f 55/55 177/177 56/56
f 56/56 177/177 178/178
f 56/56 178/178 57/57
f 57/57 178/178 179/179
f 57/57 179/179 58/58
f 58/58 179/179 180/180
f 58/58 180/180 59/59
f 59/59 180/180 181/181
f 59/59 181/181 60/60
f 60/60 181/181 182/182
f 60/60 182/182 61/61
f 61/61 182/182 183/183
f 61/61 183/183 62/62
f 62/62 183/183 184/184
f 62/62 184/184 63/63
f 63/63 184/184 185/185
f 63/63 185/185 64/64
f 64/64 185/185 186/186
f 64/64 186/186 65/65
f 65/65 186/186 187/187
f 65/65 187/187 66/66
f 66/66 187/187 188/188
f 66/66 188/188 67/67
f 67/67 188/188 189/189
f 67/67 189/189 68/68
f 68/68 189/189 190/190
f 68/68 190/190 69/69
f 69/69 190/190 191/191
f 69/69 191/191 70/70
f 70/70 191/191 192/192
f 70/70 192/192 71/71
f 71/71 192/192 193/193
f 71/71 193/193 72/72
f 72/72 193/193 194/194
f 72/72 194/194 73/73
f 73/73 194/194 195/195
f 73/73 195/195 74/74
f 74/74 195/195 196/196
f 74/74 196/196 75/75
f 75/75 196/196 197/197
f 75/75 197/197 76/76
f 76/76 197/197 198/198
f 76/76 198/198 77/77
f 77/77 198/198 199/199
f 77/77 199/199 78/78
f 78/78 199/199 200/200
f 78/78 200/200 79/79
f 79/79 200/200 201/201
f 79/79 201/201 80/80
f 80/80 201/201 202/202
f 80/80 202/202 81/81
f 81/81 202/202 203/203
f 81/81 203/203 82/82
f 82/82 203/203 204/204
f 82/82 204/204 83/83
f 83/83 204/204 205/205
f 83/83 205/205 84/84
f 84/84 205/205 206/206
f 84/84 206/206 85/85
f 85/85 206/206 207/207
f 85/85 207/207 86/86
f 86/86 207/207 208/208
f 86/86 208/208 87/87
f 87/87 208/208 209/209
f 87/87 209/209 88/88
f 88/88 209/209 210/210
f 88/88 210/210 89/89
f 89/89 210/210 211/211
f 89/89 211/211 90/90
f 90/90 211/211 212/212
f 90/90 212/212 91/91
f 91/91 212/212 213/213
f 91/91 213/213 92/92
f 92/92 213/213 214/214
f 92/92 214/214 93/93
f 93/93 214/214 215/215
f 93/93 215/215 94/94
f 94/94 215/215 216/216
f 94/94 216/216 95/95
f 95/95 216/216 217/217
f 95/95 217/217 96/96
f 96/96 217/217 218/218
f 96/96 218/218 97/97
f 97/97 218/218 219/219
f 97/97 219/219 98/98
f 98/98 219/219 220/220
f 98/98 220/220 99/99
f 99/99 220/220 221/221
f 99/99 221/221 100/100
f 100/100 221/221 222/222
f 100/100 222/222 101/101
f 101/101 222/222 223/223
f 101/101 223/223 102/102
f 102/102 223/223 224/224
f 102/102 224/224 103/103
f 103/103 224/224 225/225
f 103/103 225/225 104/104
f 104/104 225/225 226/226
f 104/104 226/226 105/105
f 105/105 226/226 227/227
f 105/105 227/227 106/106
f 106/106 227/227 228/228
f 106/106 228/228 107/107
f 107/107 228/228 229/229
f 107/107 229/229 108/108
f 108/108 229/229 230/230
f 108/108 230/230 109/109
f 109/109 230/230 231/231
f 109/109 231/231 110/110
f 110/110 231/231 232/232
f 110/110 232/232 111/111
f 111/111 232/232 233/233
f 111/111 233/233 112/112
f 112/112 233/233 234/234
f 112/112 234/234 113/113
f 113/113 234/234 235/235
f 113/113 235/235 114/114
f 114/114 235/235 236/236
f 114/114 236/236 115/115
f 115/115 236/236 237/237
f 115/115 237/237 116/116
f 116/116 237/237 238/238
f 116/116 238/238 117/117
f 117/117 238/238 239/239
f 117/117 239/239 118/118
f 118/118 239/239 240/240
f 118/118 240/240 119/119
f 119/119 240/240 241/241
f 119/119 241/241 120/120
f 120/120 241/241 242/242
f 120/120 242/242 121/121
f 122/122 243/243 244/244
f 122/122 244/244 123/123
f 123/123 244/244 245/245
f 123/123 245/245 124/124
f 124/124 245/245 246/246
f 124/124 246/246 125/125
f 125/125 246/246 247/247
f 125/125 247/247 126/126
f 126/126 247/247 248/248
f 126/126 248/248 127/127
f 127/127 248/248 249/249
f 127/127 249/249 128/128
f 128/128 249/249 250/250
f 128/128 250/250 129/129
f 129/129 250/250 251/251
f 129/129 251/251 130/130
f 130/130 251/251 252/252
f 130/130 252/252 131/131
f 131/131 252/252 253/253
f 131/131 253/253 132/132
f 132/132 253/253 254/254
f 132/132 254/254 133/133
f 133/133 254/254 255/255
f 133/133 255/255 134/134
f 134/134 255/255 256/256
f 134/134 256/256 135/135
f 135/135 256/256 257/257
f 135/135 257/257 136/136
f 136/136 257/257 258/258
f 136/136 258/258 137/137
f 137/137 258/258 259/259
f 137/137 259/259 138/138
f 138/138 259/259 260/260
f 138/138 260/260 139/139
f 139/139 260/260 261/261
f 139/139 261/261 140/140
f 140/140 261/261 262/262
f 140/140 262/262 141/141
f 141/141 262/262 263/263
f 141/141 263/263 142/142
f 142/142 263/263 264/264
f 142/142 264/264 143/143
f 143/143 264/264 265/265
f 143/143 265/265 144/144
f 144/144 265/265 266/266
f 144/144 266/266 145/145
f 145/145 266/266 267/267
f 145/145 267/267 146/146
f 146/146 267/267 268/268
f 146/146 268/268 147/147
f 147/147 268/268 269/269
f 147/147 269/269 148/148
f 148/148 269/269 270/270
f 148/148 270/270 149/149
f 149/149 270/270 271/271
f 149/149 271/271 150/150
f 150/150 271/271 272/272
f 150/150 272/272 151/151
f 151/151 272/272 273/273
f 151/151 273/273 152/152
f 152/152 273/273 274/274
f 152/152 274/274 153/153
f 153/153 274/274 275/275
f 153/153 275/275 154/154
f 154/154 275/275 276/276
f 154/154 276/276 155/155
f 155/155 276/276 277/277
f 155/155 277/277 156/156
f 156/156 277/277 278/278
f 156/156 278/278 157/157
f 157/157 278/278 279/279
f 157/157 279/279 158/158
f 158/158 279/279 280/280
f 158/158 280/280 159/159
f 159/159 280/280 281/281
f 159/159 281/281 160/160
f 160/160 281/281 282/282
f 160/160 282/282 161/161
f 161/161 282/282 283/283
f 161/161 283/283 162/162
f 162/162 283/283 284/284
f 162/162 284/284 163/163
f 163/163 284/284 285/285
f 163/163 285/285 164/164
f 164/164 285/285 286/286
f 164/164 286/286 165/165
f 165/165 286/286 287/287
f 165/165 287/287 166/166
f 166/166 287/287 288/288
f 166/166 288/288 167/167
f 167/167 288/288 289/289
f 167/167 289/289 168/168
f 168/168 289/289 290/290
f 168/168 290/290 169/169
f 169/169 290/290 291/291
f 169/169 291/291 170/170
f 170/170 291/291 292/292
f 170/170 292/292 171/171
f 171/171 292/292 293/293
f 171/171 293/293 172/172
f 172/172 293/293 294/294
f 172/172 294/294 173/173
f 173/173 294/294 295/295
f 173/173 295/295 174/174
f 174/174 295/295 296/296
f 174/174 296/296 175/175
f 175/175 296/296 297/297
f 175/175 297/297 176/176
f 176/176 297/297 298/298
f 176/176 298/298 177/177
f 177/177 298/298 299/299
f 177/177 299/299 178/178
f 178/178 299/299 300/300
f 178/178 300/300 179/179
f 179/179 300/300 301/301
f 179/179 301/301 180/180
f 180/180 301/301 302/302
f 180/180 302/302 181/181
f 181/181 302/302 303/303
f 181/181 303/303 182/182
f 182/182 303/303 304/304
f 182/182 304/304 183/183
f 183/183 304/304 305/305
f 183/183 305/305 184/184
f 184/184 305/305 306/306
f 184/184 306/306 185/185
f 185/185 306/306 307/307
f 185/185 307/307 186/186
f 186/186 307/307 308/308
f 186/186 308/308 187/187
f 187/187 308/308 309/309
f 187/187 309/309 188/188
f 188/188 309/309 310/310
f 188/188 310/310 189/189
f 189/189 310/310 311/311
f 189/189 311/311 190/190
f 190/190 311/311 312/312
f 190/190 312/312 191/191
f 191/191 312/312 313/313
f 191/191 313/313 192/192
f 192/192 313/313 314/314
f 192/192 314/314 193/193
f 193/193 314/314 315/315
f 193/193 315/315 194/194
f 194/194 315/315 316/316
f 194/194 316/316 195/195
f 195/195 316/316 317/317
f 195/195 317/317 196/196
f 196/196 317/317 318/318
f 196/196 318/318 197/197
f 197/197 318/318 319/319
f 197/197 319/319 198/198
f 198/198 319/319 320/320
f 198/198 320/320 199/199
f 199/199 320/320 321/321
f 199/199 321/321 200/200
f 200/200 321/321 322/322
f 200/200 322/322 201/201
f 201/201 322/322 323/323
f 201/201 323/323 202/202
f 202/202 323/323 324/324
f 202/202 324/324 203/203
f 203/203 324/324 325/325
f 203/203 325/325 204/204
f 204/204 325/325 326/326
f 204/204 326/326 205/205
f 205/205 326/326 327/327
f 205/205 327/327 206/206
f 206/206 327/327 328/328
f 206/206 328/328 207/207
f 207/207 328/328 329/329
f 207/207 329/329 208/208
f 208/208 329/329 330/330
f 208/208 330/330 209/209
f 209/209 330/330 331/331
f 209/209 331/331 210/210
f 210/210 331/331 332/332
f 210/210 332/332 211/211
f 211/211 332/332 333/333
f 211/211 333/333 212/212
f 212/212 333/333 334/334
f 212/212 334/334 213/213
f 213/213 334/334 335/335
f 213/213 335/335 214/214
f 214/214 335/335 336/336
f 214/214 336/336 215/215
f 215/215 336/336 337/337
f 215/215 337/337 216/216
f 216/216 337/337 338/338
f 216/216 338/338 217/217
f 217/217 338/338 339/339
f 217/217 339/339 218/218
f 218/218 339/339 340/340
f 218/218 340/340 219/219
f 219/219 340/340 341/341
f 219/219 341/341 220/220
f 220/220 341/341 342/342
f 220/220 342/342 221/221
f 221/221 342/342 343/343
f 221/221 343/343 222/222
f 222/222 343/343 344/344
f 222/222 344/344 223/223
f 223/223 344/344 345/345
f 223/223 345/345 224/224
f 224/224 345/345 346/346
f 224/224 346/346 225/225
f 225/225 346/346 347/347
f 225/225 347/347 226/226
f 226/226 347/347 348/348
f 226/226 348/348 227/227
f 227/227 348/348 349/349
f 227/227 349/349 228/228
f 228/228 349/349 350/350
f 228/228 350/350 229/229
f 229/229 350/350 351/351
f 229/229 351/351 230/230
f 230/230 351/351 352/352
f 230/230 352/352 231/231
f 231/231 352/352 353/353
f 231/231 353/353 232/232
f 232/232 353/353 354/354
f 232/232 354/354 233/233
f 233/233 354/354 355/355
f 233/233 355/355 234/234
f 234/234 355/355 356/356
f 234/234 356/356 235/235
f 235/235 356/356 357/357
f 235/235 357/357 236/236
f 236/236 357/357 358/358
f 236/236 358/358 237/237
f 237/237 358/358 359/359
f 237/237 359/359 238/238
f 238/238 359/359 360/360
f 238/238 360/360 239/239
f 239/239 360/360 361/361
f 239/239 361/361 240/240
f 240/240 361/361 362/362
f 240/240 362/362 241/241
f 241/241 362/362 363/363
f 241/241 363/363 242/242
f 243/243 364/364 365/365
f 243/243 365/365 244/244
f 244/244 365/365 366/366
f 244/244 366/366 245/245
f 245/245 366/366 367/367
f 245/245 367/367 246/246
f 246/246 367/367 368/368
f 246/246 368/368 247/247
f 247/247 368/368 369/369
f 247/247 369/369 248/248
f 248/248 369/369 370/370
f 248/248 370/370 249/249
f 249/249 370/370 371/371
f 249/249 371/371 250/250
f 250/250 371/371 372/372
f 250/250 372/372 251/251
f 251/251 372/372 373/373
f 251/251 373/373 252/252
f 252/252 373/373 374/374
f 252/252 374/374 253/253
f 253/253 374/374 375/375
f 253/253 375/375 254/254
f 254/254 375/375 376/376
f 254/254 376/376 255/255
f 255/255 376/376 377/377
f 255/255 377/377 256/256
f 256/256 377/377 378/378
f 256/256 378/378 257/257
f 257/257 378/378 379/379
f 257/257 379/379 258/258
f 258/258 379/379 380/380
f 258/258 380/380 259/259
f 259/259 380/380 381/381
f 259/259 381/381 260/260
f 260/260 381/381 382/382
f 260/260 382/382 261/261
f 261/261 382/382 383/383
f 261/261 383/383 262/262
f 262/262 383/383 384/384
f 262/262 384/384 263/263
f 263/263 384/384 385/385
f 263/263 385/385 264/264
f 264/264 385/385 386/386
f 264/264 386/386 265/265
f 265/265 386/386 387/387
f 265/265 387/387 266/266
f 266/266 387/387 388/388
f 266/266 388/388 267/267
f 267/267 388/388 389/389
f 267/267 389/389 268/268
f 268/268 389/389 390/390
f 268/268 390/390 269/269
f 269/269 390/390 391/391
f 269/269 391/391 270/270
f 270/270 391/391 392/392
f 270/270 392/392 271/271
f 271/271 392/392 393/393
f 271/271 393/393 272/272
f 272/272 393/393 394/394
f 272/272 394/394 273/273
f 273/273 394/394 395/395
f 273/273 395/395 274/274
f 274/274 395/395 396/396
f 274/274 396/396 275/275
f 275/275 396/396 397/397
f 275/275 397/397 276/276
f 276/276 397/397 398/398
f 276/276 398/398 277/277
f 277/277 398/398 399/399
f 277/277 399/399 278/278
f 278/278 399/399 400/400
f 278/278 400/400 279/279
f 279/279 400/400 401/401
f 279/279 401/401 280/280
f 280/280 401/401 402/402
f 280/280 402/402 281/281
f 281/281 402/402 403/403
f 281/281 403/403 282/282
f 282/282 403/403 404/404
f 282/282 404/404 283/283
f 283/283 404/404 405/405
f 283/283 405/405 284/284
f 284/284 405/405 406/406
f 284/284 406/406 285/285
f 285/285 406/406 407/407
f 285/285 407/407 286/286
f 286/286 407/407 408/408
f 286/286 408/408 287/287
f 287/287 408/408 409/409
f 287/287 409/409 288/288
f 288/288 409/409 410/410
f 288/288 410/410 289/289
f 289/289 410/410 411/411
f 289/289 411/411 290/290
f 290/290 411/411 412/412
f 290/290 412/412 291/291
f 291/291 412/412 413/413
f 291/291 413/413 292/292
f 292/292 413/413 414/414
f 292/292 414/414 293/293
f 293/293 414/414 415/415
f 293/293 415/415 294/294
f 294/294 415/415 416/416
f 294/294 416/416 295/295
f 295/295 416/416 417/417
f 295/295 417/417 296/296
f 296/296 417/417 418/418
f 296/296 418/418 297/297
f 297/297 418/418 419/419
f 297/297 419/419 298/298
f 298/298 419/419 420/420
f 298/298 420/420 299/299
f 299/299 420/420 421/421
f 299/299 421/421 300/300
f 300/300 421/421 422/422
f 300/300 422/422 301/301
f 301/301 422/422 423/423
f 301/301 423/423 302/302
f 302/302 423/423 424/424
f 302/302 424/424 303/303
f 303/303 424/424 425/425
f 303/303 425/425 304/304
f 304/304 425/425 426/426
f 304/304 426/426 305/305
f 305/305 426/426 427/427
f 305/305 427/427 306/306
f 306/306 427/427 428/428
f 306/306 428/428 307/307
f 307/307 428/428 429/429
f 307/307 429/429 308/308
f 308/308 429/429 430/430
f 308/308 430/430 309/309
f 309/309 430/430 431/431
f 309/309 431/431 310/310
f 310/310 431/431 432/432
f 310/310 432/432 311/311
f 311/311 432/432 433/433
f 311/311 433/433 312/312
f 312/312 433/433 434/434
f 312/312 434/434 313/313
f 313/313 434/434 435/435
f 313/313 435/435 314/314
f 314/314 435/435 436/436
f 314/314 436/436 315/315
f 315/315 436/436 437/437
f 315/315 437/437 316/316
f 316/316 437/437 438/438
f 316/316 438/438 317/317
f 317/317 438/438 439/439
f 317/317 439/439 318/318
f 318/318 439/439 440/440
f 318/318 440/440 319/319
f 319/319 440/440 441/441
f 319/319 441/441 320/320
f 320/320 441/441 442/442
f 320/320 442/442 321/321
f 321/321 442/442 443/443
f 321/321 443/443 322/322
f 322/322 443/443 444/444
f 322/322 444/444 323/323
f 323/323 444/444 445/445
f 323/323 445/445 324/324
f 324/324 445/445 446/446
f 324/324 446/446 325/325
f 325/325 446/446 447/447
f 325/325 447/447 326/326
f 326/326 447/447 448/448
f 326/326 448/448 327/327
f 327/327 448/448 449/449
f 327/327 449/449 328/328
f 328/328 449/449 450/450
f 328/328 450/450 329/329
f 329/329 450/450 451/451
f 329/329 451/451 330/330
f 330/330 451/451 452/452
f 330/330 452/452 331/331
f 331/331 452/452 453/453
f 331/331 453/453 332/332
f 332/332 453/453 454/454
f 332/332 454/454 333/333
f 333/333 454/454 455/455
f 333/333 455/455 334/334
f 334/334 455/455 456/456
f 334/334 456/456 335/335
f 335/335 456/456 457/457
f 335/335 457/457 336/336
f 336/336 457/457 458/458
f 336/336 458/458 337/337
f 337/337 458/458 459/459
f 337/337 459/459 338/338
f 338/338 459/459 460/460
f 338/338 460/460 339/339
f 339/339 460/460 461/461
f 339/339 461/461 340/340
f 340/340 461/461 462/462
f 340/340 462/462 341/341
f 341/341 462/462 463/463
f 341/341 463/463 342/342
f 342/342 463/463 464/464
f 342/342 464/464 343/343
f 343/343 464/464 465/465
f 343/343 465/465 344/344
f 344/344 465/465 466/466
f 344/344 466/466 345/345
f 345/345 466/466 467/467
f 345/345 467/467 346/346
f 346/346 467/467 468/468
f 346/346 468/468 347/347
f 347/347 468/468 469/469
f 347/347 469/469 348/348
f 348/348 469/469 470/470
f 348/348 470/470 349/349
f 349/349 470/470 471/471
f 349/349 471/471 350/350
f 350/350 471/471 472/472
f 350/350 472/472 351/351
f 351/351 472/472 473/473
f 351/351 473/473 352/352
f 352/352 473/473 474/474
f 352/352 474/474 353/353
f 353/353 474/474 475/475
f 353/353 475/475 354/354
f 354/354 475/475 476/476
f 354/354 476/476 355/355
f 355/355 476/476 477/477
f 355/355 477/477 356/356
f 356/356 477/477 478/478
f 356/356 478/478 357/357
f 357/357 478/478 479/479
f 357/357 479/479 358/358
f 358/358 479/479 480/480
f 358/358 480/480 359/359
f 359/359 480/480 481/481
f 359/359 481/481 360/360
f 360/360 481/481 482/482
f 360/360 482/482 361/361
f 361/361 482/482 483/483
f 361/361 483/483 362/362
f 362/362 483/483 484/484
f 362/362 484/484 363/363
f 364/364 485/485 486/486
f 364/364 486/486 365/365
f 365/365 486/486 487/487
f 365/365 487/487 366/366
f 366/366 487/487 488/488
f 366/366 488/488 367/367
f 367/367 488/488 489/489
f 367/367 489/489 368/368
f 368/368 489/489 490/490
f 368/368 490/490 369/369
f 369/369 490/490 491/491
f 369/369 491/491 370/370
f 370/370 491/491 492/492
f 370/370 492/492 371/371
f 371/371 492/492 493/493
f 371/371 493/493 372/372
f 372/372 493/493 494/494
f 372/372 494/494 373/373
f 373/373 494/494 495/495
f 373/373 495/495 374/374
f 374/374 495/495 496/496
f 374/374 496/496 375/375
f 375/375 496/496 497/497
f 375/375 497/497 376/376
f 376/376 497/497 498/498
f 376/376 498/498 377/377
f 377/377 498/498 499/499
f 377/377 499/499 378/378
f 378/378 499/499 500/500
f 378/378 500/500 379/379
f 379/379 500/500 501/501
f 379/379 501/501 380/380
f 380/380 501/501 502/502
f 380/380 502/502 381/381
f 381/381 502/502 503/503
f 381/381 503/503 382/382
f 382/382 503/503 504/504
f 382/382 504/504 383/383
f 383/383 504/504 505/505
f 383/383 505/505 384/384
f 384/384 505/505 506/506
f 384/384 506/506 385/385
f 385/385 506/506 507/507
f 385/385 507/507 386/386
f 386/386 507/507 508/508
f 386/386 508/508 387/387
f 387/387 508/508 509/509
f 387/387 509/509 388/388
f 388/388 509/509 510/510
f 388/388 510/510 389/389
f 389/389 510/510 511/511
f 389/389 511/511 390/390
f 390/390 511/511 512/512
f 390/390 512/512 391/391
f 391/391 512/512 513/513
f 391/391 513/513 392/392
f 392/392 513/513 514/514
f 392/392 514/514 393/393
f 393/393 514/514 515/515
f 393/393 515/515 394/394
f 394/394 515/515 516/516
f 394/394 516/516 395/395
f 395/395 516/516 517/517
f 395/395 517/517 396/396
f 396/396 517/517 518/518
f 396/396 518/518 397/397
f 397/397 518/518 519/519
f 397/397 519/519 398/398
f 398/398 519/519 520/520
f 398/398 520/520 399/399
f 399/399 520/520 521/521
f 399/399 521/521 400/400
f 400/400 521/521 522/522
f 400/400 522/522 401/401
f 401/401 522/522 523/523
f 401/401 523/523 402/402
f 402/402 523/523 524/524
f 402/402 524/524 403/403
f 403/403 524/524 525/525
f 403/403 525/525 404/404
f 404/404 525/525 526/526
f 404/404 526/526 405/405
f 405/405 526/526 527/527
f 405/405 527/527 406/406
f 406/406 527/527 528/528
f 406/406 528/528 407/407
f 407/407 528/528 529/529
f 407/407 529/529 408/408
f 408/408 529/529 530/530
f 408/408 530/530 409/409
f 409/409 530/530 531/531
f 409/409 531/531 410/410
f 410/410 531/531 532/532
f 410/410 532/532 411/411
f 411/411 532/532 533/533
f 411/411 533/533 412/412
f 412/412 533/533 534/534
f 412/412 534/534 413/413
f 413/413 534/534 535/535
f 413/413 535/535 414/414
f 414/414 535/535 536/536
f 414/414 536/536 415/415
f 415/415 536/536 537/537
f 415/415 537/537 416/416
f 416/416 537/537 538/538
f 416/416 538/538 417/417
f 417/417 538/538 539/539
f 417/417 539/539 418/418
f 418/418 539/539 540/540
f 418/418 540/540 419/419
f 419/419 540/540 541/541
f 419/419 541/541 420/420
f 420/420 541/541 542/542
f 420/420 542/542 421/421
f 421/421 542/542 543/543
f 421/421 543/543 422/422
f 422/422 543/543 544/544
f 422/422 544/544 423/423
f 423/423 544/544 545/545
f 423/423 545/545 424/424
f 424/424 545/545 546/546
f 424/424 546/546 425/425
f 425/425 546/546 547/547
f 425/425 547/547 426/426
f 426/426 547/547 548/548
f 426/426 548/548 427/427
f 427/427 548/548 549/549
f 427/427 549/549 428/428
f 428/428 549/549 550/550
f 428/428 550/550 429/429
f 429/429 550/550 551/551
f 429/429 551/551 430/430
f 430/430 551/551 552/552
f 430/430 552/552 431/431
f 431/431 552/552 553/553
f 431/431 553/553 432/432
f 432/432 553/553 554/554
f 432/432 554/554 433/433
f 433/433 554/554 555/555
f 433/433 555/555 434/434
f 434/434 555/555 556/556
f 434/434 556/556 435/435
f 435/435 556/556 557/557
f 435/435 557/557 436/436
f 436/436 557/557 558/558
f 436/436 558/558 437/437
f 437/437 558/558 559/559
f 437/437 559/559 438/438
f 438/438 559/559 560/560
f 438/438 560/560 439/439
f 439/439 560/560 561/561
f 439/439 561/561 440/440
f 440/440 561/561 562/562
f 440/440 562/562 441/441
f 441/441 562/562 563/563
f 441/441 563/563 442/442
f 442/442 563/563 564/564
f 442/442 564/564 443/443
f 443/443 564/564 565/565
f 443/443 565/565 444/444
f 444/444 565/565 566/566
f 444/444 566/566 445/445
f 445/445 566/566 567/567
f 445/445 567/567 446/446
f 446/446 567/567 568/568
f 446/446 568/568 447/447
f 447/447 568/568 569/569
f 447/447 569/569 448/448
f 448/448 569/569 570/570
f 448/448 570/570 449/449
f 449/449 570/570 571/571
f 449/449 571/571 450/450
f 450/450 571/571 572/572
f 450/450 572/572 451/451
f 451/451 572/572 573/573
f 451/451 573/573 452/452
f 452/452 573/573 574/574
f 452/452 574/574 453/453
f 453/453 574/574 575/575
f 453/453 575/575 454/454
f 454/454 575/575 576/576
f 454/454 576/576 455/455
f 455/455 576/576 577/577
f 455/455 577/577 456/456
f 456/456 577/577 578/578
f 456/456 578/578 457/457
f 457/457 578/578 579/579
f 457/457 579/579 458/458
f 458/458 579/579 580/580
f 458/458 580/580 459/459
f 459/459 580/580 581/581
f 459/459 581/581 460/460
f 460/460 581/581 582/582
f 460/460 582/582 461/461
f 461/461 582/582 583/583
f 461/461 583/583 462/462
f 462/462 583/583 584/584
f 462/462 584/584 463/463
f 463/463 584/584 585/585
f 463/463 585/585 464/464
f 464/464 585/585 586/586
f 464/464 586/586 465/465
f 465/465 586/586 587/587
f 465/465 587/587 466/466
f 466/466 587/587 588/588
f 466/466 588/588 467/467
f 467/467 588/588 589/589
f 467/467 589/589 468/468
f 468/468 589/589 590/590
f 468/468 590/590 469/469
f 469/469 590/590 591/591
f 469/469 591/591 470/470
f 470/470 591/591 592/592
f 470/470 592/592 471/471
f 471/471 592/592 593/593
f 471/471 593/593 472/472
f 472/472 593/593 594/594
f 472/472 594/594 473/473
f 473/473 594/594 595/595
f 473/473 595/595 474/474
f 474/474 595/595 596/596
f 474/474 596/596 475/475
f 475/475 596/596 597/597
f 475/475 597/597 476/476
f 476/476 597/597 598/598
f 476/476 598/598 477/477
f 477/477 598/598 599/599
f 477/477 599/599 478/478
f 478/478 599/599 600/600
f 478/478 600/600 479/479
f 479/479 600/600 601/601
f 479/479 601/601 480/480
f 480/480 601/601 602/602
f 480/480 602/602 481/481
f 481/481 602/602 603/603
f 481/481 603/603 482/482
f 482/482 603/603 604/604
f 482/482 604/604 483/483
f 483/483 604/604 605/605
f 483/483 605/605 484/484
f 485/485 606/606 607/607
f 485/485 607/607 486/486
f 486/486 607/607 608/608
f 486/486 608/608 487/487
f 487/487 608/608 609/609
f 487/487 609/609 488/488
f 488/488 609/609 610/610
f 488/488 610/610 489/489
f 489/489 610/610 611/611
f 489/489 611/611 490/490
f 490/490 611/611 612/612
f 490/490 612/612 491/491
f 491/491 612/612 613/613
f 491/491 613/613 492/492
f 492/492 613/613 614/614
f 492/492 614/614 493/493
f 493/493 614/614 615/615
f 493/493 615/615 494/494
f 494/494 615/615 616/616
f 494/494 616/616 495/495
f 495/495 616/616 617/617
f 495/495 617/617 496/496
f 496/496 617/617 618/618
f 496/496 618/618 497/497
f 497/497 618/618 619/619
f 497/497 619/619 498/498
f 498/498 619/619 620/620
f 498/498 620/620 499/499
f 499/499 620/620 621/621
f 499/499 621/621 500/500
f 500/500 621/621 622/622
f 500/500 622/622 501/501
f 501/501 622/622 623/623
f 501/501 623/623 502/502
f 502/502 623/623 624/624
f 502/502 624/624 503/503
f 503/503 624/624 625/625
f 503/503 625/625 504/504
f 504/504 625/625 626/626
f 504/504 626/626 505/505
f 505/505 626/626 627/627
f 505/505 627/627 506/506
f 506/506 627/627 628/628
f 506/506 628/628 507/507
f 507/507 628/628 629/629
f 507/507 629/629 508/508
f 508/508 629/629 630/630
f 508/508 630/630 509/509
f 509/509 630/630 631/631
f 509/509 631/631 510/510
f 510/510 631/631 632/632
f 510/510 632/632 511/511
f 511/511 632/632 633/633
f 511/511 633/633 512/512
f 512/512 633/633 634/634
f 512/512 634/634 513/513
f 513/513 634/634 635/635
f 513/513 635/635 514/514
f 514/514 635/635 636/636
f 514/514 636/636 515/515
f 515/515 636/636 637/637
f 515/515 637/637 516/516
f 516/516 637/637 638/638
f 516/516 638/638 517/517
f 517/517 638/638 639/639
f 517/517 639/639 518/518
f 518/518 639/639 640/640
f 518/518 640/640 519/519
f 519/519 640/640 641/641
f 519/519 641/641 520/520
f 520/520 641/641 642/642
f 520/520 642/642 521/521
f 521/521 642/642 643/643
f 521/521 643/643 522/522
f 522/522 643/643 644/644
f 522/522 644/644 523/523
f 523/523 644/644 645/645
f 523/523 645/645 524/524
f 524/524 645/645 646/646
f 524/524 646/646 525/525
f 525/525 646/646 647/647
f 525/525 647/647 526/526
f 526/526 647/647 648/648
f 526/526 648/648 527/527
f 527/527 648/648 649/649
f 527/527 649/649 528/528
f 528/528 649/649 650/650
f 528/528 650/650 529/529
f 529/529 650/650 651/651
f 529/529 651/651 530/530
f 530/530 651/651 652/652
f 530/530 652/652 531/531
f 531/531 652/652 653/653
f 531/531 653/653 532/532
f 532/532 653/653 654/654
f 532/532 654/654 533/533
f 533/533 654/654 655/655
f 533/533 655/655 534/534
f 534/534 655/655 656/656
f 534/534 656/656 535/535
f 535/535 656/656 657/657
f 535/535 657/657 536/536
f 536/536 657/657 658/658
f 536/536 658/658 537/537
f 537/537 658/658 659/659
f 537/537 659/659 538/538
f 538/538 659/659 660/660
f 538/538 660/660 539/539
f 539/539 660/660 661/661
f 539/539 661/661 540/540
f 540/540 661/661 662/662
f 540/540 662/662 541/541
f 541/541 662/662 663/663
f 541/541 663/663 542/542
f 542/542 663/663 664/664
f 542/542 664/664 543/543
f 543/543 664/664 665/665
f 543/543 665/665 544/544
f 544/544 665/665 666/666
f 544/544 666/666 545/545
f 545/545 666/666 667/667
f 545/545 667/667 546/546
f 546/546 667/667 668/668
f 546/546 668/668 547/547
f 547/547 668/668 669/669
f 547/547 669/669 548/548
f 548/548 669/669 670/670
f 548/548 670/670 549/549
f 549/549 670/670 671/671
f 549/549 671/671 550/550
f 550/550 671/671 672/672
f 550/550 672/672 551/551
f 551/551 672/672 673/673
f 551/551 673/673 552/552
f 552/552 673/673 674/674
f 552/552 674/674 553/553
f 553/553 674/674 675/675
f 553/553 675/675 554/554
f 554/554 675/675 676/676
f 554/554 676/676 555/555
f 555/555 676/676 677/677
f 555/555 677/677 556/556
f 556/556 677/677 678/678
f 556/556 678/678 557/557
f 557/557 678/678 679/679
f 557/557 679/679 558/558
f 558/558 679/679 680/680
f 558/558 680/680 559/559
f 559/559 680/680 681/681
f 559/559 681/681 560/560
f 560/560 681/681 682/682
f 560/560 682/682 561/561
f 561/561 682/682 683/683
f 561/561 683/683 562/562
f 562/562 683/683 684/684
f 562/562 684/684 563/563
f 563/563 684/684 685/685
f 563/563 685/685 564/564
f 564/564 685/685 686/686
f 564/564 686/686 565/565
f 565/565 686/686 687/687
f 565/565 687/687 566/566
f 566/566 687/687 688/688
f 566/566 688/688 567/567
f 567/567 688/688 689/689
f 567/567 689/689 568/568
f 568/568 689/689 690/690
f 568/568 690/690 569/569
f 569/569 690/690 691/691
f 569/569 691/691 570/570
f 570/570 691/691 692/692
f 570/570 692/692 571/571
f 571/571 692/692 693/693
f 571/571 693/693 572/572
f 572/572 693/693 694/694
f 572/572 694/694 573/573
f 573/573 694/694 695/695
f 573/573 695/695 574/574
f 574/574 695/695 696/696
f 574/574 696/696 575/575
f 575/575 696/696 697/697
f 575/575 697/697 576/576
f 576/576 697/697 698/698
f 576/576 698/698 577/577
f 577/577 698/698 699/699
f 577/577 699/699 578/578
f 578/578 699/699 700/700
f 578/578 700/700 579/579
f 579/579 700/700 701/701
f 579/579 701/701 580/580
f 580/580 701/701 702/702
f 580/580 702/702 581/581
f 581/581 702/702 703/703
f 581/581 703/703 582/582
f 582/582 703/703 704/704
f 582/582 704/704 583/583
f 583/583 704/704 705/705
f 583/583 705/705 584/584
f 584/584 705/705 706/706
f 584/584 706/706 585/585
f 585/585 706/706 707/707
f 585/585 707/707 586/586
f 586/586 707/707 708/708
f 586/586 708/708 587/587
f 587/587 708/708 709/709
f 587/587 709/709 588/588
f 588/588 709/709 710/710
f 588/588 710/710 589/589
f 589/589 710/710 711/711
f 589/589 711/711 590/590
f 590/590 711/711 712/712
f 590/590 712/712 591/591
f 591/591 712/712 713/713
f 591/591 713/713 592/592
f 592/592 713/713 714/714
f 592/592 714/714 593/593
f 593/593 714/714 715/715
f 593/593 715/715 594/594
f 594/594 715/715 716/716
f 594/594 716/716 595/595
f 595/595 716/716 717/717
f 595/595 717/717 596/596
f 596/596 717/717 718/718
f 596/596 718/718 597/597
f 597/597 718/718 719/719
f 597/597 719/719 598/598
f 598/598 719/719 720/720
f 598/598 720/720 599/599
f 599/599 720/720 721/721
f 599/599 721/721 600/600
f 600/600 721/721 722/722
f 600/600 722/722 601/601
f 601/601 722/722 723/723
f 601/601 723/723 602/602
f 602/602 723/723 724/724
f 602/602 724/724 603/603
f 603/603 724/724 725/725
f 603/603 725/725 604/604
f 604/604 725/725 726/726
f 604/604 726/726 605/605
