# Basketbroom original 3D environment. Centimetres, Z up.
o SM_BB_ENV_RR_AlcoveBed0
s 1
v 52151.89803 1404.33926 -1890.34280
v 52792.56057 2155.57943 -1870.90268
v 53410.49907 2922.65208 -1850.05728
v 53828.73407 3709.00455 -1828.21975
v 53966.46998 4507.25781 -1805.82291
v 53864.94032 5306.63716 -1783.31066
v 53668.22165 6101.48394 -1761.12919
v 53565.99341 6896.53977 -1739.71813
v 53718.68843 7706.23260 -1719.50186
v 54191.73697 8547.97912 -1700.88105
v 54922.45344 9432.35366 -1684.22477
v 55731.67347 10354.63027 -1669.86314
v 56376.56834 11291.92769 -1658.08081
v 56626.67260 12208.02107 -1649.11131
v 56337.10793 13064.67378 -1643.13240
v 55494.05492 13835.40096 -1640.26260
v 54217.26875 14516.16539 -1640.55877
v 52719.35997 15128.30708 -1644.01506
v 51236.39010 15711.82663 -1650.56295
v 49953.88401 16310.94337 -1660.07267
v 48953.38227 16957.14171 -1672.35573
v 48196.93928 17656.33375 -1687.16869
v 47553.38141 18385.61244 -1704.21796
v 46855.55186 19101.64183 -1723.16562
v 45967.31401 19758.24693 -1743.63612
v 44836.33037 20326.92658 -1765.22376
v 43514.35572 20812.36722 -1787.50065
v 42138.74993 21256.36209 -1810.02528
v 40882.75496 21727.51161 -1832.35121
v 39892.86800 22299.32909 -1854.03595
v 39235.67135 23023.97252 -1874.64969
v 38872.53329 23910.98549 -1893.78389
v 38670.31365 24919.20529 -1911.05930
v 38443.42203 25965.66388 -1926.13352
v 38011.87582 26949.32421 -1938.70779
v 37255.08255 27782.00185 -1948.53289
v 36143.43702 28415.87222 -1955.41408
v 34738.34550 28857.75312 -1959.21497
v 33162.68931 29164.74272 -1959.86025
v 31553.85249 29422.31768 -1957.33710
v 30016.73891 29712.34897 -1951.69556
v 28593.04718 30082.35339 -1943.04742
v 27256.21013 30527.18076 -1931.56409
v 25931.60860 30990.15640 -1917.47318
v 24532.63051 31383.85121 -1901.05396
v 22998.09663 31623.53764 -1882.63186
v 21317.11982 31661.57470 -1862.57201
v 19533.07646 31510.24749 -1841.27198
v 17726.67769 31244.33145 -1819.15395
v 15985.89513 30981.62337 -1796.65629
v 14374.85779 30847.45753 -1774.22490
v 12913.36443 30935.04424 -1752.30437
v 11573.82062 31275.21630 -1731.32917
v 10295.31501 31826.15097 -1711.71501
v 9008.05249 32486.84453 -1693.85065
v 7657.93800 33129.90698 -1678.09017
v 6221.91000 33642.50221 -1664.74592
v 4709.09661 33961.38289 -1654.08239
v 3149.02353 34090.00650 -1646.31094
v 1573.36670 34091.98439 -1641.58559
v 0.00000 34063.41844 -1640.00000
v -1573.47988 34094.09778 -1641.58559
v -3164.18482 34231.44000 -1646.31094
v -4789.39145 34460.07942 -1654.08239
v -6450.31774 34704.47248 -1664.74592
v -8122.50746 34853.75763 -1678.09017
v -9758.39962 34800.24582 -1693.85065
v -11302.34132 34478.09544 -1711.71501
v -12712.59651 33888.63346 -1731.32917
v -13981.25750 33103.43525 -1752.30437
v -15143.04230 32244.01275 -1774.22490
v -16267.92714 31445.05052 -1796.65629
v -17438.96761 30813.73577 -1819.15395
v -18722.97252 30398.91671 -1841.27198
v -20145.28756 30180.23085 -1862.57201
v -21679.17017 30080.29508 -1882.63186
v -23255.12886 29995.05920 -1901.05396
v -24787.94952 29831.30376 -1917.47318
v -26211.84967 29538.11376 -1931.56409
v -27510.22231 29121.65009 -1943.04742
v -28727.54549 28638.69308 -1951.69556
v -29957.12854 28172.00157 -1957.33710
v -31307.37091 27796.82504 -1959.86025
v -32857.80394 27550.74654 -1959.21497
v -34621.02107 27417.51560 -1955.41408
v -36525.59452 27330.31050 -1948.53289
v -38428.26368 27192.89283 -1938.70779
v -40153.31301 26910.89583 -1926.13352
v -41546.84481 26422.18695 -1911.05930
v -42527.42756 25715.93056 -1893.78389
v -43114.88388 24834.26650 -1874.64969
v -43425.97951 23856.76961 -1854.03595
v -43637.20509 22873.78331 -1832.35121
v -43926.69146 21958.25038 -1810.02528
v -44415.23789 21145.65243 -1787.50065
v -45127.40964 20428.28604 -1765.22376
v -45987.07053 19764.71285 -1743.63612
v -46849.69986 19099.84490 -1723.16562
v -47560.59562 18387.68652 -1704.21796
v -48018.35970 17608.37991 -1687.16869
v -48220.52025 16773.85508 -1672.35573
v -48273.89955 15920.93149 -1660.07267
v -48364.53285 15095.38862 -1650.56295
v -48696.35950 14333.59750 -1644.01506
v -49419.41264 13648.74504 -1640.55877
v -50572.62584 13026.48358 -1640.26260
v -52061.92138 12430.97964 -1643.13240
v -53682.34575 11818.36875 -1649.11131
v -55177.76931 11152.05470 -1658.08081
v -56318.42926 10414.01564 -1669.86314
v -56970.09646 9608.26370 -1684.22477
v -57131.28055 8755.94470 -1700.88105
v -56925.82878 7884.87369 -1719.50186
v -56553.73618 7018.27246 -1739.71813
v -56217.54515 6167.38943 -1761.12919
v -56050.22297 5330.67841 -1783.31066
v -56069.83509 4499.19819 -1805.82291
v -56176.84717 3665.16274 -1828.21975
v -56194.81747 2829.26578 -1850.05728
v -55939.89370 2003.05142 -1870.90268
v -55294.32247 1204.91218 -1890.34280
v 47811.39531 1679.79976 -1330.34280
v 48600.67203 2358.72933 -1310.90268
v 49455.01147 3055.31951 -1290.05728
v 50160.57399 3777.49307 -1268.21975
v 50580.43974 4520.23232 -1245.82291
v 50696.86344 5271.78375 -1223.31066
v 50609.89376 6022.41960 -1201.12919
v 50493.31602 6771.34650 -1179.71813
v 50523.91759 7528.28051 -1159.50186
v 50809.45482 8308.69087 -1140.88105
v 51341.12010 9124.68650 -1124.22477
v 51987.63793 9975.69761 -1109.86314
v 52533.44272 10843.52103 -1098.08081
v 52747.89770 11694.70387 -1089.11131
v 52461.65500 12490.23059 -1083.13240
v 51623.81815 13199.26423 -1080.26260
v 50320.34024 13811.62673 -1080.55877
v 48747.61719 14343.72302 -1084.01506
v 47150.70946 14834.84402 -1090.56295
v 45747.61166 15334.44849 -1100.07267
v 44665.35319 15884.71828 -1112.35573
v 43909.05568 16504.91153 -1127.16869
v 43373.19124 17183.81040 -1144.21796
v 42889.47792 17883.80809 -1163.16562
v 42293.35910 18555.83343 -1183.63612
v 41485.15739 19159.98304 -1205.22376
v 40464.65606 19684.11779 -1227.50065
v 39327.88121 20152.90550 -1250.02528
v 38228.51222 20622.94149 -1272.35121
v 37318.72995 21164.61628 -1294.03595
v 36691.10079 21836.50968 -1314.64969
v 36342.07034 22661.33331 -1333.78389
v 36169.41455 23612.49060 -1351.05930
v 36003.70767 24616.98375 -1366.13352
v 35661.99072 25574.74457 -1378.70779
v 35004.53696 26388.48761 -1388.53289
v 33975.30775 26994.07537 -1395.41408
v 32613.20028 27380.74307 -1399.21497
v 31031.91776 27593.73470 -1399.86025
v 29377.25602 27717.93187 -1397.33710
v 27777.89946 27847.81636 -1391.69556
v 26307.03970 28054.16305 -1383.04742
v 24967.15348 28359.31776 -1371.56409
v 23701.21801 28730.13497 -1357.47318
v 22423.98952 29091.51464 -1341.05396
v 21060.24772 29356.10953 -1322.63186
v 19575.38625 29459.80368 -1302.57201
v 17987.65311 29390.17815 -1281.27198
v 16358.93899 29197.33201 -1259.15395
v 14769.23963 28982.44889 -1236.65629
v 13285.67100 28867.32195 -1214.22490
v 11938.18554 28954.91235 -1192.30437
v 10710.71638 29294.44781 -1171.32917
v 9549.95316 29863.28442 -1151.71501
v 8387.01907 30572.13138 -1133.85065
v 7162.68631 31292.20555 -1118.09017
v 5846.11268 31895.25153 -1104.74592
v 4440.44480 32292.83563 -1094.08239
v 2974.45468 32461.52457 -1086.31094
v 1485.18505 32445.45460 -1081.58559
v 0.00000 32335.68391 -1080.00000
v -1473.85134 32233.83128 -1081.58559
v -2947.81130 32212.97934 -1086.31094
v -4439.94425 32289.72679 -1094.08239
v -5958.39266 32417.29163 -1104.74592
v -7488.74784 32502.10296 -1118.09017
v -8992.21343 32438.01099 -1133.85065
v -10416.78038 32146.02287 -1151.71501
v -11717.74788 31605.52007 -1171.32917
v -12879.31277 30865.90127 -1192.30437
v -13927.65512 30034.44554 -1214.22490
v -14928.70240 29244.47367 -1236.65629
v -15969.63324 28614.68516 -1259.15395
v -17129.91230 28213.49733 -1281.27198
v -18452.49174 28040.32331 -1302.57201
v -19926.65611 28029.72260 -1322.63186
v -21490.22132 28076.40063 -1341.05396
v -23051.64786 28071.93526 -1357.47318
v -24524.74394 27940.33150 -1371.56409
v -25863.11126 27660.30109 -1383.04742
v -27080.66229 27267.14879 -1391.69556
v -28249.03304 26834.47585 -1397.33710
v -29471.10381 26442.95379 -1399.86025
v -30839.09915 26147.71429 -1399.21497
v -32392.34268 25956.01238 -1395.41408
v -34090.99537 25822.83223 -1388.53289
v -35817.21641 25665.54478 -1378.70779
v -37405.65943 25391.98615 -1366.13352
v -38694.39298 24931.78669 -1351.05930
v -39579.20370 24259.96994 -1333.78389
v -40051.97631 23404.91374 -1314.64969
v -40208.57139 22438.49516 -1294.03595
v -40221.91666 21452.50201 -1272.35121
v -40288.34492 20529.95264 -1250.02528
v -40565.11920 19721.28456 -1227.50065
v -41120.86936 19033.13087 -1205.22376
v -41916.72225 18432.56757 -1183.63612
v -42825.40994 17864.13519 -1163.16562
v -43682.18694 17272.64646 -1144.21796
v -44349.76578 16623.25509 -1127.16869
v -44773.95230 15911.87860 -1112.35573
v -45009.39739 15163.07051 -1100.07267
v -45205.11524 14417.22639 -1090.56295
v -45553.65286 13712.78249 -1084.01506
v -46221.00823 13070.49488 -1080.55877
v -47281.81312 12485.58467 -1080.26260
v -48683.13207 11930.15495 -1083.13240
v -50250.71432 11364.22653 -1089.11131
v -51736.90076 10750.58242 -1098.08081
v -52894.74898 10067.50604 -1109.86314
v -53553.49620 9314.74852 -1124.22477
v -53669.65338 8511.04298 -1140.88105
v -53336.21497 7684.92843 -1159.50186
v -52746.87779 6863.16570 -1179.71813
v -52127.75728 6061.65963 -1201.12919
v -51660.37743 5282.38379 -1223.31066
v -51422.69148 4517.00500 -1245.82291
v -51368.48337 3754.94009 -1268.21975
v -51351.94500 2991.69618 -1290.05728
v -51188.29236 2233.32647 -1310.90268
v -50728.59451 1494.66610 -1330.34280
v 48687.44600 1624.20312 -770.34280
v 49608.76011 2309.87474 -750.90268
v 50669.33747 3014.59090 -730.05728
v 51629.40319 3750.06844 -708.21975
v 52303.27750 4513.63079 -685.82291
v 52615.89240 5292.89583 -663.31066
v 52619.23231 6074.36532 -641.12919
v 52463.59426 6851.62358 -619.71813
v 52334.42727 7629.12780 -599.50186
v 52377.54321 8419.62932 -580.88105
v 52639.46333 9236.22528 -564.22477
v 53044.20037 10082.63196 -549.86314
v 53414.83720 10946.36002 -538.08081
v 53532.43976 11798.53019 -529.11131
v 53211.71878 12601.40960 -523.13240
v 52367.02823 13321.42297 -520.26260
v 51045.74817 13942.77564 -520.55877
v 49417.55011 14476.06258 -524.01506
v 47723.38697 14957.76803 -530.56295
v 46201.87069 15439.90567 -540.07267
v 45018.18660 15972.96088 -552.35573
v 44219.33012 16588.22930 -567.16869
v 43729.87165 17286.35579 -584.21796
v 43388.16929 18036.93765 -603.16562
v 43009.04865 18790.06460 -623.63612
v 42450.30547 19496.06635 -645.22376
v 41659.85849 20126.28804 -667.50065
v 40687.95361 20686.82615 -690.02528
v 39661.61021 21219.32900 -712.35121
v 38731.85856 21787.54135 -734.03595
v 38013.52810 22453.64065 -754.64969
v 37539.29664 23252.57550 -773.78389
v 37243.94981 24173.93309 -791.05930
v 36983.62345 25158.68361 -806.13352
v 36582.34461 26113.11120 -818.70779
v 35888.89785 26936.07460 -828.53289
v 34824.08604 27550.67978 -835.41408
v 33402.62303 27929.40455 -839.21497
v 31723.41600 28103.57316 -839.86025
v 29933.26084 28153.31194 -837.33710
v 28177.90517 28180.94595 -831.69556
v 26557.96964 28276.79297 -823.04742
v 25104.37345 28489.27264 -811.56409
v 23780.04317 28810.00733 -797.47318
v 22504.89938 29179.47301 -781.05396
v 21193.05549 29511.50456 -762.63186
v 19787.64915 29728.13076 -742.57201
v 18280.76682 29792.28245 -721.27198
v 16712.42338 29726.36752 -699.15395
v 15150.83705 29609.47915 -676.65629
v 13663.09773 29553.48167 -654.22490
v 12288.27529 29665.78078 -632.30437
v 11023.17919 30011.52977 -611.32917
v 9825.35483 30588.53850 -591.71501
v 8630.87888 31323.97753 -573.85065
v 7378.90508 32094.51585 -558.09017
v 6032.83176 32763.39248 -544.74592
v 4590.04430 33221.97078 -534.08239
v 3077.38095 33421.68192 -526.31094
v 1535.53257 33385.54458 -521.58559
v 0.00000 33195.52523 -520.00000
v -1512.76351 32960.40032 -521.58559
v -3008.11702 32775.54685 -526.31094
v -4504.20455 32688.83577 -534.08239
v -6015.87839 32684.56865 -544.74592
v -7539.64778 32690.97438 -558.09017
v -9047.49248 32608.44229 -573.85065
v -10493.61258 32348.35593 -591.71501
v -11832.41679 31868.67783 -611.32917
v -13040.70354 31193.61039 -632.30437
v -14134.38559 30410.28040 -654.22490
v -15171.51514 29643.45681 -676.65629
v -16238.42302 29016.96414 -699.15395
v -17422.59952 28615.01657 -721.27198
v -18781.79642 28456.60599 -742.57201
v -20321.24512 28491.42125 -762.63186
v -21988.64975 28618.24996 -781.05396
v -23690.32133 28719.09353 -797.47318
v -25323.72569 28697.01132 -811.56409
v -26814.92794 28504.77138 -823.04742
v -28146.69624 28154.95478 -831.69556
v -29365.69976 27708.88273 -837.33710
v -30564.58918 27249.17550 -839.86025
v -31844.21062 26846.28290 -839.21497
v -33269.24768 26531.06147 -835.41408
v -34834.03874 26282.91689 -828.53289
v -36452.59499 26037.21336 -818.70779
v -37978.63611 25708.72907 -806.13352
v -39250.56524 25222.38556 -791.05930
v -40146.67566 24540.21217 -773.78389
v -40631.18087 23675.20843 -754.64969
v -40773.87963 22687.69023 -734.03595
v -40734.91078 21665.98587 -712.35121
v -40718.22168 20698.70842 -690.02528
v -40908.75437 19848.41386 -667.50065
v -41414.75269 19135.46675 -645.22376
v -42235.49712 18536.89634 -623.63612
v -43266.31809 17999.52168 -603.16562
v -44339.75084 17461.69567 -584.21796
v -45288.73890 16875.39685 -567.16869
v -46009.55399 16220.89894 -552.35573
v -46501.68192 15509.50747 -540.07267
v -46869.68332 14774.52237 -530.56295
v -47285.38138 14054.87075 -524.01506
v -47922.99058 13378.20192 -520.55877
v -48889.87625 12749.89615 -520.26260
v -50177.81880 12151.70650 -523.13240
v -51653.00324 11549.80549 -529.11131
v -53089.66546 10908.41976 -538.08081
v -54237.01933 10203.35679 -549.86314
v -54897.17186 9430.18175 -564.22477
v -54987.48880 8604.27664 -580.88105
v -54565.90393 7753.42340 -599.50186
v -53810.30042 6906.49382 -619.71813
v -52958.94126 6083.14752 -641.12919
v -52232.42599 5288.67715 -663.31066
v -51764.03274 4515.69705 -685.82291
v -51562.29378 3751.32144 -708.21975
v -51518.29030 2986.11694 -730.05728
v -51454.43099 2220.42870 -750.90268
v -51196.93883 1464.94365 -770.34280
v 48642.56851 1627.05117 -210.34280
v 49649.76013 2307.88777 -190.90268
v 50858.26883 3008.25412 -170.05728
v 52014.91030 3742.87060 -148.21975
v 52895.30754 4511.36226 -125.82291
v 53371.79168 5301.21181 -103.31066
v 53446.77500 6095.75907 -81.12919
v 53240.68929 6883.28557 -59.71813
v 52939.47665 7662.82969 -39.50186
v 52720.70551 8443.90722 -20.88105
v 52684.70975 9240.11234 -4.22477
v 52815.16246 10059.45111 10.13686
v 52982.93932 10895.96721 21.91919
v 52991.76361 11726.97709 30.88869
v 52649.39139 12518.05802 36.86760
v 51839.17065 13234.66094 39.73740
v 50566.78198 13856.18175 39.44123
v 48965.76873 14386.81700 35.98494
v 47259.91151 14858.28401 29.43705
v 45695.46601 15322.34277 19.92733
v 44466.51733 15834.99002 7.64427
v 43658.70215 16437.68428 -7.16869
v 43229.75190 17142.57168 -24.21796
v 43032.25937 17927.65096 -43.16562
v 42869.45636 18744.37878 -63.63612
v 42563.75258 19535.57084 -85.22376
v 42014.09525 20257.33944 -107.50065
v 41222.95890 20896.85200 -130.02528
v 40285.06189 21478.78006 -152.35121
v 39343.57482 22057.19367 -174.03595
v 38530.75924 22695.01448 -194.64969
v 37914.80267 23438.01664 -213.78389
v 37471.60924 24292.88467 -231.05930
v 37090.79799 25217.92997 -246.13352
v 36612.74441 26130.89375 -258.70779
v 35882.67354 26932.22057 -268.53289
v 34802.34760 27536.42433 -275.41408
v 33361.50950 27900.82999 -279.21497
v 31639.07902 28041.39189 -279.86025
v 29775.10128 28029.46496 -277.33710
v 27924.56398 27969.96034 -271.69556
v 26209.87343 27967.95524 -263.04742
v 24688.20904 28095.14197 -251.56409
v 23343.69289 28367.86012 -237.47318
v 22104.88386 28744.60989 -221.05396
v 20879.11141 29144.16651 -202.63186
v 19589.83547 29478.06932 -182.57201
v 18203.27442 29685.97549 -161.27198
v 16735.62742 29761.09540 -139.15395
v 15240.13475 29756.21066 -116.65629
v 13780.83997 29767.53642 -94.22490
v 12404.39951 29901.57471 -72.30437
v 11121.12859 30236.31732 -51.32917
v 9902.02520 30790.44542 -31.71501
v 8691.75258 31511.65772 -13.85065
v 7431.25190 32288.75613 1.90983
v 6080.25428 32983.88109 15.25408
v 4630.65721 33474.21008 25.91761
v 3106.03980 33689.02872 33.68906
v 1548.60247 33629.58615 38.41441
v 0.00000 33365.05971 40.00000
v -1515.21737 33006.21874 38.41441
v -2996.38382 32666.09265 33.68906
v -4461.14507 32421.40124 25.91761
v -5930.61269 32288.13007 15.25408
v -7412.60676 32219.57072 1.90983
v -8891.39909 32127.18949 -13.85065
v -10329.68034 31916.65004 -31.71501
v -11683.10830 31526.02447 -51.32917
v -12921.97590 30952.53010 -72.30437
v -14050.75551 30258.24138 -94.22490
v -15116.26119 29552.66507 -116.65629
v -16199.15234 28958.19045 -139.15395
v -17390.05817 28570.37513 -161.27198
v -18758.16919 28426.73819 -182.57201
v -20324.01062 28494.65709 -202.63186
v -22047.51817 28682.24675 -221.05396
v -23837.41658 28868.14295 -237.47318
v -25580.00380 28939.72084 -251.56409
v -27177.72752 28826.65423 -263.04742
v -28583.46088 28518.69767 -271.69556
v -29817.10155 28062.35330 -277.33710
v -30957.07020 27538.54994 -279.86025
v -32108.47923 27029.95383 -279.21497
v -33358.82464 26589.80347 -275.41408
v -34737.53410 26223.16223 -268.53289
v -36195.28664 25886.69927 -258.70779
v -37612.53873 25506.34953 -246.13352
v -38836.26922 25005.91673 -231.05930
v -39733.30729 24336.07297 -213.78389
v -40241.70503 23493.45356 -194.64969
v -40401.21670 22523.41567 -174.03595
v -40350.50526 21506.01450 -152.35121
v -40290.10836 20530.64491 -130.02528
v -40422.47839 19668.51398 -107.50065
v -40889.10639 18952.42650 -85.22376
v -41726.54126 18370.32505 -63.63612
v -42857.12444 17873.87354 -43.16562
v -44118.38712 17398.05374 -24.21796
v -45321.41417 16884.17111 -7.16869
v -46317.94062 16298.02552 7.64427
v -47052.39742 15637.35722 19.92733
v -47580.02089 14926.99480 29.43705
v -48043.92779 14204.71515 35.98494
v -48618.65759 13503.97387 39.44123
v -49439.91387 12840.30384 39.73740
v -50545.66271 12206.23056 36.86760
v -51850.28590 11575.91389 30.88869
v -53162.20963 10916.88404 21.91919
v -54240.21688 10203.68042 10.13686
v -54869.85799 9427.83526 -4.22477
v -54933.92106 8600.48685 -20.88105
v -54452.54322 7747.10909 -39.50186
v -53578.77112 6897.06039 -59.71813
v -52550.68943 6072.59333 -81.12919
v -51616.27177 5281.89856 -103.31066
v -50956.57068 4518.79107 -125.82291
v -50633.39872 3768.66492 -148.21975
v -50579.04837 3017.61920 -170.05728
v -50630.87339 2260.34046 -190.90268
v -50597.88940 1502.96101 -210.34280
v 52863.62664 1359.17096 349.65720
v 53917.46230 2101.06375 369.09732
v 55215.89644 2862.09889 389.94272
v 56505.77369 3659.02133 411.78025
v 57536.20445 4493.57939 434.17709
v 58134.38929 5353.60725 456.68934
v 58254.18131 6220.04084 478.87081
v 57981.22670 7076.43418 500.28187
v 57493.65519 7916.50222 520.49814
v 56992.72580 8746.14229 539.11895
v 56628.14519 9578.88717 555.77523
v 56444.36600 10426.76165 570.13686
v 56366.52450 11290.75579 581.91919
v 56230.54009 12155.59688 590.88869
v 55846.29063 12991.92185 596.86760
v 55071.19867 13765.89761 599.73740
v 53868.05180 14453.02929 599.44123
v 52326.58948 15050.71860 595.98494
v 50641.21643 15584.07387 589.43705
v 49052.56114 16101.69939 579.92733
v 47773.06992 16661.94907 567.64427
v 46922.08649 17313.99847 552.83131
v 46492.19163 18080.52105 535.78204
v 46357.41499 18948.68253 516.83438
v 46319.33343 19873.45599 496.36388
v 46174.21221 20792.80303 474.77624
v 45777.67768 21649.69286 452.49935
v 45085.10070 22413.00456 429.97472
v 44155.09156 23089.30313 407.64879
v 43116.80386 23720.48104 385.96405
v 42114.32319 24367.33952 365.35031
v 41248.87979 25084.52830 346.21611
v 40539.52199 25895.86283 328.94070
v 39915.52371 26779.44532 313.86648
v 39242.04257 27668.91777 301.29221
v 38368.72018 28471.55459 291.46711
v 37183.21383 29097.72796 284.58592
v 35650.63605 29491.80969 280.78503
v 33825.63576 29653.53007 280.13975
v 31834.04405 29641.72194 282.66290
v 29831.80374 29558.33272 288.30444
v 27956.42921 29517.53354 296.95258
v 26287.97471 29610.20838 308.43591
v 24832.10487 29876.04571 322.52682
v 23529.26239 30293.07404 338.94604
v 22284.45019 30788.51796 357.36814
v 21005.26833 31267.35507 377.42799
v 19633.91591 31648.58281 398.72802
v 18162.28282 31896.27137 420.84605
v 16626.41697 32034.11103 443.34371
v 15084.65657 32137.86781 465.77510
v 13589.50848 32307.97634 487.69563
v 12164.88347 32631.66738 508.67083
v 10797.25363 33147.97676 528.28499
v 9443.13518 33828.25149 546.14935
v 8048.60820 34579.54400 561.90983
v 6572.02853 35270.36070 575.25408
v 5000.36222 35770.38033 585.91761
v 3352.77930 35990.76124 593.68906
v 1670.80238 35911.30570 598.41441
v 0.00000 35585.20329 600.00000
v -1628.41212 35119.79366 598.41441
v -3207.98881 34640.06960 593.68906
v -4755.17614 34247.57441 585.91761
v -6296.40227 33988.85025 575.25408
v -7850.42131 33844.14350 561.90983
v -9414.47788 33739.89791 546.14935
v -10961.38368 33580.20359 528.28499
v -12449.90157 33285.76552 508.67083
v -13844.83293 32826.42080 487.69563
v -15138.43146 32235.63027 465.77510
v -16363.33012 31601.81404 443.34371
v -17589.87555 31039.58919 420.84605
v -18906.73345 30651.00681 398.72802
v -20390.58208 30490.31408 377.42799
v -22075.83934 30544.42767 357.36814
v -23936.44667 30735.73044 338.94604
v -25888.04130 30946.01032 322.52682
v -27811.54335 31053.11197 308.43591
v -29590.92710 30967.69189 296.95258
v -31151.93264 30657.75206 288.30444
v -32487.20040 30153.17660 282.66290
v -33657.56643 29529.61333 280.13975
v -34767.72374 28878.17146 280.78503
v -35924.12287 28272.05230 284.58592
v -37190.21871 27741.83883 291.46711
v -38556.07845 27267.65886 301.29221
v -39934.93531 26790.17610 313.86648
v -41189.84444 26235.65499 328.94070
v -42182.46023 25545.57075 346.21611
v -42827.19414 24700.01168 365.35031
v -43131.01172 23726.74405 385.96405
v -43203.27191 22693.20087 407.64879
v -43230.09495 21684.78901 429.97472
v -43420.31513 20777.57650 452.49935
v -43940.62976 20015.02623 474.77624
v -44862.16631 19396.55373 496.36388
v -46137.46150 18881.14300 516.83438
v -47616.68155 18403.81119 535.78204
v -49098.26537 17898.36618 552.83131
v -50396.86287 17318.15195 567.64427
v -51404.93860 16647.80872 579.92733
v -52126.20442 15902.82336 589.43705
v -52668.68863 15118.29738 595.98494
v -53199.45818 14332.15203 599.44123
v -53876.78634 13569.57641 599.73740
v -54783.95470 12834.45597 596.86760
v -55888.78641 12110.36919 590.88869
v -57044.30447 11369.83753 581.91919
v -58031.55280 10587.40033 570.13686
v -58630.63486 9750.91815 555.77523
v -58695.73557 8866.62610 539.11895
v -58208.01772 7956.29296 520.49814
v -57287.59187 7048.17270 500.28187
v -56159.76344 6165.89565 478.87081
v -55086.57955 5320.07695 456.68934
v -54286.76689 4506.03050 434.17709
v -53871.20489 3708.21158 411.78025
v -53815.66237 2909.06287 389.94272
v -53979.53136 2098.05572 369.09732
v -54163.28551 1276.69096 349.65720
v 54454.41317 1258.21518 909.65720
v 55489.63216 2024.87228 929.09732
v 56797.98778 2809.03539 949.94272
v 58139.99165 3628.50871 971.78025
v 59251.87593 4487.00532 994.17709
v 59925.47687 5373.31179 1016.68934
v 60069.48142 6266.97025 1038.87081
v 59731.43783 7147.74484 1060.28187
v 59073.54333 8004.50365 1080.49814
v 58311.23131 8839.42336 1099.11895
v 57636.36444 9665.50182 1115.77523
v 57151.92409 10498.37338 1130.13686
v 56840.72911 11346.08485 1141.91919
v 56578.51042 12201.64729 1150.88869
v 56185.96270 13042.27011 1156.86760
v 55500.73913 13836.49962 1159.73740
v 54443.53134 14557.07215 1159.44123
v 53054.70925 15194.55248 1155.98494
v 51488.56215 15765.95482 1149.43705
v 49967.16815 16314.02731 1139.92733
v 48710.00592 16896.27400 1127.64427
v 47863.68141 17566.84426 1112.83131
v 47455.77431 18357.55046 1095.78204
v 47388.09419 19265.16576 1076.83438
v 47470.78607 20250.30389 1056.36388
v 47484.69065 21249.13709 1034.77624
v 47250.05437 22194.40491 1012.49935
v 46678.23195 23038.41661 989.97472
v 45789.72059 23769.55831 967.64879
v 44694.12559 24415.78453 945.96405
v 43541.01219 25033.12581 925.35031
v 42460.32495 25682.79238 906.21611
v 41513.86141 26404.95320 888.94070
v 40674.43494 27198.97332 873.86648
v 39838.85059 28018.02426 861.29221
v 38868.58432 28781.06523 851.46711
v 37642.50084 29398.91519 844.58592
v 36102.35024 29805.75831 840.78503
v 34275.17383 29984.97241 840.13975
v 32265.61603 29979.66477 842.66290
v 30222.07397 29883.35450 848.30444
v 28289.62136 29813.14810 856.95258
v 26566.59100 29874.07338 868.43591
v 25079.43355 30126.66017 882.52682
v 23783.13057 30569.05811 898.94604
v 22584.95299 31140.12869 917.36814
v 21381.27625 31742.67653 937.42799
v 20093.34497 32278.84472 958.72802
v 18689.45502 32685.25334 980.84605
v 17187.06931 32955.35935 1003.34371
v 15636.37132 33140.88220 1025.77510
v 14093.57268 33331.49481 1047.69563
v 12595.43151 33619.74735 1068.67083
v 11144.94617 34063.60458 1088.28499
v 9712.93333 34660.06832 1106.14935
v 8253.45876 35339.67096 1121.90983
v 6725.60569 35984.40995 1135.25408
v 5111.95498 36463.46255 1145.91761
v 3426.09365 36674.68105 1153.68906
v 1706.49085 36577.68163 1158.41441
v 0.00000 36207.11152 1160.00000
v -1657.42187 35661.46454 1158.41441
v -3254.20978 35071.24628 1153.68906
v -4805.06204 34557.40663 1145.91761
v -6340.58199 34194.26166 1135.25408
v -7889.58352 33989.46044 1121.90983
v -9462.35755 33887.51612 1106.14935
v -11043.00573 33795.15045 1088.28499
v -12595.15522 33619.11327 1068.67083
v -14079.48687 33302.89312 1047.69563
v -15475.98273 32849.29662 1025.77510
v -16801.01242 32321.00142 1003.34371
v -18110.67496 31819.03347 980.84605
v -19486.89653 31446.89615 958.72802
v -21009.77790 31273.05573 937.42799
v -22725.81723 31304.95039 917.36814
v -24624.33032 31483.53950 898.94604
v -26632.31320 31700.16990 882.52682
v -28631.64444 31829.79298 868.43591
v -30494.14116 31769.04099 856.95258
v -32122.73699 31466.24968 848.30444
v -33483.85114 30933.60486 842.66290
v -34618.36417 30238.00506 840.13975
v -35625.93390 29474.64130 840.78503
v -36627.15597 28733.08121 844.58592
v -37716.69960 28067.83028 851.46711
v -38924.68620 27483.27822 861.29221
v -40201.42044 26937.48974 873.86648
v -41432.61803 26362.50370 888.94070
v -42481.20484 25693.10377 906.21611
v -43241.57997 24893.39117 925.35031
v -43686.78295 23971.73508 945.96405
v -43890.52750 22979.20410 967.64879
v -44014.31391 21992.64814 989.97472
v -44262.06066 21088.98386 1012.49935
v -44816.58376 20320.05043 1034.77624
v -45779.44060 19696.75964 1056.36388
v -47135.35228 19187.55813 1076.83438
v -48754.47047 18730.92479 1095.78204
v -50432.78638 18256.72412 1112.83131
v -51957.51414 17708.46623 1127.64427
v -53175.15308 17058.76769 1139.92733
v -54038.53397 16313.30081 1149.43705
v -54616.17395 15503.00657 1155.98494
v -55060.37496 14668.59336 1159.44123
v -55545.13391 13843.79662 1159.73740
v -56195.88117 13043.74029 1156.86760
v -57036.34469 12262.23709 1150.88869
v -57972.14293 11478.09549 1141.91919
v -58817.92656 10666.98897 1130.13686
v -59359.46421 9813.53083 1115.77523
v -59429.45587 8918.53503 1099.11895
v -58970.58066 7998.76852 1080.49814
v -58063.30715 7079.77847 1060.28187
v -56907.99328 6185.23899 1038.87081
v -55766.61173 5327.55828 1016.68934
v -54883.50887 4503.74392 994.17709
v -54411.97220 3698.11487 971.78025
v -54371.42336 2890.42259 949.94272
v -54649.44007 2065.59019 929.09732
v -55047.26167 1220.59135 909.65720
vt 52.151898 -1.890343
vt 52.792561 -1.870903
vt 53.410499 -1.850057
vt 53.828734 -1.828220
vt 53.966470 -1.805823
vt 53.864940 -1.783311
vt 53.668222 -1.761129
vt 53.565993 -1.739718
vt 53.718688 -1.719502
vt 54.191737 -1.700881
vt 54.922453 -1.684225
vt 55.731673 -1.669863
vt 56.376568 -1.658081
vt 56.626673 -1.649111
vt 56.337108 -1.643132
vt 55.494055 -1.640263
vt 54.217269 -1.640559
vt 52.719360 -1.644015
vt 51.236390 -1.650563
vt 49.953884 -1.660073
vt 48.953382 -1.672356
vt 48.196939 -1.687169
vt 47.553381 -1.704218
vt 46.855552 -1.723166
vt 45.967314 -1.743636
vt 44.836330 -1.765224
vt 43.514356 -1.787501
vt 42.138750 -1.810025
vt 40.882755 -1.832351
vt 39.892868 -1.854036
vt 39.235671 -1.874650
vt 38.872533 -1.893784
vt 38.670314 -1.911059
vt 38.443422 -1.926134
vt 38.011876 -1.938708
vt 37.255083 -1.948533
vt 36.143437 -1.955414
vt 34.738346 -1.959215
vt 33.162689 -1.959860
vt 31.553852 -1.957337
vt 30.016739 -1.951696
vt 28.593047 -1.943047
vt 27.256210 -1.931564
vt 25.931609 -1.917473
vt 24.532631 -1.901054
vt 22.998097 -1.882632
vt 21.317120 -1.862572
vt 19.533076 -1.841272
vt 17.726678 -1.819154
vt 15.985895 -1.796656
vt 14.374858 -1.774225
vt 12.913364 -1.752304
vt 11.573821 -1.731329
vt 10.295315 -1.711715
vt 9.008052 -1.693851
vt 7.657938 -1.678090
vt 6.221910 -1.664746
vt 4.709097 -1.654082
vt 3.149024 -1.646311
vt 1.573367 -1.641586
vt 0.000000 -1.640000
vt -1.573480 -1.641586
vt -3.164185 -1.646311
vt -4.789391 -1.654082
vt -6.450318 -1.664746
vt -8.122507 -1.678090
vt -9.758400 -1.693851
vt -11.302341 -1.711715
vt -12.712597 -1.731329
vt -13.981258 -1.752304
vt -15.143042 -1.774225
vt -16.267927 -1.796656
vt -17.438968 -1.819154
vt -18.722973 -1.841272
vt -20.145288 -1.862572
vt -21.679170 -1.882632
vt -23.255129 -1.901054
vt -24.787950 -1.917473
vt -26.211850 -1.931564
vt -27.510222 -1.943047
vt -28.727545 -1.951696
vt -29.957129 -1.957337
vt -31.307371 -1.959860
vt -32.857804 -1.959215
vt -34.621021 -1.955414
vt -36.525595 -1.948533
vt -38.428264 -1.938708
vt -40.153313 -1.926134
vt -41.546845 -1.911059
vt -42.527428 -1.893784
vt -43.114884 -1.874650
vt -43.425980 -1.854036
vt -43.637205 -1.832351
vt -43.926691 -1.810025
vt -44.415238 -1.787501
vt -45.127410 -1.765224
vt -45.987071 -1.743636
vt -46.849700 -1.723166
vt -47.560596 -1.704218
vt -48.018360 -1.687169
vt -48.220520 -1.672356
vt -48.273900 -1.660073
vt -48.364533 -1.650563
vt -48.696360 -1.644015
vt -49.419413 -1.640559
vt -50.572626 -1.640263
vt -52.061921 -1.643132
vt -53.682346 -1.649111
vt -55.177769 -1.658081
vt -56.318429 -1.669863
vt -56.970096 -1.684225
vt -57.131281 -1.700881
vt -56.925829 -1.719502
vt -56.553736 -1.739718
vt -56.217545 -1.761129
vt -56.050223 -1.783311
vt -56.069835 -1.805823
vt -56.176847 -1.828220
vt -56.194817 -1.850057
vt -55.939894 -1.870903
vt -55.294322 -1.890343
vt 47.811395 -1.330343
vt 48.600672 -1.310903
vt 49.455011 -1.290057
vt 50.160574 -1.268220
vt 50.580440 -1.245823
vt 50.696863 -1.223311
vt 50.609894 -1.201129
vt 50.493316 -1.179718
vt 50.523918 -1.159502
vt 50.809455 -1.140881
vt 51.341120 -1.124225
vt 51.987638 -1.109863
vt 52.533443 -1.098081
vt 52.747898 -1.089111
vt 52.461655 -1.083132
vt 51.623818 -1.080263
vt 50.320340 -1.080559
vt 48.747617 -1.084015
vt 47.150709 -1.090563
vt 45.747612 -1.100073
vt 44.665353 -1.112356
vt 43.909056 -1.127169
vt 43.373191 -1.144218
vt 42.889478 -1.163166
vt 42.293359 -1.183636
vt 41.485157 -1.205224
vt 40.464656 -1.227501
vt 39.327881 -1.250025
vt 38.228512 -1.272351
vt 37.318730 -1.294036
vt 36.691101 -1.314650
vt 36.342070 -1.333784
vt 36.169415 -1.351059
vt 36.003708 -1.366134
vt 35.661991 -1.378708
vt 35.004537 -1.388533
vt 33.975308 -1.395414
vt 32.613200 -1.399215
vt 31.031918 -1.399860
vt 29.377256 -1.397337
vt 27.777899 -1.391696
vt 26.307040 -1.383047
vt 24.967153 -1.371564
vt 23.701218 -1.357473
vt 22.423990 -1.341054
vt 21.060248 -1.322632
vt 19.575386 -1.302572
vt 17.987653 -1.281272
vt 16.358939 -1.259154
vt 14.769240 -1.236656
vt 13.285671 -1.214225
vt 11.938186 -1.192304
vt 10.710716 -1.171329
vt 9.549953 -1.151715
vt 8.387019 -1.133851
vt 7.162686 -1.118090
vt 5.846113 -1.104746
vt 4.440445 -1.094082
vt 2.974455 -1.086311
vt 1.485185 -1.081586
vt 0.000000 -1.080000
vt -1.473851 -1.081586
vt -2.947811 -1.086311
vt -4.439944 -1.094082
vt -5.958393 -1.104746
vt -7.488748 -1.118090
vt -8.992213 -1.133851
vt -10.416780 -1.151715
vt -11.717748 -1.171329
vt -12.879313 -1.192304
vt -13.927655 -1.214225
vt -14.928702 -1.236656
vt -15.969633 -1.259154
vt -17.129912 -1.281272
vt -18.452492 -1.302572
vt -19.926656 -1.322632
vt -21.490221 -1.341054
vt -23.051648 -1.357473
vt -24.524744 -1.371564
vt -25.863111 -1.383047
vt -27.080662 -1.391696
vt -28.249033 -1.397337
vt -29.471104 -1.399860
vt -30.839099 -1.399215
vt -32.392343 -1.395414
vt -34.090995 -1.388533
vt -35.817216 -1.378708
vt -37.405659 -1.366134
vt -38.694393 -1.351059
vt -39.579204 -1.333784
vt -40.051976 -1.314650
vt -40.208571 -1.294036
vt -40.221917 -1.272351
vt -40.288345 -1.250025
vt -40.565119 -1.227501
vt -41.120869 -1.205224
vt -41.916722 -1.183636
vt -42.825410 -1.163166
vt -43.682187 -1.144218
vt -44.349766 -1.127169
vt -44.773952 -1.112356
vt -45.009397 -1.100073
vt -45.205115 -1.090563
vt -45.553653 -1.084015
vt -46.221008 -1.080559
vt -47.281813 -1.080263
vt -48.683132 -1.083132
vt -50.250714 -1.089111
vt -51.736901 -1.098081
vt -52.894749 -1.109863
vt -53.553496 -1.124225
vt -53.669653 -1.140881
vt -53.336215 -1.159502
vt -52.746878 -1.179718
vt -52.127757 -1.201129
vt -51.660377 -1.223311
vt -51.422691 -1.245823
vt -51.368483 -1.268220
vt -51.351945 -1.290057
vt -51.188292 -1.310903
vt -50.728595 -1.330343
vt 48.687446 -0.770343
vt 49.608760 -0.750903
vt 50.669337 -0.730057
vt 51.629403 -0.708220
vt 52.303277 -0.685823
vt 52.615892 -0.663311
vt 52.619232 -0.641129
vt 52.463594 -0.619718
vt 52.334427 -0.599502
vt 52.377543 -0.580881
vt 52.639463 -0.564225
vt 53.044200 -0.549863
vt 53.414837 -0.538081
vt 53.532440 -0.529111
vt 53.211719 -0.523132
vt 52.367028 -0.520263
vt 51.045748 -0.520559
vt 49.417550 -0.524015
vt 47.723387 -0.530563
vt 46.201871 -0.540073
vt 45.018187 -0.552356
vt 44.219330 -0.567169
vt 43.729872 -0.584218
vt 43.388169 -0.603166
vt 43.009049 -0.623636
vt 42.450305 -0.645224
vt 41.659858 -0.667501
vt 40.687954 -0.690025
vt 39.661610 -0.712351
vt 38.731859 -0.734036
vt 38.013528 -0.754650
vt 37.539297 -0.773784
vt 37.243950 -0.791059
vt 36.983623 -0.806134
vt 36.582345 -0.818708
vt 35.888898 -0.828533
vt 34.824086 -0.835414
vt 33.402623 -0.839215
vt 31.723416 -0.839860
vt 29.933261 -0.837337
vt 28.177905 -0.831696
vt 26.557970 -0.823047
vt 25.104373 -0.811564
vt 23.780043 -0.797473
vt 22.504899 -0.781054
vt 21.193055 -0.762632
vt 19.787649 -0.742572
vt 18.280767 -0.721272
vt 16.712423 -0.699154
vt 15.150837 -0.676656
vt 13.663098 -0.654225
vt 12.288275 -0.632304
vt 11.023179 -0.611329
vt 9.825355 -0.591715
vt 8.630879 -0.573851
vt 7.378905 -0.558090
vt 6.032832 -0.544746
vt 4.590044 -0.534082
vt 3.077381 -0.526311
vt 1.535533 -0.521586
vt 0.000000 -0.520000
vt -1.512764 -0.521586
vt -3.008117 -0.526311
vt -4.504205 -0.534082
vt -6.015878 -0.544746
vt -7.539648 -0.558090
vt -9.047492 -0.573851
vt -10.493613 -0.591715
vt -11.832417 -0.611329
vt -13.040704 -0.632304
vt -14.134386 -0.654225
vt -15.171515 -0.676656
vt -16.238423 -0.699154
vt -17.422600 -0.721272
vt -18.781796 -0.742572
vt -20.321245 -0.762632
vt -21.988650 -0.781054
vt -23.690321 -0.797473
vt -25.323726 -0.811564
vt -26.814928 -0.823047
vt -28.146696 -0.831696
vt -29.365700 -0.837337
vt -30.564589 -0.839860
vt -31.844211 -0.839215
vt -33.269248 -0.835414
vt -34.834039 -0.828533
vt -36.452595 -0.818708
vt -37.978636 -0.806134
vt -39.250565 -0.791059
vt -40.146676 -0.773784
vt -40.631181 -0.754650
vt -40.773880 -0.734036
vt -40.734911 -0.712351
vt -40.718222 -0.690025
vt -40.908754 -0.667501
vt -41.414753 -0.645224
vt -42.235497 -0.623636
vt -43.266318 -0.603166
vt -44.339751 -0.584218
vt -45.288739 -0.567169
vt -46.009554 -0.552356
vt -46.501682 -0.540073
vt -46.869683 -0.530563
vt -47.285381 -0.524015
vt -47.922991 -0.520559
vt -48.889876 -0.520263
vt -50.177819 -0.523132
vt -51.653003 -0.529111
vt -53.089665 -0.538081
vt -54.237019 -0.549863
vt -54.897172 -0.564225
vt -54.987489 -0.580881
vt -54.565904 -0.599502
vt -53.810300 -0.619718
vt -52.958941 -0.641129
vt -52.232426 -0.663311
vt -51.764033 -0.685823
vt -51.562294 -0.708220
vt -51.518290 -0.730057
vt -51.454431 -0.750903
vt -51.196939 -0.770343
vt 48.642569 -0.210343
vt 49.649760 -0.190903
vt 50.858269 -0.170057
vt 52.014910 -0.148220
vt 52.895308 -0.125823
vt 53.371792 -0.103311
vt 53.446775 -0.081129
vt 53.240689 -0.059718
vt 52.939477 -0.039502
vt 52.720706 -0.020881
vt 52.684710 -0.004225
vt 52.815162 0.010137
vt 52.982939 0.021919
vt 52.991764 0.030889
vt 52.649391 0.036868
vt 51.839171 0.039737
vt 50.566782 0.039441
vt 48.965769 0.035985
vt 47.259912 0.029437
vt 45.695466 0.019927
vt 44.466517 0.007644
vt 43.658702 -0.007169
vt 43.229752 -0.024218
vt 43.032259 -0.043166
vt 42.869456 -0.063636
vt 42.563753 -0.085224
vt 42.014095 -0.107501
vt 41.222959 -0.130025
vt 40.285062 -0.152351
vt 39.343575 -0.174036
vt 38.530759 -0.194650
vt 37.914803 -0.213784
vt 37.471609 -0.231059
vt 37.090798 -0.246134
vt 36.612744 -0.258708
vt 35.882674 -0.268533
vt 34.802348 -0.275414
vt 33.361510 -0.279215
vt 31.639079 -0.279860
vt 29.775101 -0.277337
vt 27.924564 -0.271696
vt 26.209873 -0.263047
vt 24.688209 -0.251564
vt 23.343693 -0.237473
vt 22.104884 -0.221054
vt 20.879111 -0.202632
vt 19.589835 -0.182572
vt 18.203274 -0.161272
vt 16.735627 -0.139154
vt 15.240135 -0.116656
vt 13.780840 -0.094225
vt 12.404400 -0.072304
vt 11.121129 -0.051329
vt 9.902025 -0.031715
vt 8.691753 -0.013851
vt 7.431252 0.001910
vt 6.080254 0.015254
vt 4.630657 0.025918
vt 3.106040 0.033689
vt 1.548602 0.038414
vt 0.000000 0.040000
vt -1.515217 0.038414
vt -2.996384 0.033689
vt -4.461145 0.025918
vt -5.930613 0.015254
vt -7.412607 0.001910
vt -8.891399 -0.013851
vt -10.329680 -0.031715
vt -11.683108 -0.051329
vt -12.921976 -0.072304
vt -14.050756 -0.094225
vt -15.116261 -0.116656
vt -16.199152 -0.139154
vt -17.390058 -0.161272
vt -18.758169 -0.182572
vt -20.324011 -0.202632
vt -22.047518 -0.221054
vt -23.837417 -0.237473
vt -25.580004 -0.251564
vt -27.177728 -0.263047
vt -28.583461 -0.271696
vt -29.817102 -0.277337
vt -30.957070 -0.279860
vt -32.108479 -0.279215
vt -33.358825 -0.275414
vt -34.737534 -0.268533
vt -36.195287 -0.258708
vt -37.612539 -0.246134
vt -38.836269 -0.231059
vt -39.733307 -0.213784
vt -40.241705 -0.194650
vt -40.401217 -0.174036
vt -40.350505 -0.152351
vt -40.290108 -0.130025
vt -40.422478 -0.107501
vt -40.889106 -0.085224
vt -41.726541 -0.063636
vt -42.857124 -0.043166
vt -44.118387 -0.024218
vt -45.321414 -0.007169
vt -46.317941 0.007644
vt -47.052397 0.019927
vt -47.580021 0.029437
vt -48.043928 0.035985
vt -48.618658 0.039441
vt -49.439914 0.039737
vt -50.545663 0.036868
vt -51.850286 0.030889
vt -53.162210 0.021919
vt -54.240217 0.010137
vt -54.869858 -0.004225
vt -54.933921 -0.020881
vt -54.452543 -0.039502
vt -53.578771 -0.059718
vt -52.550689 -0.081129
vt -51.616272 -0.103311
vt -50.956571 -0.125823
vt -50.633399 -0.148220
vt -50.579048 -0.170057
vt -50.630873 -0.190903
vt -50.597889 -0.210343
vt 52.863627 0.349657
vt 53.917462 0.369097
vt 55.215896 0.389943
vt 56.505774 0.411780
vt 57.536204 0.434177
vt 58.134389 0.456689
vt 58.254181 0.478871
vt 57.981227 0.500282
vt 57.493655 0.520498
vt 56.992726 0.539119
vt 56.628145 0.555775
vt 56.444366 0.570137
vt 56.366524 0.581919
vt 56.230540 0.590889
vt 55.846291 0.596868
vt 55.071199 0.599737
vt 53.868052 0.599441
vt 52.326589 0.595985
vt 50.641216 0.589437
vt 49.052561 0.579927
vt 47.773070 0.567644
vt 46.922086 0.552831
vt 46.492192 0.535782
vt 46.357415 0.516834
vt 46.319333 0.496364
vt 46.174212 0.474776
vt 45.777678 0.452499
vt 45.085101 0.429975
vt 44.155092 0.407649
vt 43.116804 0.385964
vt 42.114323 0.365350
vt 41.248880 0.346216
vt 40.539522 0.328941
vt 39.915524 0.313866
vt 39.242043 0.301292
vt 38.368720 0.291467
vt 37.183214 0.284586
vt 35.650636 0.280785
vt 33.825636 0.280140
vt 31.834044 0.282663
vt 29.831804 0.288304
vt 27.956429 0.296953
vt 26.287975 0.308436
vt 24.832105 0.322527
vt 23.529262 0.338946
vt 22.284450 0.357368
vt 21.005268 0.377428
vt 19.633916 0.398728
vt 18.162283 0.420846
vt 16.626417 0.443344
vt 15.084657 0.465775
vt 13.589508 0.487696
vt 12.164883 0.508671
vt 10.797254 0.528285
vt 9.443135 0.546149
vt 8.048608 0.561910
vt 6.572029 0.575254
vt 5.000362 0.585918
vt 3.352779 0.593689
vt 1.670802 0.598414
vt 0.000000 0.600000
vt -1.628412 0.598414
vt -3.207989 0.593689
vt -4.755176 0.585918
vt -6.296402 0.575254
vt -7.850421 0.561910
vt -9.414478 0.546149
vt -10.961384 0.528285
vt -12.449902 0.508671
vt -13.844833 0.487696
vt -15.138431 0.465775
vt -16.363330 0.443344
vt -17.589876 0.420846
vt -18.906733 0.398728
vt -20.390582 0.377428
vt -22.075839 0.357368
vt -23.936447 0.338946
vt -25.888041 0.322527
vt -27.811543 0.308436
vt -29.590927 0.296953
vt -31.151933 0.288304
vt -32.487200 0.282663
vt -33.657566 0.280140
vt -34.767724 0.280785
vt -35.924123 0.284586
vt -37.190219 0.291467
vt -38.556078 0.301292
vt -39.934935 0.313866
vt -41.189844 0.328941
vt -42.182460 0.346216
vt -42.827194 0.365350
vt -43.131012 0.385964
vt -43.203272 0.407649
vt -43.230095 0.429975
vt -43.420315 0.452499
vt -43.940630 0.474776
vt -44.862166 0.496364
vt -46.137461 0.516834
vt -47.616682 0.535782
vt -49.098265 0.552831
vt -50.396863 0.567644
vt -51.404939 0.579927
vt -52.126204 0.589437
vt -52.668689 0.595985
vt -53.199458 0.599441
vt -53.876786 0.599737
vt -54.783955 0.596868
vt -55.888786 0.590889
vt -57.044304 0.581919
vt -58.031553 0.570137
vt -58.630635 0.555775
vt -58.695736 0.539119
vt -58.208018 0.520498
vt -57.287592 0.500282
vt -56.159763 0.478871
vt -55.086580 0.456689
vt -54.286767 0.434177
vt -53.871205 0.411780
vt -53.815662 0.389943
vt -53.979531 0.369097
vt -54.163286 0.349657
vt 54.454413 0.909657
vt 55.489632 0.929097
vt 56.797988 0.949943
vt 58.139992 0.971780
vt 59.251876 0.994177
vt 59.925477 1.016689
vt 60.069481 1.038871
vt 59.731438 1.060282
vt 59.073543 1.080498
vt 58.311231 1.099119
vt 57.636364 1.115775
vt 57.151924 1.130137
vt 56.840729 1.141919
vt 56.578510 1.150889
vt 56.185963 1.156868
vt 55.500739 1.159737
vt 54.443531 1.159441
vt 53.054709 1.155985
vt 51.488562 1.149437
vt 49.967168 1.139927
vt 48.710006 1.127644
vt 47.863681 1.112831
vt 47.455774 1.095782
vt 47.388094 1.076834
vt 47.470786 1.056364
vt 47.484691 1.034776
vt 47.250054 1.012499
vt 46.678232 0.989975
vt 45.789721 0.967649
vt 44.694126 0.945964
vt 43.541012 0.925350
vt 42.460325 0.906216
vt 41.513861 0.888941
vt 40.674435 0.873866
vt 39.838851 0.861292
vt 38.868584 0.851467
vt 37.642501 0.844586
vt 36.102350 0.840785
vt 34.275174 0.840140
vt 32.265616 0.842663
vt 30.222074 0.848304
vt 28.289621 0.856953
vt 26.566591 0.868436
vt 25.079434 0.882527
vt 23.783131 0.898946
vt 22.584953 0.917368
vt 21.381276 0.937428
vt 20.093345 0.958728
vt 18.689455 0.980846
vt 17.187069 1.003344
vt 15.636371 1.025775
vt 14.093573 1.047696
vt 12.595432 1.068671
vt 11.144946 1.088285
vt 9.712933 1.106149
vt 8.253459 1.121910
vt 6.725606 1.135254
vt 5.111955 1.145918
vt 3.426094 1.153689
vt 1.706491 1.158414
vt 0.000000 1.160000
vt -1.657422 1.158414
vt -3.254210 1.153689
vt -4.805062 1.145918
vt -6.340582 1.135254
vt -7.889584 1.121910
vt -9.462358 1.106149
vt -11.043006 1.088285
vt -12.595155 1.068671
vt -14.079487 1.047696
vt -15.475983 1.025775
vt -16.801012 1.003344
vt -18.110675 0.980846
vt -19.486897 0.958728
vt -21.009778 0.937428
vt -22.725817 0.917368
vt -24.624330 0.898946
vt -26.632313 0.882527
vt -28.631644 0.868436
vt -30.494141 0.856953
vt -32.122737 0.848304
vt -33.483851 0.842663
vt -34.618364 0.840140
vt -35.625934 0.840785
vt -36.627156 0.844586
vt -37.716700 0.851467
vt -38.924686 0.861292
vt -40.201420 0.873866
vt -41.432618 0.888941
vt -42.481205 0.906216
vt -43.241580 0.925350
vt -43.686783 0.945964
vt -43.890528 0.967649
vt -44.014314 0.989975
vt -44.262061 1.012499
vt -44.816584 1.034776
vt -45.779441 1.056364
vt -47.135352 1.076834
vt -48.754470 1.095782
vt -50.432786 1.112831
vt -51.957514 1.127644
vt -53.175153 1.139927
vt -54.038534 1.149437
vt -54.616174 1.155985
vt -55.060375 1.159441
vt -55.545134 1.159737
vt -56.195881 1.156868
vt -57.036345 1.150889
vt -57.972143 1.141919
vt -58.817927 1.130137
vt -59.359464 1.115775
vt -59.429456 1.099119
vt -58.970581 1.080498
vt -58.063307 1.060282
vt -56.907993 1.038871
vt -55.766612 1.016689
vt -54.883509 0.994177
vt -54.411972 0.971780
vt -54.371423 0.949943
vt -54.649440 0.929097
vt -55.047262 0.909657
f 1/1 122/122 123/123
f 1/1 123/123 2/2
f 2/2 123/123 124/124
f 2/2 124/124 3/3
f 3/3 124/124 125/125
f 3/3 125/125 4/4
f 4/4 125/125 126/126
f 4/4 126/126 5/5
f 5/5 126/126 127/127
f 5/5 127/127 6/6
f 6/6 127/127 128/128
f 6/6 128/128 7/7
f 7/7 128/128 129/129
f 7/7 129/129 8/8
f 8/8 129/129 130/130
f 8/8 130/130 9/9
f 9/9 130/130 131/131
f 9/9 131/131 10/10
f 10/10 131/131 132/132
f 10/10 132/132 11/11
f 11/11 132/132 133/133
f 11/11 133/133 12/12
f 12/12 133/133 134/134
f 12/12 134/134 13/13
f 13/13 134/134 135/135
f 13/13 135/135 14/14
f 14/14 135/135 136/136
f 14/14 136/136 15/15
f 15/15 136/136 137/137
f 15/15 137/137 16/16
f 16/16 137/137 138/138
f 16/16 138/138 17/17
f 17/17 138/138 139/139
f 17/17 139/139 18/18
f 18/18 139/139 140/140
f 18/18 140/140 19/19
f 19/19 140/140 141/141
f 19/19 141/141 20/20
f 20/20 141/141 142/142
f 20/20 142/142 21/21
f 21/21 142/142 143/143
f 21/21 143/143 22/22
f 22/22 143/143 144/144
f 22/22 144/144 23/23
f 23/23 144/144 145/145
f 23/23 145/145 24/24
f 24/24 145/145 146/146
f 24/24 146/146 25/25
f 25/25 146/146 147/147
f 25/25 147/147 26/26
f 26/26 147/147 148/148
f 26/26 148/148 27/27
f 27/27 148/148 149/149
f 27/27 149/149 28/28
f 28/28 149/149 150/150
f 28/28 150/150 29/29
f 29/29 150/150 151/151
f 29/29 151/151 30/30
f 30/30 151/151 152/152
f 30/30 152/152 31/31
f 31/31 152/152 153/153
f 31/31 153/153 32/32
f 32/32 153/153 154/154
f 32/32 154/154 33/33
f 33/33 154/154 155/155
f 33/33 155/155 34/34
f 34/34 155/155 156/156
f 34/34 156/156 35/35
f 35/35 156/156 157/157
f 35/35 157/157 36/36
f 36/36 157/157 158/158
f 36/36 158/158 37/37
f 37/37 158/158 159/159
f 37/37 159/159 38/38
f 38/38 159/159 160/160
f 38/38 160/160 39/39
f 39/39 160/160 161/161
f 39/39 161/161 40/40
f 40/40 161/161 162/162
f 40/40 162/162 41/41
f 41/41 162/162 163/163
f 41/41 163/163 42/42
f 42/42 163/163 164/164
f 42/42 164/164 43/43
f 43/43 164/164 165/165
f 43/43 165/165 44/44
f 44/44 165/165 166/166
f 44/44 166/166 45/45
f 45/45 166/166 167/167
f 45/45 167/167 46/46
f 46/46 167/167 168/168
f 46/46 168/168 47/47
f 47/47 168/168 169/169
f 47/47 169/169 48/48
f 48/48 169/169 170/170
f 48/48 170/170 49/49
f 49/49 170/170 171/171
f 49/49 171/171 50/50
f 50/50 171/171 172/172
f 50/50 172/172 51/51
f 51/51 172/172 173/173
f 51/51 173/173 52/52
f 52/52 173/173 174/174
f 52/52 174/174 53/53
f 53/53 174/174 175/175
f 53/53 175/175 54/54
f 54/54 175/175 176/176
f 54/54 176/176 55/55
f 55/55 176/176 177/177
f 55/55 177/177 56/56
f 56/56 177/177 178/178
f 56/56 178/178 57/57
f 57/57 178/178 179/179
f 57/57 179/179 58/58
f 58/58 179/179 180/180
f 58/58 180/180 59/59
f 59/59 180/180 181/181
f 59/59 181/181 60/60
f 60/60 181/181 182/182
f 60/60 182/182 61/61
f 61/61 182/182 183/183
f 61/61 183/183 62/62
f 62/62 183/183 184/184
f 62/62 184/184 63/63
f 63/63 184/184 185/185
f 63/63 185/185 64/64
f 64/64 185/185 186/186
f 64/64 186/186 65/65
f 65/65 186/186 187/187
f 65/65 187/187 66/66
f 66/66 187/187 188/188
f 66/66 188/188 67/67
f 67/67 188/188 189/189
f 67/67 189/189 68/68
f 68/68 189/189 190/190
f 68/68 190/190 69/69
f 69/69 190/190 191/191
f 69/69 191/191 70/70
f 70/70 191/191 192/192
f 70/70 192/192 71/71
f 71/71 192/192 193/193
f 71/71 193/193 72/72
f 72/72 193/193 194/194
f 72/72 194/194 73/73
f 73/73 194/194 195/195
f 73/73 195/195 74/74
f 74/74 195/195 196/196
f 74/74 196/196 75/75
f 75/75 196/196 197/197
f 75/75 197/197 76/76
f 76/76 197/197 198/198
f 76/76 198/198 77/77
f 77/77 198/198 199/199
f 77/77 199/199 78/78
f 78/78 199/199 200/200
f 78/78 200/200 79/79
f 79/79 200/200 201/201
f 79/79 201/201 80/80
f 80/80 201/201 202/202
f 80/80 202/202 81/81
f 81/81 202/202 203/203
f 81/81 203/203 82/82
f 82/82 203/203 204/204
f 82/82 204/204 83/83
f 83/83 204/204 205/205
f 83/83 205/205 84/84
f 84/84 205/205 206/206
f 84/84 206/206 85/85
f 85/85 206/206 207/207
f 85/85 207/207 86/86
f 86/86 207/207 208/208
f 86/86 208/208 87/87
f 87/87 208/208 209/209
f 87/87 209/209 88/88
f 88/88 209/209 210/210
f 88/88 210/210 89/89
f 89/89 210/210 211/211
f 89/89 211/211 90/90
f 90/90 211/211 212/212
f 90/90 212/212 91/91
f 91/91 212/212 213/213
f 91/91 213/213 92/92
f 92/92 213/213 214/214
f 92/92 214/214 93/93
f 93/93 214/214 215/215
f 93/93 215/215 94/94
f 94/94 215/215 216/216
f 94/94 216/216 95/95
f 95/95 216/216 217/217
f 95/95 217/217 96/96
f 96/96 217/217 218/218
f 96/96 218/218 97/97
f 97/97 218/218 219/219
f 97/97 219/219 98/98
f 98/98 219/219 220/220
f 98/98 220/220 99/99
f 99/99 220/220 221/221
f 99/99 221/221 100/100
f 100/100 221/221 222/222
f 100/100 222/222 101/101
f 101/101 222/222 223/223
f 101/101 223/223 102/102
f 102/102 223/223 224/224
f 102/102 224/224 103/103
f 103/103 224/224 225/225
f 103/103 225/225 104/104
f 104/104 225/225 226/226
f 104/104 226/226 105/105
f 105/105 226/226 227/227
f 105/105 227/227 106/106
f 106/106 227/227 228/228
f 106/106 228/228 107/107
f 107/107 228/228 229/229
f 107/107 229/229 108/108
f 108/108 229/229 230/230
f 108/108 230/230 109/109
f 109/109 230/230 231/231
f 109/109 231/231 110/110
f 110/110 231/231 232/232
f 110/110 232/232 111/111
f 111/111 232/232 233/233
f 111/111 233/233 112/112
f 112/112 233/233 234/234
f 112/112 234/234 113/113
f 113/113 234/234 235/235
f 113/113 235/235 114/114
f 114/114 235/235 236/236
f 114/114 236/236 115/115
f 115/115 236/236 237/237
f 115/115 237/237 116/116
f 116/116 237/237 238/238
f 116/116 238/238 117/117
f 117/117 238/238 239/239
f 117/117 239/239 118/118
f 118/118 239/239 240/240
f 118/118 240/240 119/119
f 119/119 240/240 241/241
f 119/119 241/241 120/120
f 120/120 241/241 242/242
f 120/120 242/242 121/121
f 122/122 243/243 244/244
f 122/122 244/244 123/123
f 123/123 244/244 245/245
f 123/123 245/245 124/124
f 124/124 245/245 246/246
f 124/124 246/246 125/125
f 125/125 246/246 247/247
f 125/125 247/247 126/126
f 126/126 247/247 248/248
f 126/126 248/248 127/127
f 127/127 248/248 249/249
f 127/127 249/249 128/128
f 128/128 249/249 250/250
f 128/128 250/250 129/129
f 129/129 250/250 251/251
f 129/129 251/251 130/130
f 130/130 251/251 252/252
f 130/130 252/252 131/131
f 131/131 252/252 253/253
f 131/131 253/253 132/132
f 132/132 253/253 254/254
f 132/132 254/254 133/133
f 133/133 254/254 255/255
f 133/133 255/255 134/134
f 134/134 255/255 256/256
f 134/134 256/256 135/135
f 135/135 256/256 257/257
f 135/135 257/257 136/136
f 136/136 257/257 258/258
f 136/136 258/258 137/137
f 137/137 258/258 259/259
f 137/137 259/259 138/138
f 138/138 259/259 260/260
f 138/138 260/260 139/139
f 139/139 260/260 261/261
f 139/139 261/261 140/140
f 140/140 261/261 262/262
f 140/140 262/262 141/141
f 141/141 262/262 263/263
f 141/141 263/263 142/142
f 142/142 263/263 264/264
f 142/142 264/264 143/143
f 143/143 264/264 265/265
f 143/143 265/265 144/144
f 144/144 265/265 266/266
f 144/144 266/266 145/145
f 145/145 266/266 267/267
f 145/145 267/267 146/146
f 146/146 267/267 268/268
f 146/146 268/268 147/147
f 147/147 268/268 269/269
f 147/147 269/269 148/148
f 148/148 269/269 270/270
f 148/148 270/270 149/149
f 149/149 270/270 271/271
f 149/149 271/271 150/150
f 150/150 271/271 272/272
f 150/150 272/272 151/151
f 151/151 272/272 273/273
f 151/151 273/273 152/152
f 152/152 273/273 274/274
f 152/152 274/274 153/153
f 153/153 274/274 275/275
f 153/153 275/275 154/154
f 154/154 275/275 276/276
f 154/154 276/276 155/155
f 155/155 276/276 277/277
f 155/155 277/277 156/156
f 156/156 277/277 278/278
f 156/156 278/278 157/157
f 157/157 278/278 279/279
f 157/157 279/279 158/158
f 158/158 279/279 280/280
f 158/158 280/280 159/159
f 159/159 280/280 281/281
f 159/159 281/281 160/160
f 160/160 281/281 282/282
f 160/160 282/282 161/161
f 161/161 282/282 283/283
f 161/161 283/283 162/162
f 162/162 283/283 284/284
f 162/162 284/284 163/163
f 163/163 284/284 285/285
f 163/163 285/285 164/164
f 164/164 285/285 286/286
f 164/164 286/286 165/165
f 165/165 286/286 287/287
f 165/165 287/287 166/166
f 166/166 287/287 288/288
f 166/166 288/288 167/167
f 167/167 288/288 289/289
f 167/167 289/289 168/168
f 168/168 289/289 290/290
f 168/168 290/290 169/169
f 169/169 290/290 291/291
f 169/169 291/291 170/170
f 170/170 291/291 292/292
f 170/170 292/292 171/171
f 171/171 292/292 293/293
f 171/171 293/293 172/172
f 172/172 293/293 294/294
f 172/172 294/294 173/173
f 173/173 294/294 295/295
f 173/173 295/295 174/174
f 174/174 295/295 296/296
f 174/174 296/296 175/175
f 175/175 296/296 297/297
f 175/175 297/297 176/176
f 176/176 297/297 298/298
f 176/176 298/298 177/177
f 177/177 298/298 299/299
f 177/177 299/299 178/178
f 178/178 299/299 300/300
f 178/178 300/300 179/179
f 179/179 300/300 301/301
f 179/179 301/301 180/180
f 180/180 301/301 302/302
f 180/180 302/302 181/181
f 181/181 302/302 303/303
f 181/181 303/303 182/182
f 182/182 303/303 304/304
f 182/182 304/304 183/183
f 183/183 304/304 305/305
f 183/183 305/305 184/184
f 184/184 305/305 306/306
f 184/184 306/306 185/185
f 185/185 306/306 307/307
f 185/185 307/307 186/186
f 186/186 307/307 308/308
f 186/186 308/308 187/187
f 187/187 308/308 309/309
f 187/187 309/309 188/188
f 188/188 309/309 310/310
f 188/188 310/310 189/189
f 189/189 310/310 311/311
f 189/189 311/311 190/190
f 190/190 311/311 312/312
f 190/190 312/312 191/191
f 191/191 312/312 313/313
f 191/191 313/313 192/192
f 192/192 313/313 314/314
f 192/192 314/314 193/193
f 193/193 314/314 315/315
f 193/193 315/315 194/194
f 194/194 315/315 316/316
f 194/194 316/316 195/195
f 195/195 316/316 317/317
f 195/195 317/317 196/196
f 196/196 317/317 318/318
f 196/196 318/318 197/197
f 197/197 318/318 319/319
f 197/197 319/319 198/198
f 198/198 319/319 320/320
f 198/198 320/320 199/199
f 199/199 320/320 321/321
f 199/199 321/321 200/200
f 200/200 321/321 322/322
f 200/200 322/322 201/201
f 201/201 322/322 323/323
f 201/201 323/323 202/202
f 202/202 323/323 324/324
f 202/202 324/324 203/203
f 203/203 324/324 325/325
f 203/203 325/325 204/204
f 204/204 325/325 326/326
f 204/204 326/326 205/205
f 205/205 326/326 327/327
f 205/205 327/327 206/206
f 206/206 327/327 328/328
f 206/206 328/328 207/207
f 207/207 328/328 329/329
f 207/207 329/329 208/208
f 208/208 329/329 330/330
f 208/208 330/330 209/209
f 209/209 330/330 331/331
f 209/209 331/331 210/210
f 210/210 331/331 332/332
f 210/210 332/332 211/211
f 211/211 332/332 333/333
f 211/211 333/333 212/212
f 212/212 333/333 334/334
f 212/212 334/334 213/213
f 213/213 334/334 335/335
f 213/213 335/335 214/214
f 214/214 335/335 336/336
f 214/214 336/336 215/215
f 215/215 336/336 337/337
f 215/215 337/337 216/216
f 216/216 337/337 338/338
f 216/216 338/338 217/217
f 217/217 338/338 339/339
f 217/217 339/339 218/218
f 218/218 339/339 340/340
f 218/218 340/340 219/219
f 219/219 340/340 341/341
f 219/219 341/341 220/220
f 220/220 341/341 342/342
f 220/220 342/342 221/221
f 221/221 342/342 343/343
f 221/221 343/343 222/222
f 222/222 343/343 344/344
f 222/222 344/344 223/223
f 223/223 344/344 345/345
f 223/223 345/345 224/224
f 224/224 345/345 346/346
f 224/224 346/346 225/225
f 225/225 346/346 347/347
f 225/225 347/347 226/226
f 226/226 347/347 348/348
f 226/226 348/348 227/227
f 227/227 348/348 349/349
f 227/227 349/349 228/228
f 228/228 349/349 350/350
f 228/228 350/350 229/229
f 229/229 350/350 351/351
f 229/229 351/351 230/230
f 230/230 351/351 352/352
f 230/230 352/352 231/231
f 231/231 352/352 353/353
f 231/231 353/353 232/232
f 232/232 353/353 354/354
f 232/232 354/354 233/233
f 233/233 354/354 355/355
f 233/233 355/355 234/234
f 234/234 355/355 356/356
f 234/234 356/356 235/235
f 235/235 356/356 357/357
f 235/235 357/357 236/236
f 236/236 357/357 358/358
f 236/236 358/358 237/237
f 237/237 358/358 359/359
f 237/237 359/359 238/238
f 238/238 359/359 360/360
f 238/238 360/360 239/239
f 239/239 360/360 361/361
f 239/239 361/361 240/240
f 240/240 361/361 362/362
f 240/240 362/362 241/241
f 241/241 362/362 363/363
f 241/241 363/363 242/242
f 243/243 364/364 365/365
f 243/243 365/365 244/244
f 244/244 365/365 366/366
f 244/244 366/366 245/245
f 245/245 366/366 367/367
f 245/245 367/367 246/246
f 246/246 367/367 368/368
f 246/246 368/368 247/247
f 247/247 368/368 369/369
f 247/247 369/369 248/248
f 248/248 369/369 370/370
f 248/248 370/370 249/249
f 249/249 370/370 371/371
f 249/249 371/371 250/250
f 250/250 371/371 372/372
f 250/250 372/372 251/251
f 251/251 372/372 373/373
f 251/251 373/373 252/252
f 252/252 373/373 374/374
f 252/252 374/374 253/253
f 253/253 374/374 375/375
f 253/253 375/375 254/254
f 254/254 375/375 376/376
f 254/254 376/376 255/255
f 255/255 376/376 377/377
f 255/255 377/377 256/256
f 256/256 377/377 378/378
f 256/256 378/378 257/257
f 257/257 378/378 379/379
f 257/257 379/379 258/258
f 258/258 379/379 380/380
f 258/258 380/380 259/259
f 259/259 380/380 381/381
f 259/259 381/381 260/260
f 260/260 381/381 382/382
f 260/260 382/382 261/261
f 261/261 382/382 383/383
f 261/261 383/383 262/262
f 262/262 383/383 384/384
f 262/262 384/384 263/263
f 263/263 384/384 385/385
f 263/263 385/385 264/264
f 264/264 385/385 386/386
f 264/264 386/386 265/265
f 265/265 386/386 387/387
f 265/265 387/387 266/266
f 266/266 387/387 388/388
f 266/266 388/388 267/267
f 267/267 388/388 389/389
f 267/267 389/389 268/268
f 268/268 389/389 390/390
f 268/268 390/390 269/269
f 269/269 390/390 391/391
f 269/269 391/391 270/270
f 270/270 391/391 392/392
f 270/270 392/392 271/271
f 271/271 392/392 393/393
f 271/271 393/393 272/272
f 272/272 393/393 394/394
f 272/272 394/394 273/273
f 273/273 394/394 395/395
f 273/273 395/395 274/274
f 274/274 395/395 396/396
f 274/274 396/396 275/275
f 275/275 396/396 397/397
f 275/275 397/397 276/276
f 276/276 397/397 398/398
f 276/276 398/398 277/277
f 277/277 398/398 399/399
f 277/277 399/399 278/278
f 278/278 399/399 400/400
f 278/278 400/400 279/279
f 279/279 400/400 401/401
f 279/279 401/401 280/280
f 280/280 401/401 402/402
f 280/280 402/402 281/281
f 281/281 402/402 403/403
f 281/281 403/403 282/282
f 282/282 403/403 404/404
f 282/282 404/404 283/283
f 283/283 404/404 405/405
f 283/283 405/405 284/284
f 284/284 405/405 406/406
f 284/284 406/406 285/285
f 285/285 406/406 407/407
f 285/285 407/407 286/286
f 286/286 407/407 408/408
f 286/286 408/408 287/287
f 287/287 408/408 409/409
f 287/287 409/409 288/288
f 288/288 409/409 410/410
f 288/288 410/410 289/289
f 289/289 410/410 411/411
f 289/289 411/411 290/290
f 290/290 411/411 412/412
f 290/290 412/412 291/291
f 291/291 412/412 413/413
f 291/291 413/413 292/292
f 292/292 413/413 414/414
f 292/292 414/414 293/293
f 293/293 414/414 415/415
f 293/293 415/415 294/294
f 294/294 415/415 416/416
f 294/294 416/416 295/295
f 295/295 416/416 417/417
f 295/295 417/417 296/296
f 296/296 417/417 418/418
f 296/296 418/418 297/297
f 297/297 418/418 419/419
f 297/297 419/419 298/298
f 298/298 419/419 420/420
f 298/298 420/420 299/299
f 299/299 420/420 421/421
f 299/299 421/421 300/300
f 300/300 421/421 422/422
f 300/300 422/422 301/301
f 301/301 422/422 423/423
f 301/301 423/423 302/302
f 302/302 423/423 424/424
f 302/302 424/424 303/303
f 303/303 424/424 425/425
f 303/303 425/425 304/304
f 304/304 425/425 426/426
f 304/304 426/426 305/305
f 305/305 426/426 427/427
f 305/305 427/427 306/306
f 306/306 427/427 428/428
f 306/306 428/428 307/307
f 307/307 428/428 429/429
f 307/307 429/429 308/308
f 308/308 429/429 430/430
f 308/308 430/430 309/309
f 309/309 430/430 431/431
f 309/309 431/431 310/310
f 310/310 431/431 432/432
f 310/310 432/432 311/311
f 311/311 432/432 433/433
f 311/311 433/433 312/312
f 312/312 433/433 434/434
f 312/312 434/434 313/313
f 313/313 434/434 435/435
f 313/313 435/435 314/314
f 314/314 435/435 436/436
f 314/314 436/436 315/315
f 315/315 436/436 437/437
f 315/315 437/437 316/316
f 316/316 437/437 438/438
f 316/316 438/438 317/317
f 317/317 438/438 439/439
f 317/317 439/439 318/318
f 318/318 439/439 440/440
f 318/318 440/440 319/319
f 319/319 440/440 441/441
f 319/319 441/441 320/320
f 320/320 441/441 442/442
f 320/320 442/442 321/321
f 321/321 442/442 443/443
f 321/321 443/443 322/322
f 322/322 443/443 444/444
f 322/322 444/444 323/323
f 323/323 444/444 445/445
f 323/323 445/445 324/324
f 324/324 445/445 446/446
f 324/324 446/446 325/325
f 325/325 446/446 447/447
f 325/325 447/447 326/326
f 326/326 447/447 448/448
f 326/326 448/448 327/327
f 327/327 448/448 449/449
f 327/327 449/449 328/328
f 328/328 449/449 450/450
f 328/328 450/450 329/329
f 329/329 450/450 451/451
f 329/329 451/451 330/330
f 330/330 451/451 452/452
f 330/330 452/452 331/331
f 331/331 452/452 453/453
f 331/331 453/453 332/332
f 332/332 453/453 454/454
f 332/332 454/454 333/333
f 333/333 454/454 455/455
f 333/333 455/455 334/334
f 334/334 455/455 456/456
f 334/334 456/456 335/335
f 335/335 456/456 457/457
f 335/335 457/457 336/336
f 336/336 457/457 458/458
f 336/336 458/458 337/337
f 337/337 458/458 459/459
f 337/337 459/459 338/338
f 338/338 459/459 460/460
f 338/338 460/460 339/339
f 339/339 460/460 461/461
f 339/339 461/461 340/340
f 340/340 461/461 462/462
f 340/340 462/462 341/341
f 341/341 462/462 463/463
f 341/341 463/463 342/342
f 342/342 463/463 464/464
f 342/342 464/464 343/343
f 343/343 464/464 465/465
f 343/343 465/465 344/344
f 344/344 465/465 466/466
f 344/344 466/466 345/345
f 345/345 466/466 467/467
f 345/345 467/467 346/346
f 346/346 467/467 468/468
f 346/346 468/468 347/347
f 347/347 468/468 469/469
f 347/347 469/469 348/348
f 348/348 469/469 470/470
f 348/348 470/470 349/349
f 349/349 470/470 471/471
f 349/349 471/471 350/350
f 350/350 471/471 472/472
f 350/350 472/472 351/351
f 351/351 472/472 473/473
f 351/351 473/473 352/352
f 352/352 473/473 474/474
f 352/352 474/474 353/353
f 353/353 474/474 475/475
f 353/353 475/475 354/354
f 354/354 475/475 476/476
f 354/354 476/476 355/355
f 355/355 476/476 477/477
f 355/355 477/477 356/356
f 356/356 477/477 478/478
f 356/356 478/478 357/357
f 357/357 478/478 479/479
f 357/357 479/479 358/358
f 358/358 479/479 480/480
f 358/358 480/480 359/359
f 359/359 480/480 481/481
f 359/359 481/481 360/360
f 360/360 481/481 482/482
f 360/360 482/482 361/361
f 361/361 482/482 483/483
f 361/361 483/483 362/362
f 362/362 483/483 484/484
f 362/362 484/484 363/363
f 364/364 485/485 486/486
f 364/364 486/486 365/365
f 365/365 486/486 487/487
f 365/365 487/487 366/366
f 366/366 487/487 488/488
f 366/366 488/488 367/367
f 367/367 488/488 489/489
f 367/367 489/489 368/368
f 368/368 489/489 490/490
f 368/368 490/490 369/369
f 369/369 490/490 491/491
f 369/369 491/491 370/370
f 370/370 491/491 492/492
f 370/370 492/492 371/371
f 371/371 492/492 493/493
f 371/371 493/493 372/372
f 372/372 493/493 494/494
f 372/372 494/494 373/373
f 373/373 494/494 495/495
f 373/373 495/495 374/374
f 374/374 495/495 496/496
f 374/374 496/496 375/375
f 375/375 496/496 497/497
f 375/375 497/497 376/376
f 376/376 497/497 498/498
f 376/376 498/498 377/377
f 377/377 498/498 499/499
f 377/377 499/499 378/378
f 378/378 499/499 500/500
f 378/378 500/500 379/379
f 379/379 500/500 501/501
f 379/379 501/501 380/380
f 380/380 501/501 502/502
f 380/380 502/502 381/381
f 381/381 502/502 503/503
f 381/381 503/503 382/382
f 382/382 503/503 504/504
f 382/382 504/504 383/383
f 383/383 504/504 505/505
f 383/383 505/505 384/384
f 384/384 505/505 506/506
f 384/384 506/506 385/385
f 385/385 506/506 507/507
f 385/385 507/507 386/386
f 386/386 507/507 508/508
f 386/386 508/508 387/387
f 387/387 508/508 509/509
f 387/387 509/509 388/388
f 388/388 509/509 510/510
f 388/388 510/510 389/389
f 389/389 510/510 511/511
f 389/389 511/511 390/390
f 390/390 511/511 512/512
f 390/390 512/512 391/391
f 391/391 512/512 513/513
f 391/391 513/513 392/392
f 392/392 513/513 514/514
f 392/392 514/514 393/393
f 393/393 514/514 515/515
f 393/393 515/515 394/394
f 394/394 515/515 516/516
f 394/394 516/516 395/395
f 395/395 516/516 517/517
f 395/395 517/517 396/396
f 396/396 517/517 518/518
f 396/396 518/518 397/397
f 397/397 518/518 519/519
f 397/397 519/519 398/398
f 398/398 519/519 520/520
f 398/398 520/520 399/399
f 399/399 520/520 521/521
f 399/399 521/521 400/400
f 400/400 521/521 522/522
f 400/400 522/522 401/401
f 401/401 522/522 523/523
f 401/401 523/523 402/402
f 402/402 523/523 524/524
f 402/402 524/524 403/403
f 403/403 524/524 525/525
f 403/403 525/525 404/404
f 404/404 525/525 526/526
f 404/404 526/526 405/405
f 405/405 526/526 527/527
f 405/405 527/527 406/406
f 406/406 527/527 528/528
f 406/406 528/528 407/407
f 407/407 528/528 529/529
f 407/407 529/529 408/408
f 408/408 529/529 530/530
f 408/408 530/530 409/409
f 409/409 530/530 531/531
f 409/409 531/531 410/410
f 410/410 531/531 532/532
f 410/410 532/532 411/411
f 411/411 532/532 533/533
f 411/411 533/533 412/412
f 412/412 533/533 534/534
f 412/412 534/534 413/413
f 413/413 534/534 535/535
f 413/413 535/535 414/414
f 414/414 535/535 536/536
f 414/414 536/536 415/415
f 415/415 536/536 537/537
f 415/415 537/537 416/416
f 416/416 537/537 538/538
f 416/416 538/538 417/417
f 417/417 538/538 539/539
f 417/417 539/539 418/418
f 418/418 539/539 540/540
f 418/418 540/540 419/419
f 419/419 540/540 541/541
f 419/419 541/541 420/420
f 420/420 541/541 542/542
f 420/420 542/542 421/421
f 421/421 542/542 543/543
f 421/421 543/543 422/422
f 422/422 543/543 544/544
f 422/422 544/544 423/423
f 423/423 544/544 545/545
f 423/423 545/545 424/424
f 424/424 545/545 546/546
f 424/424 546/546 425/425
f 425/425 546/546 547/547
f 425/425 547/547 426/426
f 426/426 547/547 548/548
f 426/426 548/548 427/427
f 427/427 548/548 549/549
f 427/427 549/549 428/428
f 428/428 549/549 550/550
f 428/428 550/550 429/429
f 429/429 550/550 551/551
f 429/429 551/551 430/430
f 430/430 551/551 552/552
f 430/430 552/552 431/431
f 431/431 552/552 553/553
f 431/431 553/553 432/432
f 432/432 553/553 554/554
f 432/432 554/554 433/433
f 433/433 554/554 555/555
f 433/433 555/555 434/434
f 434/434 555/555 556/556
f 434/434 556/556 435/435
f 435/435 556/556 557/557
f 435/435 557/557 436/436
f 436/436 557/557 558/558
f 436/436 558/558 437/437
f 437/437 558/558 559/559
f 437/437 559/559 438/438
f 438/438 559/559 560/560
f 438/438 560/560 439/439
f 439/439 560/560 561/561
f 439/439 561/561 440/440
f 440/440 561/561 562/562
f 440/440 562/562 441/441
f 441/441 562/562 563/563
f 441/441 563/563 442/442
f 442/442 563/563 564/564
f 442/442 564/564 443/443
f 443/443 564/564 565/565
f 443/443 565/565 444/444
f 444/444 565/565 566/566
f 444/444 566/566 445/445
f 445/445 566/566 567/567
f 445/445 567/567 446/446
f 446/446 567/567 568/568
f 446/446 568/568 447/447
f 447/447 568/568 569/569
f 447/447 569/569 448/448
f 448/448 569/569 570/570
f 448/448 570/570 449/449
f 449/449 570/570 571/571
f 449/449 571/571 450/450
f 450/450 571/571 572/572
f 450/450 572/572 451/451
f 451/451 572/572 573/573
f 451/451 573/573 452/452
f 452/452 573/573 574/574
f 452/452 574/574 453/453
f 453/453 574/574 575/575
f 453/453 575/575 454/454
f 454/454 575/575 576/576
f 454/454 576/576 455/455
f 455/455 576/576 577/577
f 455/455 577/577 456/456
f 456/456 577/577 578/578
f 456/456 578/578 457/457
f 457/457 578/578 579/579
f 457/457 579/579 458/458
f 458/458 579/579 580/580
f 458/458 580/580 459/459
f 459/459 580/580 581/581
f 459/459 581/581 460/460
f 460/460 581/581 582/582
f 460/460 582/582 461/461
f 461/461 582/582 583/583
f 461/461 583/583 462/462
f 462/462 583/583 584/584
f 462/462 584/584 463/463
f 463/463 584/584 585/585
f 463/463 585/585 464/464
f 464/464 585/585 586/586
f 464/464 586/586 465/465
f 465/465 586/586 587/587
f 465/465 587/587 466/466
f 466/466 587/587 588/588
f 466/466 588/588 467/467
f 467/467 588/588 589/589
f 467/467 589/589 468/468
f 468/468 589/589 590/590
f 468/468 590/590 469/469
f 469/469 590/590 591/591
f 469/469 591/591 470/470
f 470/470 591/591 592/592
f 470/470 592/592 471/471
f 471/471 592/592 593/593
f 471/471 593/593 472/472
f 472/472 593/593 594/594
f 472/472 594/594 473/473
f 473/473 594/594 595/595
f 473/473 595/595 474/474
f 474/474 595/595 596/596
f 474/474 596/596 475/475
f 475/475 596/596 597/597
f 475/475 597/597 476/476
f 476/476 597/597 598/598
f 476/476 598/598 477/477
f 477/477 598/598 599/599
f 477/477 599/599 478/478
f 478/478 599/599 600/600
f 478/478 600/600 479/479
f 479/479 600/600 601/601
f 479/479 601/601 480/480
f 480/480 601/601 602/602
f 480/480 602/602 481/481
f 481/481 602/602 603/603
f 481/481 603/603 482/482
f 482/482 603/603 604/604
f 482/482 604/604 483/483
f 483/483 604/604 605/605
f 483/483 605/605 484/484
f 485/485 606/606 607/607
f 485/485 607/607 486/486
f 486/486 607/607 608/608
f 486/486 608/608 487/487
f 487/487 608/608 609/609
f 487/487 609/609 488/488
f 488/488 609/609 610/610
f 488/488 610/610 489/489
f 489/489 610/610 611/611
f 489/489 611/611 490/490
f 490/490 611/611 612/612
f 490/490 612/612 491/491
f 491/491 612/612 613/613
f 491/491 613/613 492/492
f 492/492 613/613 614/614
f 492/492 614/614 493/493
f 493/493 614/614 615/615
f 493/493 615/615 494/494
f 494/494 615/615 616/616
f 494/494 616/616 495/495
f 495/495 616/616 617/617
f 495/495 617/617 496/496
f 496/496 617/617 618/618
f 496/496 618/618 497/497
f 497/497 618/618 619/619
f 497/497 619/619 498/498
f 498/498 619/619 620/620
f 498/498 620/620 499/499
f 499/499 620/620 621/621
f 499/499 621/621 500/500
f 500/500 621/621 622/622
f 500/500 622/622 501/501
f 501/501 622/622 623/623
f 501/501 623/623 502/502
f 502/502 623/623 624/624
f 502/502 624/624 503/503
f 503/503 624/624 625/625
f 503/503 625/625 504/504
f 504/504 625/625 626/626
f 504/504 626/626 505/505
f 505/505 626/626 627/627
f 505/505 627/627 506/506
f 506/506 627/627 628/628
f 506/506 628/628 507/507
f 507/507 628/628 629/629
f 507/507 629/629 508/508
f 508/508 629/629 630/630
f 508/508 630/630 509/509
f 509/509 630/630 631/631
f 509/509 631/631 510/510
f 510/510 631/631 632/632
f 510/510 632/632 511/511
f 511/511 632/632 633/633
f 511/511 633/633 512/512
f 512/512 633/633 634/634
f 512/512 634/634 513/513
f 513/513 634/634 635/635
f 513/513 635/635 514/514
f 514/514 635/635 636/636
f 514/514 636/636 515/515
f 515/515 636/636 637/637
f 515/515 637/637 516/516
f 516/516 637/637 638/638
f 516/516 638/638 517/517
f 517/517 638/638 639/639
f 517/517 639/639 518/518
f 518/518 639/639 640/640
f 518/518 640/640 519/519
f 519/519 640/640 641/641
f 519/519 641/641 520/520
f 520/520 641/641 642/642
f 520/520 642/642 521/521
f 521/521 642/642 643/643
f 521/521 643/643 522/522
f 522/522 643/643 644/644
f 522/522 644/644 523/523
f 523/523 644/644 645/645
f 523/523 645/645 524/524
f 524/524 645/645 646/646
f 524/524 646/646 525/525
f 525/525 646/646 647/647
f 525/525 647/647 526/526
f 526/526 647/647 648/648
f 526/526 648/648 527/527
f 527/527 648/648 649/649
f 527/527 649/649 528/528
f 528/528 649/649 650/650
f 528/528 650/650 529/529
f 529/529 650/650 651/651
f 529/529 651/651 530/530
f 530/530 651/651 652/652
f 530/530 652/652 531/531
f 531/531 652/652 653/653
f 531/531 653/653 532/532
f 532/532 653/653 654/654
f 532/532 654/654 533/533
f 533/533 654/654 655/655
f 533/533 655/655 534/534
f 534/534 655/655 656/656
f 534/534 656/656 535/535
f 535/535 656/656 657/657
f 535/535 657/657 536/536
f 536/536 657/657 658/658
f 536/536 658/658 537/537
f 537/537 658/658 659/659
f 537/537 659/659 538/538
f 538/538 659/659 660/660
f 538/538 660/660 539/539
f 539/539 660/660 661/661
f 539/539 661/661 540/540
f 540/540 661/661 662/662
f 540/540 662/662 541/541
f 541/541 662/662 663/663
f 541/541 663/663 542/542
f 542/542 663/663 664/664
f 542/542 664/664 543/543
f 543/543 664/664 665/665
f 543/543 665/665 544/544
f 544/544 665/665 666/666
f 544/544 666/666 545/545
f 545/545 666/666 667/667
f 545/545 667/667 546/546
f 546/546 667/667 668/668
f 546/546 668/668 547/547
f 547/547 668/668 669/669
f 547/547 669/669 548/548
f 548/548 669/669 670/670
f 548/548 670/670 549/549
f 549/549 670/670 671/671
f 549/549 671/671 550/550
f 550/550 671/671 672/672
f 550/550 672/672 551/551
f 551/551 672/672 673/673
f 551/551 673/673 552/552
f 552/552 673/673 674/674
f 552/552 674/674 553/553
f 553/553 674/674 675/675
f 553/553 675/675 554/554
f 554/554 675/675 676/676
f 554/554 676/676 555/555
f 555/555 676/676 677/677
f 555/555 677/677 556/556
f 556/556 677/677 678/678
f 556/556 678/678 557/557
f 557/557 678/678 679/679
f 557/557 679/679 558/558
f 558/558 679/679 680/680
f 558/558 680/680 559/559
f 559/559 680/680 681/681
f 559/559 681/681 560/560
f 560/560 681/681 682/682
f 560/560 682/682 561/561
f 561/561 682/682 683/683
f 561/561 683/683 562/562
f 562/562 683/683 684/684
f 562/562 684/684 563/563
f 563/563 684/684 685/685
f 563/563 685/685 564/564
f 564/564 685/685 686/686
f 564/564 686/686 565/565
f 565/565 686/686 687/687
f 565/565 687/687 566/566
f 566/566 687/687 688/688
f 566/566 688/688 567/567
f 567/567 688/688 689/689
f 567/567 689/689 568/568
f 568/568 689/689 690/690
f 568/568 690/690 569/569
f 569/569 690/690 691/691
f 569/569 691/691 570/570
f 570/570 691/691 692/692
f 570/570 692/692 571/571
f 571/571 692/692 693/693
f 571/571 693/693 572/572
f 572/572 693/693 694/694
f 572/572 694/694 573/573
f 573/573 694/694 695/695
f 573/573 695/695 574/574
f 574/574 695/695 696/696
f 574/574 696/696 575/575
f 575/575 696/696 697/697
f 575/575 697/697 576/576
f 576/576 697/697 698/698
f 576/576 698/698 577/577
f 577/577 698/698 699/699
f 577/577 699/699 578/578
f 578/578 699/699 700/700
f 578/578 700/700 579/579
f 579/579 700/700 701/701
f 579/579 701/701 580/580
f 580/580 701/701 702/702
f 580/580 702/702 581/581
f 581/581 702/702 703/703
f 581/581 703/703 582/582
f 582/582 703/703 704/704
f 582/582 704/704 583/583
f 583/583 704/704 705/705
f 583/583 705/705 584/584
f 584/584 705/705 706/706
f 584/584 706/706 585/585
f 585/585 706/706 707/707
f 585/585 707/707 586/586
f 586/586 707/707 708/708
f 586/586 708/708 587/587
f 587/587 708/708 709/709
f 587/587 709/709 588/588
f 588/588 709/709 710/710
f 588/588 710/710 589/589
f 589/589 710/710 711/711
f 589/589 711/711 590/590
f 590/590 711/711 712/712
f 590/590 712/712 591/591
f 591/591 712/712 713/713
f 591/591 713/713 592/592
f 592/592 713/713 714/714
f 592/592 714/714 593/593
f 593/593 714/714 715/715
f 593/593 715/715 594/594
f 594/594 715/715 716/716
f 594/594 716/716 595/595
f 595/595 716/716 717/717
f 595/595 717/717 596/596
f 596/596 717/717 718/718
f 596/596 718/718 597/597
f 597/597 718/718 719/719
f 597/597 719/719 598/598
f 598/598 719/719 720/720
f 598/598 720/720 599/599
f 599/599 720/720 721/721
f 599/599 721/721 600/600
f 600/600 721/721 722/722
f 600/600 722/722 601/601
f 601/601 722/722 723/723
f 601/601 723/723 602/602
f 602/602 723/723 724/724
f 602/602 724/724 603/603
f 603/603 724/724 725/725
f 603/603 725/725 604/604
f 604/604 725/725 726/726
f 604/604 726/726 605/605
