# Basketbroom original 3D environment. Centimetres, Z up.
o SM_BB_ENV_RW_CoastalBluff
s 1
v -84000.00000 -13459.38650 -528.40576
v -81666.66667 -13205.10603 -442.22016
v -79333.33333 -12802.41141 -365.46572
v -77000.00000 -13803.88762 -307.44927
v -74666.66667 -14287.02772 -275.20557
v -72333.33333 -14032.92899 -272.64431
v -70000.00000 -14872.57414 -300.07606
v -67666.66667 -15293.31017 -354.17459
v -65333.33333 -14479.44206 -428.38022
v -63000.00000 -14512.24160 -513.69516
v -60666.66667 -14585.34576 -599.77459
v -58333.33333 -13432.21836 -676.18099
v -56000.00000 -13124.67551 -733.64973
v -53666.66667 -13540.70224 -765.21246
v -51333.33333 -12937.82320 -767.04206
v -49000.00000 -12971.03747 -738.91668
v -46666.66667 -14063.77293 -684.24665
v -44333.33333 -14099.94878 -609.66096
v -42000.00000 -14130.42080 -524.20348
v -39666.66667 -15157.46465 -438.23630
v -37333.33333 -15070.56784 -362.18334
v -35000.00000 -14379.27838 -305.26638
v -32666.66667 -14722.90125 -274.38685
v -30333.33333 -14347.41468 -273.28904
v -28000.00000 -13206.21514 -302.10606
v -25666.66667 -13349.24860 -357.34372
v -23333.33333 -13449.38627 -432.30419
v -21000.00000 -12738.87246 -517.89819
v -18666.66667 -13275.12673 -603.74704
v -16333.33333 -14160.43702 -679.44118
v -14000.00000 -13914.90099 -735.80234
v -11666.66667 -14387.43879 -765.99649
v -9333.33333 -15302.14621 -766.36243
v -7000.00000 -14784.69194 -736.85581
v -4666.66667 -14451.90776 -681.05442
v -2333.33333 -14842.33773 -605.72445
v 0.00000 -14000.00000 -520.00000
v 2333.33333 -13157.66227 -434.27555
v 4666.66667 -13548.09224 -358.94558
v 7000.00000 -13215.30806 -303.14419
v 9333.33333 -12697.85379 -273.63757
v 11666.66667 -13612.56121 -274.00351
v 14000.00000 -14085.09901 -304.19766
v 16333.33333 -13839.56298 -360.55882
v 18666.66667 -14724.87327 -436.25296
v 21000.00000 -15261.12754 -522.10181
v 23333.33333 -14550.61373 -607.69581
v 25666.66667 -14650.75140 -682.65628
v 28000.00000 -14793.78486 -737.89394
v 30333.33333 -13652.58532 -766.71096
v 32666.66667 -13277.09875 -765.61315
v 35000.00000 -13620.72162 -734.73362
v 37333.33333 -12929.43216 -677.81666
v 39666.66667 -12842.53535 -601.76370
v 42000.00000 -13869.57920 -515.79652
v 44333.33333 -13900.05122 -430.33904
v 46666.66667 -13936.22707 -355.75335
v 49000.00000 -15028.96253 -301.08332
v 51333.33333 -15062.17680 -272.95794
v 53666.66667 -14459.29776 -274.78754
v 56000.00000 -14875.32449 -306.35027
v 58333.33333 -14567.78164 -363.81901
v 60666.66667 -13414.65424 -440.22541
v 63000.00000 -13487.75840 -526.30484
v 65333.33333 -13520.55794 -611.61978
v 67666.66667 -12706.68983 -685.82541
v 70000.00000 -13127.42586 -739.92394
v 72333.33333 -13967.07101 -767.35569
v 74666.66667 -13712.97228 -764.79443
v 77000.00000 -14196.11238 -732.55073
v 79333.33333 -15197.58859 -674.53428
v 81666.66667 -14794.89397 -597.77984
v 84000.00000 -14540.61350 -511.59424
v -84000.00000 -12899.38650 -1464.29285
v -81666.66667 -12645.10603 -1428.04800
v -79333.33333 -12242.41141 -1421.14094
v -77000.00000 -13243.88762 -1444.40917
v -74666.66667 -13727.02772 -1495.03133
v -72333.33333 -13472.92899 -1566.86924
v -70000.00000 -14312.57414 -1651.21222
v -67666.66667 -14733.31017 -1737.83331
v -65333.33333 -13919.44206 -1816.22930
v -63000.00000 -13952.24160 -1876.89432
v -60666.66667 -14025.34576 -1912.47245
v -58333.33333 -12872.21836 -1918.64969
v -56000.00000 -12564.67551 -1894.67702
v -53666.66667 -12980.70224 -1843.46124
v -51333.33333 -12377.82320 -1771.21248
v -49000.00000 -12411.03747 -1686.69125
v -46666.66667 -13503.77293 -1600.14613
v -44333.33333 -13539.94878 -1522.07110
v -42000.00000 -13570.42080 -1461.93314
v -39666.66667 -14597.46465 -1427.02423
v -37333.33333 -14510.56784 -1421.57725
v -35000.00000 -13819.27838 -1446.25266
v -32666.66667 -14162.90125 -1498.05846
v -30333.33333 -13787.41468 -1570.71296
v -28000.00000 -12646.21514 -1655.40646
v -25666.66667 -12789.24860 -1741.86950
v -23333.33333 -12889.38627 -1819.61804
v -21000.00000 -12178.87246 -1879.22470
v -18666.66667 -12715.12673 -1913.46191
v -16333.33333 -13600.43702 -1918.17825
v -14000.00000 -13354.90099 -1892.80184
v -11666.66667 -13827.43879 -1840.40969
v -9333.33333 -14742.14621 -1767.35459
v -7000.00000 -14224.69194 -1682.49479
v -4666.66667 -13891.90776 -1596.11995
v -2333.33333 -14282.33773 -1518.70340
v 0.00000 -13440.00000 -1459.63225
v 2333.33333 -12597.66227 -1426.06916
v 4666.66667 -12988.09224 -1422.08380
v 7000.00000 -12655.30806 -1448.15941
v 9333.33333 -12137.85379 -1501.13420
v 11666.66667 -13052.56121 -1574.58475
v 14000.00000 -13525.09901 -1659.60483
v 16333.33333 -13279.56298 -1745.88538
v 18666.66667 -14164.87327 -1822.96447
v 21000.00000 -14701.12754 -1881.49593
v 23333.33333 -13990.61373 -1914.38253
v 25666.66667 -14090.75140 -1917.63663
v 28000.00000 -14233.78486 -1890.86366
v 30333.33333 -13092.58532 -1837.30996
v 32666.66667 -12717.09875 -1763.46917
v 35000.00000 -13060.72162 -1678.29480
v 37333.33333 -12369.43216 -1592.11466
v 39666.66667 -12282.53535 -1515.37847
v 42000.00000 -13309.57920 -1457.39084
v 44333.33333 -13340.05122 -1425.18305
v 46666.66667 -13376.22707 -1422.66044
v 49000.00000 -14468.96253 -1450.12888
v 51333.33333 -14502.17680 -1504.25769
v 53666.66667 -13899.29776 -1578.48352
v 56000.00000 -14315.32449 -1663.80614
v 58333.33333 -14007.78164 -1749.87980
v 60666.66667 -12854.65424 -1826.26766
v 63000.00000 -12927.75840 -1883.70736
v 65333.33333 -12960.55794 -1915.23406
v 67666.66667 -12146.68983 -1917.02501
v 70000.00000 -12567.42586 -1888.86304
v 72333.33333 -13407.07101 -1834.16294
v 74666.66667 -13152.97228 -1759.55732
v 77000.00000 -13636.11238 -1674.09247
v 79333.33333 -14637.58859 -1588.13139
v 81666.66667 -14234.89397 -1512.09725
v 84000.00000 -13980.61350 -1455.20955
v -84000.00000 -12339.38650 -2589.30614
v -81666.66667 -12085.10603 -2636.32539
v -79333.33333 -11682.41141 -2705.61603
v -77000.00000 -12683.88762 -2788.77624
v -74666.66667 -13167.02772 -2875.72248
v -72333.33333 -12912.92899 -2955.91211
v -70000.00000 -13752.57414 -3019.62178
v -67666.66667 -14173.31017 -3059.12639
v -65333.33333 -13359.44206 -3069.63584
v -63000.00000 -13392.24160 -3049.87579
v -60666.66667 -13465.34576 -3002.24226
v -58333.33333 -12312.21836 -2932.51102
v -56000.00000 -12004.67551 -2849.13730
v -53666.66667 -12420.70224 -2762.23055
v -51333.33333 -11817.82320 -2682.32861
v -49000.00000 -11851.03747 -2619.11996
v -46666.66667 -12943.77293 -2580.26893
v -44333.33333 -12979.94878 -2570.48639
v -42000.00000 -13010.42080 -2590.95852
v -39666.66667 -14037.46465 -2639.20297
v -37333.33333 -13950.56784 -2709.36989
v -35000.00000 -13259.27838 -2792.95122
v -32666.66667 -13602.90125 -2879.81233
v -30333.33333 -13227.41468 -2959.42093
v -28000.00000 -12086.21514 -3022.12410
v -25666.66667 -12229.24860 -3060.31880
v -23333.33333 -12329.38627 -3069.37375
v -21000.00000 -11618.87246 -3048.19099
v -18666.66667 -12155.12673 -2999.33902
v -16333.33333 -13040.43702 -2928.74138
v -14000.00000 -12794.90099 -2844.95835
v -11666.66667 -13267.43879 -2758.14901
v -9333.33333 -14182.14621 -2678.83938
v -7000.00000 -13664.69194 -2616.64612
v -4666.66667 -13331.90776 -2579.11045
v -2333.33333 -13722.33773 -2570.78374
v 0.00000 -12880.00000 -2592.67564
v 2333.33333 -12037.66227 -2642.13166
v 4666.66667 -12428.09224 -2713.15503
v 7000.00000 -12095.30806 -2797.13384
v 9333.33333 -11577.85379 -2883.88528
v 11666.66667 -12492.56121 -2962.89033
v 14000.00000 -12965.09901 -3024.56928
v 16333.33333 -12719.56298 -3061.44327
v 18666.66667 -13604.87327 -3069.04115
v 21000.00000 -14141.12754 -3046.44166
v 23333.33333 -13430.61373 -2996.38508
v 25666.66667 -13530.75140 -2924.94100
v 28000.00000 -13673.78486 -2840.77235
v 30333.33333 -12532.58532 -2754.08495
v 32666.66667 -12157.09875 -2675.39006
v 35000.00000 -12500.72162 -2614.22978
v 37333.33333 -11809.43216 -2578.02008
v 39666.66667 -11722.53535 -2571.15156
v 42000.00000 -12749.57920 -2594.45704
v 44333.33333 -12780.05122 -2645.11064
v 46666.66667 -12816.22707 -2716.97038
v 49000.00000 -13908.96253 -2801.32293
v 51333.33333 -13942.17680 -2887.94016
v 53666.66667 -13339.29776 -2966.31933
v 56000.00000 -13755.32449 -3026.95662
v 58333.33333 -13447.78164 -3062.49947
v 60666.66667 -12294.65424 -3068.63815
v 63000.00000 -12367.75840 -3044.62831
v 65333.33333 -12400.55794 -2993.38127
v 67666.66667 -11586.68983 -2921.11096
v 70000.00000 -12007.42586 -2836.58047
v 72333.33333 -12847.07101 -2750.03953
v 74666.66667 -12592.97228 -2671.98162
v 77000.00000 -13076.11238 -2611.87161
v 79333.33333 -14077.58859 -2576.99812
v 81666.66667 -13674.89397 -2571.58972
v 84000.00000 -13420.61350 -2596.30221
v -84000.00000 -11779.38650 -3926.41830
v -81666.66667 -11525.10603 -4013.47237
v -79333.33333 -11122.41141 -4095.25521
v -77000.00000 -12123.88762 -4161.85029
v -74666.66667 -12607.02772 -4205.18264
v -72333.33333 -12352.92899 -4219.99802
v -70000.00000 -13192.57414 -4204.49999
v -67666.66667 -13613.31017 -4160.56777
v -65333.33333 -12799.44206 -4093.52834
v -63000.00000 -12832.24160 -4011.51053
v -60666.66667 -12905.34576 -3924.45937
v -58333.33333 -11752.21836 -3842.93023
v -56000.00000 -11444.67551 -3776.80888
v -53666.66667 -11860.70224 -3734.11283
v -51333.33333 -11257.82320 -3720.01919
v -49000.00000 -11291.03747 -3736.23686
v -46666.66667 -12383.77293 -3780.79938
v -44333.33333 -12419.94878 -3848.30334
v -42000.00000 -12450.42080 -3930.56358
v -39666.66667 -13477.46465 -4017.60566
v -37333.33333 -13390.56784 -4098.87534
v -35000.00000 -12699.27838 -4164.51830
v -32666.66667 -13042.90125 -4206.57502
v -30333.33333 -12667.41468 -4219.94594
v -28000.00000 -11526.21514 -4203.00977
v -25666.66667 -11669.24860 -4157.82010
v -23333.33333 -11769.38627 -4089.85638
v -21000.00000 -11058.87246 -4007.35953
v -18666.66667 -11595.12673 -3920.33267
v -16333.33333 -12480.43702 -3839.32819
v -14000.00000 -12234.90099 -3774.16827
v -11666.66667 -12707.43879 -3732.75385
v -9333.33333 -13622.14621 -3720.10660
v -7000.00000 -13104.69194 -3737.76007
v -4666.66667 -12771.90776 -3783.57370
v -2333.33333 -13162.33773 -3851.99236
v 0.00000 -12320.00000 -3934.72000
v 2333.33333 -11477.66227 -4021.72549
v 4666.66667 -11868.09224 -4102.45904
v 7000.00000 -11535.30806 -4167.13131
v 9333.33333 -11017.85379 -4207.90052
v 11666.66667 -11932.56121 -4219.82320
v 14000.00000 -12405.09901 -4201.45367
v 16333.33333 -12159.56298 -4155.01933
v 18666.66667 -13044.87327 -4086.15054
v 21000.00000 -13581.12754 -4003.19798
v 23333.33333 -12870.61373 -3916.22000
v 25666.66667 -12970.75140 -3835.76310
v 28000.00000 -13113.78486 -3771.58303
v 30333.33333 -11972.58532 -3731.46193
v 32666.66667 -11597.09875 -3720.26466
v 35000.00000 -11940.72162 -3739.34895
v 37333.33333 -11249.43216 -3786.40073
v 39666.66667 -11162.53535 -3855.71476
v 42000.00000 -12189.57920 -3938.88639
v 44333.33333 -12220.05122 -4025.83070
v 46666.66667 -12256.22707 -4106.00528
v 49000.00000 -13348.96253 -4169.68859
v 51333.33333 -13382.17680 -4209.15875
v 53666.66667 -12779.29776 -4219.62982
v 56000.00000 -13195.32449 -4199.83213
v 58333.33333 -12887.78164 -4152.16624
v 60666.66667 -11734.65424 -4082.41187
v 63000.00000 -11807.75840 -3999.02704
v 65333.33333 -11840.55794 -3912.12254
v 67666.66667 -11026.68983 -3832.23596
v 70000.00000 -11447.42586 -3769.05389
v 72333.33333 -12287.07101 -3730.23746
v 74666.66667 -12032.97228 -3720.49334
v 77000.00000 -12516.11238 -3741.00303
v 79333.33333 -13517.58859 -3789.27966
v 81666.66667 -13114.89397 -3859.46946
v 84000.00000 -12860.61350 -3943.06159
v -84000.00000 -11219.38650 -5303.59927
v -81666.66667 -10965.10603 -5350.65105
v -79333.33333 -10562.41141 -5369.73534
v -77000.00000 -11563.88762 -5358.53807
v -74666.66667 -12047.02772 -5318.41697
v -72333.33333 -11792.92899 -5254.23690
v -70000.00000 -12632.57414 -5173.78000
v -67666.66667 -13053.31017 -5086.80202
v -65333.33333 -12239.44206 -5003.84946
v -63000.00000 -12272.24160 -4934.98067
v -60666.66667 -12345.34576 -4888.54633
v -58333.33333 -11192.21836 -4870.17680
v -56000.00000 -10884.67551 -4882.09948
v -53666.66667 -11300.70224 -4922.86869
v -51333.33333 -10697.82320 -4987.54096
v -49000.00000 -10731.03747 -5068.27451
v -46666.66667 -11823.77293 -5155.28000
v -44333.33333 -11859.94878 -5238.00764
v -42000.00000 -11890.42080 -5306.42630
v -39666.66667 -12917.46465 -5352.23993
v -37333.33333 -12830.56784 -5369.89340
v -35000.00000 -12139.27838 -5357.24615
v -32666.66667 -12482.90125 -5315.83173
v -30333.33333 -12107.41468 -5250.67181
v -28000.00000 -10966.21514 -5169.66733
v -25666.66667 -11109.24860 -5082.64047
v -23333.33333 -11209.38627 -5000.14362
v -21000.00000 -10498.87246 -4932.17990
v -18666.66667 -11035.12673 -4886.99023
v -16333.33333 -11920.43702 -4870.05406
v -14000.00000 -11674.90099 -4883.42498
v -11666.66667 -12147.43879 -4925.48170
v -9333.33333 -13062.14621 -4991.12466
v -7000.00000 -12544.69194 -5072.39434
v -4666.66667 -12211.90776 -5159.43642
v -2333.33333 -12602.33773 -5241.69666
v 0.00000 -11760.00000 -5309.20062
v 2333.33333 -10917.66227 -5353.76314
v 4666.66667 -11308.09224 -5369.98081
v 7000.00000 -10975.30806 -5355.88717
v 9333.33333 -10457.85379 -5313.19112
v 11666.66667 -11372.56121 -5247.06977
v 14000.00000 -11845.09901 -5165.54063
v 16333.33333 -11599.56298 -5078.48947
v 18666.66667 -12484.87327 -4996.47166
v 21000.00000 -13021.12754 -4929.43223
v 23333.33333 -12310.61373 -4885.50001
v 25666.66667 -12410.75140 -4870.00198
v 28000.00000 -12553.78486 -4884.81736
v 30333.33333 -11412.58532 -4928.14971
v 32666.66667 -11037.09875 -4994.74479
v 35000.00000 -11380.72162 -5076.52763
v 37333.33333 -10689.43216 -5163.58170
v 39666.66667 -10602.53535 -5245.35128
v 42000.00000 -11629.57920 -5311.92145
v 44333.33333 -11660.05122 -5355.22027
v 46666.66667 -11696.22707 -5369.99755
v 49000.00000 -12788.96253 -5354.46149
v 51333.33333 -12822.17680 -5310.49590
v 53666.66667 -12219.29776 -5243.43181
v 56000.00000 -12635.32449 -5161.40104
v 58333.33333 -12327.78164 -5074.35022
v 60666.66667 -11174.65424 -4992.83463
v 63000.00000 -11247.75840 -4926.73843
v 65333.33333 -11280.55794 -4884.07608
v 67666.66667 -10466.68983 -4870.02059
v 70000.00000 -10887.42586 -4886.27624
v 72333.33333 -11727.07101 -4930.87196
v 74666.66667 -11472.97228 -4998.40033
v 77000.00000 -11956.11238 -5080.67321
v 79333.33333 -12957.58859 -5167.71465
v 81666.66667 -12554.89397 -5248.97046
v 84000.00000 -12300.61350 -5314.58802
v -84000.00000 -10659.38650 -6511.97992
v -81666.66667 -10405.10603 -6475.77022
v -79333.33333 -10002.41141 -6414.60994
v -77000.00000 -11003.88762 -6335.91505
v -74666.66667 -11487.02772 -6249.22765
v -72333.33333 -11232.92899 -6165.05900
v -70000.00000 -12072.57414 -6093.61492
v -67666.66667 -12493.31017 -6043.55834
v -65333.33333 -11679.44206 -6020.95885
v -63000.00000 -11712.24160 -6028.55673
v -60666.66667 -11785.34576 -6065.43072
v -58333.33333 -10632.21836 -6127.10967
v -56000.00000 -10324.67551 -6206.11472
v -53666.66667 -10740.70224 -6292.86616
v -51333.33333 -10137.82320 -6376.84497
v -49000.00000 -10171.03747 -6447.86834
v -46666.66667 -11263.77293 -6497.32436
v -44333.33333 -11299.94878 -6519.21626
v -42000.00000 -11330.42080 -6510.88955
v -39666.66667 -12357.46465 -6473.35388
v -37333.33333 -12270.56784 -6411.16062
v -35000.00000 -11579.27838 -6331.85099
v -32666.66667 -11922.90125 -6245.04165
v -30333.33333 -11547.41468 -6161.25862
v -28000.00000 -10406.21514 -6090.66098
v -25666.66667 -10549.24860 -6041.80901
v -23333.33333 -10649.38627 -6020.62625
v -21000.00000 -9938.87246 -6029.68120
v -18666.66667 -10475.12673 -6067.87590
v -16333.33333 -11360.43702 -6130.57907
v -14000.00000 -11114.90099 -6210.18767
v -11666.66667 -11587.43879 -6297.04878
v -9333.33333 -12502.14621 -6380.63011
v -7000.00000 -11984.69194 -6450.79703
v -4666.66667 -11651.90776 -6499.04148
v -2333.33333 -12042.33773 -6519.51361
v 0.00000 -11200.00000 -6509.73107
v 2333.33333 -10357.66227 -6470.88004
v 4666.66667 -10748.09224 -6407.67139
v 7000.00000 -10415.30806 -6327.76945
v 9333.33333 -9897.85379 -6240.86270
v 11666.66667 -10812.56121 -6157.48898
v 14000.00000 -11285.09901 -6087.75774
v 16333.33333 -11039.56298 -6040.12421
v 18666.66667 -11924.87327 -6020.36416
v 21000.00000 -12461.12754 -6030.87361
v 23333.33333 -11750.61373 -6070.37822
v 25666.66667 -11850.75140 -6134.08789
v 28000.00000 -11993.78486 -6214.27752
v 30333.33333 -10852.58532 -6301.22376
v 32666.66667 -10477.09875 -6384.38397
v 35000.00000 -10820.72162 -6453.67461
v 37333.33333 -10129.43216 -6500.69386
v 39666.66667 -10042.53535 -6519.74042
v 42000.00000 -11069.57920 -6508.50481
v 44333.33333 -11100.05122 -6468.34941
v 46666.66667 -11136.22707 -6404.14323
v 49000.00000 -12228.96253 -6323.67157
v 51333.33333 -12262.17680 -6236.69199
v 53666.66667 -11659.29776 -6153.75116
v 56000.00000 -12075.32449 -6084.90603
v 58333.33333 -11767.78164 -6038.50439
v 60666.66667 -10614.65424 -6020.17265
v 63000.00000 -10687.75840 -6032.13362
v 65333.33333 -10720.55794 -6072.93698
v 67666.66667 -9906.68983 -6137.63513
v 70000.00000 -10327.42586 -6218.38313
v 72333.33333 -11167.07101 -6305.38991
v 74666.66667 -10912.97228 -6388.10550
v 77000.00000 -11396.11238 -6456.50025
v 79333.33333 -12397.58859 -6502.28100
v 81666.66667 -11994.89397 -6519.89662
v 84000.00000 -11740.61350 -6507.21112
v -84000.00000 -10099.38650 -7497.88534
v -81666.66667 -9845.10603 -7411.70520
v -79333.33333 -9442.41141 -7326.53083
v -77000.00000 -10443.88762 -7252.69004
v -74666.66667 -10927.02772 -7199.13634
v -72333.33333 -10672.92899 -7172.36337
v -70000.00000 -11512.57414 -7175.61747
v -67666.66667 -11933.31017 -7208.50407
v -65333.33333 -11119.44206 -7267.03553
v -63000.00000 -11152.24160 -7344.11462
v -60666.66667 -11225.34576 -7430.39517
v -58333.33333 -10072.21836 -7515.41525
v -56000.00000 -9764.67551 -7588.86580
v -53666.66667 -10180.70224 -7641.84059
v -51333.33333 -9577.82320 -7667.91620
v -49000.00000 -9611.03747 -7663.93084
v -46666.66667 -10703.77293 -7630.36775
v -44333.33333 -10739.94878 -7571.29660
v -42000.00000 -10770.42080 -7493.88005
v -39666.66667 -11797.46465 -7407.50521
v -37333.33333 -11710.56784 -7322.64541
v -35000.00000 -11019.27838 -7249.59031
v -32666.66667 -11362.90125 -7197.19816
v -30333.33333 -10987.41468 -7171.82175
v -28000.00000 -9846.21514 -7176.53809
v -25666.66667 -9989.24860 -7210.77530
v -23333.33333 -10089.38627 -7270.38196
v -21000.00000 -9378.87246 -7348.13050
v -18666.66667 -9915.12673 -7434.59354
v -16333.33333 -10800.43702 -7519.28704
v -14000.00000 -10554.90099 -7591.94154
v -11666.66667 -11027.43879 -7643.74734
v -9333.33333 -11942.14621 -7668.42275
v -7000.00000 -11424.69194 -7662.97577
v -4666.66667 -11091.90776 -7628.06686
v -2333.33333 -11482.33773 -7567.92890
v 0.00000 -10640.00000 -7489.85387
v 2333.33333 -9797.66227 -7403.30875
v 4666.66667 -10188.09224 -7318.78752
v 7000.00000 -9855.30806 -7246.53876
v 9333.33333 -9337.85379 -7195.32298
v 11666.66667 -10252.56121 -7171.35031
v 14000.00000 -10725.09901 -7177.52755
v 16333.33333 -10479.56298 -7213.10568
v 18666.66667 -11364.87327 -7273.77070
v 21000.00000 -11901.12754 -7352.16669
v 23333.33333 -11190.61373 -7438.78778
v 25666.66667 -11290.75140 -7523.13076
v 28000.00000 -11433.78486 -7594.96867
v 30333.33333 -10292.58532 -7645.59083
v 32666.66667 -9917.09875 -7668.85906
v 35000.00000 -10260.72162 -7661.95200
v 37333.33333 -9569.43216 -7625.70715
v 39666.66667 -9482.53535 -7564.51937
v 42000.00000 -10509.57920 -7485.80795
v 44333.33333 -10540.05122 -7399.11702
v 46666.66667 -10576.22707 -7314.95824
v 49000.00000 -11668.96253 -7243.53626
v 51333.33333 -11702.17680 -7193.51131
v 53666.66667 -11099.29776 -7170.94916
v 56000.00000 -11515.32449 -7178.58556
v 58333.33333 -11207.78164 -7215.49456
v 60666.66667 -10054.65424 -7277.20078
v 63000.00000 -10127.75840 -7356.22206
v 65333.33333 -10160.55794 -7442.97671
v 67666.66667 -9346.68983 -7526.94533
v 70000.00000 -9767.42586 -7597.94634
v 72333.33333 -10607.07101 -7647.37053
v 74666.66667 -10352.97228 -7669.22502
v 77000.00000 -10836.11238 -7660.85982
v 79333.33333 -11837.58859 -7623.28928
v 81666.66667 -11434.89397 -7561.06898
v 84000.00000 -11180.61350 -7481.74342
v -84000.00000 -9539.38650 -8412.18334
v -81666.66667 -9285.10603 -8355.26638
v -79333.33333 -8882.41141 -8324.38685
v -77000.00000 -9883.88762 -8323.28904
v -74666.66667 -10367.02772 -8352.10606
v -72333.33333 -10112.92899 -8407.34372
v -70000.00000 -10952.57414 -8482.30419
v -67666.66667 -11373.31017 -8567.89819
v -65333.33333 -10559.44206 -8653.74704
v -63000.00000 -10592.24160 -8729.44118
v -60666.66667 -10665.34576 -8785.80234
v -58333.33333 -9512.21836 -8815.99649
v -56000.00000 -9204.67551 -8816.36243
v -53666.66667 -9620.70224 -8786.85581
v -51333.33333 -9017.82320 -8731.05442
v -49000.00000 -9051.03747 -8655.72445
v -46666.66667 -10143.77293 -8570.00000
v -44333.33333 -10179.94878 -8484.27555
v -42000.00000 -10210.42080 -8408.94558
v -39666.66667 -11237.46465 -8353.14419
v -37333.33333 -11150.56784 -8323.63757
v -35000.00000 -10459.27838 -8324.00351
v -32666.66667 -10802.90125 -8354.19766
v -30333.33333 -10427.41468 -8410.55882
v -28000.00000 -9286.21514 -8486.25296
v -25666.66667 -9429.24860 -8572.10181
v -23333.33333 -9529.38627 -8657.69581
v -21000.00000 -8818.87246 -8732.65628
v -18666.66667 -9355.12673 -8787.89394
v -16333.33333 -10240.43702 -8816.71096
v -14000.00000 -9994.90099 -8815.61315
v -11666.66667 -10467.43879 -8784.73362
v -9333.33333 -11382.14621 -8727.81666
v -7000.00000 -10864.69194 -8651.76370
v -4666.66667 -10531.90776 -8565.79652
v -2333.33333 -10922.33773 -8480.33904
v 0.00000 -10080.00000 -8405.75335
v 2333.33333 -9237.66227 -8351.08332
v 4666.66667 -9628.09224 -8322.95794
v 7000.00000 -9295.30806 -8324.78754
v 9333.33333 -8777.85379 -8356.35027
v 11666.66667 -9692.56121 -8413.81901
v 14000.00000 -10165.09901 -8490.22541
v 16333.33333 -9919.56298 -8576.30484
v 18666.66667 -10804.87327 -8661.61978
v 21000.00000 -11341.12754 -8735.82541
v 23333.33333 -10630.61373 -8789.92394
v 25666.66667 -10730.75140 -8817.35569
v 28000.00000 -10873.78486 -8814.79443
v 30333.33333 -9732.58532 -8782.55073
v 32666.66667 -9357.09875 -8724.53428
v 35000.00000 -9700.72162 -8647.77984
v 37333.33333 -9009.43216 -8561.59424
v 39666.66667 -8922.53535 -8476.42787
v 42000.00000 -9949.57920 -8402.60756
v 44333.33333 -9980.05122 -8349.08434
v 46666.66667 -10016.22707 -8322.34816
v 49000.00000 -11108.96253 -8325.64090
v 51333.33333 -11142.17680 -8358.56329
v 53666.66667 -10539.29776 -8417.12336
v 56000.00000 -10955.32449 -8494.22041
v 58333.33333 -10647.78164 -8580.50609
v 60666.66667 -9494.65424 -8665.51785
v 63000.00000 -9567.75840 -8738.94764
v 65333.33333 -9600.55794 -8791.89176
v 67666.66667 -8786.68983 -8817.93048
v 70000.00000 -9207.42586 -8813.90650
v 72333.33333 -10047.07101 -8780.30774
v 74666.66667 -9792.97228 -8721.20821
v 77000.00000 -10276.11238 -8643.77398
v 79333.33333 -11277.58859 -8557.39433
v 81666.66667 -10874.89397 -8472.54317
v 84000.00000 -10620.61350 -8399.50909
vt -84.000000 -0.528406
vt -81.666667 -0.442220
vt -79.333333 -0.365466
vt -77.000000 -0.307449
vt -74.666667 -0.275206
vt -72.333333 -0.272644
vt -70.000000 -0.300076
vt -67.666667 -0.354175
vt -65.333333 -0.428380
vt -63.000000 -0.513695
vt -60.666667 -0.599775
vt -58.333333 -0.676181
vt -56.000000 -0.733650
vt -53.666667 -0.765212
vt -51.333333 -0.767042
vt -49.000000 -0.738917
vt -46.666667 -0.684247
vt -44.333333 -0.609661
vt -42.000000 -0.524203
vt -39.666667 -0.438236
vt -37.333333 -0.362183
vt -35.000000 -0.305266
vt -32.666667 -0.274387
vt -30.333333 -0.273289
vt -28.000000 -0.302106
vt -25.666667 -0.357344
vt -23.333333 -0.432304
vt -21.000000 -0.517898
vt -18.666667 -0.603747
vt -16.333333 -0.679441
vt -14.000000 -0.735802
vt -11.666667 -0.765996
vt -9.333333 -0.766362
vt -7.000000 -0.736856
vt -4.666667 -0.681054
vt -2.333333 -0.605724
vt 0.000000 -0.520000
vt 2.333333 -0.434276
vt 4.666667 -0.358946
vt 7.000000 -0.303144
vt 9.333333 -0.273638
vt 11.666667 -0.274004
vt 14.000000 -0.304198
vt 16.333333 -0.360559
vt 18.666667 -0.436253
vt 21.000000 -0.522102
vt 23.333333 -0.607696
vt 25.666667 -0.682656
vt 28.000000 -0.737894
vt 30.333333 -0.766711
vt 32.666667 -0.765613
vt 35.000000 -0.734734
vt 37.333333 -0.677817
vt 39.666667 -0.601764
vt 42.000000 -0.515797
vt 44.333333 -0.430339
vt 46.666667 -0.355753
vt 49.000000 -0.301083
vt 51.333333 -0.272958
vt 53.666667 -0.274788
vt 56.000000 -0.306350
vt 58.333333 -0.363819
vt 60.666667 -0.440225
vt 63.000000 -0.526305
vt 65.333333 -0.611620
vt 67.666667 -0.685825
vt 70.000000 -0.739924
vt 72.333333 -0.767356
vt 74.666667 -0.764794
vt 77.000000 -0.732551
vt 79.333333 -0.674534
vt 81.666667 -0.597780
vt 84.000000 -0.511594
vt -84.000000 -1.464293
vt -81.666667 -1.428048
vt -79.333333 -1.421141
vt -77.000000 -1.444409
vt -74.666667 -1.495031
vt -72.333333 -1.566869
vt -70.000000 -1.651212
vt -67.666667 -1.737833
vt -65.333333 -1.816229
vt -63.000000 -1.876894
vt -60.666667 -1.912472
vt -58.333333 -1.918650
vt -56.000000 -1.894677
vt -53.666667 -1.843461
vt -51.333333 -1.771212
vt -49.000000 -1.686691
vt -46.666667 -1.600146
vt -44.333333 -1.522071
vt -42.000000 -1.461933
vt -39.666667 -1.427024
vt -37.333333 -1.421577
vt -35.000000 -1.446253
vt -32.666667 -1.498058
vt -30.333333 -1.570713
vt -28.000000 -1.655406
vt -25.666667 -1.741870
vt -23.333333 -1.819618
vt -21.000000 -1.879225
vt -18.666667 -1.913462
vt -16.333333 -1.918178
vt -14.000000 -1.892802
vt -11.666667 -1.840410
vt -9.333333 -1.767355
vt -7.000000 -1.682495
vt -4.666667 -1.596120
vt -2.333333 -1.518703
vt 0.000000 -1.459632
vt 2.333333 -1.426069
vt 4.666667 -1.422084
vt 7.000000 -1.448159
vt 9.333333 -1.501134
vt 11.666667 -1.574585
vt 14.000000 -1.659605
vt 16.333333 -1.745885
vt 18.666667 -1.822964
vt 21.000000 -1.881496
vt 23.333333 -1.914383
vt 25.666667 -1.917637
vt 28.000000 -1.890864
vt 30.333333 -1.837310
vt 32.666667 -1.763469
vt 35.000000 -1.678295
vt 37.333333 -1.592115
vt 39.666667 -1.515378
vt 42.000000 -1.457391
vt 44.333333 -1.425183
vt 46.666667 -1.422660
vt 49.000000 -1.450129
vt 51.333333 -1.504258
vt 53.666667 -1.578484
vt 56.000000 -1.663806
vt 58.333333 -1.749880
vt 60.666667 -1.826268
vt 63.000000 -1.883707
vt 65.333333 -1.915234
vt 67.666667 -1.917025
vt 70.000000 -1.888863
vt 72.333333 -1.834163
vt 74.666667 -1.759557
vt 77.000000 -1.674092
vt 79.333333 -1.588131
vt 81.666667 -1.512097
vt 84.000000 -1.455210
vt -84.000000 -2.589306
vt -81.666667 -2.636325
vt -79.333333 -2.705616
vt -77.000000 -2.788776
vt -74.666667 -2.875722
vt -72.333333 -2.955912
vt -70.000000 -3.019622
vt -67.666667 -3.059126
vt -65.333333 -3.069636
vt -63.000000 -3.049876
vt -60.666667 -3.002242
vt -58.333333 -2.932511
vt -56.000000 -2.849137
vt -53.666667 -2.762231
vt -51.333333 -2.682329
vt -49.000000 -2.619120
vt -46.666667 -2.580269
vt -44.333333 -2.570486
vt -42.000000 -2.590959
vt -39.666667 -2.639203
vt -37.333333 -2.709370
vt -35.000000 -2.792951
vt -32.666667 -2.879812
vt -30.333333 -2.959421
vt -28.000000 -3.022124
vt -25.666667 -3.060319
vt -23.333333 -3.069374
vt -21.000000 -3.048191
vt -18.666667 -2.999339
vt -16.333333 -2.928741
vt -14.000000 -2.844958
vt -11.666667 -2.758149
vt -9.333333 -2.678839
vt -7.000000 -2.616646
vt -4.666667 -2.579110
vt -2.333333 -2.570784
vt 0.000000 -2.592676
vt 2.333333 -2.642132
vt 4.666667 -2.713155
vt 7.000000 -2.797134
vt 9.333333 -2.883885
vt 11.666667 -2.962890
vt 14.000000 -3.024569
vt 16.333333 -3.061443
vt 18.666667 -3.069041
vt 21.000000 -3.046442
vt 23.333333 -2.996385
vt 25.666667 -2.924941
vt 28.000000 -2.840772
vt 30.333333 -2.754085
vt 32.666667 -2.675390
vt 35.000000 -2.614230
vt 37.333333 -2.578020
vt 39.666667 -2.571152
vt 42.000000 -2.594457
vt 44.333333 -2.645111
vt 46.666667 -2.716970
vt 49.000000 -2.801323
vt 51.333333 -2.887940
vt 53.666667 -2.966319
vt 56.000000 -3.026957
vt 58.333333 -3.062499
vt 60.666667 -3.068638
vt 63.000000 -3.044628
vt 65.333333 -2.993381
vt 67.666667 -2.921111
vt 70.000000 -2.836580
vt 72.333333 -2.750040
vt 74.666667 -2.671982
vt 77.000000 -2.611872
vt 79.333333 -2.576998
vt 81.666667 -2.571590
vt 84.000000 -2.596302
vt -84.000000 -3.926418
vt -81.666667 -4.013472
vt -79.333333 -4.095255
vt -77.000000 -4.161850
vt -74.666667 -4.205183
vt -72.333333 -4.219998
vt -70.000000 -4.204500
vt -67.666667 -4.160568
vt -65.333333 -4.093528
vt -63.000000 -4.011511
vt -60.666667 -3.924459
vt -58.333333 -3.842930
vt -56.000000 -3.776809
vt -53.666667 -3.734113
vt -51.333333 -3.720019
vt -49.000000 -3.736237
vt -46.666667 -3.780799
vt -44.333333 -3.848303
vt -42.000000 -3.930564
vt -39.666667 -4.017606
vt -37.333333 -4.098875
vt -35.000000 -4.164518
vt -32.666667 -4.206575
vt -30.333333 -4.219946
vt -28.000000 -4.203010
vt -25.666667 -4.157820
vt -23.333333 -4.089856
vt -21.000000 -4.007360
vt -18.666667 -3.920333
vt -16.333333 -3.839328
vt -14.000000 -3.774168
vt -11.666667 -3.732754
vt -9.333333 -3.720107
vt -7.000000 -3.737760
vt -4.666667 -3.783574
vt -2.333333 -3.851992
vt 0.000000 -3.934720
vt 2.333333 -4.021725
vt 4.666667 -4.102459
vt 7.000000 -4.167131
vt 9.333333 -4.207901
vt 11.666667 -4.219823
vt 14.000000 -4.201454
vt 16.333333 -4.155019
vt 18.666667 -4.086151
vt 21.000000 -4.003198
vt 23.333333 -3.916220
vt 25.666667 -3.835763
vt 28.000000 -3.771583
vt 30.333333 -3.731462
vt 32.666667 -3.720265
vt 35.000000 -3.739349
vt 37.333333 -3.786401
vt 39.666667 -3.855715
vt 42.000000 -3.938886
vt 44.333333 -4.025831
vt 46.666667 -4.106005
vt 49.000000 -4.169689
vt 51.333333 -4.209159
vt 53.666667 -4.219630
vt 56.000000 -4.199832
vt 58.333333 -4.152166
vt 60.666667 -4.082412
vt 63.000000 -3.999027
vt 65.333333 -3.912123
vt 67.666667 -3.832236
vt 70.000000 -3.769054
vt 72.333333 -3.730237
vt 74.666667 -3.720493
vt 77.000000 -3.741003
vt 79.333333 -3.789280
vt 81.666667 -3.859469
vt 84.000000 -3.943062
vt -84.000000 -5.303599
vt -81.666667 -5.350651
vt -79.333333 -5.369735
vt -77.000000 -5.358538
vt -74.666667 -5.318417
vt -72.333333 -5.254237
vt -70.000000 -5.173780
vt -67.666667 -5.086802
vt -65.333333 -5.003849
vt -63.000000 -4.934981
vt -60.666667 -4.888546
vt -58.333333 -4.870177
vt -56.000000 -4.882099
vt -53.666667 -4.922869
vt -51.333333 -4.987541
vt -49.000000 -5.068275
vt -46.666667 -5.155280
vt -44.333333 -5.238008
vt -42.000000 -5.306426
vt -39.666667 -5.352240
vt -37.333333 -5.369893
vt -35.000000 -5.357246
vt -32.666667 -5.315832
vt -30.333333 -5.250672
vt -28.000000 -5.169667
vt -25.666667 -5.082640
vt -23.333333 -5.000144
vt -21.000000 -4.932180
vt -18.666667 -4.886990
vt -16.333333 -4.870054
vt -14.000000 -4.883425
vt -11.666667 -4.925482
vt -9.333333 -4.991125
vt -7.000000 -5.072394
vt -4.666667 -5.159436
vt -2.333333 -5.241697
vt 0.000000 -5.309201
vt 2.333333 -5.353763
vt 4.666667 -5.369981
vt 7.000000 -5.355887
vt 9.333333 -5.313191
vt 11.666667 -5.247070
vt 14.000000 -5.165541
vt 16.333333 -5.078489
vt 18.666667 -4.996472
vt 21.000000 -4.929432
vt 23.333333 -4.885500
vt 25.666667 -4.870002
vt 28.000000 -4.884817
vt 30.333333 -4.928150
vt 32.666667 -4.994745
vt 35.000000 -5.076528
vt 37.333333 -5.163582
vt 39.666667 -5.245351
vt 42.000000 -5.311921
vt 44.333333 -5.355220
vt 46.666667 -5.369998
vt 49.000000 -5.354461
vt 51.333333 -5.310496
vt 53.666667 -5.243432
vt 56.000000 -5.161401
vt 58.333333 -5.074350
vt 60.666667 -4.992835
vt 63.000000 -4.926738
vt 65.333333 -4.884076
vt 67.666667 -4.870021
vt 70.000000 -4.886276
vt 72.333333 -4.930872
vt 74.666667 -4.998400
vt 77.000000 -5.080673
vt 79.333333 -5.167715
vt 81.666667 -5.248970
vt 84.000000 -5.314588
vt -84.000000 -6.511980
vt -81.666667 -6.475770
vt -79.333333 -6.414610
vt -77.000000 -6.335915
vt -74.666667 -6.249228
vt -72.333333 -6.165059
vt -70.000000 -6.093615
vt -67.666667 -6.043558
vt -65.333333 -6.020959
vt -63.000000 -6.028557
vt -60.666667 -6.065431
vt -58.333333 -6.127110
vt -56.000000 -6.206115
vt -53.666667 -6.292866
vt -51.333333 -6.376845
vt -49.000000 -6.447868
vt -46.666667 -6.497324
vt -44.333333 -6.519216
vt -42.000000 -6.510890
vt -39.666667 -6.473354
vt -37.333333 -6.411161
vt -35.000000 -6.331851
vt -32.666667 -6.245042
vt -30.333333 -6.161259
vt -28.000000 -6.090661
vt -25.666667 -6.041809
vt -23.333333 -6.020626
vt -21.000000 -6.029681
vt -18.666667 -6.067876
vt -16.333333 -6.130579
vt -14.000000 -6.210188
vt -11.666667 -6.297049
vt -9.333333 -6.380630
vt -7.000000 -6.450797
vt -4.666667 -6.499041
vt -2.333333 -6.519514
vt 0.000000 -6.509731
vt 2.333333 -6.470880
vt 4.666667 -6.407671
vt 7.000000 -6.327769
vt 9.333333 -6.240863
vt 11.666667 -6.157489
vt 14.000000 -6.087758
vt 16.333333 -6.040124
vt 18.666667 -6.020364
vt 21.000000 -6.030874
vt 23.333333 -6.070378
vt 25.666667 -6.134088
vt 28.000000 -6.214278
vt 30.333333 -6.301224
vt 32.666667 -6.384384
vt 35.000000 -6.453675
vt 37.333333 -6.500694
vt 39.666667 -6.519740
vt 42.000000 -6.508505
vt 44.333333 -6.468349
vt 46.666667 -6.404143
vt 49.000000 -6.323672
vt 51.333333 -6.236692
vt 53.666667 -6.153751
vt 56.000000 -6.084906
vt 58.333333 -6.038504
vt 60.666667 -6.020173
vt 63.000000 -6.032134
vt 65.333333 -6.072937
vt 67.666667 -6.137635
vt 70.000000 -6.218383
vt 72.333333 -6.305390
vt 74.666667 -6.388105
vt 77.000000 -6.456500
vt 79.333333 -6.502281
vt 81.666667 -6.519897
vt 84.000000 -6.507211
vt -84.000000 -7.497885
vt -81.666667 -7.411705
vt -79.333333 -7.326531
vt -77.000000 -7.252690
vt -74.666667 -7.199136
vt -72.333333 -7.172363
vt -70.000000 -7.175617
vt -67.666667 -7.208504
vt -65.333333 -7.267036
vt -63.000000 -7.344115
vt -60.666667 -7.430395
vt -58.333333 -7.515415
vt -56.000000 -7.588866
vt -53.666667 -7.641841
vt -51.333333 -7.667916
vt -49.000000 -7.663931
vt -46.666667 -7.630368
vt -44.333333 -7.571297
vt -42.000000 -7.493880
vt -39.666667 -7.407505
vt -37.333333 -7.322645
vt -35.000000 -7.249590
vt -32.666667 -7.197198
vt -30.333333 -7.171822
vt -28.000000 -7.176538
vt -25.666667 -7.210775
vt -23.333333 -7.270382
vt -21.000000 -7.348130
vt -18.666667 -7.434594
vt -16.333333 -7.519287
vt -14.000000 -7.591942
vt -11.666667 -7.643747
vt -9.333333 -7.668423
vt -7.000000 -7.662976
vt -4.666667 -7.628067
vt -2.333333 -7.567929
vt 0.000000 -7.489854
vt 2.333333 -7.403309
vt 4.666667 -7.318788
vt 7.000000 -7.246539
vt 9.333333 -7.195323
vt 11.666667 -7.171350
vt 14.000000 -7.177528
vt 16.333333 -7.213106
vt 18.666667 -7.273771
vt 21.000000 -7.352167
vt 23.333333 -7.438788
vt 25.666667 -7.523131
vt 28.000000 -7.594969
vt 30.333333 -7.645591
vt 32.666667 -7.668859
vt 35.000000 -7.661952
vt 37.333333 -7.625707
vt 39.666667 -7.564519
vt 42.000000 -7.485808
vt 44.333333 -7.399117
vt 46.666667 -7.314958
vt 49.000000 -7.243536
vt 51.333333 -7.193511
vt 53.666667 -7.170949
vt 56.000000 -7.178586
vt 58.333333 -7.215495
vt 60.666667 -7.277201
vt 63.000000 -7.356222
vt 65.333333 -7.442977
vt 67.666667 -7.526945
vt 70.000000 -7.597946
vt 72.333333 -7.647371
vt 74.666667 -7.669225
vt 77.000000 -7.660860
vt 79.333333 -7.623289
vt 81.666667 -7.561069
vt 84.000000 -7.481743
vt -84.000000 -8.412183
vt -81.666667 -8.355266
vt -79.333333 -8.324387
vt -77.000000 -8.323289
vt -74.666667 -8.352106
vt -72.333333 -8.407344
vt -70.000000 -8.482304
vt -67.666667 -8.567898
vt -65.333333 -8.653747
vt -63.000000 -8.729441
vt -60.666667 -8.785802
vt -58.333333 -8.815996
vt -56.000000 -8.816362
vt -53.666667 -8.786856
vt -51.333333 -8.731054
vt -49.000000 -8.655724
vt -46.666667 -8.570000
vt -44.333333 -8.484276
vt -42.000000 -8.408946
vt -39.666667 -8.353144
vt -37.333333 -8.323638
vt -35.000000 -8.324004
vt -32.666667 -8.354198
vt -30.333333 -8.410559
vt -28.000000 -8.486253
vt -25.666667 -8.572102
vt -23.333333 -8.657696
vt -21.000000 -8.732656
vt -18.666667 -8.787894
vt -16.333333 -8.816711
vt -14.000000 -8.815613
vt -11.666667 -8.784734
vt -9.333333 -8.727817
vt -7.000000 -8.651764
vt -4.666667 -8.565797
vt -2.333333 -8.480339
vt 0.000000 -8.405753
vt 2.333333 -8.351083
vt 4.666667 -8.322958
vt 7.000000 -8.324788
vt 9.333333 -8.356350
vt 11.666667 -8.413819
vt 14.000000 -8.490225
vt 16.333333 -8.576305
vt 18.666667 -8.661620
vt 21.000000 -8.735825
vt 23.333333 -8.789924
vt 25.666667 -8.817356
vt 28.000000 -8.814794
vt 30.333333 -8.782551
vt 32.666667 -8.724534
vt 35.000000 -8.647780
vt 37.333333 -8.561594
vt 39.666667 -8.476428
vt 42.000000 -8.402608
vt 44.333333 -8.349084
vt 46.666667 -8.322348
vt 49.000000 -8.325641
vt 51.333333 -8.358563
vt 53.666667 -8.417123
vt 56.000000 -8.494220
vt 58.333333 -8.580506
vt 60.666667 -8.665518
vt 63.000000 -8.738948
vt 65.333333 -8.791892
vt 67.666667 -8.817930
vt 70.000000 -8.813907
vt 72.333333 -8.780308
vt 74.666667 -8.721208
vt 77.000000 -8.643774
vt 79.333333 -8.557394
vt 81.666667 -8.472543
vt 84.000000 -8.399509
f 1/1 74/74 75/75
f 1/1 75/75 2/2
f 2/2 75/75 76/76
f 2/2 76/76 3/3
f 3/3 76/76 77/77
f 3/3 77/77 4/4
f 4/4 77/77 78/78
f 4/4 78/78 5/5
f 5/5 78/78 79/79
f 5/5 79/79 6/6
f 6/6 79/79 80/80
f 6/6 80/80 7/7
f 7/7 80/80 81/81
f 7/7 81/81 8/8
f 8/8 81/81 82/82
f 8/8 82/82 9/9
f 9/9 82/82 83/83
f 9/9 83/83 10/10
f 10/10 83/83 84/84
f 10/10 84/84 11/11
f 11/11 84/84 85/85
f 11/11 85/85 12/12
f 12/12 85/85 86/86
f 12/12 86/86 13/13
f 13/13 86/86 87/87
f 13/13 87/87 14/14
f 14/14 87/87 88/88
f 14/14 88/88 15/15
f 15/15 88/88 89/89
f 15/15 89/89 16/16
f 16/16 89/89 90/90
f 16/16 90/90 17/17
f 17/17 90/90 91/91
f 17/17 91/91 18/18
f 18/18 91/91 92/92
f 18/18 92/92 19/19
f 19/19 92/92 93/93
f 19/19 93/93 20/20
f 20/20 93/93 94/94
f 20/20 94/94 21/21
f 21/21 94/94 95/95
f 21/21 95/95 22/22
f 22/22 95/95 96/96
f 22/22 96/96 23/23
f 23/23 96/96 97/97
f 23/23 97/97 24/24
f 24/24 97/97 98/98
f 24/24 98/98 25/25
f 25/25 98/98 99/99
f 25/25 99/99 26/26
f 26/26 99/99 100/100
f 26/26 100/100 27/27
f 27/27 100/100 101/101
f 27/27 101/101 28/28
f 28/28 101/101 102/102
f 28/28 102/102 29/29
f 29/29 102/102 103/103
f 29/29 103/103 30/30
f 30/30 103/103 104/104
f 30/30 104/104 31/31
f 31/31 104/104 105/105
f 31/31 105/105 32/32
f 32/32 105/105 106/106
f 32/32 106/106 33/33
f 33/33 106/106 107/107
f 33/33 107/107 34/34
f 34/34 107/107 108/108
f 34/34 108/108 35/35
f 35/35 108/108 109/109
f 35/35 109/109 36/36
f 36/36 109/109 110/110
f 36/36 110/110 37/37
f 37/37 110/110 111/111
f 37/37 111/111 38/38
f 38/38 111/111 112/112
f 38/38 112/112 39/39
f 39/39 112/112 113/113
f 39/39 113/113 40/40
f 40/40 113/113 114/114
f 40/40 114/114 41/41
f 41/41 114/114 115/115
f 41/41 115/115 42/42
f 42/42 115/115 116/116
f 42/42 116/116 43/43
f 43/43 116/116 117/117
f 43/43 117/117 44/44
f 44/44 117/117 118/118
f 44/44 118/118 45/45
f 45/45 118/118 119/119
f 45/45 119/119 46/46
f 46/46 119/119 120/120
f 46/46 120/120 47/47
f 47/47 120/120 121/121
f 47/47 121/121 48/48
f 48/48 121/121 122/122
f 48/48 122/122 49/49
f 49/49 122/122 123/123
f 49/49 123/123 50/50
f 50/50 123/123 124/124
f 50/50 124/124 51/51
f 51/51 124/124 125/125
f 51/51 125/125 52/52
f 52/52 125/125 126/126
f 52/52 126/126 53/53
f 53/53 126/126 127/127
f 53/53 127/127 54/54
f 54/54 127/127 128/128
f 54/54 128/128 55/55
f 55/55 128/128 129/129
f 55/55 129/129 56/56
f 56/56 129/129 130/130
f 56/56 130/130 57/57
f 57/57 130/130 131/131
f 57/57 131/131 58/58
f 58/58 131/131 132/132
f 58/58 132/132 59/59
f 59/59 132/132 133/133
f 59/59 133/133 60/60
f 60/60 133/133 134/134
f 60/60 134/134 61/61
f 61/61 134/134 135/135
f 61/61 135/135 62/62
f 62/62 135/135 136/136
f 62/62 136/136 63/63
f 63/63 136/136 137/137
f 63/63 137/137 64/64
f 64/64 137/137 138/138
f 64/64 138/138 65/65
f 65/65 138/138 139/139
f 65/65 139/139 66/66
f 66/66 139/139 140/140
f 66/66 140/140 67/67
f 67/67 140/140 141/141
f 67/67 141/141 68/68
f 68/68 141/141 142/142
f 68/68 142/142 69/69
f 69/69 142/142 143/143
f 69/69 143/143 70/70
f 70/70 143/143 144/144
f 70/70 144/144 71/71
f 71/71 144/144 145/145
f 71/71 145/145 72/72
f 72/72 145/145 146/146
f 72/72 146/146 73/73
f 74/74 147/147 148/148
f 74/74 148/148 75/75
f 75/75 148/148 149/149
f 75/75 149/149 76/76
f 76/76 149/149 150/150
f 76/76 150/150 77/77
f 77/77 150/150 151/151
f 77/77 151/151 78/78
f 78/78 151/151 152/152
f 78/78 152/152 79/79
f 79/79 152/152 153/153
f 79/79 153/153 80/80
f 80/80 153/153 154/154
f 80/80 154/154 81/81
f 81/81 154/154 155/155
f 81/81 155/155 82/82
f 82/82 155/155 156/156
f 82/82 156/156 83/83
f 83/83 156/156 157/157
f 83/83 157/157 84/84
f 84/84 157/157 158/158
f 84/84 158/158 85/85
f 85/85 158/158 159/159
f 85/85 159/159 86/86
f 86/86 159/159 160/160
f 86/86 160/160 87/87
f 87/87 160/160 161/161
f 87/87 161/161 88/88
f 88/88 161/161 162/162
f 88/88 162/162 89/89
f 89/89 162/162 163/163
f 89/89 163/163 90/90
f 90/90 163/163 164/164
f 90/90 164/164 91/91
f 91/91 164/164 165/165
f 91/91 165/165 92/92
f 92/92 165/165 166/166
f 92/92 166/166 93/93
f 93/93 166/166 167/167
f 93/93 167/167 94/94
f 94/94 167/167 168/168
f 94/94 168/168 95/95
f 95/95 168/168 169/169
f 95/95 169/169 96/96
f 96/96 169/169 170/170
f 96/96 170/170 97/97
f 97/97 170/170 171/171
f 97/97 171/171 98/98
f 98/98 171/171 172/172
f 98/98 172/172 99/99
f 99/99 172/172 173/173
f 99/99 173/173 100/100
f 100/100 173/173 174/174
f 100/100 174/174 101/101
f 101/101 174/174 175/175
f 101/101 175/175 102/102
f 102/102 175/175 176/176
f 102/102 176/176 103/103
f 103/103 176/176 177/177
f 103/103 177/177 104/104
f 104/104 177/177 178/178
f 104/104 178/178 105/105
f 105/105 178/178 179/179
f 105/105 179/179 106/106
f 106/106 179/179 180/180
f 106/106 180/180 107/107
f 107/107 180/180 181/181
f 107/107 181/181 108/108
f 108/108 181/181 182/182
f 108/108 182/182 109/109
f 109/109 182/182 183/183
f 109/109 183/183 110/110
f 110/110 183/183 184/184
f 110/110 184/184 111/111
f 111/111 184/184 185/185
f 111/111 185/185 112/112
f 112/112 185/185 186/186
f 112/112 186/186 113/113
f 113/113 186/186 187/187
f 113/113 187/187 114/114
f 114/114 187/187 188/188
f 114/114 188/188 115/115
f 115/115 188/188 189/189
f 115/115 189/189 116/116
f 116/116 189/189 190/190
f 116/116 190/190 117/117
f 117/117 190/190 191/191
f 117/117 191/191 118/118
f 118/118 191/191 192/192
f 118/118 192/192 119/119
f 119/119 192/192 193/193
f 119/119 193/193 120/120
f 120/120 193/193 194/194
f 120/120 194/194 121/121
f 121/121 194/194 195/195
f 121/121 195/195 122/122
f 122/122 195/195 196/196
f 122/122 196/196 123/123
f 123/123 196/196 197/197
f 123/123 197/197 124/124
f 124/124 197/197 198/198
f 124/124 198/198 125/125
f 125/125 198/198 199/199
f 125/125 199/199 126/126
f 126/126 199/199 200/200
f 126/126 200/200 127/127
f 127/127 200/200 201/201
f 127/127 201/201 128/128
f 128/128 201/201 202/202
f 128/128 202/202 129/129
f 129/129 202/202 203/203
f 129/129 203/203 130/130
f 130/130 203/203 204/204
f 130/130 204/204 131/131
f 131/131 204/204 205/205
f 131/131 205/205 132/132
f 132/132 205/205 206/206
f 132/132 206/206 133/133
f 133/133 206/206 207/207
f 133/133 207/207 134/134
f 134/134 207/207 208/208
f 134/134 208/208 135/135
f 135/135 208/208 209/209
f 135/135 209/209 136/136
f 136/136 209/209 210/210
f 136/136 210/210 137/137
f 137/137 210/210 211/211
f 137/137 211/211 138/138
f 138/138 211/211 212/212
f 138/138 212/212 139/139
f 139/139 212/212 213/213
f 139/139 213/213 140/140
f 140/140 213/213 214/214
f 140/140 214/214 141/141
f 141/141 214/214 215/215
f 141/141 215/215 142/142
f 142/142 215/215 216/216
f 142/142 216/216 143/143
f 143/143 216/216 217/217
f 143/143 217/217 144/144
f 144/144 217/217 218/218
f 144/144 218/218 145/145
f 145/145 218/218 219/219
f 145/145 219/219 146/146
f 147/147 220/220 221/221
f 147/147 221/221 148/148
f 148/148 221/221 222/222
f 148/148 222/222 149/149
f 149/149 222/222 223/223
f 149/149 223/223 150/150
f 150/150 223/223 224/224
f 150/150 224/224 151/151
f 151/151 224/224 225/225
f 151/151 225/225 152/152
f 152/152 225/225 226/226
f 152/152 226/226 153/153
f 153/153 226/226 227/227
f 153/153 227/227 154/154
f 154/154 227/227 228/228
f 154/154 228/228 155/155
f 155/155 228/228 229/229
f 155/155 229/229 156/156
f 156/156 229/229 230/230
f 156/156 230/230 157/157
f 157/157 230/230 231/231
f 157/157 231/231 158/158
f 158/158 231/231 232/232
f 158/158 232/232 159/159
f 159/159 232/232 233/233
f 159/159 233/233 160/160
f 160/160 233/233 234/234
f 160/160 234/234 161/161
f 161/161 234/234 235/235
f 161/161 235/235 162/162
f 162/162 235/235 236/236
f 162/162 236/236 163/163
f 163/163 236/236 237/237
f 163/163 237/237 164/164
f 164/164 237/237 238/238
f 164/164 238/238 165/165
f 165/165 238/238 239/239
f 165/165 239/239 166/166
f 166/166 239/239 240/240
f 166/166 240/240 167/167
f 167/167 240/240 241/241
f 167/167 241/241 168/168
f 168/168 241/241 242/242
f 168/168 242/242 169/169
f 169/169 242/242 243/243
f 169/169 243/243 170/170
f 170/170 243/243 244/244
f 170/170 244/244 171/171
f 171/171 244/244 245/245
f 171/171 245/245 172/172
f 172/172 245/245 246/246
f 172/172 246/246 173/173
f 173/173 246/246 247/247
f 173/173 247/247 174/174
f 174/174 247/247 248/248
f 174/174 248/248 175/175
f 175/175 248/248 249/249
f 175/175 249/249 176/176
f 176/176 249/249 250/250
f 176/176 250/250 177/177
f 177/177 250/250 251/251
f 177/177 251/251 178/178
f 178/178 251/251 252/252
f 178/178 252/252 179/179
f 179/179 252/252 253/253
f 179/179 253/253 180/180
f 180/180 253/253 254/254
f 180/180 254/254 181/181
f 181/181 254/254 255/255
f 181/181 255/255 182/182
f 182/182 255/255 256/256
f 182/182 256/256 183/183
f 183/183 256/256 257/257
f 183/183 257/257 184/184
f 184/184 257/257 258/258
f 184/184 258/258 185/185
f 185/185 258/258 259/259
f 185/185 259/259 186/186
f 186/186 259/259 260/260
f 186/186 260/260 187/187
f 187/187 260/260 261/261
f 187/187 261/261 188/188
f 188/188 261/261 262/262
f 188/188 262/262 189/189
f 189/189 262/262 263/263
f 189/189 263/263 190/190
f 190/190 263/263 264/264
f 190/190 264/264 191/191
f 191/191 264/264 265/265
f 191/191 265/265 192/192
f 192/192 265/265 266/266
f 192/192 266/266 193/193
f 193/193 266/266 267/267
f 193/193 267/267 194/194
f 194/194 267/267 268/268
f 194/194 268/268 195/195
f 195/195 268/268 269/269
f 195/195 269/269 196/196
f 196/196 269/269 270/270
f 196/196 270/270 197/197
f 197/197 270/270 271/271
f 197/197 271/271 198/198
f 198/198 271/271 272/272
f 198/198 272/272 199/199
f 199/199 272/272 273/273
f 199/199 273/273 200/200
f 200/200 273/273 274/274
f 200/200 274/274 201/201
f 201/201 274/274 275/275
f 201/201 275/275 202/202
f 202/202 275/275 276/276
f 202/202 276/276 203/203
f 203/203 276/276 277/277
f 203/203 277/277 204/204
f 204/204 277/277 278/278
f 204/204 278/278 205/205
f 205/205 278/278 279/279
f 205/205 279/279 206/206
f 206/206 279/279 280/280
f 206/206 280/280 207/207
f 207/207 280/280 281/281
f 207/207 281/281 208/208
f 208/208 281/281 282/282
f 208/208 282/282 209/209
f 209/209 282/282 283/283
f 209/209 283/283 210/210
f 210/210 283/283 284/284
f 210/210 284/284 211/211
f 211/211 284/284 285/285
f 211/211 285/285 212/212
f 212/212 285/285 286/286
f 212/212 286/286 213/213
f 213/213 286/286 287/287
f 213/213 287/287 214/214
f 214/214 287/287 288/288
f 214/214 288/288 215/215
f 215/215 288/288 289/289
f 215/215 289/289 216/216
f 216/216 289/289 290/290
f 216/216 290/290 217/217
f 217/217 290/290 291/291
f 217/217 291/291 218/218
f 218/218 291/291 292/292
f 218/218 292/292 219/219
f 220/220 293/293 294/294
f 220/220 294/294 221/221
f 221/221 294/294 295/295
f 221/221 295/295 222/222
f 222/222 295/295 296/296
f 222/222 296/296 223/223
f 223/223 296/296 297/297
f 223/223 297/297 224/224
f 224/224 297/297 298/298
f 224/224 298/298 225/225
f 225/225 298/298 299/299
f 225/225 299/299 226/226
f 226/226 299/299 300/300
f 226/226 300/300 227/227
f 227/227 300/300 301/301
f 227/227 301/301 228/228
f 228/228 301/301 302/302
f 228/228 302/302 229/229
f 229/229 302/302 303/303
f 229/229 303/303 230/230
f 230/230 303/303 304/304
f 230/230 304/304 231/231
f 231/231 304/304 305/305
f 231/231 305/305 232/232
f 232/232 305/305 306/306
f 232/232 306/306 233/233
f 233/233 306/306 307/307
f 233/233 307/307 234/234
f 234/234 307/307 308/308
f 234/234 308/308 235/235
f 235/235 308/308 309/309
f 235/235 309/309 236/236
f 236/236 309/309 310/310
f 236/236 310/310 237/237
f 237/237 310/310 311/311
f 237/237 311/311 238/238
f 238/238 311/311 312/312
f 238/238 312/312 239/239
f 239/239 312/312 313/313
f 239/239 313/313 240/240
f 240/240 313/313 314/314
f 240/240 314/314 241/241
f 241/241 314/314 315/315
f 241/241 315/315 242/242
f 242/242 315/315 316/316
f 242/242 316/316 243/243
f 243/243 316/316 317/317
f 243/243 317/317 244/244
f 244/244 317/317 318/318
f 244/244 318/318 245/245
f 245/245 318/318 319/319
f 245/245 319/319 246/246
f 246/246 319/319 320/320
f 246/246 320/320 247/247
f 247/247 320/320 321/321
f 247/247 321/321 248/248
f 248/248 321/321 322/322
f 248/248 322/322 249/249
f 249/249 322/322 323/323
f 249/249 323/323 250/250
f 250/250 323/323 324/324
f 250/250 324/324 251/251
f 251/251 324/324 325/325
f 251/251 325/325 252/252
f 252/252 325/325 326/326
f 252/252 326/326 253/253
f 253/253 326/326 327/327
f 253/253 327/327 254/254
f 254/254 327/327 328/328
f 254/254 328/328 255/255
f 255/255 328/328 329/329
f 255/255 329/329 256/256
f 256/256 329/329 330/330
f 256/256 330/330 257/257
f 257/257 330/330 331/331
f 257/257 331/331 258/258
f 258/258 331/331 332/332
f 258/258 332/332 259/259
f 259/259 332/332 333/333
f 259/259 333/333 260/260
f 260/260 333/333 334/334
f 260/260 334/334 261/261
f 261/261 334/334 335/335
f 261/261 335/335 262/262
f 262/262 335/335 336/336
f 262/262 336/336 263/263
f 263/263 336/336 337/337
f 263/263 337/337 264/264
f 264/264 337/337 338/338
f 264/264 338/338 265/265
f 265/265 338/338 339/339
f 265/265 339/339 266/266
f 266/266 339/339 340/340
f 266/266 340/340 267/267
f 267/267 340/340 341/341
f 267/267 341/341 268/268
f 268/268 341/341 342/342
f 268/268 342/342 269/269
f 269/269 342/342 343/343
f 269/269 343/343 270/270
f 270/270 343/343 344/344
f 270/270 344/344 271/271
f 271/271 344/344 345/345
f 271/271 345/345 272/272
f 272/272 345/345 346/346
f 272/272 346/346 273/273
f 273/273 346/346 347/347
f 273/273 347/347 274/274
f 274/274 347/347 348/348
f 274/274 348/348 275/275
f 275/275 348/348 349/349
f 275/275 349/349 276/276
f 276/276 349/349 350/350
f 276/276 350/350 277/277
f 277/277 350/350 351/351
f 277/277 351/351 278/278
f 278/278 351/351 352/352
f 278/278 352/352 279/279
f 279/279 352/352 353/353
f 279/279 353/353 280/280
f 280/280 353/353 354/354
f 280/280 354/354 281/281
f 281/281 354/354 355/355
f 281/281 355/355 282/282
f 282/282 355/355 356/356
f 282/282 356/356 283/283
f 283/283 356/356 357/357
f 283/283 357/357 284/284
f 284/284 357/357 358/358
f 284/284 358/358 285/285
f 285/285 358/358 359/359
f 285/285 359/359 286/286
f 286/286 359/359 360/360
f 286/286 360/360 287/287
f 287/287 360/360 361/361
f 287/287 361/361 288/288
f 288/288 361/361 362/362
f 288/288 362/362 289/289
f 289/289 362/362 363/363
f 289/289 363/363 290/290
f 290/290 363/363 364/364
f 290/290 364/364 291/291
f 291/291 364/364 365/365
f 291/291 365/365 292/292
f 293/293 366/366 367/367
f 293/293 367/367 294/294
f 294/294 367/367 368/368
f 294/294 368/368 295/295
f 295/295 368/368 369/369
f 295/295 369/369 296/296
f 296/296 369/369 370/370
f 296/296 370/370 297/297
f 297/297 370/370 371/371
f 297/297 371/371 298/298
f 298/298 371/371 372/372
f 298/298 372/372 299/299
f 299/299 372/372 373/373
f 299/299 373/373 300/300
f 300/300 373/373 374/374
f 300/300 374/374 301/301
f 301/301 374/374 375/375
f 301/301 375/375 302/302
f 302/302 375/375 376/376
f 302/302 376/376 303/303
f 303/303 376/376 377/377
f 303/303 377/377 304/304
f 304/304 377/377 378/378
f 304/304 378/378 305/305
f 305/305 378/378 379/379
f 305/305 379/379 306/306
f 306/306 379/379 380/380
f 306/306 380/380 307/307
f 307/307 380/380 381/381
f 307/307 381/381 308/308
f 308/308 381/381 382/382
f 308/308 382/382 309/309
f 309/309 382/382 383/383
f 309/309 383/383 310/310
f 310/310 383/383 384/384
f 310/310 384/384 311/311
f 311/311 384/384 385/385
f 311/311 385/385 312/312
f 312/312 385/385 386/386
f 312/312 386/386 313/313
f 313/313 386/386 387/387
f 313/313 387/387 314/314
f 314/314 387/387 388/388
f 314/314 388/388 315/315
f 315/315 388/388 389/389
f 315/315 389/389 316/316
f 316/316 389/389 390/390
f 316/316 390/390 317/317
f 317/317 390/390 391/391
f 317/317 391/391 318/318
f 318/318 391/391 392/392
f 318/318 392/392 319/319
f 319/319 392/392 393/393
f 319/319 393/393 320/320
f 320/320 393/393 394/394
f 320/320 394/394 321/321
f 321/321 394/394 395/395
f 321/321 395/395 322/322
f 322/322 395/395 396/396
f 322/322 396/396 323/323
f 323/323 396/396 397/397
f 323/323 397/397 324/324
f 324/324 397/397 398/398
f 324/324 398/398 325/325
f 325/325 398/398 399/399
f 325/325 399/399 326/326
f 326/326 399/399 400/400
f 326/326 400/400 327/327
f 327/327 400/400 401/401
f 327/327 401/401 328/328
f 328/328 401/401 402/402
f 328/328 402/402 329/329
f 329/329 402/402 403/403
f 329/329 403/403 330/330
f 330/330 403/403 404/404
f 330/330 404/404 331/331
f 331/331 404/404 405/405
f 331/331 405/405 332/332
f 332/332 405/405 406/406
f 332/332 406/406 333/333
f 333/333 406/406 407/407
f 333/333 407/407 334/334
f 334/334 407/407 408/408
f 334/334 408/408 335/335
f 335/335 408/408 409/409
f 335/335 409/409 336/336
f 336/336 409/409 410/410
f 336/336 410/410 337/337
f 337/337 410/410 411/411
f 337/337 411/411 338/338
f 338/338 411/411 412/412
f 338/338 412/412 339/339
f 339/339 412/412 413/413
f 339/339 413/413 340/340
f 340/340 413/413 414/414
f 340/340 414/414 341/341
f 341/341 414/414 415/415
f 341/341 415/415 342/342
f 342/342 415/415 416/416
f 342/342 416/416 343/343
f 343/343 416/416 417/417
f 343/343 417/417 344/344
f 344/344 417/417 418/418
f 344/344 418/418 345/345
f 345/345 418/418 419/419
f 345/345 419/419 346/346
f 346/346 419/419 420/420
f 346/346 420/420 347/347
f 347/347 420/420 421/421
f 347/347 421/421 348/348
f 348/348 421/421 422/422
f 348/348 422/422 349/349
f 349/349 422/422 423/423
f 349/349 423/423 350/350
f 350/350 423/423 424/424
f 350/350 424/424 351/351
f 351/351 424/424 425/425
f 351/351 425/425 352/352
f 352/352 425/425 426/426
f 352/352 426/426 353/353
f 353/353 426/426 427/427
f 353/353 427/427 354/354
f 354/354 427/427 428/428
f 354/354 428/428 355/355
f 355/355 428/428 429/429
f 355/355 429/429 356/356
f 356/356 429/429 430/430
f 356/356 430/430 357/357
f 357/357 430/430 431/431
f 357/357 431/431 358/358
f 358/358 431/431 432/432
f 358/358 432/432 359/359
f 359/359 432/432 433/433
f 359/359 433/433 360/360
f 360/360 433/433 434/434
f 360/360 434/434 361/361
f 361/361 434/434 435/435
f 361/361 435/435 362/362
f 362/362 435/435 436/436
f 362/362 436/436 363/363
f 363/363 436/436 437/437
f 363/363 437/437 364/364
f 364/364 437/437 438/438
f 364/364 438/438 365/365
f 366/366 439/439 440/440
f 366/366 440/440 367/367
f 367/367 440/440 441/441
f 367/367 441/441 368/368
f 368/368 441/441 442/442
f 368/368 442/442 369/369
f 369/369 442/442 443/443
f 369/369 443/443 370/370
f 370/370 443/443 444/444
f 370/370 444/444 371/371
f 371/371 444/444 445/445
f 371/371 445/445 372/372
f 372/372 445/445 446/446
f 372/372 446/446 373/373
f 373/373 446/446 447/447
f 373/373 447/447 374/374
f 374/374 447/447 448/448
f 374/374 448/448 375/375
f 375/375 448/448 449/449
f 375/375 449/449 376/376
f 376/376 449/449 450/450
f 376/376 450/450 377/377
f 377/377 450/450 451/451
f 377/377 451/451 378/378
f 378/378 451/451 452/452
f 378/378 452/452 379/379
f 379/379 452/452 453/453
f 379/379 453/453 380/380
f 380/380 453/453 454/454
f 380/380 454/454 381/381
f 381/381 454/454 455/455
f 381/381 455/455 382/382
f 382/382 455/455 456/456
f 382/382 456/456 383/383
f 383/383 456/456 457/457
f 383/383 457/457 384/384
f 384/384 457/457 458/458
f 384/384 458/458 385/385
f 385/385 458/458 459/459
f 385/385 459/459 386/386
f 386/386 459/459 460/460
f 386/386 460/460 387/387
f 387/387 460/460 461/461
f 387/387 461/461 388/388
f 388/388 461/461 462/462
f 388/388 462/462 389/389
f 389/389 462/462 463/463
f 389/389 463/463 390/390
f 390/390 463/463 464/464
f 390/390 464/464 391/391
f 391/391 464/464 465/465
f 391/391 465/465 392/392
f 392/392 465/465 466/466
f 392/392 466/466 393/393
f 393/393 466/466 467/467
f 393/393 467/467 394/394
f 394/394 467/467 468/468
f 394/394 468/468 395/395
f 395/395 468/468 469/469
f 395/395 469/469 396/396
f 396/396 469/469 470/470
f 396/396 470/470 397/397
f 397/397 470/470 471/471
f 397/397 471/471 398/398
f 398/398 471/471 472/472
f 398/398 472/472 399/399
f 399/399 472/472 473/473
f 399/399 473/473 400/400
f 400/400 473/473 474/474
f 400/400 474/474 401/401
f 401/401 474/474 475/475
f 401/401 475/475 402/402
f 402/402 475/475 476/476
f 402/402 476/476 403/403
f 403/403 476/476 477/477
f 403/403 477/477 404/404
f 404/404 477/477 478/478
f 404/404 478/478 405/405
f 405/405 478/478 479/479
f 405/405 479/479 406/406
f 406/406 479/479 480/480
f 406/406 480/480 407/407
f 407/407 480/480 481/481
f 407/407 481/481 408/408
f 408/408 481/481 482/482
f 408/408 482/482 409/409
f 409/409 482/482 483/483
f 409/409 483/483 410/410
f 410/410 483/483 484/484
f 410/410 484/484 411/411
f 411/411 484/484 485/485
f 411/411 485/485 412/412
f 412/412 485/485 486/486
f 412/412 486/486 413/413
f 413/413 486/486 487/487
f 413/413 487/487 414/414
f 414/414 487/487 488/488
f 414/414 488/488 415/415
f 415/415 488/488 489/489
f 415/415 489/489 416/416
f 416/416 489/489 490/490
f 416/416 490/490 417/417
f 417/417 490/490 491/491
f 417/417 491/491 418/418
f 418/418 491/491 492/492
f 418/418 492/492 419/419
f 419/419 492/492 493/493
f 419/419 493/493 420/420
f 420/420 493/493 494/494
f 420/420 494/494 421/421
f 421/421 494/494 495/495
f 421/421 495/495 422/422
f 422/422 495/495 496/496
f 422/422 496/496 423/423
f 423/423 496/496 497/497
f 423/423 497/497 424/424
f 424/424 497/497 498/498
f 424/424 498/498 425/425
f 425/425 498/498 499/499
f 425/425 499/499 426/426
f 426/426 499/499 500/500
f 426/426 500/500 427/427
f 427/427 500/500 501/501
f 427/427 501/501 428/428
f 428/428 501/501 502/502
f 428/428 502/502 429/429
f 429/429 502/502 503/503
f 429/429 503/503 430/430
f 430/430 503/503 504/504
f 430/430 504/504 431/431
f 431/431 504/504 505/505
f 431/431 505/505 432/432
f 432/432 505/505 506/506
f 432/432 506/506 433/433
f 433/433 506/506 507/507
f 433/433 507/507 434/434
f 434/434 507/507 508/508
f 434/434 508/508 435/435
f 435/435 508/508 509/509
f 435/435 509/509 436/436
f 436/436 509/509 510/510
f 436/436 510/510 437/437
f 437/437 510/510 511/511
f 437/437 511/511 438/438
f 439/439 512/512 513/513
f 439/439 513/513 440/440
f 440/440 513/513 514/514
f 440/440 514/514 441/441
f 441/441 514/514 515/515
f 441/441 515/515 442/442
f 442/442 515/515 516/516
f 442/442 516/516 443/443
f 443/443 516/516 517/517
f 443/443 517/517 444/444
f 444/444 517/517 518/518
f 444/444 518/518 445/445
f 445/445 518/518 519/519
f 445/445 519/519 446/446
f 446/446 519/519 520/520
f 446/446 520/520 447/447
f 447/447 520/520 521/521
f 447/447 521/521 448/448
f 448/448 521/521 522/522
f 448/448 522/522 449/449
f 449/449 522/522 523/523
f 449/449 523/523 450/450
f 450/450 523/523 524/524
f 450/450 524/524 451/451
f 451/451 524/524 525/525
f 451/451 525/525 452/452
f 452/452 525/525 526/526
f 452/452 526/526 453/453
f 453/453 526/526 527/527
f 453/453 527/527 454/454
f 454/454 527/527 528/528
f 454/454 528/528 455/455
f 455/455 528/528 529/529
f 455/455 529/529 456/456
f 456/456 529/529 530/530
f 456/456 530/530 457/457
f 457/457 530/530 531/531
f 457/457 531/531 458/458
f 458/458 531/531 532/532
f 458/458 532/532 459/459
f 459/459 532/532 533/533
f 459/459 533/533 460/460
f 460/460 533/533 534/534
f 460/460 534/534 461/461
f 461/461 534/534 535/535
f 461/461 535/535 462/462
f 462/462 535/535 536/536
f 462/462 536/536 463/463
f 463/463 536/536 537/537
f 463/463 537/537 464/464
f 464/464 537/537 538/538
f 464/464 538/538 465/465
f 465/465 538/538 539/539
f 465/465 539/539 466/466
f 466/466 539/539 540/540
f 466/466 540/540 467/467
f 467/467 540/540 541/541
f 467/467 541/541 468/468
f 468/468 541/541 542/542
f 468/468 542/542 469/469
f 469/469 542/542 543/543
f 469/469 543/543 470/470
f 470/470 543/543 544/544
f 470/470 544/544 471/471
f 471/471 544/544 545/545
f 471/471 545/545 472/472
f 472/472 545/545 546/546
f 472/472 546/546 473/473
f 473/473 546/546 547/547
f 473/473 547/547 474/474
f 474/474 547/547 548/548
f 474/474 548/548 475/475
f 475/475 548/548 549/549
f 475/475 549/549 476/476
f 476/476 549/549 550/550
f 476/476 550/550 477/477
f 477/477 550/550 551/551
f 477/477 551/551 478/478
f 478/478 551/551 552/552
f 478/478 552/552 479/479
f 479/479 552/552 553/553
f 479/479 553/553 480/480
f 480/480 553/553 554/554
f 480/480 554/554 481/481
f 481/481 554/554 555/555
f 481/481 555/555 482/482
f 482/482 555/555 556/556
f 482/482 556/556 483/483
f 483/483 556/556 557/557
f 483/483 557/557 484/484
f 484/484 557/557 558/558
f 484/484 558/558 485/485
f 485/485 558/558 559/559
f 485/485 559/559 486/486
f 486/486 559/559 560/560
f 486/486 560/560 487/487
f 487/487 560/560 561/561
f 487/487 561/561 488/488
f 488/488 561/561 562/562
f 488/488 562/562 489/489
f 489/489 562/562 563/563
f 489/489 563/563 490/490
f 490/490 563/563 564/564
f 490/490 564/564 491/491
f 491/491 564/564 565/565
f 491/491 565/565 492/492
f 492/492 565/565 566/566
f 492/492 566/566 493/493
f 493/493 566/566 567/567
f 493/493 567/567 494/494
f 494/494 567/567 568/568
f 494/494 568/568 495/495
f 495/495 568/568 569/569
f 495/495 569/569 496/496
f 496/496 569/569 570/570
f 496/496 570/570 497/497
f 497/497 570/570 571/571
f 497/497 571/571 498/498
f 498/498 571/571 572/572
f 498/498 572/572 499/499
f 499/499 572/572 573/573
f 499/499 573/573 500/500
f 500/500 573/573 574/574
f 500/500 574/574 501/501
f 501/501 574/574 575/575
f 501/501 575/575 502/502
f 502/502 575/575 576/576
f 502/502 576/576 503/503
f 503/503 576/576 577/577
f 503/503 577/577 504/504
f 504/504 577/577 578/578
f 504/504 578/578 505/505
f 505/505 578/578 579/579
f 505/505 579/579 506/506
f 506/506 579/579 580/580
f 506/506 580/580 507/507
f 507/507 580/580 581/581
f 507/507 581/581 508/508
f 508/508 581/581 582/582
f 508/508 582/582 509/509
f 509/509 582/582 583/583
f 509/509 583/583 510/510
f 510/510 583/583 584/584
f 510/510 584/584 511/511
