# Basketbroom original 3D environment. Centimetres, Z up.
o SM_BB_ENV_RR_Recesses
s 1
v -25618.98915 9441.00000 -230.00000
v -25308.98915 9441.00000 -230.00000
v -25308.98915 9453.00000 -230.00000
v -25618.98915 9453.00000 -230.00000
v -25618.98915 9441.00000 420.00000
v -25308.98915 9441.00000 420.00000
v -25308.98915 9453.00000 420.00000
v -25618.98915 9453.00000 420.00000
v -26061.69068 9441.00000 413.82414
v -25841.69068 9441.00000 413.82414
v -25841.69068 9453.00000 413.82414
v -26061.69068 9453.00000 413.82414
v -26061.69068 9441.00000 673.82414
v -25841.69068 9441.00000 673.82414
v -25841.69068 9453.00000 673.82414
v -26061.69068 9453.00000 673.82414
v -25086.28762 9441.00000 413.82414
v -24866.28762 9441.00000 413.82414
v -24866.28762 9453.00000 413.82414
v -25086.28762 9453.00000 413.82414
v -25086.28762 9441.00000 673.82414
v -24866.28762 9441.00000 673.82414
v -24866.28762 9453.00000 673.82414
v -25086.28762 9453.00000 673.82414
v -21914.77007 9441.00000 -230.00000
v -21604.77007 9441.00000 -230.00000
v -21604.77007 9453.00000 -230.00000
v -21914.77007 9453.00000 -230.00000
v -21914.77007 9441.00000 420.00000
v -21604.77007 9441.00000 420.00000
v -21604.77007 9453.00000 420.00000
v -21914.77007 9453.00000 420.00000
v -22404.38155 9441.00000 492.94475
v -22184.38155 9441.00000 492.94475
v -22184.38155 9453.00000 492.94475
v -22404.38155 9453.00000 492.94475
v -22404.38155 9441.00000 752.94475
v -22184.38155 9441.00000 752.94475
v -22184.38155 9453.00000 752.94475
v -22404.38155 9453.00000 752.94475
v -21335.15859 9441.00000 492.94475
v -21115.15859 9441.00000 492.94475
v -21115.15859 9453.00000 492.94475
v -21335.15859 9453.00000 492.94475
v -21335.15859 9441.00000 752.94475
v -21115.15859 9441.00000 752.94475
v -21115.15859 9453.00000 752.94475
v -21335.15859 9453.00000 752.94475
v -17962.46659 9441.00000 -230.00000
v -17652.46659 9441.00000 -230.00000
v -17652.46659 9453.00000 -230.00000
v -17962.46659 9453.00000 -230.00000
v -17962.46659 9441.00000 420.00000
v -17652.46659 9441.00000 420.00000
v -17652.46659 9453.00000 420.00000
v -17962.46659 9453.00000 420.00000
v -18497.55021 9441.00000 520.29481
v -18277.55021 9441.00000 520.29481
v -18277.55021 9453.00000 520.29481
v -18497.55021 9453.00000 520.29481
v -18497.55021 9441.00000 780.29481
v -18277.55021 9441.00000 780.29481
v -18277.55021 9453.00000 780.29481
v -18497.55021 9453.00000 780.29481
v -17337.38296 9441.00000 520.29481
v -17117.38296 9441.00000 520.29481
v -17117.38296 9453.00000 520.29481
v -17337.38296 9453.00000 520.29481
v -17337.38296 9441.00000 780.29481
v -17117.38296 9441.00000 780.29481
v -17117.38296 9453.00000 780.29481
v -17337.38296 9453.00000 780.29481
v -14138.35069 9441.00000 -230.00000
v -13828.35069 9441.00000 -230.00000
v -13828.35069 9453.00000 -230.00000
v -14138.35069 9453.00000 -230.00000
v -14138.35069 9441.00000 420.00000
v -13828.35069 9441.00000 420.00000
v -13828.35069 9453.00000 420.00000
v -14138.35069 9453.00000 420.00000
v -14618.72257 9441.00000 343.44133
v -14398.72257 9441.00000 343.44133
v -14398.72257 9453.00000 343.44133
v -14618.72257 9453.00000 343.44133
v -14618.72257 9441.00000 603.44133
v -14398.72257 9441.00000 603.44133
v -14398.72257 9453.00000 603.44133
v -14618.72257 9453.00000 603.44133
v -13567.97881 9441.00000 343.44133
v -13347.97881 9441.00000 343.44133
v -13347.97881 9453.00000 343.44133
v -13567.97881 9453.00000 343.44133
v -13567.97881 9441.00000 603.44133
v -13347.97881 9441.00000 603.44133
v -13347.97881 9453.00000 603.44133
v -13567.97881 9453.00000 603.44133
v -10357.04847 9441.00000 -230.00000
v -10047.04847 9441.00000 -230.00000
v -10047.04847 9453.00000 -230.00000
v -10357.04847 9453.00000 -230.00000
v -10357.04847 9441.00000 420.00000
v -10047.04847 9441.00000 420.00000
v -10047.04847 9453.00000 420.00000
v -10357.04847 9453.00000 420.00000
v -10840.85365 9441.00000 618.08223
v -10620.85365 9441.00000 618.08223
v -10620.85365 9453.00000 618.08223
v -10840.85365 9453.00000 618.08223
v -10840.85365 9441.00000 878.08223
v -10620.85365 9441.00000 878.08223
v -10620.85365 9453.00000 878.08223
v -10840.85365 9453.00000 878.08223
v -9783.24330 9441.00000 618.08223
v -9563.24330 9441.00000 618.08223
v -9563.24330 9453.00000 618.08223
v -9783.24330 9453.00000 618.08223
v -9783.24330 9441.00000 878.08223
v -9563.24330 9441.00000 878.08223
v -9563.24330 9453.00000 878.08223
v -9783.24330 9453.00000 878.08223
v -6298.18371 9441.00000 -230.00000
v -5988.18371 9441.00000 -230.00000
v -5988.18371 9453.00000 -230.00000
v -6298.18371 9453.00000 -230.00000
v -6298.18371 9441.00000 420.00000
v -5988.18371 9441.00000 420.00000
v -5988.18371 9453.00000 420.00000
v -6298.18371 9453.00000 420.00000
v -6737.18842 9441.00000 431.98546
v -6517.18842 9441.00000 431.98546
v -6517.18842 9453.00000 431.98546
v -6737.18842 9453.00000 431.98546
v -6737.18842 9441.00000 691.98546
v -6517.18842 9441.00000 691.98546
v -6517.18842 9453.00000 691.98546
v -6737.18842 9453.00000 691.98546
v -5769.17899 9441.00000 431.98546
v -5549.17899 9441.00000 431.98546
v -5549.17899 9453.00000 431.98546
v -5769.17899 9453.00000 431.98546
v -5769.17899 9441.00000 691.98546
v -5549.17899 9441.00000 691.98546
v -5549.17899 9453.00000 691.98546
v -5769.17899 9453.00000 691.98546
v -2446.07279 9441.00000 -230.00000
v -2136.07279 9441.00000 -230.00000
v -2136.07279 9453.00000 -230.00000
v -2446.07279 9453.00000 -230.00000
v -2446.07279 9441.00000 420.00000
v -2136.07279 9441.00000 420.00000
v -2136.07279 9453.00000 420.00000
v -2446.07279 9453.00000 420.00000
v -2986.06139 9441.00000 481.20612
v -2766.06139 9441.00000 481.20612
v -2766.06139 9453.00000 481.20612
v -2986.06139 9453.00000 481.20612
v -2986.06139 9441.00000 741.20612
v -2766.06139 9441.00000 741.20612
v -2766.06139 9453.00000 741.20612
v -2986.06139 9453.00000 741.20612
v -1816.08420 9441.00000 481.20612
v -1596.08420 9441.00000 481.20612
v -1596.08420 9453.00000 481.20612
v -1816.08420 9453.00000 481.20612
v -1816.08420 9441.00000 741.20612
v -1596.08420 9441.00000 741.20612
v -1596.08420 9453.00000 741.20612
v -1816.08420 9453.00000 741.20612
v 1550.52187 9441.00000 -230.00000
v 1860.52187 9441.00000 -230.00000
v 1860.52187 9453.00000 -230.00000
v 1550.52187 9453.00000 -230.00000
v 1550.52187 9441.00000 420.00000
v 1860.52187 9441.00000 420.00000
v 1860.52187 9453.00000 420.00000
v 1550.52187 9453.00000 420.00000
v 1040.95038 9441.00000 685.96319
v 1260.95038 9441.00000 685.96319
v 1260.95038 9453.00000 685.96319
v 1040.95038 9453.00000 685.96319
v 1040.95038 9441.00000 945.96319
v 1260.95038 9441.00000 945.96319
v 1260.95038 9453.00000 945.96319
v 1040.95038 9453.00000 945.96319
v 2150.09335 9441.00000 685.96319
v 2370.09335 9441.00000 685.96319
v 2370.09335 9453.00000 685.96319
v 2150.09335 9453.00000 685.96319
v 2150.09335 9441.00000 945.96319
v 2370.09335 9441.00000 945.96319
v 2370.09335 9453.00000 945.96319
v 2150.09335 9453.00000 945.96319
v 5339.10751 9441.00000 -230.00000
v 5649.10751 9441.00000 -230.00000
v 5649.10751 9453.00000 -230.00000
v 5339.10751 9453.00000 -230.00000
v 5339.10751 9441.00000 420.00000
v 5649.10751 9441.00000 420.00000
v 5649.10751 9453.00000 420.00000
v 5339.10751 9453.00000 420.00000
v 4817.89202 9441.00000 578.52522
v 5037.89202 9441.00000 578.52522
v 5037.89202 9453.00000 578.52522
v 4817.89202 9453.00000 578.52522
v 4817.89202 9441.00000 838.52522
v 5037.89202 9441.00000 838.52522
v 5037.89202 9453.00000 838.52522
v 4817.89202 9453.00000 838.52522
v 5950.32300 9441.00000 578.52522
v 6170.32300 9441.00000 578.52522
v 6170.32300 9453.00000 578.52522
v 5950.32300 9453.00000 578.52522
v 5950.32300 9441.00000 838.52522
v 6170.32300 9441.00000 838.52522
v 6170.32300 9453.00000 838.52522
v 5950.32300 9453.00000 838.52522
v 9249.53530 9441.00000 -230.00000
v 9559.53530 9441.00000 -230.00000
v 9559.53530 9453.00000 -230.00000
v 9249.53530 9453.00000 -230.00000
v 9249.53530 9441.00000 420.00000
v 9559.53530 9441.00000 420.00000
v 9559.53530 9453.00000 420.00000
v 9249.53530 9453.00000 420.00000
v 8756.52422 9441.00000 589.98354
v 8976.52422 9441.00000 589.98354
v 8976.52422 9453.00000 589.98354
v 8756.52422 9453.00000 589.98354
v 8756.52422 9441.00000 849.98354
v 8976.52422 9441.00000 849.98354
v 8976.52422 9453.00000 849.98354
v 8756.52422 9453.00000 849.98354
v 9832.54637 9441.00000 589.98354
v 10052.54637 9441.00000 589.98354
v 10052.54637 9453.00000 589.98354
v 9832.54637 9453.00000 589.98354
v 9832.54637 9441.00000 849.98354
v 10052.54637 9441.00000 849.98354
v 10052.54637 9453.00000 849.98354
v 9832.54637 9453.00000 849.98354
v 13147.72300 9441.00000 -230.00000
v 13457.72300 9441.00000 -230.00000
v 13457.72300 9453.00000 -230.00000
v 13147.72300 9453.00000 -230.00000
v 13147.72300 9441.00000 420.00000
v 13457.72300 9441.00000 420.00000
v 13457.72300 9453.00000 420.00000
v 13147.72300 9453.00000 420.00000
v 12645.24113 9441.00000 480.64830
v 12865.24113 9441.00000 480.64830
v 12865.24113 9453.00000 480.64830
v 12645.24113 9453.00000 480.64830
v 12645.24113 9441.00000 740.64830
v 12865.24113 9441.00000 740.64830
v 12865.24113 9453.00000 740.64830
v 12645.24113 9453.00000 740.64830
v 13740.20486 9441.00000 480.64830
v 13960.20486 9441.00000 480.64830
v 13960.20486 9453.00000 480.64830
v 13740.20486 9453.00000 480.64830
v 13740.20486 9441.00000 740.64830
v 13960.20486 9441.00000 740.64830
v 13960.20486 9453.00000 740.64830
v 13740.20486 9453.00000 740.64830
v 17256.78993 9441.00000 -230.00000
v 17566.78993 9441.00000 -230.00000
v 17566.78993 9453.00000 -230.00000
v 17256.78993 9453.00000 -230.00000
v 17256.78993 9441.00000 420.00000
v 17566.78993 9441.00000 420.00000
v 17566.78993 9453.00000 420.00000
v 17256.78993 9453.00000 420.00000
v 16740.20313 9441.00000 624.85702
v 16960.20313 9441.00000 624.85702
v 16960.20313 9453.00000 624.85702
v 16740.20313 9453.00000 624.85702
v 16740.20313 9441.00000 884.85702
v 16960.20313 9441.00000 884.85702
v 16960.20313 9453.00000 884.85702
v 16740.20313 9453.00000 884.85702
v 17863.37672 9441.00000 624.85702
v 18083.37672 9441.00000 624.85702
v 18083.37672 9453.00000 624.85702
v 17863.37672 9453.00000 624.85702
v 17863.37672 9441.00000 884.85702
v 18083.37672 9441.00000 884.85702
v 18083.37672 9453.00000 884.85702
v 17863.37672 9453.00000 884.85702
v 20970.47185 9441.00000 -230.00000
v 21280.47185 9441.00000 -230.00000
v 21280.47185 9453.00000 -230.00000
v 20970.47185 9453.00000 -230.00000
v 20970.47185 9441.00000 420.00000
v 21280.47185 9441.00000 420.00000
v 21280.47185 9453.00000 420.00000
v 20970.47185 9453.00000 420.00000
v 20424.36361 9441.00000 577.96852
v 20644.36361 9441.00000 577.96852
v 20644.36361 9453.00000 577.96852
v 20424.36361 9453.00000 577.96852
v 20424.36361 9441.00000 837.96852
v 20644.36361 9441.00000 837.96852
v 20644.36361 9453.00000 837.96852
v 20424.36361 9453.00000 837.96852
v 21606.58010 9441.00000 577.96852
v 21826.58010 9441.00000 577.96852
v 21826.58010 9453.00000 577.96852
v 21606.58010 9453.00000 577.96852
v 21606.58010 9441.00000 837.96852
v 21826.58010 9441.00000 837.96852
v 21826.58010 9453.00000 837.96852
v 21606.58010 9453.00000 837.96852
v 24800.80413 9441.00000 -230.00000
v 25110.80413 9441.00000 -230.00000
v 25110.80413 9453.00000 -230.00000
v 24800.80413 9453.00000 -230.00000
v 24800.80413 9441.00000 420.00000
v 25110.80413 9441.00000 420.00000
v 25110.80413 9453.00000 420.00000
v 24800.80413 9453.00000 420.00000
v 24305.59389 9441.00000 616.73089
v 24525.59389 9441.00000 616.73089
v 24525.59389 9453.00000 616.73089
v 24305.59389 9453.00000 616.73089
v 24305.59389 9441.00000 876.73089
v 24525.59389 9441.00000 876.73089
v 24525.59389 9453.00000 876.73089
v 24305.59389 9453.00000 876.73089
v 25386.01438 9441.00000 616.73089
v 25606.01438 9441.00000 616.73089
v 25606.01438 9453.00000 616.73089
v 25386.01438 9453.00000 616.73089
v 25386.01438 9441.00000 876.73089
v 25606.01438 9441.00000 876.73089
v 25606.01438 9453.00000 876.73089
v 25386.01438 9453.00000 876.73089
v -25789.38263 12174.33333 620.00000
v -25479.38263 12174.33333 620.00000
v -25479.38263 12186.33333 620.00000
v -25789.38263 12186.33333 620.00000
v -25789.38263 12174.33333 1270.00000
v -25479.38263 12174.33333 1270.00000
v -25479.38263 12186.33333 1270.00000
v -25789.38263 12186.33333 1270.00000
v -26325.95352 12174.33333 1389.99506
v -26105.95352 12174.33333 1389.99506
v -26105.95352 12186.33333 1389.99506
v -26325.95352 12186.33333 1389.99506
v -26325.95352 12174.33333 1649.99506
v -26105.95352 12174.33333 1649.99506
v -26105.95352 12186.33333 1649.99506
v -26325.95352 12186.33333 1649.99506
v -25162.81174 12174.33333 1389.99506
v -24942.81174 12174.33333 1389.99506
v -24942.81174 12186.33333 1389.99506
v -25162.81174 12186.33333 1389.99506
v -25162.81174 12174.33333 1649.99506
v -24942.81174 12174.33333 1649.99506
v -24942.81174 12186.33333 1649.99506
v -25162.81174 12186.33333 1649.99506
v -21924.80884 12174.33333 620.00000
v -21614.80884 12174.33333 620.00000
v -21614.80884 12186.33333 620.00000
v -21924.80884 12186.33333 620.00000
v -21924.80884 12174.33333 1270.00000
v -21614.80884 12174.33333 1270.00000
v -21614.80884 12186.33333 1270.00000
v -21924.80884 12186.33333 1270.00000
v -22429.86088 12174.33333 1401.50867
v -22209.86088 12174.33333 1401.50867
v -22209.86088 12186.33333 1401.50867
v -22429.86088 12186.33333 1401.50867
v -22429.86088 12174.33333 1661.50867
v -22209.86088 12174.33333 1661.50867
v -22209.86088 12186.33333 1661.50867
v -22429.86088 12186.33333 1661.50867
v -21329.75679 12174.33333 1401.50867
v -21109.75679 12174.33333 1401.50867
v -21109.75679 12186.33333 1401.50867
v -21329.75679 12186.33333 1401.50867
v -21329.75679 12174.33333 1661.50867
v -21109.75679 12174.33333 1661.50867
v -21109.75679 12186.33333 1661.50867
v -21329.75679 12186.33333 1661.50867
v -18090.03520 12174.33333 620.00000
v -17780.03520 12174.33333 620.00000
v -17780.03520 12186.33333 620.00000
v -18090.03520 12186.33333 620.00000
v -18090.03520 12174.33333 1270.00000
v -17780.03520 12174.33333 1270.00000
v -17780.03520 12186.33333 1270.00000
v -18090.03520 12186.33333 1270.00000
v -18616.16124 12174.33333 1281.80923
v -18396.16124 12174.33333 1281.80923
v -18396.16124 12186.33333 1281.80923
v -18616.16124 12186.33333 1281.80923
v -18616.16124 12174.33333 1541.80923
v -18396.16124 12174.33333 1541.80923
v -18396.16124 12186.33333 1541.80923
v -18616.16124 12186.33333 1541.80923
v -17473.90916 12174.33333 1281.80923
v -17253.90916 12174.33333 1281.80923
v -17253.90916 12186.33333 1281.80923
v -17473.90916 12186.33333 1281.80923
v -17473.90916 12174.33333 1541.80923
v -17253.90916 12174.33333 1541.80923
v -17253.90916 12186.33333 1541.80923
v -17473.90916 12186.33333 1541.80923
v -14226.75126 12174.33333 620.00000
v -13916.75126 12174.33333 620.00000
v -13916.75126 12186.33333 620.00000
v -14226.75126 12186.33333 620.00000
v -14226.75126 12174.33333 1270.00000
v -13916.75126 12174.33333 1270.00000
v -13916.75126 12186.33333 1270.00000
v -14226.75126 12186.33333 1270.00000
v -14743.54236 12174.33333 1248.22697
v -14523.54236 12174.33333 1248.22697
v -14523.54236 12186.33333 1248.22697
v -14743.54236 12186.33333 1248.22697
v -14743.54236 12174.33333 1508.22697
v -14523.54236 12174.33333 1508.22697
v -14523.54236 12186.33333 1508.22697
v -14743.54236 12186.33333 1508.22697
v -13619.96015 12174.33333 1248.22697
v -13399.96015 12174.33333 1248.22697
v -13399.96015 12186.33333 1248.22697
v -13619.96015 12186.33333 1248.22697
v -13619.96015 12174.33333 1508.22697
v -13399.96015 12174.33333 1508.22697
v -13399.96015 12186.33333 1508.22697
v -13619.96015 12186.33333 1508.22697
v -10051.18115 12174.33333 620.00000
v -9741.18115 12174.33333 620.00000
v -9741.18115 12186.33333 620.00000
v -10051.18115 12186.33333 620.00000
v -10051.18115 12174.33333 1270.00000
v -9741.18115 12174.33333 1270.00000
v -9741.18115 12186.33333 1270.00000
v -10051.18115 12186.33333 1270.00000
v -10493.43799 12174.33333 1334.04436
v -10273.43799 12174.33333 1334.04436
v -10273.43799 12186.33333 1334.04436
v -10493.43799 12186.33333 1334.04436
v -10493.43799 12174.33333 1594.04436
v -10273.43799 12174.33333 1594.04436
v -10273.43799 12186.33333 1594.04436
v -10493.43799 12186.33333 1594.04436
v -9518.92430 12174.33333 1334.04436
v -9298.92430 12174.33333 1334.04436
v -9298.92430 12186.33333 1334.04436
v -9518.92430 12186.33333 1334.04436
v -9518.92430 12174.33333 1594.04436
v -9298.92430 12174.33333 1594.04436
v -9298.92430 12186.33333 1594.04436
v -9518.92430 12186.33333 1594.04436
v -6281.12335 12174.33333 620.00000
v -5971.12335 12174.33333 620.00000
v -5971.12335 12186.33333 620.00000
v -6281.12335 12186.33333 620.00000
v -6281.12335 12174.33333 1270.00000
v -5971.12335 12174.33333 1270.00000
v -5971.12335 12186.33333 1270.00000
v -6281.12335 12186.33333 1270.00000
v -6811.72141 12174.33333 1510.06783
v -6591.72141 12174.33333 1510.06783
v -6591.72141 12186.33333 1510.06783
v -6811.72141 12186.33333 1510.06783
v -6811.72141 12174.33333 1770.06783
v -6591.72141 12174.33333 1770.06783
v -6591.72141 12186.33333 1770.06783
v -6811.72141 12186.33333 1770.06783
v -5660.52529 12174.33333 1510.06783
v -5440.52529 12174.33333 1510.06783
v -5440.52529 12186.33333 1510.06783
v -5660.52529 12186.33333 1510.06783
v -5660.52529 12174.33333 1770.06783
v -5440.52529 12174.33333 1770.06783
v -5440.52529 12186.33333 1770.06783
v -5660.52529 12186.33333 1770.06783
v -2370.19346 12174.33333 620.00000
v -2060.19346 12174.33333 620.00000
v -2060.19346 12186.33333 620.00000
v -2370.19346 12186.33333 620.00000
v -2370.19346 12174.33333 1270.00000
v -2060.19346 12174.33333 1270.00000
v -2060.19346 12186.33333 1270.00000
v -2370.19346 12186.33333 1270.00000
v -2878.40056 12174.33333 1331.29097
v -2658.40056 12174.33333 1331.29097
v -2658.40056 12186.33333 1331.29097
v -2878.40056 12186.33333 1331.29097
v -2878.40056 12174.33333 1591.29097
v -2658.40056 12174.33333 1591.29097
v -2658.40056 12186.33333 1591.29097
v -2878.40056 12186.33333 1591.29097
v -1771.98635 12174.33333 1331.29097
v -1551.98635 12174.33333 1331.29097
v -1551.98635 12186.33333 1331.29097
v -1771.98635 12186.33333 1331.29097
v -1771.98635 12174.33333 1591.29097
v -1551.98635 12174.33333 1591.29097
v -1551.98635 12186.33333 1591.29097
v -1771.98635 12186.33333 1591.29097
v 1334.30461 12174.33333 620.00000
v 1644.30461 12174.33333 620.00000
v 1644.30461 12186.33333 620.00000
v 1334.30461 12186.33333 620.00000
v 1334.30461 12174.33333 1270.00000
v 1644.30461 12174.33333 1270.00000
v 1644.30461 12186.33333 1270.00000
v 1334.30461 12186.33333 1270.00000
v 853.51398 12174.33333 1415.17792
v 1073.51398 12174.33333 1415.17792
v 1073.51398 12186.33333 1415.17792
v 853.51398 12186.33333 1415.17792
v 853.51398 12174.33333 1675.17792
v 1073.51398 12174.33333 1675.17792
v 1073.51398 12186.33333 1675.17792
v 853.51398 12186.33333 1675.17792
v 1905.09525 12174.33333 1415.17792
v 2125.09525 12174.33333 1415.17792
v 2125.09525 12186.33333 1415.17792
v 1905.09525 12186.33333 1415.17792
v 1905.09525 12174.33333 1675.17792
v 2125.09525 12174.33333 1675.17792
v 2125.09525 12186.33333 1675.17792
v 1905.09525 12186.33333 1675.17792
v 5281.54948 12174.33333 620.00000
v 5591.54948 12174.33333 620.00000
v 5591.54948 12186.33333 620.00000
v 5281.54948 12186.33333 620.00000
v 5281.54948 12174.33333 1270.00000
v 5591.54948 12174.33333 1270.00000
v 5591.54948 12186.33333 1270.00000
v 5281.54948 12186.33333 1270.00000
v 4757.77642 12174.33333 1482.19010
v 4977.77642 12174.33333 1482.19010
v 4977.77642 12186.33333 1482.19010
v 4757.77642 12186.33333 1482.19010
v 4757.77642 12174.33333 1742.19010
v 4977.77642 12174.33333 1742.19010
v 4977.77642 12186.33333 1742.19010
v 4757.77642 12186.33333 1742.19010
v 5895.32253 12174.33333 1482.19010
v 6115.32253 12174.33333 1482.19010
v 6115.32253 12186.33333 1482.19010
v 5895.32253 12186.33333 1482.19010
v 5895.32253 12174.33333 1742.19010
v 6115.32253 12174.33333 1742.19010
v 6115.32253 12186.33333 1742.19010
v 5895.32253 12186.33333 1742.19010
v 9269.45983 12174.33333 620.00000
v 9579.45983 12174.33333 620.00000
v 9579.45983 12186.33333 620.00000
v 9269.45983 12186.33333 620.00000
v 9269.45983 12174.33333 1270.00000
v 9579.45983 12174.33333 1270.00000
v 9579.45983 12186.33333 1270.00000
v 9269.45983 12186.33333 1270.00000
v 8758.50851 12174.33333 1396.92163
v 8978.50851 12174.33333 1396.92163
v 8978.50851 12186.33333 1396.92163
v 8758.50851 12186.33333 1396.92163
v 8758.50851 12174.33333 1656.92163
v 8978.50851 12174.33333 1656.92163
v 8978.50851 12186.33333 1656.92163
v 8758.50851 12186.33333 1656.92163
v 9870.41115 12174.33333 1396.92163
v 10090.41115 12174.33333 1396.92163
v 10090.41115 12186.33333 1396.92163
v 9870.41115 12186.33333 1396.92163
v 9870.41115 12174.33333 1656.92163
v 10090.41115 12174.33333 1656.92163
v 10090.41115 12186.33333 1656.92163
v 9870.41115 12186.33333 1656.92163
v 13248.06540 12174.33333 620.00000
v 13558.06540 12174.33333 620.00000
v 13558.06540 12186.33333 620.00000
v 13248.06540 12186.33333 620.00000
v 13248.06540 12174.33333 1270.00000
v 13558.06540 12174.33333 1270.00000
v 13558.06540 12186.33333 1270.00000
v 13248.06540 12186.33333 1270.00000
v 12802.49022 12174.33333 1182.95450
v 13022.49022 12174.33333 1182.95450
v 13022.49022 12186.33333 1182.95450
v 12802.49022 12186.33333 1182.95450
v 12802.49022 12174.33333 1442.95450
v 13022.49022 12174.33333 1442.95450
v 13022.49022 12186.33333 1442.95450
v 12802.49022 12186.33333 1442.95450
v 13783.64058 12174.33333 1182.95450
v 14003.64058 12174.33333 1182.95450
v 14003.64058 12186.33333 1182.95450
v 13783.64058 12186.33333 1182.95450
v 13783.64058 12174.33333 1442.95450
v 14003.64058 12174.33333 1442.95450
v 14003.64058 12186.33333 1442.95450
v 13783.64058 12186.33333 1442.95450
v 17030.46169 12174.33333 620.00000
v 17340.46169 12174.33333 620.00000
v 17340.46169 12186.33333 620.00000
v 17030.46169 12186.33333 620.00000
v 17030.46169 12174.33333 1270.00000
v 17340.46169 12174.33333 1270.00000
v 17340.46169 12186.33333 1270.00000
v 17030.46169 12186.33333 1270.00000
v 16504.34248 12174.33333 1536.77008
v 16724.34248 12174.33333 1536.77008
v 16724.34248 12186.33333 1536.77008
v 16504.34248 12186.33333 1536.77008
v 16504.34248 12174.33333 1796.77008
v 16724.34248 12174.33333 1796.77008
v 16724.34248 12186.33333 1796.77008
v 16504.34248 12186.33333 1796.77008
v 17646.58090 12174.33333 1536.77008
v 17866.58090 12174.33333 1536.77008
v 17866.58090 12186.33333 1536.77008
v 17646.58090 12186.33333 1536.77008
v 17646.58090 12174.33333 1796.77008
v 17866.58090 12174.33333 1796.77008
v 17866.58090 12186.33333 1796.77008
v 17646.58090 12186.33333 1796.77008
v 20856.98324 12174.33333 620.00000
v 21166.98324 12174.33333 620.00000
v 21166.98324 12186.33333 620.00000
v 20856.98324 12186.33333 620.00000
v 20856.98324 12174.33333 1270.00000
v 21166.98324 12174.33333 1270.00000
v 21166.98324 12186.33333 1270.00000
v 20856.98324 12186.33333 1270.00000
v 20317.56573 12174.33333 1345.15421
v 20537.56573 12174.33333 1345.15421
v 20537.56573 12186.33333 1345.15421
v 20317.56573 12186.33333 1345.15421
v 20317.56573 12174.33333 1605.15421
v 20537.56573 12174.33333 1605.15421
v 20537.56573 12186.33333 1605.15421
v 20317.56573 12186.33333 1605.15421
v 21486.40074 12174.33333 1345.15421
v 21706.40074 12174.33333 1345.15421
v 21706.40074 12186.33333 1345.15421
v 21486.40074 12186.33333 1345.15421
v 21486.40074 12174.33333 1605.15421
v 21706.40074 12174.33333 1605.15421
v 21706.40074 12186.33333 1605.15421
v 21486.40074 12186.33333 1605.15421
v 24847.50268 12174.33333 620.00000
v 25157.50268 12174.33333 620.00000
v 25157.50268 12186.33333 620.00000
v 24847.50268 12186.33333 620.00000
v 24847.50268 12174.33333 1270.00000
v 25157.50268 12174.33333 1270.00000
v 25157.50268 12186.33333 1270.00000
v 24847.50268 12186.33333 1270.00000
v 24332.33139 12174.33333 1217.42245
v 24552.33139 12174.33333 1217.42245
v 24552.33139 12186.33333 1217.42245
v 24332.33139 12186.33333 1217.42245
v 24332.33139 12174.33333 1477.42245
v 24552.33139 12174.33333 1477.42245
v 24552.33139 12186.33333 1477.42245
v 24332.33139 12186.33333 1477.42245
v 25452.67397 12174.33333 1217.42245
v 25672.67397 12174.33333 1217.42245
v 25672.67397 12186.33333 1217.42245
v 25452.67397 12186.33333 1217.42245
v 25452.67397 12174.33333 1477.42245
v 25672.67397 12174.33333 1477.42245
v 25672.67397 12186.33333 1477.42245
v 25452.67397 12186.33333 1477.42245
v -21992.74655 14907.66667 1470.00000
v -21682.74655 14907.66667 1470.00000
v -21682.74655 14919.66667 1470.00000
v -21992.74655 14919.66667 1470.00000
v -21992.74655 14907.66667 2120.00000
v -21682.74655 14907.66667 2120.00000
v -21682.74655 14919.66667 2120.00000
v -21992.74655 14919.66667 2120.00000
v -22528.30885 14907.66667 2201.77206
v -22308.30885 14907.66667 2201.77206
v -22308.30885 14919.66667 2201.77206
v -22528.30885 14919.66667 2201.77206
v -22528.30885 14907.66667 2461.77206
v -22308.30885 14907.66667 2461.77206
v -22308.30885 14919.66667 2461.77206
v -22528.30885 14919.66667 2461.77206
v -21367.18426 14907.66667 2201.77206
v -21147.18426 14907.66667 2201.77206
v -21147.18426 14919.66667 2201.77206
v -21367.18426 14919.66667 2201.77206
v -21367.18426 14907.66667 2461.77206
v -21147.18426 14907.66667 2461.77206
v -21147.18426 14919.66667 2461.77206
v -21367.18426 14919.66667 2461.77206
v -17977.31474 14907.66667 1470.00000
v -17667.31474 14907.66667 1470.00000
v -17667.31474 14919.66667 1470.00000
v -17977.31474 14919.66667 1470.00000
v -17977.31474 14907.66667 2120.00000
v -17667.31474 14907.66667 2120.00000
v -17667.31474 14919.66667 2120.00000
v -17977.31474 14919.66667 2120.00000
v -18527.41544 14907.66667 2062.03471
v -18307.41544 14907.66667 2062.03471
v -18307.41544 14919.66667 2062.03471
v -18527.41544 14919.66667 2062.03471
v -18527.41544 14907.66667 2322.03471
v -18307.41544 14907.66667 2322.03471
v -18307.41544 14919.66667 2322.03471
v -18527.41544 14919.66667 2322.03471
v -17337.21403 14907.66667 2062.03471
v -17117.21403 14907.66667 2062.03471
v -17117.21403 14919.66667 2062.03471
v -17337.21403 14919.66667 2062.03471
v -17337.21403 14907.66667 2322.03471
v -17117.21403 14907.66667 2322.03471
v -17117.21403 14919.66667 2322.03471
v -17337.21403 14919.66667 2322.03471
v -14007.89551 14907.66667 1470.00000
v -13697.89551 14907.66667 1470.00000
v -13697.89551 14919.66667 1470.00000
v -14007.89551 14919.66667 1470.00000
v -14007.89551 14907.66667 2120.00000
v -13697.89551 14907.66667 2120.00000
v -13697.89551 14919.66667 2120.00000
v -14007.89551 14919.66667 2120.00000
v -14542.63233 14907.66667 2149.92569
v -14322.63233 14907.66667 2149.92569
v -14322.63233 14919.66667 2149.92569
v -14542.63233 14919.66667 2149.92569
v -14542.63233 14907.66667 2409.92569
v -14322.63233 14907.66667 2409.92569
v -14322.63233 14919.66667 2409.92569
v -14542.63233 14919.66667 2409.92569
v -13383.15870 14907.66667 2149.92569
v -13163.15870 14907.66667 2149.92569
v -13163.15870 14919.66667 2149.92569
v -13383.15870 14919.66667 2149.92569
v -13383.15870 14907.66667 2409.92569
v -13163.15870 14907.66667 2409.92569
v -13163.15870 14919.66667 2409.92569
v -13383.15870 14919.66667 2409.92569
v -10182.25196 14907.66667 1470.00000
v -9872.25196 14907.66667 1470.00000
v -9872.25196 14919.66667 1470.00000
v -10182.25196 14919.66667 1470.00000
v -10182.25196 14907.66667 2120.00000
v -9872.25196 14907.66667 2120.00000
v -9872.25196 14919.66667 2120.00000
v -10182.25196 14919.66667 2120.00000
v -10716.12626 14907.66667 2124.32894
v -10496.12626 14907.66667 2124.32894
v -10496.12626 14919.66667 2124.32894
v -10716.12626 14919.66667 2124.32894
v -10716.12626 14907.66667 2384.32894
v -10496.12626 14907.66667 2384.32894
v -10496.12626 14919.66667 2384.32894
v -10716.12626 14919.66667 2384.32894
v -9558.37766 14907.66667 2124.32894
v -9338.37766 14907.66667 2124.32894
v -9338.37766 14919.66667 2124.32894
v -9558.37766 14919.66667 2124.32894
v -9558.37766 14907.66667 2384.32894
v -9338.37766 14907.66667 2384.32894
v -9338.37766 14919.66667 2384.32894
v -9558.37766 14919.66667 2384.32894
v -6101.91790 14907.66667 1470.00000
v -5791.91790 14907.66667 1470.00000
v -5791.91790 14919.66667 1470.00000
v -6101.91790 14919.66667 1470.00000
v -6101.91790 14907.66667 2120.00000
v -5791.91790 14907.66667 2120.00000
v -5791.91790 14919.66667 2120.00000
v -6101.91790 14919.66667 2120.00000
v -6554.16918 14907.66667 2032.75651
v -6334.16918 14907.66667 2032.75651
v -6334.16918 14919.66667 2032.75651
v -6554.16918 14919.66667 2032.75651
v -6554.16918 14907.66667 2292.75651
v -6334.16918 14907.66667 2292.75651
v -6334.16918 14919.66667 2292.75651
v -6554.16918 14919.66667 2292.75651
v -5559.66662 14907.66667 2032.75651
v -5339.66662 14907.66667 2032.75651
v -5339.66662 14919.66667 2032.75651
v -5559.66662 14919.66667 2032.75651
v -5559.66662 14907.66667 2292.75651
v -5339.66662 14907.66667 2292.75651
v -5339.66662 14919.66667 2292.75651
v -5559.66662 14919.66667 2292.75651
v -2444.59483 14907.66667 1470.00000
v -2134.59483 14907.66667 1470.00000
v -2134.59483 14919.66667 1470.00000
v -2444.59483 14919.66667 1470.00000
v -2444.59483 14907.66667 2120.00000
v -2134.59483 14907.66667 2120.00000
v -2134.59483 14919.66667 2120.00000
v -2444.59483 14919.66667 2120.00000
v -2953.92992 14907.66667 2092.04919
v -2733.92992 14907.66667 2092.04919
v -2733.92992 14919.66667 2092.04919
v -2953.92992 14919.66667 2092.04919
v -2953.92992 14907.66667 2352.04919
v -2733.92992 14907.66667 2352.04919
v -2733.92992 14919.66667 2352.04919
v -2953.92992 14919.66667 2352.04919
v -1845.25974 14907.66667 2092.04919
v -1625.25974 14907.66667 2092.04919
v -1625.25974 14919.66667 2092.04919
v -1845.25974 14919.66667 2092.04919
v -1845.25974 14907.66667 2352.04919
v -1625.25974 14907.66667 2352.04919
v -1625.25974 14919.66667 2352.04919
v -1845.25974 14919.66667 2352.04919
v 1750.98538 14907.66667 1470.00000
v 2060.98538 14907.66667 1470.00000
v 2060.98538 14919.66667 1470.00000
v 1750.98538 14919.66667 1470.00000
v 1750.98538 14907.66667 2120.00000
v 2060.98538 14907.66667 2120.00000
v 2060.98538 14919.66667 2120.00000
v 1750.98538 14919.66667 2120.00000
v 1273.06422 14907.66667 2248.36325
v 1493.06422 14907.66667 2248.36325
v 1493.06422 14919.66667 2248.36325
v 1273.06422 14919.66667 2248.36325
v 1273.06422 14907.66667 2508.36325
v 1493.06422 14907.66667 2508.36325
v 1493.06422 14919.66667 2508.36325
v 1273.06422 14919.66667 2508.36325
v 2318.90653 14907.66667 2248.36325
v 2538.90653 14907.66667 2248.36325
v 2538.90653 14919.66667 2248.36325
v 2318.90653 14919.66667 2248.36325
v 2318.90653 14907.66667 2508.36325
v 2538.90653 14907.66667 2508.36325
v 2538.90653 14919.66667 2508.36325
v 2318.90653 14919.66667 2508.36325
v 5374.84158 14907.66667 1470.00000
v 5684.84158 14907.66667 1470.00000
v 5684.84158 14919.66667 1470.00000
v 5374.84158 14919.66667 1470.00000
v 5374.84158 14907.66667 2120.00000
v 5684.84158 14907.66667 2120.00000
v 5684.84158 14919.66667 2120.00000
v 5374.84158 14919.66667 2120.00000
v 4915.26556 14907.66667 2019.71917
v 5135.26556 14907.66667 2019.71917
v 5135.26556 14919.66667 2019.71917
v 4915.26556 14919.66667 2019.71917
v 4915.26556 14907.66667 2279.71917
v 5135.26556 14907.66667 2279.71917
v 5135.26556 14919.66667 2279.71917
v 4915.26556 14919.66667 2279.71917
v 5924.41760 14907.66667 2019.71917
v 6144.41760 14907.66667 2019.71917
v 6144.41760 14919.66667 2019.71917
v 5924.41760 14919.66667 2019.71917
v 5924.41760 14907.66667 2279.71917
v 6144.41760 14907.66667 2279.71917
v 6144.41760 14919.66667 2279.71917
v 5924.41760 14919.66667 2279.71917
v 9150.20293 14907.66667 1470.00000
v 9460.20293 14907.66667 1470.00000
v 9460.20293 14919.66667 1470.00000
v 9150.20293 14919.66667 1470.00000
v 9150.20293 14907.66667 2120.00000
v 9460.20293 14907.66667 2120.00000
v 9460.20293 14919.66667 2120.00000
v 9150.20293 14919.66667 2120.00000
v 8653.20169 14907.66667 2120.81872
v 8873.20169 14907.66667 2120.81872
v 8873.20169 14919.66667 2120.81872
v 8653.20169 14919.66667 2120.81872
v 8653.20169 14907.66667 2380.81872
v 8873.20169 14907.66667 2380.81872
v 8873.20169 14919.66667 2380.81872
v 8653.20169 14919.66667 2380.81872
v 9737.20416 14907.66667 2120.81872
v 9957.20416 14907.66667 2120.81872
v 9957.20416 14919.66667 2120.81872
v 9737.20416 14919.66667 2120.81872
v 9737.20416 14907.66667 2380.81872
v 9957.20416 14907.66667 2380.81872
v 9957.20416 14919.66667 2380.81872
v 9737.20416 14919.66667 2380.81872
v 13137.73291 14907.66667 1470.00000
v 13447.73291 14907.66667 1470.00000
v 13447.73291 14919.66667 1470.00000
v 13137.73291 14919.66667 1470.00000
v 13137.73291 14907.66667 2120.00000
v 13447.73291 14907.66667 2120.00000
v 13447.73291 14919.66667 2120.00000
v 13137.73291 14919.66667 2120.00000
v 12648.53071 14907.66667 2022.09971
v 12868.53071 14907.66667 2022.09971
v 12868.53071 14919.66667 2022.09971
v 12648.53071 14919.66667 2022.09971
v 12648.53071 14907.66667 2282.09971
v 12868.53071 14907.66667 2282.09971
v 12868.53071 14919.66667 2282.09971
v 12648.53071 14919.66667 2282.09971
v 13716.93511 14907.66667 2022.09971
v 13936.93511 14907.66667 2022.09971
v 13936.93511 14919.66667 2022.09971
v 13716.93511 14919.66667 2022.09971
v 13716.93511 14907.66667 2282.09971
v 13936.93511 14907.66667 2282.09971
v 13936.93511 14919.66667 2282.09971
v 13716.93511 14919.66667 2282.09971
v 17200.34682 14907.66667 1470.00000
v 17510.34682 14907.66667 1470.00000
v 17510.34682 14919.66667 1470.00000
v 17200.34682 14919.66667 1470.00000
v 17200.34682 14907.66667 2120.00000
v 17510.34682 14907.66667 2120.00000
v 17510.34682 14919.66667 2120.00000
v 17200.34682 14919.66667 2120.00000
v 16681.33726 14907.66667 2139.82927
v 16901.33726 14907.66667 2139.82927
v 16901.33726 14919.66667 2139.82927
v 16681.33726 14919.66667 2139.82927
v 16681.33726 14907.66667 2399.82927
v 16901.33726 14907.66667 2399.82927
v 16901.33726 14919.66667 2399.82927
v 16681.33726 14919.66667 2399.82927
v 17809.35638 14907.66667 2139.82927
v 18029.35638 14907.66667 2139.82927
v 18029.35638 14919.66667 2139.82927
v 17809.35638 14919.66667 2139.82927
v 17809.35638 14907.66667 2399.82927
v 18029.35638 14907.66667 2399.82927
v 18029.35638 14919.66667 2399.82927
v 17809.35638 14919.66667 2399.82927
v 21248.45476 14907.66667 1470.00000
v 21558.45476 14907.66667 1470.00000
v 21558.45476 14919.66667 1470.00000
v 21248.45476 14919.66667 1470.00000
v 21248.45476 14907.66667 2120.00000
v 21558.45476 14907.66667 2120.00000
v 21558.45476 14919.66667 2120.00000
v 21248.45476 14919.66667 2120.00000
v 20782.64946 14907.66667 2343.20980
v 21002.64946 14907.66667 2343.20980
v 21002.64946 14919.66667 2343.20980
v 20782.64946 14919.66667 2343.20980
v 20782.64946 14907.66667 2603.20980
v 21002.64946 14907.66667 2603.20980
v 21002.64946 14919.66667 2603.20980
v 20782.64946 14919.66667 2603.20980
v 21804.26006 14907.66667 2343.20980
v 22024.26006 14907.66667 2343.20980
v 22024.26006 14919.66667 2343.20980
v 21804.26006 14919.66667 2343.20980
v 21804.26006 14907.66667 2603.20980
v 22024.26006 14907.66667 2603.20980
v 22024.26006 14919.66667 2603.20980
v 21804.26006 14919.66667 2603.20980
v -29615.00000 9682.00000 25.00000
v -29185.00000 9682.00000 25.00000
v -29185.00000 9712.00000 25.00000
v -29615.00000 9712.00000 25.00000
v -29615.00000 9682.00000 1575.00000
v -29185.00000 9682.00000 1575.00000
v -29185.00000 9712.00000 1575.00000
v -29615.00000 9712.00000 1575.00000
v 29185.00000 9682.00000 25.00000
v 29615.00000 9682.00000 25.00000
v 29615.00000 9712.00000 25.00000
v 29185.00000 9712.00000 25.00000
v 29185.00000 9682.00000 1575.00000
v 29615.00000 9682.00000 1575.00000
v 29615.00000 9712.00000 1575.00000
v 29185.00000 9712.00000 1575.00000
vt -25.618989 -0.230000
vt -25.308989 -0.230000
vt -25.308989 -0.230000
vt -25.618989 -0.230000
vt -25.618989 0.420000
vt -25.308989 0.420000
vt -25.308989 0.420000
vt -25.618989 0.420000
vt -26.061691 0.413824
vt -25.841691 0.413824
vt -25.841691 0.413824
vt -26.061691 0.413824
vt -26.061691 0.673824
vt -25.841691 0.673824
vt -25.841691 0.673824
vt -26.061691 0.673824
vt -25.086288 0.413824
vt -24.866288 0.413824
vt -24.866288 0.413824
vt -25.086288 0.413824
vt -25.086288 0.673824
vt -24.866288 0.673824
vt -24.866288 0.673824
vt -25.086288 0.673824
vt -21.914770 -0.230000
vt -21.604770 -0.230000
vt -21.604770 -0.230000
vt -21.914770 -0.230000
vt -21.914770 0.420000
vt -21.604770 0.420000
vt -21.604770 0.420000
vt -21.914770 0.420000
vt -22.404382 0.492945
vt -22.184382 0.492945
vt -22.184382 0.492945
vt -22.404382 0.492945
vt -22.404382 0.752945
vt -22.184382 0.752945
vt -22.184382 0.752945
vt -22.404382 0.752945
vt -21.335159 0.492945
vt -21.115159 0.492945
vt -21.115159 0.492945
vt -21.335159 0.492945
vt -21.335159 0.752945
vt -21.115159 0.752945
vt -21.115159 0.752945
vt -21.335159 0.752945
vt -17.962467 -0.230000
vt -17.652467 -0.230000
vt -17.652467 -0.230000
vt -17.962467 -0.230000
vt -17.962467 0.420000
vt -17.652467 0.420000
vt -17.652467 0.420000
vt -17.962467 0.420000
vt -18.497550 0.520295
vt -18.277550 0.520295
vt -18.277550 0.520295
vt -18.497550 0.520295
vt -18.497550 0.780295
vt -18.277550 0.780295
vt -18.277550 0.780295
vt -18.497550 0.780295
vt -17.337383 0.520295
vt -17.117383 0.520295
vt -17.117383 0.520295
vt -17.337383 0.520295
vt -17.337383 0.780295
vt -17.117383 0.780295
vt -17.117383 0.780295
vt -17.337383 0.780295
vt -14.138351 -0.230000
vt -13.828351 -0.230000
vt -13.828351 -0.230000
vt -14.138351 -0.230000
vt -14.138351 0.420000
vt -13.828351 0.420000
vt -13.828351 0.420000
vt -14.138351 0.420000
vt -14.618723 0.343441
vt -14.398723 0.343441
vt -14.398723 0.343441
vt -14.618723 0.343441
vt -14.618723 0.603441
vt -14.398723 0.603441
vt -14.398723 0.603441
vt -14.618723 0.603441
vt -13.567979 0.343441
vt -13.347979 0.343441
vt -13.347979 0.343441
vt -13.567979 0.343441
vt -13.567979 0.603441
vt -13.347979 0.603441
vt -13.347979 0.603441
vt -13.567979 0.603441
vt -10.357048 -0.230000
vt -10.047048 -0.230000
vt -10.047048 -0.230000
vt -10.357048 -0.230000
vt -10.357048 0.420000
vt -10.047048 0.420000
vt -10.047048 0.420000
vt -10.357048 0.420000
vt -10.840854 0.618082
vt -10.620854 0.618082
vt -10.620854 0.618082
vt -10.840854 0.618082
vt -10.840854 0.878082
vt -10.620854 0.878082
vt -10.620854 0.878082
vt -10.840854 0.878082
vt -9.783243 0.618082
vt -9.563243 0.618082
vt -9.563243 0.618082
vt -9.783243 0.618082
vt -9.783243 0.878082
vt -9.563243 0.878082
vt -9.563243 0.878082
vt -9.783243 0.878082
vt -6.298184 -0.230000
vt -5.988184 -0.230000
vt -5.988184 -0.230000
vt -6.298184 -0.230000
vt -6.298184 0.420000
vt -5.988184 0.420000
vt -5.988184 0.420000
vt -6.298184 0.420000
vt -6.737188 0.431985
vt -6.517188 0.431985
vt -6.517188 0.431985
vt -6.737188 0.431985
vt -6.737188 0.691985
vt -6.517188 0.691985
vt -6.517188 0.691985
vt -6.737188 0.691985
vt -5.769179 0.431985
vt -5.549179 0.431985
vt -5.549179 0.431985
vt -5.769179 0.431985
vt -5.769179 0.691985
vt -5.549179 0.691985
vt -5.549179 0.691985
vt -5.769179 0.691985
vt -2.446073 -0.230000
vt -2.136073 -0.230000
vt -2.136073 -0.230000
vt -2.446073 -0.230000
vt -2.446073 0.420000
vt -2.136073 0.420000
vt -2.136073 0.420000
vt -2.446073 0.420000
vt -2.986061 0.481206
vt -2.766061 0.481206
vt -2.766061 0.481206
vt -2.986061 0.481206
vt -2.986061 0.741206
vt -2.766061 0.741206
vt -2.766061 0.741206
vt -2.986061 0.741206
vt -1.816084 0.481206
vt -1.596084 0.481206
vt -1.596084 0.481206
vt -1.816084 0.481206
vt -1.816084 0.741206
vt -1.596084 0.741206
vt -1.596084 0.741206
vt -1.816084 0.741206
vt 1.550522 -0.230000
vt 1.860522 -0.230000
vt 1.860522 -0.230000
vt 1.550522 -0.230000
vt 1.550522 0.420000
vt 1.860522 0.420000
vt 1.860522 0.420000
vt 1.550522 0.420000
vt 1.040950 0.685963
vt 1.260950 0.685963
vt 1.260950 0.685963
vt 1.040950 0.685963
vt 1.040950 0.945963
vt 1.260950 0.945963
vt 1.260950 0.945963
vt 1.040950 0.945963
vt 2.150093 0.685963
vt 2.370093 0.685963
vt 2.370093 0.685963
vt 2.150093 0.685963
vt 2.150093 0.945963
vt 2.370093 0.945963
vt 2.370093 0.945963
vt 2.150093 0.945963
vt 5.339108 -0.230000
vt 5.649108 -0.230000
vt 5.649108 -0.230000
vt 5.339108 -0.230000
vt 5.339108 0.420000
vt 5.649108 0.420000
vt 5.649108 0.420000
vt 5.339108 0.420000
vt 4.817892 0.578525
vt 5.037892 0.578525
vt 5.037892 0.578525
vt 4.817892 0.578525
vt 4.817892 0.838525
vt 5.037892 0.838525
vt 5.037892 0.838525
vt 4.817892 0.838525
vt 5.950323 0.578525
vt 6.170323 0.578525
vt 6.170323 0.578525
vt 5.950323 0.578525
vt 5.950323 0.838525
vt 6.170323 0.838525
vt 6.170323 0.838525
vt 5.950323 0.838525
vt 9.249535 -0.230000
vt 9.559535 -0.230000
vt 9.559535 -0.230000
vt 9.249535 -0.230000
vt 9.249535 0.420000
vt 9.559535 0.420000
vt 9.559535 0.420000
vt 9.249535 0.420000
vt 8.756524 0.589984
vt 8.976524 0.589984
vt 8.976524 0.589984
vt 8.756524 0.589984
vt 8.756524 0.849984
vt 8.976524 0.849984
vt 8.976524 0.849984
vt 8.756524 0.849984
vt 9.832546 0.589984
vt 10.052546 0.589984
vt 10.052546 0.589984
vt 9.832546 0.589984
vt 9.832546 0.849984
vt 10.052546 0.849984
vt 10.052546 0.849984
vt 9.832546 0.849984
vt 13.147723 -0.230000
vt 13.457723 -0.230000
vt 13.457723 -0.230000
vt 13.147723 -0.230000
vt 13.147723 0.420000
vt 13.457723 0.420000
vt 13.457723 0.420000
vt 13.147723 0.420000
vt 12.645241 0.480648
vt 12.865241 0.480648
vt 12.865241 0.480648
vt 12.645241 0.480648
vt 12.645241 0.740648
vt 12.865241 0.740648
vt 12.865241 0.740648
vt 12.645241 0.740648
vt 13.740205 0.480648
vt 13.960205 0.480648
vt 13.960205 0.480648
vt 13.740205 0.480648
vt 13.740205 0.740648
vt 13.960205 0.740648
vt 13.960205 0.740648
vt 13.740205 0.740648
vt 17.256790 -0.230000
vt 17.566790 -0.230000
vt 17.566790 -0.230000
vt 17.256790 -0.230000
vt 17.256790 0.420000
vt 17.566790 0.420000
vt 17.566790 0.420000
vt 17.256790 0.420000
vt 16.740203 0.624857
vt 16.960203 0.624857
vt 16.960203 0.624857
vt 16.740203 0.624857
vt 16.740203 0.884857
vt 16.960203 0.884857
vt 16.960203 0.884857
vt 16.740203 0.884857
vt 17.863377 0.624857
vt 18.083377 0.624857
vt 18.083377 0.624857
vt 17.863377 0.624857
vt 17.863377 0.884857
vt 18.083377 0.884857
vt 18.083377 0.884857
vt 17.863377 0.884857
vt 20.970472 -0.230000
vt 21.280472 -0.230000
vt 21.280472 -0.230000
vt 20.970472 -0.230000
vt 20.970472 0.420000
vt 21.280472 0.420000
vt 21.280472 0.420000
vt 20.970472 0.420000
vt 20.424364 0.577969
vt 20.644364 0.577969
vt 20.644364 0.577969
vt 20.424364 0.577969
vt 20.424364 0.837969
vt 20.644364 0.837969
vt 20.644364 0.837969
vt 20.424364 0.837969
vt 21.606580 0.577969
vt 21.826580 0.577969
vt 21.826580 0.577969
vt 21.606580 0.577969
vt 21.606580 0.837969
vt 21.826580 0.837969
vt 21.826580 0.837969
vt 21.606580 0.837969
vt 24.800804 -0.230000
vt 25.110804 -0.230000
vt 25.110804 -0.230000
vt 24.800804 -0.230000
vt 24.800804 0.420000
vt 25.110804 0.420000
vt 25.110804 0.420000
vt 24.800804 0.420000
vt 24.305594 0.616731
vt 24.525594 0.616731
vt 24.525594 0.616731
vt 24.305594 0.616731
vt 24.305594 0.876731
vt 24.525594 0.876731
vt 24.525594 0.876731
vt 24.305594 0.876731
vt 25.386014 0.616731
vt 25.606014 0.616731
vt 25.606014 0.616731
vt 25.386014 0.616731
vt 25.386014 0.876731
vt 25.606014 0.876731
vt 25.606014 0.876731
vt 25.386014 0.876731
vt -25.789383 0.620000
vt -25.479383 0.620000
vt -25.479383 0.620000
vt -25.789383 0.620000
vt -25.789383 1.270000
vt -25.479383 1.270000
vt -25.479383 1.270000
vt -25.789383 1.270000
vt -26.325954 1.389995
vt -26.105954 1.389995
vt -26.105954 1.389995
vt -26.325954 1.389995
vt -26.325954 1.649995
vt -26.105954 1.649995
vt -26.105954 1.649995
vt -26.325954 1.649995
vt -25.162812 1.389995
vt -24.942812 1.389995
vt -24.942812 1.389995
vt -25.162812 1.389995
vt -25.162812 1.649995
vt -24.942812 1.649995
vt -24.942812 1.649995
vt -25.162812 1.649995
vt -21.924809 0.620000
vt -21.614809 0.620000
vt -21.614809 0.620000
vt -21.924809 0.620000
vt -21.924809 1.270000
vt -21.614809 1.270000
vt -21.614809 1.270000
vt -21.924809 1.270000
vt -22.429861 1.401509
vt -22.209861 1.401509
vt -22.209861 1.401509
vt -22.429861 1.401509
vt -22.429861 1.661509
vt -22.209861 1.661509
vt -22.209861 1.661509
vt -22.429861 1.661509
vt -21.329757 1.401509
vt -21.109757 1.401509
vt -21.109757 1.401509
vt -21.329757 1.401509
vt -21.329757 1.661509
vt -21.109757 1.661509
vt -21.109757 1.661509
vt -21.329757 1.661509
vt -18.090035 0.620000
vt -17.780035 0.620000
vt -17.780035 0.620000
vt -18.090035 0.620000
vt -18.090035 1.270000
vt -17.780035 1.270000
vt -17.780035 1.270000
vt -18.090035 1.270000
vt -18.616161 1.281809
vt -18.396161 1.281809
vt -18.396161 1.281809
vt -18.616161 1.281809
vt -18.616161 1.541809
vt -18.396161 1.541809
vt -18.396161 1.541809
vt -18.616161 1.541809
vt -17.473909 1.281809
vt -17.253909 1.281809
vt -17.253909 1.281809
vt -17.473909 1.281809
vt -17.473909 1.541809
vt -17.253909 1.541809
vt -17.253909 1.541809
vt -17.473909 1.541809
vt -14.226751 0.620000
vt -13.916751 0.620000
vt -13.916751 0.620000
vt -14.226751 0.620000
vt -14.226751 1.270000
vt -13.916751 1.270000
vt -13.916751 1.270000
vt -14.226751 1.270000
vt -14.743542 1.248227
vt -14.523542 1.248227
vt -14.523542 1.248227
vt -14.743542 1.248227
vt -14.743542 1.508227
vt -14.523542 1.508227
vt -14.523542 1.508227
vt -14.743542 1.508227
vt -13.619960 1.248227
vt -13.399960 1.248227
vt -13.399960 1.248227
vt -13.619960 1.248227
vt -13.619960 1.508227
vt -13.399960 1.508227
vt -13.399960 1.508227
vt -13.619960 1.508227
vt -10.051181 0.620000
vt -9.741181 0.620000
vt -9.741181 0.620000
vt -10.051181 0.620000
vt -10.051181 1.270000
vt -9.741181 1.270000
vt -9.741181 1.270000
vt -10.051181 1.270000
vt -10.493438 1.334044
vt -10.273438 1.334044
vt -10.273438 1.334044
vt -10.493438 1.334044
vt -10.493438 1.594044
vt -10.273438 1.594044
vt -10.273438 1.594044
vt -10.493438 1.594044
vt -9.518924 1.334044
vt -9.298924 1.334044
vt -9.298924 1.334044
vt -9.518924 1.334044
vt -9.518924 1.594044
vt -9.298924 1.594044
vt -9.298924 1.594044
vt -9.518924 1.594044
vt -6.281123 0.620000
vt -5.971123 0.620000
vt -5.971123 0.620000
vt -6.281123 0.620000
vt -6.281123 1.270000
vt -5.971123 1.270000
vt -5.971123 1.270000
vt -6.281123 1.270000
vt -6.811721 1.510068
vt -6.591721 1.510068
vt -6.591721 1.510068
vt -6.811721 1.510068
vt -6.811721 1.770068
vt -6.591721 1.770068
vt -6.591721 1.770068
vt -6.811721 1.770068
vt -5.660525 1.510068
vt -5.440525 1.510068
vt -5.440525 1.510068
vt -5.660525 1.510068
vt -5.660525 1.770068
vt -5.440525 1.770068
vt -5.440525 1.770068
vt -5.660525 1.770068
vt -2.370193 0.620000
vt -2.060193 0.620000
vt -2.060193 0.620000
vt -2.370193 0.620000
vt -2.370193 1.270000
vt -2.060193 1.270000
vt -2.060193 1.270000
vt -2.370193 1.270000
vt -2.878401 1.331291
vt -2.658401 1.331291
vt -2.658401 1.331291
vt -2.878401 1.331291
vt -2.878401 1.591291
vt -2.658401 1.591291
vt -2.658401 1.591291
vt -2.878401 1.591291
vt -1.771986 1.331291
vt -1.551986 1.331291
vt -1.551986 1.331291
vt -1.771986 1.331291
vt -1.771986 1.591291
vt -1.551986 1.591291
vt -1.551986 1.591291
vt -1.771986 1.591291
vt 1.334305 0.620000
vt 1.644305 0.620000
vt 1.644305 0.620000
vt 1.334305 0.620000
vt 1.334305 1.270000
vt 1.644305 1.270000
vt 1.644305 1.270000
vt 1.334305 1.270000
vt 0.853514 1.415178
vt 1.073514 1.415178
vt 1.073514 1.415178
vt 0.853514 1.415178
vt 0.853514 1.675178
vt 1.073514 1.675178
vt 1.073514 1.675178
vt 0.853514 1.675178
vt 1.905095 1.415178
vt 2.125095 1.415178
vt 2.125095 1.415178
vt 1.905095 1.415178
vt 1.905095 1.675178
vt 2.125095 1.675178
vt 2.125095 1.675178
vt 1.905095 1.675178
vt 5.281549 0.620000
vt 5.591549 0.620000
vt 5.591549 0.620000
vt 5.281549 0.620000
vt 5.281549 1.270000
vt 5.591549 1.270000
vt 5.591549 1.270000
vt 5.281549 1.270000
vt 4.757776 1.482190
vt 4.977776 1.482190
vt 4.977776 1.482190
vt 4.757776 1.482190
vt 4.757776 1.742190
vt 4.977776 1.742190
vt 4.977776 1.742190
vt 4.757776 1.742190
vt 5.895323 1.482190
vt 6.115323 1.482190
vt 6.115323 1.482190
vt 5.895323 1.482190
vt 5.895323 1.742190
vt 6.115323 1.742190
vt 6.115323 1.742190
vt 5.895323 1.742190
vt 9.269460 0.620000
vt 9.579460 0.620000
vt 9.579460 0.620000
vt 9.269460 0.620000
vt 9.269460 1.270000
vt 9.579460 1.270000
vt 9.579460 1.270000
vt 9.269460 1.270000
vt 8.758509 1.396922
vt 8.978509 1.396922
vt 8.978509 1.396922
vt 8.758509 1.396922
vt 8.758509 1.656922
vt 8.978509 1.656922
vt 8.978509 1.656922
vt 8.758509 1.656922
vt 9.870411 1.396922
vt 10.090411 1.396922
vt 10.090411 1.396922
vt 9.870411 1.396922
vt 9.870411 1.656922
vt 10.090411 1.656922
vt 10.090411 1.656922
vt 9.870411 1.656922
vt 13.248065 0.620000
vt 13.558065 0.620000
vt 13.558065 0.620000
vt 13.248065 0.620000
vt 13.248065 1.270000
vt 13.558065 1.270000
vt 13.558065 1.270000
vt 13.248065 1.270000
vt 12.802490 1.182954
vt 13.022490 1.182954
vt 13.022490 1.182954
vt 12.802490 1.182954
vt 12.802490 1.442954
vt 13.022490 1.442954
vt 13.022490 1.442954
vt 12.802490 1.442954
vt 13.783641 1.182954
vt 14.003641 1.182954
vt 14.003641 1.182954
vt 13.783641 1.182954
vt 13.783641 1.442954
vt 14.003641 1.442954
vt 14.003641 1.442954
vt 13.783641 1.442954
vt 17.030462 0.620000
vt 17.340462 0.620000
vt 17.340462 0.620000
vt 17.030462 0.620000
vt 17.030462 1.270000
vt 17.340462 1.270000
vt 17.340462 1.270000
vt 17.030462 1.270000
vt 16.504342 1.536770
vt 16.724342 1.536770
vt 16.724342 1.536770
vt 16.504342 1.536770
vt 16.504342 1.796770
vt 16.724342 1.796770
vt 16.724342 1.796770
vt 16.504342 1.796770
vt 17.646581 1.536770
vt 17.866581 1.536770
vt 17.866581 1.536770
vt 17.646581 1.536770
vt 17.646581 1.796770
vt 17.866581 1.796770
vt 17.866581 1.796770
vt 17.646581 1.796770
vt 20.856983 0.620000
vt 21.166983 0.620000
vt 21.166983 0.620000
vt 20.856983 0.620000
vt 20.856983 1.270000
vt 21.166983 1.270000
vt 21.166983 1.270000
vt 20.856983 1.270000
vt 20.317566 1.345154
vt 20.537566 1.345154
vt 20.537566 1.345154
vt 20.317566 1.345154
vt 20.317566 1.605154
vt 20.537566 1.605154
vt 20.537566 1.605154
vt 20.317566 1.605154
vt 21.486401 1.345154
vt 21.706401 1.345154
vt 21.706401 1.345154
vt 21.486401 1.345154
vt 21.486401 1.605154
vt 21.706401 1.605154
vt 21.706401 1.605154
vt 21.486401 1.605154
vt 24.847503 0.620000
vt 25.157503 0.620000
vt 25.157503 0.620000
vt 24.847503 0.620000
vt 24.847503 1.270000
vt 25.157503 1.270000
vt 25.157503 1.270000
vt 24.847503 1.270000
vt 24.332331 1.217422
vt 24.552331 1.217422
vt 24.552331 1.217422
vt 24.332331 1.217422
vt 24.332331 1.477422
vt 24.552331 1.477422
vt 24.552331 1.477422
vt 24.332331 1.477422
vt 25.452674 1.217422
vt 25.672674 1.217422
vt 25.672674 1.217422
vt 25.452674 1.217422
vt 25.452674 1.477422
vt 25.672674 1.477422
vt 25.672674 1.477422
vt 25.452674 1.477422
vt -21.992747 1.470000
vt -21.682747 1.470000
vt -21.682747 1.470000
vt -21.992747 1.470000
vt -21.992747 2.120000
vt -21.682747 2.120000
vt -21.682747 2.120000
vt -21.992747 2.120000
vt -22.528309 2.201772
vt -22.308309 2.201772
vt -22.308309 2.201772
vt -22.528309 2.201772
vt -22.528309 2.461772
vt -22.308309 2.461772
vt -22.308309 2.461772
vt -22.528309 2.461772
vt -21.367184 2.201772
vt -21.147184 2.201772
vt -21.147184 2.201772
vt -21.367184 2.201772
vt -21.367184 2.461772
vt -21.147184 2.461772
vt -21.147184 2.461772
vt -21.367184 2.461772
vt -17.977315 1.470000
vt -17.667315 1.470000
vt -17.667315 1.470000
vt -17.977315 1.470000
vt -17.977315 2.120000
vt -17.667315 2.120000
vt -17.667315 2.120000
vt -17.977315 2.120000
vt -18.527415 2.062035
vt -18.307415 2.062035
vt -18.307415 2.062035
vt -18.527415 2.062035
vt -18.527415 2.322035
vt -18.307415 2.322035
vt -18.307415 2.322035
vt -18.527415 2.322035
vt -17.337214 2.062035
vt -17.117214 2.062035
vt -17.117214 2.062035
vt -17.337214 2.062035
vt -17.337214 2.322035
vt -17.117214 2.322035
vt -17.117214 2.322035
vt -17.337214 2.322035
vt -14.007896 1.470000
vt -13.697896 1.470000
vt -13.697896 1.470000
vt -14.007896 1.470000
vt -14.007896 2.120000
vt -13.697896 2.120000
vt -13.697896 2.120000
vt -14.007896 2.120000
vt -14.542632 2.149926
vt -14.322632 2.149926
vt -14.322632 2.149926
vt -14.542632 2.149926
vt -14.542632 2.409926
vt -14.322632 2.409926
vt -14.322632 2.409926
vt -14.542632 2.409926
vt -13.383159 2.149926
vt -13.163159 2.149926
vt -13.163159 2.149926
vt -13.383159 2.149926
vt -13.383159 2.409926
vt -13.163159 2.409926
vt -13.163159 2.409926
vt -13.383159 2.409926
vt -10.182252 1.470000
vt -9.872252 1.470000
vt -9.872252 1.470000
vt -10.182252 1.470000
vt -10.182252 2.120000
vt -9.872252 2.120000
vt -9.872252 2.120000
vt -10.182252 2.120000
vt -10.716126 2.124329
vt -10.496126 2.124329
vt -10.496126 2.124329
vt -10.716126 2.124329
vt -10.716126 2.384329
vt -10.496126 2.384329
vt -10.496126 2.384329
vt -10.716126 2.384329
vt -9.558378 2.124329
vt -9.338378 2.124329
vt -9.338378 2.124329
vt -9.558378 2.124329
vt -9.558378 2.384329
vt -9.338378 2.384329
vt -9.338378 2.384329
vt -9.558378 2.384329
vt -6.101918 1.470000
vt -5.791918 1.470000
vt -5.791918 1.470000
vt -6.101918 1.470000
vt -6.101918 2.120000
vt -5.791918 2.120000
vt -5.791918 2.120000
vt -6.101918 2.120000
vt -6.554169 2.032757
vt -6.334169 2.032757
vt -6.334169 2.032757
vt -6.554169 2.032757
vt -6.554169 2.292757
vt -6.334169 2.292757
vt -6.334169 2.292757
vt -6.554169 2.292757
vt -5.559667 2.032757
vt -5.339667 2.032757
vt -5.339667 2.032757
vt -5.559667 2.032757
vt -5.559667 2.292757
vt -5.339667 2.292757
vt -5.339667 2.292757
vt -5.559667 2.292757
vt -2.444595 1.470000
vt -2.134595 1.470000
vt -2.134595 1.470000
vt -2.444595 1.470000
vt -2.444595 2.120000
vt -2.134595 2.120000
vt -2.134595 2.120000
vt -2.444595 2.120000
vt -2.953930 2.092049
vt -2.733930 2.092049
vt -2.733930 2.092049
vt -2.953930 2.092049
vt -2.953930 2.352049
vt -2.733930 2.352049
vt -2.733930 2.352049
vt -2.953930 2.352049
vt -1.845260 2.092049
vt -1.625260 2.092049
vt -1.625260 2.092049
vt -1.845260 2.092049
vt -1.845260 2.352049
vt -1.625260 2.352049
vt -1.625260 2.352049
vt -1.845260 2.352049
vt 1.750985 1.470000
vt 2.060985 1.470000
vt 2.060985 1.470000
vt 1.750985 1.470000
vt 1.750985 2.120000
vt 2.060985 2.120000
vt 2.060985 2.120000
vt 1.750985 2.120000
vt 1.273064 2.248363
vt 1.493064 2.248363
vt 1.493064 2.248363
vt 1.273064 2.248363
vt 1.273064 2.508363
vt 1.493064 2.508363
vt 1.493064 2.508363
vt 1.273064 2.508363
vt 2.318907 2.248363
vt 2.538907 2.248363
vt 2.538907 2.248363
vt 2.318907 2.248363
vt 2.318907 2.508363
vt 2.538907 2.508363
vt 2.538907 2.508363
vt 2.318907 2.508363
vt 5.374842 1.470000
vt 5.684842 1.470000
vt 5.684842 1.470000
vt 5.374842 1.470000
vt 5.374842 2.120000
vt 5.684842 2.120000
vt 5.684842 2.120000
vt 5.374842 2.120000
vt 4.915266 2.019719
vt 5.135266 2.019719
vt 5.135266 2.019719
vt 4.915266 2.019719
vt 4.915266 2.279719
vt 5.135266 2.279719
vt 5.135266 2.279719
vt 4.915266 2.279719
vt 5.924418 2.019719
vt 6.144418 2.019719
vt 6.144418 2.019719
vt 5.924418 2.019719
vt 5.924418 2.279719
vt 6.144418 2.279719
vt 6.144418 2.279719
vt 5.924418 2.279719
vt 9.150203 1.470000
vt 9.460203 1.470000
vt 9.460203 1.470000
vt 9.150203 1.470000
vt 9.150203 2.120000
vt 9.460203 2.120000
vt 9.460203 2.120000
vt 9.150203 2.120000
vt 8.653202 2.120819
vt 8.873202 2.120819
vt 8.873202 2.120819
vt 8.653202 2.120819
vt 8.653202 2.380819
vt 8.873202 2.380819
vt 8.873202 2.380819
vt 8.653202 2.380819
vt 9.737204 2.120819
vt 9.957204 2.120819
vt 9.957204 2.120819
vt 9.737204 2.120819
vt 9.737204 2.380819
vt 9.957204 2.380819
vt 9.957204 2.380819
vt 9.737204 2.380819
vt 13.137733 1.470000
vt 13.447733 1.470000
vt 13.447733 1.470000
vt 13.137733 1.470000
vt 13.137733 2.120000
vt 13.447733 2.120000
vt 13.447733 2.120000
vt 13.137733 2.120000
vt 12.648531 2.022100
vt 12.868531 2.022100
vt 12.868531 2.022100
vt 12.648531 2.022100
vt 12.648531 2.282100
vt 12.868531 2.282100
vt 12.868531 2.282100
vt 12.648531 2.282100
vt 13.716935 2.022100
vt 13.936935 2.022100
vt 13.936935 2.022100
vt 13.716935 2.022100
vt 13.716935 2.282100
vt 13.936935 2.282100
vt 13.936935 2.282100
vt 13.716935 2.282100
vt 17.200347 1.470000
vt 17.510347 1.470000
vt 17.510347 1.470000
vt 17.200347 1.470000
vt 17.200347 2.120000
vt 17.510347 2.120000
vt 17.510347 2.120000
vt 17.200347 2.120000
vt 16.681337 2.139829
vt 16.901337 2.139829
vt 16.901337 2.139829
vt 16.681337 2.139829
vt 16.681337 2.399829
vt 16.901337 2.399829
vt 16.901337 2.399829
vt 16.681337 2.399829
vt 17.809356 2.139829
vt 18.029356 2.139829
vt 18.029356 2.139829
vt 17.809356 2.139829
vt 17.809356 2.399829
vt 18.029356 2.399829
vt 18.029356 2.399829
vt 17.809356 2.399829
vt 21.248455 1.470000
vt 21.558455 1.470000
vt 21.558455 1.470000
vt 21.248455 1.470000
vt 21.248455 2.120000
vt 21.558455 2.120000
vt 21.558455 2.120000
vt 21.248455 2.120000
vt 20.782649 2.343210
vt 21.002649 2.343210
vt 21.002649 2.343210
vt 20.782649 2.343210
vt 20.782649 2.603210
vt 21.002649 2.603210
vt 21.002649 2.603210
vt 20.782649 2.603210
vt 21.804260 2.343210
vt 22.024260 2.343210
vt 22.024260 2.343210
vt 21.804260 2.343210
vt 21.804260 2.603210
vt 22.024260 2.603210
vt 22.024260 2.603210
vt 21.804260 2.603210
vt -29.615000 0.025000
vt -29.185000 0.025000
vt -29.185000 0.025000
vt -29.615000 0.025000
vt -29.615000 1.575000
vt -29.185000 1.575000
vt -29.185000 1.575000
vt -29.615000 1.575000
vt 29.185000 0.025000
vt 29.615000 0.025000
vt 29.615000 0.025000
vt 29.185000 0.025000
vt 29.185000 1.575000
vt 29.615000 1.575000
vt 29.615000 1.575000
vt 29.185000 1.575000
f 4/4 3/3 2/2
f 4/4 2/2 1/1
f 5/5 6/6 7/7
f 5/5 7/7 8/8
f 1/1 2/2 6/6
f 1/1 6/6 5/5
f 2/2 3/3 7/7
f 2/2 7/7 6/6
f 3/3 4/4 8/8
f 3/3 8/8 7/7
f 4/4 1/1 5/5
f 4/4 5/5 8/8
f 12/12 11/11 10/10
f 12/12 10/10 9/9
f 13/13 14/14 15/15
f 13/13 15/15 16/16
f 9/9 10/10 14/14
f 9/9 14/14 13/13
f 10/10 11/11 15/15
f 10/10 15/15 14/14
f 11/11 12/12 16/16
f 11/11 16/16 15/15
f 12/12 9/9 13/13
f 12/12 13/13 16/16
f 20/20 19/19 18/18
f 20/20 18/18 17/17
f 21/21 22/22 23/23
f 21/21 23/23 24/24
f 17/17 18/18 22/22
f 17/17 22/22 21/21
f 18/18 19/19 23/23
f 18/18 23/23 22/22
f 19/19 20/20 24/24
f 19/19 24/24 23/23
f 20/20 17/17 21/21
f 20/20 21/21 24/24
f 28/28 27/27 26/26
f 28/28 26/26 25/25
f 29/29 30/30 31/31
f 29/29 31/31 32/32
f 25/25 26/26 30/30
f 25/25 30/30 29/29
f 26/26 27/27 31/31
f 26/26 31/31 30/30
f 27/27 28/28 32/32
f 27/27 32/32 31/31
f 28/28 25/25 29/29
f 28/28 29/29 32/32
f 36/36 35/35 34/34
f 36/36 34/34 33/33
f 37/37 38/38 39/39
f 37/37 39/39 40/40
f 33/33 34/34 38/38
f 33/33 38/38 37/37
f 34/34 35/35 39/39
f 34/34 39/39 38/38
f 35/35 36/36 40/40
f 35/35 40/40 39/39
f 36/36 33/33 37/37
f 36/36 37/37 40/40
f 44/44 43/43 42/42
f 44/44 42/42 41/41
f 45/45 46/46 47/47
f 45/45 47/47 48/48
f 41/41 42/42 46/46
f 41/41 46/46 45/45
f 42/42 43/43 47/47
f 42/42 47/47 46/46
f 43/43 44/44 48/48
f 43/43 48/48 47/47
f 44/44 41/41 45/45
f 44/44 45/45 48/48
f 52/52 51/51 50/50
f 52/52 50/50 49/49
f 53/53 54/54 55/55
f 53/53 55/55 56/56
f 49/49 50/50 54/54
f 49/49 54/54 53/53
f 50/50 51/51 55/55
f 50/50 55/55 54/54
f 51/51 52/52 56/56
f 51/51 56/56 55/55
f 52/52 49/49 53/53
f 52/52 53/53 56/56
f 60/60 59/59 58/58
f 60/60 58/58 57/57
f 61/61 62/62 63/63
f 61/61 63/63 64/64
f 57/57 58/58 62/62
f 57/57 62/62 61/61
f 58/58 59/59 63/63
f 58/58 63/63 62/62
f 59/59 60/60 64/64
f 59/59 64/64 63/63
f 60/60 57/57 61/61
f 60/60 61/61 64/64
f 68/68 67/67 66/66
f 68/68 66/66 65/65
f 69/69 70/70 71/71
f 69/69 71/71 72/72
f 65/65 66/66 70/70
f 65/65 70/70 69/69
f 66/66 67/67 71/71
f 66/66 71/71 70/70
f 67/67 68/68 72/72
f 67/67 72/72 71/71
f 68/68 65/65 69/69
f 68/68 69/69 72/72
f 76/76 75/75 74/74
f 76/76 74/74 73/73
f 77/77 78/78 79/79
f 77/77 79/79 80/80
f 73/73 74/74 78/78
f 73/73 78/78 77/77
f 74/74 75/75 79/79
f 74/74 79/79 78/78
f 75/75 76/76 80/80
f 75/75 80/80 79/79
f 76/76 73/73 77/77
f 76/76 77/77 80/80
f 84/84 83/83 82/82
f 84/84 82/82 81/81
f 85/85 86/86 87/87
f 85/85 87/87 88/88
f 81/81 82/82 86/86
f 81/81 86/86 85/85
f 82/82 83/83 87/87
f 82/82 87/87 86/86
f 83/83 84/84 88/88
f 83/83 88/88 87/87
f 84/84 81/81 85/85
f 84/84 85/85 88/88
f 92/92 91/91 90/90
f 92/92 90/90 89/89
f 93/93 94/94 95/95
f 93/93 95/95 96/96
f 89/89 90/90 94/94
f 89/89 94/94 93/93
f 90/90 91/91 95/95
f 90/90 95/95 94/94
f 91/91 92/92 96/96
f 91/91 96/96 95/95
f 92/92 89/89 93/93
f 92/92 93/93 96/96
f 100/100 99/99 98/98
f 100/100 98/98 97/97
f 101/101 102/102 103/103
f 101/101 103/103 104/104
f 97/97 98/98 102/102
f 97/97 102/102 101/101
f 98/98 99/99 103/103
f 98/98 103/103 102/102
f 99/99 100/100 104/104
f 99/99 104/104 103/103
f 100/100 97/97 101/101
f 100/100 101/101 104/104
f 108/108 107/107 106/106
f 108/108 106/106 105/105
f 109/109 110/110 111/111
f 109/109 111/111 112/112
f 105/105 106/106 110/110
f 105/105 110/110 109/109
f 106/106 107/107 111/111
f 106/106 111/111 110/110
f 107/107 108/108 112/112
f 107/107 112/112 111/111
f 108/108 105/105 109/109
f 108/108 109/109 112/112
f 116/116 115/115 114/114
f 116/116 114/114 113/113
f 117/117 118/118 119/119
f 117/117 119/119 120/120
f 113/113 114/114 118/118
f 113/113 118/118 117/117
f 114/114 115/115 119/119
f 114/114 119/119 118/118
f 115/115 116/116 120/120
f 115/115 120/120 119/119
f 116/116 113/113 117/117
f 116/116 117/117 120/120
f 124/124 123/123 122/122
f 124/124 122/122 121/121
f 125/125 126/126 127/127
f 125/125 127/127 128/128
f 121/121 122/122 126/126
f 121/121 126/126 125/125
f 122/122 123/123 127/127
f 122/122 127/127 126/126
f 123/123 124/124 128/128
f 123/123 128/128 127/127
f 124/124 121/121 125/125
f 124/124 125/125 128/128
f 132/132 131/131 130/130
f 132/132 130/130 129/129
f 133/133 134/134 135/135
f 133/133 135/135 136/136
f 129/129 130/130 134/134
f 129/129 134/134 133/133
f 130/130 131/131 135/135
f 130/130 135/135 134/134
f 131/131 132/132 136/136
f 131/131 136/136 135/135
f 132/132 129/129 133/133
f 132/132 133/133 136/136
f 140/140 139/139 138/138
f 140/140 138/138 137/137
f 141/141 142/142 143/143
f 141/141 143/143 144/144
f 137/137 138/138 142/142
f 137/137 142/142 141/141
f 138/138 139/139 143/143
f 138/138 143/143 142/142
f 139/139 140/140 144/144
f 139/139 144/144 143/143
f 140/140 137/137 141/141
f 140/140 141/141 144/144
f 148/148 147/147 146/146
f 148/148 146/146 145/145
f 149/149 150/150 151/151
f 149/149 151/151 152/152
f 145/145 146/146 150/150
f 145/145 150/150 149/149
f 146/146 147/147 151/151
f 146/146 151/151 150/150
f 147/147 148/148 152/152
f 147/147 152/152 151/151
f 148/148 145/145 149/149
f 148/148 149/149 152/152
f 156/156 155/155 154/154
f 156/156 154/154 153/153
f 157/157 158/158 159/159
f 157/157 159/159 160/160
f 153/153 154/154 158/158
f 153/153 158/158 157/157
f 154/154 155/155 159/159
f 154/154 159/159 158/158
f 155/155 156/156 160/160
f 155/155 160/160 159/159
f 156/156 153/153 157/157
f 156/156 157/157 160/160
f 164/164 163/163 162/162
f 164/164 162/162 161/161
f 165/165 166/166 167/167
f 165/165 167/167 168/168
f 161/161 162/162 166/166
f 161/161 166/166 165/165
f 162/162 163/163 167/167
f 162/162 167/167 166/166
f 163/163 164/164 168/168
f 163/163 168/168 167/167
f 164/164 161/161 165/165
f 164/164 165/165 168/168
f 172/172 171/171 170/170
f 172/172 170/170 169/169
f 173/173 174/174 175/175
f 173/173 175/175 176/176
f 169/169 170/170 174/174
f 169/169 174/174 173/173
f 170/170 171/171 175/175
f 170/170 175/175 174/174
f 171/171 172/172 176/176
f 171/171 176/176 175/175
f 172/172 169/169 173/173
f 172/172 173/173 176/176
f 180/180 179/179 178/178
f 180/180 178/178 177/177
f 181/181 182/182 183/183
f 181/181 183/183 184/184
f 177/177 178/178 182/182
f 177/177 182/182 181/181
f 178/178 179/179 183/183
f 178/178 183/183 182/182
f 179/179 180/180 184/184
f 179/179 184/184 183/183
f 180/180 177/177 181/181
f 180/180 181/181 184/184
f 188/188 187/187 186/186
f 188/188 186/186 185/185
f 189/189 190/190 191/191
f 189/189 191/191 192/192
f 185/185 186/186 190/190
f 185/185 190/190 189/189
f 186/186 187/187 191/191
f 186/186 191/191 190/190
f 187/187 188/188 192/192
f 187/187 192/192 191/191
f 188/188 185/185 189/189
f 188/188 189/189 192/192
f 196/196 195/195 194/194
f 196/196 194/194 193/193
f 197/197 198/198 199/199
f 197/197 199/199 200/200
f 193/193 194/194 198/198
f 193/193 198/198 197/197
f 194/194 195/195 199/199
f 194/194 199/199 198/198
f 195/195 196/196 200/200
f 195/195 200/200 199/199
f 196/196 193/193 197/197
f 196/196 197/197 200/200
f 204/204 203/203 202/202
f 204/204 202/202 201/201
f 205/205 206/206 207/207
f 205/205 207/207 208/208
f 201/201 202/202 206/206
f 201/201 206/206 205/205
f 202/202 203/203 207/207
f 202/202 207/207 206/206
f 203/203 204/204 208/208
f 203/203 208/208 207/207
f 204/204 201/201 205/205
f 204/204 205/205 208/208
f 212/212 211/211 210/210
f 212/212 210/210 209/209
f 213/213 214/214 215/215
f 213/213 215/215 216/216
f 209/209 210/210 214/214
f 209/209 214/214 213/213
f 210/210 211/211 215/215
f 210/210 215/215 214/214
f 211/211 212/212 216/216
f 211/211 216/216 215/215
f 212/212 209/209 213/213
f 212/212 213/213 216/216
f 220/220 219/219 218/218
f 220/220 218/218 217/217
f 221/221 222/222 223/223
f 221/221 223/223 224/224
f 217/217 218/218 222/222
f 217/217 222/222 221/221
f 218/218 219/219 223/223
f 218/218 223/223 222/222
f 219/219 220/220 224/224
f 219/219 224/224 223/223
f 220/220 217/217 221/221
f 220/220 221/221 224/224
f 228/228 227/227 226/226
f 228/228 226/226 225/225
f 229/229 230/230 231/231
f 229/229 231/231 232/232
f 225/225 226/226 230/230
f 225/225 230/230 229/229
f 226/226 227/227 231/231
f 226/226 231/231 230/230
f 227/227 228/228 232/232
f 227/227 232/232 231/231
f 228/228 225/225 229/229
f 228/228 229/229 232/232
f 236/236 235/235 234/234
f 236/236 234/234 233/233
f 237/237 238/238 239/239
f 237/237 239/239 240/240
f 233/233 234/234 238/238
f 233/233 238/238 237/237
f 234/234 235/235 239/239
f 234/234 239/239 238/238
f 235/235 236/236 240/240
f 235/235 240/240 239/239
f 236/236 233/233 237/237
f 236/236 237/237 240/240
f 244/244 243/243 242/242
f 244/244 242/242 241/241
f 245/245 246/246 247/247
f 245/245 247/247 248/248
f 241/241 242/242 246/246
f 241/241 246/246 245/245
f 242/242 243/243 247/247
f 242/242 247/247 246/246
f 243/243 244/244 248/248
f 243/243 248/248 247/247
f 244/244 241/241 245/245
f 244/244 245/245 248/248
f 252/252 251/251 250/250
f 252/252 250/250 249/249
f 253/253 254/254 255/255
f 253/253 255/255 256/256
f 249/249 250/250 254/254
f 249/249 254/254 253/253
f 250/250 251/251 255/255
f 250/250 255/255 254/254
f 251/251 252/252 256/256
f 251/251 256/256 255/255
f 252/252 249/249 253/253
f 252/252 253/253 256/256
f 260/260 259/259 258/258
f 260/260 258/258 257/257
f 261/261 262/262 263/263
f 261/261 263/263 264/264
f 257/257 258/258 262/262
f 257/257 262/262 261/261
f 258/258 259/259 263/263
f 258/258 263/263 262/262
f 259/259 260/260 264/264
f 259/259 264/264 263/263
f 260/260 257/257 261/261
f 260/260 261/261 264/264
f 268/268 267/267 266/266
f 268/268 266/266 265/265
f 269/269 270/270 271/271
f 269/269 271/271 272/272
f 265/265 266/266 270/270
f 265/265 270/270 269/269
f 266/266 267/267 271/271
f 266/266 271/271 270/270
f 267/267 268/268 272/272
f 267/267 272/272 271/271
f 268/268 265/265 269/269
f 268/268 269/269 272/272
f 276/276 275/275 274/274
f 276/276 274/274 273/273
f 277/277 278/278 279/279
f 277/277 279/279 280/280
f 273/273 274/274 278/278
f 273/273 278/278 277/277
f 274/274 275/275 279/279
f 274/274 279/279 278/278
f 275/275 276/276 280/280
f 275/275 280/280 279/279
f 276/276 273/273 277/277
f 276/276 277/277 280/280
f 284/284 283/283 282/282
f 284/284 282/282 281/281
f 285/285 286/286 287/287
f 285/285 287/287 288/288
f 281/281 282/282 286/286
f 281/281 286/286 285/285
f 282/282 283/283 287/287
f 282/282 287/287 286/286
f 283/283 284/284 288/288
f 283/283 288/288 287/287
f 284/284 281/281 285/285
f 284/284 285/285 288/288
f 292/292 291/291 290/290
f 292/292 290/290 289/289
f 293/293 294/294 295/295
f 293/293 295/295 296/296
f 289/289 290/290 294/294
f 289/289 294/294 293/293
f 290/290 291/291 295/295
f 290/290 295/295 294/294
f 291/291 292/292 296/296
f 291/291 296/296 295/295
f 292/292 289/289 293/293
f 292/292 293/293 296/296
f 300/300 299/299 298/298
f 300/300 298/298 297/297
f 301/301 302/302 303/303
f 301/301 303/303 304/304
f 297/297 298/298 302/302
f 297/297 302/302 301/301
f 298/298 299/299 303/303
f 298/298 303/303 302/302
f 299/299 300/300 304/304
f 299/299 304/304 303/303
f 300/300 297/297 301/301
f 300/300 301/301 304/304
f 308/308 307/307 306/306
f 308/308 306/306 305/305
f 309/309 310/310 311/311
f 309/309 311/311 312/312
f 305/305 306/306 310/310
f 305/305 310/310 309/309
f 306/306 307/307 311/311
f 306/306 311/311 310/310
f 307/307 308/308 312/312
f 307/307 312/312 311/311
f 308/308 305/305 309/309
f 308/308 309/309 312/312
f 316/316 315/315 314/314
f 316/316 314/314 313/313
f 317/317 318/318 319/319
f 317/317 319/319 320/320
f 313/313 314/314 318/318
f 313/313 318/318 317/317
f 314/314 315/315 319/319
f 314/314 319/319 318/318
f 315/315 316/316 320/320
f 315/315 320/320 319/319
f 316/316 313/313 317/317
f 316/316 317/317 320/320
f 324/324 323/323 322/322
f 324/324 322/322 321/321
f 325/325 326/326 327/327
f 325/325 327/327 328/328
f 321/321 322/322 326/326
f 321/321 326/326 325/325
f 322/322 323/323 327/327
f 322/322 327/327 326/326
f 323/323 324/324 328/328
f 323/323 328/328 327/327
f 324/324 321/321 325/325
f 324/324 325/325 328/328
f 332/332 331/331 330/330
f 332/332 330/330 329/329
f 333/333 334/334 335/335
f 333/333 335/335 336/336
f 329/329 330/330 334/334
f 329/329 334/334 333/333
f 330/330 331/331 335/335
f 330/330 335/335 334/334
f 331/331 332/332 336/336
f 331/331 336/336 335/335
f 332/332 329/329 333/333
f 332/332 333/333 336/336
f 340/340 339/339 338/338
f 340/340 338/338 337/337
f 341/341 342/342 343/343
f 341/341 343/343 344/344
f 337/337 338/338 342/342
f 337/337 342/342 341/341
f 338/338 339/339 343/343
f 338/338 343/343 342/342
f 339/339 340/340 344/344
f 339/339 344/344 343/343
f 340/340 337/337 341/341
f 340/340 341/341 344/344
f 348/348 347/347 346/346
f 348/348 346/346 345/345
f 349/349 350/350 351/351
f 349/349 351/351 352/352
f 345/345 346/346 350/350
f 345/345 350/350 349/349
f 346/346 347/347 351/351
f 346/346 351/351 350/350
f 347/347 348/348 352/352
f 347/347 352/352 351/351
f 348/348 345/345 349/349
f 348/348 349/349 352/352
f 356/356 355/355 354/354
f 356/356 354/354 353/353
f 357/357 358/358 359/359
f 357/357 359/359 360/360
f 353/353 354/354 358/358
f 353/353 358/358 357/357
f 354/354 355/355 359/359
f 354/354 359/359 358/358
f 355/355 356/356 360/360
f 355/355 360/360 359/359
f 356/356 353/353 357/357
f 356/356 357/357 360/360
f 364/364 363/363 362/362
f 364/364 362/362 361/361
f 365/365 366/366 367/367
f 365/365 367/367 368/368
f 361/361 362/362 366/366
f 361/361 366/366 365/365
f 362/362 363/363 367/367
f 362/362 367/367 366/366
f 363/363 364/364 368/368
f 363/363 368/368 367/367
f 364/364 361/361 365/365
f 364/364 365/365 368/368
f 372/372 371/371 370/370
f 372/372 370/370 369/369
f 373/373 374/374 375/375
f 373/373 375/375 376/376
f 369/369 370/370 374/374
f 369/369 374/374 373/373
f 370/370 371/371 375/375
f 370/370 375/375 374/374
f 371/371 372/372 376/376
f 371/371 376/376 375/375
f 372/372 369/369 373/373
f 372/372 373/373 376/376
f 380/380 379/379 378/378
f 380/380 378/378 377/377
f 381/381 382/382 383/383
f 381/381 383/383 384/384
f 377/377 378/378 382/382
f 377/377 382/382 381/381
f 378/378 379/379 383/383
f 378/378 383/383 382/382
f 379/379 380/380 384/384
f 379/379 384/384 383/383
f 380/380 377/377 381/381
f 380/380 381/381 384/384
f 388/388 387/387 386/386
f 388/388 386/386 385/385
f 389/389 390/390 391/391
f 389/389 391/391 392/392
f 385/385 386/386 390/390
f 385/385 390/390 389/389
f 386/386 387/387 391/391
f 386/386 391/391 390/390
f 387/387 388/388 392/392
f 387/387 392/392 391/391
f 388/388 385/385 389/389
f 388/388 389/389 392/392
f 396/396 395/395 394/394
f 396/396 394/394 393/393
f 397/397 398/398 399/399
f 397/397 399/399 400/400
f 393/393 394/394 398/398
f 393/393 398/398 397/397
f 394/394 395/395 399/399
f 394/394 399/399 398/398
f 395/395 396/396 400/400
f 395/395 400/400 399/399
f 396/396 393/393 397/397
f 396/396 397/397 400/400
f 404/404 403/403 402/402
f 404/404 402/402 401/401
f 405/405 406/406 407/407
f 405/405 407/407 408/408
f 401/401 402/402 406/406
f 401/401 406/406 405/405
f 402/402 403/403 407/407
f 402/402 407/407 406/406
f 403/403 404/404 408/408
f 403/403 408/408 407/407
f 404/404 401/401 405/405
f 404/404 405/405 408/408
f 412/412 411/411 410/410
f 412/412 410/410 409/409
f 413/413 414/414 415/415
f 413/413 415/415 416/416
f 409/409 410/410 414/414
f 409/409 414/414 413/413
f 410/410 411/411 415/415
f 410/410 415/415 414/414
f 411/411 412/412 416/416
f 411/411 416/416 415/415
f 412/412 409/409 413/413
f 412/412 413/413 416/416
f 420/420 419/419 418/418
f 420/420 418/418 417/417
f 421/421 422/422 423/423
f 421/421 423/423 424/424
f 417/417 418/418 422/422
f 417/417 422/422 421/421
f 418/418 419/419 423/423
f 418/418 423/423 422/422
f 419/419 420/420 424/424
f 419/419 424/424 423/423
f 420/420 417/417 421/421
f 420/420 421/421 424/424
f 428/428 427/427 426/426
f 428/428 426/426 425/425
f 429/429 430/430 431/431
f 429/429 431/431 432/432
f 425/425 426/426 430/430
f 425/425 430/430 429/429
f 426/426 427/427 431/431
f 426/426 431/431 430/430
f 427/427 428/428 432/432
f 427/427 432/432 431/431
f 428/428 425/425 429/429
f 428/428 429/429 432/432
f 436/436 435/435 434/434
f 436/436 434/434 433/433
f 437/437 438/438 439/439
f 437/437 439/439 440/440
f 433/433 434/434 438/438
f 433/433 438/438 437/437
f 434/434 435/435 439/439
f 434/434 439/439 438/438
f 435/435 436/436 440/440
f 435/435 440/440 439/439
f 436/436 433/433 437/437
f 436/436 437/437 440/440
f 444/444 443/443 442/442
f 444/444 442/442 441/441
f 445/445 446/446 447/447
f 445/445 447/447 448/448
f 441/441 442/442 446/446
f 441/441 446/446 445/445
f 442/442 443/443 447/447
f 442/442 447/447 446/446
f 443/443 444/444 448/448
f 443/443 448/448 447/447
f 444/444 441/441 445/445
f 444/444 445/445 448/448
f 452/452 451/451 450/450
f 452/452 450/450 449/449
f 453/453 454/454 455/455
f 453/453 455/455 456/456
f 449/449 450/450 454/454
f 449/449 454/454 453/453
f 450/450 451/451 455/455
f 450/450 455/455 454/454
f 451/451 452/452 456/456
f 451/451 456/456 455/455
f 452/452 449/449 453/453
f 452/452 453/453 456/456
f 460/460 459/459 458/458
f 460/460 458/458 457/457
f 461/461 462/462 463/463
f 461/461 463/463 464/464
f 457/457 458/458 462/462
f 457/457 462/462 461/461
f 458/458 459/459 463/463
f 458/458 463/463 462/462
f 459/459 460/460 464/464
f 459/459 464/464 463/463
f 460/460 457/457 461/461
f 460/460 461/461 464/464
f 468/468 467/467 466/466
f 468/468 466/466 465/465
f 469/469 470/470 471/471
f 469/469 471/471 472/472
f 465/465 466/466 470/470
f 465/465 470/470 469/469
f 466/466 467/467 471/471
f 466/466 471/471 470/470
f 467/467 468/468 472/472
f 467/467 472/472 471/471
f 468/468 465/465 469/469
f 468/468 469/469 472/472
f 476/476 475/475 474/474
f 476/476 474/474 473/473
f 477/477 478/478 479/479
f 477/477 479/479 480/480
f 473/473 474/474 478/478
f 473/473 478/478 477/477
f 474/474 475/475 479/479
f 474/474 479/479 478/478
f 475/475 476/476 480/480
f 475/475 480/480 479/479
f 476/476 473/473 477/477
f 476/476 477/477 480/480
f 484/484 483/483 482/482
f 484/484 482/482 481/481
f 485/485 486/486 487/487
f 485/485 487/487 488/488
f 481/481 482/482 486/486
f 481/481 486/486 485/485
f 482/482 483/483 487/487
f 482/482 487/487 486/486
f 483/483 484/484 488/488
f 483/483 488/488 487/487
f 484/484 481/481 485/485
f 484/484 485/485 488/488
f 492/492 491/491 490/490
f 492/492 490/490 489/489
f 493/493 494/494 495/495
f 493/493 495/495 496/496
f 489/489 490/490 494/494
f 489/489 494/494 493/493
f 490/490 491/491 495/495
f 490/490 495/495 494/494
f 491/491 492/492 496/496
f 491/491 496/496 495/495
f 492/492 489/489 493/493
f 492/492 493/493 496/496
f 500/500 499/499 498/498
f 500/500 498/498 497/497
f 501/501 502/502 503/503
f 501/501 503/503 504/504
f 497/497 498/498 502/502
f 497/497 502/502 501/501
f 498/498 499/499 503/503
f 498/498 503/503 502/502
f 499/499 500/500 504/504
f 499/499 504/504 503/503
f 500/500 497/497 501/501
f 500/500 501/501 504/504
f 508/508 507/507 506/506
f 508/508 506/506 505/505
f 509/509 510/510 511/511
f 509/509 511/511 512/512
f 505/505 506/506 510/510
f 505/505 510/510 509/509
f 506/506 507/507 511/511
f 506/506 511/511 510/510
f 507/507 508/508 512/512
f 507/507 512/512 511/511
f 508/508 505/505 509/509
f 508/508 509/509 512/512
f 516/516 515/515 514/514
f 516/516 514/514 513/513
f 517/517 518/518 519/519
f 517/517 519/519 520/520
f 513/513 514/514 518/518
f 513/513 518/518 517/517
f 514/514 515/515 519/519
f 514/514 519/519 518/518
f 515/515 516/516 520/520
f 515/515 520/520 519/519
f 516/516 513/513 517/517
f 516/516 517/517 520/520
f 524/524 523/523 522/522
f 524/524 522/522 521/521
f 525/525 526/526 527/527
f 525/525 527/527 528/528
f 521/521 522/522 526/526
f 521/521 526/526 525/525
f 522/522 523/523 527/527
f 522/522 527/527 526/526
f 523/523 524/524 528/528
f 523/523 528/528 527/527
f 524/524 521/521 525/525
f 524/524 525/525 528/528
f 532/532 531/531 530/530
f 532/532 530/530 529/529
f 533/533 534/534 535/535
f 533/533 535/535 536/536
f 529/529 530/530 534/534
f 529/529 534/534 533/533
f 530/530 531/531 535/535
f 530/530 535/535 534/534
f 531/531 532/532 536/536
f 531/531 536/536 535/535
f 532/532 529/529 533/533
f 532/532 533/533 536/536
f 540/540 539/539 538/538
f 540/540 538/538 537/537
f 541/541 542/542 543/543
f 541/541 543/543 544/544
f 537/537 538/538 542/542
f 537/537 542/542 541/541
f 538/538 539/539 543/543
f 538/538 543/543 542/542
f 539/539 540/540 544/544
f 539/539 544/544 543/543
f 540/540 537/537 541/541
f 540/540 541/541 544/544
f 548/548 547/547 546/546
f 548/548 546/546 545/545
f 549/549 550/550 551/551
f 549/549 551/551 552/552
f 545/545 546/546 550/550
f 545/545 550/550 549/549
f 546/546 547/547 551/551
f 546/546 551/551 550/550
f 547/547 548/548 552/552
f 547/547 552/552 551/551
f 548/548 545/545 549/549
f 548/548 549/549 552/552
f 556/556 555/555 554/554
f 556/556 554/554 553/553
f 557/557 558/558 559/559
f 557/557 559/559 560/560
f 553/553 554/554 558/558
f 553/553 558/558 557/557
f 554/554 555/555 559/559
f 554/554 559/559 558/558
f 555/555 556/556 560/560
f 555/555 560/560 559/559
f 556/556 553/553 557/557
f 556/556 557/557 560/560
f 564/564 563/563 562/562
f 564/564 562/562 561/561
f 565/565 566/566 567/567
f 565/565 567/567 568/568
f 561/561 562/562 566/566
f 561/561 566/566 565/565
f 562/562 563/563 567/567
f 562/562 567/567 566/566
f 563/563 564/564 568/568
f 563/563 568/568 567/567
f 564/564 561/561 565/565
f 564/564 565/565 568/568
f 572/572 571/571 570/570
f 572/572 570/570 569/569
f 573/573 574/574 575/575
f 573/573 575/575 576/576
f 569/569 570/570 574/574
f 569/569 574/574 573/573
f 570/570 571/571 575/575
f 570/570 575/575 574/574
f 571/571 572/572 576/576
f 571/571 576/576 575/575
f 572/572 569/569 573/573
f 572/572 573/573 576/576
f 580/580 579/579 578/578
f 580/580 578/578 577/577
f 581/581 582/582 583/583
f 581/581 583/583 584/584
f 577/577 578/578 582/582
f 577/577 582/582 581/581
f 578/578 579/579 583/583
f 578/578 583/583 582/582
f 579/579 580/580 584/584
f 579/579 584/584 583/583
f 580/580 577/577 581/581
f 580/580 581/581 584/584
f 588/588 587/587 586/586
f 588/588 586/586 585/585
f 589/589 590/590 591/591
f 589/589 591/591 592/592
f 585/585 586/586 590/590
f 585/585 590/590 589/589
f 586/586 587/587 591/591
f 586/586 591/591 590/590
f 587/587 588/588 592/592
f 587/587 592/592 591/591
f 588/588 585/585 589/589
f 588/588 589/589 592/592
f 596/596 595/595 594/594
f 596/596 594/594 593/593
f 597/597 598/598 599/599
f 597/597 599/599 600/600
f 593/593 594/594 598/598
f 593/593 598/598 597/597
f 594/594 595/595 599/599
f 594/594 599/599 598/598
f 595/595 596/596 600/600
f 595/595 600/600 599/599
f 596/596 593/593 597/597
f 596/596 597/597 600/600
f 604/604 603/603 602/602
f 604/604 602/602 601/601
f 605/605 606/606 607/607
f 605/605 607/607 608/608
f 601/601 602/602 606/606
f 601/601 606/606 605/605
f 602/602 603/603 607/607
f 602/602 607/607 606/606
f 603/603 604/604 608/608
f 603/603 608/608 607/607
f 604/604 601/601 605/605
f 604/604 605/605 608/608
f 612/612 611/611 610/610
f 612/612 610/610 609/609
f 613/613 614/614 615/615
f 613/613 615/615 616/616
f 609/609 610/610 614/614
f 609/609 614/614 613/613
f 610/610 611/611 615/615
f 610/610 615/615 614/614
f 611/611 612/612 616/616
f 611/611 616/616 615/615
f 612/612 609/609 613/613
f 612/612 613/613 616/616
f 620/620 619/619 618/618
f 620/620 618/618 617/617
f 621/621 622/622 623/623
f 621/621 623/623 624/624
f 617/617 618/618 622/622
f 617/617 622/622 621/621
f 618/618 619/619 623/623
f 618/618 623/623 622/622
f 619/619 620/620 624/624
f 619/619 624/624 623/623
f 620/620 617/617 621/621
f 620/620 621/621 624/624
f 628/628 627/627 626/626
f 628/628 626/626 625/625
f 629/629 630/630 631/631
f 629/629 631/631 632/632
f 625/625 626/626 630/630
f 625/625 630/630 629/629
f 626/626 627/627 631/631
f 626/626 631/631 630/630
f 627/627 628/628 632/632
f 627/627 632/632 631/631
f 628/628 625/625 629/629
f 628/628 629/629 632/632
f 636/636 635/635 634/634
f 636/636 634/634 633/633
f 637/637 638/638 639/639
f 637/637 639/639 640/640
f 633/633 634/634 638/638
f 633/633 638/638 637/637
f 634/634 635/635 639/639
f 634/634 639/639 638/638
f 635/635 636/636 640/640
f 635/635 640/640 639/639
f 636/636 633/633 637/637
f 636/636 637/637 640/640
f 644/644 643/643 642/642
f 644/644 642/642 641/641
f 645/645 646/646 647/647
f 645/645 647/647 648/648
f 641/641 642/642 646/646
f 641/641 646/646 645/645
f 642/642 643/643 647/647
f 642/642 647/647 646/646
f 643/643 644/644 648/648
f 643/643 648/648 647/647
f 644/644 641/641 645/645
f 644/644 645/645 648/648
f 652/652 651/651 650/650
f 652/652 650/650 649/649
f 653/653 654/654 655/655
f 653/653 655/655 656/656
f 649/649 650/650 654/654
f 649/649 654/654 653/653
f 650/650 651/651 655/655
f 650/650 655/655 654/654
f 651/651 652/652 656/656
f 651/651 656/656 655/655
f 652/652 649/649 653/653
f 652/652 653/653 656/656
f 660/660 659/659 658/658
f 660/660 658/658 657/657
f 661/661 662/662 663/663
f 661/661 663/663 664/664
f 657/657 658/658 662/662
f 657/657 662/662 661/661
f 658/658 659/659 663/663
f 658/658 663/663 662/662
f 659/659 660/660 664/664
f 659/659 664/664 663/663
f 660/660 657/657 661/661
f 660/660 661/661 664/664
f 668/668 667/667 666/666
f 668/668 666/666 665/665
f 669/669 670/670 671/671
f 669/669 671/671 672/672
f 665/665 666/666 670/670
f 665/665 670/670 669/669
f 666/666 667/667 671/671
f 666/666 671/671 670/670
f 667/667 668/668 672/672
f 667/667 672/672 671/671
f 668/668 665/665 669/669
f 668/668 669/669 672/672
f 676/676 675/675 674/674
f 676/676 674/674 673/673
f 677/677 678/678 679/679
f 677/677 679/679 680/680
f 673/673 674/674 678/678
f 673/673 678/678 677/677
f 674/674 675/675 679/679
f 674/674 679/679 678/678
f 675/675 676/676 680/680
f 675/675 680/680 679/679
f 676/676 673/673 677/677
f 676/676 677/677 680/680
f 684/684 683/683 682/682
f 684/684 682/682 681/681
f 685/685 686/686 687/687
f 685/685 687/687 688/688
f 681/681 682/682 686/686
f 681/681 686/686 685/685
f 682/682 683/683 687/687
f 682/682 687/687 686/686
f 683/683 684/684 688/688
f 683/683 688/688 687/687
f 684/684 681/681 685/685
f 684/684 685/685 688/688
f 692/692 691/691 690/690
f 692/692 690/690 689/689
f 693/693 694/694 695/695
f 693/693 695/695 696/696
f 689/689 690/690 694/694
f 689/689 694/694 693/693
f 690/690 691/691 695/695
f 690/690 695/695 694/694
f 691/691 692/692 696/696
f 691/691 696/696 695/695
f 692/692 689/689 693/693
f 692/692 693/693 696/696
f 700/700 699/699 698/698
f 700/700 698/698 697/697
f 701/701 702/702 703/703
f 701/701 703/703 704/704
f 697/697 698/698 702/702
f 697/697 702/702 701/701
f 698/698 699/699 703/703
f 698/698 703/703 702/702
f 699/699 700/700 704/704
f 699/699 704/704 703/703
f 700/700 697/697 701/701
f 700/700 701/701 704/704
f 708/708 707/707 706/706
f 708/708 706/706 705/705
f 709/709 710/710 711/711
f 709/709 711/711 712/712
f 705/705 706/706 710/710
f 705/705 710/710 709/709
f 706/706 707/707 711/711
f 706/706 711/711 710/710
f 707/707 708/708 712/712
f 707/707 712/712 711/711
f 708/708 705/705 709/709
f 708/708 709/709 712/712
f 716/716 715/715 714/714
f 716/716 714/714 713/713
f 717/717 718/718 719/719
f 717/717 719/719 720/720
f 713/713 714/714 718/718
f 713/713 718/718 717/717
f 714/714 715/715 719/719
f 714/714 719/719 718/718
f 715/715 716/716 720/720
f 715/715 720/720 719/719
f 716/716 713/713 717/717
f 716/716 717/717 720/720
f 724/724 723/723 722/722
f 724/724 722/722 721/721
f 725/725 726/726 727/727
f 725/725 727/727 728/728
f 721/721 722/722 726/726
f 721/721 726/726 725/725
f 722/722 723/723 727/727
f 722/722 727/727 726/726
f 723/723 724/724 728/728
f 723/723 728/728 727/727
f 724/724 721/721 725/725
f 724/724 725/725 728/728
f 732/732 731/731 730/730
f 732/732 730/730 729/729
f 733/733 734/734 735/735
f 733/733 735/735 736/736
f 729/729 730/730 734/734
f 729/729 734/734 733/733
f 730/730 731/731 735/735
f 730/730 735/735 734/734
f 731/731 732/732 736/736
f 731/731 736/736 735/735
f 732/732 729/729 733/733
f 732/732 733/733 736/736
f 740/740 739/739 738/738
f 740/740 738/738 737/737
f 741/741 742/742 743/743
f 741/741 743/743 744/744
f 737/737 738/738 742/742
f 737/737 742/742 741/741
f 738/738 739/739 743/743
f 738/738 743/743 742/742
f 739/739 740/740 744/744
f 739/739 744/744 743/743
f 740/740 737/737 741/741
f 740/740 741/741 744/744
f 748/748 747/747 746/746
f 748/748 746/746 745/745
f 749/749 750/750 751/751
f 749/749 751/751 752/752
f 745/745 746/746 750/750
f 745/745 750/750 749/749
f 746/746 747/747 751/751
f 746/746 751/751 750/750
f 747/747 748/748 752/752
f 747/747 752/752 751/751
f 748/748 745/745 749/749
f 748/748 749/749 752/752
f 756/756 755/755 754/754
f 756/756 754/754 753/753
f 757/757 758/758 759/759
f 757/757 759/759 760/760
f 753/753 754/754 758/758
f 753/753 758/758 757/757
f 754/754 755/755 759/759
f 754/754 759/759 758/758
f 755/755 756/756 760/760
f 755/755 760/760 759/759
f 756/756 753/753 757/757
f 756/756 757/757 760/760
f 764/764 763/763 762/762
f 764/764 762/762 761/761
f 765/765 766/766 767/767
f 765/765 767/767 768/768
f 761/761 762/762 766/766
f 761/761 766/766 765/765
f 762/762 763/763 767/767
f 762/762 767/767 766/766
f 763/763 764/764 768/768
f 763/763 768/768 767/767
f 764/764 761/761 765/765
f 764/764 765/765 768/768
f 772/772 771/771 770/770
f 772/772 770/770 769/769
f 773/773 774/774 775/775
f 773/773 775/775 776/776
f 769/769 770/770 774/774
f 769/769 774/774 773/773
f 770/770 771/771 775/775
f 770/770 775/775 774/774
f 771/771 772/772 776/776
f 771/771 776/776 775/775
f 772/772 769/769 773/773
f 772/772 773/773 776/776
f 780/780 779/779 778/778
f 780/780 778/778 777/777
f 781/781 782/782 783/783
f 781/781 783/783 784/784
f 777/777 778/778 782/782
f 777/777 782/782 781/781
f 778/778 779/779 783/783
f 778/778 783/783 782/782
f 779/779 780/780 784/784
f 779/779 784/784 783/783
f 780/780 777/777 781/781
f 780/780 781/781 784/784
f 788/788 787/787 786/786
f 788/788 786/786 785/785
f 789/789 790/790 791/791
f 789/789 791/791 792/792
f 785/785 786/786 790/790
f 785/785 790/790 789/789
f 786/786 787/787 791/791
f 786/786 791/791 790/790
f 787/787 788/788 792/792
f 787/787 792/792 791/791
f 788/788 785/785 789/789
f 788/788 789/789 792/792
f 796/796 795/795 794/794
f 796/796 794/794 793/793
f 797/797 798/798 799/799
f 797/797 799/799 800/800
f 793/793 794/794 798/798
f 793/793 798/798 797/797
f 794/794 795/795 799/799
f 794/794 799/799 798/798
f 795/795 796/796 800/800
f 795/795 800/800 799/799
f 796/796 793/793 797/797
f 796/796 797/797 800/800
f 804/804 803/803 802/802
f 804/804 802/802 801/801
f 805/805 806/806 807/807
f 805/805 807/807 808/808
f 801/801 802/802 806/806
f 801/801 806/806 805/805
f 802/802 803/803 807/807
f 802/802 807/807 806/806
f 803/803 804/804 808/808
f 803/803 808/808 807/807
f 804/804 801/801 805/805
f 804/804 805/805 808/808
f 812/812 811/811 810/810
f 812/812 810/810 809/809
f 813/813 814/814 815/815
f 813/813 815/815 816/816
f 809/809 810/810 814/814
f 809/809 814/814 813/813
f 810/810 811/811 815/815
f 810/810 815/815 814/814
f 811/811 812/812 816/816
f 811/811 816/816 815/815
f 812/812 809/809 813/813
f 812/812 813/813 816/816
f 820/820 819/819 818/818
f 820/820 818/818 817/817
f 821/821 822/822 823/823
f 821/821 823/823 824/824
f 817/817 818/818 822/822
f 817/817 822/822 821/821
f 818/818 819/819 823/823
f 818/818 823/823 822/822
f 819/819 820/820 824/824
f 819/819 824/824 823/823
f 820/820 817/817 821/821
f 820/820 821/821 824/824
f 828/828 827/827 826/826
f 828/828 826/826 825/825
f 829/829 830/830 831/831
f 829/829 831/831 832/832
f 825/825 826/826 830/830
f 825/825 830/830 829/829
f 826/826 827/827 831/831
f 826/826 831/831 830/830
f 827/827 828/828 832/832
f 827/827 832/832 831/831
f 828/828 825/825 829/829
f 828/828 829/829 832/832
f 836/836 835/835 834/834
f 836/836 834/834 833/833
f 837/837 838/838 839/839
f 837/837 839/839 840/840
f 833/833 834/834 838/838
f 833/833 838/838 837/837
f 834/834 835/835 839/839
f 834/834 839/839 838/838
f 835/835 836/836 840/840
f 835/835 840/840 839/839
f 836/836 833/833 837/837
f 836/836 837/837 840/840
f 844/844 843/843 842/842
f 844/844 842/842 841/841
f 845/845 846/846 847/847
f 845/845 847/847 848/848
f 841/841 842/842 846/846
f 841/841 846/846 845/845
f 842/842 843/843 847/847
f 842/842 847/847 846/846
f 843/843 844/844 848/848
f 843/843 848/848 847/847
f 844/844 841/841 845/845
f 844/844 845/845 848/848
f 852/852 851/851 850/850
f 852/852 850/850 849/849
f 853/853 854/854 855/855
f 853/853 855/855 856/856
f 849/849 850/850 854/854
f 849/849 854/854 853/853
f 850/850 851/851 855/855
f 850/850 855/855 854/854
f 851/851 852/852 856/856
f 851/851 856/856 855/855
f 852/852 849/849 853/853
f 852/852 853/853 856/856
f 860/860 859/859 858/858
f 860/860 858/858 857/857
f 861/861 862/862 863/863
f 861/861 863/863 864/864
f 857/857 858/858 862/862
f 857/857 862/862 861/861
f 858/858 859/859 863/863
f 858/858 863/863 862/862
f 859/859 860/860 864/864
f 859/859 864/864 863/863
f 860/860 857/857 861/861
f 860/860 861/861 864/864
f 868/868 867/867 866/866
f 868/868 866/866 865/865
f 869/869 870/870 871/871
f 869/869 871/871 872/872
f 865/865 866/866 870/870
f 865/865 870/870 869/869
f 866/866 867/867 871/871
f 866/866 871/871 870/870
f 867/867 868/868 872/872
f 867/867 872/872 871/871
f 868/868 865/865 869/869
f 868/868 869/869 872/872
f 876/876 875/875 874/874
f 876/876 874/874 873/873
f 877/877 878/878 879/879
f 877/877 879/879 880/880
f 873/873 874/874 878/878
f 873/873 878/878 877/877
f 874/874 875/875 879/879
f 874/874 879/879 878/878
f 875/875 876/876 880/880
f 875/875 880/880 879/879
f 876/876 873/873 877/877
f 876/876 877/877 880/880
f 884/884 883/883 882/882
f 884/884 882/882 881/881
f 885/885 886/886 887/887
f 885/885 887/887 888/888
f 881/881 882/882 886/886
f 881/881 886/886 885/885
f 882/882 883/883 887/887
f 882/882 887/887 886/886
f 883/883 884/884 888/888
f 883/883 888/888 887/887
f 884/884 881/881 885/885
f 884/884 885/885 888/888
f 892/892 891/891 890/890
f 892/892 890/890 889/889
f 893/893 894/894 895/895
f 893/893 895/895 896/896
f 889/889 890/890 894/894
f 889/889 894/894 893/893
f 890/890 891/891 895/895
f 890/890 895/895 894/894
f 891/891 892/892 896/896
f 891/891 896/896 895/895
f 892/892 889/889 893/893
f 892/892 893/893 896/896
f 900/900 899/899 898/898
f 900/900 898/898 897/897
f 901/901 902/902 903/903
f 901/901 903/903 904/904
f 897/897 898/898 902/902
f 897/897 902/902 901/901
f 898/898 899/899 903/903
f 898/898 903/903 902/902
f 899/899 900/900 904/904
f 899/899 904/904 903/903
f 900/900 897/897 901/901
f 900/900 901/901 904/904
f 908/908 907/907 906/906
f 908/908 906/906 905/905
f 909/909 910/910 911/911
f 909/909 911/911 912/912
f 905/905 906/906 910/910
f 905/905 910/910 909/909
f 906/906 907/907 911/911
f 906/906 911/911 910/910
f 907/907 908/908 912/912
f 907/907 912/912 911/911
f 908/908 905/905 909/909
f 908/908 909/909 912/912
f 916/916 915/915 914/914
f 916/916 914/914 913/913
f 917/917 918/918 919/919
f 917/917 919/919 920/920
f 913/913 914/914 918/918
f 913/913 918/918 917/917
f 914/914 915/915 919/919
f 914/914 919/919 918/918
f 915/915 916/916 920/920
f 915/915 920/920 919/919
f 916/916 913/913 917/917
f 916/916 917/917 920/920
f 924/924 923/923 922/922
f 924/924 922/922 921/921
f 925/925 926/926 927/927
f 925/925 927/927 928/928
f 921/921 922/922 926/926
f 921/921 926/926 925/925
f 922/922 923/923 927/927
f 922/922 927/927 926/926
f 923/923 924/924 928/928
f 923/923 928/928 927/927
f 924/924 921/921 925/925
f 924/924 925/925 928/928
f 932/932 931/931 930/930
f 932/932 930/930 929/929
f 933/933 934/934 935/935
f 933/933 935/935 936/936
f 929/929 930/930 934/934
f 929/929 934/934 933/933
f 930/930 931/931 935/935
f 930/930 935/935 934/934
f 931/931 932/932 936/936
f 931/931 936/936 935/935
f 932/932 929/929 933/933
f 932/932 933/933 936/936
f 940/940 939/939 938/938
f 940/940 938/938 937/937
f 941/941 942/942 943/943
f 941/941 943/943 944/944
f 937/937 938/938 942/942
f 937/937 942/942 941/941
f 938/938 939/939 943/943
f 938/938 943/943 942/942
f 939/939 940/940 944/944
f 939/939 944/944 943/943
f 940/940 937/937 941/941
f 940/940 941/941 944/944
f 948/948 947/947 946/946
f 948/948 946/946 945/945
f 949/949 950/950 951/951
f 949/949 951/951 952/952
f 945/945 946/946 950/950
f 945/945 950/950 949/949
f 946/946 947/947 951/951
f 946/946 951/951 950/950
f 947/947 948/948 952/952
f 947/947 952/952 951/951
f 948/948 945/945 949/949
f 948/948 949/949 952/952
f 956/956 955/955 954/954
f 956/956 954/954 953/953
f 957/957 958/958 959/959
f 957/957 959/959 960/960
f 953/953 954/954 958/958
f 953/953 958/958 957/957
f 954/954 955/955 959/959
f 954/954 959/959 958/958
f 955/955 956/956 960/960
f 955/955 960/960 959/959
f 956/956 953/953 957/957
f 956/956 957/957 960/960
f 964/964 963/963 962/962
f 964/964 962/962 961/961
f 965/965 966/966 967/967
f 965/965 967/967 968/968
f 961/961 962/962 966/966
f 961/961 966/966 965/965
f 962/962 963/963 967/967
f 962/962 967/967 966/966
f 963/963 964/964 968/968
f 963/963 968/968 967/967
f 964/964 961/961 965/965
f 964/964 965/965 968/968
f 972/972 971/971 970/970
f 972/972 970/970 969/969
f 973/973 974/974 975/975
f 973/973 975/975 976/976
f 969/969 970/970 974/974
f 969/969 974/974 973/973
f 970/970 971/971 975/975
f 970/970 975/975 974/974
f 971/971 972/972 976/976
f 971/971 976/976 975/975
f 972/972 969/969 973/973
f 972/972 973/973 976/976
