# Basketbroom original 3D environment. Centimetres, Z up.
o SM_BB_ENV_RR_AlcoveBed3
s 1
v 41372.99442 707.68689 6708.07411
v 40737.35345 1359.09447 6690.43428
v 40036.70809 1990.49841 6671.00206
v 39439.48909 2596.95544 6650.16258
v 39055.55318 3183.68122 6628.32888
v 38905.59314 3761.35091 6605.93371
v 38921.78716 4339.54508 6583.42093
v 38978.94859 4921.49287 6561.23675
v 38944.79537 5502.59936 6539.82085
v 38731.34732 6073.48219 6519.59770
v 38329.19829 6626.13926 6500.96811
v 37812.56719 7160.33131 6484.30132
v 37313.41320 7686.97269 6469.92767
v 36973.82897 8226.45117 6458.13205
v 36893.55171 8801.91982 6449.14823
v 37091.09673 9429.86185 6443.15427
v 37492.18262 10111.66961 6440.26899
v 37949.53805 10829.94231 6440.54956
v 38287.26561 11551.61291 6443.99041
v 38354.52666 12237.41654 6450.52337
v 38070.31215 12854.60610 6460.01893
v 37444.44236 13388.26181 6472.28891
v 36568.40205 13846.72591 6487.09011
v 35580.11332 14258.66230 6504.12917
v 34615.56545 14662.33004 6523.06838
v 33764.31917 15090.72529 6543.53237
v 33043.96655 15558.09009 6565.11554
v 32401.49813 16053.11858 6587.39012
v 31739.85169 16541.95640 6609.91462
v 30959.16634 16980.52783 6632.24262
v 29997.48830 17332.12096 6653.93157
v 28856.42522 17583.88572 6674.55161
v 27603.07642 17755.88451 6693.69403
v 26348.24431 17898.70788 6710.97946
v 25209.29196 18079.66268 6726.06528
v 24271.10850 18361.74933 6738.65249
v 23558.80013 18782.51724 6748.49163
v 23031.07981 19340.30361 6755.38768
v 22595.72870 19993.05964 6759.20397
v 22140.77022 20670.68330 6759.86484
v 21569.88474 21296.99462 6757.35721
v 20829.79171 21813.93011 6751.73077
v 19920.90415 22199.52921 6743.09705
v 18889.00667 22473.28132 6731.62716
v 17802.54977 22686.76339 6717.54843
v 16724.90070 22902.71754 6701.13990
v 15691.94737 23169.93500 6682.72679
v 14702.65601 23502.98482 6662.67404
v 13724.80141 23874.28953 6641.37910
v 12712.27278 24221.78631 6619.26402
v 11626.30375 24469.88956 6596.76714
v 10452.09410 24556.64433 6574.33434
v 9204.71790 24457.56665 6552.41022
v 7922.81808 24197.60815 6531.42933
v 6653.46311 23846.67912 6511.80750
v 5434.77764 23499.84421 6493.93364
v 4283.37694 23248.67858 6478.16200
v 3191.22259 23153.43309 6464.80518
v 2132.38285 23225.46663 6454.12791
v 1076.07874 23425.90024 6446.34181
v 0.00000 23680.84492 6441.60120
v -1101.88822 23907.81544 6440.00004
v -2220.13654 24044.08524 6441.57006
v -3338.33519 24067.12257 6446.28015
v -4444.98985 24000.08967 6454.03695
v -5542.80111 23900.68057 6464.68672
v -6650.46910 23837.44826 6478.01839
v -7795.43714 23862.15795 6493.76772
v -9000.13531 23988.06282 6511.62256
v -10267.52406 24181.86898 6531.22904
v -11572.62857 24372.30838 6552.19855
v -12864.78903 24472.39678 6574.11548
v -14081.19451 24407.67831 6596.54544
v -15167.52916 24140.71513 6619.04387
v -16098.17435 23683.45717 6641.16485
v -16887.86532 23093.39832 6662.46995
v -17589.41164 22455.05760 6682.53690
v -18277.17934 21853.32583 6700.96798
v -19021.61758 21347.85519 6717.39788
v -19864.00537 20957.06566 6731.50096
v -20801.14884 20656.78206 6742.99771
v -21786.55077 20393.31145 6751.66026
v -22748.62123 20105.78659 6757.31692
v -23619.94652 19749.57543 6759.85557
v -24366.97444 19312.49472 6759.22590
v -25008.60535 18818.39964 6755.44039
v -25615.64876 18317.36358 6748.57407
v -26289.83580 17866.41951 6738.76302
v -27128.70281 17508.02527 6726.20170
v -28188.36074 17253.96654 6711.13908
v -29457.70785 17080.22414 6693.87369
v -30854.25045 16934.27958 6674.74774
v -32244.39138 16751.92193 6654.14029
v -33482.34575 16477.42456 6632.45979
v -34454.88173 16080.06420 6610.13593
v -35116.47623 15561.57265 6587.61119
v -35502.33507 14952.55238 6565.33199
v -35714.20830 14299.83788 6543.73990
v -35883.47359 13649.80941 6523.26289
v -36124.17465 13033.73130 6504.30679
v -36492.58247 12460.02056 6487.24733
v -36967.87472 11915.50241 6472.42261
v -37461.26442 11374.31352 6460.12647
v -37850.83677 10810.44471 6450.60260
v -38030.03109 10208.90903 6444.03978
v -37952.49714 9571.44710 6440.56807
v -37656.91955 8915.07084 6440.25629
v -37262.15401 8264.60812 6443.11061
v -36933.35778 7642.62874 6449.07446
v -36830.09988 7060.89610 6458.02965
v -37054.03817 6516.59210 6469.79867
v -37614.24748 5994.45009 6484.14827
v -38422.41817 5473.50240 6500.79404
v -39319.91630 4935.38527 6519.40606
v -40127.67432 4370.71985 6539.61544
v -40701.94482 3781.11337 6561.02164
v -40976.91336 3176.31900 6583.20039
v -40979.77080 2568.19671 6605.71211
v -40813.48548 1964.44522 6628.11061
v -40613.80466 1365.08197 6649.95196
v -40495.97794 763.34482 6670.80327
v 41144.86283 722.16476 7268.07411
v 40462.33769 1372.42246 7250.43428
v 39680.59631 2002.44243 7231.00206
v 38982.44286 2605.48898 7210.16258
v 38507.16971 3185.78250 7188.32888
v 38310.19627 3754.80069 7165.93371
v 38351.51499 4324.80232 7143.42093
v 38516.46560 4902.64945 7121.23675
v 38661.11930 5486.79831 7099.82085
v 38666.05959 6068.86324 7079.59770
v 38479.57367 6639.05779 7060.96811
v 38135.17094 7192.98193 7044.30132
v 37737.51665 7736.45606 7029.92767
v 37422.05174 8285.76899 7018.13205
v 37302.81628 8862.58350 7009.14823
v 37427.06545 9485.08381 7003.15427
v 37752.77616 10158.78319 7000.26899
v 38157.02655 10870.92990 7000.54956
v 38472.39804 11591.35119 7003.99041
v 38538.83188 12280.20338 7010.52337
v 38253.15993 12900.33579 7020.01893
v 37599.57924 13429.92060 7032.28891
v 36651.18115 13870.52485 7047.09011
v 35542.77994 14247.19861 7064.12917
v 34425.10546 14599.99622 7083.06838
v 33416.50616 14969.61004 7103.53237
v 32568.62031 15382.23372 7125.11554
v 31857.05803 15839.38892 7147.39012
v 31199.05364 16316.90187 7169.91462
v 30490.58982 16773.97334 7192.24262
v 29648.99546 17169.49143 7213.93157
v 28645.66501 17479.80319 7234.55161
v 27517.64146 17711.24492 7253.69403
v 26354.71077 17902.28255 7270.97946
v 25267.44169 18113.67773 7286.06528
v 24348.13052 18409.44055 7298.65249
v 23638.65183 18834.88168 7308.49163
v 23116.22823 19399.48312 7315.38768
v 22701.38449 20070.95916 7319.20397
v 22284.40206 20783.15435 7319.86484
v 21760.31976 21455.59122 7317.35721
v 21060.08935 22018.25466 7311.73077
v 20167.56949 22433.13490 7303.09705
v 19117.65238 22704.96459 7291.62716
v 17977.75846 22877.23549 7277.54843
v 16820.62978 23014.72772 7261.13990
v 15698.81430 23178.61566 7242.72679
v 14629.76023 23402.98367 7222.67404
v 13595.81837 23681.24958 7201.37910
v 12557.58457 23967.60695 7179.26402
v 11474.16881 24193.30906 7156.76714
v 10321.90176 24292.28464 7134.33434
v 9104.29631 24227.10558 7112.41022
v 7850.05520 24005.99140 7091.42933
v 6600.86324 23684.50805 7071.80750
v 5394.63599 23350.89296 7053.93364
v 4251.32915 23099.67399 7038.16200
v 3166.90825 23002.42121 7024.80518
v 2117.38777 23085.58363 7014.12791
v 1070.56772 23322.99845 7006.34181
v 0.00000 23645.62495 7001.60120
v -1104.95658 23965.10794 7000.00004
v -2237.17230 24203.00488 7001.57006
v -3378.34165 24315.59536 7006.28015
v -4510.74276 24305.80451 7014.03695
v -5628.40880 24218.34003 7024.68672
v -6742.13102 24120.05187 7038.01839
v -7875.38270 24072.68987 7053.76772
v -9052.32945 24107.84499 7071.62256
v -10282.86116 24213.01145 7091.22904
v -11551.40443 24333.72300 7112.19855
v -12815.26617 24391.02219 7134.11548
v -14014.68237 24308.13422 7156.54544
v -15091.94565 24037.02686 7179.04387
v -16012.88418 23575.63963 7201.16485
v -16782.30561 22969.88556 7222.46995
v -17446.64898 22299.85807 7242.53690
v -18081.57282 21655.12067 7260.96798
v -18767.94242 21107.61081 7277.39788
v -19564.46761 20691.30993 7291.50096
v -20487.13362 20395.26638 7302.99771
v -21503.63792 20171.77629 7311.66026
v -22545.81230 19956.25650 7317.31692
v -23536.30028 19691.43994 7319.85557
v -24420.07279 19347.31508 7319.22590
v -25188.93739 18930.05936 7315.44039
v -25889.13693 18477.34216 7308.57407
v -26607.94209 18042.26945 7298.76302
v -27442.83087 17672.15654 7286.20170
v -28463.62074 17389.90185 7271.13908
v -29681.19367 17184.51722 7253.87369
v -31034.83823 17013.88497 7234.74774
v -32404.09480 16818.38293 7214.14029
v -33642.38972 16540.25267 7192.45979
v -34621.73804 16141.79340 7170.13593
v -35273.33627 15616.19436 7147.61119
v -35609.71946 14987.69718 7125.33199
v -35720.20300 14301.67863 7103.73990
v -35740.55243 13608.71967 7083.26289
v -35806.98985 12948.55790 7064.30679
v -36010.44405 12339.43916 7047.24733
v -36367.20117 11776.05479 7032.42261
v -36816.58266 11235.93396 7020.12647
v -37246.81489 10691.12531 7010.60260
v -37540.17157 10120.34570 7004.03978
v -37621.36898 9517.02077 7000.56807
v -37491.68486 8890.57875 7000.25629
v -37236.00287 8261.14728 7003.11061
v -36999.38181 7650.33226 7009.07446
v -36940.53996 7072.07371 7018.02965
v -37178.00682 6527.24207 7029.79867
v -37747.61676 6003.88564 7044.14827
v -38586.38924 5482.63576 7060.79404
v -39548.86189 4944.71344 7079.40606
v -40450.73535 4379.07167 7099.61544
v -41125.18508 3785.76962 7121.02164
v -41472.75737 3174.41904 7143.20039
v -41487.97965 2558.70790 7165.71211
v -41253.92107 1949.67297 7188.11061
v -40907.09506 1350.86835 7209.95196
v -40585.38038 757.67109 7230.80327
v 38959.55884 860.85029 7828.07411
v 38275.01687 1478.42575 7810.43428
v 37463.12504 2076.81662 7791.00206
v 36711.16053 2647.89628 7770.16258
v 36180.09155 3194.69934 7748.32888
v 35956.51716 3728.90683 7725.93371
v 36029.54115 4264.77431 7703.42093
v 36300.18129 4812.34909 7681.23675
v 36619.64047 5373.08579 7659.82085
v 36842.81184 5939.87289 7639.59770
v 36878.24584 6501.49003 7620.96811
v 36717.26058 7049.47567 7604.30132
v 36432.38195 7584.17608 7589.92767
v 36146.17967 8116.92004 7578.13205
v 35981.97065 8666.79973 7569.14823
v 36014.13710 9252.84592 7563.15427
v 36235.78589 9884.52147 7560.26899
v 36555.22833 10554.50826 7560.54956
v 36822.55062 11237.21497 7563.99041
v 36877.00668 11894.40721 7570.52337
v 36598.79926 12486.58507 7580.01893
v 35947.48384 12986.28464 7592.28891
v 34974.10593 13388.36678 7607.09011
v 33803.44777 13713.11442 7624.12917
v 32593.09034 14000.41355 7643.06838
v 31483.75805 14296.58960 7663.53237
v 30557.95544 14638.37965 7685.11554
v 29820.47501 15039.89197 7707.39012
v 29206.31911 15487.62013 7729.91462
v 28611.88665 15945.81708 7752.24262
v 27937.37756 16370.73871 7773.93157
v 27124.97811 16728.82215 7794.55161
v 26179.54396 17012.09170 7813.69403
v 25165.23692 17244.73847 7830.97946
v 24180.34637 17477.77468 7846.06528
v 23320.15528 17772.92906 7858.65249
v 22641.53638 18181.00204 7868.49163
v 22141.78351 18722.22840 7875.38768
v 21758.62498 19375.86693 7879.20397
v 21390.59711 20083.25958 7879.86484
v 20929.84233 20763.95955 7877.35721
v 20295.44440 21339.84678 7871.73077
v 19455.88135 21759.12695 7863.09705
v 18433.67084 22011.89632 7851.62716
v 17291.97575 22131.71039 7837.54843
v 16109.29589 22182.41388 7821.13990
v 14952.11389 22234.69212 7802.72679
v 13855.28690 22340.53229 7782.67404
v 12816.34408 22514.66459 7761.37910
v 11804.22809 22729.71254 7739.26402
v 10777.62196 22926.99072 7716.76714
v 9704.83778 23039.31650 7694.33434
v 8577.36272 23017.82702 7672.41022
v 7412.30357 22853.19824 7651.42933
v 6243.74123 22583.46230 7631.80750
v 5107.44326 22285.22373 7613.93364
v 4025.75694 22050.88736 7598.16200
v 2998.98536 21959.48282 7584.80518
v 2006.48678 22051.03337 7574.12791
v 1016.49270 22313.30849 7566.34181
v 0.00000 22685.58406 7561.60120
v -1057.45606 23078.17711 7560.00004
v -2151.20769 23401.07596 7561.57006
v -3261.81467 23591.86762 7566.28015
v -4366.13712 23633.46787 7574.03695
v -5449.85057 23555.77447 7584.68672
v -6515.39888 23421.01220 7598.01839
v -7581.29493 23298.22704 7613.76772
v -8672.48119 23236.11775 7631.62256
v -9805.57566 23243.86799 7651.22904
v -10975.49393 23286.72088 7672.19855
v -12149.93880 23297.77476 7694.11548
v -13275.43184 23201.74934 7716.54544
v -14293.93906 22942.29167 7739.04387
v -15164.53135 22503.21459 7761.16485
v -15881.82905 21916.26068 7782.46995
v -16483.44704 21252.74620 7802.53690
v -17042.31265 20602.05388 7820.96798
v -17645.32700 20044.43204 7837.39788
v -18365.28369 19627.37061 7851.50096
v -19236.09084 19353.38280 7862.99771
v -20240.78836 19182.90081 7871.66026
v -21317.59831 19050.70001 7877.31692
v -22382.71475 18889.67948 7879.85557
v -23362.10843 18653.53247 7879.22590
v -24220.75640 18330.57183 7875.44039
v -24978.02096 17944.37930 7868.57407
v -25702.49968 17541.73865 7858.76302
v -26487.03660 17172.75598 7846.20170
v -27412.09337 16870.61210 7831.13908
v -28510.52270 16638.20567 7813.87369
v -29747.02887 16446.20221 7794.74774
v -31020.93546 16242.77752 7774.14029
v -32192.81183 15971.19505 7752.45979
v -33126.85837 15588.75627 7730.13593
v -33734.86576 15080.46904 7707.61119
v -34006.36622 14462.95107 7685.33199
v -34013.90345 13777.73753 7663.73990
v -33890.79008 13076.91415 7643.26289
v -33788.37902 12406.50182 7624.30679
v -33827.30067 11793.44144 7607.24733
v -34059.57655 11240.33493 7592.42261
v -34454.99884 10729.02505 7580.12647
v -34916.78540 10230.84777 7570.60260
v -35321.17759 9719.16640 7564.03978
v -35567.00904 9179.35311 7560.56807
v -35617.46498 8612.77049 7560.25629
v -35518.72794 8033.88305 7563.11061
v -35388.19280 7462.34260 7569.07446
v -35375.67374 6913.69409 7578.02965
v -35610.73210 6392.59976 7589.79867
v -36154.45578 5891.17337 7604.14827
v -36972.80828 5392.75761 7620.79404
v -37941.38746 4879.21845 7639.40606
v -38880.60134 4338.48034 7659.61544
v -39609.67402 3769.09681 7681.02164
v -40001.27704 3180.05742 7703.20039
v -40018.29298 2586.14854 7725.71211
v -39720.38448 2001.10793 7748.11061
v -39238.50723 1431.73249 7769.95196
v -38726.59675 875.63472 7790.80327
v 37910.35842 927.43550 8388.07411
v 37278.94998 1526.69776 8370.43428
v 36496.34600 2109.24248 8351.00206
v 35744.13502 2665.95169 8330.16258
v 35196.14096 3198.46962 8308.32888
v 34965.11883 3718.00002 8285.93371
v 35069.26052 4239.94900 8263.42093
v 35429.80807 4776.88658 8241.23675
v 35900.32711 5333.01928 8219.82085
v 36317.27665 5902.69255 8199.59770
v 36554.25413 6473.65638 8180.96811
v 36561.22771 7033.68364 8164.30132
v 36375.53194 7577.54296 8149.92767
v 36101.43704 8110.99879 8138.13205
v 35866.14688 8649.63163 8129.14823
v 35768.24868 9212.43013 8123.15427
v 35837.08690 9812.43936 8120.26899
v 36017.46821 10448.27832 8120.54956
v 36185.02835 11100.37218 8123.99041
v 36186.75856 11734.16467 8130.52337
v 35892.42719 12309.92350 8140.01893
v 35238.98515 12796.03201 8152.28891
v 34252.70998 13180.96590 8167.09011
v 33041.77606 13479.23338 8184.12917
v 31762.26193 13728.49968 8203.06838
v 30569.65728 13978.28194 8223.53237
v 29572.57778 14273.83497 8245.11554
v 28804.12148 14640.90429 8267.39012
v 28219.71228 15077.04110 8289.91462
v 27720.83429 15553.02986 8312.24262
v 27195.16030 16024.37165 8333.93157
v 26558.32122 16448.98244 8354.55161
v 25782.67024 16804.72599 8373.69403
v 24903.63219 17100.12273 8390.97946
v 24002.55464 17373.77432 8406.06528
v 23173.32955 17682.01611 8418.65249
v 22485.47373 18078.66063 8428.49163
v 21957.04264 18593.83053 8435.38768
v 21546.66214 19219.58771 8439.20397
v 21166.76237 19907.98558 8439.86484
v 20712.49662 20582.95141 8437.35721
v 20095.55844 21162.50405 8431.73077
v 19270.94749 21583.98438 8423.09705
v 18247.88698 21823.64432 8411.62716
v 17082.20531 21903.66567 8397.54843
v 15854.19678 21883.92885 8381.13990
v 14640.81177 21841.16696 8362.72679
v 13492.34891 21842.64042 8342.67404
v 12421.36202 21923.52241 8321.37910
v 11406.39598 22076.00588 8299.26402
v 10407.48801 22254.08925 8276.76714
v 9386.27458 22392.46375 8254.33434
v 8322.46985 22432.86432 8232.41022
v 7220.64266 22348.47053 8211.42933
v 6105.57481 22157.48030 8191.80750
v 5009.20155 21920.68397 8173.93364
v 3955.33487 21723.46349 8158.16200
v 2948.86065 21648.16741 8144.80518
v 1973.82083 21746.30602 8134.12791
v 1000.79580 22020.21548 8126.34181
v 0.00000 22420.65517 8121.60120
v -1045.84249 22861.32840 8120.00004
v -2134.52704 23245.46894 8121.57006
v -3246.29359 23495.46900 8126.28015
v -4353.67025 23575.50375 8134.03695
v -5434.70897 23499.58941 8144.68672
v -6483.48457 23322.61692 8158.01839
v -7512.79251 23117.82997 8173.76772
v -8547.31991 22948.88070 8191.62256
v -9609.81593 22846.37160 8211.22904
v -10706.16244 22797.07772 8232.19855
v -11816.25549 22749.47563 8254.11548
v -12895.69101 22633.41763 8276.54544
v -13889.03585 22386.83036 8299.04387
v -14750.57252 21979.91839 8321.16485
v -15464.81658 21428.32490 8342.46995
v -16058.38619 20790.65590 8362.53690
v -16597.44684 20151.27800 8380.96798
v -17170.13479 19594.39879 8397.39788
v -17859.18896 19178.35351 8411.50096
v -18714.23664 18918.77629 8422.99771
v -19734.02674 18786.08066 8431.66026
v -20865.84237 18717.62245 8437.31692
v -22023.29720 18639.87851 8439.85557
v -23116.86636 18492.70977 8439.22590
v -24086.39370 18247.37586 8435.44039
v -24923.48987 17912.48101 8428.57407
v -25674.89299 17526.47760 8418.76302
v -26424.54454 17140.10401 8406.20170
v -27260.00364 16795.50360 8391.13908
v -28234.99393 16509.62595 8373.87369
v -29341.96722 16267.64588 8354.74774
v -30505.61064 16028.32373 8334.14029
v -31601.08993 15738.90408 8312.45979
v -32491.95790 15353.87213 8290.13593
v -33075.24871 14850.77756 8267.61119
v -33318.09144 14237.69221 8245.33199
v -33272.53105 13550.08965 8223.73990
v -33062.48422 12838.77674 8203.26289
v -32846.42310 12153.55909 8184.30679
v -32768.06153 11528.52886 8167.24733
v -32911.86097 10973.89037 8152.42261
v -33278.83719 10476.56447 8140.12647
v -33791.26885 10008.51154 8130.60260
v -34324.82446 9539.03241 8124.03978
v -34756.87803 9046.19482 8120.56807
v -35013.86678 8523.30149 8120.25629
v -35100.64200 7978.55354 8123.11061
v -35100.94244 7428.82692 8129.07446
v -35148.27242 6890.67888 8138.02965
v -35377.03327 6372.52304 8149.79867
v -35870.97922 5871.11809 8164.14827
v -36627.33528 5373.51440 8180.79404
v -37549.70123 4863.25957 8199.40606
v -38472.95042 4327.94169 8219.61544
v -39212.17657 3764.72377 8241.02164
v -39619.27570 3181.52116 8263.20039
v -39627.97480 2593.43620 8285.71211
v -39272.03688 2016.14555 8308.11061
v -38670.62443 1459.25358 8329.95196
v -37986.14533 922.62585 8350.80327
v 35516.35553 1079.36564 8948.07411
v 34983.29263 1637.95133 8930.43428
v 34281.83655 2183.51733 8911.00206
v 33578.04406 2706.39495 8890.16258
v 33049.22124 3206.69614 8868.32888
v 32828.08663 3694.48958 8845.93371
v 32960.62112 4185.43614 8823.42093
v 33392.03166 4693.85935 8801.23675
v 33985.57738 5226.36571 8779.82085
v 34567.67567 5778.91252 8759.59770
v 34983.69874 6338.73224 8740.96811
v 35145.33803 6890.38189 8724.30132
v 35053.56527 7423.29907 8709.92767
v 34789.90696 7937.43086 8698.13205
v 34479.88221 8444.15105 8689.14823
v 34242.10543 8961.58352 8683.15427
v 34141.35364 9505.86211 8680.26899
v 34162.21657 10081.78911 8680.54956
v 34212.45768 10676.96411 8683.99041
v 34154.62719 11262.40114 8690.52337
v 33854.54625 11800.25548 8700.01893
v 33229.50095 12256.42670 8712.28891
v 32279.30573 12613.61342 8727.09011
v 31089.59942 12879.79256 8744.12917
v 29806.53661 13088.42908 8763.06838
v 28591.92665 13289.59771 8783.53237
v 27574.38875 13534.59639 8805.11554
v 26813.03651 13859.26842 8827.39012
v 26285.39469 14272.06973 8849.91462
v 25902.53180 14751.49898 8872.24262
v 25544.93370 15254.26812 8893.93157
v 25105.78472 15731.65702 8914.55161
v 24526.37759 16148.31564 8933.69403
v 23811.84785 16496.58165 8950.97946
v 23022.89004 16800.71352 8966.06528
v 22247.77185 17108.92048 8978.65249
v 21565.70628 17475.50358 8988.49163
v 21015.16030 17939.20717 8995.38768
v 20578.26160 18505.59048 8999.20397
v 20186.19327 19140.15007 8999.86484
v 19742.75550 19775.33926 8997.35721
v 19156.95031 20329.75265 8991.73077
v 18372.70786 20733.30187 8983.09705
v 17385.52607 20949.82691 8971.62716
v 16241.01520 20989.19476 8957.54843
v 15017.04962 20904.40409 8941.13990
v 13796.91557 20774.37567 8922.72679
v 12643.49819 20678.15537 8902.67404
v 11583.38498 20669.38042 8881.37910
v 10605.44239 20759.90122 8859.26402
v 9672.74773 20918.33545 8836.76714
v 8741.93514 21084.11192 8814.33434
v 7781.80176 21192.06597 8792.41022
v 6784.08874 21198.83148 8771.42933
v 5763.07625 21101.52021 8751.80750
v 4745.39680 20941.79916 8733.93364
v 3755.33626 20793.58006 8718.16200
v 2802.36961 20738.33839 8704.80518
v 1876.29532 20836.53015 8694.12791
v 951.78485 21105.08192 8686.34181
v 0.00000 21508.93596 8681.60120
v -998.09655 21969.81502 8680.00004
v -2042.76033 22389.41462 8681.57006
v -3114.87056 22679.22464 8686.28015
v -4184.05563 22786.88916 8694.03695
v -5221.98251 22710.23779 8704.68672
v -6214.86338 22494.42877 8718.01839
v -7169.39496 22213.51273 8733.76772
v -8109.05498 21943.09099 8751.62256
v -9061.85917 21733.72789 8771.22904
v -10044.59710 21594.35557 8792.19855
v -11050.53408 21491.26352 8814.11548
v -12046.64471 21362.70906 8836.54544
v -12982.85099 21143.69219 8859.04387
v -13810.80809 20791.93756 8881.16485
v -14505.47233 20305.82041 8902.46995
v -15080.81434 19727.92227 8922.53690
v -15592.53941 19133.02034 8940.96798
v -16125.17968 18604.76861 8957.39788
v -16766.84019 18209.20042 8971.50096
v -17579.96914 17974.14458 8982.99771
v -18578.73035 17881.42479 8991.66026
v -19721.83960 17874.15449 8997.31692
v -20924.50417 17876.19971 8999.85557
v -22086.17191 17816.80998 8999.22590
v -23124.69893 17651.90454 8995.44039
v -24004.64355 17374.99624 8988.57407
v -24748.95435 17014.61644 8978.76302
v -25428.98052 16619.92383 8966.20170
v -26135.57281 16240.21097 8951.13908
v -26941.23444 15905.87326 8933.87369
v -27867.11440 15617.51199 8914.74774
v -28867.53433 15346.63396 8894.14029
v -29838.89612 15047.12351 8872.45979
v -30651.18520 14672.87040 8850.13593
v -31191.92197 14194.96660 8827.61119
v -31407.39486 13612.35863 8805.33199
v -31326.29151 12952.47190 8783.73990
v -31056.51748 12262.06257 8763.26289
v -30755.18247 11591.99979 8744.30679
v -30581.23576 10981.61019 8727.24733
v -30646.63242 10448.01285 8712.42261
v -30982.82608 9983.73061 8700.12647
v -31534.34743 9562.67588 8690.60260
v -32181.90473 9151.60683 8684.03978
v -32787.07598 8722.42563 8680.56807
v -33242.93359 8260.80301 8680.25629
v -33512.65681 7768.39953 8683.11061
v -33642.24922 7258.63010 8689.07446
v -33742.53828 6748.40497 8698.02965
v -33946.53288 6249.63082 8709.79867
v -34357.09915 5764.01475 8724.14827
v -35003.59721 5283.07048 8740.79404
v -35823.23435 4792.91635 8759.40606
v -36674.38810 4281.44499 8779.61544
v -37377.99336 3744.54511 8801.02164
v -37773.19668 3188.59492 8823.20039
v -37768.35628 2628.15729 8845.71211
v -37369.94072 2079.94203 8868.11061
v -36679.45397 1555.75091 8889.95196
v -35859.54123 1057.58612 8910.80327
v 37790.89470 935.01700 9508.07411
v 37413.54102 1520.17513 9490.43428
v 36852.59741 2097.29378 9471.00206
v 36249.60111 2656.51409 9450.16258
v 35775.92609 3196.24802 9428.32888
v 35577.24193 3724.73425 9405.93371
v 35724.84028 4256.89714 9383.42093
v 36190.66290 4807.88687 9361.23675
v 36854.73757 5386.18094 9339.82085
v 37542.54981 5989.37765 9319.59770
v 38079.57290 6604.69430 9300.96811
v 38344.35645 7214.15353 9284.30132
v 38302.25632 7802.34853 9269.92767
v 38008.79635 8363.41879 9258.13205
v 37582.31845 8904.01301 9249.14823
v 37156.23025 9440.56761 9243.15427
v 36828.06671 9991.60189 9240.26899
v 36623.36773 10567.96862 9240.54956
v 36486.84369 11165.15620 9243.99041
v 36303.48735 11761.26350 9250.52337
v 35941.70442 12322.24759 9260.01893
v 35302.90764 12813.19707 9272.28891
v 34359.97912 13211.80571 9287.09011
v 33171.16849 13518.96498 9304.12917
v 31864.78018 13762.05189 9323.06838
v 30600.23589 13988.93001 9343.53237
v 29519.15946 14254.07263 9365.11554
v 28703.24838 14601.30476 9387.39012
v 28152.90428 15049.23877 9409.91462
v 27793.03381 15584.85632 9432.24262
v 27502.88946 16167.97818 9453.93157
v 27158.70126 16745.47610 9474.55161
v 26673.95255 17270.41918 9493.69403
v 26023.69103 17719.29402 9510.97946
v 25245.49238 18100.83835 9526.06528
v 24418.22722 18452.84370 9538.65249
v 23627.51309 18827.57722 9548.49163
v 22930.95937 19270.71829 9555.38768
v 22335.68892 19801.33351 9559.20397
v 21795.59029 20400.38985 9559.86484
v 21228.31985 21012.53525 9557.35721
v 20545.01042 21561.26661 9551.73077
v 19681.46806 21972.77001 9543.09705
v 18619.70841 22200.40542 9531.62716
v 17392.75283 22241.26673 9517.54843
v 16071.98697 22138.75966 9501.13990
v 14742.63800 21969.88816 9482.72679
v 13476.77950 21821.28173 9462.67404
v 12313.45941 21762.03207 9441.37910
v 11252.21984 21822.66793 9419.26402
v 10260.88971 21987.57435 9396.76714
v 9293.22247 22203.51847 9374.33434
v 8308.71111 22401.28892 9352.41022
v 7286.83616 22522.78723 9331.42933
v 6230.91044 22543.90357 9311.80750
v 5161.25852 22484.91287 9293.93364
v 4101.80793 22404.48260 9278.16200
v 3066.55969 22379.17467 9264.80518
v 2051.98951 22475.50986 9254.12791
v 1038.50909 22724.39899 9246.34181
v 0.00000 23107.04144 9241.60120
v -1083.12529 23557.47371 9240.00004
v -2213.39349 23981.18203 9241.57006
v -3373.18989 24283.59871 9246.28015
v -4530.75514 24398.85106 9254.03695
v -5652.85142 24309.03782 9264.68672
v -6718.63178 24047.60119 9278.01839
v -7728.49881 23685.87979 9293.76772
v -8703.68333 23307.72466 9311.62256
v -9676.17070 22981.10707 9331.22904
v -10672.86282 22736.53919 9352.19855
v -11700.69284 22559.58629 9374.11548
v -12739.52942 22399.70143 9396.54544
v -13746.91342 22191.86151 9419.04387
v -14673.94843 21883.05588 9441.16485
v -15486.85331 21454.10953 9462.46995
v -16185.75436 20929.11983 9482.53690
v -16812.57300 20369.26212 9500.96798
v -17443.46448 19853.25708 9517.39788
v -18166.97540 19451.42764 9531.50096
v -19054.79388 19202.39649 9542.99771
v -20135.42361 19100.39484 9551.66026
v -21380.82750 19097.31860 9557.31692
v -22711.93108 19118.49011 9559.85557
v -24022.21032 19086.40831 9559.22590
v -25211.80856 18944.22095 9555.44039
v -26220.29766 18671.05665 9548.57407
v -27046.08399 18284.47538 9538.76302
v -27744.81851 17829.94447 9526.20170
v -28406.58817 17361.73670 9511.13908
v -29119.51851 16922.40290 9493.87369
v -29932.80260 16528.09364 9474.74774
v -30832.98052 16164.55957 9454.14029
v -31743.03286 15794.62630 9432.45979
v -32545.88064 15373.82108 9410.13593
v -33124.98503 14868.09672 9387.61119
v -33408.13974 14267.16326 9365.33199
v -33398.74478 13588.84519 9343.73990
v -33182.67242 12873.33077 9323.26289
v -32907.09182 12169.85042 9304.30679
v -32737.46488 11520.87673 9287.24733
v -32806.86243 10949.51474 9272.42261
v -33174.86859 10454.24784 9260.12647
v -33810.39911 10012.29056 9250.60260
v -34604.66443 9589.62560 9244.03978
v -35410.03936 9153.55257 9240.56807
v -36091.44761 8683.02707 9240.25629
v -36572.31517 8173.31482 9243.11061
v -36858.89118 7633.94016 9249.07446
v -37034.24848 7081.55792 9258.02965
v -37223.96567 6531.19033 9269.79867
v -37545.59418 5989.59303 9284.14827
v -38059.92993 5453.31143 9300.79404
v -38741.69294 4911.82612 9319.40606
v -39480.55426 4353.99041 9339.61544
v -40112.84481 3774.63242 9361.02164
v -40473.45791 3178.24813 9383.20039
v -40450.24008 2578.08362 9405.71211
v -40022.11979 1990.98770 9428.11061
v -39267.74296 1430.31565 9449.95196
v -38341.54203 900.07137 9470.80327
vt 41.372994 6.708074
vt 40.737353 6.690434
vt 40.036708 6.671002
vt 39.439489 6.650163
vt 39.055553 6.628329
vt 38.905593 6.605934
vt 38.921787 6.583421
vt 38.978949 6.561237
vt 38.944795 6.539821
vt 38.731347 6.519598
vt 38.329198 6.500968
vt 37.812567 6.484301
vt 37.313413 6.469928
vt 36.973829 6.458132
vt 36.893552 6.449148
vt 37.091097 6.443154
vt 37.492183 6.440269
vt 37.949538 6.440550
vt 38.287266 6.443990
vt 38.354527 6.450523
vt 38.070312 6.460019
vt 37.444442 6.472289
vt 36.568402 6.487090
vt 35.580113 6.504129
vt 34.615565 6.523068
vt 33.764319 6.543532
vt 33.043967 6.565116
vt 32.401498 6.587390
vt 31.739852 6.609915
vt 30.959166 6.632243
vt 29.997488 6.653932
vt 28.856425 6.674552
vt 27.603076 6.693694
vt 26.348244 6.710979
vt 25.209292 6.726065
vt 24.271109 6.738652
vt 23.558800 6.748492
vt 23.031080 6.755388
vt 22.595729 6.759204
vt 22.140770 6.759865
vt 21.569885 6.757357
vt 20.829792 6.751731
vt 19.920904 6.743097
vt 18.889007 6.731627
vt 17.802550 6.717548
vt 16.724901 6.701140
vt 15.691947 6.682727
vt 14.702656 6.662674
vt 13.724801 6.641379
vt 12.712273 6.619264
vt 11.626304 6.596767
vt 10.452094 6.574334
vt 9.204718 6.552410
vt 7.922818 6.531429
vt 6.653463 6.511807
vt 5.434778 6.493934
vt 4.283377 6.478162
vt 3.191223 6.464805
vt 2.132383 6.454128
vt 1.076079 6.446342
vt 0.000000 6.441601
vt -1.101888 6.440000
vt -2.220137 6.441570
vt -3.338335 6.446280
vt -4.444990 6.454037
vt -5.542801 6.464687
vt -6.650469 6.478018
vt -7.795437 6.493768
vt -9.000135 6.511623
vt -10.267524 6.531229
vt -11.572629 6.552199
vt -12.864789 6.574115
vt -14.081195 6.596545
vt -15.167529 6.619044
vt -16.098174 6.641165
vt -16.887865 6.662470
vt -17.589412 6.682537
vt -18.277179 6.700968
vt -19.021618 6.717398
vt -19.864005 6.731501
vt -20.801149 6.742998
vt -21.786551 6.751660
vt -22.748621 6.757317
vt -23.619947 6.759856
vt -24.366974 6.759226
vt -25.008605 6.755440
vt -25.615649 6.748574
vt -26.289836 6.738763
vt -27.128703 6.726202
vt -28.188361 6.711139
vt -29.457708 6.693874
vt -30.854250 6.674748
vt -32.244391 6.654140
vt -33.482346 6.632460
vt -34.454882 6.610136
vt -35.116476 6.587611
vt -35.502335 6.565332
vt -35.714208 6.543740
vt -35.883474 6.523263
vt -36.124175 6.504307
vt -36.492582 6.487247
vt -36.967875 6.472423
vt -37.461264 6.460126
vt -37.850837 6.450603
vt -38.030031 6.444040
vt -37.952497 6.440568
vt -37.656920 6.440256
vt -37.262154 6.443111
vt -36.933358 6.449074
vt -36.830100 6.458030
vt -37.054038 6.469799
vt -37.614247 6.484148
vt -38.422418 6.500794
vt -39.319916 6.519406
vt -40.127674 6.539615
vt -40.701945 6.561022
vt -40.976913 6.583200
vt -40.979771 6.605712
vt -40.813485 6.628111
vt -40.613805 6.649952
vt -40.495978 6.670803
vt 41.144863 7.268074
vt 40.462338 7.250434
vt 39.680596 7.231002
vt 38.982443 7.210163
vt 38.507170 7.188329
vt 38.310196 7.165934
vt 38.351515 7.143421
vt 38.516466 7.121237
vt 38.661119 7.099821
vt 38.666060 7.079598
vt 38.479574 7.060968
vt 38.135171 7.044301
vt 37.737517 7.029928
vt 37.422052 7.018132
vt 37.302816 7.009148
vt 37.427065 7.003154
vt 37.752776 7.000269
vt 38.157027 7.000550
vt 38.472398 7.003990
vt 38.538832 7.010523
vt 38.253160 7.020019
vt 37.599579 7.032289
vt 36.651181 7.047090
vt 35.542780 7.064129
vt 34.425105 7.083068
vt 33.416506 7.103532
vt 32.568620 7.125116
vt 31.857058 7.147390
vt 31.199054 7.169915
vt 30.490590 7.192243
vt 29.648995 7.213932
vt 28.645665 7.234552
vt 27.517641 7.253694
vt 26.354711 7.270979
vt 25.267442 7.286065
vt 24.348131 7.298652
vt 23.638652 7.308492
vt 23.116228 7.315388
vt 22.701384 7.319204
vt 22.284402 7.319865
vt 21.760320 7.317357
vt 21.060089 7.311731
vt 20.167569 7.303097
vt 19.117652 7.291627
vt 17.977758 7.277548
vt 16.820630 7.261140
vt 15.698814 7.242727
vt 14.629760 7.222674
vt 13.595818 7.201379
vt 12.557585 7.179264
vt 11.474169 7.156767
vt 10.321902 7.134334
vt 9.104296 7.112410
vt 7.850055 7.091429
vt 6.600863 7.071807
vt 5.394636 7.053934
vt 4.251329 7.038162
vt 3.166908 7.024805
vt 2.117388 7.014128
vt 1.070568 7.006342
vt 0.000000 7.001601
vt -1.104957 7.000000
vt -2.237172 7.001570
vt -3.378342 7.006280
vt -4.510743 7.014037
vt -5.628409 7.024687
vt -6.742131 7.038018
vt -7.875383 7.053768
vt -9.052329 7.071623
vt -10.282861 7.091229
vt -11.551404 7.112199
vt -12.815266 7.134115
vt -14.014682 7.156545
vt -15.091946 7.179044
vt -16.012884 7.201165
vt -16.782306 7.222470
vt -17.446649 7.242537
vt -18.081573 7.260968
vt -18.767942 7.277398
vt -19.564468 7.291501
vt -20.487134 7.302998
vt -21.503638 7.311660
vt -22.545812 7.317317
vt -23.536300 7.319856
vt -24.420073 7.319226
vt -25.188937 7.315440
vt -25.889137 7.308574
vt -26.607942 7.298763
vt -27.442831 7.286202
vt -28.463621 7.271139
vt -29.681194 7.253874
vt -31.034838 7.234748
vt -32.404095 7.214140
vt -33.642390 7.192460
vt -34.621738 7.170136
vt -35.273336 7.147611
vt -35.609719 7.125332
vt -35.720203 7.103740
vt -35.740552 7.083263
vt -35.806990 7.064307
vt -36.010444 7.047247
vt -36.367201 7.032423
vt -36.816583 7.020126
vt -37.246815 7.010603
vt -37.540172 7.004040
vt -37.621369 7.000568
vt -37.491685 7.000256
vt -37.236003 7.003111
vt -36.999382 7.009074
vt -36.940540 7.018030
vt -37.178007 7.029799
vt -37.747617 7.044148
vt -38.586389 7.060794
vt -39.548862 7.079406
vt -40.450735 7.099615
vt -41.125185 7.121022
vt -41.472757 7.143200
vt -41.487980 7.165712
vt -41.253921 7.188111
vt -40.907095 7.209952
vt -40.585380 7.230803
vt 38.959559 7.828074
vt 38.275017 7.810434
vt 37.463125 7.791002
vt 36.711161 7.770163
vt 36.180092 7.748329
vt 35.956517 7.725934
vt 36.029541 7.703421
vt 36.300181 7.681237
vt 36.619640 7.659821
vt 36.842812 7.639598
vt 36.878246 7.620968
vt 36.717261 7.604301
vt 36.432382 7.589928
vt 36.146180 7.578132
vt 35.981971 7.569148
vt 36.014137 7.563154
vt 36.235786 7.560269
vt 36.555228 7.560550
vt 36.822551 7.563990
vt 36.877007 7.570523
vt 36.598799 7.580019
vt 35.947484 7.592289
vt 34.974106 7.607090
vt 33.803448 7.624129
vt 32.593090 7.643068
vt 31.483758 7.663532
vt 30.557955 7.685116
vt 29.820475 7.707390
vt 29.206319 7.729915
vt 28.611887 7.752243
vt 27.937378 7.773932
vt 27.124978 7.794552
vt 26.179544 7.813694
vt 25.165237 7.830979
vt 24.180346 7.846065
vt 23.320155 7.858652
vt 22.641536 7.868492
vt 22.141784 7.875388
vt 21.758625 7.879204
vt 21.390597 7.879865
vt 20.929842 7.877357
vt 20.295444 7.871731
vt 19.455881 7.863097
vt 18.433671 7.851627
vt 17.291976 7.837548
vt 16.109296 7.821140
vt 14.952114 7.802727
vt 13.855287 7.782674
vt 12.816344 7.761379
vt 11.804228 7.739264
vt 10.777622 7.716767
vt 9.704838 7.694334
vt 8.577363 7.672410
vt 7.412304 7.651429
vt 6.243741 7.631807
vt 5.107443 7.613934
vt 4.025757 7.598162
vt 2.998985 7.584805
vt 2.006487 7.574128
vt 1.016493 7.566342
vt 0.000000 7.561601
vt -1.057456 7.560000
vt -2.151208 7.561570
vt -3.261815 7.566280
vt -4.366137 7.574037
vt -5.449851 7.584687
vt -6.515399 7.598018
vt -7.581295 7.613768
vt -8.672481 7.631623
vt -9.805576 7.651229
vt -10.975494 7.672199
vt -12.149939 7.694115
vt -13.275432 7.716545
vt -14.293939 7.739044
vt -15.164531 7.761165
vt -15.881829 7.782470
vt -16.483447 7.802537
vt -17.042313 7.820968
vt -17.645327 7.837398
vt -18.365284 7.851501
vt -19.236091 7.862998
vt -20.240788 7.871660
vt -21.317598 7.877317
vt -22.382715 7.879856
vt -23.362108 7.879226
vt -24.220756 7.875440
vt -24.978021 7.868574
vt -25.702500 7.858763
vt -26.487037 7.846202
vt -27.412093 7.831139
vt -28.510523 7.813874
vt -29.747029 7.794748
vt -31.020935 7.774140
vt -32.192812 7.752460
vt -33.126858 7.730136
vt -33.734866 7.707611
vt -34.006366 7.685332
vt -34.013903 7.663740
vt -33.890790 7.643263
vt -33.788379 7.624307
vt -33.827301 7.607247
vt -34.059577 7.592423
vt -34.454999 7.580126
vt -34.916785 7.570603
vt -35.321178 7.564040
vt -35.567009 7.560568
vt -35.617465 7.560256
vt -35.518728 7.563111
vt -35.388193 7.569074
vt -35.375674 7.578030
vt -35.610732 7.589799
vt -36.154456 7.604148
vt -36.972808 7.620794
vt -37.941387 7.639406
vt -38.880601 7.659615
vt -39.609674 7.681022
vt -40.001277 7.703200
vt -40.018293 7.725712
vt -39.720384 7.748111
vt -39.238507 7.769952
vt -38.726597 7.790803
vt 37.910358 8.388074
vt 37.278950 8.370434
vt 36.496346 8.351002
vt 35.744135 8.330163
vt 35.196141 8.308329
vt 34.965119 8.285934
vt 35.069261 8.263421
vt 35.429808 8.241237
vt 35.900327 8.219821
vt 36.317277 8.199598
vt 36.554254 8.180968
vt 36.561228 8.164301
vt 36.375532 8.149928
vt 36.101437 8.138132
vt 35.866147 8.129148
vt 35.768249 8.123154
vt 35.837087 8.120269
vt 36.017468 8.120550
vt 36.185028 8.123990
vt 36.186759 8.130523
vt 35.892427 8.140019
vt 35.238985 8.152289
vt 34.252710 8.167090
vt 33.041776 8.184129
vt 31.762262 8.203068
vt 30.569657 8.223532
vt 29.572578 8.245116
vt 28.804121 8.267390
vt 28.219712 8.289915
vt 27.720834 8.312243
vt 27.195160 8.333932
vt 26.558321 8.354552
vt 25.782670 8.373694
vt 24.903632 8.390979
vt 24.002555 8.406065
vt 23.173330 8.418652
vt 22.485474 8.428492
vt 21.957043 8.435388
vt 21.546662 8.439204
vt 21.166762 8.439865
vt 20.712497 8.437357
vt 20.095558 8.431731
vt 19.270947 8.423097
vt 18.247887 8.411627
vt 17.082205 8.397548
vt 15.854197 8.381140
vt 14.640812 8.362727
vt 13.492349 8.342674
vt 12.421362 8.321379
vt 11.406396 8.299264
vt 10.407488 8.276767
vt 9.386275 8.254334
vt 8.322470 8.232410
vt 7.220643 8.211429
vt 6.105575 8.191807
vt 5.009202 8.173934
vt 3.955335 8.158162
vt 2.948861 8.144805
vt 1.973821 8.134128
vt 1.000796 8.126342
vt 0.000000 8.121601
vt -1.045842 8.120000
vt -2.134527 8.121570
vt -3.246294 8.126280
vt -4.353670 8.134037
vt -5.434709 8.144687
vt -6.483485 8.158018
vt -7.512793 8.173768
vt -8.547320 8.191623
vt -9.609816 8.211229
vt -10.706162 8.232199
vt -11.816255 8.254115
vt -12.895691 8.276545
vt -13.889036 8.299044
vt -14.750573 8.321165
vt -15.464817 8.342470
vt -16.058386 8.362537
vt -16.597447 8.380968
vt -17.170135 8.397398
vt -17.859189 8.411501
vt -18.714237 8.422998
vt -19.734027 8.431660
vt -20.865842 8.437317
vt -22.023297 8.439856
vt -23.116866 8.439226
vt -24.086394 8.435440
vt -24.923490 8.428574
vt -25.674893 8.418763
vt -26.424545 8.406202
vt -27.260004 8.391139
vt -28.234994 8.373874
vt -29.341967 8.354748
vt -30.505611 8.334140
vt -31.601090 8.312460
vt -32.491958 8.290136
vt -33.075249 8.267611
vt -33.318091 8.245332
vt -33.272531 8.223740
vt -33.062484 8.203263
vt -32.846423 8.184307
vt -32.768062 8.167247
vt -32.911861 8.152423
vt -33.278837 8.140126
vt -33.791269 8.130603
vt -34.324824 8.124040
vt -34.756878 8.120568
vt -35.013867 8.120256
vt -35.100642 8.123111
vt -35.100942 8.129074
vt -35.148272 8.138030
vt -35.377033 8.149799
vt -35.870979 8.164148
vt -36.627335 8.180794
vt -37.549701 8.199406
vt -38.472950 8.219615
vt -39.212177 8.241022
vt -39.619276 8.263200
vt -39.627975 8.285712
vt -39.272037 8.308111
vt -38.670624 8.329952
vt -37.986145 8.350803
vt 35.516356 8.948074
vt 34.983293 8.930434
vt 34.281837 8.911002
vt 33.578044 8.890163
vt 33.049221 8.868329
vt 32.828087 8.845934
vt 32.960621 8.823421
vt 33.392032 8.801237
vt 33.985577 8.779821
vt 34.567676 8.759598
vt 34.983699 8.740968
vt 35.145338 8.724301
vt 35.053565 8.709928
vt 34.789907 8.698132
vt 34.479882 8.689148
vt 34.242105 8.683154
vt 34.141354 8.680269
vt 34.162217 8.680550
vt 34.212458 8.683990
vt 34.154627 8.690523
vt 33.854546 8.700019
vt 33.229501 8.712289
vt 32.279306 8.727090
vt 31.089599 8.744129
vt 29.806537 8.763068
vt 28.591927 8.783532
vt 27.574389 8.805116
vt 26.813037 8.827390
vt 26.285395 8.849915
vt 25.902532 8.872243
vt 25.544934 8.893932
vt 25.105785 8.914552
vt 24.526378 8.933694
vt 23.811848 8.950979
vt 23.022890 8.966065
vt 22.247772 8.978652
vt 21.565706 8.988492
vt 21.015160 8.995388
vt 20.578262 8.999204
vt 20.186193 8.999865
vt 19.742756 8.997357
vt 19.156950 8.991731
vt 18.372708 8.983097
vt 17.385526 8.971627
vt 16.241015 8.957548
vt 15.017050 8.941140
vt 13.796916 8.922727
vt 12.643498 8.902674
vt 11.583385 8.881379
vt 10.605442 8.859264
vt 9.672748 8.836767
vt 8.741935 8.814334
vt 7.781802 8.792410
vt 6.784089 8.771429
vt 5.763076 8.751807
vt 4.745397 8.733934
vt 3.755336 8.718162
vt 2.802370 8.704805
vt 1.876295 8.694128
vt 0.951785 8.686342
vt 0.000000 8.681601
vt -0.998097 8.680000
vt -2.042760 8.681570
vt -3.114871 8.686280
vt -4.184056 8.694037
vt -5.221983 8.704687
vt -6.214863 8.718018
vt -7.169395 8.733768
vt -8.109055 8.751623
vt -9.061859 8.771229
vt -10.044597 8.792199
vt -11.050534 8.814115
vt -12.046645 8.836545
vt -12.982851 8.859044
vt -13.810808 8.881165
vt -14.505472 8.902470
vt -15.080814 8.922537
vt -15.592539 8.940968
vt -16.125180 8.957398
vt -16.766840 8.971501
vt -17.579969 8.982998
vt -18.578730 8.991660
vt -19.721840 8.997317
vt -20.924504 8.999856
vt -22.086172 8.999226
vt -23.124699 8.995440
vt -24.004644 8.988574
vt -24.748954 8.978763
vt -25.428981 8.966202
vt -26.135573 8.951139
vt -26.941234 8.933874
vt -27.867114 8.914748
vt -28.867534 8.894140
vt -29.838896 8.872460
vt -30.651185 8.850136
vt -31.191922 8.827611
vt -31.407395 8.805332
vt -31.326292 8.783740
vt -31.056517 8.763263
vt -30.755182 8.744307
vt -30.581236 8.727247
vt -30.646632 8.712423
vt -30.982826 8.700126
vt -31.534347 8.690603
vt -32.181905 8.684040
vt -32.787076 8.680568
vt -33.242934 8.680256
vt -33.512657 8.683111
vt -33.642249 8.689074
vt -33.742538 8.698030
vt -33.946533 8.709799
vt -34.357099 8.724148
vt -35.003597 8.740794
vt -35.823234 8.759406
vt -36.674388 8.779615
vt -37.377993 8.801022
vt -37.773197 8.823200
vt -37.768356 8.845712
vt -37.369941 8.868111
vt -36.679454 8.889952
vt -35.859541 8.910803
vt 37.790895 9.508074
vt 37.413541 9.490434
vt 36.852597 9.471002
vt 36.249601 9.450163
vt 35.775926 9.428329
vt 35.577242 9.405934
vt 35.724840 9.383421
vt 36.190663 9.361237
vt 36.854738 9.339821
vt 37.542550 9.319598
vt 38.079573 9.300968
vt 38.344356 9.284301
vt 38.302256 9.269928
vt 38.008796 9.258132
vt 37.582318 9.249148
vt 37.156230 9.243154
vt 36.828067 9.240269
vt 36.623368 9.240550
vt 36.486844 9.243990
vt 36.303487 9.250523
vt 35.941704 9.260019
vt 35.302908 9.272289
vt 34.359979 9.287090
vt 33.171168 9.304129
vt 31.864780 9.323068
vt 30.600236 9.343532
vt 29.519159 9.365116
vt 28.703248 9.387390
vt 28.152904 9.409915
vt 27.793034 9.432243
vt 27.502889 9.453932
vt 27.158701 9.474552
vt 26.673953 9.493694
vt 26.023691 9.510979
vt 25.245492 9.526065
vt 24.418227 9.538652
vt 23.627513 9.548492
vt 22.930959 9.555388
vt 22.335689 9.559204
vt 21.795590 9.559865
vt 21.228320 9.557357
vt 20.545010 9.551731
vt 19.681468 9.543097
vt 18.619708 9.531627
vt 17.392753 9.517548
vt 16.071987 9.501140
vt 14.742638 9.482727
vt 13.476779 9.462674
vt 12.313459 9.441379
vt 11.252220 9.419264
vt 10.260890 9.396767
vt 9.293222 9.374334
vt 8.308711 9.352410
vt 7.286836 9.331429
vt 6.230910 9.311807
vt 5.161259 9.293934
vt 4.101808 9.278162
vt 3.066560 9.264805
vt 2.051990 9.254128
vt 1.038509 9.246342
vt 0.000000 9.241601
vt -1.083125 9.240000
vt -2.213393 9.241570
vt -3.373190 9.246280
vt -4.530755 9.254037
vt -5.652851 9.264687
vt -6.718632 9.278018
vt -7.728499 9.293768
vt -8.703683 9.311623
vt -9.676171 9.331229
vt -10.672863 9.352199
vt -11.700693 9.374115
vt -12.739529 9.396545
vt -13.746913 9.419044
vt -14.673948 9.441165
vt -15.486853 9.462470
vt -16.185754 9.482537
vt -16.812573 9.500968
vt -17.443464 9.517398
vt -18.166975 9.531501
vt -19.054794 9.542998
vt -20.135424 9.551660
vt -21.380827 9.557317
vt -22.711931 9.559856
vt -24.022210 9.559226
vt -25.211809 9.555440
vt -26.220298 9.548574
vt -27.046084 9.538763
vt -27.744819 9.526202
vt -28.406588 9.511139
vt -29.119519 9.493874
vt -29.932803 9.474748
vt -30.832981 9.454140
vt -31.743033 9.432460
vt -32.545881 9.410136
vt -33.124985 9.387611
vt -33.408140 9.365332
vt -33.398745 9.343740
vt -33.182672 9.323263
vt -32.907092 9.304307
vt -32.737465 9.287247
vt -32.806862 9.272423
vt -33.174869 9.260126
vt -33.810399 9.250603
vt -34.604664 9.244040
vt -35.410039 9.240568
vt -36.091448 9.240256
vt -36.572315 9.243111
vt -36.858891 9.249074
vt -37.034248 9.258030
vt -37.223966 9.269799
vt -37.545594 9.284148
vt -38.059930 9.300794
vt -38.741693 9.319406
vt -39.480554 9.339615
vt -40.112845 9.361022
vt -40.473458 9.383200
vt -40.450240 9.405712
vt -40.022120 9.428111
vt -39.267743 9.449952
vt -38.341542 9.470803
f 1/1 122/122 123/123
f 1/1 123/123 2/2
f 2/2 123/123 124/124
f 2/2 124/124 3/3
f 3/3 124/124 125/125
f 3/3 125/125 4/4
f 4/4 125/125 126/126
f 4/4 126/126 5/5
f 5/5 126/126 127/127
f 5/5 127/127 6/6
f 6/6 127/127 128/128
f 6/6 128/128 7/7
f 7/7 128/128 129/129
f 7/7 129/129 8/8
f 8/8 129/129 130/130
f 8/8 130/130 9/9
f 9/9 130/130 131/131
f 9/9 131/131 10/10
f 10/10 131/131 132/132
f 10/10 132/132 11/11
f 11/11 132/132 133/133
f 11/11 133/133 12/12
f 12/12 133/133 134/134
f 12/12 134/134 13/13
f 13/13 134/134 135/135
f 13/13 135/135 14/14
f 14/14 135/135 136/136
f 14/14 136/136 15/15
f 15/15 136/136 137/137
f 15/15 137/137 16/16
f 16/16 137/137 138/138
f 16/16 138/138 17/17
f 17/17 138/138 139/139
f 17/17 139/139 18/18
f 18/18 139/139 140/140
f 18/18 140/140 19/19
f 19/19 140/140 141/141
f 19/19 141/141 20/20
f 20/20 141/141 142/142
f 20/20 142/142 21/21
f 21/21 142/142 143/143
f 21/21 143/143 22/22
f 22/22 143/143 144/144
f 22/22 144/144 23/23
f 23/23 144/144 145/145
f 23/23 145/145 24/24
f 24/24 145/145 146/146
f 24/24 146/146 25/25
f 25/25 146/146 147/147
f 25/25 147/147 26/26
f 26/26 147/147 148/148
f 26/26 148/148 27/27
f 27/27 148/148 149/149
f 27/27 149/149 28/28
f 28/28 149/149 150/150
f 28/28 150/150 29/29
f 29/29 150/150 151/151
f 29/29 151/151 30/30
f 30/30 151/151 152/152
f 30/30 152/152 31/31
f 31/31 152/152 153/153
f 31/31 153/153 32/32
f 32/32 153/153 154/154
f 32/32 154/154 33/33
f 33/33 154/154 155/155
f 33/33 155/155 34/34
f 34/34 155/155 156/156
f 34/34 156/156 35/35
f 35/35 156/156 157/157
f 35/35 157/157 36/36
f 36/36 157/157 158/158
f 36/36 158/158 37/37
f 37/37 158/158 159/159
f 37/37 159/159 38/38
f 38/38 159/159 160/160
f 38/38 160/160 39/39
f 39/39 160/160 161/161
f 39/39 161/161 40/40
f 40/40 161/161 162/162
f 40/40 162/162 41/41
f 41/41 162/162 163/163
f 41/41 163/163 42/42
f 42/42 163/163 164/164
f 42/42 164/164 43/43
f 43/43 164/164 165/165
f 43/43 165/165 44/44
f 44/44 165/165 166/166
f 44/44 166/166 45/45
f 45/45 166/166 167/167
f 45/45 167/167 46/46
f 46/46 167/167 168/168
f 46/46 168/168 47/47
f 47/47 168/168 169/169
f 47/47 169/169 48/48
f 48/48 169/169 170/170
f 48/48 170/170 49/49
f 49/49 170/170 171/171
f 49/49 171/171 50/50
f 50/50 171/171 172/172
f 50/50 172/172 51/51
f 51/51 172/172 173/173
f 51/51 173/173 52/52
f 52/52 173/173 174/174
f 52/52 174/174 53/53
f 53/53 174/174 175/175
f 53/53 175/175 54/54
f 54/54 175/175 176/176
f 54/54 176/176 55/55
f 55/55 176/176 177/177
f 55/55 177/177 56/56
f 56/56 177/177 178/178
f 56/56 178/178 57/57
f 57/57 178/178 179/179
f 57/57 179/179 58/58
f 58/58 179/179 180/180
f 58/58 180/180 59/59
f 59/59 180/180 181/181
f 59/59 181/181 60/60
f 60/60 181/181 182/182
f 60/60 182/182 61/61
f 61/61 182/182 183/183
f 61/61 183/183 62/62
f 62/62 183/183 184/184
f 62/62 184/184 63/63
f 63/63 184/184 185/185
f 63/63 185/185 64/64
f 64/64 185/185 186/186
f 64/64 186/186 65/65
f 65/65 186/186 187/187
f 65/65 187/187 66/66
f 66/66 187/187 188/188
f 66/66 188/188 67/67
f 67/67 188/188 189/189
f 67/67 189/189 68/68
f 68/68 189/189 190/190
f 68/68 190/190 69/69
f 69/69 190/190 191/191
f 69/69 191/191 70/70
f 70/70 191/191 192/192
f 70/70 192/192 71/71
f 71/71 192/192 193/193
f 71/71 193/193 72/72
f 72/72 193/193 194/194
f 72/72 194/194 73/73
f 73/73 194/194 195/195
f 73/73 195/195 74/74
f 74/74 195/195 196/196
f 74/74 196/196 75/75
f 75/75 196/196 197/197
f 75/75 197/197 76/76
f 76/76 197/197 198/198
f 76/76 198/198 77/77
f 77/77 198/198 199/199
f 77/77 199/199 78/78
f 78/78 199/199 200/200
f 78/78 200/200 79/79
f 79/79 200/200 201/201
f 79/79 201/201 80/80
f 80/80 201/201 202/202
f 80/80 202/202 81/81
f 81/81 202/202 203/203
f 81/81 203/203 82/82
f 82/82 203/203 204/204
f 82/82 204/204 83/83
f 83/83 204/204 205/205
f 83/83 205/205 84/84
f 84/84 205/205 206/206
f 84/84 206/206 85/85
f 85/85 206/206 207/207
f 85/85 207/207 86/86
f 86/86 207/207 208/208
f 86/86 208/208 87/87
f 87/87 208/208 209/209
f 87/87 209/209 88/88
f 88/88 209/209 210/210
f 88/88 210/210 89/89
f 89/89 210/210 211/211
f 89/89 211/211 90/90
f 90/90 211/211 212/212
f 90/90 212/212 91/91
f 91/91 212/212 213/213
f 91/91 213/213 92/92
f 92/92 213/213 214/214
f 92/92 214/214 93/93
f 93/93 214/214 215/215
f 93/93 215/215 94/94
f 94/94 215/215 216/216
f 94/94 216/216 95/95
f 95/95 216/216 217/217
f 95/95 217/217 96/96
f 96/96 217/217 218/218
f 96/96 218/218 97/97
f 97/97 218/218 219/219
f 97/97 219/219 98/98
f 98/98 219/219 220/220
f 98/98 220/220 99/99
f 99/99 220/220 221/221
f 99/99 221/221 100/100
f 100/100 221/221 222/222
f 100/100 222/222 101/101
f 101/101 222/222 223/223
f 101/101 223/223 102/102
f 102/102 223/223 224/224
f 102/102 224/224 103/103
f 103/103 224/224 225/225
f 103/103 225/225 104/104
f 104/104 225/225 226/226
f 104/104 226/226 105/105
f 105/105 226/226 227/227
f 105/105 227/227 106/106
f 106/106 227/227 228/228
f 106/106 228/228 107/107
f 107/107 228/228 229/229
f 107/107 229/229 108/108
f 108/108 229/229 230/230
f 108/108 230/230 109/109
f 109/109 230/230 231/231
f 109/109 231/231 110/110
f 110/110 231/231 232/232
f 110/110 232/232 111/111
f 111/111 232/232 233/233
f 111/111 233/233 112/112
f 112/112 233/233 234/234
f 112/112 234/234 113/113
f 113/113 234/234 235/235
f 113/113 235/235 114/114
f 114/114 235/235 236/236
f 114/114 236/236 115/115
f 115/115 236/236 237/237
f 115/115 237/237 116/116
f 116/116 237/237 238/238
f 116/116 238/238 117/117
f 117/117 238/238 239/239
f 117/117 239/239 118/118
f 118/118 239/239 240/240
f 118/118 240/240 119/119
f 119/119 240/240 241/241
f 119/119 241/241 120/120
f 120/120 241/241 242/242
f 120/120 242/242 121/121
f 122/122 243/243 244/244
f 122/122 244/244 123/123
f 123/123 244/244 245/245
f 123/123 245/245 124/124
f 124/124 245/245 246/246
f 124/124 246/246 125/125
f 125/125 246/246 247/247
f 125/125 247/247 126/126
f 126/126 247/247 248/248
f 126/126 248/248 127/127
f 127/127 248/248 249/249
f 127/127 249/249 128/128
f 128/128 249/249 250/250
f 128/128 250/250 129/129
f 129/129 250/250 251/251
f 129/129 251/251 130/130
f 130/130 251/251 252/252
f 130/130 252/252 131/131
f 131/131 252/252 253/253
f 131/131 253/253 132/132
f 132/132 253/253 254/254
f 132/132 254/254 133/133
f 133/133 254/254 255/255
f 133/133 255/255 134/134
f 134/134 255/255 256/256
f 134/134 256/256 135/135
f 135/135 256/256 257/257
f 135/135 257/257 136/136
f 136/136 257/257 258/258
f 136/136 258/258 137/137
f 137/137 258/258 259/259
f 137/137 259/259 138/138
f 138/138 259/259 260/260
f 138/138 260/260 139/139
f 139/139 260/260 261/261
f 139/139 261/261 140/140
f 140/140 261/261 262/262
f 140/140 262/262 141/141
f 141/141 262/262 263/263
f 141/141 263/263 142/142
f 142/142 263/263 264/264
f 142/142 264/264 143/143
f 143/143 264/264 265/265
f 143/143 265/265 144/144
f 144/144 265/265 266/266
f 144/144 266/266 145/145
f 145/145 266/266 267/267
f 145/145 267/267 146/146
f 146/146 267/267 268/268
f 146/146 268/268 147/147
f 147/147 268/268 269/269
f 147/147 269/269 148/148
f 148/148 269/269 270/270
f 148/148 270/270 149/149
f 149/149 270/270 271/271
f 149/149 271/271 150/150
f 150/150 271/271 272/272
f 150/150 272/272 151/151
f 151/151 272/272 273/273
f 151/151 273/273 152/152
f 152/152 273/273 274/274
f 152/152 274/274 153/153
f 153/153 274/274 275/275
f 153/153 275/275 154/154
f 154/154 275/275 276/276
f 154/154 276/276 155/155
f 155/155 276/276 277/277
f 155/155 277/277 156/156
f 156/156 277/277 278/278
f 156/156 278/278 157/157
f 157/157 278/278 279/279
f 157/157 279/279 158/158
f 158/158 279/279 280/280
f 158/158 280/280 159/159
f 159/159 280/280 281/281
f 159/159 281/281 160/160
f 160/160 281/281 282/282
f 160/160 282/282 161/161
f 161/161 282/282 283/283
f 161/161 283/283 162/162
f 162/162 283/283 284/284
f 162/162 284/284 163/163
f 163/163 284/284 285/285
f 163/163 285/285 164/164
f 164/164 285/285 286/286
f 164/164 286/286 165/165
f 165/165 286/286 287/287
f 165/165 287/287 166/166
f 166/166 287/287 288/288
f 166/166 288/288 167/167
f 167/167 288/288 289/289
f 167/167 289/289 168/168
f 168/168 289/289 290/290
f 168/168 290/290 169/169
f 169/169 290/290 291/291
f 169/169 291/291 170/170
f 170/170 291/291 292/292
f 170/170 292/292 171/171
f 171/171 292/292 293/293
f 171/171 293/293 172/172
f 172/172 293/293 294/294
f 172/172 294/294 173/173
f 173/173 294/294 295/295
f 173/173 295/295 174/174
f 174/174 295/295 296/296
f 174/174 296/296 175/175
f 175/175 296/296 297/297
f 175/175 297/297 176/176
f 176/176 297/297 298/298
f 176/176 298/298 177/177
f 177/177 298/298 299/299
f 177/177 299/299 178/178
f 178/178 299/299 300/300
f 178/178 300/300 179/179
f 179/179 300/300 301/301
f 179/179 301/301 180/180
f 180/180 301/301 302/302
f 180/180 302/302 181/181
f 181/181 302/302 303/303
f 181/181 303/303 182/182
f 182/182 303/303 304/304
f 182/182 304/304 183/183
f 183/183 304/304 305/305
f 183/183 305/305 184/184
f 184/184 305/305 306/306
f 184/184 306/306 185/185
f 185/185 306/306 307/307
f 185/185 307/307 186/186
f 186/186 307/307 308/308
f 186/186 308/308 187/187
f 187/187 308/308 309/309
f 187/187 309/309 188/188
f 188/188 309/309 310/310
f 188/188 310/310 189/189
f 189/189 310/310 311/311
f 189/189 311/311 190/190
f 190/190 311/311 312/312
f 190/190 312/312 191/191
f 191/191 312/312 313/313
f 191/191 313/313 192/192
f 192/192 313/313 314/314
f 192/192 314/314 193/193
f 193/193 314/314 315/315
f 193/193 315/315 194/194
f 194/194 315/315 316/316
f 194/194 316/316 195/195
f 195/195 316/316 317/317
f 195/195 317/317 196/196
f 196/196 317/317 318/318
f 196/196 318/318 197/197
f 197/197 318/318 319/319
f 197/197 319/319 198/198
f 198/198 319/319 320/320
f 198/198 320/320 199/199
f 199/199 320/320 321/321
f 199/199 321/321 200/200
f 200/200 321/321 322/322
f 200/200 322/322 201/201
f 201/201 322/322 323/323
f 201/201 323/323 202/202
f 202/202 323/323 324/324
f 202/202 324/324 203/203
f 203/203 324/324 325/325
f 203/203 325/325 204/204
f 204/204 325/325 326/326
f 204/204 326/326 205/205
f 205/205 326/326 327/327
f 205/205 327/327 206/206
f 206/206 327/327 328/328
f 206/206 328/328 207/207
f 207/207 328/328 329/329
f 207/207 329/329 208/208
f 208/208 329/329 330/330
f 208/208 330/330 209/209
f 209/209 330/330 331/331
f 209/209 331/331 210/210
f 210/210 331/331 332/332
f 210/210 332/332 211/211
f 211/211 332/332 333/333
f 211/211 333/333 212/212
f 212/212 333/333 334/334
f 212/212 334/334 213/213
f 213/213 334/334 335/335
f 213/213 335/335 214/214
f 214/214 335/335 336/336
f 214/214 336/336 215/215
f 215/215 336/336 337/337
f 215/215 337/337 216/216
f 216/216 337/337 338/338
f 216/216 338/338 217/217
f 217/217 338/338 339/339
f 217/217 339/339 218/218
f 218/218 339/339 340/340
f 218/218 340/340 219/219
f 219/219 340/340 341/341
f 219/219 341/341 220/220
f 220/220 341/341 342/342
f 220/220 342/342 221/221
f 221/221 342/342 343/343
f 221/221 343/343 222/222
f 222/222 343/343 344/344
f 222/222 344/344 223/223
f 223/223 344/344 345/345
f 223/223 345/345 224/224
f 224/224 345/345 346/346
f 224/224 346/346 225/225
f 225/225 346/346 347/347
f 225/225 347/347 226/226
f 226/226 347/347 348/348
f 226/226 348/348 227/227
f 227/227 348/348 349/349
f 227/227 349/349 228/228
f 228/228 349/349 350/350
f 228/228 350/350 229/229
f 229/229 350/350 351/351
f 229/229 351/351 230/230
f 230/230 351/351 352/352
f 230/230 352/352 231/231
f 231/231 352/352 353/353
f 231/231 353/353 232/232
f 232/232 353/353 354/354
f 232/232 354/354 233/233
f 233/233 354/354 355/355
f 233/233 355/355 234/234
f 234/234 355/355 356/356
f 234/234 356/356 235/235
f 235/235 356/356 357/357
f 235/235 357/357 236/236
f 236/236 357/357 358/358
f 236/236 358/358 237/237
f 237/237 358/358 359/359
f 237/237 359/359 238/238
f 238/238 359/359 360/360
f 238/238 360/360 239/239
f 239/239 360/360 361/361
f 239/239 361/361 240/240
f 240/240 361/361 362/362
f 240/240 362/362 241/241
f 241/241 362/362 363/363
f 241/241 363/363 242/242
f 243/243 364/364 365/365
f 243/243 365/365 244/244
f 244/244 365/365 366/366
f 244/244 366/366 245/245
f 245/245 366/366 367/367
f 245/245 367/367 246/246
f 246/246 367/367 368/368
f 246/246 368/368 247/247
f 247/247 368/368 369/369
f 247/247 369/369 248/248
f 248/248 369/369 370/370
f 248/248 370/370 249/249
f 249/249 370/370 371/371
f 249/249 371/371 250/250
f 250/250 371/371 372/372
f 250/250 372/372 251/251
f 251/251 372/372 373/373
f 251/251 373/373 252/252
f 252/252 373/373 374/374
f 252/252 374/374 253/253
f 253/253 374/374 375/375
f 253/253 375/375 254/254
f 254/254 375/375 376/376
f 254/254 376/376 255/255
f 255/255 376/376 377/377
f 255/255 377/377 256/256
f 256/256 377/377 378/378
f 256/256 378/378 257/257
f 257/257 378/378 379/379
f 257/257 379/379 258/258
f 258/258 379/379 380/380
f 258/258 380/380 259/259
f 259/259 380/380 381/381
f 259/259 381/381 260/260
f 260/260 381/381 382/382
f 260/260 382/382 261/261
f 261/261 382/382 383/383
f 261/261 383/383 262/262
f 262/262 383/383 384/384
f 262/262 384/384 263/263
f 263/263 384/384 385/385
f 263/263 385/385 264/264
f 264/264 385/385 386/386
f 264/264 386/386 265/265
f 265/265 386/386 387/387
f 265/265 387/387 266/266
f 266/266 387/387 388/388
f 266/266 388/388 267/267
f 267/267 388/388 389/389
f 267/267 389/389 268/268
f 268/268 389/389 390/390
f 268/268 390/390 269/269
f 269/269 390/390 391/391
f 269/269 391/391 270/270
f 270/270 391/391 392/392
f 270/270 392/392 271/271
f 271/271 392/392 393/393
f 271/271 393/393 272/272
f 272/272 393/393 394/394
f 272/272 394/394 273/273
f 273/273 394/394 395/395
f 273/273 395/395 274/274
f 274/274 395/395 396/396
f 274/274 396/396 275/275
f 275/275 396/396 397/397
f 275/275 397/397 276/276
f 276/276 397/397 398/398
f 276/276 398/398 277/277
f 277/277 398/398 399/399
f 277/277 399/399 278/278
f 278/278 399/399 400/400
f 278/278 400/400 279/279
f 279/279 400/400 401/401
f 279/279 401/401 280/280
f 280/280 401/401 402/402
f 280/280 402/402 281/281
f 281/281 402/402 403/403
f 281/281 403/403 282/282
f 282/282 403/403 404/404
f 282/282 404/404 283/283
f 283/283 404/404 405/405
f 283/283 405/405 284/284
f 284/284 405/405 406/406
f 284/284 406/406 285/285
f 285/285 406/406 407/407
f 285/285 407/407 286/286
f 286/286 407/407 408/408
f 286/286 408/408 287/287
f 287/287 408/408 409/409
f 287/287 409/409 288/288
f 288/288 409/409 410/410
f 288/288 410/410 289/289
f 289/289 410/410 411/411
f 289/289 411/411 290/290
f 290/290 411/411 412/412
f 290/290 412/412 291/291
f 291/291 412/412 413/413
f 291/291 413/413 292/292
f 292/292 413/413 414/414
f 292/292 414/414 293/293
f 293/293 414/414 415/415
f 293/293 415/415 294/294
f 294/294 415/415 416/416
f 294/294 416/416 295/295
f 295/295 416/416 417/417
f 295/295 417/417 296/296
f 296/296 417/417 418/418
f 296/296 418/418 297/297
f 297/297 418/418 419/419
f 297/297 419/419 298/298
f 298/298 419/419 420/420
f 298/298 420/420 299/299
f 299/299 420/420 421/421
f 299/299 421/421 300/300
f 300/300 421/421 422/422
f 300/300 422/422 301/301
f 301/301 422/422 423/423
f 301/301 423/423 302/302
f 302/302 423/423 424/424
f 302/302 424/424 303/303
f 303/303 424/424 425/425
f 303/303 425/425 304/304
f 304/304 425/425 426/426
f 304/304 426/426 305/305
f 305/305 426/426 427/427
f 305/305 427/427 306/306
f 306/306 427/427 428/428
f 306/306 428/428 307/307
f 307/307 428/428 429/429
f 307/307 429/429 308/308
f 308/308 429/429 430/430
f 308/308 430/430 309/309
f 309/309 430/430 431/431
f 309/309 431/431 310/310
f 310/310 431/431 432/432
f 310/310 432/432 311/311
f 311/311 432/432 433/433
f 311/311 433/433 312/312
f 312/312 433/433 434/434
f 312/312 434/434 313/313
f 313/313 434/434 435/435
f 313/313 435/435 314/314
f 314/314 435/435 436/436
f 314/314 436/436 315/315
f 315/315 436/436 437/437
f 315/315 437/437 316/316
f 316/316 437/437 438/438
f 316/316 438/438 317/317
f 317/317 438/438 439/439
f 317/317 439/439 318/318
f 318/318 439/439 440/440
f 318/318 440/440 319/319
f 319/319 440/440 441/441
f 319/319 441/441 320/320
f 320/320 441/441 442/442
f 320/320 442/442 321/321
f 321/321 442/442 443/443
f 321/321 443/443 322/322
f 322/322 443/443 444/444
f 322/322 444/444 323/323
f 323/323 444/444 445/445
f 323/323 445/445 324/324
f 324/324 445/445 446/446
f 324/324 446/446 325/325
f 325/325 446/446 447/447
f 325/325 447/447 326/326
f 326/326 447/447 448/448
f 326/326 448/448 327/327
f 327/327 448/448 449/449
f 327/327 449/449 328/328
f 328/328 449/449 450/450
f 328/328 450/450 329/329
f 329/329 450/450 451/451
f 329/329 451/451 330/330
f 330/330 451/451 452/452
f 330/330 452/452 331/331
f 331/331 452/452 453/453
f 331/331 453/453 332/332
f 332/332 453/453 454/454
f 332/332 454/454 333/333
f 333/333 454/454 455/455
f 333/333 455/455 334/334
f 334/334 455/455 456/456
f 334/334 456/456 335/335
f 335/335 456/456 457/457
f 335/335 457/457 336/336
f 336/336 457/457 458/458
f 336/336 458/458 337/337
f 337/337 458/458 459/459
f 337/337 459/459 338/338
f 338/338 459/459 460/460
f 338/338 460/460 339/339
f 339/339 460/460 461/461
f 339/339 461/461 340/340
f 340/340 461/461 462/462
f 340/340 462/462 341/341
f 341/341 462/462 463/463
f 341/341 463/463 342/342
f 342/342 463/463 464/464
f 342/342 464/464 343/343
f 343/343 464/464 465/465
f 343/343 465/465 344/344
f 344/344 465/465 466/466
f 344/344 466/466 345/345
f 345/345 466/466 467/467
f 345/345 467/467 346/346
f 346/346 467/467 468/468
f 346/346 468/468 347/347
f 347/347 468/468 469/469
f 347/347 469/469 348/348
f 348/348 469/469 470/470
f 348/348 470/470 349/349
f 349/349 470/470 471/471
f 349/349 471/471 350/350
f 350/350 471/471 472/472
f 350/350 472/472 351/351
f 351/351 472/472 473/473
f 351/351 473/473 352/352
f 352/352 473/473 474/474
f 352/352 474/474 353/353
f 353/353 474/474 475/475
f 353/353 475/475 354/354
f 354/354 475/475 476/476
f 354/354 476/476 355/355
f 355/355 476/476 477/477
f 355/355 477/477 356/356
f 356/356 477/477 478/478
f 356/356 478/478 357/357
f 357/357 478/478 479/479
f 357/357 479/479 358/358
f 358/358 479/479 480/480
f 358/358 480/480 359/359
f 359/359 480/480 481/481
f 359/359 481/481 360/360
f 360/360 481/481 482/482
f 360/360 482/482 361/361
f 361/361 482/482 483/483
f 361/361 483/483 362/362
f 362/362 483/483 484/484
f 362/362 484/484 363/363
f 364/364 485/485 486/486
f 364/364 486/486 365/365
f 365/365 486/486 487/487
f 365/365 487/487 366/366
f 366/366 487/487 488/488
f 366/366 488/488 367/367
f 367/367 488/488 489/489
f 367/367 489/489 368/368
f 368/368 489/489 490/490
f 368/368 490/490 369/369
f 369/369 490/490 491/491
f 369/369 491/491 370/370
f 370/370 491/491 492/492
f 370/370 492/492 371/371
f 371/371 492/492 493/493
f 371/371 493/493 372/372
f 372/372 493/493 494/494
f 372/372 494/494 373/373
f 373/373 494/494 495/495
f 373/373 495/495 374/374
f 374/374 495/495 496/496
f 374/374 496/496 375/375
f 375/375 496/496 497/497
f 375/375 497/497 376/376
f 376/376 497/497 498/498
f 376/376 498/498 377/377
f 377/377 498/498 499/499
f 377/377 499/499 378/378
f 378/378 499/499 500/500
f 378/378 500/500 379/379
f 379/379 500/500 501/501
f 379/379 501/501 380/380
f 380/380 501/501 502/502
f 380/380 502/502 381/381
f 381/381 502/502 503/503
f 381/381 503/503 382/382
f 382/382 503/503 504/504
f 382/382 504/504 383/383
f 383/383 504/504 505/505
f 383/383 505/505 384/384
f 384/384 505/505 506/506
f 384/384 506/506 385/385
f 385/385 506/506 507/507
f 385/385 507/507 386/386
f 386/386 507/507 508/508
f 386/386 508/508 387/387
f 387/387 508/508 509/509
f 387/387 509/509 388/388
f 388/388 509/509 510/510
f 388/388 510/510 389/389
f 389/389 510/510 511/511
f 389/389 511/511 390/390
f 390/390 511/511 512/512
f 390/390 512/512 391/391
f 391/391 512/512 513/513
f 391/391 513/513 392/392
f 392/392 513/513 514/514
f 392/392 514/514 393/393
f 393/393 514/514 515/515
f 393/393 515/515 394/394
f 394/394 515/515 516/516
f 394/394 516/516 395/395
f 395/395 516/516 517/517
f 395/395 517/517 396/396
f 396/396 517/517 518/518
f 396/396 518/518 397/397
f 397/397 518/518 519/519
f 397/397 519/519 398/398
f 398/398 519/519 520/520
f 398/398 520/520 399/399
f 399/399 520/520 521/521
f 399/399 521/521 400/400
f 400/400 521/521 522/522
f 400/400 522/522 401/401
f 401/401 522/522 523/523
f 401/401 523/523 402/402
f 402/402 523/523 524/524
f 402/402 524/524 403/403
f 403/403 524/524 525/525
f 403/403 525/525 404/404
f 404/404 525/525 526/526
f 404/404 526/526 405/405
f 405/405 526/526 527/527
f 405/405 527/527 406/406
f 406/406 527/527 528/528
f 406/406 528/528 407/407
f 407/407 528/528 529/529
f 407/407 529/529 408/408
f 408/408 529/529 530/530
f 408/408 530/530 409/409
f 409/409 530/530 531/531
f 409/409 531/531 410/410
f 410/410 531/531 532/532
f 410/410 532/532 411/411
f 411/411 532/532 533/533
f 411/411 533/533 412/412
f 412/412 533/533 534/534
f 412/412 534/534 413/413
f 413/413 534/534 535/535
f 413/413 535/535 414/414
f 414/414 535/535 536/536
f 414/414 536/536 415/415
f 415/415 536/536 537/537
f 415/415 537/537 416/416
f 416/416 537/537 538/538
f 416/416 538/538 417/417
f 417/417 538/538 539/539
f 417/417 539/539 418/418
f 418/418 539/539 540/540
f 418/418 540/540 419/419
f 419/419 540/540 541/541
f 419/419 541/541 420/420
f 420/420 541/541 542/542
f 420/420 542/542 421/421
f 421/421 542/542 543/543
f 421/421 543/543 422/422
f 422/422 543/543 544/544
f 422/422 544/544 423/423
f 423/423 544/544 545/545
f 423/423 545/545 424/424
f 424/424 545/545 546/546
f 424/424 546/546 425/425
f 425/425 546/546 547/547
f 425/425 547/547 426/426
f 426/426 547/547 548/548
f 426/426 548/548 427/427
f 427/427 548/548 549/549
f 427/427 549/549 428/428
f 428/428 549/549 550/550
f 428/428 550/550 429/429
f 429/429 550/550 551/551
f 429/429 551/551 430/430
f 430/430 551/551 552/552
f 430/430 552/552 431/431
f 431/431 552/552 553/553
f 431/431 553/553 432/432
f 432/432 553/553 554/554
f 432/432 554/554 433/433
f 433/433 554/554 555/555
f 433/433 555/555 434/434
f 434/434 555/555 556/556
f 434/434 556/556 435/435
f 435/435 556/556 557/557
f 435/435 557/557 436/436
f 436/436 557/557 558/558
f 436/436 558/558 437/437
f 437/437 558/558 559/559
f 437/437 559/559 438/438
f 438/438 559/559 560/560
f 438/438 560/560 439/439
f 439/439 560/560 561/561
f 439/439 561/561 440/440
f 440/440 561/561 562/562
f 440/440 562/562 441/441
f 441/441 562/562 563/563
f 441/441 563/563 442/442
f 442/442 563/563 564/564
f 442/442 564/564 443/443
f 443/443 564/564 565/565
f 443/443 565/565 444/444
f 444/444 565/565 566/566
f 444/444 566/566 445/445
f 445/445 566/566 567/567
f 445/445 567/567 446/446
f 446/446 567/567 568/568
f 446/446 568/568 447/447
f 447/447 568/568 569/569
f 447/447 569/569 448/448
f 448/448 569/569 570/570
f 448/448 570/570 449/449
f 449/449 570/570 571/571
f 449/449 571/571 450/450
f 450/450 571/571 572/572
f 450/450 572/572 451/451
f 451/451 572/572 573/573
f 451/451 573/573 452/452
f 452/452 573/573 574/574
f 452/452 574/574 453/453
f 453/453 574/574 575/575
f 453/453 575/575 454/454
f 454/454 575/575 576/576
f 454/454 576/576 455/455
f 455/455 576/576 577/577
f 455/455 577/577 456/456
f 456/456 577/577 578/578
f 456/456 578/578 457/457
f 457/457 578/578 579/579
f 457/457 579/579 458/458
f 458/458 579/579 580/580
f 458/458 580/580 459/459
f 459/459 580/580 581/581
f 459/459 581/581 460/460
f 460/460 581/581 582/582
f 460/460 582/582 461/461
f 461/461 582/582 583/583
f 461/461 583/583 462/462
f 462/462 583/583 584/584
f 462/462 584/584 463/463
f 463/463 584/584 585/585
f 463/463 585/585 464/464
f 464/464 585/585 586/586
f 464/464 586/586 465/465
f 465/465 586/586 587/587
f 465/465 587/587 466/466
f 466/466 587/587 588/588
f 466/466 588/588 467/467
f 467/467 588/588 589/589
f 467/467 589/589 468/468
f 468/468 589/589 590/590
f 468/468 590/590 469/469
f 469/469 590/590 591/591
f 469/469 591/591 470/470
f 470/470 591/591 592/592
f 470/470 592/592 471/471
f 471/471 592/592 593/593
f 471/471 593/593 472/472
f 472/472 593/593 594/594
f 472/472 594/594 473/473
f 473/473 594/594 595/595
f 473/473 595/595 474/474
f 474/474 595/595 596/596
f 474/474 596/596 475/475
f 475/475 596/596 597/597
f 475/475 597/597 476/476
f 476/476 597/597 598/598
f 476/476 598/598 477/477
f 477/477 598/598 599/599
f 477/477 599/599 478/478
f 478/478 599/599 600/600
f 478/478 600/600 479/479
f 479/479 600/600 601/601
f 479/479 601/601 480/480
f 480/480 601/601 602/602
f 480/480 602/602 481/481
f 481/481 602/602 603/603
f 481/481 603/603 482/482
f 482/482 603/603 604/604
f 482/482 604/604 483/483
f 483/483 604/604 605/605
f 483/483 605/605 484/484
f 485/485 606/606 607/607
f 485/485 607/607 486/486
f 486/486 607/607 608/608
f 486/486 608/608 487/487
f 487/487 608/608 609/609
f 487/487 609/609 488/488
f 488/488 609/609 610/610
f 488/488 610/610 489/489
f 489/489 610/610 611/611
f 489/489 611/611 490/490
f 490/490 611/611 612/612
f 490/490 612/612 491/491
f 491/491 612/612 613/613
f 491/491 613/613 492/492
f 492/492 613/613 614/614
f 492/492 614/614 493/493
f 493/493 614/614 615/615
f 493/493 615/615 494/494
f 494/494 615/615 616/616
f 494/494 616/616 495/495
f 495/495 616/616 617/617
f 495/495 617/617 496/496
f 496/496 617/617 618/618
f 496/496 618/618 497/497
f 497/497 618/618 619/619
f 497/497 619/619 498/498
f 498/498 619/619 620/620
f 498/498 620/620 499/499
f 499/499 620/620 621/621
f 499/499 621/621 500/500
f 500/500 621/621 622/622
f 500/500 622/622 501/501
f 501/501 622/622 623/623
f 501/501 623/623 502/502
f 502/502 623/623 624/624
f 502/502 624/624 503/503
f 503/503 624/624 625/625
f 503/503 625/625 504/504
f 504/504 625/625 626/626
f 504/504 626/626 505/505
f 505/505 626/626 627/627
f 505/505 627/627 506/506
f 506/506 627/627 628/628
f 506/506 628/628 507/507
f 507/507 628/628 629/629
f 507/507 629/629 508/508
f 508/508 629/629 630/630
f 508/508 630/630 509/509
f 509/509 630/630 631/631
f 509/509 631/631 510/510
f 510/510 631/631 632/632
f 510/510 632/632 511/511
f 511/511 632/632 633/633
f 511/511 633/633 512/512
f 512/512 633/633 634/634
f 512/512 634/634 513/513
f 513/513 634/634 635/635
f 513/513 635/635 514/514
f 514/514 635/635 636/636
f 514/514 636/636 515/515
f 515/515 636/636 637/637
f 515/515 637/637 516/516
f 516/516 637/637 638/638
f 516/516 638/638 517/517
f 517/517 638/638 639/639
f 517/517 639/639 518/518
f 518/518 639/639 640/640
f 518/518 640/640 519/519
f 519/519 640/640 641/641
f 519/519 641/641 520/520
f 520/520 641/641 642/642
f 520/520 642/642 521/521
f 521/521 642/642 643/643
f 521/521 643/643 522/522
f 522/522 643/643 644/644
f 522/522 644/644 523/523
f 523/523 644/644 645/645
f 523/523 645/645 524/524
f 524/524 645/645 646/646
f 524/524 646/646 525/525
f 525/525 646/646 647/647
f 525/525 647/647 526/526
f 526/526 647/647 648/648
f 526/526 648/648 527/527
f 527/527 648/648 649/649
f 527/527 649/649 528/528
f 528/528 649/649 650/650
f 528/528 650/650 529/529
f 529/529 650/650 651/651
f 529/529 651/651 530/530
f 530/530 651/651 652/652
f 530/530 652/652 531/531
f 531/531 652/652 653/653
f 531/531 653/653 532/532
f 532/532 653/653 654/654
f 532/532 654/654 533/533
f 533/533 654/654 655/655
f 533/533 655/655 534/534
f 534/534 655/655 656/656
f 534/534 656/656 535/535
f 535/535 656/656 657/657
f 535/535 657/657 536/536
f 536/536 657/657 658/658
f 536/536 658/658 537/537
f 537/537 658/658 659/659
f 537/537 659/659 538/538
f 538/538 659/659 660/660
f 538/538 660/660 539/539
f 539/539 660/660 661/661
f 539/539 661/661 540/540
f 540/540 661/661 662/662
f 540/540 662/662 541/541
f 541/541 662/662 663/663
f 541/541 663/663 542/542
f 542/542 663/663 664/664
f 542/542 664/664 543/543
f 543/543 664/664 665/665
f 543/543 665/665 544/544
f 544/544 665/665 666/666
f 544/544 666/666 545/545
f 545/545 666/666 667/667
f 545/545 667/667 546/546
f 546/546 667/667 668/668
f 546/546 668/668 547/547
f 547/547 668/668 669/669
f 547/547 669/669 548/548
f 548/548 669/669 670/670
f 548/548 670/670 549/549
f 549/549 670/670 671/671
f 549/549 671/671 550/550
f 550/550 671/671 672/672
f 550/550 672/672 551/551
f 551/551 672/672 673/673
f 551/551 673/673 552/552
f 552/552 673/673 674/674
f 552/552 674/674 553/553
f 553/553 674/674 675/675
f 553/553 675/675 554/554
f 554/554 675/675 676/676
f 554/554 676/676 555/555
f 555/555 676/676 677/677
f 555/555 677/677 556/556
f 556/556 677/677 678/678
f 556/556 678/678 557/557
f 557/557 678/678 679/679
f 557/557 679/679 558/558
f 558/558 679/679 680/680
f 558/558 680/680 559/559
f 559/559 680/680 681/681
f 559/559 681/681 560/560
f 560/560 681/681 682/682
f 560/560 682/682 561/561
f 561/561 682/682 683/683
f 561/561 683/683 562/562
f 562/562 683/683 684/684
f 562/562 684/684 563/563
f 563/563 684/684 685/685
f 563/563 685/685 564/564
f 564/564 685/685 686/686
f 564/564 686/686 565/565
f 565/565 686/686 687/687
f 565/565 687/687 566/566
f 566/566 687/687 688/688
f 566/566 688/688 567/567
f 567/567 688/688 689/689
f 567/567 689/689 568/568
f 568/568 689/689 690/690
f 568/568 690/690 569/569
f 569/569 690/690 691/691
f 569/569 691/691 570/570
f 570/570 691/691 692/692
f 570/570 692/692 571/571
f 571/571 692/692 693/693
f 571/571 693/693 572/572
f 572/572 693/693 694/694
f 572/572 694/694 573/573
f 573/573 694/694 695/695
f 573/573 695/695 574/574
f 574/574 695/695 696/696
f 574/574 696/696 575/575
f 575/575 696/696 697/697
f 575/575 697/697 576/576
f 576/576 697/697 698/698
f 576/576 698/698 577/577
f 577/577 698/698 699/699
f 577/577 699/699 578/578
f 578/578 699/699 700/700
f 578/578 700/700 579/579
f 579/579 700/700 701/701
f 579/579 701/701 580/580
f 580/580 701/701 702/702
f 580/580 702/702 581/581
f 581/581 702/702 703/703
f 581/581 703/703 582/582
f 582/582 703/703 704/704
f 582/582 704/704 583/583
f 583/583 704/704 705/705
f 583/583 705/705 584/584
f 584/584 705/705 706/706
f 584/584 706/706 585/585
f 585/585 706/706 707/707
f 585/585 707/707 586/586
f 586/586 707/707 708/708
f 586/586 708/708 587/587
f 587/587 708/708 709/709
f 587/587 709/709 588/588
f 588/588 709/709 710/710
f 588/588 710/710 589/589
f 589/589 710/710 711/711
f 589/589 711/711 590/590
f 590/590 711/711 712/712
f 590/590 712/712 591/591
f 591/591 712/712 713/713
f 591/591 713/713 592/592
f 592/592 713/713 714/714
f 592/592 714/714 593/593
f 593/593 714/714 715/715
f 593/593 715/715 594/594
f 594/594 715/715 716/716
f 594/594 716/716 595/595
f 595/595 716/716 717/717
f 595/595 717/717 596/596
f 596/596 717/717 718/718
f 596/596 718/718 597/597
f 597/597 718/718 719/719
f 597/597 719/719 598/598
f 598/598 719/719 720/720
f 598/598 720/720 599/599
f 599/599 720/720 721/721
f 599/599 721/721 600/600
f 600/600 721/721 722/722
f 600/600 722/722 601/601
f 601/601 722/722 723/723
f 601/601 723/723 602/602
f 602/602 723/723 724/724
f 602/602 724/724 603/603
f 603/603 724/724 725/725
f 603/603 725/725 604/604
f 604/604 725/725 726/726
f 604/604 726/726 605/605
