# Basketbroom original 3D environment. Centimetres, Z up.
o SM_BB_ENV_RR_AlcoveBed4
s 1
v 53444.39583 1322.31372 9359.11342
v 52910.73713 2149.85229 9337.79520
v 52117.44307 2966.02130 9317.70987
v 51264.67751 3756.87826 9299.25553
v 50594.79989 4520.17729 9282.79792
v 50313.81805 5267.56970 9268.66326
v 50522.55364 6020.16167 9257.13167
v 51181.32631 6799.37882 9248.43172
v 52120.46971 7617.21014 9242.73584
v 53093.18311 8470.25910 9240.15691
v 53852.64844 9340.44826 9240.74607
v 54227.10894 10202.35377 9244.49162
v 54167.57036 11034.18711 9251.31933
v 53752.55529 11827.66029 9261.09387
v 53149.42445 12592.17596 9273.62153
v 52546.84474 13350.97875 9288.65399
v 52082.75142 14130.25891 9305.89332
v 51793.26335 14945.36455 9324.99783
v 51600.18919 15789.91532 9345.58888
v 51340.88417 16632.93835 9367.25835
v 50829.24585 17426.28965 9389.57676
v 49925.85078 18120.59708 9412.10175
v 48592.34848 18684.31482 9434.38689
v 46911.11636 19118.70362 9455.99049
v 45063.60429 19462.48043 9476.48436
v 43275.26860 19783.33454 9495.46232
v 41746.39566 20158.30284 9512.54822
v 40592.52315 20649.36322 9527.40343
v 39814.21905 21282.83757 9539.73351
v 39305.28535 22040.31518 9549.29410
v 38894.95928 22864.97402 9555.89568
v 38408.20366 23681.67941 9559.40743
v 37722.66546 24424.06104 9559.75974
v 36803.05679 25058.86592 9556.94563
v 35702.51772 25598.45108 9551.02087
v 34532.58811 26096.26182 9542.10289
v 33414.34946 26626.21505 9530.36845
v 32429.27375 27252.91117 9516.05012
v 31587.43420 28003.31441 9499.43168
v 30823.61938 28850.50800 9480.84252
v 30021.37784 29716.21233 9460.65107
v 29055.03238 30492.23566 9439.25752
v 27833.79905 31074.18936 9417.08589
v 26332.24417 31396.11443 9394.57562
v 24597.06694 31453.90105 9372.17286
v 22729.22195 31308.93416 9350.32163
v 20849.23861 31070.11381 9329.45502
v 19059.04435 30859.95257 9309.98661
v 17413.86130 30776.16090 9292.30225
v 15913.04190 30861.91296 9276.75245
v 14511.08940 31095.12585 9263.64541
v 13142.60126 31400.51695 9253.24090
v 11750.29194 31680.20660 9245.74514
v 10305.14253 31852.03116 9241.30670
v 8811.83804 31881.89418 9240.01354
v 7299.12180 31798.46874 9241.89130
v 5800.83240 31684.72315 9246.90276
v 4336.77031 31648.93233 9254.94858
v 2901.95139 31785.17087 9265.86932
v 1468.67364 32137.15325 9279.44851
v 0.00000 32678.29139 9295.41702
v -1531.77048 33315.29882 9313.45835
v -3130.21109 33914.51287 9333.21494
v -4770.41089 34342.19464 9354.29519
v -6407.45537 34505.18608 9376.28131
v -7994.33914 34378.17097 9398.73753
v -9501.58019 34008.44375 9421.21877
v -10929.74783 33496.89244 9443.27946
v -12308.86701 32962.10033 9464.48236
v -13684.17183 32500.19330 9484.40722
v -15093.70735 32154.32208 9502.65914
v -16547.27850 31904.07289 9518.87636
v -18016.41528 31677.96156 9532.73747
v -19441.07140 31384.03153 9543.96773
v -20752.09689 30947.31441 9552.34457
v -21901.71799 30340.69267 9557.70195
v -22890.11333 29598.24511 9559.93369
v -23776.56875 28806.48675 9558.99557
v -24668.78404 28076.74543 9554.90617
v -25691.98300 27508.47277 9547.74654
v -26947.54793 27156.28955 9537.65859
v -28475.78915 27012.03743 9524.84227
v -30237.05622 27007.68697 9509.55158
v -32119.52096 27037.62801 9492.08959
v -33972.53563 26992.25749 9472.80239
v -35654.88160 26791.17419 9452.07226
v -37081.10057 26404.86154 9430.31006
v -38248.93879 25858.15306 9407.94711
v -39237.09863 25215.34928 9385.42666
v -40172.98224 24553.20350 9363.19505
v -41181.21801 23931.89169 9341.69291
v -42331.37540 23374.25419 9321.34641
v -43604.41922 22860.13938 9302.55881
v -44891.42758 22336.97473 9285.70249
v -46026.82581 21741.86628 9271.11154
v -46845.80309 21026.66402 9259.07514
v -47246.24432 20176.81577 9249.83186
v -47232.95783 19217.52916 9243.56490
v -46927.38537 18205.63897 9240.39847
v -46537.65555 17210.76751 9240.39532
v -46297.76683 16292.98012 9243.55552
v -46395.90979 15484.95225 9249.81643
v -46916.34909 14784.53907 9259.05397
v -47815.12497 14159.51710 9271.08505
v -48938.38575 13561.77859 9285.67121
v -50077.35791 12945.07819 9302.52335
v -51041.01469 12279.65465 9321.30747
v -51721.06412 11558.81267 9341.65127
v -52126.34380 10796.02170 9363.15153
v -52374.33647 10014.83525 9385.38213
v -52642.63710 9236.49794 9407.90245
v -53097.48850 8470.56370 9430.26615
v -53824.86908 7712.14698 9452.02997
v -54789.02758 6946.37111 9472.76256
v -55833.93528 6157.47229 9492.05301
v -56728.12916 5338.13636 9509.51898
v -57238.11310 4494.72161 9524.81429
v -57205.27813 3645.96082 9537.63580
v -56599.82460 2815.68181 9547.72937
v -55532.97466 2022.77179 9554.89497
v -54223.12874 1272.89314 9558.99056
v 56098.58449 1153.87145 9919.11342
v 55832.10864 2008.27497 9897.79520
v 55292.98003 2859.51349 9877.70987
v 54635.92253 3693.93347 9859.25553
v 54082.27749 4506.81406 9842.79792
v 53845.83602 5306.42698 9828.66326
v 54058.23505 6111.56662 9817.13167
v 54719.93660 6943.55607 9808.43172
v 55694.08549 7816.26430 9802.73584
v 56745.73870 8728.66855 9800.15691
v 57613.27881 9663.51857 9800.74607
v 58087.76612 10593.08966 9804.49162
v 58073.40918 11489.91100 9811.31933
v 57609.09830 12338.03533 9821.09387
v 56844.61519 13139.89959 9833.62153
v 55980.86063 13915.41544 9848.65399
v 55195.70334 14693.05983 9865.89332
v 54581.59714 15496.17622 9884.99783
v 54116.45392 16330.02616 9905.58888
v 53677.16754 17175.31140 9927.25835
v 53090.01949 17991.70247 9949.57676
v 52199.33695 18731.09464 9972.10175
v 50929.69157 19356.29949 9994.38689
v 49319.63379 19858.26971 10015.99049
v 47515.32723 20264.88134 10036.48436
v 45726.68114 20636.96402 10055.46232
v 44161.59436 21051.81592 10072.54822
v 42961.18480 21579.22355 10087.40343
v 42157.98302 22258.20114 10099.73351
v 41670.54933 23082.95364 10109.29410
v 41335.03670 24003.67354 10115.89568
v 40961.53457 24942.62479 10119.40743
v 40395.03058 25820.36636 10119.75974
v 39560.15752 26582.99801 10116.94563
v 38475.51096 27220.53042 10111.02087
v 37234.61109 27769.32613 10102.10289
v 35962.36667 28297.13149 10090.36845
v 34763.99037 28875.57671 10076.05012
v 33685.01276 29549.84938 10059.43168
v 32696.03905 30316.70790 10040.84252
v 31706.29329 31119.43033 10020.65107
v 30599.45913 31862.48114 9999.25752
v 29277.68242 32441.62660 9977.08589
v 27697.45420 32779.46134 9954.57562
v 25884.92996 32853.95707 9932.17286
v 23926.35230 32709.66617 9910.32163
v 21938.44552 32447.00879 9889.45502
v 20030.52349 32192.66387 9869.98661
v 18272.21384 32060.79747 9852.30225
v 16677.63858 32118.27695 9836.75245
v 15210.05869 32365.84818 9823.64541
v 13803.17183 32741.82661 9813.24090
v 12389.44789 33147.02824 9805.74514
v 10924.16529 33482.19114 9801.30670
v 9396.56523 33684.67129 9800.01354
v 7825.41772 33751.36416 9801.89130
v 6242.79300 33739.59669 9806.90276
v 4674.33729 33745.49908 9814.94858
v 3125.15791 33867.37379 9825.86932
v 1577.38383 34166.99242 9839.44851
v 0.00000 34642.63246 9855.41702
v -1633.97545 35223.67242 9873.45835
v -3331.15975 35789.08127 9893.21494
v -5070.14519 36203.78958 9914.29519
v -6806.52835 36360.65576 9936.28131
v -8489.01879 36213.74975 9958.73753
v -10079.96543 35791.66795 9981.21877
v -11571.34735 35186.50699 10003.27946
v -12988.80899 34522.52326 10024.48236
v -14381.15552 33915.44096 10044.40722
v -15798.93797 33436.42746 10062.65914
v -17270.77281 33092.89862 10078.87636
v -18787.67561 32832.25328 10092.73747
v -20303.06127 32566.54135 10103.96773
v -21750.01478 32208.80856 10112.34457
v -23070.25409 31707.96726 10117.70195
v -24243.77052 31069.82700 10119.93369
v -25306.77925 30357.02617 10118.99557
v -26349.17024 29668.16391 10114.90617
v -27490.03472 29103.73926 10107.74654
v -28838.38218 28730.99921 10097.65859
v -30452.57541 28559.96168 10084.84227
v -32313.65172 28538.75123 10069.55158
v -34323.62490 28569.51564 10052.08959
v -36331.28630 28539.05838 10032.80239
v -38177.95003 28353.43172 10012.07226
v -39747.75138 27964.73523 9990.31006
v -41004.58742 27381.48243 9967.94711
v -42001.80383 26659.90212 9945.42666
v -42860.10312 25880.22015 9923.19505
v -43720.63552 25116.94979 9901.69291
v -44689.66420 24413.81790 9881.34641
v -45794.98571 23771.74941 9862.55881
v -46970.79944 23153.26919 9845.70249
v -48077.94507 22500.68662 9831.11154
v -48953.71084 21760.67846 9819.07514
v -49474.30902 20906.01772 9809.83186
v -49607.73785 19946.73575 9803.56490
v -49437.26641 18927.22819 9800.39847
v -49145.54620 17911.06247 9800.39532
v -48963.06911 16959.56436 9803.55552
v -49097.52651 16112.13820 9809.81643
v -49667.93196 15375.16044 9819.05397
v -50666.37987 14722.75829 9831.08505
v -51961.17257 14108.27826 9845.67121
v -53340.84033 13481.48491 9862.52335
v -54584.26489 12804.85673 9881.30747
v -55532.79361 12063.25709 9901.65127
v -56139.29663 11264.24339 9923.15153
v -56477.03217 10430.06779 9945.38213
v -56705.24994 9585.51112 9967.90245
v -57003.75919 8746.92287 9990.26615
v -57499.79540 7916.84424 10012.02997
v -58213.45516 7085.89610 10032.76256
v -59041.61534 6240.39770 10052.05301
v -59786.78804 5371.78601 10069.51898
v -60221.50344 4483.28992 10084.81429
v -60166.15527 3590.67805 10097.63580
v -59553.27604 2716.62277 10107.72937
v -58455.71513 1881.12813 10114.89497
v -57068.61127 1092.31083 10118.99056
v 53427.25322 1323.40164 10479.11342
v 53444.47467 2123.98597 10457.79520
v 53188.05008 2930.11304 10437.70987
v 52759.03847 3728.97692 10419.25553
v 52346.48800 4513.46522 10402.79792
v 52161.36921 5287.89542 10388.66326
v 52359.92463 6067.66166 10377.13167
v 52983.36678 6872.80121 10368.43172
v 53935.34021 7718.30034 10362.73584
v 55005.50874 8605.55150 10360.15691
v 55931.62604 9519.05021 10360.74607
v 56479.11925 10430.27902 10364.49162
v 56511.23002 11307.63969 10371.31933
v 56026.17884 12128.55171 10381.09387
v 55149.38968 12888.62296 10393.62153
v 54084.41650 13603.70382 10408.65399
v 53040.35429 14303.38711 10425.89332
v 52161.26556 15018.06027 10444.99783
v 51481.88606 15764.52181 10465.58888
v 50924.16998 16536.19728 10487.25835
v 50334.63380 17302.58864 10509.57676
v 49548.16507 18019.17741 10532.10175
v 48454.98696 18644.82347 10554.38689
v 47046.85865 19160.38503 10575.99049
v 45426.38819 19581.21250 10596.48436
v 43776.61901 19957.91450 10615.46232
v 42302.03221 20363.86296 10632.54822
v 41161.85808 20872.86579 10647.40343
v 40418.79319 21534.43270 10659.73351
v 40020.30164 22355.50346 10669.29410
v 39817.94616 23295.69999 10675.89568
v 39616.93722 24278.60439 10679.40743
v 39238.00570 25215.82322 10679.75974
v 38570.22397 26035.76030 10676.94563
v 37597.50169 26706.93353 10671.02087
v 36391.42734 27247.23559 10662.10289
v 35075.17219 27715.33486 10650.36845
v 33772.97574 28186.80563 10636.05012
v 32563.92379 28723.27567 10619.43168
v 31456.08689 29345.76224 10600.84252
v 30388.88032 30022.27284 10580.65107
v 29260.94907 30674.92896 10559.25752
v 27971.87857 31204.95828 10537.08589
v 26461.74578 31527.33648 10514.57562
v 24734.25369 31603.03891 10492.17286
v 22855.98172 31457.25257 10470.32163
v 20933.38476 31176.48516 10449.45502
v 19077.12561 30884.75713 10429.98661
v 17367.27919 30706.44469 10412.30225
v 15831.67830 30728.21856 10396.75245
v 14443.96783 30973.09921 10383.64541
v 13140.19681 31395.63464 10373.24090
v 11846.04219 31899.94723 10365.74514
v 10503.50989 32374.41993 10361.30670
v 9087.21804 32730.92046 10360.01354
v 7605.35861 32934.80372 10361.89130
v 6086.97345 33015.12153 10366.90276
v 4562.58418 33051.42100 10374.94858
v 3047.37787 33141.79535 10385.86932
v 1534.35405 33363.53922 10399.44851
v 0.00000 33740.47380 10415.41702
v -1580.69198 34228.76218 10433.45835
v -3217.26477 34726.60122 10453.21494
v -4893.19890 35104.80854 10474.29519
v -6567.21245 35247.96855 10496.28131
v -8186.72651 35092.05151 10518.73753
v -9708.23878 34645.59451 10541.21877
v -11115.93787 33987.21294 10563.27946
v -12430.12992 33240.39087 10584.48236
v -13700.96895 32534.30040 10604.40722
v -14989.07247 31964.09645 10622.65914
v -16340.38383 31564.10933 10638.87636
v -17765.65840 31302.67117 10652.73747
v -19233.77988 31099.66129 10663.96773
v -20682.99274 30859.95805 10672.34457
v -22046.93752 30510.61037 10677.70195
v -23285.91859 30028.53120 10679.93369
v -24410.80090 29449.14471 10678.99557
v -25488.78014 28853.32700 10674.90617
v -26626.59161 28337.67572 10667.74654
v -27935.30754 27978.90771 10657.65859
v -29488.48830 27805.03241 10644.84227
v -31289.05649 27783.32190 10629.55158
v -33258.19741 27829.02642 10612.08959
v -35252.29348 27831.48590 10592.80239
v -37103.84551 27688.35746 10572.07226
v -38673.17867 27336.15735 10550.31006
v -39892.97858 26766.98232 10527.94711
v -40789.36998 26026.40790 10505.42666
v -41471.03378 25194.23756 10483.19505
v -42089.15174 24355.59288 10461.69291
v -42781.74119 23572.78116 10441.34641
v -43622.18678 22867.53340 10422.55881
v -44591.00057 22219.03676 10405.70249
v -45582.05274 21577.32058 10391.11154
v -46442.30154 20886.15695 10379.07514
v -47031.72662 20106.60833 10369.83186
v -47282.23455 19232.66021 10363.56490
v -47233.80705 18293.73501 10360.39847
v -47033.53349 17343.92525 10360.39532
v -46895.99000 16442.59397 10363.55552
v -47037.23266 15633.83669 10369.81643
v -47604.51165 14932.25169 10379.05397
v -48626.04409 14319.70728 10391.08505
v -49998.80913 13753.49605 10405.67121
v -51519.42895 13182.10616 10422.52335
v -52948.23415 12562.35431 10441.30747
v -54084.87156 11871.63903 10461.65127
v -54829.52579 11111.42248 10483.15153
v -55208.62979 10301.69318 10505.38213
v -55356.25172 9469.62064 10527.90245
v -55457.88782 8637.55623 10550.26615
v -55676.68585 7815.29512 10572.02997
v -56088.43588 6999.31425 10592.76256
v -56648.70039 6178.53571 10612.05301
v -57204.19494 5343.37377 10629.51898
v -57544.91014 4493.54603 10644.81429
v -57478.98755 3640.85037 10657.63580
v -56904.15216 2805.47463 10667.72937
v -55850.48379 2007.38446 10674.89497
v -54479.15895 1256.64475 10678.99056
v 52478.01490 1383.64297 11039.11342
v 52797.96059 2155.31773 11017.79520
v 52849.32691 2941.47385 10997.70987
v 52674.25205 3730.55998 10979.25553
v 52420.13690 4513.18301 10962.79792
v 52284.97447 5289.25526 10948.66326
v 52442.45635 6069.79528 10937.13167
v 52973.35758 6872.39340 10928.43172
v 53827.66864 7712.30292 10922.73584
v 54831.29050 8593.22599 10920.15691
v 55735.58364 9502.20849 10920.74607
v 56293.12914 10411.45502 10924.49162
v 56333.96313 11286.95661 10931.31933
v 55816.45332 12100.79663 10941.09387
v 54835.88006 12842.15266 10953.62153
v 53588.48488 13522.18935 10968.65399
v 52304.06176 14170.27034 10985.89332
v 51170.73082 14822.38854 11004.99783
v 50277.72082 15506.05032 11025.58888
v 49595.15606 16227.66393 11047.25835
v 48996.53339 16967.93367 11069.57676
v 48314.56304 17687.91917 11092.10175
v 47409.62587 18344.28281 11114.38689
v 46226.20241 18908.39203 11135.99049
v 44817.46301 19381.92321 11156.48436
v 43329.88046 19802.35145 11175.46232
v 41953.97582 20235.09800 11192.54822
v 40859.06393 20753.99855 11207.40343
v 40135.05760 21416.35538 11219.73351
v 39761.37018 22241.36318 11229.29410
v 39613.01518 23200.06581 11235.89568
v 39500.83766 24221.26940 11239.40743
v 39231.14909 25212.24066 11239.75974
v 38663.92101 26087.55626 11236.94563
v 37750.07234 26796.18067 11231.02087
v 36536.48986 27337.05678 11222.10289
v 35139.12589 27757.27385 11210.36845
v 33695.54014 28132.98665 11196.05012
v 32314.72834 28539.54501 11179.43168
v 31041.92715 29021.45409 11160.84252
v 29849.68076 29573.22092 11140.65107
v 28656.40000 30138.56125 11119.25752
v 27363.73268 30629.01055 11097.08589
v 25897.85129 30955.95062 11074.57562
v 24239.29654 31064.96327 11052.17286
v 22431.14402 30960.16070 11030.32163
v 20563.80442 30709.28898 11009.45502
v 18743.40368 30426.94495 10989.98661
v 17056.23639 30240.92855 10972.30225
v 15542.37716 30252.84697 10956.75245
v 14187.24662 30506.38146 10943.64541
v 12932.66054 30974.22561 10933.24090
v 11701.56082 31568.37181 10925.74514
v 10426.01656 32170.34581 10921.30670
v 9067.78483 32671.00578 10920.01354
v 7624.57856 33006.12205 10921.89130
v 6121.44161 33175.37950 10926.90276
v 4592.66339 33238.23745 10934.94858
v 3063.07487 33288.22634 10945.86932
v 1537.10415 33414.88924 10959.44851
v 0.00000 33666.98715 10975.41702
v -1570.05790 34030.20247 10993.45835
v -3185.20313 34427.51124 11013.21494
v -4834.85184 34742.42558 11034.29519
v -6483.17475 34857.23952 11056.28131
v -8079.20818 34693.08952 11078.73753
v -9576.01670 34237.93956 11101.21877
v -10950.96332 33552.76219 11123.27946
v -12218.07439 32753.73713 11144.48236
v -13426.29514 31976.56645 11164.40722
v -14643.09247 31335.10672 11182.65914
v -15929.11667 30888.32658 11198.87636
v -17313.87868 30626.52387 11212.73747
v -18782.74184 30480.91050 11223.96773
v -20281.59054 30352.53501 11232.34457
v -21738.67997 30149.92599 11237.70195
v -23096.01578 29822.08488 11239.93369
v -24338.04980 29375.42710 11238.99557
v -25505.52372 28869.18410 11234.90617
v -26687.23405 28391.47888 11227.74654
v -27990.69238 28025.03288 11217.65859
v -29501.09379 27814.90315 11204.84227
v -31243.39415 27749.65527 11189.55158
v -33162.34402 27762.40678 11172.08959
v -35129.67630 27751.07708 11152.80239
v -36978.11353 27610.50553 11132.07226
v -38551.84387 27265.18182 11110.31006
v -39756.36902 26691.46422 11087.94711
v -40589.86328 25922.16606 11065.42666
v -41143.98954 25032.72895 11043.19505
v -41572.65467 24114.56161 11021.69291
v -42038.76347 23245.26712 11001.34641
v -42657.41715 22466.04197 10982.55881
v -43455.97660 21773.46288 10965.70249
v -44365.99393 21127.43442 10951.11154
v -45250.91491 20471.29298 10939.07514
v -45960.52593 19756.02532 10929.83186
v -46393.02120 18959.61587 10923.56490
v -46542.07649 18094.86291 10920.39847
v -46510.92085 17203.58846 10920.39532
v -46486.68331 16340.22757 10923.55552
v -46682.37630 15551.45605 10929.81643
v -47265.75864 14859.53909 10939.05397
v -48299.66087 14255.23305 10951.08505
v -49715.06813 13702.19758 10965.67121
v -51327.30907 13150.52811 10982.52335
v -52890.83231 12553.84586 11001.30747
v -54174.48301 11883.49822 11021.65127
v -55031.76814 11135.01963 11043.15153
v -55442.05615 10325.31819 11065.38213
v -55508.60061 9482.70871 11087.90245
v -55414.29051 8634.47182 11110.26615
v -55350.84670 7797.14554 11132.02997
v -55446.55824 6973.16156 11152.76256
v -55718.22232 6154.48086 11172.05301
v -56064.45750 5330.83501 11189.51898
v -56302.95622 4498.30492 11204.81429
v -56238.66663 3664.00851 11217.63580
v -55738.84951 2844.55899 11227.72937
v -54788.35930 2058.85780 11234.89497
v -53505.28508 1318.44952 11238.99056
v 48581.65916 1630.91665 11599.11342
v 49189.49767 2330.19330 11577.79520
v 49543.20022 3052.36165 11557.70987
v 49623.99551 3787.51157 11539.25553
v 49530.67702 4524.25477 11522.79792
v 49439.03299 5257.94580 11508.66326
v 49532.40600 5994.56423 11497.13167
v 49928.13209 6748.31863 11488.43172
v 50626.16291 7533.97568 11482.73584
v 51498.45649 8357.43606 11480.15691
v 52323.45134 9209.07715 11480.74607
v 52854.14738 10063.39676 11484.49162
v 52896.56317 10885.88905 11491.31933
v 52371.73610 11644.92263 11501.09387
v 51340.20294 12324.00215 11513.62153
v 49980.95873 12929.23341 11528.65399
v 48532.60888 13488.41684 11545.89332
v 47217.28071 14041.41804 11564.99783
v 46173.39047 14625.06460 11585.58888
v 45419.74379 15258.33328 11607.25835
v 44862.09320 15933.92238 11629.57676
v 44338.29450 16620.17471 11652.10175
v 43684.90785 17273.42873 11674.38689
v 42801.10034 17856.67062 11695.99049
v 41687.33724 18357.49434 11716.48436
v 40445.82690 18798.06797 11735.46232
v 39243.49068 19232.34243 11752.54822
v 38251.40355 19730.31502 11767.40343
v 37582.57548 20354.13321 11779.73351
v 37249.97457 21134.30803 11789.29410
v 37159.04222 22054.88172 11795.89568
v 37136.53848 23053.67608 11799.40743
v 36984.89607 24038.57803 11799.75974
v 36542.81513 24915.00369 11796.94563
v 35731.41969 25615.35746 11791.02087
v 34571.15566 26120.14245 11782.10289
v 33165.38826 26462.95345 11770.36845
v 31658.34804 26717.10542 11756.05012
v 30183.50963 26968.20731 11739.43168
v 28820.83065 27282.22248 11720.84252
v 27576.99485 27680.50056 11700.65107
v 26393.75445 28131.09806 11679.25752
v 25179.13826 28560.07904 11657.08589
v 23848.46399 28879.33712 11634.57562
v 22359.45166 29021.35451 11612.17286
v 20728.94722 28968.46318 11590.32163
v 19026.32557 28765.72170 11569.45502
v 17347.53000 28512.03340 11549.98661
v 15780.57039 28331.72794 11532.30225
v 14375.72469 28335.83609 11516.75245
v 13131.03029 28586.18599 11503.64541
v 11997.21795 29074.77955 11493.24090
v 10898.68381 29725.82091 11485.74514
v 9761.35340 30419.99450 11481.30670
v 8536.45080 31032.84554 11480.01354
v 7211.71782 31474.14388 11481.89130
v 5807.28080 31714.70464 11486.90276
v 4359.72246 31791.48392 11494.94858
v 2902.40125 31789.36737 11505.86932
v 1450.95223 31806.25869 11519.44851
v 0.00000 31913.96291 11535.41702
v -1468.22919 32128.85446 11553.45835
v -2968.16808 32402.87945 11573.21494
v -4496.06274 32638.26850 11594.29519
v -6023.70493 32720.95772 11616.28131
v -7504.64343 32561.08579 11638.73753
v -8891.14071 32126.39286 11661.21877
v -10155.05354 31456.78065 11683.27946
v -11303.49482 30654.83604 11704.48236
v -12381.68858 29855.45946 11724.40722
v -13460.37894 29184.94002 11742.65914
v -14611.56949 28723.36970 11758.87636
v -15881.63130 28482.97877 11772.73747
v -17272.65456 28409.31649 11783.96773
v -18740.36189 28404.22752 11792.34457
v -20210.72669 28362.10643 11797.70195
v -21609.94249 28206.55139 11799.93369
v -22896.52588 27914.75247 11798.99557
v -24082.57613 27521.57417 11794.90617
v -25234.53117 27102.61260 11787.74654
v -26451.16693 26742.89744 11777.65859
v -27825.42853 26502.77196 11764.84227
v -29403.58649 26393.17359 11749.55158
v -31157.36855 26368.91664 11732.08959
v -32980.99685 26342.03486 11712.80239
v -34716.52907 26210.15614 11692.07226
v -36200.52500 25889.76348 11670.31006
v -37316.65831 25342.78611 11647.94711
v -38035.73637 24587.63995 11625.42666
v -38428.13084 23691.52032 11603.19505
v -38642.87373 22747.33443 11581.69291
v -38859.47555 21843.79655 11561.34641
v -39228.63028 21039.14326 11542.55881
v -39822.59634 20347.11474 11525.70249
v -40613.26788 19739.09737 11511.11154
v -41486.51547 19160.45595 11499.07514
v -42288.48695 18554.23887 11489.83186
v -42887.80264 17883.29367 11483.56490
v -43231.27149 17143.00856 11480.39847
v -43372.36457 16360.79426 11480.39532
v -43460.86820 15583.48014 11483.55552
v -43695.80087 14858.11635 11489.81643
v -44257.00722 14213.71704 11499.05397
v -45239.02666 13650.63075 11511.08505
v -46610.79822 13140.96630 11525.67121
v -48216.31829 12639.18588 11542.52335
v -49817.34380 12098.27471 11561.30747
v -51164.51444 11485.15887 11581.65127
v -52073.07932 10789.80693 11603.15153
v -52477.45080 10025.27142 11625.38213
v -52445.88821 9219.59552 11647.90245
v -52150.34722 8403.55575 11670.26615
v -51802.12914 7599.47824 11692.02997
v -51575.93108 6815.45661 11712.76256
v -51548.97348 6046.69683 11732.05301
v -51676.57677 5282.56200 11749.51898
v -51812.70072 4515.51057 11764.81429
v -51768.06266 3747.47951 11777.63580
v -51385.12269 2990.58339 11787.72937
v -50603.17948 2261.68257 11794.89497
v -49490.20429 1573.25782 11798.99056
v 48895.39362 1611.00618 12159.11342
v 49778.05298 2301.67037 12137.79520
v 50424.27812 3022.81021 12117.70987
v 50755.73676 3766.38073 12099.25553
v 50818.35207 4519.32069 12082.79792
v 50757.81356 5272.45429 12068.66326
v 50758.99804 6026.27427 12057.13167
v 50971.06601 6790.81196 12048.43172
v 51445.06359 7579.58931 12042.73584
v 52106.46142 8400.45094 12040.15691
v 52772.75936 9247.67655 12040.74607
v 53210.42442 10099.45545 12044.49162
v 53211.60479 10922.64735 12051.31933
v 52664.12820 11683.61781 12061.09387
v 51590.65160 12361.12517 12073.62153
v 50143.59499 12955.96534 12088.65399
v 48557.82770 13492.97623 12105.89332
v 47077.56923 14013.81923 12124.99783
v 45882.56301 14562.63910 12145.58888
v 45038.35532 15169.79316 12167.25835
v 44486.68001 15840.03265 12189.57676
v 44077.74618 16550.20987 12212.10175
v 43631.71992 17258.13723 12234.38689
v 43006.95998 17919.88246 12255.99049
v 42150.91397 18509.21393 12276.48436
v 41116.39225 19031.57185 12295.46232
v 40038.61226 19526.50106 12312.54822
v 39082.34148 20056.51451 12327.40343
v 38378.72937 20685.45475 12339.73351
v 37974.49921 21453.68772 12349.29410
v 37811.19364 22359.21817 12355.89568
v 37741.12819 23352.24866 12359.40743
v 37573.68385 24346.21845 12359.75974
v 37135.21499 25242.48379 12356.94563
v 36321.71736 25960.65569 12351.02087
v 35126.72034 26464.14227 12342.10289
v 33636.17988 26771.68506 12330.36845
v 31993.92257 26950.33511 12316.05012
v 30351.16267 27091.81712 12299.43168
v 28818.33570 27280.26881 12280.84252
v 27435.54220 27562.69708 12260.65107
v 26170.30270 27932.84732 12239.25752
v 24941.09615 28334.64003 12217.08589
v 23656.10040 28684.41798 12194.57562
v 22251.87104 28904.40195 12172.17286
v 20717.82925 28955.45433 12150.32163
v 19098.62991 28857.12350 12129.45502
v 17475.17775 28687.14535 12109.98661
v 15932.90085 28559.71035 12092.30225
v 14530.02361 28589.37577 12076.75245
v 13277.68855 28852.80990 12063.64541
v 12138.49784 29361.65288 12053.24090
v 11042.64005 30056.19119 12045.74514
v 9914.18249 30822.46092 12041.30670
v 8696.81840 31527.27619 12040.01354
v 7369.43751 32059.38510 12041.89130
v 5946.65880 32362.73566 12046.90276
v 4465.83257 32450.51439 12054.94858
v 2967.35516 32395.29599 12065.86932
v 1477.34059 32298.98265 12079.44851
v 0.00000 32253.28256 12095.41702
v -1477.65090 32304.77671 12113.45835
v -2971.82331 32436.97759 12133.21494
v -4485.99894 32575.76406 12154.29519
v -6001.19624 32616.30473 12176.28131
v -7477.93403 32461.97678 12198.73753
v -8870.10211 32061.52860 12221.21877
v -10145.38497 31431.31903 12243.27946
v -11303.42432 30654.67425 12264.48236
v -12383.12979 29858.38587 12284.40722
v -13454.53438 29174.31464 12302.65914
v -14596.84713 28699.17833 12318.87636
v -15870.36890 28466.12313 12332.73747
v -17293.17659 28437.46937 12343.96773
v -18832.43033 28520.61363 12352.34457
v -20414.97523 28601.09248 12357.70195
v -21954.44451 28581.06491 12359.93369
v -23385.19951 28409.91816 12358.99557
v -24689.96652 28096.80640 12354.90617
v -25909.55632 27701.50805 12347.74654
v -27129.29793 27307.65314 12337.65859
v -28445.62125 26988.41443 12324.84227
v -29924.30088 26777.09390 12309.55158
v -31566.03477 26652.94622 12292.08959
v -33293.42723 26546.91773 12272.80239
v -34966.34160 26364.83744 12252.07226
v -36422.36945 26019.53275 12230.31006
v -37529.52594 25460.45986 12207.94711
v -38232.88789 24690.65122 12185.42666
v -38577.98755 23765.52605 12163.19505
v -38701.27889 22774.59009 12141.69291
v -38789.42923 21812.91924 12121.34641
v -39020.51275 20952.53460 12102.55881
v -39507.22395 20223.30969 12085.70249
v -40262.23404 19609.23090 12071.11154
v -41198.51361 19060.16810 12059.07514
v -42165.24073 18513.90280 12049.83186
v -43007.08466 17919.92074 12043.56490
v -43625.84520 17256.44825 12040.39847
v -44021.96133 16535.23000 12040.39532
v -44300.03122 15793.35234 12043.55552
v -44635.04209 15076.16315 12049.81643
v -45210.12139 14418.30095 12059.05397
v -46147.24186 13830.04095 12071.08505
v -47455.53105 13293.68836 12085.67121
v -49016.31753 12770.67885 12102.52335
v -50611.56518 12215.99903 12121.30747
v -51987.21618 11594.03525 12141.65127
v -52930.51937 10889.85098 12163.15153
v -53335.13744 10112.07761 12185.38213
v -53231.68848 9287.10249 12207.90245
v -52773.14376 8447.61710 12230.26615
v -52180.10387 7620.53183 12252.02997
v -51664.93486 6819.08298 12272.76256
v -51361.12272 6041.84048 12292.05301
v -51282.35239 5278.22497 12309.51898
v -51325.34577 4517.37800 12324.81429
v -51315.06716 3755.93743 12337.63580
v -51075.95788 3000.95281 12347.72937
v -50503.66999 2266.50507 12354.89497
v -49611.58111 1565.55491 12358.99056
vt 53.444396 9.359113
vt 52.910737 9.337795
vt 52.117443 9.317710
vt 51.264678 9.299256
vt 50.594800 9.282798
vt 50.313818 9.268663
vt 50.522554 9.257132
vt 51.181326 9.248432
vt 52.120470 9.242736
vt 53.093183 9.240157
vt 53.852648 9.240746
vt 54.227109 9.244492
vt 54.167570 9.251319
vt 53.752555 9.261094
vt 53.149424 9.273622
vt 52.546845 9.288654
vt 52.082751 9.305893
vt 51.793263 9.324998
vt 51.600189 9.345589
vt 51.340884 9.367258
vt 50.829246 9.389577
vt 49.925851 9.412102
vt 48.592348 9.434387
vt 46.911116 9.455990
vt 45.063604 9.476484
vt 43.275269 9.495462
vt 41.746396 9.512548
vt 40.592523 9.527403
vt 39.814219 9.539734
vt 39.305285 9.549294
vt 38.894959 9.555896
vt 38.408204 9.559407
vt 37.722665 9.559760
vt 36.803057 9.556946
vt 35.702518 9.551021
vt 34.532588 9.542103
vt 33.414349 9.530368
vt 32.429274 9.516050
vt 31.587434 9.499432
vt 30.823619 9.480843
vt 30.021378 9.460651
vt 29.055032 9.439258
vt 27.833799 9.417086
vt 26.332244 9.394576
vt 24.597067 9.372173
vt 22.729222 9.350322
vt 20.849239 9.329455
vt 19.059044 9.309987
vt 17.413861 9.292302
vt 15.913042 9.276752
vt 14.511089 9.263645
vt 13.142601 9.253241
vt 11.750292 9.245745
vt 10.305143 9.241307
vt 8.811838 9.240014
vt 7.299122 9.241891
vt 5.800832 9.246903
vt 4.336770 9.254949
vt 2.901951 9.265869
vt 1.468674 9.279449
vt 0.000000 9.295417
vt -1.531770 9.313458
vt -3.130211 9.333215
vt -4.770411 9.354295
vt -6.407455 9.376281
vt -7.994339 9.398738
vt -9.501580 9.421219
vt -10.929748 9.443279
vt -12.308867 9.464482
vt -13.684172 9.484407
vt -15.093707 9.502659
vt -16.547278 9.518876
vt -18.016415 9.532737
vt -19.441071 9.543968
vt -20.752097 9.552345
vt -21.901718 9.557702
vt -22.890113 9.559934
vt -23.776569 9.558996
vt -24.668784 9.554906
vt -25.691983 9.547747
vt -26.947548 9.537659
vt -28.475789 9.524842
vt -30.237056 9.509552
vt -32.119521 9.492090
vt -33.972536 9.472802
vt -35.654882 9.452072
vt -37.081101 9.430310
vt -38.248939 9.407947
vt -39.237099 9.385427
vt -40.172982 9.363195
vt -41.181218 9.341693
vt -42.331375 9.321346
vt -43.604419 9.302559
vt -44.891428 9.285702
vt -46.026826 9.271112
vt -46.845803 9.259075
vt -47.246244 9.249832
vt -47.232958 9.243565
vt -46.927385 9.240398
vt -46.537656 9.240395
vt -46.297767 9.243556
vt -46.395910 9.249816
vt -46.916349 9.259054
vt -47.815125 9.271085
vt -48.938386 9.285671
vt -50.077358 9.302523
vt -51.041015 9.321307
vt -51.721064 9.341651
vt -52.126344 9.363152
vt -52.374336 9.385382
vt -52.642637 9.407902
vt -53.097488 9.430266
vt -53.824869 9.452030
vt -54.789028 9.472763
vt -55.833935 9.492053
vt -56.728129 9.509519
vt -57.238113 9.524814
vt -57.205278 9.537636
vt -56.599825 9.547729
vt -55.532975 9.554895
vt -54.223129 9.558991
vt 56.098584 9.919113
vt 55.832109 9.897795
vt 55.292980 9.877710
vt 54.635923 9.859256
vt 54.082277 9.842798
vt 53.845836 9.828663
vt 54.058235 9.817132
vt 54.719937 9.808432
vt 55.694085 9.802736
vt 56.745739 9.800157
vt 57.613279 9.800746
vt 58.087766 9.804492
vt 58.073409 9.811319
vt 57.609098 9.821094
vt 56.844615 9.833622
vt 55.980861 9.848654
vt 55.195703 9.865893
vt 54.581597 9.884998
vt 54.116454 9.905589
vt 53.677168 9.927258
vt 53.090019 9.949577
vt 52.199337 9.972102
vt 50.929692 9.994387
vt 49.319634 10.015990
vt 47.515327 10.036484
vt 45.726681 10.055462
vt 44.161594 10.072548
vt 42.961185 10.087403
vt 42.157983 10.099734
vt 41.670549 10.109294
vt 41.335037 10.115896
vt 40.961535 10.119407
vt 40.395031 10.119760
vt 39.560158 10.116946
vt 38.475511 10.111021
vt 37.234611 10.102103
vt 35.962367 10.090368
vt 34.763990 10.076050
vt 33.685013 10.059432
vt 32.696039 10.040843
vt 31.706293 10.020651
vt 30.599459 9.999258
vt 29.277682 9.977086
vt 27.697454 9.954576
vt 25.884930 9.932173
vt 23.926352 9.910322
vt 21.938446 9.889455
vt 20.030523 9.869987
vt 18.272214 9.852302
vt 16.677639 9.836752
vt 15.210059 9.823645
vt 13.803172 9.813241
vt 12.389448 9.805745
vt 10.924165 9.801307
vt 9.396565 9.800014
vt 7.825418 9.801891
vt 6.242793 9.806903
vt 4.674337 9.814949
vt 3.125158 9.825869
vt 1.577384 9.839449
vt 0.000000 9.855417
vt -1.633975 9.873458
vt -3.331160 9.893215
vt -5.070145 9.914295
vt -6.806528 9.936281
vt -8.489019 9.958738
vt -10.079965 9.981219
vt -11.571347 10.003279
vt -12.988809 10.024482
vt -14.381156 10.044407
vt -15.798938 10.062659
vt -17.270773 10.078876
vt -18.787676 10.092737
vt -20.303061 10.103968
vt -21.750015 10.112345
vt -23.070254 10.117702
vt -24.243771 10.119934
vt -25.306779 10.118996
vt -26.349170 10.114906
vt -27.490035 10.107747
vt -28.838382 10.097659
vt -30.452575 10.084842
vt -32.313652 10.069552
vt -34.323625 10.052090
vt -36.331286 10.032802
vt -38.177950 10.012072
vt -39.747751 9.990310
vt -41.004587 9.967947
vt -42.001804 9.945427
vt -42.860103 9.923195
vt -43.720636 9.901693
vt -44.689664 9.881346
vt -45.794986 9.862559
vt -46.970799 9.845702
vt -48.077945 9.831112
vt -48.953711 9.819075
vt -49.474309 9.809832
vt -49.607738 9.803565
vt -49.437266 9.800398
vt -49.145546 9.800395
vt -48.963069 9.803556
vt -49.097527 9.809816
vt -49.667932 9.819054
vt -50.666380 9.831085
vt -51.961173 9.845671
vt -53.340840 9.862523
vt -54.584265 9.881307
vt -55.532794 9.901651
vt -56.139297 9.923152
vt -56.477032 9.945382
vt -56.705250 9.967902
vt -57.003759 9.990266
vt -57.499795 10.012030
vt -58.213455 10.032763
vt -59.041615 10.052053
vt -59.786788 10.069519
vt -60.221503 10.084814
vt -60.166155 10.097636
vt -59.553276 10.107729
vt -58.455715 10.114895
vt -57.068611 10.118991
vt 53.427253 10.479113
vt 53.444475 10.457795
vt 53.188050 10.437710
vt 52.759038 10.419256
vt 52.346488 10.402798
vt 52.161369 10.388663
vt 52.359925 10.377132
vt 52.983367 10.368432
vt 53.935340 10.362736
vt 55.005509 10.360157
vt 55.931626 10.360746
vt 56.479119 10.364492
vt 56.511230 10.371319
vt 56.026179 10.381094
vt 55.149390 10.393622
vt 54.084416 10.408654
vt 53.040354 10.425893
vt 52.161266 10.444998
vt 51.481886 10.465589
vt 50.924170 10.487258
vt 50.334634 10.509577
vt 49.548165 10.532102
vt 48.454987 10.554387
vt 47.046859 10.575990
vt 45.426388 10.596484
vt 43.776619 10.615462
vt 42.302032 10.632548
vt 41.161858 10.647403
vt 40.418793 10.659734
vt 40.020302 10.669294
vt 39.817946 10.675896
vt 39.616937 10.679407
vt 39.238006 10.679760
vt 38.570224 10.676946
vt 37.597502 10.671021
vt 36.391427 10.662103
vt 35.075172 10.650368
vt 33.772976 10.636050
vt 32.563924 10.619432
vt 31.456087 10.600843
vt 30.388880 10.580651
vt 29.260949 10.559258
vt 27.971879 10.537086
vt 26.461746 10.514576
vt 24.734254 10.492173
vt 22.855982 10.470322
vt 20.933385 10.449455
vt 19.077126 10.429987
vt 17.367279 10.412302
vt 15.831678 10.396752
vt 14.443968 10.383645
vt 13.140197 10.373241
vt 11.846042 10.365745
vt 10.503510 10.361307
vt 9.087218 10.360014
vt 7.605359 10.361891
vt 6.086973 10.366903
vt 4.562584 10.374949
vt 3.047378 10.385869
vt 1.534354 10.399449
vt 0.000000 10.415417
vt -1.580692 10.433458
vt -3.217265 10.453215
vt -4.893199 10.474295
vt -6.567212 10.496281
vt -8.186727 10.518738
vt -9.708239 10.541219
vt -11.115938 10.563279
vt -12.430130 10.584482
vt -13.700969 10.604407
vt -14.989072 10.622659
vt -16.340384 10.638876
vt -17.765658 10.652737
vt -19.233780 10.663968
vt -20.682993 10.672345
vt -22.046938 10.677702
vt -23.285919 10.679934
vt -24.410801 10.678996
vt -25.488780 10.674906
vt -26.626592 10.667747
vt -27.935308 10.657659
vt -29.488488 10.644842
vt -31.289056 10.629552
vt -33.258197 10.612090
vt -35.252293 10.592802
vt -37.103846 10.572072
vt -38.673179 10.550310
vt -39.892979 10.527947
vt -40.789370 10.505427
vt -41.471034 10.483195
vt -42.089152 10.461693
vt -42.781741 10.441346
vt -43.622187 10.422559
vt -44.591001 10.405702
vt -45.582053 10.391112
vt -46.442302 10.379075
vt -47.031727 10.369832
vt -47.282235 10.363565
vt -47.233807 10.360398
vt -47.033533 10.360395
vt -46.895990 10.363556
vt -47.037233 10.369816
vt -47.604512 10.379054
vt -48.626044 10.391085
vt -49.998809 10.405671
vt -51.519429 10.422523
vt -52.948234 10.441307
vt -54.084872 10.461651
vt -54.829526 10.483152
vt -55.208630 10.505382
vt -55.356252 10.527902
vt -55.457888 10.550266
vt -55.676686 10.572030
vt -56.088436 10.592763
vt -56.648700 10.612053
vt -57.204195 10.629519
vt -57.544910 10.644814
vt -57.478988 10.657636
vt -56.904152 10.667729
vt -55.850484 10.674895
vt -54.479159 10.678991
vt 52.478015 11.039113
vt 52.797961 11.017795
vt 52.849327 10.997710
vt 52.674252 10.979256
vt 52.420137 10.962798
vt 52.284974 10.948663
vt 52.442456 10.937132
vt 52.973358 10.928432
vt 53.827669 10.922736
vt 54.831291 10.920157
vt 55.735584 10.920746
vt 56.293129 10.924492
vt 56.333963 10.931319
vt 55.816453 10.941094
vt 54.835880 10.953622
vt 53.588485 10.968654
vt 52.304062 10.985893
vt 51.170731 11.004998
vt 50.277721 11.025589
vt 49.595156 11.047258
vt 48.996533 11.069577
vt 48.314563 11.092102
vt 47.409626 11.114387
vt 46.226202 11.135990
vt 44.817463 11.156484
vt 43.329880 11.175462
vt 41.953976 11.192548
vt 40.859064 11.207403
vt 40.135058 11.219734
vt 39.761370 11.229294
vt 39.613015 11.235896
vt 39.500838 11.239407
vt 39.231149 11.239760
vt 38.663921 11.236946
vt 37.750072 11.231021
vt 36.536490 11.222103
vt 35.139126 11.210368
vt 33.695540 11.196050
vt 32.314728 11.179432
vt 31.041927 11.160843
vt 29.849681 11.140651
vt 28.656400 11.119258
vt 27.363733 11.097086
vt 25.897851 11.074576
vt 24.239297 11.052173
vt 22.431144 11.030322
vt 20.563804 11.009455
vt 18.743404 10.989987
vt 17.056236 10.972302
vt 15.542377 10.956752
vt 14.187247 10.943645
vt 12.932661 10.933241
vt 11.701561 10.925745
vt 10.426017 10.921307
vt 9.067785 10.920014
vt 7.624579 10.921891
vt 6.121442 10.926903
vt 4.592663 10.934949
vt 3.063075 10.945869
vt 1.537104 10.959449
vt 0.000000 10.975417
vt -1.570058 10.993458
vt -3.185203 11.013215
vt -4.834852 11.034295
vt -6.483175 11.056281
vt -8.079208 11.078738
vt -9.576017 11.101219
vt -10.950963 11.123279
vt -12.218074 11.144482
vt -13.426295 11.164407
vt -14.643092 11.182659
vt -15.929117 11.198876
vt -17.313879 11.212737
vt -18.782742 11.223968
vt -20.281591 11.232345
vt -21.738680 11.237702
vt -23.096016 11.239934
vt -24.338050 11.238996
vt -25.505524 11.234906
vt -26.687234 11.227747
vt -27.990692 11.217659
vt -29.501094 11.204842
vt -31.243394 11.189552
vt -33.162344 11.172090
vt -35.129676 11.152802
vt -36.978114 11.132072
vt -38.551844 11.110310
vt -39.756369 11.087947
vt -40.589863 11.065427
vt -41.143990 11.043195
vt -41.572655 11.021693
vt -42.038763 11.001346
vt -42.657417 10.982559
vt -43.455977 10.965702
vt -44.365994 10.951112
vt -45.250915 10.939075
vt -45.960526 10.929832
vt -46.393021 10.923565
vt -46.542076 10.920398
vt -46.510921 10.920395
vt -46.486683 10.923556
vt -46.682376 10.929816
vt -47.265759 10.939054
vt -48.299661 10.951085
vt -49.715068 10.965671
vt -51.327309 10.982523
vt -52.890832 11.001307
vt -54.174483 11.021651
vt -55.031768 11.043152
vt -55.442056 11.065382
vt -55.508601 11.087902
vt -55.414291 11.110266
vt -55.350847 11.132030
vt -55.446558 11.152763
vt -55.718222 11.172053
vt -56.064458 11.189519
vt -56.302956 11.204814
vt -56.238667 11.217636
vt -55.738850 11.227729
vt -54.788359 11.234895
vt -53.505285 11.238991
vt 48.581659 11.599113
vt 49.189498 11.577795
vt 49.543200 11.557710
vt 49.623996 11.539256
vt 49.530677 11.522798
vt 49.439033 11.508663
vt 49.532406 11.497132
vt 49.928132 11.488432
vt 50.626163 11.482736
vt 51.498456 11.480157
vt 52.323451 11.480746
vt 52.854147 11.484492
vt 52.896563 11.491319
vt 52.371736 11.501094
vt 51.340203 11.513622
vt 49.980959 11.528654
vt 48.532609 11.545893
vt 47.217281 11.564998
vt 46.173390 11.585589
vt 45.419744 11.607258
vt 44.862093 11.629577
vt 44.338294 11.652102
vt 43.684908 11.674387
vt 42.801100 11.695990
vt 41.687337 11.716484
vt 40.445827 11.735462
vt 39.243491 11.752548
vt 38.251404 11.767403
vt 37.582575 11.779734
vt 37.249975 11.789294
vt 37.159042 11.795896
vt 37.136538 11.799407
vt 36.984896 11.799760
vt 36.542815 11.796946
vt 35.731420 11.791021
vt 34.571156 11.782103
vt 33.165388 11.770368
vt 31.658348 11.756050
vt 30.183510 11.739432
vt 28.820831 11.720843
vt 27.576995 11.700651
vt 26.393754 11.679258
vt 25.179138 11.657086
vt 23.848464 11.634576
vt 22.359452 11.612173
vt 20.728947 11.590322
vt 19.026326 11.569455
vt 17.347530 11.549987
vt 15.780570 11.532302
vt 14.375725 11.516752
vt 13.131030 11.503645
vt 11.997218 11.493241
vt 10.898684 11.485745
vt 9.761353 11.481307
vt 8.536451 11.480014
vt 7.211718 11.481891
vt 5.807281 11.486903
vt 4.359722 11.494949
vt 2.902401 11.505869
vt 1.450952 11.519449
vt 0.000000 11.535417
vt -1.468229 11.553458
vt -2.968168 11.573215
vt -4.496063 11.594295
vt -6.023705 11.616281
vt -7.504643 11.638738
vt -8.891141 11.661219
vt -10.155054 11.683279
vt -11.303495 11.704482
vt -12.381689 11.724407
vt -13.460379 11.742659
vt -14.611569 11.758876
vt -15.881631 11.772737
vt -17.272655 11.783968
vt -18.740362 11.792345
vt -20.210727 11.797702
vt -21.609942 11.799934
vt -22.896526 11.798996
vt -24.082576 11.794906
vt -25.234531 11.787747
vt -26.451167 11.777659
vt -27.825429 11.764842
vt -29.403586 11.749552
vt -31.157369 11.732090
vt -32.980997 11.712802
vt -34.716529 11.692072
vt -36.200525 11.670310
vt -37.316658 11.647947
vt -38.035736 11.625427
vt -38.428131 11.603195
vt -38.642874 11.581693
vt -38.859476 11.561346
vt -39.228630 11.542559
vt -39.822596 11.525702
vt -40.613268 11.511112
vt -41.486515 11.499075
vt -42.288487 11.489832
vt -42.887803 11.483565
vt -43.231271 11.480398
vt -43.372365 11.480395
vt -43.460868 11.483556
vt -43.695801 11.489816
vt -44.257007 11.499054
vt -45.239027 11.511085
vt -46.610798 11.525671
vt -48.216318 11.542523
vt -49.817344 11.561307
vt -51.164514 11.581651
vt -52.073079 11.603152
vt -52.477451 11.625382
vt -52.445888 11.647902
vt -52.150347 11.670266
vt -51.802129 11.692030
vt -51.575931 11.712763
vt -51.548973 11.732053
vt -51.676577 11.749519
vt -51.812701 11.764814
vt -51.768063 11.777636
vt -51.385123 11.787729
vt -50.603179 11.794895
vt -49.490204 11.798991
vt 48.895394 12.159113
vt 49.778053 12.137795
vt 50.424278 12.117710
vt 50.755737 12.099256
vt 50.818352 12.082798
vt 50.757814 12.068663
vt 50.758998 12.057132
vt 50.971066 12.048432
vt 51.445064 12.042736
vt 52.106461 12.040157
vt 52.772759 12.040746
vt 53.210424 12.044492
vt 53.211605 12.051319
vt 52.664128 12.061094
vt 51.590652 12.073622
vt 50.143595 12.088654
vt 48.557828 12.105893
vt 47.077569 12.124998
vt 45.882563 12.145589
vt 45.038355 12.167258
vt 44.486680 12.189577
vt 44.077746 12.212102
vt 43.631720 12.234387
vt 43.006960 12.255990
vt 42.150914 12.276484
vt 41.116392 12.295462
vt 40.038612 12.312548
vt 39.082341 12.327403
vt 38.378729 12.339734
vt 37.974499 12.349294
vt 37.811194 12.355896
vt 37.741128 12.359407
vt 37.573684 12.359760
vt 37.135215 12.356946
vt 36.321717 12.351021
vt 35.126720 12.342103
vt 33.636180 12.330368
vt 31.993923 12.316050
vt 30.351163 12.299432
vt 28.818336 12.280843
vt 27.435542 12.260651
vt 26.170303 12.239258
vt 24.941096 12.217086
vt 23.656100 12.194576
vt 22.251871 12.172173
vt 20.717829 12.150322
vt 19.098630 12.129455
vt 17.475178 12.109987
vt 15.932901 12.092302
vt 14.530024 12.076752
vt 13.277689 12.063645
vt 12.138498 12.053241
vt 11.042640 12.045745
vt 9.914182 12.041307
vt 8.696818 12.040014
vt 7.369438 12.041891
vt 5.946659 12.046903
vt 4.465833 12.054949
vt 2.967355 12.065869
vt 1.477341 12.079449
vt 0.000000 12.095417
vt -1.477651 12.113458
vt -2.971823 12.133215
vt -4.485999 12.154295
vt -6.001196 12.176281
vt -7.477934 12.198738
vt -8.870102 12.221219
vt -10.145385 12.243279
vt -11.303424 12.264482
vt -12.383130 12.284407
vt -13.454534 12.302659
vt -14.596847 12.318876
vt -15.870369 12.332737
vt -17.293177 12.343968
vt -18.832430 12.352345
vt -20.414975 12.357702
vt -21.954445 12.359934
vt -23.385200 12.358996
vt -24.689967 12.354906
vt -25.909556 12.347747
vt -27.129298 12.337659
vt -28.445621 12.324842
vt -29.924301 12.309552
vt -31.566035 12.292090
vt -33.293427 12.272802
vt -34.966342 12.252072
vt -36.422369 12.230310
vt -37.529526 12.207947
vt -38.232888 12.185427
vt -38.577988 12.163195
vt -38.701279 12.141693
vt -38.789429 12.121346
vt -39.020513 12.102559
vt -39.507224 12.085702
vt -40.262234 12.071112
vt -41.198514 12.059075
vt -42.165241 12.049832
vt -43.007085 12.043565
vt -43.625845 12.040398
vt -44.021961 12.040395
vt -44.300031 12.043556
vt -44.635042 12.049816
vt -45.210121 12.059054
vt -46.147242 12.071085
vt -47.455531 12.085671
vt -49.016318 12.102523
vt -50.611565 12.121307
vt -51.987216 12.141651
vt -52.930519 12.163152
vt -53.335137 12.185382
vt -53.231688 12.207902
vt -52.773144 12.230266
vt -52.180104 12.252030
vt -51.664935 12.272763
vt -51.361123 12.292053
vt -51.282352 12.309519
vt -51.325346 12.324814
vt -51.315067 12.337636
vt -51.075958 12.347729
vt -50.503670 12.354895
vt -49.611581 12.358991
f 1/1 122/122 123/123
f 1/1 123/123 2/2
f 2/2 123/123 124/124
f 2/2 124/124 3/3
f 3/3 124/124 125/125
f 3/3 125/125 4/4
f 4/4 125/125 126/126
f 4/4 126/126 5/5
f 5/5 126/126 127/127
f 5/5 127/127 6/6
f 6/6 127/127 128/128
f 6/6 128/128 7/7
f 7/7 128/128 129/129
f 7/7 129/129 8/8
f 8/8 129/129 130/130
f 8/8 130/130 9/9
f 9/9 130/130 131/131
f 9/9 131/131 10/10
f 10/10 131/131 132/132
f 10/10 132/132 11/11
f 11/11 132/132 133/133
f 11/11 133/133 12/12
f 12/12 133/133 134/134
f 12/12 134/134 13/13
f 13/13 134/134 135/135
f 13/13 135/135 14/14
f 14/14 135/135 136/136
f 14/14 136/136 15/15
f 15/15 136/136 137/137
f 15/15 137/137 16/16
f 16/16 137/137 138/138
f 16/16 138/138 17/17
f 17/17 138/138 139/139
f 17/17 139/139 18/18
f 18/18 139/139 140/140
f 18/18 140/140 19/19
f 19/19 140/140 141/141
f 19/19 141/141 20/20
f 20/20 141/141 142/142
f 20/20 142/142 21/21
f 21/21 142/142 143/143
f 21/21 143/143 22/22
f 22/22 143/143 144/144
f 22/22 144/144 23/23
f 23/23 144/144 145/145
f 23/23 145/145 24/24
f 24/24 145/145 146/146
f 24/24 146/146 25/25
f 25/25 146/146 147/147
f 25/25 147/147 26/26
f 26/26 147/147 148/148
f 26/26 148/148 27/27
f 27/27 148/148 149/149
f 27/27 149/149 28/28
f 28/28 149/149 150/150
f 28/28 150/150 29/29
f 29/29 150/150 151/151
f 29/29 151/151 30/30
f 30/30 151/151 152/152
f 30/30 152/152 31/31
f 31/31 152/152 153/153
f 31/31 153/153 32/32
f 32/32 153/153 154/154
f 32/32 154/154 33/33
f 33/33 154/154 155/155
f 33/33 155/155 34/34
f 34/34 155/155 156/156
f 34/34 156/156 35/35
f 35/35 156/156 157/157
f 35/35 157/157 36/36
f 36/36 157/157 158/158
f 36/36 158/158 37/37
f 37/37 158/158 159/159
f 37/37 159/159 38/38
f 38/38 159/159 160/160
f 38/38 160/160 39/39
f 39/39 160/160 161/161
f 39/39 161/161 40/40
f 40/40 161/161 162/162
f 40/40 162/162 41/41
f 41/41 162/162 163/163
f 41/41 163/163 42/42
f 42/42 163/163 164/164
f 42/42 164/164 43/43
f 43/43 164/164 165/165
f 43/43 165/165 44/44
f 44/44 165/165 166/166
f 44/44 166/166 45/45
f 45/45 166/166 167/167
f 45/45 167/167 46/46
f 46/46 167/167 168/168
f 46/46 168/168 47/47
f 47/47 168/168 169/169
f 47/47 169/169 48/48
f 48/48 169/169 170/170
f 48/48 170/170 49/49
f 49/49 170/170 171/171
f 49/49 171/171 50/50
f 50/50 171/171 172/172
f 50/50 172/172 51/51
f 51/51 172/172 173/173
f 51/51 173/173 52/52
f 52/52 173/173 174/174
f 52/52 174/174 53/53
f 53/53 174/174 175/175
f 53/53 175/175 54/54
f 54/54 175/175 176/176
f 54/54 176/176 55/55
f 55/55 176/176 177/177
f 55/55 177/177 56/56
f 56/56 177/177 178/178
f 56/56 178/178 57/57
f 57/57 178/178 179/179
f 57/57 179/179 58/58
f 58/58 179/179 180/180
f 58/58 180/180 59/59
f 59/59 180/180 181/181
f 59/59 181/181 60/60
f 60/60 181/181 182/182
f 60/60 182/182 61/61
f 61/61 182/182 183/183
f 61/61 183/183 62/62
f 62/62 183/183 184/184
f 62/62 184/184 63/63
f 63/63 184/184 185/185
f 63/63 185/185 64/64
f 64/64 185/185 186/186
f 64/64 186/186 65/65
f 65/65 186/186 187/187
f 65/65 187/187 66/66
f 66/66 187/187 188/188
f 66/66 188/188 67/67
f 67/67 188/188 189/189
f 67/67 189/189 68/68
f 68/68 189/189 190/190
f 68/68 190/190 69/69
f 69/69 190/190 191/191
f 69/69 191/191 70/70
f 70/70 191/191 192/192
f 70/70 192/192 71/71
f 71/71 192/192 193/193
f 71/71 193/193 72/72
f 72/72 193/193 194/194
f 72/72 194/194 73/73
f 73/73 194/194 195/195
f 73/73 195/195 74/74
f 74/74 195/195 196/196
f 74/74 196/196 75/75
f 75/75 196/196 197/197
f 75/75 197/197 76/76
f 76/76 197/197 198/198
f 76/76 198/198 77/77
f 77/77 198/198 199/199
f 77/77 199/199 78/78
f 78/78 199/199 200/200
f 78/78 200/200 79/79
f 79/79 200/200 201/201
f 79/79 201/201 80/80
f 80/80 201/201 202/202
f 80/80 202/202 81/81
f 81/81 202/202 203/203
f 81/81 203/203 82/82
f 82/82 203/203 204/204
f 82/82 204/204 83/83
f 83/83 204/204 205/205
f 83/83 205/205 84/84
f 84/84 205/205 206/206
f 84/84 206/206 85/85
f 85/85 206/206 207/207
f 85/85 207/207 86/86
f 86/86 207/207 208/208
f 86/86 208/208 87/87
f 87/87 208/208 209/209
f 87/87 209/209 88/88
f 88/88 209/209 210/210
f 88/88 210/210 89/89
f 89/89 210/210 211/211
f 89/89 211/211 90/90
f 90/90 211/211 212/212
f 90/90 212/212 91/91
f 91/91 212/212 213/213
f 91/91 213/213 92/92
f 92/92 213/213 214/214
f 92/92 214/214 93/93
f 93/93 214/214 215/215
f 93/93 215/215 94/94
f 94/94 215/215 216/216
f 94/94 216/216 95/95
f 95/95 216/216 217/217
f 95/95 217/217 96/96
f 96/96 217/217 218/218
f 96/96 218/218 97/97
f 97/97 218/218 219/219
f 97/97 219/219 98/98
f 98/98 219/219 220/220
f 98/98 220/220 99/99
f 99/99 220/220 221/221
f 99/99 221/221 100/100
f 100/100 221/221 222/222
f 100/100 222/222 101/101
f 101/101 222/222 223/223
f 101/101 223/223 102/102
f 102/102 223/223 224/224
f 102/102 224/224 103/103
f 103/103 224/224 225/225
f 103/103 225/225 104/104
f 104/104 225/225 226/226
f 104/104 226/226 105/105
f 105/105 226/226 227/227
f 105/105 227/227 106/106
f 106/106 227/227 228/228
f 106/106 228/228 107/107
f 107/107 228/228 229/229
f 107/107 229/229 108/108
f 108/108 229/229 230/230
f 108/108 230/230 109/109
f 109/109 230/230 231/231
f 109/109 231/231 110/110
f 110/110 231/231 232/232
f 110/110 232/232 111/111
f 111/111 232/232 233/233
f 111/111 233/233 112/112
f 112/112 233/233 234/234
f 112/112 234/234 113/113
f 113/113 234/234 235/235
f 113/113 235/235 114/114
f 114/114 235/235 236/236
f 114/114 236/236 115/115
f 115/115 236/236 237/237
f 115/115 237/237 116/116
f 116/116 237/237 238/238
f 116/116 238/238 117/117
f 117/117 238/238 239/239
f 117/117 239/239 118/118
f 118/118 239/239 240/240
f 118/118 240/240 119/119
f 119/119 240/240 241/241
f 119/119 241/241 120/120
f 120/120 241/241 242/242
f 120/120 242/242 121/121
f 122/122 243/243 244/244
f 122/122 244/244 123/123
f 123/123 244/244 245/245
f 123/123 245/245 124/124
f 124/124 245/245 246/246
f 124/124 246/246 125/125
f 125/125 246/246 247/247
f 125/125 247/247 126/126
f 126/126 247/247 248/248
f 126/126 248/248 127/127
f 127/127 248/248 249/249
f 127/127 249/249 128/128
f 128/128 249/249 250/250
f 128/128 250/250 129/129
f 129/129 250/250 251/251
f 129/129 251/251 130/130
f 130/130 251/251 252/252
f 130/130 252/252 131/131
f 131/131 252/252 253/253
f 131/131 253/253 132/132
f 132/132 253/253 254/254
f 132/132 254/254 133/133
f 133/133 254/254 255/255
f 133/133 255/255 134/134
f 134/134 255/255 256/256
f 134/134 256/256 135/135
f 135/135 256/256 257/257
f 135/135 257/257 136/136
f 136/136 257/257 258/258
f 136/136 258/258 137/137
f 137/137 258/258 259/259
f 137/137 259/259 138/138
f 138/138 259/259 260/260
f 138/138 260/260 139/139
f 139/139 260/260 261/261
f 139/139 261/261 140/140
f 140/140 261/261 262/262
f 140/140 262/262 141/141
f 141/141 262/262 263/263
f 141/141 263/263 142/142
f 142/142 263/263 264/264
f 142/142 264/264 143/143
f 143/143 264/264 265/265
f 143/143 265/265 144/144
f 144/144 265/265 266/266
f 144/144 266/266 145/145
f 145/145 266/266 267/267
f 145/145 267/267 146/146
f 146/146 267/267 268/268
f 146/146 268/268 147/147
f 147/147 268/268 269/269
f 147/147 269/269 148/148
f 148/148 269/269 270/270
f 148/148 270/270 149/149
f 149/149 270/270 271/271
f 149/149 271/271 150/150
f 150/150 271/271 272/272
f 150/150 272/272 151/151
f 151/151 272/272 273/273
f 151/151 273/273 152/152
f 152/152 273/273 274/274
f 152/152 274/274 153/153
f 153/153 274/274 275/275
f 153/153 275/275 154/154
f 154/154 275/275 276/276
f 154/154 276/276 155/155
f 155/155 276/276 277/277
f 155/155 277/277 156/156
f 156/156 277/277 278/278
f 156/156 278/278 157/157
f 157/157 278/278 279/279
f 157/157 279/279 158/158
f 158/158 279/279 280/280
f 158/158 280/280 159/159
f 159/159 280/280 281/281
f 159/159 281/281 160/160
f 160/160 281/281 282/282
f 160/160 282/282 161/161
f 161/161 282/282 283/283
f 161/161 283/283 162/162
f 162/162 283/283 284/284
f 162/162 284/284 163/163
f 163/163 284/284 285/285
f 163/163 285/285 164/164
f 164/164 285/285 286/286
f 164/164 286/286 165/165
f 165/165 286/286 287/287
f 165/165 287/287 166/166
f 166/166 287/287 288/288
f 166/166 288/288 167/167
f 167/167 288/288 289/289
f 167/167 289/289 168/168
f 168/168 289/289 290/290
f 168/168 290/290 169/169
f 169/169 290/290 291/291
f 169/169 291/291 170/170
f 170/170 291/291 292/292
f 170/170 292/292 171/171
f 171/171 292/292 293/293
f 171/171 293/293 172/172
f 172/172 293/293 294/294
f 172/172 294/294 173/173
f 173/173 294/294 295/295
f 173/173 295/295 174/174
f 174/174 295/295 296/296
f 174/174 296/296 175/175
f 175/175 296/296 297/297
f 175/175 297/297 176/176
f 176/176 297/297 298/298
f 176/176 298/298 177/177
f 177/177 298/298 299/299
f 177/177 299/299 178/178
f 178/178 299/299 300/300
f 178/178 300/300 179/179
f 179/179 300/300 301/301
f 179/179 301/301 180/180
f 180/180 301/301 302/302
f 180/180 302/302 181/181
f 181/181 302/302 303/303
f 181/181 303/303 182/182
f 182/182 303/303 304/304
f 182/182 304/304 183/183
f 183/183 304/304 305/305
f 183/183 305/305 184/184
f 184/184 305/305 306/306
f 184/184 306/306 185/185
f 185/185 306/306 307/307
f 185/185 307/307 186/186
f 186/186 307/307 308/308
f 186/186 308/308 187/187
f 187/187 308/308 309/309
f 187/187 309/309 188/188
f 188/188 309/309 310/310
f 188/188 310/310 189/189
f 189/189 310/310 311/311
f 189/189 311/311 190/190
f 190/190 311/311 312/312
f 190/190 312/312 191/191
f 191/191 312/312 313/313
f 191/191 313/313 192/192
f 192/192 313/313 314/314
f 192/192 314/314 193/193
f 193/193 314/314 315/315
f 193/193 315/315 194/194
f 194/194 315/315 316/316
f 194/194 316/316 195/195
f 195/195 316/316 317/317
f 195/195 317/317 196/196
f 196/196 317/317 318/318
f 196/196 318/318 197/197
f 197/197 318/318 319/319
f 197/197 319/319 198/198
f 198/198 319/319 320/320
f 198/198 320/320 199/199
f 199/199 320/320 321/321
f 199/199 321/321 200/200
f 200/200 321/321 322/322
f 200/200 322/322 201/201
f 201/201 322/322 323/323
f 201/201 323/323 202/202
f 202/202 323/323 324/324
f 202/202 324/324 203/203
f 203/203 324/324 325/325
f 203/203 325/325 204/204
f 204/204 325/325 326/326
f 204/204 326/326 205/205
f 205/205 326/326 327/327
f 205/205 327/327 206/206
f 206/206 327/327 328/328
f 206/206 328/328 207/207
f 207/207 328/328 329/329
f 207/207 329/329 208/208
f 208/208 329/329 330/330
f 208/208 330/330 209/209
f 209/209 330/330 331/331
f 209/209 331/331 210/210
f 210/210 331/331 332/332
f 210/210 332/332 211/211
f 211/211 332/332 333/333
f 211/211 333/333 212/212
f 212/212 333/333 334/334
f 212/212 334/334 213/213
f 213/213 334/334 335/335
f 213/213 335/335 214/214
f 214/214 335/335 336/336
f 214/214 336/336 215/215
f 215/215 336/336 337/337
f 215/215 337/337 216/216
f 216/216 337/337 338/338
f 216/216 338/338 217/217
f 217/217 338/338 339/339
f 217/217 339/339 218/218
f 218/218 339/339 340/340
f 218/218 340/340 219/219
f 219/219 340/340 341/341
f 219/219 341/341 220/220
f 220/220 341/341 342/342
f 220/220 342/342 221/221
f 221/221 342/342 343/343
f 221/221 343/343 222/222
f 222/222 343/343 344/344
f 222/222 344/344 223/223
f 223/223 344/344 345/345
f 223/223 345/345 224/224
f 224/224 345/345 346/346
f 224/224 346/346 225/225
f 225/225 346/346 347/347
f 225/225 347/347 226/226
f 226/226 347/347 348/348
f 226/226 348/348 227/227
f 227/227 348/348 349/349
f 227/227 349/349 228/228
f 228/228 349/349 350/350
f 228/228 350/350 229/229
f 229/229 350/350 351/351
f 229/229 351/351 230/230
f 230/230 351/351 352/352
f 230/230 352/352 231/231
f 231/231 352/352 353/353
f 231/231 353/353 232/232
f 232/232 353/353 354/354
f 232/232 354/354 233/233
f 233/233 354/354 355/355
f 233/233 355/355 234/234
f 234/234 355/355 356/356
f 234/234 356/356 235/235
f 235/235 356/356 357/357
f 235/235 357/357 236/236
f 236/236 357/357 358/358
f 236/236 358/358 237/237
f 237/237 358/358 359/359
f 237/237 359/359 238/238
f 238/238 359/359 360/360
f 238/238 360/360 239/239
f 239/239 360/360 361/361
f 239/239 361/361 240/240
f 240/240 361/361 362/362
f 240/240 362/362 241/241
f 241/241 362/362 363/363
f 241/241 363/363 242/242
f 243/243 364/364 365/365
f 243/243 365/365 244/244
f 244/244 365/365 366/366
f 244/244 366/366 245/245
f 245/245 366/366 367/367
f 245/245 367/367 246/246
f 246/246 367/367 368/368
f 246/246 368/368 247/247
f 247/247 368/368 369/369
f 247/247 369/369 248/248
f 248/248 369/369 370/370
f 248/248 370/370 249/249
f 249/249 370/370 371/371
f 249/249 371/371 250/250
f 250/250 371/371 372/372
f 250/250 372/372 251/251
f 251/251 372/372 373/373
f 251/251 373/373 252/252
f 252/252 373/373 374/374
f 252/252 374/374 253/253
f 253/253 374/374 375/375
f 253/253 375/375 254/254
f 254/254 375/375 376/376
f 254/254 376/376 255/255
f 255/255 376/376 377/377
f 255/255 377/377 256/256
f 256/256 377/377 378/378
f 256/256 378/378 257/257
f 257/257 378/378 379/379
f 257/257 379/379 258/258
f 258/258 379/379 380/380
f 258/258 380/380 259/259
f 259/259 380/380 381/381
f 259/259 381/381 260/260
f 260/260 381/381 382/382
f 260/260 382/382 261/261
f 261/261 382/382 383/383
f 261/261 383/383 262/262
f 262/262 383/383 384/384
f 262/262 384/384 263/263
f 263/263 384/384 385/385
f 263/263 385/385 264/264
f 264/264 385/385 386/386
f 264/264 386/386 265/265
f 265/265 386/386 387/387
f 265/265 387/387 266/266
f 266/266 387/387 388/388
f 266/266 388/388 267/267
f 267/267 388/388 389/389
f 267/267 389/389 268/268
f 268/268 389/389 390/390
f 268/268 390/390 269/269
f 269/269 390/390 391/391
f 269/269 391/391 270/270
f 270/270 391/391 392/392
f 270/270 392/392 271/271
f 271/271 392/392 393/393
f 271/271 393/393 272/272
f 272/272 393/393 394/394
f 272/272 394/394 273/273
f 273/273 394/394 395/395
f 273/273 395/395 274/274
f 274/274 395/395 396/396
f 274/274 396/396 275/275
f 275/275 396/396 397/397
f 275/275 397/397 276/276
f 276/276 397/397 398/398
f 276/276 398/398 277/277
f 277/277 398/398 399/399
f 277/277 399/399 278/278
f 278/278 399/399 400/400
f 278/278 400/400 279/279
f 279/279 400/400 401/401
f 279/279 401/401 280/280
f 280/280 401/401 402/402
f 280/280 402/402 281/281
f 281/281 402/402 403/403
f 281/281 403/403 282/282
f 282/282 403/403 404/404
f 282/282 404/404 283/283
f 283/283 404/404 405/405
f 283/283 405/405 284/284
f 284/284 405/405 406/406
f 284/284 406/406 285/285
f 285/285 406/406 407/407
f 285/285 407/407 286/286
f 286/286 407/407 408/408
f 286/286 408/408 287/287
f 287/287 408/408 409/409
f 287/287 409/409 288/288
f 288/288 409/409 410/410
f 288/288 410/410 289/289
f 289/289 410/410 411/411
f 289/289 411/411 290/290
f 290/290 411/411 412/412
f 290/290 412/412 291/291
f 291/291 412/412 413/413
f 291/291 413/413 292/292
f 292/292 413/413 414/414
f 292/292 414/414 293/293
f 293/293 414/414 415/415
f 293/293 415/415 294/294
f 294/294 415/415 416/416
f 294/294 416/416 295/295
f 295/295 416/416 417/417
f 295/295 417/417 296/296
f 296/296 417/417 418/418
f 296/296 418/418 297/297
f 297/297 418/418 419/419
f 297/297 419/419 298/298
f 298/298 419/419 420/420
f 298/298 420/420 299/299
f 299/299 420/420 421/421
f 299/299 421/421 300/300
f 300/300 421/421 422/422
f 300/300 422/422 301/301
f 301/301 422/422 423/423
f 301/301 423/423 302/302
f 302/302 423/423 424/424
f 302/302 424/424 303/303
f 303/303 424/424 425/425
f 303/303 425/425 304/304
f 304/304 425/425 426/426
f 304/304 426/426 305/305
f 305/305 426/426 427/427
f 305/305 427/427 306/306
f 306/306 427/427 428/428
f 306/306 428/428 307/307
f 307/307 428/428 429/429
f 307/307 429/429 308/308
f 308/308 429/429 430/430
f 308/308 430/430 309/309
f 309/309 430/430 431/431
f 309/309 431/431 310/310
f 310/310 431/431 432/432
f 310/310 432/432 311/311
f 311/311 432/432 433/433
f 311/311 433/433 312/312
f 312/312 433/433 434/434
f 312/312 434/434 313/313
f 313/313 434/434 435/435
f 313/313 435/435 314/314
f 314/314 435/435 436/436
f 314/314 436/436 315/315
f 315/315 436/436 437/437
f 315/315 437/437 316/316
f 316/316 437/437 438/438
f 316/316 438/438 317/317
f 317/317 438/438 439/439
f 317/317 439/439 318/318
f 318/318 439/439 440/440
f 318/318 440/440 319/319
f 319/319 440/440 441/441
f 319/319 441/441 320/320
f 320/320 441/441 442/442
f 320/320 442/442 321/321
f 321/321 442/442 443/443
f 321/321 443/443 322/322
f 322/322 443/443 444/444
f 322/322 444/444 323/323
f 323/323 444/444 445/445
f 323/323 445/445 324/324
f 324/324 445/445 446/446
f 324/324 446/446 325/325
f 325/325 446/446 447/447
f 325/325 447/447 326/326
f 326/326 447/447 448/448
f 326/326 448/448 327/327
f 327/327 448/448 449/449
f 327/327 449/449 328/328
f 328/328 449/449 450/450
f 328/328 450/450 329/329
f 329/329 450/450 451/451
f 329/329 451/451 330/330
f 330/330 451/451 452/452
f 330/330 452/452 331/331
f 331/331 452/452 453/453
f 331/331 453/453 332/332
f 332/332 453/453 454/454
f 332/332 454/454 333/333
f 333/333 454/454 455/455
f 333/333 455/455 334/334
f 334/334 455/455 456/456
f 334/334 456/456 335/335
f 335/335 456/456 457/457
f 335/335 457/457 336/336
f 336/336 457/457 458/458
f 336/336 458/458 337/337
f 337/337 458/458 459/459
f 337/337 459/459 338/338
f 338/338 459/459 460/460
f 338/338 460/460 339/339
f 339/339 460/460 461/461
f 339/339 461/461 340/340
f 340/340 461/461 462/462
f 340/340 462/462 341/341
f 341/341 462/462 463/463
f 341/341 463/463 342/342
f 342/342 463/463 464/464
f 342/342 464/464 343/343
f 343/343 464/464 465/465
f 343/343 465/465 344/344
f 344/344 465/465 466/466
f 344/344 466/466 345/345
f 345/345 466/466 467/467
f 345/345 467/467 346/346
f 346/346 467/467 468/468
f 346/346 468/468 347/347
f 347/347 468/468 469/469
f 347/347 469/469 348/348
f 348/348 469/469 470/470
f 348/348 470/470 349/349
f 349/349 470/470 471/471
f 349/349 471/471 350/350
f 350/350 471/471 472/472
f 350/350 472/472 351/351
f 351/351 472/472 473/473
f 351/351 473/473 352/352
f 352/352 473/473 474/474
f 352/352 474/474 353/353
f 353/353 474/474 475/475
f 353/353 475/475 354/354
f 354/354 475/475 476/476
f 354/354 476/476 355/355
f 355/355 476/476 477/477
f 355/355 477/477 356/356
f 356/356 477/477 478/478
f 356/356 478/478 357/357
f 357/357 478/478 479/479
f 357/357 479/479 358/358
f 358/358 479/479 480/480
f 358/358 480/480 359/359
f 359/359 480/480 481/481
f 359/359 481/481 360/360
f 360/360 481/481 482/482
f 360/360 482/482 361/361
f 361/361 482/482 483/483
f 361/361 483/483 362/362
f 362/362 483/483 484/484
f 362/362 484/484 363/363
f 364/364 485/485 486/486
f 364/364 486/486 365/365
f 365/365 486/486 487/487
f 365/365 487/487 366/366
f 366/366 487/487 488/488
f 366/366 488/488 367/367
f 367/367 488/488 489/489
f 367/367 489/489 368/368
f 368/368 489/489 490/490
f 368/368 490/490 369/369
f 369/369 490/490 491/491
f 369/369 491/491 370/370
f 370/370 491/491 492/492
f 370/370 492/492 371/371
f 371/371 492/492 493/493
f 371/371 493/493 372/372
f 372/372 493/493 494/494
f 372/372 494/494 373/373
f 373/373 494/494 495/495
f 373/373 495/495 374/374
f 374/374 495/495 496/496
f 374/374 496/496 375/375
f 375/375 496/496 497/497
f 375/375 497/497 376/376
f 376/376 497/497 498/498
f 376/376 498/498 377/377
f 377/377 498/498 499/499
f 377/377 499/499 378/378
f 378/378 499/499 500/500
f 378/378 500/500 379/379
f 379/379 500/500 501/501
f 379/379 501/501 380/380
f 380/380 501/501 502/502
f 380/380 502/502 381/381
f 381/381 502/502 503/503
f 381/381 503/503 382/382
f 382/382 503/503 504/504
f 382/382 504/504 383/383
f 383/383 504/504 505/505
f 383/383 505/505 384/384
f 384/384 505/505 506/506
f 384/384 506/506 385/385
f 385/385 506/506 507/507
f 385/385 507/507 386/386
f 386/386 507/507 508/508
f 386/386 508/508 387/387
f 387/387 508/508 509/509
f 387/387 509/509 388/388
f 388/388 509/509 510/510
f 388/388 510/510 389/389
f 389/389 510/510 511/511
f 389/389 511/511 390/390
f 390/390 511/511 512/512
f 390/390 512/512 391/391
f 391/391 512/512 513/513
f 391/391 513/513 392/392
f 392/392 513/513 514/514
f 392/392 514/514 393/393
f 393/393 514/514 515/515
f 393/393 515/515 394/394
f 394/394 515/515 516/516
f 394/394 516/516 395/395
f 395/395 516/516 517/517
f 395/395 517/517 396/396
f 396/396 517/517 518/518
f 396/396 518/518 397/397
f 397/397 518/518 519/519
f 397/397 519/519 398/398
f 398/398 519/519 520/520
f 398/398 520/520 399/399
f 399/399 520/520 521/521
f 399/399 521/521 400/400
f 400/400 521/521 522/522
f 400/400 522/522 401/401
f 401/401 522/522 523/523
f 401/401 523/523 402/402
f 402/402 523/523 524/524
f 402/402 524/524 403/403
f 403/403 524/524 525/525
f 403/403 525/525 404/404
f 404/404 525/525 526/526
f 404/404 526/526 405/405
f 405/405 526/526 527/527
f 405/405 527/527 406/406
f 406/406 527/527 528/528
f 406/406 528/528 407/407
f 407/407 528/528 529/529
f 407/407 529/529 408/408
f 408/408 529/529 530/530
f 408/408 530/530 409/409
f 409/409 530/530 531/531
f 409/409 531/531 410/410
f 410/410 531/531 532/532
f 410/410 532/532 411/411
f 411/411 532/532 533/533
f 411/411 533/533 412/412
f 412/412 533/533 534/534
f 412/412 534/534 413/413
f 413/413 534/534 535/535
f 413/413 535/535 414/414
f 414/414 535/535 536/536
f 414/414 536/536 415/415
f 415/415 536/536 537/537
f 415/415 537/537 416/416
f 416/416 537/537 538/538
f 416/416 538/538 417/417
f 417/417 538/538 539/539
f 417/417 539/539 418/418
f 418/418 539/539 540/540
f 418/418 540/540 419/419
f 419/419 540/540 541/541
f 419/419 541/541 420/420
f 420/420 541/541 542/542
f 420/420 542/542 421/421
f 421/421 542/542 543/543
f 421/421 543/543 422/422
f 422/422 543/543 544/544
f 422/422 544/544 423/423
f 423/423 544/544 545/545
f 423/423 545/545 424/424
f 424/424 545/545 546/546
f 424/424 546/546 425/425
f 425/425 546/546 547/547
f 425/425 547/547 426/426
f 426/426 547/547 548/548
f 426/426 548/548 427/427
f 427/427 548/548 549/549
f 427/427 549/549 428/428
f 428/428 549/549 550/550
f 428/428 550/550 429/429
f 429/429 550/550 551/551
f 429/429 551/551 430/430
f 430/430 551/551 552/552
f 430/430 552/552 431/431
f 431/431 552/552 553/553
f 431/431 553/553 432/432
f 432/432 553/553 554/554
f 432/432 554/554 433/433
f 433/433 554/554 555/555
f 433/433 555/555 434/434
f 434/434 555/555 556/556
f 434/434 556/556 435/435
f 435/435 556/556 557/557
f 435/435 557/557 436/436
f 436/436 557/557 558/558
f 436/436 558/558 437/437
f 437/437 558/558 559/559
f 437/437 559/559 438/438
f 438/438 559/559 560/560
f 438/438 560/560 439/439
f 439/439 560/560 561/561
f 439/439 561/561 440/440
f 440/440 561/561 562/562
f 440/440 562/562 441/441
f 441/441 562/562 563/563
f 441/441 563/563 442/442
f 442/442 563/563 564/564
f 442/442 564/564 443/443
f 443/443 564/564 565/565
f 443/443 565/565 444/444
f 444/444 565/565 566/566
f 444/444 566/566 445/445
f 445/445 566/566 567/567
f 445/445 567/567 446/446
f 446/446 567/567 568/568
f 446/446 568/568 447/447
f 447/447 568/568 569/569
f 447/447 569/569 448/448
f 448/448 569/569 570/570
f 448/448 570/570 449/449
f 449/449 570/570 571/571
f 449/449 571/571 450/450
f 450/450 571/571 572/572
f 450/450 572/572 451/451
f 451/451 572/572 573/573
f 451/451 573/573 452/452
f 452/452 573/573 574/574
f 452/452 574/574 453/453
f 453/453 574/574 575/575
f 453/453 575/575 454/454
f 454/454 575/575 576/576
f 454/454 576/576 455/455
f 455/455 576/576 577/577
f 455/455 577/577 456/456
f 456/456 577/577 578/578
f 456/456 578/578 457/457
f 457/457 578/578 579/579
f 457/457 579/579 458/458
f 458/458 579/579 580/580
f 458/458 580/580 459/459
f 459/459 580/580 581/581
f 459/459 581/581 460/460
f 460/460 581/581 582/582
f 460/460 582/582 461/461
f 461/461 582/582 583/583
f 461/461 583/583 462/462
f 462/462 583/583 584/584
f 462/462 584/584 463/463
f 463/463 584/584 585/585
f 463/463 585/585 464/464
f 464/464 585/585 586/586
f 464/464 586/586 465/465
f 465/465 586/586 587/587
f 465/465 587/587 466/466
f 466/466 587/587 588/588
f 466/466 588/588 467/467
f 467/467 588/588 589/589
f 467/467 589/589 468/468
f 468/468 589/589 590/590
f 468/468 590/590 469/469
f 469/469 590/590 591/591
f 469/469 591/591 470/470
f 470/470 591/591 592/592
f 470/470 592/592 471/471
f 471/471 592/592 593/593
f 471/471 593/593 472/472
f 472/472 593/593 594/594
f 472/472 594/594 473/473
f 473/473 594/594 595/595
f 473/473 595/595 474/474
f 474/474 595/595 596/596
f 474/474 596/596 475/475
f 475/475 596/596 597/597
f 475/475 597/597 476/476
f 476/476 597/597 598/598
f 476/476 598/598 477/477
f 477/477 598/598 599/599
f 477/477 599/599 478/478
f 478/478 599/599 600/600
f 478/478 600/600 479/479
f 479/479 600/600 601/601
f 479/479 601/601 480/480
f 480/480 601/601 602/602
f 480/480 602/602 481/481
f 481/481 602/602 603/603
f 481/481 603/603 482/482
f 482/482 603/603 604/604
f 482/482 604/604 483/483
f 483/483 604/604 605/605
f 483/483 605/605 484/484
f 485/485 606/606 607/607
f 485/485 607/607 486/486
f 486/486 607/607 608/608
f 486/486 608/608 487/487
f 487/487 608/608 609/609
f 487/487 609/609 488/488
f 488/488 609/609 610/610
f 488/488 610/610 489/489
f 489/489 610/610 611/611
f 489/489 611/611 490/490
f 490/490 611/611 612/612
f 490/490 612/612 491/491
f 491/491 612/612 613/613
f 491/491 613/613 492/492
f 492/492 613/613 614/614
f 492/492 614/614 493/493
f 493/493 614/614 615/615
f 493/493 615/615 494/494
f 494/494 615/615 616/616
f 494/494 616/616 495/495
f 495/495 616/616 617/617
f 495/495 617/617 496/496
f 496/496 617/617 618/618
f 496/496 618/618 497/497
f 497/497 618/618 619/619
f 497/497 619/619 498/498
f 498/498 619/619 620/620
f 498/498 620/620 499/499
f 499/499 620/620 621/621
f 499/499 621/621 500/500
f 500/500 621/621 622/622
f 500/500 622/622 501/501
f 501/501 622/622 623/623
f 501/501 623/623 502/502
f 502/502 623/623 624/624
f 502/502 624/624 503/503
f 503/503 624/624 625/625
f 503/503 625/625 504/504
f 504/504 625/625 626/626
f 504/504 626/626 505/505
f 505/505 626/626 627/627
f 505/505 627/627 506/506
f 506/506 627/627 628/628
f 506/506 628/628 507/507
f 507/507 628/628 629/629
f 507/507 629/629 508/508
f 508/508 629/629 630/630
f 508/508 630/630 509/509
f 509/509 630/630 631/631
f 509/509 631/631 510/510
f 510/510 631/631 632/632
f 510/510 632/632 511/511
f 511/511 632/632 633/633
f 511/511 633/633 512/512
f 512/512 633/633 634/634
f 512/512 634/634 513/513
f 513/513 634/634 635/635
f 513/513 635/635 514/514
f 514/514 635/635 636/636
f 514/514 636/636 515/515
f 515/515 636/636 637/637
f 515/515 637/637 516/516
f 516/516 637/637 638/638
f 516/516 638/638 517/517
f 517/517 638/638 639/639
f 517/517 639/639 518/518
f 518/518 639/639 640/640
f 518/518 640/640 519/519
f 519/519 640/640 641/641
f 519/519 641/641 520/520
f 520/520 641/641 642/642
f 520/520 642/642 521/521
f 521/521 642/642 643/643
f 521/521 643/643 522/522
f 522/522 643/643 644/644
f 522/522 644/644 523/523
f 523/523 644/644 645/645
f 523/523 645/645 524/524
f 524/524 645/645 646/646
f 524/524 646/646 525/525
f 525/525 646/646 647/647
f 525/525 647/647 526/526
f 526/526 647/647 648/648
f 526/526 648/648 527/527
f 527/527 648/648 649/649
f 527/527 649/649 528/528
f 528/528 649/649 650/650
f 528/528 650/650 529/529
f 529/529 650/650 651/651
f 529/529 651/651 530/530
f 530/530 651/651 652/652
f 530/530 652/652 531/531
f 531/531 652/652 653/653
f 531/531 653/653 532/532
f 532/532 653/653 654/654
f 532/532 654/654 533/533
f 533/533 654/654 655/655
f 533/533 655/655 534/534
f 534/534 655/655 656/656
f 534/534 656/656 535/535
f 535/535 656/656 657/657
f 535/535 657/657 536/536
f 536/536 657/657 658/658
f 536/536 658/658 537/537
f 537/537 658/658 659/659
f 537/537 659/659 538/538
f 538/538 659/659 660/660
f 538/538 660/660 539/539
f 539/539 660/660 661/661
f 539/539 661/661 540/540
f 540/540 661/661 662/662
f 540/540 662/662 541/541
f 541/541 662/662 663/663
f 541/541 663/663 542/542
f 542/542 663/663 664/664
f 542/542 664/664 543/543
f 543/543 664/664 665/665
f 543/543 665/665 544/544
f 544/544 665/665 666/666
f 544/544 666/666 545/545
f 545/545 666/666 667/667
f 545/545 667/667 546/546
f 546/546 667/667 668/668
f 546/546 668/668 547/547
f 547/547 668/668 669/669
f 547/547 669/669 548/548
f 548/548 669/669 670/670
f 548/548 670/670 549/549
f 549/549 670/670 671/671
f 549/549 671/671 550/550
f 550/550 671/671 672/672
f 550/550 672/672 551/551
f 551/551 672/672 673/673
f 551/551 673/673 552/552
f 552/552 673/673 674/674
f 552/552 674/674 553/553
f 553/553 674/674 675/675
f 553/553 675/675 554/554
f 554/554 675/675 676/676
f 554/554 676/676 555/555
f 555/555 676/676 677/677
f 555/555 677/677 556/556
f 556/556 677/677 678/678
f 556/556 678/678 557/557
f 557/557 678/678 679/679
f 557/557 679/679 558/558
f 558/558 679/679 680/680
f 558/558 680/680 559/559
f 559/559 680/680 681/681
f 559/559 681/681 560/560
f 560/560 681/681 682/682
f 560/560 682/682 561/561
f 561/561 682/682 683/683
f 561/561 683/683 562/562
f 562/562 683/683 684/684
f 562/562 684/684 563/563
f 563/563 684/684 685/685
f 563/563 685/685 564/564
f 564/564 685/685 686/686
f 564/564 686/686 565/565
f 565/565 686/686 687/687
f 565/565 687/687 566/566
f 566/566 687/687 688/688
f 566/566 688/688 567/567
f 567/567 688/688 689/689
f 567/567 689/689 568/568
f 568/568 689/689 690/690
f 568/568 690/690 569/569
f 569/569 690/690 691/691
f 569/569 691/691 570/570
f 570/570 691/691 692/692
f 570/570 692/692 571/571
f 571/571 692/692 693/693
f 571/571 693/693 572/572
f 572/572 693/693 694/694
f 572/572 694/694 573/573
f 573/573 694/694 695/695
f 573/573 695/695 574/574
f 574/574 695/695 696/696
f 574/574 696/696 575/575
f 575/575 696/696 697/697
f 575/575 697/697 576/576
f 576/576 697/697 698/698
f 576/576 698/698 577/577
f 577/577 698/698 699/699
f 577/577 699/699 578/578
f 578/578 699/699 700/700
f 578/578 700/700 579/579
f 579/579 700/700 701/701
f 579/579 701/701 580/580
f 580/580 701/701 702/702
f 580/580 702/702 581/581
f 581/581 702/702 703/703
f 581/581 703/703 582/582
f 582/582 703/703 704/704
f 582/582 704/704 583/583
f 583/583 704/704 705/705
f 583/583 705/705 584/584
f 584/584 705/705 706/706
f 584/584 706/706 585/585
f 585/585 706/706 707/707
f 585/585 707/707 586/586
f 586/586 707/707 708/708
f 586/586 708/708 587/587
f 587/587 708/708 709/709
f 587/587 709/709 588/588
f 588/588 709/709 710/710
f 588/588 710/710 589/589
f 589/589 710/710 711/711
f 589/589 711/711 590/590
f 590/590 711/711 712/712
f 590/590 712/712 591/591
f 591/591 712/712 713/713
f 591/591 713/713 592/592
f 592/592 713/713 714/714
f 592/592 714/714 593/593
f 593/593 714/714 715/715
f 593/593 715/715 594/594
f 594/594 715/715 716/716
f 594/594 716/716 595/595
f 595/595 716/716 717/717
f 595/595 717/717 596/596
f 596/596 717/717 718/718
f 596/596 718/718 597/597
f 597/597 718/718 719/719
f 597/597 719/719 598/598
f 598/598 719/719 720/720
f 598/598 720/720 599/599
f 599/599 720/720 721/721
f 599/599 721/721 600/600
f 600/600 721/721 722/722
f 600/600 722/722 601/601
f 601/601 722/722 723/723
f 601/601 723/723 602/602
f 602/602 723/723 724/724
f 602/602 724/724 603/603
f 603/603 724/724 725/725
f 603/603 725/725 604/604
f 604/604 725/725 726/726
f 604/604 726/726 605/605
