# Basketbroom original 3D environment. Centimetres, Z up.
o SM_BB_ENV_RR_AlcoveBed5
s 1
v 48895.39362 1611.00618 12047.74367
v 49778.05298 2301.67037 12042.34693
v 50424.27812 3022.81021 12040.07485
v 50755.73676 3766.38073 12040.97248
v 50818.35207 4519.32069 12045.02202
v 50757.81356 5272.45429 12052.14320
v 50758.99804 6026.27427 12062.19489
v 50971.06601 6790.81196 12074.97787
v 51445.06359 7579.58931 12090.23877
v 52106.46142 8400.45094 12107.67513
v 52772.75936 9247.67655 12126.94136
v 53210.42442 10099.45545 12147.65560
v 53211.60479 10922.64735 12169.40731
v 52664.12820 11683.61781 12191.76535
v 51590.65160 12361.12517 12214.28661
v 50143.59499 12955.96534 12236.52471
v 48557.82770 13492.97623 12258.03889
v 47077.56923 14013.81923 12278.40275
v 45882.56301 14562.63910 12297.21268
v 45038.35532 15169.79316 12314.09585
v 44486.68001 15840.03265 12328.71766
v 44077.74618 16550.20987 12340.78830
v 43631.71992 17258.13723 12350.06853
v 43006.95998 17919.88246 12356.37441
v 42150.91397 18509.21393 12359.58097
v 41116.39225 19031.57185 12359.62465
v 40038.61226 19526.50106 12356.50458
v 39082.34148 20056.51451 12350.28261
v 38378.72937 20685.45475 12341.08206
v 37974.49921 21453.68772 12329.08527
v 37811.19364 22359.21817 12314.53002
v 37741.12819 23352.24866 12297.70480
v 37573.68385 24346.21845 12278.94308
v 37135.21499 25242.48379 12258.61672
v 36321.71736 25960.65569 12237.12857
v 35126.72034 26464.14227 12214.90455
v 33636.17988 26771.68506 12192.38511
v 31993.92257 26950.33511 12170.01661
v 30351.16267 27091.81712 12148.24237
v 28818.33570 27280.26881 12127.49396
v 27435.54220 27562.69708 12108.18262
v 26170.30270 27932.84732 12090.69108
v 24941.09615 28334.64003 12075.36604
v 23656.10040 28684.41798 12062.51123
v 22251.87104 28904.40195 12052.38144
v 20717.82925 28955.45433 12045.17743
v 19098.62991 28857.12350 12041.04199
v 17475.17775 28687.14535 12040.05708
v 15932.90085 28559.71035 12042.24222
v 14530.02361 28589.37577 12047.55411
v 13277.68855 28852.80990 12055.88746
v 12138.49784 29361.65288 12067.07710
v 11042.64005 30056.19119 12080.90127
v 9914.18249 30822.46092 12097.08596
v 8696.81840 31527.27619 12115.31039
v 7369.43751 32059.38510 12135.21337
v 5946.65880 32362.73566 12156.40041
v 4465.83257 32450.51439 12178.45159
v 2967.35516 32395.29599 12200.92986
v 1477.34059 32298.98265 12223.38969
v 0.00000 32253.28256 12245.38595
v -1477.65090 32304.77671 12266.48266
v -2971.82331 32436.97759 12286.26169
v -4485.99894 32575.76406 12304.33103
v -6001.19624 32616.30473 12320.33253
v -7477.93403 32461.97678 12333.94905
v -8870.10211 32061.52860 12344.91072
v -10145.38497 31431.31903 12353.00027
v -11303.42432 30654.67425 12358.05737
v -12383.12979 29858.38587 12359.98179
v -13454.53438 29174.31464 12358.73538
v -14596.84713 28699.17833 12354.34286
v -15870.36890 28466.12313 12346.89128
v -17293.17659 28437.46937 12336.52832
v -18832.43033 28520.61363 12323.45939
v -20414.97523 28601.09248 12307.94350
v -21954.44451 28581.06491 12290.28819
v -23385.19951 28409.91816 12270.84337
v -24689.96652 28096.80640 12249.99444
v -25909.55632 27701.50805 12228.15463
v -27129.29793 27307.65314 12205.75680
v -28445.62125 26988.41443 12183.24487
v -29924.30088 26777.09390 12161.06502
v -31566.03477 26652.94622 12139.65686
v -33293.42723 26546.91773 12119.44469
v -34966.34160 26364.83744 12100.82913
v -36422.36945 26019.53275 12084.17912
v -37529.52594 25460.45986 12069.82466
v -38232.88789 24690.65122 12058.05028
v -38577.98755 23765.52605 12049.08932
v -38701.27889 22774.59009 12043.11939
v -38789.42923 21812.91924 12040.25882
v -39020.51275 20952.53460 12040.56431
v -39507.22395 20223.30969 12044.02980
v -40262.23404 19609.23090 12050.58660
v -41198.51361 19060.16810 12060.10476
v -42165.24073 18513.90280 12072.39563
v -43007.08466 17919.92074 12087.21561
v -43625.84520 17256.44825 12104.27096
v -44021.96133 16535.23000 12123.22365
v -44300.03122 15793.35234 12143.69804
v -44635.04209 15076.16315 12165.28833
v -45210.12139 14418.30095 12187.56660
v -46147.24186 13830.04095 12210.09131
v -47455.53105 13293.68836 12232.41600
v -49016.31753 12770.67885 12254.09821
v -50611.56518 12215.99903 12274.70820
v -51987.21618 11594.03525 12293.83748
v -52930.51937 10889.85098 12311.10691
v -53335.13744 10112.07761 12326.17421
v -53231.68848 9287.10249 12338.74075
v -52773.14376 8447.61710 12348.55747
v -52180.10387 7620.53183 12355.42979
v -51664.93486 6819.08298 12359.22150
v -51361.12272 6041.84048 12359.85747
v -51282.35239 5278.22497 12357.32507
v -51325.34577 4517.37800 12351.67451
v -51315.06716 3755.93743 12343.01777
v -51075.95788 3000.95281 12331.52643
v -50503.66999 2266.50507 12317.42826
v -49611.58111 1565.55491 12301.00266
v 53969.95931 1288.95999 12607.74367
v 55097.79277 2043.86184 12602.34693
v 56009.28849 2835.48844 12600.07485
v 56571.14990 3657.80068 12600.97248
v 56775.03112 4496.49603 12605.02202
v 56730.29040 5338.16014 12612.14320
v 56615.22647 6177.67034 12622.19489
v 56604.49726 7020.34067 12634.97787
v 56798.74156 7877.79480 12650.23877
v 57181.56675 8759.50233 12667.67513
v 57619.34379 9664.03960 12686.94136
v 57904.11199 10574.50208 12707.65560
v 57824.68996 11460.89103 12729.40731
v 57241.16825 12289.34345 12751.76535
v 56136.78625 13034.98088 12774.28661
v 54629.12798 13693.23606 12796.52471
v 52936.75710 14284.65743 12818.03889
v 51312.82334 14850.45771 12838.40275
v 49968.40365 15439.65605 12857.21268
v 49011.51906 16092.17139 12874.09585
v 48421.89938 16824.21940 12888.71766
v 48068.85389 17621.93907 12900.78830
v 47764.61419 18446.34173 12910.06853
v 47333.53035 19248.41124 12916.37441
v 46672.64750 19989.08877 12919.58097
v 45782.99492 20656.57357 12919.62465
v 44761.83232 21273.87652 12916.50458
v 43760.09985 21892.85188 12910.28261
v 42921.40659 22575.90187 12901.08206
v 42324.86957 23371.38633 12889.08527
v 41952.06121 24291.61748 12874.53002
v 41689.20824 25301.98156 12857.70480
v 41363.04867 26326.15384 12838.94308
v 40797.00744 27266.73170 12818.61672
v 39867.70498 28034.90282 12797.12857
v 38542.42605 28579.11145 12774.90455
v 36885.55574 28902.53235 12752.38511
v 35033.25744 29062.72164 12730.01661
v 33146.67514 29152.93554 12708.24237
v 31360.80597 29271.15243 12687.49396
v 29746.66851 29487.43107 12668.18262
v 28298.63540 29821.14553 12650.69108
v 26949.17987 30236.40616 12635.36604
v 25603.45990 30657.64823 12622.51123
v 24179.67363 31000.14627 12612.38144
v 22640.12172 31204.68024 12605.17743
v 21002.44327 31263.78383 12601.04199
v 19328.56433 31229.69014 12600.05708
v 17697.32506 31200.40141 12602.24222
v 16172.38964 31288.06594 12607.55411
v 14777.96106 31580.29707 12615.88746
v 13490.96439 32107.87943 12627.07710
v 12251.47959 32830.39989 12640.90127
v 10986.10486 33645.30536 12657.08596
v 9634.35521 34417.80348 12675.31039
v 8167.77286 35021.72129 12695.21337
v 6595.07540 35377.51596 12716.40041
v 4952.72499 35474.51417 12738.45159
v 3286.22193 35369.87457 12760.92986
v 1630.82478 35164.84301 12783.38969
v 0.00000 34966.76985 12805.38595
v -1613.97901 34850.29835 12826.48266
v -3228.49498 34831.36333 12846.26169
v -4854.27742 34863.07432 12864.33103
v -6482.65121 34854.80534 12880.33253
v -8083.12132 34707.60981 12893.94905
v -9613.43955 34353.31826 12904.91072
v -11038.53638 33783.38068 12913.00027
v -12350.27456 33057.12796 12918.05737
v -13578.86030 32286.35488 12919.98179
v -14789.57443 31601.41011 12918.73538
v -16064.26720 31110.40216 12914.34286
v -17473.52492 30865.45530 12906.89128
v -19049.89585 30847.40232 12896.52832
v -20773.07005 30973.82714 12883.45939
v -22573.97584 31127.28460 12867.94350
v -24357.69608 31193.67725 12850.28819
v -26037.57302 31097.52857 12830.84337
v -27567.85191 30822.32273 12809.99444
v -28961.87509 30409.58470 12788.15463
v -30287.61009 29937.93377 12765.75680
v -31640.62232 29490.26288 12743.24487
v -33103.45034 29121.06610 12721.06502
v -34706.30059 28835.48138 12699.65686
v -36404.57165 28587.11681 12679.44469
v -38083.39626 28294.88501 12660.82913
v -39589.84053 27872.36431 12644.17912
v -40783.00783 27258.99268 12629.82466
v -41584.93527 26442.08914 12618.05028
v -42013.76711 25462.26278 12609.08932
v -42186.06973 24400.82114 12603.11939
v -42285.65001 23354.09785 12600.25882
v -42508.21101 22403.94944 12600.56431
v -43000.28450 21594.57283 12604.02980
v -43813.66316 20923.09729 12610.58660
v -44891.75502 20346.22652 12620.10476
v -46093.37193 19799.50321 12632.39563
v -47246.20323 19221.59633 12647.21561
v -48211.35358 18574.77902 12664.27096
v -48935.85515 17854.75428 12683.22365
v -49473.80458 17087.29779 12703.69804
v -49967.60076 16314.12775 12725.28833
v -50594.95164 15574.14323 12747.56660
v -51499.84708 14887.40266 12770.09131
v -52732.00817 14247.64019 12792.41600
v -54217.00720 13625.49727 12814.09821
v -55768.94147 12980.45669 12834.70820
v -57142.75645 12276.31963 12853.83748
v -58109.23779 11494.09139 12871.10691
v -58527.35081 10637.57989 12886.17421
v -58389.05763 9730.16460 12898.74075
v -57820.95247 8804.73732 12908.55747
v -57041.87708 7891.33770 12915.42979
v -56290.93237 7007.56477 12919.22150
v -55750.60912 6155.31813 12919.85747
v -55491.45291 5324.53114 12917.32507
v -55457.11438 4501.54599 12911.67451
v -55494.45149 3677.90381 12903.01777
v -55417.53021 2855.33607 12891.52643
v -55082.49029 2044.60344 12877.42826
v -54446.49190 1258.71789 12861.00266
v 53653.48646 1309.04424 13167.74367
v 54950.91260 2050.98004 13162.34693
v 56062.13028 2833.71612 13160.07485
v 56806.45786 3653.40723 13160.97248
v 57122.75717 4495.16362 13165.02202
v 57079.71855 5342.00435 13172.14320
v 56841.27123 6183.51408 13182.19489
v 56599.87336 7020.15227 13194.97787
v 56501.59894 7861.24364 13210.23877
v 56589.66326 8717.62659 13227.67513
v 56786.37398 9592.48037 13246.94136
v 56919.83313 10474.88353 13267.65560
v 56785.88629 11339.68592 13289.40731
v 56223.40279 12154.65233 13311.76535
v 55176.32237 12892.61509 13334.28661
v 53720.60513 13543.90547 13356.52471
v 52046.54699 14123.71339 13378.03889
v 50402.48175 14670.62746 13398.40275
v 49019.19573 15235.91060 13417.21268
v 48040.80241 15866.81750 13434.09585
v 47485.21331 16589.95698 13448.71766
v 47246.75122 17401.18045 13460.78830
v 47138.72551 18266.39913 13470.06853
v 46960.14938 19133.75984 13476.37441
v 46562.96883 19953.19309 13479.58097
v 45896.78338 20696.19692 13479.62465
v 45016.64441 21368.14535 13476.50458
v 44052.88723 22007.79078 13470.28261
v 43155.26329 22673.22195 13461.08206
v 42432.21629 23418.70613 13449.08527
v 41907.11652 24270.64335 13434.53002
v 41506.53361 25211.76891 13417.70480
v 41083.81363 26180.25410 13398.94308
v 40468.67605 27085.22930 13378.61672
v 39524.71513 27834.26881 13357.12857
v 38194.56581 28363.72003 13334.90455
v 36517.57085 28661.21843 13312.38511
v 34614.98310 28772.01427 13290.01661
v 32649.22985 28786.17143 13268.24237
v 30772.42703 28810.42178 13247.49396
v 29082.21651 28934.06740 13228.18262
v 27599.36444 29200.73872 13210.69108
v 26273.03147 29596.05630 13195.36604
v 25009.51763 30055.81542 13182.51123
v 23712.31283 30492.07104 13172.38144
v 22318.20363 30828.01200 13165.17743
v 20816.82344 31029.13694 13161.04199
v 19248.07937 31119.27786 13160.05708
v 17680.48105 31175.19215 13162.24222
v 16180.26040 31300.99897 13167.55411
v 14783.85389 31591.01019 13175.88746
v 13484.07471 32093.88970 13187.07710
v 12234.28624 32790.94225 13200.90127
v 10967.62799 33596.64762 13217.08596
v 9622.71206 34381.90640 13235.31039
v 8165.29357 35012.52155 13255.21337
v 6597.76348 35390.01403 13276.40041
v 4953.75501 35480.91146 13298.45159
v 3281.36204 35324.53861 13320.92986
v 1622.89319 35016.74419 13343.38969
v 0.00000 34675.33263 13365.38595
v -1589.82536 34399.30080 13386.48266
v -3164.68161 34236.07435 13406.26169
v -4742.37267 34168.05441 13424.33103
v -6325.24206 34122.93943 13440.33253
v -7893.47367 34003.89537 13453.94905
v -9410.83622 33728.67030 13464.91072
v -10841.17386 33263.63809 13473.00027
v -12168.77263 32640.59277 13478.05737
v -13413.32292 31950.22594 13479.98179
v -14631.72046 31314.43246 13478.73538
v -15903.96662 30847.00072 13474.34286
v -17307.01967 30616.25847 13466.89128
v -18885.94363 30622.48656 13456.52832
v -20633.74172 30797.69855 13443.45939
v -22488.77615 31027.59460 13427.94350
v -24352.37598 31187.89369 13410.28819
v -26121.41328 31182.48264 13390.84337
v -27724.31948 30970.50616 13369.99444
v -29146.82766 30573.67822 13348.15463
v -30436.78791 30062.17086 13325.75680
v -31684.83897 29524.88677 13303.24487
v -32986.89505 29035.13042 13281.06502
v -34401.86657 28623.89486 13259.65686
v -35920.79457 28269.86970 13239.44469
v -37460.30530 27909.07362 13220.82913
v -38884.88938 27459.99882 13204.17912
v -40051.88151 26854.82425 13189.82466
v -40864.05789 26065.43218 13178.05028
v -41310.93388 25115.17330 13169.08932
v -41482.83089 24072.64396 13163.11939
v -41550.81443 23030.17297 13160.25882
v -41717.62584 22074.94533 13160.56431
v -42155.44399 21262.91564 13164.02980
v -42951.73519 20604.22335 13170.58660
v -44082.38736 20064.38898 13180.10476
v -45422.25290 19579.85910 13192.39563
v -46790.19447 19081.57300 13207.21561
v -48013.33780 18517.84961 13224.27096
v -48987.98874 17868.75368 13243.22365
v -49715.33766 17147.70450 13263.69804
v -50298.63002 16390.97688 13285.28833
v -50902.04542 15640.06026 13307.56660
v -51685.33913 14924.04504 13330.09131
v -52737.39504 14248.61410 13352.41600
v -54032.84166 13595.22665 13374.09821
v -55428.25711 12929.95838 13394.70820
v -56700.78441 12217.82903 13413.83748
v -57616.97290 11436.65511 13431.10691
v -58008.68023 10585.08540 13446.17421
v -57829.88589 9682.12697 13458.74075
v -57174.46160 8758.99966 13468.55747
v -56248.24348 7847.13148 13475.42979
v -55304.53632 6967.37502 13479.22150
v -54564.90107 6124.66503 13479.85747
v -54152.22660 5309.79772 13477.32507
v -54058.80784 4506.90399 13471.67451
v -54159.91702 3702.82101 13463.01777
v -54267.45093 2893.90984 13451.52643
v -54204.26294 2087.16464 13437.42826
v -53872.66216 1295.13474 13421.00266
v 53860.08918 1295.93265 13727.74367
v 55257.63319 2036.11556 13722.34693
v 56503.91415 2818.89865 13720.07485
v 57380.94962 3642.68085 13720.97248
v 57778.98762 4492.64910 13725.02202
v 57723.73126 5349.08942 13732.14320
v 57357.57414 6196.86162 13742.19489
v 56882.02425 7031.64824 13754.97787
v 56481.93950 7860.14859 13770.23877
v 56258.36912 8694.18834 13787.67513
v 56193.53755 9541.55065 13806.94136
v 56160.00488 10397.98155 13827.65560
v 55970.37529 11244.53406 13849.40731
v 55449.63881 12052.25238 13871.76535
v 54504.34011 12793.00979 13894.28661
v 53164.00123 13452.41852 13916.52471
v 51580.07447 14039.37827 13938.03889
v 49982.62923 14587.68916 13958.40275
v 48609.68988 15148.01105 13977.21268
v 47633.48753 15772.25850 13994.09585
v 47108.66448 16495.78323 14008.71766
v 46959.53577 17324.05470 14020.78830
v 47009.78713 18229.32943 14030.06853
v 47043.37781 19159.31619 14036.37441
v 46875.04153 20055.32837 14039.58097
v 46406.16614 20873.57390 14039.62465
v 45647.70206 21601.60782 14036.50458
v 44703.82140 22263.32658 14030.28261
v 43723.91828 22909.86923 14021.08206
v 42841.28858 23599.03041 14009.08527
v 42120.77555 24370.35061 13994.53002
v 41533.64907 25225.15970 13977.70480
v 40967.68495 26119.57711 13958.94308
v 40267.68054 26974.11849 13938.61672
v 39291.06861 27697.59585 13917.12857
v 37958.53328 28217.57117 13894.90455
v 36282.05133 28506.77150 13872.38511
v 34361.39717 28595.76797 13850.01661
v 32351.55367 28566.69616 13828.24237
v 30413.49561 28529.36021 13807.49396
v 28665.95879 28587.40293 13788.18262
v 27154.47680 28806.02575 13770.69108
v 25846.95778 29192.54100 13755.36604
v 24655.18934 29696.77986 13742.51123
v 23472.60580 30231.48178 13732.38144
v 22213.64349 30705.66882 13725.17743
v 20840.62245 31059.22189 13721.04199
v 19369.76039 31286.20443 13720.05708
v 17856.25529 31438.26124 13722.24222
v 16366.11844 31606.39572 13727.55411
v 14946.75501 31887.16353 13735.88746
v 13607.77103 32345.05902 13747.07710
v 12318.63670 32984.52112 13760.90127
v 11022.77873 33741.88383 13777.08596
v 9661.26442 34500.76750 13795.31039
v 8195.93472 35126.21986 13815.21337
v 6622.76497 35506.25720 13836.40041
v 4970.78838 35586.70259 13858.45159
v 3288.09897 35387.38472 13880.92986
v 1621.68194 34994.12759 13903.38969
v 0.00000 34529.31207 13925.38595
v -1574.39564 34111.19674 13946.48266
v -3119.65496 33816.03896 13966.26169
v -4659.92668 33655.99744 13984.33103
v -6208.50996 33580.19943 14000.33253
v -7757.18969 33498.19441 14013.94905
v -9277.36719 33317.17083 14024.91072
v -10733.29343 32979.54133 14033.00027
v -12102.05059 32487.46999 14038.05737
v -13391.34793 31905.60503 14039.98179
v -14646.34057 31341.01174 14038.73538
v -15940.68186 30907.33017 14034.34286
v -17353.40889 30685.68598 14026.89128
v -18939.49599 30695.95169 14016.52832
v -20705.38274 30888.26184 14003.45939
v -22599.86948 31157.58210 13987.94350
v -24525.54819 31376.15191 13970.28819
v -26368.21991 31432.56812 13950.84337
v -28034.46780 31264.23374 13929.99444
v -29483.63189 30872.49749 13908.15463
v -30741.63080 30316.04772 13885.75680
v -31890.24938 29685.73357 13863.24487
v -33034.55869 29070.27261 13841.06502
v -34259.72236 28525.10235 13819.65686
v -35593.23450 28055.06523 13799.44469
v -36987.57367 27616.36315 13780.82913
v -38331.42010 27136.24359 13764.17912
v -39487.24992 26542.69451 13749.82466
v -40343.00768 25793.18451 13738.05028
v -40859.48360 24892.22760 13729.08932
v -41095.46417 23891.87334 13723.11939
v -41199.84019 22875.45906 13720.25882
v -41371.32444 21930.83109 13720.56431
v -41798.21656 21122.67965 13724.02980
v -42598.44156 20473.52086 13730.58660
v -43780.86793 19959.39405 13740.10476
v -45242.13096 19520.90872 13752.39563
v -46801.04041 19084.90339 13767.21561
v -48259.36211 18588.58145 13784.27096
v -49468.10194 17997.67812 13803.22365
v -50375.98077 17312.92940 13823.69804
v -51042.64754 16563.70209 13845.28833
v -51611.43694 15792.32963 13867.56660
v -52250.88408 15035.76364 13890.09131
v -53085.63060 14311.57277 13912.41600
v -54141.63017 13613.10782 13934.09821
v -55326.00122 12914.80139 13954.70820
v -56449.93873 12184.63211 13973.83748
v -57287.91088 11398.26094 13991.10691
v -57653.29221 10549.11669 14006.17421
v -57464.31511 9650.72131 14018.74075
v -56777.08772 8730.88642 14028.55747
v -55773.53954 7820.68997 14035.42979
v -54707.68117 6943.05673 14039.22150
v -53828.06314 6105.61619 14039.85747
v -53302.66763 5300.45135 14037.32507
v -53171.68602 4510.30324 14031.67451
v -53343.95925 3718.05582 14023.01777
v -53637.66576 2915.03289 14011.52643
v -53850.47133 2104.31031 13997.42826
v -53834.20996 1297.57502 13981.00266
v 51529.39865 1443.84482 14287.74367
v 52941.42549 2148.36505 14282.34693
v 54243.77111 2894.70406 14280.07485
v 55193.17074 3683.52904 14280.97248
v 55637.85212 4500.85345 14285.02202
v 55560.26248 5325.28814 14292.14320
v 55074.99612 6137.85208 14302.19489
v 54383.16989 6929.83483 14314.97787
v 53699.55026 7705.16659 14330.23877
v 53178.04193 8476.26266 14347.67513
v 52861.45072 9255.29590 14366.94136
v 52672.66196 10045.02868 14387.65560
v 52449.66096 10833.74557 14409.40731
v 52011.37513 11597.23244 14431.76535
v 51230.57481 12307.75240 14454.28661
v 50087.77300 12946.79008 14476.52471
v 48686.94459 13516.31970 14498.03889
v 47227.43551 14043.42404 14518.40275
v 45941.82000 14575.35849 14537.21268
v 45021.26651 15165.82595 14554.09585
v 44554.09984 15856.89415 14568.71766
v 44498.36447 16663.15819 14580.78830
v 44697.15856 17564.45017 14590.06853
v 44930.65726 18510.57832 14596.37441
v 44986.32388 19437.18807 14599.58097
v 44723.10294 20287.49859 14599.62465
v 44108.23097 21032.07391 14596.50458
v 43215.47089 21679.04808 14590.28261
v 42187.31043 22270.40582 14581.08206
v 41176.04638 22864.97045 14569.08527
v 40285.40377 23513.84625 14554.53002
v 39533.23659 24237.26939 14537.70480
v 38847.58121 25011.82722 14518.94308
v 38096.05918 25773.64083 14498.61672
v 37136.83505 26437.46377 14477.12857
v 35872.17969 26925.72289 14454.90455
v 34285.52441 27197.50654 14432.38511
v 32449.49340 27266.96415 14410.01661
v 30503.14535 27203.87325 14388.24237
v 28607.54279 27115.20724 14367.49396
v 26895.91734 27113.29097 14348.18262
v 25435.73933 27281.12839 14330.69108
v 24214.85862 27646.85300 14315.36604
v 23154.71869 28176.37539 14302.51123
v 22143.96228 28787.09265 14292.38144
v 21079.06321 29378.12507 14285.17743
v 19897.17667 29866.58737 14281.04199
v 18590.40888 30217.06098 14280.05708
v 17198.35885 30453.63336 14282.24222
v 15784.02734 30649.91982 14287.55411
v 14403.91981 30900.29214 14295.88746
v 13084.40399 31282.34554 14307.07710
v 11812.94315 31823.98709 14320.90127
v 10546.32334 32487.16663 14337.08596
v 9231.12593 33174.60403 14355.31039
v 7827.16406 33757.84420 14375.21337
v 6324.05325 34117.41213 14396.40041
v 4744.52625 34181.42991 14418.45159
v 3133.95018 33949.39334 14440.92986
v 1541.27745 33492.81320 14463.38969
v 0.00000 32932.37705 14485.38595
v -1482.71840 32399.39724 14506.48266
v -2924.41556 31994.72996 14526.26169
v -4354.51916 31759.16720 14544.33103
v -5796.64025 31665.23193 14560.33253
v -7254.47040 31632.78337 14573.94905
v -8708.24883 31562.51744 14584.91072
v -10124.09561 31375.25477 14593.00027
v -11472.63859 31043.01009 14598.05737
v -12748.79029 30600.87119 14599.98179
v -13983.28499 30135.58035 14598.73538
v -15239.37282 29754.95867 14594.34286
v -16593.93392 29549.03259 14586.89128
v -18108.94119 29556.56565 14576.52832
v -19803.92917 29748.71076 14563.45939
v -21640.83192 30035.43645 14547.94350
v -23528.66386 30292.42337 14530.28819
v -25348.29298 30399.09141 14510.84337
v -26989.66476 30274.74758 14489.99444
v -28388.37229 29900.76185 14468.15463
v -29547.74619 29321.76615 14445.75680
v -30537.24174 28626.25973 14423.24487
v -31466.36798 27914.05284 14401.06502
v -32442.68983 27262.23557 14379.65686
v -33529.01686 26701.41063 14359.44469
v -34716.09505 26209.88740 14340.82913
v -35922.18811 25726.94862 14324.17912
v -37021.40998 25179.57210 14309.82466
v -37891.90918 24512.49054 14298.05028
v -38466.99257 23710.71192 14289.08932
v -38770.15005 22806.72988 14283.11939
v -38919.78443 21870.38147 14280.25882
v -39099.79079 20985.52637 14280.56431
v -39504.39864 20222.20057 14284.02980
v -40275.45561 19614.12227 14290.58660
v -41453.91425 19149.10357 14300.10476
v -42963.13414 18775.03769 14312.39563
v -44630.95551 18418.55106 14327.21561
v -46243.97799 18009.15978 14344.27096
v -47615.88605 17500.30395 14363.22365
v -48646.24037 16880.32642 14383.69804
v -49349.02503 16170.52410 14405.28833
v -49840.58383 15412.21980 14427.56660
v -50290.86018 14648.57757 14450.09131
v -50855.03513 13908.29600 14472.41600
v -51609.98775 13196.99098 14494.09821
v -52518.73717 12498.69165 14514.70820
v -53436.45242 11785.82722 14533.83748
v -54157.00874 11032.95481 14551.10691
v -54484.55397 10228.40970 14566.17421
v -54305.30397 9379.33524 14578.74075
v -53634.18020 8508.53334 14588.55747
v -52619.27185 7644.99395 14595.42979
v -51501.59346 6812.42779 14599.22150
v -50543.15879 6020.69436 14599.85747
v -49947.52186 5263.53991 14597.32507
v -49799.69163 4523.22397 14591.67451
v -50045.69375 3779.63800 14583.01777
v -50518.33126 3019.65566 14571.52643
v -50999.69827 2242.46624 14557.42826
v -51298.34458 1458.50816 14541.00266
v 48846.75157 1614.09314 14847.74367
v 50192.37083 2281.59144 14842.34693
v 51474.00123 2987.60240 14840.07485
v 52436.35089 3735.00185 14840.97248
v 52894.21439 4511.36645 14845.02202
v 52788.49697 5294.79473 14852.14320
v 52200.87966 6063.55000 14862.19489
v 51322.38379 6805.12607 14874.97787
v 50387.00735 7520.65447 14890.23877
v 49593.58146 8222.67078 14907.67513
v 49042.84050 8927.24462 14926.94136
v 48711.09674 9644.07992 14947.65560
v 48468.87731 10369.27730 14969.40731
v 48137.04349 11084.50326 14991.76535
v 47559.85561 11763.65609 15014.28661
v 46668.73346 12384.81500 15036.52471
v 45514.03006 12942.67794 15058.03889
v 44253.63200 13455.97441 15078.40275
v 43102.49308 13965.90305 15097.21268
v 42260.87917 14524.99628 15114.09585
v 41846.37413 15179.69994 15128.71766
v 41853.11241 15952.83060 15140.78830
v 42151.96002 16832.70719 15150.06853
v 42531.01880 17773.73863 15156.37441
v 42761.98519 18709.20557 15159.58097
v 42669.38504 19572.35412 15159.62465
v 42179.37813 20318.48655 15156.50458
v 41332.58699 20939.88846 15150.28261
v 40258.31839 21467.65069 15141.08206
v 39120.94177 21959.05419 15129.08527
v 38058.35850 22474.56144 15114.53002
v 37134.36335 23052.60191 15097.70480
v 36320.86243 23691.62181 15078.94308
v 35514.70472 24346.66171 15058.61672
v 34581.46463 24942.68422 15037.12857
v 33409.31702 25400.74414 15014.90455
v 31953.30373 25668.10326 14992.38511
v 30254.54905 25741.44258 14970.01661
v 28428.52790 25674.26739 14948.24237
v 26627.69645 25564.88678 14927.49396
v 24992.59185 25528.17844 14908.18262
v 23608.86734 25660.29200 14890.69108
v 22484.71387 26008.31042 14875.36604
v 21555.13230 26555.53842 14862.51123
v 20709.69290 27227.87599 14852.38144
v 19832.39375 27919.42860 14845.17743
v 18838.80683 28528.67435 14841.04199
v 17697.84995 28992.61537 14840.05708
v 16432.11472 29306.84904 14842.24222
v 15099.00831 29524.31561 14847.55411
v 13761.82833 29732.97335 14855.88746
v 12462.81447 30020.18817 14867.07710
v 11208.36135 30436.51088 14880.90127
v 9970.95249 30971.96138 14897.08596
v 8705.39421 31553.71633 14915.31039
v 7371.39285 32066.64068 14935.21337
v 5952.52725 32390.02071 14956.40041
v 4463.81916 32438.00951 14978.45159
v 2945.32464 32189.78222 15000.92986
v 1445.19701 31698.79705 15023.38969
v 0.00000 31077.70916 15045.38595
v -1379.06043 30463.89327 15066.48266
v -2708.14643 29977.24309 15086.26169
v -4020.48921 29684.56825 15104.33103
v -5348.70245 29582.56771 15120.33253
v -6707.95155 29604.84791 15133.94905
v -8087.95108 29650.07244 15144.91072
v -9457.95938 29621.02422 15153.00027
v -10783.15593 29460.69189 15158.05737
v -12045.45171 29172.71975 15159.98179
v -13259.21004 28819.21607 15158.73538
v -14473.78670 28496.96885 15154.34286
v -15759.84985 28300.71694 15146.89128
v -17183.20161 28286.60159 15136.52832
v -18775.57565 28448.74215 15123.45939
v -20514.17389 28717.16233 15107.94350
v -22319.34875 28977.75802 15090.28819
v -24073.46691 29107.32922 15070.84337
v -25655.88585 29011.58533 15049.99444
v -26982.24568 28653.21894 15028.15463
v -28033.67285 28060.82754 15005.75680
v -28864.29646 27316.25843 14983.24487
v -29582.94196 26525.41155 14961.06502
v -30314.38870 25783.03210 14939.65686
v -31153.62093 25143.69427 14919.44469
v -32129.90863 24608.54787 14900.82913
v -33194.77599 24131.53223 14884.17912
v -34239.67499 23641.82212 14869.82466
v -35138.30761 23073.73933 14858.05028
v -35798.98814 22393.13580 14849.08932
v -36207.84856 21610.99262 14843.11939
v -36446.01589 20779.91282 14840.25882
v -36672.58670 19975.43898 14840.56431
v -37077.36204 19269.42412 14844.02980
v -37818.56110 18705.18364 14850.58660
v -38966.93929 18283.09057 14860.10476
v -40476.42611 17961.18684 14872.39563
v -42192.76662 17669.87397 14887.21561
v -43898.57121 17334.85681 14904.27096
v -45380.23644 16899.96661 14923.22365
v -46494.06718 16342.07426 14943.69804
v -47208.67035 15673.63631 14965.28833
v -47608.60315 14933.12993 14987.56660
v -47857.70135 14167.92770 15010.09131
v -48134.79348 13416.49447 15032.41600
v -48564.52675 12696.41964 15054.09821
v -49168.12229 12002.04315 15074.70820
v -49852.14624 11311.48001 15093.83748
v -50440.08140 10599.27266 15111.10691
v -50736.25331 9849.04537 15126.17421
v -50599.90477 9061.00976 15138.74075
v -50003.16441 8251.64778 15148.55747
v -49051.85982 7446.28535 15155.42979
v -47960.85336 6668.16376 15159.22150
v -46991.40141 5928.87381 15159.85747
v -46371.39309 5224.19734 15157.32507
v -46225.47834 4536.91955 15151.67451
v -46538.83674 3845.11482 15143.01777
v -47166.77439 3132.06719 15131.52643
v -47886.51043 2393.33947 15117.42826
v -48472.98262 1637.81357 15101.00266
vt 48.895394 12.047744
vt 49.778053 12.042347
vt 50.424278 12.040075
vt 50.755737 12.040972
vt 50.818352 12.045022
vt 50.757814 12.052143
vt 50.758998 12.062195
vt 50.971066 12.074978
vt 51.445064 12.090239
vt 52.106461 12.107675
vt 52.772759 12.126941
vt 53.210424 12.147656
vt 53.211605 12.169407
vt 52.664128 12.191765
vt 51.590652 12.214287
vt 50.143595 12.236525
vt 48.557828 12.258039
vt 47.077569 12.278403
vt 45.882563 12.297213
vt 45.038355 12.314096
vt 44.486680 12.328718
vt 44.077746 12.340788
vt 43.631720 12.350069
vt 43.006960 12.356374
vt 42.150914 12.359581
vt 41.116392 12.359625
vt 40.038612 12.356505
vt 39.082341 12.350283
vt 38.378729 12.341082
vt 37.974499 12.329085
vt 37.811194 12.314530
vt 37.741128 12.297705
vt 37.573684 12.278943
vt 37.135215 12.258617
vt 36.321717 12.237129
vt 35.126720 12.214905
vt 33.636180 12.192385
vt 31.993923 12.170017
vt 30.351163 12.148242
vt 28.818336 12.127494
vt 27.435542 12.108183
vt 26.170303 12.090691
vt 24.941096 12.075366
vt 23.656100 12.062511
vt 22.251871 12.052381
vt 20.717829 12.045177
vt 19.098630 12.041042
vt 17.475178 12.040057
vt 15.932901 12.042242
vt 14.530024 12.047554
vt 13.277689 12.055887
vt 12.138498 12.067077
vt 11.042640 12.080901
vt 9.914182 12.097086
vt 8.696818 12.115310
vt 7.369438 12.135213
vt 5.946659 12.156400
vt 4.465833 12.178452
vt 2.967355 12.200930
vt 1.477341 12.223390
vt 0.000000 12.245386
vt -1.477651 12.266483
vt -2.971823 12.286262
vt -4.485999 12.304331
vt -6.001196 12.320333
vt -7.477934 12.333949
vt -8.870102 12.344911
vt -10.145385 12.353000
vt -11.303424 12.358057
vt -12.383130 12.359982
vt -13.454534 12.358735
vt -14.596847 12.354343
vt -15.870369 12.346891
vt -17.293177 12.336528
vt -18.832430 12.323459
vt -20.414975 12.307944
vt -21.954445 12.290288
vt -23.385200 12.270843
vt -24.689967 12.249994
vt -25.909556 12.228155
vt -27.129298 12.205757
vt -28.445621 12.183245
vt -29.924301 12.161065
vt -31.566035 12.139657
vt -33.293427 12.119445
vt -34.966342 12.100829
vt -36.422369 12.084179
vt -37.529526 12.069825
vt -38.232888 12.058050
vt -38.577988 12.049089
vt -38.701279 12.043119
vt -38.789429 12.040259
vt -39.020513 12.040564
vt -39.507224 12.044030
vt -40.262234 12.050587
vt -41.198514 12.060105
vt -42.165241 12.072396
vt -43.007085 12.087216
vt -43.625845 12.104271
vt -44.021961 12.123224
vt -44.300031 12.143698
vt -44.635042 12.165288
vt -45.210121 12.187567
vt -46.147242 12.210091
vt -47.455531 12.232416
vt -49.016318 12.254098
vt -50.611565 12.274708
vt -51.987216 12.293837
vt -52.930519 12.311107
vt -53.335137 12.326174
vt -53.231688 12.338741
vt -52.773144 12.348557
vt -52.180104 12.355430
vt -51.664935 12.359222
vt -51.361123 12.359857
vt -51.282352 12.357325
vt -51.325346 12.351675
vt -51.315067 12.343018
vt -51.075958 12.331526
vt -50.503670 12.317428
vt -49.611581 12.301003
vt 53.969959 12.607744
vt 55.097793 12.602347
vt 56.009288 12.600075
vt 56.571150 12.600972
vt 56.775031 12.605022
vt 56.730290 12.612143
vt 56.615226 12.622195
vt 56.604497 12.634978
vt 56.798742 12.650239
vt 57.181567 12.667675
vt 57.619344 12.686941
vt 57.904112 12.707656
vt 57.824690 12.729407
vt 57.241168 12.751765
vt 56.136786 12.774287
vt 54.629128 12.796525
vt 52.936757 12.818039
vt 51.312823 12.838403
vt 49.968404 12.857213
vt 49.011519 12.874096
vt 48.421899 12.888718
vt 48.068854 12.900788
vt 47.764614 12.910069
vt 47.333530 12.916374
vt 46.672648 12.919581
vt 45.782995 12.919625
vt 44.761832 12.916505
vt 43.760100 12.910283
vt 42.921407 12.901082
vt 42.324870 12.889085
vt 41.952061 12.874530
vt 41.689208 12.857705
vt 41.363049 12.838943
vt 40.797007 12.818617
vt 39.867705 12.797129
vt 38.542426 12.774905
vt 36.885556 12.752385
vt 35.033257 12.730017
vt 33.146675 12.708242
vt 31.360806 12.687494
vt 29.746669 12.668183
vt 28.298635 12.650691
vt 26.949180 12.635366
vt 25.603460 12.622511
vt 24.179674 12.612381
vt 22.640122 12.605177
vt 21.002443 12.601042
vt 19.328564 12.600057
vt 17.697325 12.602242
vt 16.172390 12.607554
vt 14.777961 12.615887
vt 13.490964 12.627077
vt 12.251480 12.640901
vt 10.986105 12.657086
vt 9.634355 12.675310
vt 8.167773 12.695213
vt 6.595075 12.716400
vt 4.952725 12.738452
vt 3.286222 12.760930
vt 1.630825 12.783390
vt 0.000000 12.805386
vt -1.613979 12.826483
vt -3.228495 12.846262
vt -4.854277 12.864331
vt -6.482651 12.880333
vt -8.083121 12.893949
vt -9.613440 12.904911
vt -11.038536 12.913000
vt -12.350275 12.918057
vt -13.578860 12.919982
vt -14.789574 12.918735
vt -16.064267 12.914343
vt -17.473525 12.906891
vt -19.049896 12.896528
vt -20.773070 12.883459
vt -22.573976 12.867944
vt -24.357696 12.850288
vt -26.037573 12.830843
vt -27.567852 12.809994
vt -28.961875 12.788155
vt -30.287610 12.765757
vt -31.640622 12.743245
vt -33.103450 12.721065
vt -34.706301 12.699657
vt -36.404572 12.679445
vt -38.083396 12.660829
vt -39.589841 12.644179
vt -40.783008 12.629825
vt -41.584935 12.618050
vt -42.013767 12.609089
vt -42.186070 12.603119
vt -42.285650 12.600259
vt -42.508211 12.600564
vt -43.000285 12.604030
vt -43.813663 12.610587
vt -44.891755 12.620105
vt -46.093372 12.632396
vt -47.246203 12.647216
vt -48.211354 12.664271
vt -48.935855 12.683224
vt -49.473805 12.703698
vt -49.967601 12.725288
vt -50.594952 12.747567
vt -51.499847 12.770091
vt -52.732008 12.792416
vt -54.217007 12.814098
vt -55.768941 12.834708
vt -57.142756 12.853837
vt -58.109238 12.871107
vt -58.527351 12.886174
vt -58.389058 12.898741
vt -57.820952 12.908557
vt -57.041877 12.915430
vt -56.290932 12.919222
vt -55.750609 12.919857
vt -55.491453 12.917325
vt -55.457114 12.911675
vt -55.494451 12.903018
vt -55.417530 12.891526
vt -55.082490 12.877428
vt -54.446492 12.861003
vt 53.653486 13.167744
vt 54.950913 13.162347
vt 56.062130 13.160075
vt 56.806458 13.160972
vt 57.122757 13.165022
vt 57.079719 13.172143
vt 56.841271 13.182195
vt 56.599873 13.194978
vt 56.501599 13.210239
vt 56.589663 13.227675
vt 56.786374 13.246941
vt 56.919833 13.267656
vt 56.785886 13.289407
vt 56.223403 13.311765
vt 55.176322 13.334287
vt 53.720605 13.356525
vt 52.046547 13.378039
vt 50.402482 13.398403
vt 49.019196 13.417213
vt 48.040802 13.434096
vt 47.485213 13.448718
vt 47.246751 13.460788
vt 47.138726 13.470069
vt 46.960149 13.476374
vt 46.562969 13.479581
vt 45.896783 13.479625
vt 45.016644 13.476505
vt 44.052887 13.470283
vt 43.155263 13.461082
vt 42.432216 13.449085
vt 41.907117 13.434530
vt 41.506534 13.417705
vt 41.083814 13.398943
vt 40.468676 13.378617
vt 39.524715 13.357129
vt 38.194566 13.334905
vt 36.517571 13.312385
vt 34.614983 13.290017
vt 32.649230 13.268242
vt 30.772427 13.247494
vt 29.082217 13.228183
vt 27.599364 13.210691
vt 26.273031 13.195366
vt 25.009518 13.182511
vt 23.712313 13.172381
vt 22.318204 13.165177
vt 20.816823 13.161042
vt 19.248079 13.160057
vt 17.680481 13.162242
vt 16.180260 13.167554
vt 14.783854 13.175887
vt 13.484075 13.187077
vt 12.234286 13.200901
vt 10.967628 13.217086
vt 9.622712 13.235310
vt 8.165294 13.255213
vt 6.597763 13.276400
vt 4.953755 13.298452
vt 3.281362 13.320930
vt 1.622893 13.343390
vt 0.000000 13.365386
vt -1.589825 13.386483
vt -3.164682 13.406262
vt -4.742373 13.424331
vt -6.325242 13.440333
vt -7.893474 13.453949
vt -9.410836 13.464911
vt -10.841174 13.473000
vt -12.168773 13.478057
vt -13.413323 13.479982
vt -14.631720 13.478735
vt -15.903967 13.474343
vt -17.307020 13.466891
vt -18.885944 13.456528
vt -20.633742 13.443459
vt -22.488776 13.427944
vt -24.352376 13.410288
vt -26.121413 13.390843
vt -27.724319 13.369994
vt -29.146828 13.348155
vt -30.436788 13.325757
vt -31.684839 13.303245
vt -32.986895 13.281065
vt -34.401867 13.259657
vt -35.920795 13.239445
vt -37.460305 13.220829
vt -38.884889 13.204179
vt -40.051882 13.189825
vt -40.864058 13.178050
vt -41.310934 13.169089
vt -41.482831 13.163119
vt -41.550814 13.160259
vt -41.717626 13.160564
vt -42.155444 13.164030
vt -42.951735 13.170587
vt -44.082387 13.180105
vt -45.422253 13.192396
vt -46.790194 13.207216
vt -48.013338 13.224271
vt -48.987989 13.243224
vt -49.715338 13.263698
vt -50.298630 13.285288
vt -50.902045 13.307567
vt -51.685339 13.330091
vt -52.737395 13.352416
vt -54.032842 13.374098
vt -55.428257 13.394708
vt -56.700784 13.413837
vt -57.616973 13.431107
vt -58.008680 13.446174
vt -57.829886 13.458741
vt -57.174462 13.468557
vt -56.248243 13.475430
vt -55.304536 13.479222
vt -54.564901 13.479857
vt -54.152227 13.477325
vt -54.058808 13.471675
vt -54.159917 13.463018
vt -54.267451 13.451526
vt -54.204263 13.437428
vt -53.872662 13.421003
vt 53.860089 13.727744
vt 55.257633 13.722347
vt 56.503914 13.720075
vt 57.380950 13.720972
vt 57.778988 13.725022
vt 57.723731 13.732143
vt 57.357574 13.742195
vt 56.882024 13.754978
vt 56.481940 13.770239
vt 56.258369 13.787675
vt 56.193538 13.806941
vt 56.160005 13.827656
vt 55.970375 13.849407
vt 55.449639 13.871765
vt 54.504340 13.894287
vt 53.164001 13.916525
vt 51.580074 13.938039
vt 49.982629 13.958403
vt 48.609690 13.977213
vt 47.633488 13.994096
vt 47.108664 14.008718
vt 46.959536 14.020788
vt 47.009787 14.030069
vt 47.043378 14.036374
vt 46.875042 14.039581
vt 46.406166 14.039625
vt 45.647702 14.036505
vt 44.703821 14.030283
vt 43.723918 14.021082
vt 42.841289 14.009085
vt 42.120776 13.994530
vt 41.533649 13.977705
vt 40.967685 13.958943
vt 40.267681 13.938617
vt 39.291069 13.917129
vt 37.958533 13.894905
vt 36.282051 13.872385
vt 34.361397 13.850017
vt 32.351554 13.828242
vt 30.413496 13.807494
vt 28.665959 13.788183
vt 27.154477 13.770691
vt 25.846958 13.755366
vt 24.655189 13.742511
vt 23.472606 13.732381
vt 22.213643 13.725177
vt 20.840622 13.721042
vt 19.369760 13.720057
vt 17.856255 13.722242
vt 16.366118 13.727554
vt 14.946755 13.735887
vt 13.607771 13.747077
vt 12.318637 13.760901
vt 11.022779 13.777086
vt 9.661264 13.795310
vt 8.195935 13.815213
vt 6.622765 13.836400
vt 4.970788 13.858452
vt 3.288099 13.880930
vt 1.621682 13.903390
vt 0.000000 13.925386
vt -1.574396 13.946483
vt -3.119655 13.966262
vt -4.659927 13.984331
vt -6.208510 14.000333
vt -7.757190 14.013949
vt -9.277367 14.024911
vt -10.733293 14.033000
vt -12.102051 14.038057
vt -13.391348 14.039982
vt -14.646341 14.038735
vt -15.940682 14.034343
vt -17.353409 14.026891
vt -18.939496 14.016528
vt -20.705383 14.003459
vt -22.599869 13.987944
vt -24.525548 13.970288
vt -26.368220 13.950843
vt -28.034468 13.929994
vt -29.483632 13.908155
vt -30.741631 13.885757
vt -31.890249 13.863245
vt -33.034559 13.841065
vt -34.259722 13.819657
vt -35.593235 13.799445
vt -36.987574 13.780829
vt -38.331420 13.764179
vt -39.487250 13.749825
vt -40.343008 13.738050
vt -40.859484 13.729089
vt -41.095464 13.723119
vt -41.199840 13.720259
vt -41.371324 13.720564
vt -41.798217 13.724030
vt -42.598442 13.730587
vt -43.780868 13.740105
vt -45.242131 13.752396
vt -46.801040 13.767216
vt -48.259362 13.784271
vt -49.468102 13.803224
vt -50.375981 13.823698
vt -51.042648 13.845288
vt -51.611437 13.867567
vt -52.250884 13.890091
vt -53.085631 13.912416
vt -54.141630 13.934098
vt -55.326001 13.954708
vt -56.449939 13.973837
vt -57.287911 13.991107
vt -57.653292 14.006174
vt -57.464315 14.018741
vt -56.777088 14.028557
vt -55.773540 14.035430
vt -54.707681 14.039222
vt -53.828063 14.039857
vt -53.302668 14.037325
vt -53.171686 14.031675
vt -53.343959 14.023018
vt -53.637666 14.011526
vt -53.850471 13.997428
vt -53.834210 13.981003
vt 51.529399 14.287744
vt 52.941425 14.282347
vt 54.243771 14.280075
vt 55.193171 14.280972
vt 55.637852 14.285022
vt 55.560262 14.292143
vt 55.074996 14.302195
vt 54.383170 14.314978
vt 53.699550 14.330239
vt 53.178042 14.347675
vt 52.861451 14.366941
vt 52.672662 14.387656
vt 52.449661 14.409407
vt 52.011375 14.431765
vt 51.230575 14.454287
vt 50.087773 14.476525
vt 48.686945 14.498039
vt 47.227436 14.518403
vt 45.941820 14.537213
vt 45.021267 14.554096
vt 44.554100 14.568718
vt 44.498364 14.580788
vt 44.697159 14.590069
vt 44.930657 14.596374
vt 44.986324 14.599581
vt 44.723103 14.599625
vt 44.108231 14.596505
vt 43.215471 14.590283
vt 42.187310 14.581082
vt 41.176046 14.569085
vt 40.285404 14.554530
vt 39.533237 14.537705
vt 38.847581 14.518943
vt 38.096059 14.498617
vt 37.136835 14.477129
vt 35.872180 14.454905
vt 34.285524 14.432385
vt 32.449493 14.410017
vt 30.503145 14.388242
vt 28.607543 14.367494
vt 26.895917 14.348183
vt 25.435739 14.330691
vt 24.214859 14.315366
vt 23.154719 14.302511
vt 22.143962 14.292381
vt 21.079063 14.285177
vt 19.897177 14.281042
vt 18.590409 14.280057
vt 17.198359 14.282242
vt 15.784027 14.287554
vt 14.403920 14.295887
vt 13.084404 14.307077
vt 11.812943 14.320901
vt 10.546323 14.337086
vt 9.231126 14.355310
vt 7.827164 14.375213
vt 6.324053 14.396400
vt 4.744526 14.418452
vt 3.133950 14.440930
vt 1.541277 14.463390
vt 0.000000 14.485386
vt -1.482718 14.506483
vt -2.924416 14.526262
vt -4.354519 14.544331
vt -5.796640 14.560333
vt -7.254470 14.573949
vt -8.708249 14.584911
vt -10.124096 14.593000
vt -11.472639 14.598057
vt -12.748790 14.599982
vt -13.983285 14.598735
vt -15.239373 14.594343
vt -16.593934 14.586891
vt -18.108941 14.576528
vt -19.803929 14.563459
vt -21.640832 14.547944
vt -23.528664 14.530288
vt -25.348293 14.510843
vt -26.989665 14.489994
vt -28.388372 14.468155
vt -29.547746 14.445757
vt -30.537242 14.423245
vt -31.466368 14.401065
vt -32.442690 14.379657
vt -33.529017 14.359445
vt -34.716095 14.340829
vt -35.922188 14.324179
vt -37.021410 14.309825
vt -37.891909 14.298050
vt -38.466993 14.289089
vt -38.770150 14.283119
vt -38.919784 14.280259
vt -39.099791 14.280564
vt -39.504399 14.284030
vt -40.275456 14.290587
vt -41.453914 14.300105
vt -42.963134 14.312396
vt -44.630956 14.327216
vt -46.243978 14.344271
vt -47.615886 14.363224
vt -48.646240 14.383698
vt -49.349025 14.405288
vt -49.840584 14.427567
vt -50.290860 14.450091
vt -50.855035 14.472416
vt -51.609988 14.494098
vt -52.518737 14.514708
vt -53.436452 14.533837
vt -54.157009 14.551107
vt -54.484554 14.566174
vt -54.305304 14.578741
vt -53.634180 14.588557
vt -52.619272 14.595430
vt -51.501593 14.599222
vt -50.543159 14.599857
vt -49.947522 14.597325
vt -49.799692 14.591675
vt -50.045694 14.583018
vt -50.518331 14.571526
vt -50.999698 14.557428
vt -51.298345 14.541003
vt 48.846752 14.847744
vt 50.192371 14.842347
vt 51.474001 14.840075
vt 52.436351 14.840972
vt 52.894214 14.845022
vt 52.788497 14.852143
vt 52.200880 14.862195
vt 51.322384 14.874978
vt 50.387007 14.890239
vt 49.593581 14.907675
vt 49.042840 14.926941
vt 48.711097 14.947656
vt 48.468877 14.969407
vt 48.137043 14.991765
vt 47.559856 15.014287
vt 46.668733 15.036525
vt 45.514030 15.058039
vt 44.253632 15.078403
vt 43.102493 15.097213
vt 42.260879 15.114096
vt 41.846374 15.128718
vt 41.853112 15.140788
vt 42.151960 15.150069
vt 42.531019 15.156374
vt 42.761985 15.159581
vt 42.669385 15.159625
vt 42.179378 15.156505
vt 41.332587 15.150283
vt 40.258318 15.141082
vt 39.120942 15.129085
vt 38.058358 15.114530
vt 37.134363 15.097705
vt 36.320862 15.078943
vt 35.514705 15.058617
vt 34.581465 15.037129
vt 33.409317 15.014905
vt 31.953304 14.992385
vt 30.254549 14.970017
vt 28.428528 14.948242
vt 26.627696 14.927494
vt 24.992592 14.908183
vt 23.608867 14.890691
vt 22.484714 14.875366
vt 21.555132 14.862511
vt 20.709693 14.852381
vt 19.832394 14.845177
vt 18.838807 14.841042
vt 17.697850 14.840057
vt 16.432115 14.842242
vt 15.099008 14.847554
vt 13.761828 14.855887
vt 12.462814 14.867077
vt 11.208361 14.880901
vt 9.970952 14.897086
vt 8.705394 14.915310
vt 7.371393 14.935213
vt 5.952527 14.956400
vt 4.463819 14.978452
vt 2.945325 15.000930
vt 1.445197 15.023390
vt 0.000000 15.045386
vt -1.379060 15.066483
vt -2.708146 15.086262
vt -4.020489 15.104331
vt -5.348702 15.120333
vt -6.707952 15.133949
vt -8.087951 15.144911
vt -9.457959 15.153000
vt -10.783156 15.158057
vt -12.045452 15.159982
vt -13.259210 15.158735
vt -14.473787 15.154343
vt -15.759850 15.146891
vt -17.183202 15.136528
vt -18.775576 15.123459
vt -20.514174 15.107944
vt -22.319349 15.090288
vt -24.073467 15.070843
vt -25.655886 15.049994
vt -26.982246 15.028155
vt -28.033673 15.005757
vt -28.864296 14.983245
vt -29.582942 14.961065
vt -30.314389 14.939657
vt -31.153621 14.919445
vt -32.129909 14.900829
vt -33.194776 14.884179
vt -34.239675 14.869825
vt -35.138308 14.858050
vt -35.798988 14.849089
vt -36.207849 14.843119
vt -36.446016 14.840259
vt -36.672587 14.840564
vt -37.077362 14.844030
vt -37.818561 14.850587
vt -38.966939 14.860105
vt -40.476426 14.872396
vt -42.192767 14.887216
vt -43.898571 14.904271
vt -45.380236 14.923224
vt -46.494067 14.943698
vt -47.208670 14.965288
vt -47.608603 14.987567
vt -47.857701 15.010091
vt -48.134793 15.032416
vt -48.564527 15.054098
vt -49.168122 15.074708
vt -49.852146 15.093837
vt -50.440081 15.111107
vt -50.736253 15.126174
vt -50.599905 15.138741
vt -50.003164 15.148557
vt -49.051860 15.155430
vt -47.960853 15.159222
vt -46.991401 15.159857
vt -46.371393 15.157325
vt -46.225478 15.151675
vt -46.538837 15.143018
vt -47.166774 15.131526
vt -47.886510 15.117428
vt -48.472983 15.101003
f 1/1 122/122 123/123
f 1/1 123/123 2/2
f 2/2 123/123 124/124
f 2/2 124/124 3/3
f 3/3 124/124 125/125
f 3/3 125/125 4/4
f 4/4 125/125 126/126
f 4/4 126/126 5/5
f 5/5 126/126 127/127
f 5/5 127/127 6/6
f 6/6 127/127 128/128
f 6/6 128/128 7/7
f 7/7 128/128 129/129
f 7/7 129/129 8/8
f 8/8 129/129 130/130
f 8/8 130/130 9/9
f 9/9 130/130 131/131
f 9/9 131/131 10/10
f 10/10 131/131 132/132
f 10/10 132/132 11/11
f 11/11 132/132 133/133
f 11/11 133/133 12/12
f 12/12 133/133 134/134
f 12/12 134/134 13/13
f 13/13 134/134 135/135
f 13/13 135/135 14/14
f 14/14 135/135 136/136
f 14/14 136/136 15/15
f 15/15 136/136 137/137
f 15/15 137/137 16/16
f 16/16 137/137 138/138
f 16/16 138/138 17/17
f 17/17 138/138 139/139
f 17/17 139/139 18/18
f 18/18 139/139 140/140
f 18/18 140/140 19/19
f 19/19 140/140 141/141
f 19/19 141/141 20/20
f 20/20 141/141 142/142
f 20/20 142/142 21/21
f 21/21 142/142 143/143
f 21/21 143/143 22/22
f 22/22 143/143 144/144
f 22/22 144/144 23/23
f 23/23 144/144 145/145
f 23/23 145/145 24/24
f 24/24 145/145 146/146
f 24/24 146/146 25/25
f 25/25 146/146 147/147
f 25/25 147/147 26/26
f 26/26 147/147 148/148
f 26/26 148/148 27/27
f 27/27 148/148 149/149
f 27/27 149/149 28/28
f 28/28 149/149 150/150
f 28/28 150/150 29/29
f 29/29 150/150 151/151
f 29/29 151/151 30/30
f 30/30 151/151 152/152
f 30/30 152/152 31/31
f 31/31 152/152 153/153
f 31/31 153/153 32/32
f 32/32 153/153 154/154
f 32/32 154/154 33/33
f 33/33 154/154 155/155
f 33/33 155/155 34/34
f 34/34 155/155 156/156
f 34/34 156/156 35/35
f 35/35 156/156 157/157
f 35/35 157/157 36/36
f 36/36 157/157 158/158
f 36/36 158/158 37/37
f 37/37 158/158 159/159
f 37/37 159/159 38/38
f 38/38 159/159 160/160
f 38/38 160/160 39/39
f 39/39 160/160 161/161
f 39/39 161/161 40/40
f 40/40 161/161 162/162
f 40/40 162/162 41/41
f 41/41 162/162 163/163
f 41/41 163/163 42/42
f 42/42 163/163 164/164
f 42/42 164/164 43/43
f 43/43 164/164 165/165
f 43/43 165/165 44/44
f 44/44 165/165 166/166
f 44/44 166/166 45/45
f 45/45 166/166 167/167
f 45/45 167/167 46/46
f 46/46 167/167 168/168
f 46/46 168/168 47/47
f 47/47 168/168 169/169
f 47/47 169/169 48/48
f 48/48 169/169 170/170
f 48/48 170/170 49/49
f 49/49 170/170 171/171
f 49/49 171/171 50/50
f 50/50 171/171 172/172
f 50/50 172/172 51/51
f 51/51 172/172 173/173
f 51/51 173/173 52/52
f 52/52 173/173 174/174
f 52/52 174/174 53/53
f 53/53 174/174 175/175
f 53/53 175/175 54/54
f 54/54 175/175 176/176
f 54/54 176/176 55/55
f 55/55 176/176 177/177
f 55/55 177/177 56/56
f 56/56 177/177 178/178
f 56/56 178/178 57/57
f 57/57 178/178 179/179
f 57/57 179/179 58/58
f 58/58 179/179 180/180
f 58/58 180/180 59/59
f 59/59 180/180 181/181
f 59/59 181/181 60/60
f 60/60 181/181 182/182
f 60/60 182/182 61/61
f 61/61 182/182 183/183
f 61/61 183/183 62/62
f 62/62 183/183 184/184
f 62/62 184/184 63/63
f 63/63 184/184 185/185
f 63/63 185/185 64/64
f 64/64 185/185 186/186
f 64/64 186/186 65/65
f 65/65 186/186 187/187
f 65/65 187/187 66/66
f 66/66 187/187 188/188
f 66/66 188/188 67/67
f 67/67 188/188 189/189
f 67/67 189/189 68/68
f 68/68 189/189 190/190
f 68/68 190/190 69/69
f 69/69 190/190 191/191
f 69/69 191/191 70/70
f 70/70 191/191 192/192
f 70/70 192/192 71/71
f 71/71 192/192 193/193
f 71/71 193/193 72/72
f 72/72 193/193 194/194
f 72/72 194/194 73/73
f 73/73 194/194 195/195
f 73/73 195/195 74/74
f 74/74 195/195 196/196
f 74/74 196/196 75/75
f 75/75 196/196 197/197
f 75/75 197/197 76/76
f 76/76 197/197 198/198
f 76/76 198/198 77/77
f 77/77 198/198 199/199
f 77/77 199/199 78/78
f 78/78 199/199 200/200
f 78/78 200/200 79/79
f 79/79 200/200 201/201
f 79/79 201/201 80/80
f 80/80 201/201 202/202
f 80/80 202/202 81/81
f 81/81 202/202 203/203
f 81/81 203/203 82/82
f 82/82 203/203 204/204
f 82/82 204/204 83/83
f 83/83 204/204 205/205
f 83/83 205/205 84/84
f 84/84 205/205 206/206
f 84/84 206/206 85/85
f 85/85 206/206 207/207
f 85/85 207/207 86/86
f 86/86 207/207 208/208
f 86/86 208/208 87/87
f 87/87 208/208 209/209
f 87/87 209/209 88/88
f 88/88 209/209 210/210
f 88/88 210/210 89/89
f 89/89 210/210 211/211
f 89/89 211/211 90/90
f 90/90 211/211 212/212
f 90/90 212/212 91/91
f 91/91 212/212 213/213
f 91/91 213/213 92/92
f 92/92 213/213 214/214
f 92/92 214/214 93/93
f 93/93 214/214 215/215
f 93/93 215/215 94/94
f 94/94 215/215 216/216
f 94/94 216/216 95/95
f 95/95 216/216 217/217
f 95/95 217/217 96/96
f 96/96 217/217 218/218
f 96/96 218/218 97/97
f 97/97 218/218 219/219
f 97/97 219/219 98/98
f 98/98 219/219 220/220
f 98/98 220/220 99/99
f 99/99 220/220 221/221
f 99/99 221/221 100/100
f 100/100 221/221 222/222
f 100/100 222/222 101/101
f 101/101 222/222 223/223
f 101/101 223/223 102/102
f 102/102 223/223 224/224
f 102/102 224/224 103/103
f 103/103 224/224 225/225
f 103/103 225/225 104/104
f 104/104 225/225 226/226
f 104/104 226/226 105/105
f 105/105 226/226 227/227
f 105/105 227/227 106/106
f 106/106 227/227 228/228
f 106/106 228/228 107/107
f 107/107 228/228 229/229
f 107/107 229/229 108/108
f 108/108 229/229 230/230
f 108/108 230/230 109/109
f 109/109 230/230 231/231
f 109/109 231/231 110/110
f 110/110 231/231 232/232
f 110/110 232/232 111/111
f 111/111 232/232 233/233
f 111/111 233/233 112/112
f 112/112 233/233 234/234
f 112/112 234/234 113/113
f 113/113 234/234 235/235
f 113/113 235/235 114/114
f 114/114 235/235 236/236
f 114/114 236/236 115/115
f 115/115 236/236 237/237
f 115/115 237/237 116/116
f 116/116 237/237 238/238
f 116/116 238/238 117/117
f 117/117 238/238 239/239
f 117/117 239/239 118/118
f 118/118 239/239 240/240
f 118/118 240/240 119/119
f 119/119 240/240 241/241
f 119/119 241/241 120/120
f 120/120 241/241 242/242
f 120/120 242/242 121/121
f 122/122 243/243 244/244
f 122/122 244/244 123/123
f 123/123 244/244 245/245
f 123/123 245/245 124/124
f 124/124 245/245 246/246
f 124/124 246/246 125/125
f 125/125 246/246 247/247
f 125/125 247/247 126/126
f 126/126 247/247 248/248
f 126/126 248/248 127/127
f 127/127 248/248 249/249
f 127/127 249/249 128/128
f 128/128 249/249 250/250
f 128/128 250/250 129/129
f 129/129 250/250 251/251
f 129/129 251/251 130/130
f 130/130 251/251 252/252
f 130/130 252/252 131/131
f 131/131 252/252 253/253
f 131/131 253/253 132/132
f 132/132 253/253 254/254
f 132/132 254/254 133/133
f 133/133 254/254 255/255
f 133/133 255/255 134/134
f 134/134 255/255 256/256
f 134/134 256/256 135/135
f 135/135 256/256 257/257
f 135/135 257/257 136/136
f 136/136 257/257 258/258
f 136/136 258/258 137/137
f 137/137 258/258 259/259
f 137/137 259/259 138/138
f 138/138 259/259 260/260
f 138/138 260/260 139/139
f 139/139 260/260 261/261
f 139/139 261/261 140/140
f 140/140 261/261 262/262
f 140/140 262/262 141/141
f 141/141 262/262 263/263
f 141/141 263/263 142/142
f 142/142 263/263 264/264
f 142/142 264/264 143/143
f 143/143 264/264 265/265
f 143/143 265/265 144/144
f 144/144 265/265 266/266
f 144/144 266/266 145/145
f 145/145 266/266 267/267
f 145/145 267/267 146/146
f 146/146 267/267 268/268
f 146/146 268/268 147/147
f 147/147 268/268 269/269
f 147/147 269/269 148/148
f 148/148 269/269 270/270
f 148/148 270/270 149/149
f 149/149 270/270 271/271
f 149/149 271/271 150/150
f 150/150 271/271 272/272
f 150/150 272/272 151/151
f 151/151 272/272 273/273
f 151/151 273/273 152/152
f 152/152 273/273 274/274
f 152/152 274/274 153/153
f 153/153 274/274 275/275
f 153/153 275/275 154/154
f 154/154 275/275 276/276
f 154/154 276/276 155/155
f 155/155 276/276 277/277
f 155/155 277/277 156/156
f 156/156 277/277 278/278
f 156/156 278/278 157/157
f 157/157 278/278 279/279
f 157/157 279/279 158/158
f 158/158 279/279 280/280
f 158/158 280/280 159/159
f 159/159 280/280 281/281
f 159/159 281/281 160/160
f 160/160 281/281 282/282
f 160/160 282/282 161/161
f 161/161 282/282 283/283
f 161/161 283/283 162/162
f 162/162 283/283 284/284
f 162/162 284/284 163/163
f 163/163 284/284 285/285
f 163/163 285/285 164/164
f 164/164 285/285 286/286
f 164/164 286/286 165/165
f 165/165 286/286 287/287
f 165/165 287/287 166/166
f 166/166 287/287 288/288
f 166/166 288/288 167/167
f 167/167 288/288 289/289
f 167/167 289/289 168/168
f 168/168 289/289 290/290
f 168/168 290/290 169/169
f 169/169 290/290 291/291
f 169/169 291/291 170/170
f 170/170 291/291 292/292
f 170/170 292/292 171/171
f 171/171 292/292 293/293
f 171/171 293/293 172/172
f 172/172 293/293 294/294
f 172/172 294/294 173/173
f 173/173 294/294 295/295
f 173/173 295/295 174/174
f 174/174 295/295 296/296
f 174/174 296/296 175/175
f 175/175 296/296 297/297
f 175/175 297/297 176/176
f 176/176 297/297 298/298
f 176/176 298/298 177/177
f 177/177 298/298 299/299
f 177/177 299/299 178/178
f 178/178 299/299 300/300
f 178/178 300/300 179/179
f 179/179 300/300 301/301
f 179/179 301/301 180/180
f 180/180 301/301 302/302
f 180/180 302/302 181/181
f 181/181 302/302 303/303
f 181/181 303/303 182/182
f 182/182 303/303 304/304
f 182/182 304/304 183/183
f 183/183 304/304 305/305
f 183/183 305/305 184/184
f 184/184 305/305 306/306
f 184/184 306/306 185/185
f 185/185 306/306 307/307
f 185/185 307/307 186/186
f 186/186 307/307 308/308
f 186/186 308/308 187/187
f 187/187 308/308 309/309
f 187/187 309/309 188/188
f 188/188 309/309 310/310
f 188/188 310/310 189/189
f 189/189 310/310 311/311
f 189/189 311/311 190/190
f 190/190 311/311 312/312
f 190/190 312/312 191/191
f 191/191 312/312 313/313
f 191/191 313/313 192/192
f 192/192 313/313 314/314
f 192/192 314/314 193/193
f 193/193 314/314 315/315
f 193/193 315/315 194/194
f 194/194 315/315 316/316
f 194/194 316/316 195/195
f 195/195 316/316 317/317
f 195/195 317/317 196/196
f 196/196 317/317 318/318
f 196/196 318/318 197/197
f 197/197 318/318 319/319
f 197/197 319/319 198/198
f 198/198 319/319 320/320
f 198/198 320/320 199/199
f 199/199 320/320 321/321
f 199/199 321/321 200/200
f 200/200 321/321 322/322
f 200/200 322/322 201/201
f 201/201 322/322 323/323
f 201/201 323/323 202/202
f 202/202 323/323 324/324
f 202/202 324/324 203/203
f 203/203 324/324 325/325
f 203/203 325/325 204/204
f 204/204 325/325 326/326
f 204/204 326/326 205/205
f 205/205 326/326 327/327
f 205/205 327/327 206/206
f 206/206 327/327 328/328
f 206/206 328/328 207/207
f 207/207 328/328 329/329
f 207/207 329/329 208/208
f 208/208 329/329 330/330
f 208/208 330/330 209/209
f 209/209 330/330 331/331
f 209/209 331/331 210/210
f 210/210 331/331 332/332
f 210/210 332/332 211/211
f 211/211 332/332 333/333
f 211/211 333/333 212/212
f 212/212 333/333 334/334
f 212/212 334/334 213/213
f 213/213 334/334 335/335
f 213/213 335/335 214/214
f 214/214 335/335 336/336
f 214/214 336/336 215/215
f 215/215 336/336 337/337
f 215/215 337/337 216/216
f 216/216 337/337 338/338
f 216/216 338/338 217/217
f 217/217 338/338 339/339
f 217/217 339/339 218/218
f 218/218 339/339 340/340
f 218/218 340/340 219/219
f 219/219 340/340 341/341
f 219/219 341/341 220/220
f 220/220 341/341 342/342
f 220/220 342/342 221/221
f 221/221 342/342 343/343
f 221/221 343/343 222/222
f 222/222 343/343 344/344
f 222/222 344/344 223/223
f 223/223 344/344 345/345
f 223/223 345/345 224/224
f 224/224 345/345 346/346
f 224/224 346/346 225/225
f 225/225 346/346 347/347
f 225/225 347/347 226/226
f 226/226 347/347 348/348
f 226/226 348/348 227/227
f 227/227 348/348 349/349
f 227/227 349/349 228/228
f 228/228 349/349 350/350
f 228/228 350/350 229/229
f 229/229 350/350 351/351
f 229/229 351/351 230/230
f 230/230 351/351 352/352
f 230/230 352/352 231/231
f 231/231 352/352 353/353
f 231/231 353/353 232/232
f 232/232 353/353 354/354
f 232/232 354/354 233/233
f 233/233 354/354 355/355
f 233/233 355/355 234/234
f 234/234 355/355 356/356
f 234/234 356/356 235/235
f 235/235 356/356 357/357
f 235/235 357/357 236/236
f 236/236 357/357 358/358
f 236/236 358/358 237/237
f 237/237 358/358 359/359
f 237/237 359/359 238/238
f 238/238 359/359 360/360
f 238/238 360/360 239/239
f 239/239 360/360 361/361
f 239/239 361/361 240/240
f 240/240 361/361 362/362
f 240/240 362/362 241/241
f 241/241 362/362 363/363
f 241/241 363/363 242/242
f 243/243 364/364 365/365
f 243/243 365/365 244/244
f 244/244 365/365 366/366
f 244/244 366/366 245/245
f 245/245 366/366 367/367
f 245/245 367/367 246/246
f 246/246 367/367 368/368
f 246/246 368/368 247/247
f 247/247 368/368 369/369
f 247/247 369/369 248/248
f 248/248 369/369 370/370
f 248/248 370/370 249/249
f 249/249 370/370 371/371
f 249/249 371/371 250/250
f 250/250 371/371 372/372
f 250/250 372/372 251/251
f 251/251 372/372 373/373
f 251/251 373/373 252/252
f 252/252 373/373 374/374
f 252/252 374/374 253/253
f 253/253 374/374 375/375
f 253/253 375/375 254/254
f 254/254 375/375 376/376
f 254/254 376/376 255/255
f 255/255 376/376 377/377
f 255/255 377/377 256/256
f 256/256 377/377 378/378
f 256/256 378/378 257/257
f 257/257 378/378 379/379
f 257/257 379/379 258/258
f 258/258 379/379 380/380
f 258/258 380/380 259/259
f 259/259 380/380 381/381
f 259/259 381/381 260/260
f 260/260 381/381 382/382
f 260/260 382/382 261/261
f 261/261 382/382 383/383
f 261/261 383/383 262/262
f 262/262 383/383 384/384
f 262/262 384/384 263/263
f 263/263 384/384 385/385
f 263/263 385/385 264/264
f 264/264 385/385 386/386
f 264/264 386/386 265/265
f 265/265 386/386 387/387
f 265/265 387/387 266/266
f 266/266 387/387 388/388
f 266/266 388/388 267/267
f 267/267 388/388 389/389
f 267/267 389/389 268/268
f 268/268 389/389 390/390
f 268/268 390/390 269/269
f 269/269 390/390 391/391
f 269/269 391/391 270/270
f 270/270 391/391 392/392
f 270/270 392/392 271/271
f 271/271 392/392 393/393
f 271/271 393/393 272/272
f 272/272 393/393 394/394
f 272/272 394/394 273/273
f 273/273 394/394 395/395
f 273/273 395/395 274/274
f 274/274 395/395 396/396
f 274/274 396/396 275/275
f 275/275 396/396 397/397
f 275/275 397/397 276/276
f 276/276 397/397 398/398
f 276/276 398/398 277/277
f 277/277 398/398 399/399
f 277/277 399/399 278/278
f 278/278 399/399 400/400
f 278/278 400/400 279/279
f 279/279 400/400 401/401
f 279/279 401/401 280/280
f 280/280 401/401 402/402
f 280/280 402/402 281/281
f 281/281 402/402 403/403
f 281/281 403/403 282/282
f 282/282 403/403 404/404
f 282/282 404/404 283/283
f 283/283 404/404 405/405
f 283/283 405/405 284/284
f 284/284 405/405 406/406
f 284/284 406/406 285/285
f 285/285 406/406 407/407
f 285/285 407/407 286/286
f 286/286 407/407 408/408
f 286/286 408/408 287/287
f 287/287 408/408 409/409
f 287/287 409/409 288/288
f 288/288 409/409 410/410
f 288/288 410/410 289/289
f 289/289 410/410 411/411
f 289/289 411/411 290/290
f 290/290 411/411 412/412
f 290/290 412/412 291/291
f 291/291 412/412 413/413
f 291/291 413/413 292/292
f 292/292 413/413 414/414
f 292/292 414/414 293/293
f 293/293 414/414 415/415
f 293/293 415/415 294/294
f 294/294 415/415 416/416
f 294/294 416/416 295/295
f 295/295 416/416 417/417
f 295/295 417/417 296/296
f 296/296 417/417 418/418
f 296/296 418/418 297/297
f 297/297 418/418 419/419
f 297/297 419/419 298/298
f 298/298 419/419 420/420
f 298/298 420/420 299/299
f 299/299 420/420 421/421
f 299/299 421/421 300/300
f 300/300 421/421 422/422
f 300/300 422/422 301/301
f 301/301 422/422 423/423
f 301/301 423/423 302/302
f 302/302 423/423 424/424
f 302/302 424/424 303/303
f 303/303 424/424 425/425
f 303/303 425/425 304/304
f 304/304 425/425 426/426
f 304/304 426/426 305/305
f 305/305 426/426 427/427
f 305/305 427/427 306/306
f 306/306 427/427 428/428
f 306/306 428/428 307/307
f 307/307 428/428 429/429
f 307/307 429/429 308/308
f 308/308 429/429 430/430
f 308/308 430/430 309/309
f 309/309 430/430 431/431
f 309/309 431/431 310/310
f 310/310 431/431 432/432
f 310/310 432/432 311/311
f 311/311 432/432 433/433
f 311/311 433/433 312/312
f 312/312 433/433 434/434
f 312/312 434/434 313/313
f 313/313 434/434 435/435
f 313/313 435/435 314/314
f 314/314 435/435 436/436
f 314/314 436/436 315/315
f 315/315 436/436 437/437
f 315/315 437/437 316/316
f 316/316 437/437 438/438
f 316/316 438/438 317/317
f 317/317 438/438 439/439
f 317/317 439/439 318/318
f 318/318 439/439 440/440
f 318/318 440/440 319/319
f 319/319 440/440 441/441
f 319/319 441/441 320/320
f 320/320 441/441 442/442
f 320/320 442/442 321/321
f 321/321 442/442 443/443
f 321/321 443/443 322/322
f 322/322 443/443 444/444
f 322/322 444/444 323/323
f 323/323 444/444 445/445
f 323/323 445/445 324/324
f 324/324 445/445 446/446
f 324/324 446/446 325/325
f 325/325 446/446 447/447
f 325/325 447/447 326/326
f 326/326 447/447 448/448
f 326/326 448/448 327/327
f 327/327 448/448 449/449
f 327/327 449/449 328/328
f 328/328 449/449 450/450
f 328/328 450/450 329/329
f 329/329 450/450 451/451
f 329/329 451/451 330/330
f 330/330 451/451 452/452
f 330/330 452/452 331/331
f 331/331 452/452 453/453
f 331/331 453/453 332/332
f 332/332 453/453 454/454
f 332/332 454/454 333/333
f 333/333 454/454 455/455
f 333/333 455/455 334/334
f 334/334 455/455 456/456
f 334/334 456/456 335/335
f 335/335 456/456 457/457
f 335/335 457/457 336/336
f 336/336 457/457 458/458
f 336/336 458/458 337/337
f 337/337 458/458 459/459
f 337/337 459/459 338/338
f 338/338 459/459 460/460
f 338/338 460/460 339/339
f 339/339 460/460 461/461
f 339/339 461/461 340/340
f 340/340 461/461 462/462
f 340/340 462/462 341/341
f 341/341 462/462 463/463
f 341/341 463/463 342/342
f 342/342 463/463 464/464
f 342/342 464/464 343/343
f 343/343 464/464 465/465
f 343/343 465/465 344/344
f 344/344 465/465 466/466
f 344/344 466/466 345/345
f 345/345 466/466 467/467
f 345/345 467/467 346/346
f 346/346 467/467 468/468
f 346/346 468/468 347/347
f 347/347 468/468 469/469
f 347/347 469/469 348/348
f 348/348 469/469 470/470
f 348/348 470/470 349/349
f 349/349 470/470 471/471
f 349/349 471/471 350/350
f 350/350 471/471 472/472
f 350/350 472/472 351/351
f 351/351 472/472 473/473
f 351/351 473/473 352/352
f 352/352 473/473 474/474
f 352/352 474/474 353/353
f 353/353 474/474 475/475
f 353/353 475/475 354/354
f 354/354 475/475 476/476
f 354/354 476/476 355/355
f 355/355 476/476 477/477
f 355/355 477/477 356/356
f 356/356 477/477 478/478
f 356/356 478/478 357/357
f 357/357 478/478 479/479
f 357/357 479/479 358/358
f 358/358 479/479 480/480
f 358/358 480/480 359/359
f 359/359 480/480 481/481
f 359/359 481/481 360/360
f 360/360 481/481 482/482
f 360/360 482/482 361/361
f 361/361 482/482 483/483
f 361/361 483/483 362/362
f 362/362 483/483 484/484
f 362/362 484/484 363/363
f 364/364 485/485 486/486
f 364/364 486/486 365/365
f 365/365 486/486 487/487
f 365/365 487/487 366/366
f 366/366 487/487 488/488
f 366/366 488/488 367/367
f 367/367 488/488 489/489
f 367/367 489/489 368/368
f 368/368 489/489 490/490
f 368/368 490/490 369/369
f 369/369 490/490 491/491
f 369/369 491/491 370/370
f 370/370 491/491 492/492
f 370/370 492/492 371/371
f 371/371 492/492 493/493
f 371/371 493/493 372/372
f 372/372 493/493 494/494
f 372/372 494/494 373/373
f 373/373 494/494 495/495
f 373/373 495/495 374/374
f 374/374 495/495 496/496
f 374/374 496/496 375/375
f 375/375 496/496 497/497
f 375/375 497/497 376/376
f 376/376 497/497 498/498
f 376/376 498/498 377/377
f 377/377 498/498 499/499
f 377/377 499/499 378/378
f 378/378 499/499 500/500
f 378/378 500/500 379/379
f 379/379 500/500 501/501
f 379/379 501/501 380/380
f 380/380 501/501 502/502
f 380/380 502/502 381/381
f 381/381 502/502 503/503
f 381/381 503/503 382/382
f 382/382 503/503 504/504
f 382/382 504/504 383/383
f 383/383 504/504 505/505
f 383/383 505/505 384/384
f 384/384 505/505 506/506
f 384/384 506/506 385/385
f 385/385 506/506 507/507
f 385/385 507/507 386/386
f 386/386 507/507 508/508
f 386/386 508/508 387/387
f 387/387 508/508 509/509
f 387/387 509/509 388/388
f 388/388 509/509 510/510
f 388/388 510/510 389/389
f 389/389 510/510 511/511
f 389/389 511/511 390/390
f 390/390 511/511 512/512
f 390/390 512/512 391/391
f 391/391 512/512 513/513
f 391/391 513/513 392/392
f 392/392 513/513 514/514
f 392/392 514/514 393/393
f 393/393 514/514 515/515
f 393/393 515/515 394/394
f 394/394 515/515 516/516
f 394/394 516/516 395/395
f 395/395 516/516 517/517
f 395/395 517/517 396/396
f 396/396 517/517 518/518
f 396/396 518/518 397/397
f 397/397 518/518 519/519
f 397/397 519/519 398/398
f 398/398 519/519 520/520
f 398/398 520/520 399/399
f 399/399 520/520 521/521
f 399/399 521/521 400/400
f 400/400 521/521 522/522
f 400/400 522/522 401/401
f 401/401 522/522 523/523
f 401/401 523/523 402/402
f 402/402 523/523 524/524
f 402/402 524/524 403/403
f 403/403 524/524 525/525
f 403/403 525/525 404/404
f 404/404 525/525 526/526
f 404/404 526/526 405/405
f 405/405 526/526 527/527
f 405/405 527/527 406/406
f 406/406 527/527 528/528
f 406/406 528/528 407/407
f 407/407 528/528 529/529
f 407/407 529/529 408/408
f 408/408 529/529 530/530
f 408/408 530/530 409/409
f 409/409 530/530 531/531
f 409/409 531/531 410/410
f 410/410 531/531 532/532
f 410/410 532/532 411/411
f 411/411 532/532 533/533
f 411/411 533/533 412/412
f 412/412 533/533 534/534
f 412/412 534/534 413/413
f 413/413 534/534 535/535
f 413/413 535/535 414/414
f 414/414 535/535 536/536
f 414/414 536/536 415/415
f 415/415 536/536 537/537
f 415/415 537/537 416/416
f 416/416 537/537 538/538
f 416/416 538/538 417/417
f 417/417 538/538 539/539
f 417/417 539/539 418/418
f 418/418 539/539 540/540
f 418/418 540/540 419/419
f 419/419 540/540 541/541
f 419/419 541/541 420/420
f 420/420 541/541 542/542
f 420/420 542/542 421/421
f 421/421 542/542 543/543
f 421/421 543/543 422/422
f 422/422 543/543 544/544
f 422/422 544/544 423/423
f 423/423 544/544 545/545
f 423/423 545/545 424/424
f 424/424 545/545 546/546
f 424/424 546/546 425/425
f 425/425 546/546 547/547
f 425/425 547/547 426/426
f 426/426 547/547 548/548
f 426/426 548/548 427/427
f 427/427 548/548 549/549
f 427/427 549/549 428/428
f 428/428 549/549 550/550
f 428/428 550/550 429/429
f 429/429 550/550 551/551
f 429/429 551/551 430/430
f 430/430 551/551 552/552
f 430/430 552/552 431/431
f 431/431 552/552 553/553
f 431/431 553/553 432/432
f 432/432 553/553 554/554
f 432/432 554/554 433/433
f 433/433 554/554 555/555
f 433/433 555/555 434/434
f 434/434 555/555 556/556
f 434/434 556/556 435/435
f 435/435 556/556 557/557
f 435/435 557/557 436/436
f 436/436 557/557 558/558
f 436/436 558/558 437/437
f 437/437 558/558 559/559
f 437/437 559/559 438/438
f 438/438 559/559 560/560
f 438/438 560/560 439/439
f 439/439 560/560 561/561
f 439/439 561/561 440/440
f 440/440 561/561 562/562
f 440/440 562/562 441/441
f 441/441 562/562 563/563
f 441/441 563/563 442/442
f 442/442 563/563 564/564
f 442/442 564/564 443/443
f 443/443 564/564 565/565
f 443/443 565/565 444/444
f 444/444 565/565 566/566
f 444/444 566/566 445/445
f 445/445 566/566 567/567
f 445/445 567/567 446/446
f 446/446 567/567 568/568
f 446/446 568/568 447/447
f 447/447 568/568 569/569
f 447/447 569/569 448/448
f 448/448 569/569 570/570
f 448/448 570/570 449/449
f 449/449 570/570 571/571
f 449/449 571/571 450/450
f 450/450 571/571 572/572
f 450/450 572/572 451/451
f 451/451 572/572 573/573
f 451/451 573/573 452/452
f 452/452 573/573 574/574
f 452/452 574/574 453/453
f 453/453 574/574 575/575
f 453/453 575/575 454/454
f 454/454 575/575 576/576
f 454/454 576/576 455/455
f 455/455 576/576 577/577
f 455/455 577/577 456/456
f 456/456 577/577 578/578
f 456/456 578/578 457/457
f 457/457 578/578 579/579
f 457/457 579/579 458/458
f 458/458 579/579 580/580
f 458/458 580/580 459/459
f 459/459 580/580 581/581
f 459/459 581/581 460/460
f 460/460 581/581 582/582
f 460/460 582/582 461/461
f 461/461 582/582 583/583
f 461/461 583/583 462/462
f 462/462 583/583 584/584
f 462/462 584/584 463/463
f 463/463 584/584 585/585
f 463/463 585/585 464/464
f 464/464 585/585 586/586
f 464/464 586/586 465/465
f 465/465 586/586 587/587
f 465/465 587/587 466/466
f 466/466 587/587 588/588
f 466/466 588/588 467/467
f 467/467 588/588 589/589
f 467/467 589/589 468/468
f 468/468 589/589 590/590
f 468/468 590/590 469/469
f 469/469 590/590 591/591
f 469/469 591/591 470/470
f 470/470 591/591 592/592
f 470/470 592/592 471/471
f 471/471 592/592 593/593
f 471/471 593/593 472/472
f 472/472 593/593 594/594
f 472/472 594/594 473/473
f 473/473 594/594 595/595
f 473/473 595/595 474/474
f 474/474 595/595 596/596
f 474/474 596/596 475/475
f 475/475 596/596 597/597
f 475/475 597/597 476/476
f 476/476 597/597 598/598
f 476/476 598/598 477/477
f 477/477 598/598 599/599
f 477/477 599/599 478/478
f 478/478 599/599 600/600
f 478/478 600/600 479/479
f 479/479 600/600 601/601
f 479/479 601/601 480/480
f 480/480 601/601 602/602
f 480/480 602/602 481/481
f 481/481 602/602 603/603
f 481/481 603/603 482/482
f 482/482 603/603 604/604
f 482/482 604/604 483/483
f 483/483 604/604 605/605
f 483/483 605/605 484/484
f 485/485 606/606 607/607
f 485/485 607/607 486/486
f 486/486 607/607 608/608
f 486/486 608/608 487/487
f 487/487 608/608 609/609
f 487/487 609/609 488/488
f 488/488 609/609 610/610
f 488/488 610/610 489/489
f 489/489 610/610 611/611
f 489/489 611/611 490/490
f 490/490 611/611 612/612
f 490/490 612/612 491/491
f 491/491 612/612 613/613
f 491/491 613/613 492/492
f 492/492 613/613 614/614
f 492/492 614/614 493/493
f 493/493 614/614 615/615
f 493/493 615/615 494/494
f 494/494 615/615 616/616
f 494/494 616/616 495/495
f 495/495 616/616 617/617
f 495/495 617/617 496/496
f 496/496 617/617 618/618
f 496/496 618/618 497/497
f 497/497 618/618 619/619
f 497/497 619/619 498/498
f 498/498 619/619 620/620
f 498/498 620/620 499/499
f 499/499 620/620 621/621
f 499/499 621/621 500/500
f 500/500 621/621 622/622
f 500/500 622/622 501/501
f 501/501 622/622 623/623
f 501/501 623/623 502/502
f 502/502 623/623 624/624
f 502/502 624/624 503/503
f 503/503 624/624 625/625
f 503/503 625/625 504/504
f 504/504 625/625 626/626
f 504/504 626/626 505/505
f 505/505 626/626 627/627
f 505/505 627/627 506/506
f 506/506 627/627 628/628
f 506/506 628/628 507/507
f 507/507 628/628 629/629
f 507/507 629/629 508/508
f 508/508 629/629 630/630
f 508/508 630/630 509/509
f 509/509 630/630 631/631
f 509/509 631/631 510/510
f 510/510 631/631 632/632
f 510/510 632/632 511/511
f 511/511 632/632 633/633
f 511/511 633/633 512/512
f 512/512 633/633 634/634
f 512/512 634/634 513/513
f 513/513 634/634 635/635
f 513/513 635/635 514/514
f 514/514 635/635 636/636
f 514/514 636/636 515/515
f 515/515 636/636 637/637
f 515/515 637/637 516/516
f 516/516 637/637 638/638
f 516/516 638/638 517/517
f 517/517 638/638 639/639
f 517/517 639/639 518/518
f 518/518 639/639 640/640
f 518/518 640/640 519/519
f 519/519 640/640 641/641
f 519/519 641/641 520/520
f 520/520 641/641 642/642
f 520/520 642/642 521/521
f 521/521 642/642 643/643
f 521/521 643/643 522/522
f 522/522 643/643 644/644
f 522/522 644/644 523/523
f 523/523 644/644 645/645
f 523/523 645/645 524/524
f 524/524 645/645 646/646
f 524/524 646/646 525/525
f 525/525 646/646 647/647
f 525/525 647/647 526/526
f 526/526 647/647 648/648
f 526/526 648/648 527/527
f 527/527 648/648 649/649
f 527/527 649/649 528/528
f 528/528 649/649 650/650
f 528/528 650/650 529/529
f 529/529 650/650 651/651
f 529/529 651/651 530/530
f 530/530 651/651 652/652
f 530/530 652/652 531/531
f 531/531 652/652 653/653
f 531/531 653/653 532/532
f 532/532 653/653 654/654
f 532/532 654/654 533/533
f 533/533 654/654 655/655
f 533/533 655/655 534/534
f 534/534 655/655 656/656
f 534/534 656/656 535/535
f 535/535 656/656 657/657
f 535/535 657/657 536/536
f 536/536 657/657 658/658
f 536/536 658/658 537/537
f 537/537 658/658 659/659
f 537/537 659/659 538/538
f 538/538 659/659 660/660
f 538/538 660/660 539/539
f 539/539 660/660 661/661
f 539/539 661/661 540/540
f 540/540 661/661 662/662
f 540/540 662/662 541/541
f 541/541 662/662 663/663
f 541/541 663/663 542/542
f 542/542 663/663 664/664
f 542/542 664/664 543/543
f 543/543 664/664 665/665
f 543/543 665/665 544/544
f 544/544 665/665 666/666
f 544/544 666/666 545/545
f 545/545 666/666 667/667
f 545/545 667/667 546/546
f 546/546 667/667 668/668
f 546/546 668/668 547/547
f 547/547 668/668 669/669
f 547/547 669/669 548/548
f 548/548 669/669 670/670
f 548/548 670/670 549/549
f 549/549 670/670 671/671
f 549/549 671/671 550/550
f 550/550 671/671 672/672
f 550/550 672/672 551/551
f 551/551 672/672 673/673
f 551/551 673/673 552/552
f 552/552 673/673 674/674
f 552/552 674/674 553/553
f 553/553 674/674 675/675
f 553/553 675/675 554/554
f 554/554 675/675 676/676
f 554/554 676/676 555/555
f 555/555 676/676 677/677
f 555/555 677/677 556/556
f 556/556 677/677 678/678
f 556/556 678/678 557/557
f 557/557 678/678 679/679
f 557/557 679/679 558/558
f 558/558 679/679 680/680
f 558/558 680/680 559/559
f 559/559 680/680 681/681
f 559/559 681/681 560/560
f 560/560 681/681 682/682
f 560/560 682/682 561/561
f 561/561 682/682 683/683
f 561/561 683/683 562/562
f 562/562 683/683 684/684
f 562/562 684/684 563/563
f 563/563 684/684 685/685
f 563/563 685/685 564/564
f 564/564 685/685 686/686
f 564/564 686/686 565/565
f 565/565 686/686 687/687
f 565/565 687/687 566/566
f 566/566 687/687 688/688
f 566/566 688/688 567/567
f 567/567 688/688 689/689
f 567/567 689/689 568/568
f 568/568 689/689 690/690
f 568/568 690/690 569/569
f 569/569 690/690 691/691
f 569/569 691/691 570/570
f 570/570 691/691 692/692
f 570/570 692/692 571/571
f 571/571 692/692 693/693
f 571/571 693/693 572/572
f 572/572 693/693 694/694
f 572/572 694/694 573/573
f 573/573 694/694 695/695
f 573/573 695/695 574/574
f 574/574 695/695 696/696
f 574/574 696/696 575/575
f 575/575 696/696 697/697
f 575/575 697/697 576/576
f 576/576 697/697 698/698
f 576/576 698/698 577/577
f 577/577 698/698 699/699
f 577/577 699/699 578/578
f 578/578 699/699 700/700
f 578/578 700/700 579/579
f 579/579 700/700 701/701
f 579/579 701/701 580/580
f 580/580 701/701 702/702
f 580/580 702/702 581/581
f 581/581 702/702 703/703
f 581/581 703/703 582/582
f 582/582 703/703 704/704
f 582/582 704/704 583/583
f 583/583 704/704 705/705
f 583/583 705/705 584/584
f 584/584 705/705 706/706
f 584/584 706/706 585/585
f 585/585 706/706 707/707
f 585/585 707/707 586/586
f 586/586 707/707 708/708
f 586/586 708/708 587/587
f 587/587 708/708 709/709
f 587/587 709/709 588/588
f 588/588 709/709 710/710
f 588/588 710/710 589/589
f 589/589 710/710 711/711
f 589/589 711/711 590/590
f 590/590 711/711 712/712
f 590/590 712/712 591/591
f 591/591 712/712 713/713
f 591/591 713/713 592/592
f 592/592 713/713 714/714
f 592/592 714/714 593/593
f 593/593 714/714 715/715
f 593/593 715/715 594/594
f 594/594 715/715 716/716
f 594/594 716/716 595/595
f 595/595 716/716 717/717
f 595/595 717/717 596/596
f 596/596 717/717 718/718
f 596/596 718/718 597/597
f 597/597 718/718 719/719
f 597/597 719/719 598/598
f 598/598 719/719 720/720
f 598/598 720/720 599/599
f 599/599 720/720 721/721
f 599/599 721/721 600/600
f 600/600 721/721 722/722
f 600/600 722/722 601/601
f 601/601 722/722 723/723
f 601/601 723/723 602/602
f 602/602 723/723 724/724
f 602/602 724/724 603/603
f 603/603 724/724 725/725
f 603/603 725/725 604/604
f 604/604 725/725 726/726
f 604/604 726/726 605/605
